<svg width="32" height="32" fill="currentColor" viewBox="0 0 24 24" xmlns="http://www.w3.org/2000/svg">
<path d="M12 7.5A6.448 6.448 0 0 0 6.026 12 6.448 6.448 0 0 0 12 16.5a6.448 6.448 0 0 0 5.974-4.5A6.449 6.449 0 0 0 12 7.5Zm0 7.5a3 3 0 1 1 0-5.999A3 3 0 0 1 12 15Z"></path>
<path d="M12 1.5a10.5 10.5 0 1 0 0 21 10.5 10.5 0 0 0 0-21ZM12 18a7.991 7.991 0 0 1-7.478-5.818L4.478 12l.045-.182A7.99 7.99 0 0 1 12 6a7.99 7.99 0 0 1 7.477 5.818l.046.182-.045.182A7.992 7.992 0 0 1 12 18Z"></path>
<path d="M12 13.5a1.5 1.5 0 1 0 0-3 1.5 1.5 0 0 0 0 3Z"></path>
</svg>