<svg width="32" height="32" fill="currentColor" viewBox="0 0 24 24" xmlns="http://www.w3.org/2000/svg">
<path d="M22.5 18a4.5 4.5 0 1 0-9 0 4.5 4.5 0 0 0 9 0ZM21 18a2.965 2.965 0 0 1-.425 1.514l-4.09-4.089A2.975 2.975 0 0 1 18 15a3.003 3.003 0 0 1 3 3Zm-6 0c.003-.534.15-1.057.425-1.514l4.09 4.089A2.975 2.975 0 0 1 18 21a3.003 3.003 0 0 1-3-3Z"></path>
<path d="M10.5 1.5A9 9 0 1 0 12 19.365V18a6 6 0 0 1 6-6h1.365A8.953 8.953 0 0 0 10.5 1.5ZM9 13.943l-3-3L7.193 9.75 9 11.557 13.057 7.5l1.193 1.193L9 13.943Z"></path>
</svg>