<svg width="32" height="32" fill="currentColor" viewBox="0 0 24 24" xmlns="http://www.w3.org/2000/svg">
<path d="M12 1.5a8.26 8.26 0 0 0-8.25 8.25 8.166 8.166 0 0 0 1.662 4.95s.225.296.261.339L12 22.5l6.33-7.464c.033-.04.258-.336.258-.336v-.002A8.163 8.163 0 0 0 20.25 9.75 8.26 8.26 0 0 0 12 1.5Zm4.5 9.75a1.502 1.502 0 0 1-1.5 1.5h-1.099l-1.277 1.916-1.248-.832 1.723-2.584H15V7.5H9v3.75h1.5v1.5H9a1.502 1.502 0 0 1-1.5-1.5V7.5A1.502 1.502 0 0 1 9 6h6a1.502 1.502 0 0 1 1.5 1.5v3.75Z"></path>
</svg>