<svg width="32" height="32" fill="currentColor" viewBox="0 0 24 24" xmlns="http://www.w3.org/2000/svg">
<path d="M21 1.5H3A1.5 1.5 0 0 0 1.5 3v18A1.5 1.5 0 0 0 3 22.5h18a1.5 1.5 0 0 0 1.5-1.5V3A1.5 1.5 0 0 0 21 1.5Zm-7.591 10.099 1.993 1.992a3.726 3.726 0 0 1 1.098 2.652V19.5H15v-3.258a2.236 2.236 0 0 0-.659-1.59l-1.993-1.993a3.753 3.753 0 0 1-.348-.424c-.106.15-.222.292-.348.424l-1.993 1.993A2.236 2.236 0 0 0 9 16.242V19.5H7.5v-3.258a3.726 3.726 0 0 1 1.098-2.651l1.993-1.993a2.236 2.236 0 0 0 .659-1.59V6.62l-3.44 3.44L6.75 9 12 3.75 17.25 9l-1.06 1.06-3.44-3.439v3.386a2.236 2.236 0 0 0 .659 1.592Z"></path>
</svg>