<svg width="32" height="32" fill="currentColor" viewBox="0 0 24 24" xmlns="http://www.w3.org/2000/svg">
<path d="M14.25 18a1.5 1.5 0 1 0 0-3 1.5 1.5 0 0 0 0 3Z"></path>
<path d="M20.25 12h-2.46l-.407-1.225A1.498 1.498 0 0 0 15.96 9.75h-3.42a1.498 1.498 0 0 0-1.423 1.026L10.71 12H8.25a1.502 1.502 0 0 0-1.5 1.5v6.75a1.502 1.502 0 0 0 1.5 1.5h12a1.502 1.502 0 0 0 1.5-1.5V13.5a1.502 1.502 0 0 0-1.5-1.5Zm-6 7.5a3 3 0 1 1 0-5.999 3 3 0 0 1 0 5.999Z"></path>
<path d="M21.75 8.25h-1.5v1.5h1.5v-1.5Z"></path>
<path d="M21.75 5.25h-1.5v1.5h1.5v-1.5Z"></path>
<path d="M21.75 2.25h-1.5v1.5h1.5v-1.5Z"></path>
<path d="M18.75 2.25h-1.5v1.5h1.5v-1.5Z"></path>
<path d="M15.75 2.25h-1.5v1.5h1.5v-1.5Z"></path>
<path d="M12.75 2.25h-1.5v1.5h1.5v-1.5Z"></path>
<path d="M9.75 2.25h-1.5v1.5h1.5v-1.5Z"></path>
<path d="M6.75 2.25h-1.5v1.5h1.5v-1.5Z"></path>
<path d="M3.75 2.25h-1.5v1.5h1.5v-1.5Z"></path>
<path d="M3.75 5.25h-1.5v1.5h1.5v-1.5Z"></path>
<path d="M3.75 8.25h-1.5v1.5h1.5v-1.5Z"></path>
<path d="M3.75 11.25h-1.5v1.5h1.5v-1.5Z"></path>
<path d="M3.75 14.25h-1.5v1.5h1.5v-1.5Z"></path>
<path d="M3.75 17.25h-1.5v1.5h1.5v-1.5Z"></path>
<path d="M3.75 20.25h-1.5v1.5h1.5v-1.5Z"></path>
</svg>