<svg width="32" height="32" fill="currentColor" viewBox="0 0 24 24" xmlns="http://www.w3.org/2000/svg">
<path d="M14.25 16.5h-1.5V18h1.5v-1.5Z"></path>
<path d="M14.25 13.5h-1.5V15h1.5v-1.5Z"></path>
<path d="M12.75 18H10.5v1.5h2.25V18Z"></path>
<path d="M12 1.5A10.5 10.5 0 1 0 22.5 12 10.512 10.512 0 0 0 12 1.5ZM3.525 15H4.5l3.133 1.95a.75.75 0 0 0 1.02-.22l.756-1.134a.75.75 0 0 0-.094-.947L7.5 12.835l.75-2.334h3.992a.75.75 0 0 0 .697-.471l1.186-2.966a.75.75 0 0 0-.025-.614l-1.715-3.43a8.974 8.974 0 0 1 7.397 13.48H17.25a.75.75 0 0 0-.75.75v2.532A8.968 8.968 0 0 1 3.525 15Z"></path>
</svg>