<svg width="32" height="32" fill="currentColor" viewBox="0 0 24 24" xmlns="http://www.w3.org/2000/svg">
<path d="M12 1.5A10.5 10.5 0 1 0 22.5 12 10.512 10.512 0 0 0 12 1.5ZM3 12a8.986 8.986 0 0 1 3.75-7.295V6.75a.75.75 0 0 0 .75.75h2.537a.75.75 0 0 0 .67-.415L11.25 6h3v4.5H9.927a.751.751 0 0 0-.335.08l-2.427 1.213a.75.75 0 0 0-.415.67v2.78a.75.75 0 0 0 .472.696L10.5 17.25l.618 3.705A9.011 9.011 0 0 1 3 12Zm13.5 7.782V17.25l1.316-1.974a.751.751 0 0 0 .104-.598L17.25 12V9.75h3.454A8.926 8.926 0 0 1 16.5 19.782Z"></path>
</svg>