<svg width="32" height="32" fill="currentColor" viewBox="0 0 24 24" xmlns="http://www.w3.org/2000/svg">
<path d="M18 9.75h-2.25v4.5H18v-4.5Z"></path>
<path d="M21 4.5H3A1.5 1.5 0 0 0 1.5 6v12A1.5 1.5 0 0 0 3 19.5h18a1.5 1.5 0 0 0 1.5-1.5V6A1.5 1.5 0 0 0 21 4.5ZM6 15.75H4.5v-7.5H6v7.5Zm6.75-6H9v1.5h2.25a1.5 1.5 0 0 1 1.5 1.5v1.5a1.5 1.5 0 0 1-1.5 1.5H7.5v-1.5h3.75v-1.5H9a1.5 1.5 0 0 1-1.5-1.5v-1.5A1.5 1.5 0 0 1 9 8.25h3.75v1.5Zm6.75 4.5a1.5 1.5 0 0 1-1.5 1.5h-2.25a1.5 1.5 0 0 1-1.5-1.5v-4.5a1.5 1.5 0 0 1 1.5-1.5H18a1.5 1.5 0 0 1 1.5 1.5v4.5Z"></path>
</svg>