<svg width="32" height="32" fill="currentColor" viewBox="0 0 24 24" xmlns="http://www.w3.org/2000/svg">
<path d="M12 9a.75.75 0 1 0 0-1.5.75.75 0 0 0 0 1.5Z"></path>
<path d="M12 1.5a8.26 8.26 0 0 0-8.25 8.25 8.166 8.166 0 0 0 1.662 4.95s.225.296.261.339L12 22.5l6.33-7.464c.033-.04.258-.336.258-.336v-.002A8.163 8.163 0 0 0 20.25 9.75 8.26 8.26 0 0 0 12 1.5ZM12 6a2.25 2.25 0 1 1 0 4.5A2.25 2.25 0 0 1 12 6Zm3 8.25h-1.5v-1.5h-3v1.5H9v-1.5a1.502 1.502 0 0 1 1.5-1.5h3a1.502 1.502 0 0 1 1.5 1.5v1.5Z"></path>
</svg>