<svg width="32" height="32" fill="currentColor" viewBox="0 0 24 24" xmlns="http://www.w3.org/2000/svg">
<path d="M17.25 12.75a5.25 5.25 0 0 1-8.797 3.855l1.065-1.058a3.75 3.75 0 0 0 6.232-2.797V9.315l6.75-6.75L21.442 1.5 1.5 21.442 2.558 22.5l4.83-4.83a6.683 6.683 0 0 0 3.862 1.785V21h-3v1.5h7.5V21h-3v-1.545a6.75 6.75 0 0 0 6-6.705V10.5h-1.5v2.25Z"></path>
<path d="M6.75 12.99V10.5h-1.5v2.25a6.75 6.75 0 0 0 .188 1.568L6.75 12.99Z"></path>
<path d="M15.57 4.183a3.75 3.75 0 0 0-7.32 1.065v6.255l7.32-7.32Z"></path>
</svg>