<svg width="32" height="32" fill="currentColor" viewBox="0 0 24 24" xmlns="http://www.w3.org/2000/svg">
<path d="M19.5 12.44V9.75a7.4 7.4 0 0 0-.815-3.374L22.5 2.56 21.44 1.5 1.5 21.44l1.06 1.06 4.5-4.5h1.19v.75a3.75 3.75 0 0 0 7.5 0V18H21a.75.75 0 0 0 .75-.75V15a.75.75 0 0 0-.22-.53l-2.03-2.03Zm-5.25 6.31a2.25 2.25 0 0 1-4.5 0V18h4.5v.75Z"></path>
<path d="M16.207 3.554a7.444 7.444 0 0 0-3.457-1.266V.75h-1.5v1.538A7.51 7.51 0 0 0 4.5 9.75v2.69l-2.03 2.03a.75.75 0 0 0-.22.53v2.25a.73.73 0 0 0 .044.218L16.207 3.554Z"></path>
</svg>