<svg width="32" height="32" fill="currentColor" viewBox="0 0 24 24" xmlns="http://www.w3.org/2000/svg">
<path d="m20.055 14.67-1.89-.75a1.5 1.5 0 0 0-1.613.33L15 15.795a7.447 7.447 0 0 1-4.012-1.717L22.5 2.558 21.442 1.5 1.5 21.442 2.558 22.5l5.947-5.94c2.43 2.34 5.917 4.125 10.912 4.44A1.501 1.501 0 0 0 21 19.5v-3.442a1.5 1.5 0 0 0-.945-1.388Z"></path>
<path d="m6.113 13.643 2.64-2.64A8.76 8.76 0 0 1 8.138 9L9.69 7.448a1.5 1.5 0 0 0 .33-1.613l-.75-1.89A1.5 1.5 0 0 0 7.875 3H4.5A1.5 1.5 0 0 0 3 4.665a21.75 21.75 0 0 0 3.113 8.977Z"></path>
</svg>