<svg width="32" height="32" fill="currentColor" viewBox="0 0 24 24" xmlns="http://www.w3.org/2000/svg">
<path d="m15.25 16.112 1.68-1.68a1.626 1.626 0 0 1 1.752-.36l2.046.818a1.626 1.626 0 0 1 1.022 1.51v3.72a1.626 1.626 0 0 1-1.714 1.627C5.695 20.854 2.8 8.709 2.261 4.056A1.622 1.622 0 0 1 3.876 2.25h3.655A1.625 1.625 0 0 1 9.04 3.272l.818 2.046a1.625 1.625 0 0 1-.36 1.752l-1.68 1.68s.932 6.55 7.431 7.362Z"></path>
<path d="M18.308 6.75 21 4.058 19.942 3 17.25 5.692 14.557 3 13.5 4.058l2.692 2.692L13.5 9.443l1.057 1.057 2.693-2.692 2.692 2.692L21 9.443 18.308 6.75Z"></path>
</svg>