<svg width="32" height="32" fill="currentColor" viewBox="0 0 24 24" xmlns="http://www.w3.org/2000/svg">
<path d="m22.062 10.943-9.005-9.005a1.495 1.495 0 0 0-2.114 0l-9.005 9.005a1.495 1.495 0 0 0 0 2.114l9.005 9.005a1.495 1.495 0 0 0 2.114 0l9.005-9.005a1.495 1.495 0 0 0 0-2.114ZM12 18a1.125 1.125 0 1 1 0-2.25A1.125 1.125 0 0 1 12 18Zm.844-5.064v1.407h-1.688V11.25h1.594a1.406 1.406 0 1 0 0-2.813h-1.5a1.408 1.408 0 0 0-1.406 1.406v.375H8.156v-.375A3.098 3.098 0 0 1 11.25 6.75h1.5a3.094 3.094 0 0 1 .094 6.186Z"></path>
</svg>