<svg width="32" height="32" fill="currentColor" viewBox="0 0 24 24" xmlns="http://www.w3.org/2000/svg">
<path d="M19.87 2.25a2.605 2.605 0 0 0-1.86.78l-.383.392-.387-.393a2.608 2.608 0 0 0-3.72 0 2.693 2.693 0 0 0 0 3.77l4.108 4.156 4.104-4.157a2.693 2.693 0 0 0 0-3.769 2.606 2.606 0 0 0-1.861-.779Z"></path>
<path d="M12 22.5h-1.5v-3.75a2.253 2.253 0 0 0-2.25-2.25h-3A2.253 2.253 0 0 0 3 18.75v3.75H1.5v-3.75A3.755 3.755 0 0 1 5.25 15h3A3.755 3.755 0 0 1 12 18.75v3.75Z"></path>
<path d="M6.75 7.5a2.25 2.25 0 1 1 0 4.5 2.25 2.25 0 0 1 0-4.5Zm0-1.5a3.75 3.75 0 1 0 0 7.5 3.75 3.75 0 0 0 0-7.5Z"></path>
</svg>