<svg width="32" height="32" fill="currentColor" viewBox="0 0 24 24" xmlns="http://www.w3.org/2000/svg">
<path d="M12.75 8.25A2.25 2.25 0 0 1 15 6h.075a3.75 3.75 0 1 0 0-1.5H15a3.75 3.75 0 0 0-3.75 3.75V9h-1.5A2.25 2.25 0 0 1 7.5 6.75v-1.5A3.75 3.75 0 0 0 3.75 1.5H3V3h.75A2.25 2.25 0 0 1 6 5.25v1.5a3.75 3.75 0 0 0 3.75 3.75h1.5v5.25A2.25 2.25 0 0 1 9 18h-.075a3.75 3.75 0 1 0 0 1.5H9a3.75 3.75 0 0 0 3.75-3.75h1.875a1.875 1.875 0 0 1 1.875 1.875A3.383 3.383 0 0 0 19.875 21H21v-1.5h-1.125A1.875 1.875 0 0 1 18 17.625a3.383 3.383 0 0 0-3.375-3.375H12.75v-6Zm6-5.25a2.25 2.25 0 1 1 0 4.5 2.25 2.25 0 0 1 0-4.5ZM5.25 21a2.25 2.25 0 1 1 0-4.5 2.25 2.25 0 0 1 0 4.5Z"></path>
</svg>