<svg width="32" height="32" fill="currentColor" viewBox="0 0 24 24" xmlns="http://www.w3.org/2000/svg">
<path d="M11.25 15.75A2.25 2.25 0 0 1 9 18h-.075a3.75 3.75 0 1 0 0 1.5H9a3.75 3.75 0 0 0 3.75-3.75h-1.5Zm-6 5.25a2.25 2.25 0 1 1 0-4.5 2.25 2.25 0 0 1 0 4.5Z"></path>
<path d="M12.75 9.75h-1.5v4.5h1.5v-4.5Z"></path>
<path d="M18.75 1.5a3.75 3.75 0 0 0-3.675 3H15a3.75 3.75 0 0 0-3.75 3.75h1.5A2.25 2.25 0 0 1 15 6h.075a3.75 3.75 0 1 0 3.675-4.5Zm0 6a2.25 2.25 0 1 1 0-4.5 2.25 2.25 0 0 1 0 4.5Z"></path>
</svg>