<svg width="32" height="32" fill="currentColor" viewBox="0 0 24 24" xmlns="http://www.w3.org/2000/svg">
<path d="M11.25 10.5H7.5A1.5 1.5 0 0 1 6 9V3a1.5 1.5 0 0 1 .442-1.065c.318-.22.678-.368 1.058-.435h3.75V3H7.5v6h3.75v1.5Z"></path>
<path d="M4.5 4.5H3v6h1.5v-6Z"></path>
<path d="M4.5 1.5H3V3h1.5V1.5Z"></path>
<path d="m20.587 14.33-4.5-2.25a.75.75 0 0 0-.675 0l-4.5 2.25a.75.75 0 0 0-.412.668v5.25a.75.75 0 0 0 .412.667l4.5 2.25a.75.75 0 0 0 .675 0l4.5-2.25a.75.75 0 0 0 .413-.667v-5.25a.75.75 0 0 0-.413-.668Zm-4.837-.75 2.82 1.418-2.82 1.41-2.82-1.41 2.82-1.418ZM12 16.205l3 1.5v3.57l-3-1.5v-3.57Zm4.5 5.07v-3.562l3-1.5v3.57l-3 1.492Z"></path>
<path d="M17.25 1.5h-3a1.5 1.5 0 0 0-1.5 1.5v7.5h1.5v-3h3v3h1.5V3a1.5 1.5 0 0 0-1.5-1.5Zm-3 4.5V3h3v3h-3Z"></path>
</svg>