<svg width="32" height="32" fill="currentColor" viewBox="0 0 24 24" xmlns="http://www.w3.org/2000/svg">
<path d="m22.482 11.837-1.5-6.75a.75.75 0 0 0-.316-.461l-4.5-3a.751.751 0 0 0-.416-.126h-7.5a.75.75 0 0 0-.416.126l-4.5 3a.75.75 0 0 0-.316.461l-1.5 6.75a.751.751 0 0 0 .013.378l2.25 7.5a.75.75 0 0 0 .504.503l7.5 2.25h.003a.734.734 0 0 0 .423 0h.004l7.5-2.25a.75.75 0 0 0 .503-.503l2.25-7.5a.75.75 0 0 0 .014-.378Zm-14.287.625L5.263 6.598l5.46 1.986-2.528 3.878ZM12 9.372l2.692 4.128H9.308L12 9.373ZM14.536 15 12 20.073 9.464 15h5.072Zm-1.26-6.416 5.461-1.986-2.932 5.864-2.529-3.878Zm.366-1.729 2.322-3.56 2.637 1.757-4.959 1.803ZM12 6.627 9.634 3h4.732L12 6.627Zm-1.643.228L5.4 5.052l2.637-1.758 2.321 3.56Zm-3.632 6.022-3.602-1.35.9-4.052 2.702 5.402Zm3.827 7.656L5.676 19.07l2.346-3.598 2.53 5.06Zm5.425-5.06 2.347 3.597-4.877 1.463 2.53-5.06Zm3.999-7.998.9 4.052-3.601 1.35 2.701-5.402ZM3.403 13.233l3.446 1.292-2.095 3.213-1.351-4.505Zm15.843 4.505-2.095-3.213 3.446-1.292-1.351 4.505Z"></path>
</svg>