<svg width="32" height="32" fill="currentColor" viewBox="0 0 24 24" xmlns="http://www.w3.org/2000/svg">
<path d="m16.118 9.835-6.75-3.75a.75.75 0 0 0-.75 0l-6.75 3.75a.756.756 0 0 0-.368.663v7.497a.75.75 0 0 0 .39.652l6.75 3.75c.11.064.234.099.36.102a.792.792 0 0 0 .368-.102l6.75-3.75A.744.744 0 0 0 16.5 18v-7.5a.757.757 0 0 0-.382-.664ZM8.25 20.47 3 17.552v-5.79l5.25 2.918v5.79ZM9 13.382 3.795 10.5 9 7.598l5.205 2.896L9 13.382Zm6 4.17L9.75 20.47v-5.79L15 11.762v5.79Z"></path>
<path d="M22.5 4.5h-3v-3H18v3h-3V6h3v3h1.5V6h3V4.5Z"></path>
</svg>