<svg width="32" height="32" fill="currentColor" viewBox="0 0 24 24" xmlns="http://www.w3.org/2000/svg">
<path d="M12 15a3 3 0 1 1 0-5.999A3 3 0 0 1 12 15Zm0-4.5a1.5 1.5 0 1 0 0 3 1.5 1.5 0 0 0 0-3Z"></path>
<path d="M12 18a7.99 7.99 0 0 1-7.478-5.818L4.477 12l.045-.182A7.991 7.991 0 0 1 12 6a7.991 7.991 0 0 1 7.477 5.818l.046.182-.046.182A7.99 7.99 0 0 1 12 18Zm-5.974-6A6.448 6.448 0 0 0 12 16.5a6.448 6.448 0 0 0 5.973-4.5A6.449 6.449 0 0 0 12 7.5 6.448 6.448 0 0 0 6.026 12Z"></path>
<path d="M12 22.5A10.5 10.5 0 1 1 22.5 12 10.512 10.512 0 0 1 12 22.5ZM12 3a9 9 0 1 0 9 9 9.01 9.01 0 0 0-9-9Z"></path>
</svg>