<svg width="32" height="32" fill="currentColor" viewBox="0 0 24 24" xmlns="http://www.w3.org/2000/svg">
<path d="m22.162 19.582-2.287 1.14-2.13-4.972H11.25a1.5 1.5 0 0 1-1.5-1.5v-4.5a1.5 1.5 0 1 1 3 0v3H18v-1.5h-3.75v-1.5a3 3 0 1 0-6 0v.75a6.75 6.75 0 1 0 6.577 8.25h-1.545A5.25 5.25 0 1 1 8.25 12v2.25a3 3 0 0 0 3 3h5.505l2.37 5.527 3.712-1.86-.675-1.335Z"></path>
<path d="M11.625 6a2.625 2.625 0 1 1 0-5.25 2.625 2.625 0 0 1 0 5.25Zm0-3.75a1.125 1.125 0 1 0 0 2.25 1.125 1.125 0 0 0 0-2.25Z"></path>
</svg>