<svg width="32" height="32" fill="currentColor" viewBox="0 0 24 24" xmlns="http://www.w3.org/2000/svg">
<path d="M21 3a1.502 1.502 0 0 0-1.5 1.5V6H18a2.578 2.578 0 0 1-2.289-1.737.755.755 0 0 0-1.149-.374.742.742 0 0 0-.272.37A2.58 2.58 0 0 1 12 6a2.579 2.579 0 0 1-2.288-1.737A.755.755 0 0 0 9 3.75a.728.728 0 0 0-.71.509A2.58 2.58 0 0 1 6 6H4.5V4.5A1.502 1.502 0 0 0 3 3H1.5v1.5H3v15A1.502 1.502 0 0 0 4.5 21h15a1.502 1.502 0 0 0 1.5-1.5v-15h1.5V3H21ZM4.5 19.5v-3h3V15h-3v-3h3v-1.5h-3v-3H6a3.699 3.699 0 0 0 3-1.49 3.764 3.764 0 0 0 6 0 3.699 3.699 0 0 0 3 1.49h1.5v12h-15Z"></path>
</svg>