<svg width="32" height="32" fill="currentColor" viewBox="0 0 24 24" xmlns="http://www.w3.org/2000/svg">
<path d="M10.5 1.5H9V3h1.5V1.5Z"></path>
<path d="M12 3h-1.5v1.5H12V3Z"></path>
<path d="M13.5 4.5H12V6h1.5V4.5Z"></path>
<path d="M13.5 1.5H12V3h1.5V1.5Z"></path>
<path d="M10.5 4.5H9V6h1.5V4.5Z"></path>
<path d="M12 13.5h-1.5V15H12v-1.5Z"></path>
<path d="M13.5 15H12v1.5h1.5V15Z"></path>
<path d="M15 16.5h-1.5V18H15v-1.5Z"></path>
<path d="M15 13.5h-1.5V15H15v-1.5Z"></path>
<path d="M12 16.5h-1.5V18H12v-1.5Z"></path>
<path d="M15 7.5h-1.5V9H15V7.5Z"></path>
<path d="M16.5 9H15v1.5h1.5V9Z"></path>
<path d="M18 10.5h-1.5V12H18v-1.5Z"></path>
<path d="M18 7.5h-1.5V9H18V7.5Z"></path>
<path d="M15 10.5h-1.5V12H15v-1.5Z"></path>
<path d="M21 3a1.502 1.502 0 0 0-1.5 1.5v15h-15v-3h3V15h-3v-3h3v-1.5h-3v-3h3V6h-3V4.5A1.502 1.502 0 0 0 3 3H1.5v1.5H3v15A1.502 1.502 0 0 0 4.5 21h15a1.502 1.502 0 0 0 1.5-1.5v-15h1.5V3H21Z"></path>
</svg>