<svg width="32" height="32" fill="currentColor" viewBox="0 0 24 24" xmlns="http://www.w3.org/2000/svg">
<path d="M13.5 12H12v1.5h1.5V12Z"></path>
<path d="M15 13.5h-1.5V15H15v-1.5Z"></path>
<path d="M16.5 15H15v1.5h1.5V15Z"></path>
<path d="M16.5 12H15v1.5h1.5V12Z"></path>
<path d="M13.5 15H12v1.5h1.5V15Z"></path>
<path d="M15 9a2.923 2.923 0 0 1-3-2.833 2.926 2.926 0 0 1 .49-1.548l1.887-2.808a.778.778 0 0 1 1.245 0l1.864 2.771A2.98 2.98 0 0 1 18 6.167 2.923 2.923 0 0 1 15 9Zm0-5.428L13.758 5.42a1.42 1.42 0 0 0-.258.748A1.425 1.425 0 0 0 15 7.5a1.425 1.425 0 0 0 1.5-1.333 1.486 1.486 0 0 0-.281-.785L15 3.572Z"></path>
<path d="M21 3a1.502 1.502 0 0 0-1.5 1.5v15h-15v-12H6v6l.75 1.5.75-1.5v-6H9v3l.75 1.5.75-1.5V6h-6V4.5A1.502 1.502 0 0 0 3 3H1.5v1.5H3v15A1.502 1.502 0 0 0 4.5 21h15a1.502 1.502 0 0 0 1.5-1.5v-15h1.5V3H21Z"></path>
</svg>