<svg width="32" height="32" fill="currentColor" viewBox="0 0 24 24" xmlns="http://www.w3.org/2000/svg">
<path d="m18.188 16.027 1.646 1.097a.75.75 0 0 0 1.016-.174l2.25-3-1.2-.9-1.824 2.433-1.66-1.107a.75.75 0 0 0-1.026.188L15 17.91V12h-1.5v7.5A1.502 1.502 0 0 0 15 21h7.5v-1.5h-6.793l2.481-3.473Z"></path>
<path d="M12 15.75H1.5v1.5H12v-1.5Z"></path>
<path d="M12 19.5H1.5V21H12v-1.5Z"></path>
<path d="M8.25 12V8.25H9a3.003 3.003 0 0 0 3-3V3H9.75a2.984 2.984 0 0 0-2.06.83A4.503 4.503 0 0 0 3.75 1.5H1.5v2.25A4.505 4.505 0 0 0 6 8.25h.75V12H1.5v1.5H12V12H8.25Zm1.5-7.5h.75v.75A1.502 1.502 0 0 1 9 6.75h-.75V6a1.501 1.501 0 0 1 1.5-1.5ZM6 6.75a3.003 3.003 0 0 1-3-3V3h.75a3.003 3.003 0 0 1 3 3v.75H6Z"></path>
</svg>