<svg width="32" height="32" fill="currentColor" viewBox="0 0 24 24" xmlns="http://www.w3.org/2000/svg">
<path d="M15.75 18h-7.5v1.5h7.5V18Z"></path>
<path d="M14.25 21h-4.5v1.5h4.5V21Z"></path>
<path d="M17.287 12a7.209 7.209 0 0 1-1.404 1.607c-.803.744-1.633 1.514-1.633 2.893h1.5c0-.69.395-1.088 1.151-1.79a7.49 7.49 0 0 0 2.06-2.71h-1.674Z"></path>
<path d="M12 3c.964 0 1.914.235 2.767.683l.672-1.343A7.492 7.492 0 0 0 4.499 9a6.885 6.885 0 0 0 2.596 5.712c.758.701 1.155 1.1 1.155 1.788h1.5c0-1.38-.833-2.15-1.64-2.894A5.389 5.389 0 0 1 6 9a6.007 6.007 0 0 1 6-6Z"></path>
<path d="M21.75 10.5h-7.5a.75.75 0 0 1-.67-1.085l3.75-7.5a.75.75 0 0 1 1.34 0l3.75 7.5a.75.75 0 0 1-.67 1.085ZM15.464 9h5.072L18 3.927 15.464 9Z"></path>
</svg>