<svg width="32" height="32" fill="currentColor" viewBox="0 0 24 24" xmlns="http://www.w3.org/2000/svg">
<path d="M12 6a4.493 4.493 0 0 0 7.103 3.664L21.44 12l1.061-1.06-2.336-2.336A4.499 4.499 0 1 0 12 6Zm1.5 0a3 3 0 1 1 6 0 3 3 0 0 1-6 0Z"></path>
<path d="M15.75 18h-7.5v1.5h7.5V18Z"></path>
<path d="M14.25 21h-4.5v1.5h4.5V21Z"></path>
<path d="M8.11 13.607A5.389 5.389 0 0 1 6 9.002a6.004 6.004 0 0 1 4.5-5.803l-.29-1.472A7.507 7.507 0 0 0 4.5 9.002a6.884 6.884 0 0 0 2.595 5.712c.758.7 1.155 1.099 1.155 1.788h1.5c0-1.38-.833-2.15-1.64-2.895Z"></path>
<path d="M17.287 12a7.199 7.199 0 0 1-1.404 1.607c-.803.744-1.633 1.514-1.633 2.893h1.5c0-.69.395-1.088 1.151-1.79a8.222 8.222 0 0 0 1.777-2.124L17.287 12Z"></path>
</svg>