<svg width="32" height="32" fill="currentColor" viewBox="0 0 24 24" xmlns="http://www.w3.org/2000/svg">
<path d="M19.5 1.5H18v5.25h1.5V1.5Z"></path>
<path d="M18.75 8.25a1.125 1.125 0 1 0 0 2.25 1.125 1.125 0 0 0 0-2.25Z"></path>
<path d="M15.75 18h-7.5v1.5h7.5V18Z"></path>
<path d="M14.25 21h-4.5v1.5h4.5V21Z"></path>
<path d="M17.287 12a7.209 7.209 0 0 1-1.404 1.607c-.803.744-1.633 1.514-1.633 2.893h1.5c0-.69.395-1.088 1.151-1.79a7.49 7.49 0 0 0 2.06-2.71h-1.674Z"></path>
<path d="M12 3c1.054 0 2.09.28 3 .812V2.13A7.492 7.492 0 0 0 4.5 9a6.885 6.885 0 0 0 2.595 5.712c.758.701 1.155 1.1 1.155 1.788h1.5c0-1.38-.833-2.15-1.64-2.895A5.389 5.389 0 0 1 6 9a6.007 6.007 0 0 1 6-6Z"></path>
</svg>