<svg width="32" height="32" fill="currentColor" viewBox="0 0 24 24" xmlns="http://www.w3.org/2000/svg">
<path d="M15.75 18h-7.5v1.5h7.5V18Z"></path>
<path d="M14.25 21h-4.5v1.5h4.5V21Z"></path>
<path d="M8.11 13.605A5.39 5.39 0 0 1 6 9a6.007 6.007 0 0 1 6-6V1.5A7.508 7.508 0 0 0 4.5 9a6.885 6.885 0 0 0 2.595 5.712c.758.701 1.155 1.1 1.155 1.788h1.5c0-1.38-.833-2.15-1.64-2.895Z"></path>
<path d="M15.883 13.607c-.803.744-1.633 1.514-1.633 2.893h1.5c0-.69.395-1.088 1.151-1.79A6.894 6.894 0 0 0 19.5 9H18a5.402 5.402 0 0 1-2.117 4.607Z"></path>
<path d="M13.875 6.75a1.125 1.125 0 1 0 0-2.25 1.125 1.125 0 0 0 0 2.25Z"></path>
<path d="M21.375 6.75a1.125 1.125 0 1 0 0-2.25 1.125 1.125 0 0 0 0 2.25Z"></path>
<path d="M17.625 6.75a1.125 1.125 0 1 0 0-2.25 1.125 1.125 0 0 0 0 2.25Z"></path>
</svg>