<svg width="32" height="32" fill="currentColor" viewBox="0 0 24 24" xmlns="http://www.w3.org/2000/svg">
<path d="M15.75 18h-7.5v1.5h7.5V18Z"></path>
<path d="M14.25 21h-4.5v1.5h4.5V21Z"></path>
<path d="M8.11 13.605A5.39 5.39 0 0 1 6 9a6.007 6.007 0 0 1 6-6V1.5A7.508 7.508 0 0 0 4.5 9a6.885 6.885 0 0 0 2.595 5.712c.758.701 1.155 1.1 1.155 1.788h1.5c0-1.38-.833-2.15-1.64-2.895Z"></path>
<path d="M17.85 10.5a5.46 5.46 0 0 1-1.966 3.107c-.804.744-1.634 1.514-1.634 2.893h1.5c0-.69.395-1.088 1.151-1.79a6.857 6.857 0 0 0 2.478-4.21H17.85Z"></path>
<path d="M22.5 2.558 21.442 1.5 18.75 4.192 16.058 1.5 15 2.558l2.692 2.692L15 7.942 16.058 9l2.692-2.692L21.442 9 22.5 7.942 19.808 5.25 22.5 2.558Z"></path>
</svg>