<svg width="32" height="32" fill="currentColor" viewBox="0 0 24 24" xmlns="http://www.w3.org/2000/svg">
<path d="M15.75 18h-7.5v1.5h7.5V18Z"></path>
<path d="M14.25 21h-4.5v1.5h4.5V21Z"></path>
<path d="M8.11 13.605A5.39 5.39 0 0 1 6 9a6.007 6.007 0 0 1 6-6V1.5A7.508 7.508 0 0 0 4.5 9a6.885 6.885 0 0 0 2.595 5.712c.758.701 1.155 1.1 1.155 1.788h1.5c0-1.38-.833-2.15-1.64-2.895Z"></path>
<path d="M17.28 12a7.113 7.113 0 0 1-1.397 1.607c-.803.744-1.633 1.514-1.633 2.893h1.5c0-.69.395-1.088 1.151-1.79A7.488 7.488 0 0 0 18.957 12H17.28Z"></path>
<path d="M22.5 6a4.5 4.5 0 1 0-9 0 4.5 4.5 0 0 0 9 0ZM21 6a2.964 2.964 0 0 1-.425 1.514l-4.09-4.089A2.975 2.975 0 0 1 18 3a3.003 3.003 0 0 1 3 3Zm-6 0c.003-.534.15-1.057.425-1.514l4.09 4.089A2.975 2.975 0 0 1 18 9a3.003 3.003 0 0 1-3-3Z"></path>
</svg>