<svg width="32" height="32" fill="currentColor" viewBox="0 0 24 24" xmlns="http://www.w3.org/2000/svg">
<path d="M13.5 17.25H12v-1.5a2.253 2.253 0 0 0-2.25-2.25h-3a2.253 2.253 0 0 0-2.25 2.25v1.5H3v-1.5A3.754 3.754 0 0 1 6.75 12h3a3.755 3.755 0 0 1 3.75 3.75v1.5Z"></path>
<path d="M8.25 4.5a2.25 2.25 0 1 1 0 4.5 2.25 2.25 0 0 1 0-4.5Zm0-1.5a3.75 3.75 0 1 0 0 7.5 3.75 3.75 0 0 0 0-7.5Z"></path>
<path d="M22.5 19.5h-21V21h21v-1.5Z"></path>
<path d="M23.974 8.806a.75.75 0 0 0-.918-.53l-2.315.62L18 5.25l-.75.2 1.094 4.087-2.075.555L15 8.405l-.75.2.7 2.617a.75.75 0 0 0 .919.53l7.575-2.028a.75.75 0 0 0 .53-.918Z"></path>
</svg>