<svg width="32" height="32" fill="currentColor" viewBox="0 0 24 24" xmlns="http://www.w3.org/2000/svg">
<path d="M13.5 17.25H12v-1.5a2.253 2.253 0 0 0-2.25-2.25h-3a2.253 2.253 0 0 0-2.25 2.25v1.5H3v-1.5A3.755 3.755 0 0 1 6.75 12h3a3.755 3.755 0 0 1 3.75 3.75v1.5Z"></path>
<path d="M8.25 4.5a2.25 2.25 0 1 1 0 4.5 2.25 2.25 0 0 1 0-4.5Zm0-1.5a3.75 3.75 0 1 0 0 7.5 3.75 3.75 0 0 0 0-7.5Z"></path>
<path d="M22.5 19.5h-21V21h21v-1.5Z"></path>
<path d="M22.5 6H21V4.5h-1.5V3h3v3Z"></path>
<path d="M14.25 3h3v1.5h-1.5V6h-1.5V3Z"></path>
<path d="M22.5 9.75H21v1.5h1.5v-1.5Z"></path>
<path d="M21 8.25h-1.5v1.5H21v-1.5Z"></path>
<path d="M14.25 8.25h1.5v1.5h1.5v1.5h-3v-3Z"></path>
</svg>