<svg width="32" height="32" fill="currentColor" viewBox="0 0 24 24" xmlns="http://www.w3.org/2000/svg">
<path d="M21 3H3a1.5 1.5 0 0 0-1.5 1.5v15A1.5 1.5 0 0 0 3 21h18a1.5 1.5 0 0 0 1.5-1.5v-15A1.5 1.5 0 0 0 21 3Zm0 16.5H3v-15h18v15Z"></path>
<path d="M15.75 15h-6a2.632 2.632 0 0 0-.66-1.395l2.85-4.98-1.305-.75L7.8 12.84a2.626 2.626 0 1 0 1.687 3.66h6.263V15Zm-8.625 1.5a1.125 1.125 0 1 1 0-2.25 1.125 1.125 0 0 1 0 2.25Z"></path>
<path d="M19.5 6h-5.25v1.5h5.25V6Z"></path>
<path d="M17.25 9h-3v1.5h3V9Z"></path>
</svg>