<svg width="32" height="32" fill="currentColor" viewBox="0 0 24 24" xmlns="http://www.w3.org/2000/svg">
<path d="M12 1.5a10.5 10.5 0 1 0 0 21 10.5 10.5 0 0 0 0-21Zm8.88 9.105L16.5 13.14V4.215a9 9 0 0 1 4.38 6.39ZM9 14.01V9.99l3-1.74 3 1.732v4.02l-3 1.748-3-1.74Zm6-10.5v4.74L7.755 4.065A8.925 8.925 0 0 1 15 3.525V3.51Zm-8.64 1.5 4.14 2.378L3 11.715a9 9 0 0 1 3.36-6.72v.015Zm-3.24 8.377 4.38-2.535v8.933a9 9 0 0 1-4.38-6.398ZM9 20.476V15.75l7.253 4.185a8.94 8.94 0 0 1-7.253.54Zm8.64-1.5-4.14-2.37 7.5-4.328a9 9 0 0 1-3.36 6.728v-.03Z"></path>
</svg>