<svg width="32" height="32" fill="currentColor" viewBox="0 0 24 24" xmlns="http://www.w3.org/2000/svg">
<path d="M16.334 6a8.613 8.613 0 0 0-2.29.4c-.45.133-.906.236-1.368.31A4.504 4.504 0 0 0 8.25 3v1.5a2.995 2.995 0 0 1 2.87 2.175 15.098 15.098 0 0 1-1.213-.274A9.667 9.667 0 0 0 7.524 6C4.734 6 3 8.299 3 12c0 5.633 3.05 9 6 9h.002a5.367 5.367 0 0 0 1.867-.442A3.74 3.74 0 0 1 12 20.25a3.77 3.77 0 0 1 1.133.308c.59.258 1.223.408 1.867.442 2.948 0 6-3.367 6-9 0-2.768-1.222-6-4.666-6ZM15 19.5a4.128 4.128 0 0 1-1.343-.348A4.812 4.812 0 0 0 12 18.75a4.803 4.803 0 0 0-1.655.402A4.15 4.15 0 0 1 9 19.5h.001C6.788 19.5 4.5 16.694 4.5 12c0-1.353.295-4.5 3.024-4.5a8.427 8.427 0 0 1 2.01.354 9.737 9.737 0 0 0 2.287.396h.37a8.847 8.847 0 0 0 2.246-.402 7.386 7.386 0 0 1 1.897-.348c3.013 0 3.166 3.748 3.166 4.5 0 4.694-2.289 7.5-4.5 7.5Z"></path>
<path d="M13.5 5.25h-.75V4.5a1.502 1.502 0 0 1 1.5-1.5H15v.75a1.502 1.502 0 0 1-1.5 1.5Z"></path>
</svg>