<svg width="32" height="32" fill="currentColor" viewBox="0 0 24 24" xmlns="http://www.w3.org/2000/svg">
<path d="M12 13.5H4.5A1.5 1.5 0 0 1 3 12V4.5A1.5 1.5 0 0 1 4.5 3H12a1.5 1.5 0 0 1 1.5 1.5V12a1.5 1.5 0 0 1-1.5 1.5Zm-7.5-9V12H12V4.5H4.5Z"></path>
<path d="M19.5 9v3h-3V9h3Zm0-1.5h-3A1.5 1.5 0 0 0 15 9v3a1.5 1.5 0 0 0 1.5 1.5h3A1.5 1.5 0 0 0 21 12V9a1.5 1.5 0 0 0-1.5-1.5Z"></path>
<path d="M19.5 16.5v3h-3v-3h3Zm0-1.5h-3a1.5 1.5 0 0 0-1.5 1.5v3a1.5 1.5 0 0 0 1.5 1.5h3a1.5 1.5 0 0 0 1.5-1.5v-3a1.5 1.5 0 0 0-1.5-1.5Z"></path>
<path d="M12 16.5v3H9v-3h3Zm0-1.5H9a1.5 1.5 0 0 0-1.5 1.5v3A1.5 1.5 0 0 0 9 21h3a1.5 1.5 0 0 0 1.5-1.5v-3A1.5 1.5 0 0 0 12 15Z"></path>
</svg>