<svg width="32" height="32" fill="currentColor" viewBox="0 0 24 24" xmlns="http://www.w3.org/2000/svg">
<path d="M22.5 4.5a2.994 2.994 0 0 0-5.983-.169L7.19 6.196a2.993 2.993 0 1 0-3.44 4.197v6.213a2.993 2.993 0 1 0 3.643 3.643h6.214a2.993 2.993 0 1 0 4.196-3.44l1.865-9.327A2.996 2.996 0 0 0 22.5 4.5Zm-3-1.5a1.5 1.5 0 1 1 0 3 1.5 1.5 0 0 1 0-3ZM3 7.5a1.5 1.5 0 1 1 3 0 1.5 1.5 0 0 1-3 0ZM4.5 21a1.5 1.5 0 1 1 0-3.001 1.5 1.5 0 0 1 0 3Zm9.107-2.25H7.393a2.996 2.996 0 0 0-2.143-2.144v-6.213a2.99 2.99 0 0 0 2.233-2.726l9.327-1.865a3.004 3.004 0 0 0 1.387 1.387l-1.865 9.327a2.99 2.99 0 0 0-2.725 2.233ZM16.5 21a1.5 1.5 0 1 1 0-3.001 1.5 1.5 0 0 1 0 3Z"></path>
</svg>