<svg width="32" height="32" fill="currentColor" viewBox="0 0 24 24" xmlns="http://www.w3.org/2000/svg">
<path d="M20.25 16.607V7.394a2.993 2.993 0 1 0-3.643-3.644H7.394A2.994 2.994 0 1 0 3.75 7.394v9.213a2.994 2.994 0 1 0 3.644 3.643h9.213a2.994 2.994 0 1 0 3.643-3.643ZM19.5 3a1.5 1.5 0 1 1 0 3 1.5 1.5 0 0 1 0-3ZM3 4.5a1.5 1.5 0 1 1 3 0 1.5 1.5 0 0 1-3 0ZM4.5 21a1.5 1.5 0 1 1 0-3 1.5 1.5 0 0 1 0 3Zm12.107-2.25H7.394a2.995 2.995 0 0 0-2.144-2.143V7.394A2.996 2.996 0 0 0 7.394 5.25h9.213a2.995 2.995 0 0 0 2.143 2.144v9.213a2.995 2.995 0 0 0-2.143 2.143ZM19.5 21a1.5 1.5 0 1 1 0-3 1.5 1.5 0 0 1 0 3Z"></path>
</svg>