<svg width="32" height="32" fill="currentColor" viewBox="0 0 24 24" xmlns="http://www.w3.org/2000/svg">
<path d="M22.5 21h-21v1.5h21V21Z"></path>
<path d="m12.908 3.921 1.042.285.75 8.468 4.403 1.178a1.5 1.5 0 0 1 1.147 1.612 1.41 1.41 0 0 1-1.027 1.14 1.5 1.5 0 0 1-.75 0l-14.025-3.75a1.418 1.418 0 0 1-.998-1.725l1.313-4.875 1.08.285.457 3.885 4.5 1.215 2.108-7.718Zm-.75-1.65a.75.75 0 0 0-.51.518L9.75 9.801 7.643 9.24l-.375-3.398a.75.75 0 0 0-.518-.592l-2.347-.645a.705.705 0 0 0-.696.19.75.75 0 0 0-.19.32l-1.5 5.618a2.902 2.902 0 0 0 2.056 3.555l14.032 3.75a2.902 2.902 0 0 0 3.645-2.288 3 3 0 0 0-2.25-3.315l-3.39-.907-.712-7.996a.75.75 0 0 0-.54-.637l-2.31-.645a.795.795 0 0 0-.375 0l-.015.022Z"></path>
</svg>