<svg width="32" height="32" fill="currentColor" viewBox="0 0 24 24" xmlns="http://www.w3.org/2000/svg">
<path d="M9 18a3 3 0 1 1 0-6 3 3 0 0 1 0 6Zm0-4.5a1.5 1.5 0 1 0 0 3 1.5 1.5 0 0 0 0-3Z"></path>
<path d="M22.5 4.5a3.003 3.003 0 0 0-3-3 2.962 2.962 0 0 0-1.39.358L5.817 8.218a7.494 7.494 0 1 0 9.981 9.927l6.368-12.3c.215-.416.33-.877.333-1.345Zm-3-1.5a1.5 1.5 0 1 1 0 3 1.5 1.5 0 0 1 0-3Zm-2.986 1.356c-.002.049-.014.095-.014.144a3.003 3.003 0 0 0 3 3c.048 0 .093-.012.14-.014l-3.248 6.271A7.513 7.513 0 0 0 10.23 7.61l6.284-3.254ZM9 21a6 6 0 1 1 6-6 6.007 6.007 0 0 1-6 6Z"></path>
</svg>