<svg width="32" height="32" fill="currentColor" viewBox="0 0 24 24" xmlns="http://www.w3.org/2000/svg">
<path d="M16.5 19.5a1.5 1.5 0 1 0 0-3 1.5 1.5 0 0 0 0 3Z"></path>
<path d="M22.333 17.609A6.48 6.48 0 0 0 16.5 13.5a6.48 6.48 0 0 0-5.833 4.109L10.5 18l.167.391A6.48 6.48 0 0 0 16.5 22.5a6.48 6.48 0 0 0 5.833-4.109L22.5 18l-.167-.391ZM16.5 21a3 3 0 1 1 0-5.999 3 3 0 0 1 0 5.999Z"></path>
<path d="M9 18a3 3 0 1 1 2.236-5l-1.118 1a1.499 1.499 0 0 0-2.613 1.116A1.5 1.5 0 0 0 9 16.5V18Z"></path>
<path d="M19.5 1.5a2.895 2.895 0 0 0-1.388.36L5.82 8.22A7.493 7.493 0 0 0 9 22.5V21a6 6 0 1 1 4.222-10.26l1.05-1.05a7.504 7.504 0 0 0-4.042-2.077l6.285-3.255c0 .045-.015.09-.015.142a3 3 0 0 0 3 3c.045 0 .09-.015.142-.015L17.302 12h1.68l3.188-6.157A2.98 2.98 0 0 0 19.5 1.5Zm0 4.5a1.5 1.5 0 1 1 0-3 1.5 1.5 0 0 1 0 3Z"></path>
</svg>