<svg width="32" height="32" fill="currentColor" viewBox="0 0 24 24" xmlns="http://www.w3.org/2000/svg">
<path d="m15.75 20.388-1.943-1.943-1.057 1.058 3 3 5.25-5.25-1.058-1.058-4.192 4.193Z"></path>
<path d="M9 18a3 3 0 1 1 0-6 3 3 0 0 1 0 6Zm0-4.5a1.5 1.5 0 1 0 0 3 1.5 1.5 0 0 0 0-3Z"></path>
<path d="M19.5 1.5a2.895 2.895 0 0 0-1.388.36L5.82 8.22A7.493 7.493 0 0 0 9 22.5a7.01 7.01 0 0 0 1.5-.157v-1.53A6.22 6.22 0 0 1 9 21a6 6 0 1 1 5.955-5.25h2.085l5.13-9.907A2.98 2.98 0 0 0 19.5 1.5Zm-3.105 12.255a7.514 7.514 0 0 0-6.165-6.142l6.285-3.255c0 .045-.015.09-.015.142a3 3 0 0 0 3 3c.045 0 .09-.015.142-.015l-3.247 6.27ZM19.5 6a1.5 1.5 0 1 1 0-3 1.5 1.5 0 0 1 0 3Z"></path>
</svg>