<svg width="32" height="32" fill="currentColor" viewBox="0 0 24 24" xmlns="http://www.w3.org/2000/svg">
<path d="M12 2.252a9.69 9.69 0 0 0-9.75 9.75v.75a9.75 9.75 0 0 0 9.75 9.75h5.25v-1.5H12a8.25 8.25 0 0 1-8.25-8.25v-.75A8.205 8.205 0 0 1 12 3.752a7.98 7.98 0 0 1 8.25 8.25c0 2.693-1.05 3.75-2.745 3.75-1.185 0-1.755-.967-1.755-2.25v-6h-1.5v1.455a2.88 2.88 0 0 0-2.625-1.455 4.11 4.11 0 0 0-4.125 4.08v1.59a4.11 4.11 0 0 0 4.125 4.08 3.21 3.21 0 0 0 3-1.845 3.263 3.263 0 0 0 2.933 1.845c2.302 0 4.192-1.5 4.192-5.25A9.54 9.54 0 0 0 12 2.252Zm2.25 10.92a2.625 2.625 0 0 1-5.25 0v-1.59a2.625 2.625 0 1 1 5.25 0v1.59Z"></path>
</svg>