<svg width="32" height="32" fill="currentColor" viewBox="0 0 24 24" xmlns="http://www.w3.org/2000/svg">
<path d="M21 10.5h-.75v-9h-1.5v9H18a1.501 1.501 0 0 0-1.5 1.5v1.5A1.502 1.502 0 0 0 18 15h.75v7.5h1.5V15H21a1.502 1.502 0 0 0 1.5-1.5V12a1.502 1.502 0 0 0-1.5-1.5Zm0 3h-3V12h3v1.5Z"></path>
<path d="M13.5 4.5h-.75v-3h-1.5v3h-.75A1.501 1.501 0 0 0 9 6v1.5A1.501 1.501 0 0 0 10.5 9h.75v13.5h1.5V9h.75A1.501 1.501 0 0 0 15 7.5V6a1.502 1.502 0 0 0-1.5-1.5Zm0 3h-3V6h3v1.5Z"></path>
<path d="M6 15h-.75V1.5h-1.5V15H3a1.502 1.502 0 0 0-1.5 1.5V18A1.502 1.502 0 0 0 3 19.5h.75v3h1.5v-3H6A1.502 1.502 0 0 0 7.5 18v-1.5A1.502 1.502 0 0 0 6 15Zm0 3H3v-1.5h3V18Z"></path>
</svg>