<svg width="32" height="32" fill="currentColor" viewBox="0 0 24 24" xmlns="http://www.w3.org/2000/svg">
<path d="m20.585 6.83-4.5-2.25a.75.75 0 0 0-.67 0l-4.5 2.25a.75.75 0 0 0-.415.67v5.25a.75.75 0 0 0 .415.67l4.5 2.25a.752.752 0 0 0 .67 0l4.5-2.25a.75.75 0 0 0 .415-.67V7.5a.75.75 0 0 0-.415-.67Zm-4.835-.741L18.573 7.5 15.75 8.911 12.927 7.5l2.823-1.411ZM12 8.714l3 1.5v3.572l-3-1.5V8.714Zm4.5 5.072v-3.572l3-1.5v3.572l-3 1.5Z"></path>
<path d="M10.125 19.5a1.125 1.125 0 1 0 0-2.25 1.125 1.125 0 0 0 0 2.25Z"></path>
<path d="M15 22.5H5.25a1.502 1.502 0 0 1-1.5-1.5V3a1.502 1.502 0 0 1 1.5-1.5H15V3H5.25v18H15v-3h1.5v3a1.502 1.502 0 0 1-1.5 1.5Z"></path>
</svg>