<svg width="32" height="32" fill="currentColor" viewBox="0 0 24 24" xmlns="http://www.w3.org/2000/svg">
<path d="M12.75 1.5h-1.5v3.72h1.5V1.5Z"></path>
<path d="m18.895 4.041-2.63 2.63 1.06 1.062 2.63-2.63-1.06-1.062Z"></path>
<path d="M22.5 11.25h-3.72v1.5h3.72v-1.5Z"></path>
<path d="m17.33 16.267-1.06 1.061 2.63 2.63 1.06-1.06-2.63-2.63Z"></path>
<path d="M12.75 18.781h-1.5v3.72h1.5v-3.72Z"></path>
<path d="m6.678 16.268-2.63 2.63 1.06 1.061 2.631-2.63-1.06-1.061Z"></path>
<path d="M5.22 11.25H1.5v1.5h3.72v-1.5Z"></path>
<path d="M5.104 4.04 4.043 5.103l2.63 2.63 1.061-1.06-2.63-2.631Z"></path>
<path d="M12 9a3 3 0 1 1 0 6 3 3 0 0 1 0-6Zm0-1.5a4.5 4.5 0 1 0 0 9 4.5 4.5 0 0 0 0-9Z"></path>
</svg>