<svg width="32" height="32" fill="currentColor" viewBox="0 0 24 24" xmlns="http://www.w3.org/2000/svg">
<path d="M4.5 21a1.5 1.5 0 1 0 0-3 1.5 1.5 0 0 0 0 3Z"></path>
<path d="M21 13.5h-2.25V12a1.502 1.502 0 0 0-1.5-1.5h-3a1.502 1.502 0 0 0-1.5 1.5v1.5H10.5A1.502 1.502 0 0 0 9 15v6a1.502 1.502 0 0 0 1.5 1.5H21a1.502 1.502 0 0 0 1.5-1.5v-6a1.502 1.502 0 0 0-1.5-1.5ZM14.25 12h3v1.5h-3V12ZM21 21H10.5v-6H21v6Z"></path>
<path d="M7.5 4.5h3V9H12V4.5h3V9h1.5V4.5h3V9H21V4.504A1.505 1.505 0 0 0 19.496 3H3.004A1.503 1.503 0 0 0 1.5 4.504v10.492A1.504 1.504 0 0 0 3.004 16.5H7.5v-12ZM6 15H3V4.5h3V15Z"></path>
</svg>