<svg width="32" height="32" fill="currentColor" viewBox="0 0 24 24" xmlns="http://www.w3.org/2000/svg">
<path d="M18.75 8.25h-7.5a.75.75 0 0 0-.75.75v3a4.503 4.503 0 0 0 3.75 4.433V21H12v1.5h6V21h-2.25v-4.567A4.503 4.503 0 0 0 19.5 12V9a.75.75 0 0 0-.75-.75ZM18 12a3 3 0 0 1-6 0V9.75h6V12Z"></path>
<path d="M11.25.75H7.5a.75.75 0 0 0-.75.75v5.528A4.567 4.567 0 0 0 4.5 11.25v10.5a.75.75 0 0 0 .75.75H9V21H6v-9.75c0-2.39 1.673-3.015 1.737-3.038l.513-.171V2.25h2.25V6H12V1.5a.75.75 0 0 0-.75-.75Z"></path>
</svg>