<svg width="32" height="32" fill="currentColor" viewBox="0 0 24 24" xmlns="http://www.w3.org/2000/svg">
<path d="M12.75 21v-4.5h-1.5V21h-7.5v1.5h16.5V21h-7.5Z"></path>
<path d="M6.75 12.75a.75.75 0 1 0 0-1.5.75.75 0 0 0 0 1.5Z"></path>
<path d="M19.5 15h-15A1.502 1.502 0 0 1 3 13.5v-3A1.502 1.502 0 0 1 4.5 9h15a1.502 1.502 0 0 1 1.5 1.5v3a1.502 1.502 0 0 1-1.5 1.5Zm-15-4.5v3h15v-3h-15Z"></path>
<path d="M6.75 5.25a.75.75 0 1 0 0-1.5.75.75 0 0 0 0 1.5Z"></path>
<path d="M19.5 7.5h-15A1.502 1.502 0 0 1 3 6V3a1.502 1.502 0 0 1 1.5-1.5h15A1.502 1.502 0 0 1 21 3v3a1.502 1.502 0 0 1-1.5 1.5ZM4.5 3v3h15V3h-15Z"></path>
</svg>