<svg width="32" height="32" fill="currentColor" viewBox="0 0 24 24" xmlns="http://www.w3.org/2000/svg">
<path d="M12 1.5A10.5 10.5 0 1 0 22.5 12 10.512 10.512 0 0 0 12 1.5Zm8.962 9.75H16.53c.188-1.94.897-3.795 2.053-5.365a8.954 8.954 0 0 1 2.378 5.365Zm-8.212 0V3.038a8.939 8.939 0 0 1 4.716 1.828 12.199 12.199 0 0 0-2.436 6.384h-2.28Zm-1.5 0H8.97a12.198 12.198 0 0 0-2.436-6.384 8.939 8.939 0 0 1 4.716-1.828v8.212Zm0 1.5v8.212a8.939 8.939 0 0 1-4.716-1.828A12.199 12.199 0 0 0 8.97 12.75h2.28Zm1.5 0h2.28a12.199 12.199 0 0 0 2.436 6.384 8.939 8.939 0 0 1-4.716 1.828V12.75ZM5.416 5.885a10.806 10.806 0 0 1 2.053 5.365H3.04a8.954 8.954 0 0 1 2.377-5.365ZM3.038 12.75H7.47a10.806 10.806 0 0 1-2.053 5.365 8.954 8.954 0 0 1-2.378-5.365Zm15.546 5.365a10.806 10.806 0 0 1-2.053-5.365h4.43a8.955 8.955 0 0 1-2.377 5.365Z"></path>
</svg>