<svg width="32" height="32" fill="currentColor" viewBox="0 0 24 24" xmlns="http://www.w3.org/2000/svg">
<path d="M23.932 4.938a.75.75 0 0 0-.682-.438c-3.576 0-6.195.667-8.25 2.133V2.25h-1.5V4.5h-3V2.25H9v4.383C6.946 5.167 4.326 4.5.75 4.5a.75.75 0 0 0-.567 1.24C1.459 7.218 2.25 8.779 2.25 12a.75.75 0 0 0 .75.75c2.076 0 4.5.982 4.5 3.75a.753.753 0 0 0 .7.748c.313.022 3.05.292 3.05 3.002a.75.75 0 0 0 1.5 0c0-2.71 2.738-2.98 3.047-3.002a.75.75 0 0 0 .703-.748c0-2.768 2.424-3.75 4.5-3.75a.75.75 0 0 0 .75-.75c0-3.222.791-4.783 2.067-6.26a.75.75 0 0 0 .115-.802Zm-3.67 6.345c-2.539.231-4.915 1.672-5.227 4.559A4.914 4.914 0 0 0 12 17.707a4.914 4.914 0 0 0-3.035-1.865c-.312-2.887-2.688-4.328-5.227-4.559a9.901 9.901 0 0 0-1.454-5.235C5.383 6.253 7.558 7.12 9.22 8.78a.75.75 0 0 0 1.28-.53V6h3v2.25a.75.75 0 0 0 1.28.53c1.662-1.66 3.837-2.527 6.936-2.732a9.9 9.9 0 0 0-1.454 5.235Z"></path>
</svg>