<svg width="32" height="32" fill="currentColor" viewBox="0 0 24 24" xmlns="http://www.w3.org/2000/svg">
<path d="M20.25 8.25h-.75V7.5A1.5 1.5 0 0 0 18 6h-3v1.5h3v2.25h2.25v4.5H18v2.25h-3.75V18H18a1.5 1.5 0 0 0 1.5-1.5v-.75h.75a1.5 1.5 0 0 0 1.5-1.5v-4.5a1.5 1.5 0 0 0-1.5-1.5Z"></path>
<path d="M8.25 16.5H4.5v-9H9V6H4.5A1.5 1.5 0 0 0 3 7.5v9A1.5 1.5 0 0 0 4.5 18h3.75v-1.5Z"></path>
<path d="m11.107 17.681-1.215-.87 2.903-4.065H7.027l5.138-6.465 1.17.93-3.203 4.035h5.573l-4.598 6.435Z"></path>
</svg>