<svg width="32" height="32" fill="currentColor" viewBox="0 0 24 24" xmlns="http://www.w3.org/2000/svg">
<path d="M9.75 7.5a1.5 1.5 0 1 0 0-3 1.5 1.5 0 0 0 0 3Z"></path>
<path d="M14.25 7.5a1.5 1.5 0 1 0 0-3 1.5 1.5 0 0 0 0 3Z"></path>
<path d="M23.856 6.499a.656.656 0 0 0-.606-.405h-1.5c-3.157 0-5.79 1.501-6.873 3.676a3.614 3.614 0 0 0-5.753 0C8.041 7.595 5.408 6.094 2.25 6.094H.75a.656.656 0 0 0-.464 1.12l.077.076a4.041 4.041 0 0 1 1.258 4.523.656.656 0 0 0 .63.843 2.173 2.173 0 0 1 1.618.545c.734.736.729 2.166.725 3.111v.188a.656.656 0 0 0 .656.656h3.094v.094a3.656 3.656 0 0 0 7.312 0v-.094h3.094a.656.656 0 0 0 .656-.656v-.188c-.003-.945-.008-2.374.726-3.11a2.172 2.172 0 0 1 1.618-.546.656.656 0 0 0 .63-.843 4.04 4.04 0 0 1 1.257-4.522l.077-.077a.656.656 0 0 0 .142-.715ZM12 9.656A2.346 2.346 0 0 1 14.344 12v.094H9.656V12A2.346 2.346 0 0 1 12 9.656Zm-2.344 3.75h4.688v2.438H9.656v-2.438Zm-3.75 2.438c-.013-1.095-.138-2.597-1.107-3.57a3.14 3.14 0 0 0-1.733-.863 4.993 4.993 0 0 0-.852-4.005h.036c3.417 0 6.094 2.018 6.094 4.594v3.844H5.906Zm8.438 1.406a2.344 2.344 0 1 1-4.688 0v-.094h4.688v.094Zm6.59-5.84c-.654.1-1.26.402-1.733.865-.969.972-1.093 2.475-1.107 3.569h-2.438V12c0-2.576 2.677-4.594 6.094-4.594h.036a4.993 4.993 0 0 0-.852 4.005Z"></path>
</svg>