<svg width="32" height="32" fill="currentColor" viewBox="0 0 24 24" xmlns="http://www.w3.org/2000/svg">
<path d="M12 7.5A4.5 4.5 0 0 0 7.5 12v6a4.5 4.5 0 1 0 9 0v-6A4.5 4.5 0 0 0 12 7.5Zm-3.188 5.902h6.376v3.188H8.811v-3.188ZM12 21.188A3.202 3.202 0 0 1 8.812 18v-.098h6.376V18A3.202 3.202 0 0 1 12 21.188Zm3.188-9.098H8.811V12a3.187 3.187 0 1 1 6.376 0v.09Z"></path>
<path d="M22.995 14.408 18 9.75v6.825a3 3 0 0 0 6 0 2.872 2.872 0 0 0-1.005-2.167ZM21 18.262a1.687 1.687 0 0 1-1.688-1.687V12.75l2.79 2.602a1.538 1.538 0 0 1 .548 1.148A1.688 1.688 0 0 1 21 18.262Z"></path>
<path d="M0 16.575a3 3 0 1 0 6 0V9.75l-4.995 4.658A2.91 2.91 0 0 0 0 16.575Zm1.86-1.17 2.827-2.655v3.825a1.687 1.687 0 1 1-3.375 0 1.537 1.537 0 0 1 .548-1.17Z"></path>
<path d="M11.25 4.125a2.625 2.625 0 1 0-5.25 0 2.625 2.625 0 0 0 5.25 0Zm-3.938 0a1.312 1.312 0 1 1 1.313 1.313 1.328 1.328 0 0 1-1.313-1.313Z"></path>
<path d="M15.375 1.5a2.625 2.625 0 1 0 0 5.25 2.625 2.625 0 0 0 0-5.25Zm0 3.938a1.313 1.313 0 1 1 1.313-1.313 1.327 1.327 0 0 1-1.313 1.313Z"></path>
</svg>