<svg width="32" height="32" fill="currentColor" viewBox="0 0 24 24" xmlns="http://www.w3.org/2000/svg">
<path d="M15.537 10.328a4.438 4.438 0 0 0 1.713-3.577c0-2.65-2.16-4.5-5.25-4.5A4.97 4.97 0 0 0 6.75 7.5v15.75h1.5v-4.41a6.094 6.094 0 0 0 4.5 1.86 5.537 5.537 0 0 0 5.74-5.7 4.978 4.978 0 0 0-2.953-4.673Zm-2.787 8.873a4.257 4.257 0 0 1-4.5-4.2V7.5A3.514 3.514 0 0 1 12 3.75c2.278 0 3.75 1.177 3.75 3a2.905 2.905 0 0 1-3 3v1.5c2.575 0 4.24 1.472 4.24 3.75a4.042 4.042 0 0 1-4.24 4.2Z"></path>
</svg>