<svg width="32" height="32" fill="currentColor" viewBox="0 0 24 24" xmlns="http://www.w3.org/2000/svg">
<path d="M19.19 11.273c-.063 0-.125.007-.187.01l-1.08-5.101h2.704V4.727h-3.593a.712.712 0 0 0-.56.27.73.73 0 0 0-.144.61l.43 2.03H9.407l-.719-2.182h1.879V4H5.535v1.455h1.638l.748 2.27-1.847 3.739a4.263 4.263 0 0 0-2.57.014c-.835.27-1.57.79-2.105 1.492a4.404 4.404 0 0 0-.255 4.959 4.328 4.328 0 0 0 1.94 1.705 4.266 4.266 0 0 0 2.555.285 4.292 4.292 0 0 0 2.26-1.236 4.383 4.383 0 0 0 1.165-2.32h1.875a1.418 1.418 0 0 0 1.121-.545L17.134 9.4l.462 2.185a4.324 4.324 0 0 0-2.271 2.141 4.403 4.403 0 0 0-.257 3.13 4.348 4.348 0 0 0 1.891 2.492 4.26 4.26 0 0 0 3.056.555 4.298 4.298 0 0 0 2.63-1.67 4.393 4.393 0 0 0-.558-5.832 4.275 4.275 0 0 0-2.897-1.128ZM4.816 18.546a2.845 2.845 0 0 1-1.172-.25c-.37-.165-.7-.407-.97-.71a2.942 2.942 0 0 1-.353-3.407c.202-.354.476-.66.803-.9a2.857 2.857 0 0 1 2.293-.486l-1.244 2.519.006.003a.721.721 0 0 0-.082.321c0 .164.053.323.153.451a.713.713 0 0 0 .867.206.718.718 0 0 0 .335-.335l.006.003 1.24-2.506c.442.386.757.901.902 1.475a2.93 2.93 0 0 1-.092 1.733 2.893 2.893 0 0 1-1.054 1.369 2.84 2.84 0 0 1-1.638.514Zm4.247-3.637a4.37 4.37 0 0 0-1.706-2.79l1.208-2.441 1.722 5.231H9.063Zm2.485-.77L9.885 9.09h5.654l-3.991 5.047Zm7.642 4.407a2.845 2.845 0 0 1-1.784-.623 2.904 2.904 0 0 1-1.015-1.61 2.931 2.931 0 0 1 .195-1.9 2.884 2.884 0 0 1 1.32-1.366l.58 2.742.015-.003a.72.72 0 0 0 .49.545.701.701 0 0 0 .707-.18.73.73 0 0 0 .21-.515.696.696 0 0 0-.03-.149l.014-.003-.58-2.744a2.855 2.855 0 0 1 1.966.916c.513.554.79 1.289.775 2.047a2.921 2.921 0 0 1-.86 2.011 2.853 2.853 0 0 1-2.003.832Z"></path>
</svg>