<svg width="32" height="32" fill="currentColor" viewBox="0 0 24 24" xmlns="http://www.w3.org/2000/svg">
<path d="M21 15h-1.5v1.5H21V21H3v-4.5h1.5V15H3a1.502 1.502 0 0 0-1.5 1.5V21A1.502 1.502 0 0 0 3 22.5h18a1.502 1.502 0 0 0 1.5-1.5v-4.5A1.502 1.502 0 0 0 21 15Z"></path>
<path d="M5.25 19.5a.75.75 0 1 0 0-1.5.75.75 0 0 0 0 1.5Z"></path>
<path d="M11.25 15H6V9.75h5.25V15ZM7.5 13.5h2.25v-2.25H7.5v2.25Z"></path>
<path d="M18 15h-5.25V9.75H18V15Zm-3.75-1.5h2.25v-2.25h-2.25v2.25Z"></path>
<path d="M11.25 8.25H6V3h5.25v5.25ZM7.5 6.75h2.25V4.5H7.5v2.25Z"></path>
<path d="M18 8.25h-5.25V3H18v5.25Zm-3.75-1.5h2.25V4.5h-2.25v2.25Z"></path>
</svg>