<svg width="32" height="32" fill="currentColor" viewBox="0 0 24 24" xmlns="http://www.w3.org/2000/svg">
<path d="M18 12.75h-4.5a.751.751 0 0 1-.75-.75V3a1.502 1.502 0 0 0-1.5-1.5h-7.5A1.502 1.502 0 0 0 2.25 3v18a1.502 1.502 0 0 0 1.5 1.5h16.5a1.502 1.502 0 0 0 1.5-1.5v-4.5A3.754 3.754 0 0 0 18 12.75Zm2.25 3.75V18h-3v-3.75H18a2.253 2.253 0 0 1 2.25 2.25Zm-9-13.5v1.5h-3V6h3v1.5h-3V9h3v1.5h-3V12h3a2.253 2.253 0 0 0 2.25 2.25h2.25V18h-5.128l-2.25-.75H3.75V3h7.5Zm7.5 18v-.75h-1.5V21h-1.5v-.75h-1.5V21h-1.5v-.75h-1.5V21h-1.5v-.75h-1.5V21h-4.5v-2.25h4.378l2.25.75h9.872V21h-1.5Z"></path>
</svg>