<svg width="32" height="32" fill="currentColor" viewBox="0 0 24 24" xmlns="http://www.w3.org/2000/svg">
<path d="M2.25 21.75h19.5v-1.5H2.25v1.5Z"></path>
<path d="M20.25 18.75h1.5v-1.5h-1.5v1.5Z"></path>
<path d="M20.25 15.75h1.5v-1.5h-1.5v1.5Z"></path>
<path d="M20.25 12.75h1.5v-1.5h-1.5v1.5Z"></path>
<path d="M20.25 9.75h1.5v-1.5h-1.5v1.5Z"></path>
<path d="M20.25 6.75h1.5v-1.5h-1.5v1.5Z"></path>
<path d="M20.25 3.75h1.5v-1.5h-1.5v1.5Z"></path>
<path d="M17.25 3.75h1.5v-1.5h-1.5v1.5Z"></path>
<path d="M14.25 3.75h1.5v-1.5h-1.5v1.5Z"></path>
<path d="M11.25 3.75h1.5v-1.5h-1.5v1.5Z"></path>
<path d="M5.25 3.75h1.5v-1.5h-1.5v1.5Z"></path>
<path d="M8.25 3.75h1.5v-1.5h-1.5v1.5Z"></path>
<path d="M2.25 18.75h1.5v-1.5h-1.5v1.5Z"></path>
<path d="M2.25 15.75h1.5v-1.5h-1.5v1.5Z"></path>
<path d="M2.25 12.75h1.5v-1.5h-1.5v1.5Z"></path>
<path d="M2.25 9.75h1.5v-1.5h-1.5v1.5Z"></path>
<path d="M2.25 6.75h1.5v-1.5h-1.5v1.5Z"></path>
<path d="M2.25 3.75h1.5v-1.5h-1.5v1.5Z"></path>
<path d="M13.5 7.5H6V9h7.5V7.5Z"></path>
<path d="M10.5 11.25H6v1.5h4.5v-1.5Z"></path>
</svg>