<svg width="32" height="32" fill="currentColor" viewBox="0 0 24 24" xmlns="http://www.w3.org/2000/svg">
<path d="M21.75 2.25H2.25v1.5h19.5v-1.5Z"></path>
<path d="M3.75 5.25h-1.5v1.5h1.5v-1.5Z"></path>
<path d="M3.75 8.25h-1.5v1.5h1.5v-1.5Z"></path>
<path d="M3.75 11.25h-1.5v1.5h1.5v-1.5Z"></path>
<path d="M3.75 14.25h-1.5v1.5h1.5v-1.5Z"></path>
<path d="M3.75 17.25h-1.5v1.5h1.5v-1.5Z"></path>
<path d="M3.75 20.25h-1.5v1.5h1.5v-1.5Z"></path>
<path d="M6.75 20.25h-1.5v1.5h1.5v-1.5Z"></path>
<path d="M9.75 20.25h-1.5v1.5h1.5v-1.5Z"></path>
<path d="M12.75 20.25h-1.5v1.5h1.5v-1.5Z"></path>
<path d="M18.75 20.25h-1.5v1.5h1.5v-1.5Z"></path>
<path d="M15.75 20.25h-1.5v1.5h1.5v-1.5Z"></path>
<path d="M21.75 5.25h-1.5v1.5h1.5v-1.5Z"></path>
<path d="M21.75 8.25h-1.5v1.5h1.5v-1.5Z"></path>
<path d="M21.75 11.25h-1.5v1.5h1.5v-1.5Z"></path>
<path d="M21.75 14.25h-1.5v1.5h1.5v-1.5Z"></path>
<path d="M21.75 17.25h-1.5v1.5h1.5v-1.5Z"></path>
<path d="M21.75 20.25h-1.5v1.5h1.5v-1.5Z"></path>
<path d="M13.5 7.5H6V9h7.5V7.5Z"></path>
<path d="M10.5 11.25H6v1.5h4.5v-1.5Z"></path>
</svg>