<svg width="32" height="32" fill="currentColor" viewBox="0 0 24 24" xmlns="http://www.w3.org/2000/svg">
<path d="M21.75 21.75V2.25h-1.5v19.5h1.5Z"></path>
<path d="M18.75 3.75v-1.5h-1.5v1.5h1.5Z"></path>
<path d="M15.75 3.75v-1.5h-1.5v1.5h1.5Z"></path>
<path d="M12.75 3.75v-1.5h-1.5v1.5h1.5Z"></path>
<path d="M9.75 3.75v-1.5h-1.5v1.5h1.5Z"></path>
<path d="M6.75 3.75v-1.5h-1.5v1.5h1.5Z"></path>
<path d="M3.75 3.75v-1.5h-1.5v1.5h1.5Z"></path>
<path d="M3.75 6.75v-1.5h-1.5v1.5h1.5Z"></path>
<path d="M3.75 9.75v-1.5h-1.5v1.5h1.5Z"></path>
<path d="M3.75 12.75v-1.5h-1.5v1.5h1.5Z"></path>
<path d="M3.75 18.75v-1.5h-1.5v1.5h1.5Z"></path>
<path d="M3.75 15.75v-1.5h-1.5v1.5h1.5Z"></path>
<path d="M18.75 21.75v-1.5h-1.5v1.5h1.5Z"></path>
<path d="M15.75 21.75v-1.5h-1.5v1.5h1.5Z"></path>
<path d="M12.75 21.75v-1.5h-1.5v1.5h1.5Z"></path>
<path d="M9.75 21.75v-1.5h-1.5v1.5h1.5Z"></path>
<path d="M6.75 21.75v-1.5h-1.5v1.5h1.5Z"></path>
<path d="M3.75 21.75v-1.5h-1.5v1.5h1.5Z"></path>
<path d="M13.5 7.5H6V9h7.5V7.5Z"></path>
<path d="M10.5 11.25H6v1.5h4.5v-1.5Z"></path>
</svg>