<svg width="32" height="32" fill="currentColor" viewBox="0 0 24 24" xmlns="http://www.w3.org/2000/svg">
<path d="M2.25 2.25v19.5h1.5V2.25h-1.5Z"></path>
<path d="M5.25 20.25v1.5h1.5v-1.5h-1.5Z"></path>
<path d="M8.25 20.25v1.5h1.5v-1.5h-1.5Z"></path>
<path d="M11.25 20.25v1.5h1.5v-1.5h-1.5Z"></path>
<path d="M14.25 20.25v1.5h1.5v-1.5h-1.5Z"></path>
<path d="M17.25 20.25v1.5h1.5v-1.5h-1.5Z"></path>
<path d="M20.25 20.25v1.5h1.5v-1.5h-1.5Z"></path>
<path d="M20.25 17.25v1.5h1.5v-1.5h-1.5Z"></path>
<path d="M20.25 14.25v1.5h1.5v-1.5h-1.5Z"></path>
<path d="M20.25 11.25v1.5h1.5v-1.5h-1.5Z"></path>
<path d="M20.25 5.25v1.5h1.5v-1.5h-1.5Z"></path>
<path d="M20.25 8.25v1.5h1.5v-1.5h-1.5Z"></path>
<path d="M5.25 2.25v1.5h1.5v-1.5h-1.5Z"></path>
<path d="M8.25 2.25v1.5h1.5v-1.5h-1.5Z"></path>
<path d="M11.25 2.25v1.5h1.5v-1.5h-1.5Z"></path>
<path d="M14.25 2.25v1.5h1.5v-1.5h-1.5Z"></path>
<path d="M17.25 2.25v1.5h1.5v-1.5h-1.5Z"></path>
<path d="M20.25 2.25v1.5h1.5v-1.5h-1.5Z"></path>
<path d="M13.5 7.5H6V9h7.5V7.5Z"></path>
<path d="M10.5 11.25H6v1.5h4.5v-1.5Z"></path>
</svg>