<svg width="32" height="32" fill="currentColor" viewBox="0 0 24 24" xmlns="http://www.w3.org/2000/svg">
<path d="M15 7.5h-1.5V9H15V7.5Z"></path>
<path d="M10.5 7.5H9V9h1.5V7.5Z"></path>
<path d="M19.5 15h-3.75v-1.5h.75A1.502 1.502 0 0 0 18 12V9h1.5V7.5H18V6a1.502 1.502 0 0 0-1.5-1.5H15v-3h-1.5v3h-3v-3H9v3H7.5A1.502 1.502 0 0 0 6 6v1.5H4.5V9H6v3a1.502 1.502 0 0 0 1.5 1.5h.75V15H4.5A1.502 1.502 0 0 0 3 16.5v6h1.5v-6h15v6H21v-6a1.502 1.502 0 0 0-1.5-1.5Zm-12-9h9v6h-9V6Zm2.25 7.5h4.5V15h-4.5v-1.5Z"></path>
</svg>