<svg width="32" height="32" fill="currentColor" viewBox="0 0 24 24" xmlns="http://www.w3.org/2000/svg">
<path d="M19.5 13.5a2.997 2.997 0 0 0-2.894 2.25h-3.107a2.252 2.252 0 0 1-2.25-2.25v-3a3.713 3.713 0 0 0-.769-2.25h6.126a3 3 0 1 0 0-1.5H7.393a3 3 0 1 0 0 1.5H7.5a2.252 2.252 0 0 1 2.25 2.25v3a3.755 3.755 0 0 0 3.75 3.75h3.106a2.995 2.995 0 1 0 2.893-3.75Zm0-7.5a1.5 1.5 0 1 1 0 3 1.5 1.5 0 0 1 0-3Zm-15 3a1.5 1.5 0 1 1 0-3 1.5 1.5 0 0 1 0 3Zm15 9a1.5 1.5 0 1 1 0-3 1.5 1.5 0 0 1 0 3Z"></path>
</svg>