<svg width="32" height="32" fill="currentColor" viewBox="0 0 24 24" xmlns="http://www.w3.org/2000/svg">
<path d="M23.25 18.75a4.5 4.5 0 1 0-9 0 4.5 4.5 0 0 0 9 0Zm-1.5 0a2.965 2.965 0 0 1-.425 1.514l-4.09-4.089a2.975 2.975 0 0 1 1.515-.425 3.003 3.003 0 0 1 3 3Zm-6 0c.003-.534.15-1.057.425-1.514l4.09 4.089a2.975 2.975 0 0 1-1.515.425 3.003 3.003 0 0 1-3-3Z"></path>
<path d="m14.693 12-1.943 1.943L13.815 15l3-3-3-3-1.065 1.057L14.693 12Z"></path>
<path d="m7.807 12 1.943-1.943L8.685 9l-3 3 3 3 1.065-1.057L7.807 12Z"></path>
<path d="M3 6.75h16.5V12H21V3a1.5 1.5 0 0 0-1.5-1.5H3A1.5 1.5 0 0 0 1.5 3v15A1.5 1.5 0 0 0 3 19.5h9V18H3V6.75ZM3 3h16.5v2.25H3V3Z"></path>
</svg>