<svg width="32" height="32" fill="currentColor" viewBox="0 0 24 24" xmlns="http://www.w3.org/2000/svg">
<path d="M12.75 1.5h-1.5v2.25h1.5V1.5Z"></path>
<path d="M22.5 11.25h-2.25v1.5h2.25v-1.5Z"></path>
<path d="M12.75 20.25h-1.5v2.25h1.5v-2.25Z"></path>
<path d="M3.75 11.25H1.5v1.5h2.25v-1.5Z"></path>
<path d="M5.149 4.103 4.088 5.164l1.59 1.591 1.062-1.06-1.591-1.592Z"></path>
<path d="m18.841 4.097-1.591 1.59 1.06 1.061 1.592-1.59-1.061-1.061Z"></path>
<path d="m18.313 17.252-1.061 1.06 1.59 1.591 1.062-1.06-1.591-1.591Z"></path>
<path d="m4.103 18.848 1.59-1.598 1.057 1.065-1.59 1.59-1.057-1.058Z"></path>
<path d="M12 6a6 6 0 1 0 0 12 6 6 0 0 0 0-12Zm0 10.5a4.5 4.5 0 1 1 0-9v9Z"></path>
</svg>