<svg width="32" height="32" fill="currentColor" viewBox="0 0 24 24" xmlns="http://www.w3.org/2000/svg">
<path d="M9 11.25H7.5V9A1.502 1.502 0 0 1 9 7.5h2.25V9H9v2.25Z"></path>
<path d="M11.25 22.5H9A1.502 1.502 0 0 1 7.5 21v-2.25H9V21h2.25v1.5Z"></path>
<path d="M16.5 21h-3v1.5h3V21Z"></path>
<path d="M21 22.5h-2.25V21H21v-2.25h1.5V21a1.502 1.502 0 0 1-1.5 1.5Z"></path>
<path d="M9 13.5H7.5v3H9v-3Z"></path>
<path d="M22.5 13.5H21v3h1.5v-3Z"></path>
<path d="M22.5 11.25H21V9h-2.25V7.5H21A1.502 1.502 0 0 1 22.5 9v2.25Z"></path>
<path d="M16.5 7.5h-3V9h3V7.5Z"></path>
<path d="M6 16.5H3A1.502 1.502 0 0 1 1.5 15V3A1.502 1.502 0 0 1 3 1.5h12A1.502 1.502 0 0 1 16.5 3v3H15V3H3v12h3v1.5Z"></path>
</svg>