<svg width="32" height="32" fill="currentColor" viewBox="0 0 24 24" xmlns="http://www.w3.org/2000/svg">
<path d="M21.621 2.382a3.07 3.07 0 0 0-4.242 0L3.038 16.722A5.215 5.215 0 0 0 1.5 20.434v2.069h2.067a5.215 5.215 0 0 0 3.712-1.538l14.342-14.34a3 3 0 0 0 0-4.243ZM8.183 13.698l2.121 2.121-1.591 1.591-2.123-2.12 1.592-1.591Zm-1.964 6.206a3.727 3.727 0 0 1-2.652 1.099H3v-.57a3.725 3.725 0 0 1 1.098-2.65l1.433-1.433 2.121 2.12-1.433 1.434ZM20.56 5.564l-9.196 9.195-2.122-2.122 9.196-9.195a1.536 1.536 0 0 1 2.122 0 1.5 1.5 0 0 1 0 2.121Z"></path>
<path d="M4.875 11.25a2.625 2.625 0 0 1-1.856-4.48l2.625-2.626a1.126 1.126 0 0 0 0-1.59 1.153 1.153 0 0 0-1.591 0L2.56 4.045 1.5 2.985l1.493-1.491a2.689 2.689 0 0 1 3.712 0 2.628 2.628 0 0 1 0 3.711L4.079 7.83a1.126 1.126 0 0 0 0 1.59 1.153 1.153 0 0 0 1.591 0l3.02-3.017 1.06 1.06-3.019 3.018a2.606 2.606 0 0 1-1.856.769Z"></path>
</svg>