<svg width="32" height="32" fill="currentColor" viewBox="0 0 24 24" xmlns="http://www.w3.org/2000/svg">
<path d="M21 16.5a2.579 2.579 0 0 1-2.288-1.737.75.75 0 0 0-1.422-.004A2.58 2.58 0 0 1 15 16.5a2.579 2.579 0 0 1-2.289-1.737.755.755 0 0 0-1.149-.374.742.742 0 0 0-.272.37A2.58 2.58 0 0 1 9 16.5a2.579 2.579 0 0 1-2.288-1.737A.755.755 0 0 0 6 14.25a.728.728 0 0 0-.71.51A2.58 2.58 0 0 1 3 16.5H1.5V18H3a3.7 3.7 0 0 0 3-1.49c.218.278.47.528.75.743a5.25 5.25 0 0 0 10.5 0 4.22 4.22 0 0 0 .75-.743A3.698 3.698 0 0 0 21 18h1.5v-1.5H21ZM12 21a3.752 3.752 0 0 1-3.68-3.064c.224.041.452.063.68.064a3.7 3.7 0 0 0 3-1.49A3.698 3.698 0 0 0 15 18c.228-.001.456-.023.68-.064A3.75 3.75 0 0 1 12 21Z"></path>
<path d="M15.052 5.876A1.509 1.509 0 0 0 13.557 4.5h-.807v-3h-1.5v3h-.812a1.496 1.496 0 0 0-1.49 1.329L7.71 14.25h1.516l.55-3.75h4.442l.55 3.75h1.517l-1.233-8.374ZM9.997 9l.44-3 3.126.047L13.997 9h-4Z"></path>
</svg>