<svg width="32" height="32" fill="currentColor" viewBox="0 0 24 24" xmlns="http://www.w3.org/2000/svg">
<path d="M21.75 8.25h-1.5v3h1.5v-3Z"></path>
<path d="M3.75 8.25h-1.5v3h1.5v-3Z"></path>
<path d="M16.5 15H15v1.5h1.5V15Z"></path>
<path d="M9 15H7.5v1.5H9V15Z"></path>
<path d="M15.75 3h-7.5A3.754 3.754 0 0 0 4.5 6.75v10.5a1.502 1.502 0 0 0 1.5 1.5V21h1.5v-2.25h9V21H18v-2.25a1.502 1.502 0 0 0 1.5-1.5V6.75A3.755 3.755 0 0 0 15.75 3ZM18 7.5V12H6V7.5h12Zm-9.75-3h7.5A2.246 2.246 0 0 1 17.862 6H6.138A2.246 2.246 0 0 1 8.25 4.5ZM6 17.25V13.5h12l.002 3.75H6Z"></path>
</svg>