<svg width="32" height="32" fill="currentColor" viewBox="0 0 24 24" xmlns="http://www.w3.org/2000/svg">
<path d="M20.476 1.5a1.996 1.996 0 0 0-1.43.604l-.296.304-.297-.304a1.995 1.995 0 0 0-2.862 0 2.1 2.1 0 0 0 0 2.923l3.16 3.223 3.156-3.223a2.1 2.1 0 0 0 0-2.923 1.997 1.997 0 0 0-1.43-.604Z"></path>
<path d="M17.866 13.5h-6.554L8.898 4.474a3 3 0 1 0-5.795 1.552l3.306 12.361a1.5 1.5 0 0 0 1.45 1.113h6.391V21H3v1.5h11.25a1.5 1.5 0 0 0 1.5-1.5v-1.5H18a3.004 3.004 0 0 0 2.985-3.3 3.09 3.09 0 0 0-3.119-2.7ZM18 18H7.858L4.551 5.638a1.5 1.5 0 0 1 2.898-.776L10.16 15H18a1.5 1.5 0 1 1 0 3Z"></path>
</svg>