<svg width="32" height="32" fill="currentColor" viewBox="0 0 24 24" xmlns="http://www.w3.org/2000/svg">
<path d="M22.5 18.748v-1.5h-6.925l-.6-2.25h5.275v-1.5h-5.674l-1.852-6.943-1.449.386 2.852 10.693a1.502 1.502 0 0 0 1.45 1.114h.923v2.25h-9v-2.25H12v-1.5H5.075l-.6-2.25H9.75v-1.5H4.076L2.224 6.555.775 6.94l2.852 10.693a1.503 1.503 0 0 0 1.45 1.114H6v2.25H1.5v1.5h21v-1.5H18v-2.25h4.5Z"></path>
<path d="M20.477 1.5a1.996 1.996 0 0 0-1.43.604l-.297.304-.296-.304a1.996 1.996 0 0 0-2.862 0 2.1 2.1 0 0 0 0 2.923L18.75 8.25l3.158-3.223a2.1 2.1 0 0 0 0-2.923 1.996 1.996 0 0 0-1.43-.604Z"></path>
</svg>