<svg width="32" height="32" fill="currentColor" viewBox="0 0 24 24" xmlns="http://www.w3.org/2000/svg">
<path d="M22.5 21h-21v1.5h21V21Z"></path>
<path d="M18.375 8.25H6a1.502 1.502 0 0 0-1.5 1.5v6a3.755 3.755 0 0 0 3.75 3.75h6A3.755 3.755 0 0 0 18 15.75V15h.375a3.375 3.375 0 0 0 0-6.75Zm-1.875 7.5A2.253 2.253 0 0 1 14.25 18h-6A2.253 2.253 0 0 1 6 15.75v-6h10.5v6Zm1.875-2.25H18V9.75h.375a1.875 1.875 0 1 1 0 3.75Z"></path>
<path d="M14.25 6.75h-1.5v-.11a1.492 1.492 0 0 0-.83-1.34L9.909 4.292A2.984 2.984 0 0 1 8.25 1.609V.75h1.5v.86a1.492 1.492 0 0 0 .83 1.341l2.012 1.006a2.984 2.984 0 0 1 1.658 2.684v.109Z"></path>
</svg>