<svg width="32" height="32" fill="currentColor" viewBox="0 0 24 24" xmlns="http://www.w3.org/2000/svg">
<path d="M19.5 3v18h-15V3h15Zm0-1.5h-15A1.5 1.5 0 0 0 3 3v18a1.5 1.5 0 0 0 1.5 1.5h15A1.5 1.5 0 0 0 21 21V3a1.5 1.5 0 0 0-1.5-1.5Z"></path>
<path d="M8.25 17.25h-1.5v1.5h1.5v-1.5Z"></path>
<path d="M17.25 17.25h-1.5v1.5h1.5v-1.5Z"></path>
<path d="M8.25 13.5h-1.5V15h1.5v-1.5Z"></path>
<path d="M17.25 13.5h-1.5V15h1.5v-1.5Z"></path>
<path d="M8.25 9.75h-1.5v1.5h1.5v-1.5Z"></path>
<path d="M12.75 17.25h-1.5v1.5h1.5v-1.5Z"></path>
<path d="M12.75 13.5h-1.5V15h1.5v-1.5Z"></path>
<path d="M12.75 9.75h-1.5v1.5h1.5v-1.5Z"></path>
<path d="M17.25 9.75h-1.5v1.5h1.5v-1.5Z"></path>
<path d="M17.25 5.25H6.75V7.5h10.5V5.25Z"></path>
</svg>