<svg width="32" height="32" fill="currentColor" viewBox="0 0 24 24" xmlns="http://www.w3.org/2000/svg">
<path d="M18.75 9.75h-4.5v1.5h4.5v-1.5Z"></path>
<path d="M9.75 15.75h-1.5v-1.5h-1.5v1.5h-1.5v1.5h1.5v1.5h1.5v-1.5h1.5v-1.5Z"></path>
<path d="M9.75 6.75h-4.5v1.5h4.5v-1.5Z"></path>
<path d="M18.75 12.75h-4.5v1.5h4.5v-1.5Z"></path>
<path d="M20.25 2.25H3.75a1.502 1.502 0 0 0-1.5 1.5v16.5a1.502 1.502 0 0 0 1.5 1.5h16.5a1.502 1.502 0 0 0 1.5-1.5V3.75a1.502 1.502 0 0 0-1.5-1.5Zm-9 1.5v7.5h-7.5v-7.5h7.5Zm-7.5 9h7.5v7.5h-7.5v-7.5Zm9 7.5V3.75h7.5v16.5h-7.5Z"></path>
</svg>