<svg width="32" height="32" fill="currentColor" viewBox="0 0 24 24" xmlns="http://www.w3.org/2000/svg">
<path d="M18 19.942 16.058 18 15 19.058l3 3 5.25-5.25-1.058-1.058L18 19.942Z"></path>
<path d="M12.75 17.25h-1.5v1.5h1.5v-1.5Z"></path>
<path d="M8.25 17.25h-1.5v1.5h1.5v-1.5Z"></path>
<path d="M17.25 13.5h-1.5V15h1.5v-1.5Z"></path>
<path d="M12.75 13.5h-1.5V15h1.5v-1.5Z"></path>
<path d="M8.25 13.5h-1.5V15h1.5v-1.5Z"></path>
<path d="M17.25 9.75h-1.5v1.5h1.5v-1.5Z"></path>
<path d="M12.75 9.75h-1.5v1.5h1.5v-1.5Z"></path>
<path d="M8.25 9.75h-1.5v1.5h1.5v-1.5Z"></path>
<path d="M17.25 5.25H6.75V7.5h10.5V5.25Z"></path>
<path d="M12.75 22.5H4.503A1.505 1.505 0 0 1 3 20.996V2.997A1.499 1.499 0 0 1 4.497 1.5h15.006A1.499 1.499 0 0 1 21 2.997V13.5h-1.5V3h-15v18h8.25v1.5Z"></path>
</svg>