<svg width="32" height="32" fill="currentColor" viewBox="0 0 24 24" xmlns="http://www.w3.org/2000/svg">
<path d="M17.986 18.325c.457.275.98.422 1.514.425a3.003 3.003 0 0 0 3-3 2.958 2.958 0 0 0-.112-.767l-1.827 1.828a1.499 1.499 0 1 1-2.121-2.121l1.827-1.828a2.961 2.961 0 0 0-.767-.112 3.003 3.003 0 0 0-3 3c.003.534.15 1.057.425 1.514L12.75 21.44l1.06 1.061 4.176-4.175Z"></path>
<path fill-rule="evenodd" d="M19.5 3h-3V1.5H15V3H9V1.5H7.5V3h-3A1.5 1.5 0 0 0 3 4.5v15A1.5 1.5 0 0 0 4.5 21h6v-1.5h-6v-15h3V6H9V4.5h6V6h1.5V4.5h3v6H21v-6A1.5 1.5 0 0 0 19.5 3Z" clip-rule="evenodd"></path>
</svg>