<svg width="32" height="32" fill="currentColor" viewBox="0 0 24 24" xmlns="http://www.w3.org/2000/svg">
<path d="M22.5 17.25v-1.5h-1.567a4.47 4.47 0 0 0-.769-1.853l1.109-1.11-1.06-1.06-1.11 1.109a4.47 4.47 0 0 0-1.853-.768V10.5h-1.5v1.568a4.469 4.469 0 0 0-1.853.768l-1.11-1.109-1.06 1.06 1.109 1.11a4.472 4.472 0 0 0-.768 1.853H10.5v1.5h1.568c.112.668.375 1.302.768 1.853l-1.109 1.11 1.06 1.06 1.11-1.109a4.47 4.47 0 0 0 1.853.768V22.5h1.5v-1.567a4.469 4.469 0 0 0 1.853-.769l1.11 1.109 1.06-1.06-1.109-1.11a4.47 4.47 0 0 0 .768-1.853H22.5Zm-6 2.25a3 3 0 1 1 0-5.999 3 3 0 0 1 0 5.999Z"></path>
<path d="M21 4.5A1.5 1.5 0 0 0 19.5 3h-3V1.5H15V3H9V1.5H7.5V3h-3A1.5 1.5 0 0 0 3 4.5v15A1.5 1.5 0 0 0 4.5 21h3v-1.5h-3v-15h3V6H9V4.5h6V6h1.5V4.5h3V9H21V4.5Z"></path>
</svg>