<svg width="32" height="32" fill="currentColor" viewBox="0 0 24 24" xmlns="http://www.w3.org/2000/svg">
<path d="m21.622 15.878-2.872-2.85.502-.502a.75.75 0 0 0 0-1.058l-4.5-4.5a.75.75 0 0 0-1.057 0l-.593.593-5.07-5.093a.75.75 0 0 0-1.057 0l-3 3-.09.113-3 4.5a.75.75 0 0 0 .09.945l2.25 2.25a.75.75 0 0 0 1.065 0l3.21-3.218 1.567 1.568-3.6 3.592a.75.75 0 0 0 0 1.058l1.5 1.5A.75.75 0 0 0 7.5 18a.75.75 0 0 0 .39-.113l3.247-1.95 1.83 1.838a.75.75 0 0 0 1.058 0l.502-.525 2.843 2.872a3.002 3.002 0 1 0 4.245-4.245h.007ZM7.5 7.936l-3.75 3.75-1.283-1.283 2.618-3.93L7.5 4.058l4.567 4.568-1.942 1.935L7.5 7.936Zm6 8.25-2.13-2.13-3.75 2.25-.555-.555 7.185-7.193 3.442 3.443-4.192 4.185Zm7.065 2.872a1.5 1.5 0 0 1-2.123 0l-2.85-2.842 2.123-2.123 2.85 2.843a1.5 1.5 0 0 1 0 2.122Z"></path>
</svg>