<svg width="32" height="32" fill="currentColor" viewBox="0 0 24 24" xmlns="http://www.w3.org/2000/svg">
<path d="M21.75 19.5H2.25a.75.75 0 0 1-.75-.75V6a.75.75 0 0 1 .75-.75h4.845l1.282-1.913A.75.75 0 0 1 9 3h6a.75.75 0 0 1 .623.337l1.282 1.913h4.845a.75.75 0 0 1 .75.75v12.75a.75.75 0 0 1-.75.75ZM3 18h18V6.75h-4.5a.75.75 0 0 1-.623-.338L14.595 4.5h-5.19L8.123 6.412a.75.75 0 0 1-.623.338H3V18Z"></path>
<path d="M12 16.5a4.5 4.5 0 1 1 0-9 4.5 4.5 0 0 1 0 9ZM12 9a3 3 0 1 0 0 6 3 3 0 0 0 0-6Z"></path>
</svg>