<svg width="32" height="32" fill="currentColor" viewBox="0 0 24 24" xmlns="http://www.w3.org/2000/svg">
<path d="M10.125 23.113a.751.751 0 0 1-.37-.098L3.38 19.404a.75.75 0 0 1-.38-.652v-7.5a.75.75 0 0 1 .38-.653l6.375-3.611a.75.75 0 0 1 .74 0l6.374 3.611a.75.75 0 0 1 .381.653v7.5a.75.75 0 0 1-.38.652l-6.376 3.611a.751.751 0 0 1-.369.098ZM4.5 18.314l5.625 3.187 5.625-3.187V11.69l-5.625-3.187L4.5 11.69v6.625Z"></path>
<path d="M21 12.752h-1.5V5.689l-5.625-3.187L7.87 5.904 7.13 4.6 13.507.988a.75.75 0 0 1 .739 0l6.375 3.611a.75.75 0 0 1 .38.653v7.5Z"></path>
</svg>