<svg width="32" height="32" fill="currentColor" viewBox="0 0 24 24" xmlns="http://www.w3.org/2000/svg">
<path d="M21.75 19.5h-4.5v-3a1.502 1.502 0 0 1 1.5-1.5h1.5v-1.5h-3V12h3a1.502 1.502 0 0 1 1.5 1.5V15a1.502 1.502 0 0 1-1.5 1.5h-1.5V18h3v1.5Z"></path>
<path d="M14.25 16.5h-3a1.502 1.502 0 0 1-1.5-1.5V7.5a1.501 1.501 0 0 1 1.5-1.5h3a1.501 1.501 0 0 1 1.5 1.5V15a1.502 1.502 0 0 1-1.5 1.5Zm-3-9V15h3V7.5h-3Z"></path>
<path d="M8.25 16.5h-4.5a1.502 1.502 0 0 1-1.5-1.5V7.5A1.502 1.502 0 0 1 3.75 6h4.5v1.5h-4.5V15h4.5v1.5Z"></path>
</svg>