<svg width="32" height="32" fill="currentColor" viewBox="0 0 24 24" xmlns="http://www.w3.org/2000/svg">
<path d="M3 22.5v-3h8.25v3h1.5v-3H21v3h1.5v-3A1.5 1.5 0 0 0 21 18h-8.25v-3.75h-1.5V18H3a1.5 1.5 0 0 0-1.5 1.5v3H3Z"></path>
<path d="M15.521 10.492c.518-.92.838-1.939.938-2.99h.79v-1.5H15v.75a6.945 6.945 0 0 1-.498 2.453l-2.013-2.541a3.844 3.844 0 0 0 1.608-1.777 2.439 2.439 0 0 0-.142-2.027 2.535 2.535 0 0 0-1.68-1.28 2.601 2.601 0 0 0-3.166 1.59c-.378 1.164.33 2.337.946 3.08a3.544 3.544 0 0 0-1.76 3.621 3.34 3.34 0 0 0 3.276 2.881h.004a4.339 4.339 0 0 0 2.979-1.067l.846 1.067h1.914l-1.792-2.26Zm-4.986-6.859a.992.992 0 0 1 1.025-.63c.132 0 .263.014.391.043a1.052 1.052 0 0 1 .684.527.938.938 0 0 1 .059.781 2.765 2.765 0 0 1-1.261 1.195c-.496-.535-1.077-1.367-.898-1.916Zm1.038 7.62h-.003a1.832 1.832 0 0 1-1.793-1.614 2.12 2.12 0 0 1 1.357-2.268l2.484 3.134a2.914 2.914 0 0 1-2.045.747Z"></path>
</svg>