<svg width="32" height="32" fill="currentColor" viewBox="0 0 24 24" xmlns="http://www.w3.org/2000/svg">
<path d="M21.75 7.5H18V9h3.75v4.5H16.5V15h2.25v1.607a3 3 0 1 0 1.5 0V15h1.5a1.502 1.502 0 0 0 1.5-1.5V9a1.501 1.501 0 0 0-1.5-1.5Zm-.75 12a1.5 1.5 0 1 1-3 0 1.5 1.5 0 0 1 3 0Z"></path>
<path d="M14.25 4.5H10.5V6h3.75v4.5H9V12h2.25v4.607a3 3 0 1 0 1.5 0V12h1.5a1.502 1.502 0 0 0 1.5-1.5V6a1.501 1.501 0 0 0-1.5-1.5Zm-.75 15a1.5 1.5 0 1 1-3 0 1.5 1.5 0 0 1 3 0Z"></path>
<path d="M6.75 1.5h-4.5A1.502 1.502 0 0 0 .75 3v4.5A1.501 1.501 0 0 0 2.25 9h1.5v7.607a3 3 0 1 0 1.5 0V9h1.5a1.502 1.502 0 0 0 1.5-1.5V3a1.502 1.502 0 0 0-1.5-1.5ZM6 19.5a1.5 1.5 0 1 1-3 0 1.5 1.5 0 0 1 3 0Zm-3.75-12V3h4.5l.001 4.5H2.25Z"></path>
</svg>