<svg width="32" height="32" fill="currentColor" viewBox="0 0 24 24" xmlns="http://www.w3.org/2000/svg">
<path d="M20.25 16.606V13.5a1.5 1.5 0 0 0-1.5-1.5h-6V9h1.5a1.502 1.502 0 0 0 1.5-1.5V3a1.501 1.501 0 0 0-1.5-1.5h-4.5A1.501 1.501 0 0 0 8.25 3v4.5A1.501 1.501 0 0 0 9.75 9h1.5v3h-6a1.5 1.5 0 0 0-1.5 1.5v3.107a3 3 0 1 0 1.5 0V13.5h6v3.107a3 3 0 1 0 1.5 0V13.5h6v3.106a3 3 0 1 0 1.5 0ZM9.75 3h4.5v4.5h-4.5V3ZM6 19.5a1.5 1.5 0 1 1-3 0 1.5 1.5 0 0 1 3 0Zm7.5 0a1.5 1.5 0 1 1-3 0 1.5 1.5 0 0 1 3 0Zm6 1.5a1.5 1.5 0 1 1 0-3 1.5 1.5 0 0 1 0 3Z"></path>
</svg>