<svg width="32" height="32" fill="currentColor" viewBox="0 0 24 24" xmlns="http://www.w3.org/2000/svg">
<path d="M10.5 12a1.5 1.5 0 1 0 0-3 1.5 1.5 0 0 0 0 3Z"></path>
<path d="M10.5 1.5a9 9 0 1 0 0 18V18a7.5 7.5 0 1 1 7.5-7.5c.015.25.015.5 0 .75h1.5c0-.247.038-.495.038-.75a9 9 0 0 0-9.038-9Z"></path>
<path d="M12.75 18h6.878l-1.943 1.942L18.75 21l3.75-3.75-3.75-3.75-1.065 1.065 1.943 1.935H12.75V18Z"></path>
<path d="M10.5 15a4.5 4.5 0 1 1 0-9 4.5 4.5 0 0 1 0 9Zm0-7.5a3 3 0 1 0 0 6 3 3 0 0 0 0-6Z"></path>
</svg>