<svg width="32" height="32" fill="currentColor" viewBox="0 0 24 24" xmlns="http://www.w3.org/2000/svg">
<path d="M10.5 15a4.5 4.5 0 1 1 0-9 4.5 4.5 0 0 1 0 9Zm0-7.5a3 3 0 1 0 0 6 3 3 0 0 0 0-6Z"></path>
<path d="M10.5 12a1.5 1.5 0 1 0 0-3 1.5 1.5 0 0 0 0 3Z"></path>
<path d="M12.75 17.655A7.5 7.5 0 1 1 18 10.5c0 .255 0 .502-.038.75h1.5c0-.248.038-.495.038-.75a9 9 0 1 0-9 9 9.248 9.248 0 0 0 2.25-.293v-1.552Z"></path>
<path d="m18.75 22.5-1.605-.75A3.75 3.75 0 0 1 15 18.352V13.5h7.5v4.852a3.75 3.75 0 0 1-2.145 3.398l-1.605.75ZM16.5 15v3.352a2.25 2.25 0 0 0 1.29 2.033l.96.457.96-.457A2.25 2.25 0 0 0 21 18.352V15h-4.5Z"></path>
</svg>