<svg width="32" height="32" fill="currentColor" viewBox="0 0 24 24" xmlns="http://www.w3.org/2000/svg">
<path d="M21 6.75h-3a1.501 1.501 0 0 0-1.5 1.5v9H18V13.5h3v3.75h1.5v-9a1.502 1.502 0 0 0-1.5-1.5ZM18 12V8.25h3V12h-3Z"></path>
<path d="M12 17.25H9V6.75h3a3.003 3.003 0 0 1 3 3v4.5a3.003 3.003 0 0 1-3 3Zm-1.5-1.5H12a1.502 1.502 0 0 0 1.5-1.5v-4.5a1.502 1.502 0 0 0-1.5-1.5h-1.5v7.5Z"></path>
<path d="M7.5 17.25H3a1.502 1.502 0 0 1-1.5-1.5v-7.5A1.502 1.502 0 0 1 3 6.75h4.5v1.5H3v7.5h4.5v1.5Z"></path>
</svg>