<svg width="32" height="32" fill="currentColor" viewBox="0 0 24 24" xmlns="http://www.w3.org/2000/svg">
<path d="M18.75 8.25V12h-6V8.25h-1.5V12h-6V8.25h-1.5v9h1.5V13.5H7.5v9H9v-9h2.25v3.75h1.5V13.5H15v9h1.5v-9h2.25v3.75h1.5v-9h-1.5Z"></path>
<path d="M12 4.5c-1.275 0-2.4.525-3.15 1.35L9.9 6.9c.525-.6 1.275-.9 2.1-.9.825 0 1.575.3 2.1.9l1.05-1.05C14.4 5.025 13.275 4.5 12 4.5Z"></path>
<path d="m6.675 3.675 1.05 1.05C8.85 3.675 10.35 3 12 3c1.65 0 3.15.675 4.275 1.725l1.05-1.05C15.975 2.325 14.1 1.5 12 1.5s-3.975.825-5.325 2.175Z"></path>
</svg>