<svg width="32" height="32" fill="currentColor" viewBox="0 0 24 24" xmlns="http://www.w3.org/2000/svg">
<path d="M22.5 11.25h-1.538a9.005 9.005 0 0 0-8.212-8.212V1.5h-1.5v1.538a9.005 9.005 0 0 0-8.212 8.212H1.5v1.5h1.538a9.005 9.005 0 0 0 8.212 8.212V22.5h1.5v-1.538a9.005 9.005 0 0 0 8.212-8.212H22.5v-1.5Zm-9.75 8.212V16.5h-1.5v2.962a7.513 7.513 0 0 1-6.712-6.712H7.5v-1.5H4.538a7.512 7.512 0 0 1 6.712-6.712V7.5h1.5V4.538a7.513 7.513 0 0 1 6.712 6.712H16.5v1.5h2.962a7.513 7.513 0 0 1-6.712 6.712Z"></path>
</svg>