<svg width="32" height="32" fill="currentColor" viewBox="0 0 24 24" xmlns="http://www.w3.org/2000/svg">
<path d="M18 18v1.5h1.844A4.456 4.456 0 0 1 16.5 21a4.504 4.504 0 0 1-4.5-4.5h-1.5A5.988 5.988 0 0 0 21 20.449V22.5h1.5V18H18Z"></path>
<path d="M16.5 10.5a6.032 6.032 0 0 0-4.5 2.051V10.5h-1.5V15H15v-1.5h-1.844A4.456 4.456 0 0 1 16.5 12a4.504 4.504 0 0 1 4.5 4.5h1.5a6.007 6.007 0 0 0-6-6Z"></path>
<path d="M9 21H4.5v-3H6v-1.5H4.5v-3.75H6v-1.5H4.5V7.5H6V6H4.5V3H18v6h1.5V3A1.5 1.5 0 0 0 18 1.5H4.5A1.5 1.5 0 0 0 3 3v3H1.5v1.5H3v3.75H1.5v1.5H3v3.75H1.5V18H3v3a1.5 1.5 0 0 0 1.5 1.5H9V21Z"></path>
</svg>