<svg width="32" height="32" fill="currentColor" viewBox="0 0 24 24" xmlns="http://www.w3.org/2000/svg">
<path d="m9.324 15.013 6.029 3.51c.236.148.509.227.788.226.123 0 .246-.015.366-.042l5.44-1.483a.75.75 0 0 0 .553-.724V5.997a.75.75 0 0 0-.945-.724l-5.427 1.464-6.028-3.51a1.494 1.494 0 0 0-1.4-.101L3 5.605V1.5H1.5V21A1.5 1.5 0 0 0 3 22.5h19.5V21H3v-3.257l6.324-2.73ZM21 15.926l-4.872 1.312-6.028-3.51a1.495 1.495 0 0 0-1.4-.101L3 16.106v-3.613l6.324-2.731 6.028 3.51c.236.149.51.227.789.226.123 0 .246-.014.366-.042L21 12.233v3.693ZM9.324 4.512l6.029 3.51a1.507 1.507 0 0 0 1.155.184L21 6.98v3.694l-4.872 1.313-6.028-3.51a1.494 1.494 0 0 0-1.4-.102L3 10.856V7.241l6.324-2.73Z"></path>
</svg>