<svg width="32" height="32" fill="currentColor" viewBox="0 0 24 24" xmlns="http://www.w3.org/2000/svg">
<path d="M22.5 22.5H3A1.5 1.5 0 0 1 1.5 21V1.5H3V21h19.5v1.5Z"></path>
<path d="M7.5 12a1.5 1.5 0 1 1 0 3 1.5 1.5 0 0 1 0-3Zm0-1.5a3 3 0 1 0 0 6 3 3 0 0 0 0-6Z"></path>
<path d="M15.75 4.5a3 3 0 1 1 0 6 3 3 0 0 1 0-6Zm0-1.5a4.5 4.5 0 1 0 0 9 4.5 4.5 0 0 0 0-9Z"></path>
<path d="M18.375 15.75a1.125 1.125 0 1 1 0 2.25 1.125 1.125 0 0 1 0-2.25Zm0-1.5a2.625 2.625 0 1 0 0 5.25 2.625 2.625 0 0 0 0-5.25Z"></path>
</svg>