<svg width="32" height="32" fill="currentColor" viewBox="0 0 24 24" xmlns="http://www.w3.org/2000/svg">
<path d="M12 1.5a10.44 10.44 0 0 0-6.506 2.275 1.48 1.48 0 0 0-.244-.025 1.5 1.5 0 0 0-1.5 1.5c.002.082.01.163.025.244A10.49 10.49 0 1 0 12 1.5ZM12 21A8.983 8.983 0 0 1 4.77 6.664c.277.103.58.114.864.03l1.098 1.098a6.74 6.74 0 0 0 8.873 9.905 1.494 1.494 0 0 0 2.093-2.092 6.698 6.698 0 0 0 0-7.21 1.494 1.494 0 0 0-2.093-2.092 6.709 6.709 0 0 0-7.813.428L6.695 5.634a1.372 1.372 0 0 0-.03-.865A8.994 8.994 0 1 1 12 21Zm0-10.5a1.5 1.5 0 1 1 0 3 1.5 1.5 0 0 1 0-3Zm2.575-.014 1.542-1.542c.056.015.112.026.17.034a5.218 5.218 0 0 1 0 6.044 1.51 1.51 0 0 0-.17.034l-1.542-1.542a2.91 2.91 0 0 0 0-3.028Zm.447-2.772c.008.057.02.114.034.17l-1.541 1.541a2.909 2.909 0 0 0-3.029 0L8.862 7.801a5.214 5.214 0 0 1 6.16-.087Zm-5.596 2.772A2.96 2.96 0 0 0 9 12a3.003 3.003 0 0 0 3 3 2.964 2.964 0 0 0 1.515-.425l1.541 1.541a1.516 1.516 0 0 0-.034.17 5.24 5.24 0 0 1-7.22-7.424l1.624 1.624Z"></path>
</svg>