<svg width="32" height="32" fill="currentColor" viewBox="0 0 24 24" xmlns="http://www.w3.org/2000/svg">
<path d="M22.5 16.5H21v6h1.5v-6Z"></path>
<path d="M19.5 13.5H18v9h1.5v-9Z"></path>
<path d="M16.5 19.5H15v3h1.5v-3Z"></path>
<path d="M6.75 12a5.25 5.25 0 1 0 0 10.5 5.25 5.25 0 0 0 0-10.5Zm3.674 4.5H7.5v-2.924a3.761 3.761 0 0 1 2.924 2.924ZM6.75 21A3.75 3.75 0 0 1 6 13.576V16.5A1.5 1.5 0 0 0 7.5 18h2.924a3.756 3.756 0 0 1-3.674 3Z"></path>
<path d="m16.901 9 3-4.5H22.5V3h-3.401l-3 4.5H13.5v-6H12v9a1.5 1.5 0 0 0 1.5 1.5h9v-1.5h-9V9h3.401Z"></path>
<path d="M8.25 6a.75.75 0 1 0 0-1.5.75.75 0 0 0 0 1.5Z"></path>
<path d="M6.75 9a.75.75 0 1 0 0-1.5.75.75 0 0 0 0 1.5Z"></path>
<path d="M5.25 4.5a.75.75 0 1 0 0-1.5.75.75 0 0 0 0 1.5Z"></path>
<path d="M3.75 7.5a.75.75 0 1 0 0-1.5.75.75 0 0 0 0 1.5Z"></path>
<path d="M2.25 10.5a.75.75 0 1 0 0-1.5.75.75 0 0 0 0 1.5Z"></path>
</svg>