<svg width="32" height="32" fill="currentColor" viewBox="0 0 24 24" xmlns="http://www.w3.org/2000/svg">
<path d="M17.25 18c-2.7 0-3.772-3.132-4.81-6.16-.983-2.871-2-5.84-4.19-5.84a2.58 2.58 0 0 0-2.29 1.741l-1.422-.478C4.576 7.15 5.491 4.5 8.25 4.5c3.261 0 4.509 3.641 5.61 6.853.906 2.647 1.762 5.147 3.39 5.147a2.58 2.58 0 0 0 2.29-1.741l1.421.478C20.923 15.35 20.008 18 17.25 18Z"></path>
<path d="M3 21v-8.25h1.5v-1.5H3V1.5H1.5V21A1.5 1.5 0 0 0 3 22.5h19.5V21H3Z"></path>
<path d="M7.5 11.25H6v1.5h1.5v-1.5Z"></path>
<path d="M10.5 11.25H9v1.5h1.5v-1.5Z"></path>
<path d="M16.5 11.25H15v1.5h1.5v-1.5Z"></path>
<path d="M19.5 11.25H18v1.5h1.5v-1.5Z"></path>
<path d="M22.5 11.25H21v1.5h1.5v-1.5Z"></path>
</svg>