<svg width="32" height="32" fill="currentColor" viewBox="0 0 24 24" xmlns="http://www.w3.org/2000/svg">
<path d="M21 17.25v2.69l-3.75-3.75v-4.94a.75.75 0 0 0-.415-.67L12.75 8.535V4.371l1.94 1.94 1.06-1.061L12 1.5 8.25 5.25l1.06 1.06 1.94-1.939v4.165L7.165 10.58a.75.75 0 0 0-.415.671v4.94L3 19.94v-2.69H1.5v5.25h5.25V21H4.06l3.588-3.587 4.017 2.008a.752.752 0 0 0 .67 0l4.017-2.008L19.939 21H17.25v1.5h5.25v-5.25H21Zm-9.75.286-3-1.5v-3.572l3 1.5v3.572Zm.75-4.875L9.177 11.25 12 9.839l2.823 1.411L12 12.661Zm3.75 3.375-3 1.5v-3.572l3-1.5v3.572Z"></path>
</svg>