<svg width="32" height="32" fill="currentColor" viewBox="0 0 24 24" xmlns="http://www.w3.org/2000/svg">
<path d="m8.893 16.138-1.285-.77 1.568-2.615h-3.75l2.932-4.886 1.285.771-1.568 2.615h3.75l-2.932 4.885Z"></path>
<path d="M22.5 5.25h-.75V3h-1.5v2.25h-.75v4.5h.75v8.625a1.125 1.125 0 1 1-2.25 0V12a.75.75 0 0 0-.75-.75h-3v-7.5A.75.75 0 0 0 13.5 3H3.75a.75.75 0 0 0-.75.75V19.5H1.5V21h14.25v-1.5h-1.5v-6.75h2.25v5.625a2.625 2.625 0 0 0 5.25 0V9.75h.75v-4.5ZM12.75 19.5H4.5v-15h8.25v15Z"></path>
</svg>