<svg width="32" height="32" fill="currentColor" viewBox="0 0 24 24" xmlns="http://www.w3.org/2000/svg">
<path d="M12 1.5 1.5 9.75 6 22.5h12l4.5-12.75L12 1.5Zm1.936 14.449-4.49.998-1.066-5.87 3.682-3.156 4.082 3.061-2.208 4.967Zm.149 1.504L15.995 21h-7.99l1.344-2.495 4.736-1.052ZM7.192 10.12l-2.887-.666 6.945-5.457v2.646L7.192 10.12Zm5.558-3.557V3.997l6.945 5.457-2.363.545-4.582-3.437Zm-9.29 4.235 3.49.806 1.114 6.123-1.303 2.42-3.3-9.349Zm13.78 9.35-1.933-3.59 2.255-5.072 2.977-.688-3.3 9.35Z"></path>
</svg>