<svg width="32" height="32" fill="currentColor" viewBox="0 0 24 24" xmlns="http://www.w3.org/2000/svg">
<path d="M12 16.5V18h1.5v-1.5H12Z"></path>
<path d="M13.5 21v-1.5H12V21H3V1.5H1.5V21A1.5 1.5 0 0 0 3 22.5h19.5V21h-9Z"></path>
<path d="M19.54 14.759a2.58 2.58 0 0 1-2.29 1.741c-1.628 0-2.484-2.5-3.39-5.147A47.57 47.57 0 0 0 13.006 9h.494V7.5h-1.184c-.907-1.714-2.13-3-4.066-3-2.759 0-3.674 2.65-3.712 2.763l1.422.478A2.58 2.58 0 0 1 8.25 6c2.19 0 3.207 2.969 4.19 5.84.191.556.383 1.117.586 1.66H12V15h1.651c.812 1.716 1.872 3 3.599 3 2.758 0 3.673-2.65 3.711-2.763l-1.421-.478Z"></path>
<path d="M12 4.5V6h1.5V4.5H12Z"></path>
<path d="M12 1.5V3h1.5V1.5H12Z"></path>
</svg>