<svg width="32" height="32" fill="currentColor" viewBox="0 0 24 24" xmlns="http://www.w3.org/2000/svg">
<path d="M21 1.5v2.48l-4.5 1.688V1.5H15v4.142l-6-2.4V1.5H7.5v1.834L3 6.147V1.5H1.5v21H3v-1.786l4.5-2.25V22.5H9v-4.242l6 1.8V22.5h1.5v-2.584l4.5-2.813V22.5h1.5v-21H21Zm0 4.082v3.793l-4.5 3.375V7.27L21 5.582Zm-6 1.676v5.667l-6-3.6V4.858l6 2.4ZM7.5 5.103V9.41L3 13.347V7.916l4.5-2.813ZM3 19.036v-3.695l4.5-3.938v5.383L3 19.036Zm6-2.344v-5.618l6 3.6v3.817l-6-1.8Zm7.5 1.455v-3.522L21 11.25v4.084l-4.5 2.813Z"></path>
</svg>