<svg width="32" height="32" fill="currentColor" viewBox="0 0 24 24" xmlns="http://www.w3.org/2000/svg">
<path d="m15.357 6.011-5.271-2.853a1.506 1.506 0 0 0-1.587.154L3 7.501V1.5H1.5V21A1.5 1.5 0 0 0 3 22.5h19.5V4.302l-7.143 1.71ZM21 15.157l-5.715 1.351-5.272-2.162a1.493 1.493 0 0 0-1.516.277L3 19.377v-3.341l6.281-7.05 5.264 4.215a1.512 1.512 0 0 0 1.535.159L21 10.952v4.205ZM9.393 4.489l5.272 2.853c.312.154.667.197 1.006.12L21 6.198v3.086l-5.536 2.731L10.2 7.8a1.493 1.493 0 0 0-2.016.198L3 13.788V9.385L9.393 4.49ZM3.413 21l6.052-5.258 5.272 2.162c.274.104.574.124.86.058L21 16.696V21H3.413Z"></path>
</svg>