<svg width="32" height="32" fill="currentColor" viewBox="0 0 24 24" xmlns="http://www.w3.org/2000/svg">
<path d="M7.5 4.5H6V6h1.5V4.5Z"></path>
<path d="M10.5 4.5H9V6h1.5V4.5Z"></path>
<path d="M16.5 4.5H15V6h1.5V4.5Z"></path>
<path d="M19.5 4.5H18V6h1.5V4.5Z"></path>
<path d="M22.5 4.5H21V6h1.5V4.5Z"></path>
<path d="m20.992 21-.02-.122c-1.09-6.572-2.922-14.06-7.472-14.811V4.5H12v1.564c-4.563.733-6.4 8.233-7.49 14.814L4.49 21H3V6h1.5V4.5H3v-3H1.5V21A1.5 1.5 0 0 0 3 22.5h19.5V21h-1.508Zm-14.98 0C7.528 11.919 9.73 7.5 12.74 7.5s5.211 4.419 6.73 13.5H6.01Z"></path>
</svg>