<svg width="32" height="32" fill="currentColor" viewBox="0 0 24 24" xmlns="http://www.w3.org/2000/svg">
<path d="M12 1.5a.75.75 0 0 0-.75.75v5.317a4.471 4.471 0 0 0-1.845.783L5.88 4.823a1.092 1.092 0 0 0-1.565.019 10.537 10.537 0 0 0 3.04 16.606c.455.236.932.429 1.424.576a10.574 10.574 0 0 0 10.383-2.35 1.075 1.075 0 0 0 .021-1.547l-3.524-3.524c.396-.551.66-1.185.775-1.853h5.317a.75.75 0 0 0 .75-.75A10.512 10.512 0 0 0 12 1.5ZM12 9a3 3 0 1 1 0 6 3 3 0 0 1 0-6ZM5.123 6.188 8.345 9.41a4.433 4.433 0 0 0-.009 5.193L5.13 17.811a9.013 9.013 0 0 1-.006-11.623ZM6.19 18.871l3.207-3.207a4.469 4.469 0 0 0 1.853.769v4.531a8.908 8.908 0 0 1-5.06-2.093Zm6.56 2.096v-4.535a4.472 4.472 0 0 0 1.846-.77l3.211 3.21a8.918 8.918 0 0 1-5.057 2.095Zm3.683-9.717a4.504 4.504 0 0 0-3.683-3.683V3.032a9.015 9.015 0 0 1 8.22 8.219h-4.537Z"></path>
</svg>