<svg width="32" height="32" fill="currentColor" viewBox="0 0 24 24" xmlns="http://www.w3.org/2000/svg">
<path d="M22.5 22.5H3A1.502 1.502 0 0 1 1.5 21V1.5H3V21h19.5v1.5Z"></path>
<path d="M6.75 6.75a2.25 2.25 0 1 0 0-4.5 2.25 2.25 0 0 0 0 4.5Z"></path>
<path d="M6.75 18.75a2.25 2.25 0 1 0 0-4.5 2.25 2.25 0 0 0 0 4.5Z"></path>
<path d="M13.5 12.75a2.25 2.25 0 1 0 0-4.5 2.25 2.25 0 0 0 0 4.5Z"></path>
<path d="M6.75 12.75a2.25 2.25 0 1 1 0-4.5 2.25 2.25 0 0 1 0 4.5Zm0-3a.75.75 0 1 0 0 1.5.75.75 0 0 0 0-1.5Z"></path>
<path d="M20.25 6.75a2.25 2.25 0 1 0 0-4.5 2.25 2.25 0 0 0 0 4.5Z"></path>
<path d="M20.25 18.75a2.25 2.25 0 1 0 0-4.5 2.25 2.25 0 0 0 0 4.5Z"></path>
<path d="M20.25 12.75a2.25 2.25 0 1 1 0-4.5 2.25 2.25 0 0 1 0 4.5Zm0-3a.75.75 0 1 0 0 1.5.75.75 0 0 0 0-1.5Z"></path>
<path d="M13.5 19.5a2.25 2.25 0 1 1 0-4.5 2.25 2.25 0 0 1 0 4.5Zm0-3a.75.75 0 1 0 0 1.5.75.75 0 0 0 0-1.5Z"></path>
<path d="M13.5 6a2.25 2.25 0 1 1 0-4.5 2.25 2.25 0 0 1 0 4.5Zm0-3a.75.75 0 1 0 0 1.5.75.75 0 0 0 0-1.5Z"></path>
</svg>