<svg width="32" height="32" fill="currentColor" viewBox="0 0 24 24" xmlns="http://www.w3.org/2000/svg">
<path d="M4.5 19.5v-6.129l-2.69 2.69L.75 15l4.5-4.5 4.5 4.5-1.06 1.06L6 13.372V19.5h7.5V21H6a1.502 1.502 0 0 1-1.5-1.5Z"></path>
<path d="M22.5 16.5V15h-6v1.5h4.125L16.5 21v1.5h6V21h-4.12l4.12-4.5Z"></path>
<path d="M19.5 4.5v6.129l2.69-2.69L23.25 9l-4.5 4.5-4.5-4.5 1.06-1.06L18 10.628V4.5h-7.5V3H18a1.502 1.502 0 0 1 1.5 1.5Z"></path>
<path d="M6 1.5H2.25V3H6v1.5H3A1.5 1.5 0 0 0 1.5 6v1.5A1.5 1.5 0 0 0 3 9h4.5V3A1.502 1.502 0 0 0 6 1.5Zm0 6H3V6h3v1.5Z"></path>
</svg>