<svg width="32" height="32" fill="currentColor" viewBox="0 0 24 24" xmlns="http://www.w3.org/2000/svg">
<path d="M19.5 4.5a2.997 2.997 0 0 0-2.893 2.25h-3.16a5.998 5.998 0 1 0-6.697 6.698v3.158a3 3 0 1 0 1.5 0v-3.158a5.964 5.964 0 0 0 2.923-1.215l2.752 2.753c-.275.457-.422.98-.425 1.514a3 3 0 1 0 3-3 2.964 2.964 0 0 0-1.514.425l-2.752-2.752a5.962 5.962 0 0 0 1.214-2.923h3.159A2.996 2.996 0 1 0 19.5 4.5ZM9 19.5a1.5 1.5 0 1 1-3 0 1.5 1.5 0 0 1 3 0ZM7.5 12a4.5 4.5 0 1 1 0-9 4.5 4.5 0 0 1 0 9ZM18 16.5a1.5 1.5 0 1 1-3 0 1.5 1.5 0 0 1 3 0ZM19.5 9a1.5 1.5 0 1 1 0-3 1.5 1.5 0 0 1 0 3Z"></path>
</svg>