<svg width="32" height="32" fill="currentColor" viewBox="0 0 24 24" xmlns="http://www.w3.org/2000/svg">
<path d="M12 1.5A10.5 10.5 0 1 0 22.5 12 10.512 10.512 0 0 0 12 1.5Zm8.962 9.75h-4.53a4.487 4.487 0 0 0-7.035-2.913L6.195 5.134a8.984 8.984 0 0 1 14.767 6.116ZM12 15a3 3 0 1 1 0-5.999A3 3 0 0 1 12 15Zm-9-3a8.96 8.96 0 0 1 2.134-5.805l3.203 3.202a4.488 4.488 0 0 0 2.913 7.036v4.53A9.007 9.007 0 0 1 3 12Zm9.75 8.962v-4.53a4.506 4.506 0 0 0 3.683-3.682h4.53a9.006 9.006 0 0 1-8.213 8.212Z"></path>
</svg>