<svg width="32" height="32" fill="currentColor" viewBox="0 0 24 24" xmlns="http://www.w3.org/2000/svg">
<path d="M20.65 12.878a6.741 6.741 0 0 0-3.104-11.13 6.742 6.742 0 0 0-7.34 2.66 4.497 4.497 0 1 0-6.418 5.507 5.247 5.247 0 1 0 5.996 8.614 4.499 4.499 0 0 0 8.966-.53c0-.091-.008-.18-.014-.27a2.617 2.617 0 0 0 3.505-3.486 2.616 2.616 0 0 0-1.592-1.365Zm-4.9-9.88a5.25 5.25 0 1 1 0 10.5 5.25 5.25 0 0 1 0-10.5Zm-9.75 0A3 3 0 1 1 6 9a3 3 0 0 1 0-6Zm8.25 18a3 3 0 1 1 0-5.998 3 3 0 0 1 0 5.999Z"></path>
</svg>