<svg width="32" height="32" fill="currentColor" viewBox="0 0 24 24" xmlns="http://www.w3.org/2000/svg">
<path d="m22.5 4.96-.986.328A15.692 15.692 0 0 1 17.25 6c-1.3 0-2.492-.68-3.753-1.401C12.122 3.813 10.7 3 9 3 6.842 3 4.436 4.655 3 5.829V1.5H1.5V21A1.502 1.502 0 0 0 3 22.5h19.5V4.96ZM3 15.22c1.405-2.188 4.17-5.47 6-5.47 1.228 0 2.22.826 3.27 1.701 1.152.96 2.458 2.049 4.23 2.049a7.102 7.102 0 0 0 4.5-1.897v3.717a9.751 9.751 0 0 1-4.5 1.18 10.397 10.397 0 0 1-3.513-.711A11.764 11.764 0 0 0 9 15c-2.195 0-4.55 2.22-6 3.868v-3.647ZM9 4.5c1.3 0 2.492.68 3.753 1.401C14.128 6.687 15.55 7.5 17.25 7.5A16.074 16.074 0 0 0 21 6.991v2.491c-.512.603-2.313 2.518-4.5 2.518-1.228 0-2.22-.826-3.27-1.701C12.078 9.338 10.772 8.25 9 8.25c-2.202 0-4.547 2.505-6 4.383V7.818C4.16 6.724 6.944 4.5 9 4.5ZM3.187 21c1.21-1.569 3.87-4.5 5.813-4.5 1.203.032 2.392.273 3.513.712 1.273.492 2.622.759 3.987.788a11.053 11.053 0 0 0 4.5-1.005V21H3.187Z"></path>
</svg>