<svg width="32" height="32" fill="currentColor" viewBox="0 0 24 24" xmlns="http://www.w3.org/2000/svg">
<path d="m3.44 21 5.383-4.498 5.995 1.453c.33.081.677.05.986-.09L21 15.435l-.636-1.358-5.187 2.421-5.995-1.453a1.502 1.502 0 0 0-1.305.288L3 19.41v-4.044l5.823-4.865 5.995 1.453c.33.081.677.05.986-.09L21 9.434l-.635-1.358-5.188 2.421-5.995-1.453a1.504 1.504 0 0 0-1.305.288L3 13.41V9.368L8.823 4.5l5.995 1.454c.33.081.677.05.986-.09L21 3.439l-.634-1.358-5.19 2.417-5.994-1.453a1.502 1.502 0 0 0-1.305.288L3 7.41V1.5H1.5V21A1.5 1.5 0 0 0 3 22.5h19.5V21H3.44Z"></path>
</svg>