<svg width="32" height="32" fill="currentColor" viewBox="0 0 24 24" xmlns="http://www.w3.org/2000/svg">
<path d="M22.5 22.5H3A1.5 1.5 0 0 1 1.5 21V1.5H3V21h19.5v1.5Z"></path>
<path d="M11.145 5.867 9.75 3.542V1.5h-1.5v2.042L6.855 5.867C6.295 6.8 6 7.867 6 8.954v.092c0 1.087.295 2.154.855 3.087l1.395 2.325V19.5h1.5v-5.042l1.395-2.325c.56-.933.855-2 .855-3.087v-.092a5.997 5.997 0 0 0-.855-3.087ZM9 5.207l.859 1.432c.294.495.491 1.042.58 1.611H7.56c.089-.57.286-1.116.58-1.611L9 5.208Zm0 7.586-.859-1.432a4.502 4.502 0 0 1-.58-1.611h2.878a4.508 4.508 0 0 1-.58 1.611L9 12.792Z"></path>
<path d="M20.895 8.867 19.5 6.542V1.5H18v5.042l-1.395 2.325c-.56.933-.855 2-.855 3.087v.092c0 1.087.295 2.154.855 3.087L18 17.458V19.5h1.5v-2.042l1.395-2.325c.56-.933.855-2 .855-3.087v-.092a5.997 5.997 0 0 0-.855-3.087Zm-2.145-.66.859 1.432c.294.495.491 1.042.58 1.611H17.31c.089-.57.286-1.116.58-1.611l.859-1.432Zm0 7.585-.859-1.431a4.503 4.503 0 0 1-.58-1.611h2.878a4.508 4.508 0 0 1-.58 1.611l-.859 1.431Z"></path>
</svg>