<svg width="32" height="32" fill="currentColor" viewBox="0 0 24 24" xmlns="http://www.w3.org/2000/svg">
<path d="m22.28 14.47-2.25-2.25a.75.75 0 0 0-1.06 0L12 19.19v3.31h3.31l6.97-6.97a.75.75 0 0 0 0-1.06ZM14.69 21H13.5v-1.19l3.75-3.75 1.19 1.19L14.69 21Zm4.81-4.81L18.31 15l1.19-1.19L20.69 15l-1.19 1.19Z"></path>
<path d="M13.5 10.5v3H15v-3h-1.5Z"></path>
<path d="M10.5 9v4.5H12V9h-1.5Z"></path>
<path d="M7.5 6v7.5H9V6H7.5Z"></path>
<path d="M9 22.5H4.5A1.502 1.502 0 0 1 3 21V3a1.502 1.502 0 0 1 1.5-1.5h12A1.502 1.502 0 0 1 18 3v7.5h-1.5V3h-12v18H9v1.5Z"></path>
</svg>