<svg width="32" height="32" fill="currentColor" viewBox="0 0 24 24" xmlns="http://www.w3.org/2000/svg">
<path d="M7.545 13.41c.23.056.467.086.705.09a3 3 0 0 0 1.672-.51l2.415 2.152a2.91 2.91 0 0 0-.15 2.378 3 3 0 1 0 4.778-3.27l1.905-3.818a2.834 2.834 0 0 0 2.182-.397 3 3 0 1 0-3.517-.285l-1.905 3.818a3 3 0 0 0-2.303.442l-2.415-2.152a2.91 2.91 0 0 0 .15-2.378 3 3 0 1 0-4.837 3.217L3 18.75V1.5H1.5V21A1.5 1.5 0 0 0 3 22.5h19.5V21H3.503l4.042-7.59ZM19.5 6a1.5 1.5 0 1 1 0 3 1.5 1.5 0 0 1 0-3Zm-3 10.5a1.5 1.5 0 1 1-3 0 1.5 1.5 0 0 1 3 0ZM8.25 9a1.5 1.5 0 1 1 0 3 1.5 1.5 0 0 1 0-3Z"></path>
</svg>