<svg width="32" height="32" fill="currentColor" viewBox="0 0 24 24" xmlns="http://www.w3.org/2000/svg">
<path d="M19.5 10.5A1.5 1.5 0 0 0 21 9V4.5A1.5 1.5 0 0 0 19.5 3H15a1.5 1.5 0 0 0-1.5 1.5V9a1.5 1.5 0 0 0 1.5 1.5h1.5v3.075a3.75 3.75 0 0 0-2.925 2.925H10.5V15A1.5 1.5 0 0 0 9 13.5H7.5v-3.075a3.75 3.75 0 1 0-1.5 0V13.5H4.5A1.5 1.5 0 0 0 3 15v4.5A1.5 1.5 0 0 0 4.5 21H9a1.5 1.5 0 0 0 1.5-1.5V18h3.075A3.75 3.75 0 1 0 18 13.575V10.5h1.5Zm-15-3.75a2.25 2.25 0 1 1 4.5 0 2.25 2.25 0 0 1-4.5 0ZM9 19.5H4.5V15H9v4.5Zm10.5-2.25a2.25 2.25 0 1 1-4.5 0 2.25 2.25 0 0 1 4.5 0ZM15 4.5h4.5V9H15V4.5Z"></path>
</svg>