<svg width="32" height="32" fill="currentColor" viewBox="0 0 24 24" xmlns="http://www.w3.org/2000/svg">
<path d="M3 21v-1.5h1.5V18H3V1.5H1.5V21A1.5 1.5 0 0 0 3 22.5h19.5V21H3Z"></path>
<path d="M7.5 18H6v1.5h1.5V18Z"></path>
<path d="M10.5 18H9v1.5h1.5V18Z"></path>
<path d="M16.5 18H15v1.5h1.5V18Z"></path>
<path d="M19.5 18H18v1.5h1.5V18Z"></path>
<path d="M22.5 18H21v1.5h1.5V18Z"></path>
<path d="M20.96 3.246 19.48 3c-1.519 9.081-3.72 13.5-6.73 13.5-3.01 0-5.212-4.419-6.73-13.5l-1.48.246C5.632 9.792 7.472 17.198 12 17.935V19.5h1.5v-1.565c4.528-.737 6.368-8.143 7.46-14.689Z"></path>
</svg>