<svg width="32" height="32" fill="currentColor" viewBox="0 0 24 24" xmlns="http://www.w3.org/2000/svg">
<path d="M12 14.247a5.243 5.243 0 0 1-4.375-2.346l1.25-.83a3.75 3.75 0 0 0 6.25 0l1.25.83A5.243 5.243 0 0 1 12 14.247Z"></path>
<path d="M15 6a1.5 1.5 0 1 0 1.5 1.5A1.486 1.486 0 0 0 15 6Z"></path>
<path d="M9 6a1.5 1.5 0 1 0 1.5 1.5A1.486 1.486 0 0 0 9 6Z"></path>
<path d="M13.302 22.5 12 21.75l3-5.25h4.5A1.497 1.497 0 0 0 21 15V4.5A1.497 1.497 0 0 0 19.5 3h-15A1.497 1.497 0 0 0 3 4.5V15a1.497 1.497 0 0 0 1.5 1.5h6.75V18H4.5a3 3 0 0 1-3-3V4.5a3 3 0 0 1 3-3h15a2.999 2.999 0 0 1 3 3V15a3 3 0 0 1-3 3h-3.627l-2.571 4.5Z"></path>
</svg>