<svg width="32" height="32" fill="currentColor" viewBox="0 0 24 24" xmlns="http://www.w3.org/2000/svg">
<path d="m11.69 7.81 2.685 2.69-2.687 2.69 1.063 1.06 3.75-3.75-3.75-3.75-1.061 1.06Z"></path>
<path d="m15.44 7.81 2.685 2.69-2.687 2.69 1.062 1.06 3.75-3.75-3.75-3.75-1.06 1.06Z"></path>
<path d="M7.5 6.75 8.695 9l2.555.31L9.375 11l.375 2.5-2.25-1.406L5.25 13.5l.375-2.5L3.75 9.31 6.375 9 7.5 6.75Z"></path>
<path d="M13.302 22.5 12 21.75l3-5.25h4.5A1.497 1.497 0 0 0 21 15V6a1.497 1.497 0 0 0-1.5-1.5h-15A1.497 1.497 0 0 0 3 6v9a1.497 1.497 0 0 0 1.5 1.5h6.75V18H4.5a3 3 0 0 1-3-3V6a3 3 0 0 1 3-3h15a2.999 2.999 0 0 1 3 3v9a3 3 0 0 1-3 3h-3.627l-2.571 4.5Z"></path>
</svg>