<svg width="32" height="32" fill="currentColor" viewBox="0 0 24 24" xmlns="http://www.w3.org/2000/svg">
<path d="m21.932 3.022-6-1.5a.755.755 0 0 0-.46.031l-7.276 2.91-5.764-1.44a.75.75 0 0 0-.932.727v16.5a.75.75 0 0 0 .568.727l6 1.5a.765.765 0 0 0 .46-.031l7.276-2.91 5.764 1.441a.75.75 0 0 0 .932-.727V3.75a.75.75 0 0 0-.568-.728ZM21 8.25h-4.5V3.21L21 4.335V8.25Zm-13.5 6H3v-4.5h4.5v4.5Zm1.5-6V5.758l6-2.4V8.25H9Zm6 1.5v4.5H9v-4.5h6Zm-6 6h6v2.492l-6 2.4V15.75Zm7.5-6H21v4.5h-4.5v-4.5Zm-9-3.915V8.25H3V4.71l4.5 1.125ZM3 15.75h4.5v5.04L3 19.663V15.75Zm13.5 2.414V15.75H21v3.54l-4.5-1.126Z"></path>
</svg>