<svg width="32" height="32" fill="currentColor" viewBox="0 0 24 24" xmlns="http://www.w3.org/2000/svg">
<path d="m17.625 13.5-1.875.525V12h-1.5v2.025l-1.875-.525L12 14.925l1.8.525-1.05 1.8 1.275.75.975-1.65.975 1.65 1.275-.75-1.05-1.8 1.8-.525-.375-1.425Z"></path>
<path d="M12 9.75v-1.5H9.75V6h-1.5v2.25H6v1.5h2.25V12h1.5V9.75H12Z"></path>
<path d="M19.5 3h-15A1.504 1.504 0 0 0 3 4.5v15A1.505 1.505 0 0 0 4.5 21h15a1.505 1.505 0 0 0 1.5-1.5v-15A1.505 1.505 0 0 0 19.5 3Zm-15 16.5v-15h15v15h-15Z"></path>
</svg>