<svg width="32" height="32" fill="currentColor" viewBox="0 0 24 24" xmlns="http://www.w3.org/2000/svg">
<path d="M21 1.5h-3.75V3H21v18h-3.75v1.5H21a1.505 1.505 0 0 0 1.5-1.5V3A1.505 1.505 0 0 0 21 1.5Z"></path>
<path d="M10.5 12.751H6a.707.707 0 0 0-.75.75v4.5a.708.708 0 0 0 .75.75h4.5a.708.708 0 0 0 .75-.75v-4.5a.708.708 0 0 0-.75-.75Zm-.75 4.5h-3v-3h3v3Z"></path>
<path d="M18.75 18.001v-4.5a.708.708 0 0 0-.75-.75h-4.5a.707.707 0 0 0-.75.75v4.5a.708.708 0 0 0 .75.75H18a.752.752 0 0 0 .75-.75Zm-1.5-.75h-3v-3h3v3Z"></path>
<path d="M10.5 5.251H6a.709.709 0 0 0-.75.75v4.5a.708.708 0 0 0 .75.75h4.5a.708.708 0 0 0 .75-.75v-4.5a.709.709 0 0 0-.75-.75Zm-.75 4.5h-3v-3h3v3Z"></path>
<path d="M13.5 11.251H18a.708.708 0 0 0 .75-.75v-4.5a.709.709 0 0 0-.75-.75h-4.5a.708.708 0 0 0-.75.75v4.5a.752.752 0 0 0 .75.75Zm.75-4.5h3v3h-3v-3Z"></path>
<path d="M3 3h3.75V1.5H3A1.504 1.504 0 0 0 1.5 3v18A1.505 1.505 0 0 0 3 22.5h3.75V21H3V3Z"></path>
</svg>