<svg width="32" height="32" fill="currentColor" viewBox="0 0 24 24" xmlns="http://www.w3.org/2000/svg">
<path d="M16.5 1.5V3h3.45L15 7.95 16.05 9 21 4.05V7.5h1.5v-6h-6Z"></path>
<path d="M14.25 12v2.025l-1.875-.525L12 14.925l1.8.525-1.05 1.8 1.275.75.975-1.65.975 1.65 1.275-.75-1.05-1.8 1.8-.525-.375-1.425-1.875.525V12h-1.5Z"></path>
<path d="M9.75 12V9.75H12v-1.5H9.75V6h-1.5v2.25H6v1.5h2.25V12h1.5Z"></path>
<path d="M19.5 19.5h-15v-15h9.75V3H4.5A1.504 1.504 0 0 0 3 4.5v15A1.505 1.505 0 0 0 4.5 21h15a1.505 1.505 0 0 0 1.5-1.5V9.75h-1.5v9.75Z"></path>
</svg>