<svg width="32" height="32" fill="currentColor" viewBox="0 0 24 24" xmlns="http://www.w3.org/2000/svg">
<path d="M22.75 22.5H19.5V21h3v-1.5H21a1.502 1.502 0 0 1-1.5-1.5v-1.75A1.251 1.251 0 0 1 20.75 15H24v1.5h-3V18h1.5a1.502 1.502 0 0 1 1.5 1.5v1.75a1.251 1.251 0 0 1-1.25 1.25Z"></path>
<path d="M16.75 15h-2a1.25 1.25 0 0 0-1.25 1.25v6.25H15v-3h1.5v3H18v-6.25A1.25 1.25 0 0 0 16.75 15ZM15 18v-1.5h1.5V18H15Z"></path>
<path d="M9.375 18 8.25 15h-1.5v7.5h1.5v-5.25l1.125 3 1.125-3v5.25H12V15h-1.5l-1.125 3Z"></path>
<path d="M.75 16.5v4.875A1.105 1.105 0 0 0 1.875 22.5H5.25V21h-3v-4.5h3V15h-3a1.505 1.505 0 0 0-1.5 1.5Z"></path>
<path d="M9.75 6h-1.5v2.25H6v1.5h2.25V12h1.5V9.75H12v-1.5H9.75V6Z"></path>
<path d="M4.5 4.5h15v9H21v-9A1.505 1.505 0 0 0 19.5 3h-15A1.504 1.504 0 0 0 3 4.5v9h1.5v-9Z"></path>
</svg>