<svg width="32" height="32" fill="currentColor" viewBox="0 0 24 24" xmlns="http://www.w3.org/2000/svg">
<path d="M6 13.95v-1.2H4.5v1.2a5.537 5.537 0 0 0 5.55 5.55h1.2V18h-1.2A4.034 4.034 0 0 1 6 13.95Z"></path>
<path d="M21 13.5h-6a1.505 1.505 0 0 0-1.5 1.5v6a1.505 1.505 0 0 0 1.5 1.5h6a1.505 1.505 0 0 0 1.5-1.5v-6a1.505 1.505 0 0 0-1.5-1.5ZM15 21v-6h6v6h-6Z"></path>
<path d="M18 10.05v1.2h1.5v-1.2a5.537 5.537 0 0 0-5.55-5.55h-1.2V6h1.2A4.033 4.033 0 0 1 18 10.05Z"></path>
<path d="M9 1.5H3A1.504 1.504 0 0 0 1.5 3v6A1.505 1.505 0 0 0 3 10.5h6A1.505 1.505 0 0 0 10.5 9V3A1.505 1.505 0 0 0 9 1.5ZM3 9V3h6v6H3Z"></path>
</svg>