<svg width="32" height="32" fill="currentColor" viewBox="0 0 24 24" xmlns="http://www.w3.org/2000/svg">
<path d="M5.775 3.523c-.86.66-1.618 1.444-2.25 2.325l1.2.9a9.945 9.945 0 0 1 1.95-2.025l-.9-1.2Z"></path>
<path d="m3.45 9.223-1.425-.45a9.382 9.382 0 0 0-.525 3.225H3a8.61 8.61 0 0 1 .45-2.775Z"></path>
<path d="M2.025 15.302a10.801 10.801 0 0 0 1.5 2.925l1.2-.9a9.668 9.668 0 0 1-1.275-2.475l-1.425.45Z"></path>
<path d="M5.85 20.473a10.744 10.744 0 0 0 2.925 1.5l.45-1.425a9.665 9.665 0 0 1-2.475-1.275l-.9 1.2Z"></path>
<path d="m8.775 2.026.45 1.425A8.61 8.61 0 0 1 12 3V1.5a9.383 9.383 0 0 0-3.225.525Z"></path>
<path d="M18.15 20.475a11.385 11.385 0 0 0 2.325-2.325l-1.2-.9a8.647 8.647 0 0 1-2.025 2.025l.9 1.2Z"></path>
<path d="m20.55 14.775 1.425.45c.326-1.045.503-2.13.525-3.225H21a8.612 8.612 0 0 1-.45 2.775Z"></path>
<path d="M21.9 8.698a10.8 10.8 0 0 0-1.5-2.925l-1.2.9a9.68 9.68 0 0 1 1.275 2.475l1.425-.45Z"></path>
<path d="M18.075 3.453a10.801 10.801 0 0 0-2.925-1.5l-.45 1.425a9.668 9.668 0 0 1 2.475 1.275l.9-1.2Z"></path>
<path d="m15.225 21.972-.45-1.425a8.612 8.612 0 0 1-2.775.45v1.5c1.09-.065 2.17-.241 3.225-.525Z"></path>
</svg>