<svg width="32" height="32" fill="currentColor" viewBox="0 0 24 24" xmlns="http://www.w3.org/2000/svg">
<path d="M12 1.5a10.5 10.5 0 1 0 0 21 10.5 10.5 0 0 0 0-21Zm5.625 5.25a2.625 2.625 0 1 1 0 5.25 2.625 2.625 0 0 1 0-5.25Zm.326-1.484a4.143 4.143 0 0 0-.326-.016 4.112 4.112 0 0 0-3.1 1.409 6.008 6.008 0 0 0-4.174-3.5 8.891 8.891 0 0 1 7.6 2.107ZM12 21a3 3 0 1 1 0-5.999A3 3 0 0 1 12 21Zm-3-7.5a4.5 4.5 0 1 1 0-9 4.5 4.5 0 0 1 0 9ZM3 12a8.977 8.977 0 0 1 .158-1.649 5.994 5.994 0 0 0 5.51 4.632A4.468 4.468 0 0 0 8 20.05 9.002 9.002 0 0 1 3 12Zm13 8.05a4.488 4.488 0 0 0-3.134-6.465A6.016 6.016 0 0 0 14.3 11.81a4.115 4.115 0 0 0 6.688-.051c.002.08.012.16.012.241a9.003 9.003 0 0 1-5 8.05Z"></path>
</svg>