<svg width="32" height="32" fill="currentColor" viewBox="0 0 24 24" xmlns="http://www.w3.org/2000/svg">
<path d="M22.5 7.5v-6h-6v6h2.25v3h-1.5V12h5.25v-1.5h-2.25v-3h2.25ZM18 3h3v3h-3V3Z"></path>
<path d="M15 17.558 13.943 16.5 12 18.442 10.057 16.5 9 17.558l1.943 1.942L9 21.442l1.057 1.058L12 20.558l1.943 1.942L15 21.442 13.057 19.5 15 17.558Z"></path>
<path d="M15 10.5H9V12h2.25v3.75h1.5V12H15v-1.5Z"></path>
<path d="M5.25 7.397a3 3 0 1 0-1.5 0v3.105H1.5v1.5h5.25v-1.5h-1.5V7.397ZM3 4.502a1.5 1.5 0 1 1 3 0 1.5 1.5 0 0 1-3 0Z"></path>
</svg>