<svg width="32" height="32" fill="currentColor" viewBox="0 0 24 24" xmlns="http://www.w3.org/2000/svg">
<path d="M11.25 15a.75.75 0 1 0 0-1.5.75.75 0 0 0 0 1.5Z"></path>
<path d="m20.775 6.975-5.25-5.25A.682.682 0 0 0 15 1.5H7.5A1.504 1.504 0 0 0 6 3v7.5H4.5A1.501 1.501 0 0 0 3 12v4.5A1.502 1.502 0 0 0 4.5 18H6v3a1.504 1.504 0 0 0 1.5 1.5h12A1.505 1.505 0 0 0 21 21V7.5a.68.68 0 0 0-.225-.525ZM15 3.3l4.2 4.2H15V3.3ZM4.5 12h7.198l2.552 2.25-2.544 2.25H4.5V12Zm15 9h-12v-3h4.207c.362 0 .711-.132.985-.37l2.537-2.243a1.502 1.502 0 0 0 .008-2.267l-2.553-2.256a1.497 1.497 0 0 0-.977-.364H7.5V3h6v4.5A1.504 1.504 0 0 0 15 9h4.5v12Z"></path>
</svg>