<svg width="32" height="32" fill="currentColor" viewBox="0 0 24 24" xmlns="http://www.w3.org/2000/svg">
<path d="M18.75 12.75h-4.5v1.5h4.5v-1.5Z"></path>
<path d="M12.75 12.75h-4.5v1.5h4.5v-1.5Z"></path>
<path d="M6.75 12.75H4.5v1.5h2.25v-1.5Z"></path>
<path d="M19.5 9.75h-3v1.5h3v-1.5Z"></path>
<path d="M15 9.75H9.75v1.5H15v-1.5Z"></path>
<path d="M8.25 9.75H4.5v1.5h3.75v-1.5Z"></path>
<path d="M13.302 22.5 12 21.75l3-5.25h4.5A1.497 1.497 0 0 0 21 15V6a1.497 1.497 0 0 0-1.5-1.5h-15A1.497 1.497 0 0 0 3 6v9a1.497 1.497 0 0 0 1.5 1.5h6.75V18H4.5a3 3 0 0 1-3-3V6a3 3 0 0 1 3-3h15a2.999 2.999 0 0 1 3 3v9a3 3 0 0 1-3 3h-3.627l-2.571 4.5Z"></path>
</svg>