<svg width="32" height="32" fill="currentColor" viewBox="0 0 24 24" xmlns="http://www.w3.org/2000/svg">
<path d="M24 19.5V18h-1.576a3.725 3.725 0 0 0-.549-1.315l1.118-1.117-1.06-1.06-1.118 1.117a3.727 3.727 0 0 0-1.315-.55V13.5H18v1.576c-.47.096-.916.283-1.315.549l-1.117-1.118-1.06 1.06 1.117 1.118a3.727 3.727 0 0 0-.55 1.315H13.5v1.5h1.576c.096.47.283.916.549 1.315l-1.118 1.117 1.06 1.06 1.118-1.117c.4.266.846.453 1.315.55V24h1.5v-1.576c.47-.096.916-.283 1.315-.549l1.117 1.118 1.06-1.06-1.117-1.118c.266-.4.453-.846.55-1.315H24ZM18.75 21a2.25 2.25 0 1 1 0-4.5 2.25 2.25 0 0 1 0 4.5Z"></path>
<path d="M5.25 16.5a1.5 1.5 0 1 0 0-3 1.5 1.5 0 0 0 0 3Z"></path>
<path d="M10.5 15a3 3 0 1 1 3-3 3.009 3.009 0 0 1-3 3Zm0-4.5a1.5 1.5 0 1 0 0 3 1.5 1.5 0 0 0 0-3Z"></path>
<path d="M15.75 10.5a1.5 1.5 0 1 0 0-3 1.5 1.5 0 0 0 0 3Z"></path>
<path d="M9.765 21.204 2.25 16.819V7.181l8.25-4.813 8.622 5.03.756-1.296-9-5.25a.75.75 0 0 0-.756 0l-9 5.25a.75.75 0 0 0-.372.648v10.5a.75.75 0 0 0 .372.648L9.01 22.5l.755-1.296Z"></path>
</svg>