<svg width="32" height="32" fill="currentColor" viewBox="0 0 24 24" xmlns="http://www.w3.org/2000/svg">
<path d="M21.273 19.025a2.206 2.206 0 0 0-1.377.49l-1.59-.918v-1.19a2.225 2.225 0 0 0 1.451-2.472 2.222 2.222 0 0 0-2.194-1.847 2.227 2.227 0 0 0-2.194 1.847 2.22 2.22 0 0 0 1.452 2.471v1.19l-1.591.918a2.206 2.206 0 0 0-1.377-.49 2.243 2.243 0 0 0-2.126 1.488 2.235 2.235 0 0 0 .707 2.494 2.242 2.242 0 0 0 3.59-2.238l1.54-.888 1.538.888a2.218 2.218 0 0 0 1 2.365 2.226 2.226 0 0 0 3.312-1.28 2.218 2.218 0 0 0-.855-2.42 2.226 2.226 0 0 0-1.286-.408Zm-7.42 2.963a.743.743 0 0 1-.524-1.264.742.742 0 0 1 1.049 1.047.743.743 0 0 1-.525.217Zm3.71-7.409a.743.743 0 0 1 .525 1.265.742.742 0 1 1-.525-1.265Zm3.71 7.41a.743.743 0 0 1-.525-1.265.742.742 0 0 1 1.05 1.047.743.743 0 0 1-.525.217Z"></path>
<path d="M4.953 16.06a1.483 1.483 0 1 0 .002-2.966 1.483 1.483 0 0 0-.002 2.965Z"></path>
<path d="M10.148 14.578a2.97 2.97 0 0 1-2.742-1.83 2.96 2.96 0 0 1 2.163-4.04 2.972 2.972 0 0 1 3.046 1.26c.326.487.5 1.06.5 1.646a2.978 2.978 0 0 1-2.968 2.964Zm0-4.446a1.486 1.486 0 0 0-1.456 1.771 1.482 1.482 0 0 0 2.024 1.08 1.484 1.484 0 0 0 .916-1.369 1.486 1.486 0 0 0-1.484-1.482Z"></path>
<path d="M15.34 10.132a1.483 1.483 0 1 0 .002-2.966 1.483 1.483 0 0 0-.003 2.966Z"></path>
<path d="m9.419 20.706-7.435-4.331V6.853l8.162-4.754 8.53 4.968.747-1.28L10.52.601a.743.743 0 0 0-.748 0L.868 5.787a.741.741 0 0 0-.368.64V16.8a.74.74 0 0 0 .368.64l7.803 4.547.748-1.28Z"></path>
</svg>