<svg width="32" height="32" fill="currentColor" viewBox="0 0 24 24" xmlns="http://www.w3.org/2000/svg">
<path d="M12 5.25c.38 0 .76.038 1.133.112a6 6 0 0 1 4.762 4.755l.195 1.013 1.013.18a4.125 4.125 0 0 1-.75 8.19H5.625a4.125 4.125 0 0 1-.75-8.19l1.005-.18.195-1.013A6 6 0 0 1 12 5.25Zm0-1.5a7.5 7.5 0 0 0-7.372 6.09A5.625 5.625 0 0 0 5.618 21h12.75a5.625 5.625 0 0 0 .99-11.16A7.5 7.5 0 0 0 12 3.75Z"></path>
<path d="M10.5 18H8.25a1.5 1.5 0 0 1-1.5-1.5v-2.25a1.5 1.5 0 0 1 1.5-1.5h2.25v1.5H8.25v2.25h2.25V18Z"></path>
<path d="M15.75 11.25v-1.5h-1.5a1.5 1.5 0 0 0-1.5 1.5v1.5H12v1.5h.75V18h1.5v-3.75h1.5v-1.5h-1.5v-1.5h1.5Z"></path>
</svg>