<svg width="32" height="32" fill="currentColor" viewBox="0 0 24 24" xmlns="http://www.w3.org/2000/svg">
<path d="m23.232 18.731-3.751 3.751a2.626 2.626 0 0 1-3.713-3.713l1.06 1.06a1.125 1.125 0 1 0 1.592 1.592l3.751-3.751a1.126 1.126 0 0 0-1.591-1.591l-1.061-1.061a2.626 2.626 0 0 1 3.713 3.713Z"></path>
<path d="m15.019 15.768-3.751 3.75a2.626 2.626 0 0 0 3.713 3.714l-1.061-1.06a1.126 1.126 0 0 1-1.591-1.592l3.75-3.751a1.125 1.125 0 0 1 1.592 1.591l1.061 1.061a2.626 2.626 0 0 0-3.713-3.713Z"></path>
<path d="M5.25 16.5a1.5 1.5 0 1 0 0-3 1.5 1.5 0 0 0 0 3Z"></path>
<path d="M10.5 15a3 3 0 1 1 3-3 3.009 3.009 0 0 1-3 3Zm0-4.5a1.5 1.5 0 1 0 0 3 1.5 1.5 0 0 0 0-3Z"></path>
<path d="M15.75 10.5a1.5 1.5 0 1 0 0-3 1.5 1.5 0 0 0 0 3Z"></path>
<path d="M8.48 20.454 2.25 16.82V7.181l8.25-4.813 8.622 5.03.756-1.296-9-5.25a.75.75 0 0 0-.756 0l-9 5.25a.75.75 0 0 0-.372.648v10.5a.75.75 0 0 0 .372.648l6.603 3.852.756-1.296Z"></path>
</svg>