<svg width="32" height="32" fill="currentColor" viewBox="0 0 24 24" xmlns="http://www.w3.org/2000/svg">
<path d="M22.5 11.625a4.9 4.9 0 0 0-3.899-4.773 6.746 6.746 0 0 0-13.2 0 4.899 4.899 0 0 0-3.9 4.773 4.84 4.84 0 0 0 1.266 3.263A4.487 4.487 0 0 0 6 22.5h8.25a4.481 4.481 0 0 0 4.207-6.076 4.879 4.879 0 0 0 4.043-4.799ZM14.25 21H6a2.994 2.994 0 0 1-.505-5.947l.497-.085.11-.492a4.122 4.122 0 0 1 8.047 0l.11.492.496.085A2.994 2.994 0 0 1 14.25 21Zm3.375-6h-.042a4.467 4.467 0 0 0-2.096-1.318 5.62 5.62 0 0 0-10.724 0c-.267.078-.526.18-.774.306A3.334 3.334 0 0 1 3 11.625a3.388 3.388 0 0 1 3.108-3.36l.612-.049.074-.609a5.245 5.245 0 0 1 10.413 0l.074.61.611.047A3.373 3.373 0 0 1 17.625 15Z"></path>
</svg>