<svg width="32" height="32" fill="currentColor" viewBox="0 0 24 24" xmlns="http://www.w3.org/2000/svg">
<path d="M19.372 9.836A7.515 7.515 0 0 0 12 3.75v1.5a6.017 6.017 0 0 1 5.899 4.87l.194 1.01 1.012.182a4.127 4.127 0 0 1-.724 8.188H12V21h6.38a5.626 5.626 0 0 0 .992-11.164Z"></path>
<path d="M10.5 18H6v1.5h4.5V18Z"></path>
<path d="M4.5 18H3v1.5h1.5V18Z"></path>
<path d="M10.5 15h-6v1.5h6V15Z"></path>
<path d="M3 15H1.5v1.5H3V15Z"></path>
<path d="M10.5 12H6v1.5h4.5V12Z"></path>
<path d="M4.5 12H3v1.5h1.5V12Z"></path>
<path d="M10.5 9h-3v1.5h3V9Z"></path>
<path d="M6 9H4.5v1.5H6V9Z"></path>
<path d="M10.5 6H9v1.5h1.5V6Z"></path>
</svg>