<svg width="32" height="32" fill="currentColor" viewBox="0 0 24 24" xmlns="http://www.w3.org/2000/svg">
<path d="M21 12v4.5H3v-12h5.25V3H3a1.5 1.5 0 0 0-1.5 1.5v12A1.5 1.5 0 0 0 3 18h6v3H6v1.5h12V21h-3v-3h6a1.5 1.5 0 0 0 1.5-1.5V12H21Zm-7.5 9h-3v-3h3v3Z"></path>
<path d="M13.5 13.5h-.008a.75.75 0 0 1-.713-.544L11.434 8.25H8.25v-1.5H12a.75.75 0 0 1 .721.544l.806 2.82 2.256-7.335a.76.76 0 0 1 .717-.529.735.735 0 0 1 .712.513L18.54 6.75h3.96v1.5H18a.75.75 0 0 1-.712-.513l-.76-2.28-2.311 7.514a.75.75 0 0 1-.717.53Z"></path>
</svg>