<svg width="32" height="32" fill="currentColor" viewBox="0 0 24 24" xmlns="http://www.w3.org/2000/svg">
<path d="M17.625 16.503H6.375A4.875 4.875 0 0 1 5.4 6.858a6.75 6.75 0 0 1 13.2 0 4.875 4.875 0 0 1-.975 9.645ZM12 3.003a5.25 5.25 0 0 0-5.205 4.605l-.045.645h-.645a3.378 3.378 0 1 0 .27 6.75h11.25a3.378 3.378 0 1 0 .27-6.75h-.645l-.075-.615A5.25 5.25 0 0 0 12 3.003Z"></path>
<path d="M10.5 22.502a.75.75 0 0 1-.667-1.088l1.5-3a.75.75 0 1 1 1.335.676l-1.5 3a.75.75 0 0 1-.668.412Z"></path>
<path d="M15 22.502a.75.75 0 0 1-.667-1.088l1.5-3a.75.75 0 1 1 1.335.676l-1.5 3a.75.75 0 0 1-.668.412Z"></path>
<path d="M6 22.502a.75.75 0 0 1-.668-1.088l1.5-3a.75.75 0 1 1 1.336.676l-1.5 3a.75.75 0 0 1-.668.412Z"></path>
</svg>