<svg width="32" height="32" fill="currentColor" viewBox="0 0 24 24" xmlns="http://www.w3.org/2000/svg">
<path d="M18.6 9.102a6.65 6.65 0 0 0-.734-1.907L22.5 2.56 21.44 1.5 1.5 21.44l1.06 1.06 3.75-3.75h11.315a4.873 4.873 0 0 0 .976-9.648Zm-.975 8.148H7.811l8.945-8.946c.23.491.383 1.015.45 1.553l.075.61.611.047a3.373 3.373 0 0 1-.267 6.736Z"></path>
<path d="m3.222 17.587 1.074-1.074a3.358 3.358 0 0 1 1.812-5.999l.612-.047.074-.61a5.24 5.24 0 0 1 7.972-3.814L15.85 4.96A6.74 6.74 0 0 0 5.4 9.102a4.867 4.867 0 0 0-2.178 8.485Z"></path>
</svg>