<svg width="32" height="32" fill="currentColor" viewBox="0 0 24 24" xmlns="http://www.w3.org/2000/svg">
<path d="M8.25 21H1.5v1.5h6.75V21Z"></path>
<path d="M22.5 21h-6.75v1.5h6.75V21Z"></path>
<path d="M12.75 19.625v-6.251l1.94 1.936 1.06-1.06L12 10.5l-3.75 3.75 1.06 1.061 1.94-1.937v6.251l-1.94-1.937-1.06 1.062L12 22.5l3.75-3.75-1.06-1.06-1.94 1.935Z"></path>
<path d="M17.25 12h-1.5v-1.5h1.5a2.25 2.25 0 1 0 0-4.5 1.74 1.74 0 0 1-.161.02l-.603.043-.17-.58a4.494 4.494 0 0 0-8.382-.65l-.212.45-.632-.034a2.626 2.626 0 1 0 .035 5.251H8.25V12H7.125a4.125 4.125 0 0 1-.322-8.237 5.993 5.993 0 0 1 10.762.75A3.75 3.75 0 0 1 17.25 12Z"></path>
</svg>