<svg width="32" height="32" fill="currentColor" viewBox="0 0 24 24" xmlns="http://www.w3.org/2000/svg">
<path d="M19.366 7.593a7.5 7.5 0 0 0-14.732 0 5.622 5.622 0 0 0 .991 11.157H6v-1.5h-.375a4.123 4.123 0 0 1-.283-8.234l.628-.043.067-.625a5.998 5.998 0 0 1 11.926 0l.068.625.627.043a4.122 4.122 0 0 1-.283 8.234H18v1.5h.375a5.623 5.623 0 0 0 .991-11.157Z"></path>
<path d="M17.25 16.5V15h-1.576a3.725 3.725 0 0 0-.549-1.315l1.118-1.117-1.06-1.06-1.118 1.117a3.727 3.727 0 0 0-1.315-.55V10.5h-1.5v1.576c-.47.096-.916.283-1.315.549l-1.117-1.118-1.06 1.06 1.117 1.118A3.726 3.726 0 0 0 8.325 15H6.75v1.5h1.576c.097.47.283.916.549 1.315l-1.118 1.117 1.06 1.06 1.118-1.117c.4.266.845.453 1.315.55V21h1.5v-1.576c.47-.096.916-.283 1.315-.549l1.117 1.118 1.06-1.06-1.117-1.118c.266-.4.453-.846.55-1.315h1.575ZM12 18a2.25 2.25 0 1 1 0-4.5 2.25 2.25 0 0 1 0 4.5Z"></path>
</svg>