<svg width="32" height="32" fill="currentColor" viewBox="0 0 24 24" xmlns="http://www.w3.org/2000/svg">
<path d="M22.5 13.5H21V21h1.5v-7.5Z"></path>
<path d="M19.5 10.5H18V21h1.5V10.5Z"></path>
<path d="M16.5 16.5H15V21h1.5v-4.5Z"></path>
<path d="m16.63 7.5 1.19-.95a7.464 7.464 0 0 0-7.332-2.647 7.502 7.502 0 0 0-5.86 5.933 5.63 5.63 0 0 0-4.588 6.22A5.763 5.763 0 0 0 5.826 21H12v-1.5H5.77a4.224 4.224 0 0 1-4.201-3.364 4.13 4.13 0 0 1 3.325-4.823l1.012-.184.16-.832a6.155 6.155 0 0 1 5.057-4.982 5.975 5.975 0 0 1 2.26.098A5.853 5.853 0 0 1 16.631 7.5Z"></path>
</svg>