<svg width="32" height="32" fill="currentColor" viewBox="0 0 24 24" xmlns="http://www.w3.org/2000/svg">
<path d="M21 22.5h-3.75a1.502 1.502 0 0 1-1.5-1.5v-3.75a1.502 1.502 0 0 1 1.5-1.5H21a1.502 1.502 0 0 1 1.5 1.5V21a1.502 1.502 0 0 1-1.5 1.5Zm-3.75-5.25V21H21v-3.75h-3.75Z"></path>
<path d="M12 17.25H8.25a1.502 1.502 0 0 1-1.5-1.5v-7.5a1.502 1.502 0 0 1 1.5-1.5h7.5a1.502 1.502 0 0 1 1.5 1.5V12h-1.5V8.25h-7.5v7.5H12v1.5Z"></path>
<path d="M12 22.5H3A1.502 1.502 0 0 1 1.5 21V3A1.502 1.502 0 0 1 3 1.5h18A1.502 1.502 0 0 1 22.5 3v9H21V3H3v18h9v1.5Z"></path>
</svg>