<svg width="32" height="32" fill="currentColor" viewBox="0 0 24 24" xmlns="http://www.w3.org/2000/svg">
<path d="M15 12.75v-1.5a1.5 1.5 0 0 0-1.5-1.5h-6a1.5 1.5 0 0 0-1.5 1.5v1.5a1.5 1.5 0 0 0 1.5 1.5h6a1.5 1.5 0 0 0 1.5-1.5Zm-7.5-1.5h6v1.5h-6v-1.5Z"></path>
<path d="M17.565 18.36a1.5 1.5 0 0 0-1.815-1.064l-5.797 1.552a1.5 1.5 0 0 0-1.065 1.83l.39 1.447a1.5 1.5 0 0 0 1.425 1.125c.131-.006.262-.023.39-.052l5.797-1.553a1.5 1.5 0 0 0 1.058-1.837l-.383-1.448Zm-6.862 3.39-.383-1.454 5.79-1.546.39 1.44-5.797 1.56Z"></path>
<path d="m9.93 5.144 5.82 1.552a1.5 1.5 0 0 0 1.838-1.058L18 4.185a1.5 1.5 0 0 0-1.057-1.838L11.093.794A1.5 1.5 0 0 0 9.255 1.85l-.39 1.45A1.5 1.5 0 0 0 9.93 5.13v.015Zm.75-2.895L16.5 3.8l-.39 1.448-5.79-1.553.36-1.447Z"></path>
<path d="M12 15.75h-1.5v1.5H12v-1.5Z"></path>
<path d="M12 6.75h-1.5v1.5H12v-1.5Z"></path>
</svg>