<svg width="32" height="32" fill="currentColor" viewBox="0 0 24 24" xmlns="http://www.w3.org/2000/svg">
<path d="M18.75 15.75a.75.75 0 1 0 0-1.5.75.75 0 0 0 0 1.5Z"></path>
<path d="M14.56 22.502h-3.31v-3.31l3.775-3.776a3.75 3.75 0 1 1 3.31 3.31l-3.774 3.776Zm-1.81-1.5h1.19l3.904-3.904.405.093a2.277 2.277 0 1 0-1.687-1.687l.093.404-3.905 3.905v1.19Z"></path>
<path d="M6 6H4.5v6H6V6Z"></path>
<path d="M3 6H1.5v6H3V6Z"></path>
<path d="M15 6h-1.5v4.5H15V6Z"></path>
<path d="M10.5 12H9a1.5 1.5 0 0 1-1.5-1.5v-3A1.5 1.5 0 0 1 9 6h1.5A1.5 1.5 0 0 1 12 7.5v3a1.5 1.5 0 0 1-1.5 1.5ZM9 10.5h1.5v-3H9v3Z"></path>
<path d="M3 13.5H1.5v6H3v-6Z"></path>
<path d="M12 13.5h-1.5v3H12v-3Z"></path>
<path d="M7.5 19.5H6A1.5 1.5 0 0 1 4.5 18v-3A1.5 1.5 0 0 1 6 13.5h1.5A1.5 1.5 0 0 1 9 15v3a1.5 1.5 0 0 1-1.5 1.5ZM6 18h1.5v-3H6v3Z"></path>
<path d="M3 1.5H1.5v3H3v-3Z"></path>
<path d="M12 1.5h-1.5v3H12v-3Z"></path>
<path d="M15 1.5h-1.5v3H15v-3Z"></path>
<path d="M7.5 4.5H6A1.5 1.5 0 0 1 4.5 3V1.5H6V3h1.5V1.5H9V3a1.5 1.5 0 0 1-1.5 1.5Z"></path>
</svg>