<svg width="32" height="32" fill="currentColor" viewBox="0 0 24 24" xmlns="http://www.w3.org/2000/svg">
<path d="M22.5 9.75a8.25 8.25 0 0 0-8.25-8.25h-6A6.75 6.75 0 0 0 1.5 8.25v2.25a3.75 3.75 0 0 0 3.75 3.75h.825a3.75 3.75 0 0 0 3.675 3h1.035l3 5.25 1.297-.75-3-5.168a1.5 1.5 0 0 0-1.297-.832H9.75a2.25 2.25 0 0 1 0-4.5h.75v-1.5h-.75a3.75 3.75 0 0 0-3.675 3H5.25A2.25 2.25 0 0 1 3 10.5V9h1.5a2.25 2.25 0 0 0 2.25-2.25V6h-1.5v.75a.75.75 0 0 1-.75.75H3.06A5.25 5.25 0 0 1 8.25 3h4.5v1.5a.75.75 0 0 1-.75.75h-1.5v1.5H12a2.25 2.25 0 0 0 2.25-2.25V3a6.75 6.75 0 0 1 6.038 3.75H19.5A2.25 2.25 0 0 0 17.25 9v.75h1.5V9a.75.75 0 0 1 .75-.75h1.328c.114.492.172.995.172 1.5v.75a3.75 3.75 0 0 1-3.75 3.75H15v1.5h2.25a5.251 5.251 0 0 0 2.25-.51v.51A2.25 2.25 0 0 1 17.25 18h-.75v1.5h.75A3.75 3.75 0 0 0 21 15.75v-1.582a5.25 5.25 0 0 0 1.5-3.668v-.75Z"></path>
</svg>