<svg width="32" height="32" fill="currentColor" viewBox="0 0 24 24" xmlns="http://www.w3.org/2000/svg">
<path d="M7.5 10.5a1.5 1.5 0 1 0 0-3 1.5 1.5 0 0 0 0 3Z"></path>
<path d="M12 8.25a1.5 1.5 0 1 0 0-3 1.5 1.5 0 0 0 0 3Z"></path>
<path d="M16.5 10.5a1.5 1.5 0 1 0 0-3 1.5 1.5 0 0 0 0 3Z"></path>
<path d="M17.25 15a1.5 1.5 0 1 0 0-3 1.5 1.5 0 0 0 0 3Z"></path>
<path d="M14.25 18.75a1.5 1.5 0 1 0 0-3 1.5 1.5 0 0 0 0 3Z"></path>
<path d="M12.405 1.5A10.5 10.5 0 0 0 1.5 12a3.615 3.615 0 0 0 4.567 3.488l.84-.233A2.25 2.25 0 0 1 9.75 17.43v2.82A2.25 2.25 0 0 0 12 22.5a10.5 10.5 0 0 0 10.5-10.905A10.537 10.537 0 0 0 12.405 1.5Zm6.083 16.733A8.948 8.948 0 0 1 12 21a.75.75 0 0 1-.75-.75v-2.82a3.75 3.75 0 0 0-4.747-3.615l-.84.232A2.114 2.114 0 0 1 3 12a9 9 0 0 1 9.352-9A9.135 9.135 0 0 1 21 11.648a8.918 8.918 0 0 1-2.512 6.592v-.007Z"></path>
</svg>