<svg width="32" height="32" fill="currentColor" viewBox="0 0 24 24" xmlns="http://www.w3.org/2000/svg">
<path d="M22.5 2.558 21.442 1.5 18.75 4.192 16.058 1.5 15 2.558l2.692 2.692L15 7.942 16.058 9l2.692-2.692L21.442 9 22.5 7.942 19.808 5.25 22.5 2.558Z"></path>
<path d="M18 10.5V21h-4.5V4.5H12V21a1.502 1.502 0 0 0 1.5 1.5H18a1.502 1.502 0 0 0 1.5-1.5V10.5H18Z"></path>
<path d="M7.5 22.5H3A1.502 1.502 0 0 1 1.5 21V6A1.502 1.502 0 0 1 3 4.5h4.5A1.502 1.502 0 0 1 9 6v15a1.502 1.502 0 0 1-1.5 1.5ZM3 6v15h4.5V6H3Z"></path>
</svg>