<svg width="32" height="32" fill="currentColor" viewBox="0 0 24 24" xmlns="http://www.w3.org/2000/svg">
<path d="M21 22.5h-4.5A1.502 1.502 0 0 1 15 21V7.5A1.502 1.502 0 0 1 16.5 6H21a1.502 1.502 0 0 1 1.5 1.5V21a1.502 1.502 0 0 1-1.5 1.5Zm-4.5-15V21H21V7.5h-4.5Z"></path>
<path d="m12 6.75 4.19-4.19-1.061-1.06L12 4.629 8.871 1.5l-1.06 1.06L12 6.75Z"></path>
<path d="M7.5 22.5H3A1.502 1.502 0 0 1 1.5 21V7.5A1.502 1.502 0 0 1 3 6h4.5A1.502 1.502 0 0 1 9 7.5V21a1.502 1.502 0 0 1-1.5 1.5ZM3 7.5V21h4.5V7.5H3Z"></path>
</svg>