<svg width="32" height="32" fill="currentColor" viewBox="0 0 24 24" xmlns="http://www.w3.org/2000/svg">
<path d="M21 12.75h-7.5a1.502 1.502 0 0 0-1.5 1.5v4.5a1.502 1.502 0 0 0 1.5 1.5h3v-1.5h-3v-4.5H21v4.5h-1.901l-1.946 2.918 1.248.832 1.5-2.25H21a1.502 1.502 0 0 0 1.5-1.5v-4.5a1.502 1.502 0 0 0-1.5-1.5Z"></path>
<path d="m6.5 18.081.646-.646a.624.624 0 0 1 .674-.138l.787.315a.626.626 0 0 1 .393.58v1.431a.625.625 0 0 1-.66.626c-5.515-.343-6.63-5.015-6.836-6.804a.624.624 0 0 1 .622-.695H3.53a.625.625 0 0 1 .58.393l.315.787a.625.625 0 0 1-.138.674l-.646.646A3.395 3.395 0 0 0 6.5 18.081Z"></path>
<path d="M21 6.75h-5.25v1.5H21v-1.5Z"></path>
<path d="M22.5 3.75h-6.75v1.5h6.75v-1.5Z"></path>
<path d="M12.75 4.5 10.5 6.15V4.5A1.502 1.502 0 0 0 9 3H3a1.502 1.502 0 0 0-1.5 1.5V9A1.502 1.502 0 0 0 3 10.5h6A1.502 1.502 0 0 0 10.5 9V7.35L12.75 9V4.5ZM3 9V4.5h6V9H3Z"></path>
</svg>