<svg width="32" height="32" fill="currentColor" viewBox="0 0 24 24" xmlns="http://www.w3.org/2000/svg">
<path d="M21 4.5h-7.5V3A1.5 1.5 0 0 0 12 1.5H3A1.5 1.5 0 0 0 1.5 3v15A1.5 1.5 0 0 0 3 19.5h7.5V21a1.5 1.5 0 0 0 1.5 1.5h9a1.5 1.5 0 0 0 1.5-1.5V6A1.5 1.5 0 0 0 21 4.5ZM3 11.25h4.628l-1.936 1.943L6.75 14.25l3.75-3.75-3.75-3.75-1.058 1.058L7.628 9.75H3V3h9v15H3v-6.75ZM12 21v-1.5a1.5 1.5 0 0 0 1.5-1.5V6H21v6.75h-4.628l1.936-1.943L17.25 9.75 13.5 13.5l3.75 3.75 1.058-1.058-1.936-1.942H21V21h-9Z"></path>
</svg>