<svg width="32" height="32" fill="currentColor" viewBox="0 0 24 24" xmlns="http://www.w3.org/2000/svg">
<path d="M15.664 14.603a4.471 4.471 0 0 0 0-5.206L17.25 7.81l.97.97a.75.75 0 0 0 1.06 0l3-3a.749.749 0 0 0 0-1.061l-3-3a.75.75 0 0 0-1.06 0l-3 3a.75.75 0 0 0 0 1.06l.97.97-1.587 1.586a4.471 4.471 0 0 0-5.206 0L7.5 6.44V1.5h-6v6h4.94l1.896 1.897a4.47 4.47 0 0 0 0 5.206L6.75 16.19l-.97-.97a.749.749 0 0 0-1.06 0l-3 3a.749.749 0 0 0 0 1.061l3 3a.75.75 0 0 0 1.06 0l3-3a.75.75 0 0 0 0-1.06l-.97-.97 1.587-1.586a4.471 4.471 0 0 0 5.206 0L16.5 17.56v4.94h6v-6h-4.94l-1.896-1.897ZM18.75 3.311l1.94 1.939-1.94 1.94-1.94-1.94 1.94-1.94ZM5.25 20.689 3.31 18.75l1.94-1.94 1.94 1.94-1.94 1.94ZM6 6H3V3h3v3Zm3 6a3 3 0 1 1 6 0 3 3 0 0 1-6 0Zm9 6h3v3h-3v-3Z"></path>
</svg>