<svg width="32" height="32" fill="currentColor" viewBox="0 0 24 24" xmlns="http://www.w3.org/2000/svg">
<path d="m12 6-6 6 6 6 6-6-6-6Z"></path>
<path d="M12 22.5a1.558 1.558 0 0 1-1.105-.457l-8.938-8.938a1.564 1.564 0 0 1 0-2.21l8.938-8.938a1.564 1.564 0 0 1 2.21 0l8.938 8.938a1.564 1.564 0 0 1 0 2.21l-8.938 8.938A1.557 1.557 0 0 1 12 22.5ZM12 3a.063.063 0 0 0-.044.018l-8.938 8.938a.063.063 0 0 0 0 .088l8.938 8.938a.064.064 0 0 0 .088 0l8.938-8.938a.063.063 0 0 0 0-.088l-8.938-8.938A.063.063 0 0 0 12 2.999Z"></path>
</svg>