<svg width="32" height="32" fill="currentColor" viewBox="0 0 24 24" xmlns="http://www.w3.org/2000/svg">
<path d="M19.5 9.748a6.682 6.682 0 0 1-1.893 4.676l1.06 1.06A8.235 8.235 0 0 0 17.7 3.148l-.901 1.2a6.7 6.7 0 0 1 2.7 5.4Z"></path>
<path d="M15.75 9.749a3.751 3.751 0 0 1-.677 2.142l1.071 1.071a5.238 5.238 0 0 0-.643-7.126L14.5 6.953a3.755 3.755 0 0 1 1.25 2.796Z"></path>
<path d="M22.5 21.44 2.56 1.5 1.5 2.56l2.782 2.783A8.237 8.237 0 0 0 6.3 16.351l.9-1.2a6.726 6.726 0 0 1-1.82-8.712l1.647 1.647A5.225 5.225 0 0 0 8.5 13.663l1-1.118A3.756 3.756 0 0 1 8.25 9.75c.002-.137.012-.274.03-.41l2.97 2.97V22.5h1.5v-8.69l8.69 8.69 1.06-1.06Z"></path>
</svg>