<svg width="32" height="32" fill="currentColor" viewBox="0 0 24 24" xmlns="http://www.w3.org/2000/svg">
<path d="M12.75 9h-1.5v13.5h1.5V9Z"></path>
<path d="M8.497 13.666a5.249 5.249 0 0 1 0-7.83l1.005 1.117a3.75 3.75 0 0 0 0 5.595l-1.005 1.118Z"></path>
<path d="m15.502 13.666-1.005-1.118a3.75 3.75 0 0 0 0-5.595l1.005-1.117a5.25 5.25 0 0 1 0 7.83Z"></path>
<path d="M6.3 16.348a8.249 8.249 0 0 1 0-13.2l.9 1.2a6.75 6.75 0 0 0 0 10.8l-.9 1.2Z"></path>
<path d="m17.7 16.348-.9-1.2a6.75 6.75 0 0 0 0-10.8l.9-1.2a8.25 8.25 0 0 1 0 13.2Z"></path>
</svg>