<svg width="32" height="32" fill="currentColor" viewBox="0 0 24 24" xmlns="http://www.w3.org/2000/svg">
<path d="M22.005 12.045a.75.75 0 0 0-.831.225l-2.829 3.394-4.077-.74-2.701-6.714A2.26 2.26 0 0 0 9.46 6.75H6.415c-.408 0-.808.11-1.157.32L1.5 9.326v4.8l3.75.683V22.5h1.5v-7.42l2.674.486L10.5 18.15v4.35H12v-4.65l-.818-1.964 6.06 1.102-3.568 4.282a.75.75 0 0 0 .576 1.23h7.5a.75.75 0 0 0 .75-.75v-9a.75.75 0 0 0-.495-.705ZM3 12.875v-2.7l2.25-1.35v4.458L3 12.874Zm3.75.681V8.25h2.71a.76.76 0 0 1 .71.503l2.354 5.853-5.774-1.05ZM21 21h-5.149L21 14.821V21Z"></path>
<path d="M9.375 6a2.625 2.625 0 1 1 0-5.25 2.625 2.625 0 0 1 0 5.25Zm0-3.75a1.125 1.125 0 1 0 0 2.25 1.125 1.125 0 0 0 0-2.25Z"></path>
</svg>