<svg width="32" height="32" fill="currentColor" viewBox="0 0 24 24" xmlns="http://www.w3.org/2000/svg">
<path d="M12.75 9.75V4.5H6v12h12V9.75h-5.25ZM7.5 6h3.75v3.75H7.5V6Zm0 5.25h3.75V15H7.5v-3.75Zm9 3.75h-3.75v-3.75h3.75V15Z"></path>
<path d="M21 8.25h-6.75V1.5H21v6.75Zm-5.25-1.5h3.75V3h-3.75v3.75Z"></path>
<path d="M21 15h-1.5v1.5H21V21H3v-4.5h1.5V15H3a1.502 1.502 0 0 0-1.5 1.5V21A1.502 1.502 0 0 0 3 22.5h18a1.502 1.502 0 0 0 1.5-1.5v-4.5A1.502 1.502 0 0 0 21 15Z"></path>
<path d="M5.25 19.5a.75.75 0 1 0 0-1.5.75.75 0 0 0 0 1.5Z"></path>
</svg>