<svg width="32" height="32" fill="currentColor" viewBox="0 0 24 24" xmlns="http://www.w3.org/2000/svg">
<path d="M12 15.75a1.5 1.5 0 1 0 0-3 1.5 1.5 0 0 0 0 3Z"></path>
<path d="M17.833 13.859A6.48 6.48 0 0 0 12 9.75a6.48 6.48 0 0 0-5.833 4.109L6 14.25l.167.391A6.48 6.48 0 0 0 12 18.75a6.48 6.48 0 0 0 5.833-4.109L18 14.25l-.167-.391ZM12 17.25a3 3 0 1 1 0-5.999 3 3 0 0 1 0 5.999Z"></path>
<path d="M20.25 2.25H3.75a1.5 1.5 0 0 0-1.5 1.5v16.5a1.5 1.5 0 0 0 1.5 1.5h16.5a1.5 1.5 0 0 0 1.5-1.5V3.75a1.5 1.5 0 0 0-1.5-1.5Zm-16.5 1.5h16.5v3H3.75v-3Zm0 16.5v-12h16.5v12H3.75Z"></path>
</svg>