<svg width="32" height="32" fill="currentColor" viewBox="0 0 24 24" xmlns="http://www.w3.org/2000/svg">
<path d="M15.75 17.25a1.5 1.5 0 1 0 0-3 1.5 1.5 0 0 0 0 3Z"></path>
<path d="M5.25 6.75a1.5 1.5 0 1 0 0-3 1.5 1.5 0 0 0 0 3Z"></path>
<path d="M20.25 23.25a3 3 0 1 1 3-3 3.009 3.009 0 0 1-3 3Zm0-4.5a1.5 1.5 0 1 0 0 3 1.5 1.5 0 0 0 0-3Z"></path>
<path d="M22.5 12.001A10.531 10.531 0 0 0 12 1.501a9.782 9.782 0 0 0-5.1 1.35l.825 1.275a18.317 18.317 0 0 1 1.8-.75A18.851 18.851 0 0 0 7.5 11.251H3a8.361 8.361 0 0 1 1.05-3.525l-1.125-.975a10.381 10.381 0 0 0-1.425 5.25 10.499 10.499 0 0 0 10.5 10.5 10.024 10.024 0 0 0 3.9-.75l-.45-1.425a8.581 8.581 0 0 1-3.9.675A15.804 15.804 0 0 1 9 12.751h13.425a2.55 2.55 0 0 0 .075-.75Zm-12.9 8.7a9.765 9.765 0 0 1-3.975-2.325A9.379 9.379 0 0 1 3 12.751h4.5c.103 2.773.82 5.488 2.1 7.95Zm-.6-9.45c.06-2.924.915-5.776 2.475-8.25h1.05A16.085 16.085 0 0 1 15 11.251H9Zm7.5 0a17.459 17.459 0 0 0-2.1-7.95 9.068 9.068 0 0 1 6.525 7.95H16.5Z"></path>
</svg>