<svg width="32" height="32" fill="none" viewBox="0 0 24 24" xmlns="http://www.w3.org/2000/svg">
<path fill="blaack" d="M5.775 3.523c-.86.66-1.618 1.444-2.25 2.325l1.2.9a9.947 9.947 0 0 1 1.95-2.025l-.9-1.2Z"></path>
<path fill="blaack" d="m3.45 9.223-1.425-.45a9.383 9.383 0 0 0-.525 3.225H3a8.607 8.607 0 0 1 .45-2.775Z"></path>
<path fill="blaack" d="M2.025 15.302a10.803 10.803 0 0 0 1.5 2.925l1.2-.9a9.666 9.666 0 0 1-1.275-2.475l-1.425.45Z"></path>
<path fill="blaack" d="M5.85 20.473a10.8 10.8 0 0 0 2.925 1.5l.45-1.425a9.662 9.662 0 0 1-2.475-1.275l-.9 1.2Z"></path>
<path fill="blaack" d="m8.775 2.026.45 1.425A8.607 8.607 0 0 1 12 3V1.5a9.384 9.384 0 0 0-3.225.525Z"></path>
<path fill="blaack" d="M18.15 20.475a11.385 11.385 0 0 0 2.325-2.325l-1.2-.9a8.643 8.643 0 0 1-2.025 2.025l.9 1.2Z"></path>
<path fill="blaack" d="m20.55 14.775 1.425.45c.326-1.045.503-2.13.525-3.225H21a8.606 8.606 0 0 1-.45 2.775Z"></path>
<path fill="blaack" d="M21.9 8.698a10.803 10.803 0 0 0-1.5-2.925l-1.2.9a9.68 9.68 0 0 1 1.275 2.475l1.425-.45Z"></path>
<path fill="blaack" d="M18.075 3.453a10.803 10.803 0 0 0-2.925-1.5l-.45 1.425a9.665 9.665 0 0 1 2.475 1.275l.9-1.2Z"></path>
<path fill="blaack" d="m15.225 21.972-.45-1.425a8.606 8.606 0 0 1-2.775.45v1.5c1.09-.065 2.17-.241 3.225-.525Z"></path>
<path fill="blaack" d="M12 19.5a7.5 7.5 0 1 1 7.5-7.5 7.509 7.509 0 0 1-7.5 7.5ZM12 6a6 6 0 1 0 6 6 6.007 6.007 0 0 0-6-6Z"></path>
</svg>