<svg width="32" height="32" fill="currentColor" viewBox="0 0 24 24" xmlns="http://www.w3.org/2000/svg">
<path d="M19.875 9H14.25a3 3 0 0 1 0-6h.063a3.59 3.59 0 0 1 2.937-1.5 3.736 3.736 0 0 1 3.49 2.403 2.6 2.6 0 0 1 1.76 2.472A2.628 2.628 0 0 1 19.875 9ZM14.25 4.5a1.5 1.5 0 0 0 0 3h5.625a1.126 1.126 0 0 0 .853-1.857 1.114 1.114 0 0 0-.686-.373l-.496-.075-.122-.486a2.217 2.217 0 0 0-4.115-.534l-.223.325h-.836Z"></path>
<path d="m17.25 10.5-3.75 3.75 1.06 1.06 1.94-1.936V18H12v1.5h4.5A1.502 1.502 0 0 0 18 18v-4.626l1.94 1.938L21 14.25l-3.75-3.75Z"></path>
<path d="M9 15H1.5v1.5H9V15Z"></path>
<path d="M9 18H1.5v1.5H9V18Z"></path>
<path d="M9 21H1.5v1.5H9V21Z"></path>
</svg>