<svg width="32" height="32" fill="currentColor" viewBox="0 0 24 24" xmlns="http://www.w3.org/2000/svg">
<path d="M8.96 14.25a3.711 3.711 0 0 1-2.624-6.335l3.83-3.828a3.71 3.71 0 1 1 5.248 5.248l-.415.415-1.061-1.06.418-.418a2.212 2.212 0 0 0-.003-3.124 2.265 2.265 0 0 0-3.127 0l-3.83 3.828a2.21 2.21 0 0 0 0 3.126 2.265 2.265 0 0 0 3.127 0l1.061 1.061A3.687 3.687 0 0 1 8.96 14.25Z"></path>
<path d="M14.96 12.748a3.711 3.711 0 0 1-2.624-6.335l.415-.414 1.06 1.06-.414.415a2.21 2.21 0 0 0 0 3.126 2.265 2.265 0 0 0 3.127 0c.195-.195 3.547-3.547 3.83-3.828a2.213 2.213 0 0 0 0-3.126 2.265 2.265 0 0 0-3.128 0l-1.06-1.061a3.711 3.711 0 0 1 5.248 5.248l-3.828 3.828a3.689 3.689 0 0 1-2.625 1.087Z"></path>
<path d="M18 22.5H3A1.502 1.502 0 0 1 1.5 21V6A1.502 1.502 0 0 1 3 4.5h3V6H3v15h15v-7.5h1.5V21a1.502 1.502 0 0 1-1.5 1.5Z"></path>
</svg>