<svg width="32" height="32" fill="currentColor" viewBox="0 0 24 24" xmlns="http://www.w3.org/2000/svg">
<path d="M17.25 12c-.253 0-.503.015-.75.038V12c0-5.914-2.217-10.5-4.125-10.5S8.25 6.086 8.25 12v3.75H4.5V18A4.505 4.505 0 0 0 9 22.5h2.25a8.26 8.26 0 0 0 8.25-8.25V12h-2.25Zm-7.5 0h1.5v-1.5H9.805c.063-1.01.204-2.013.424-3H12V6h-1.35c.607-1.804 1.361-2.829 1.725-2.99.495.22 1.713 2.028 2.299 5.24H13.5v1.5h1.383c.078.748.117 1.498.117 2.25v.32a8.292 8.292 0 0 0-4.658 3.43H9.75V12ZM9 21a3.003 3.003 0 0 1-3-3v-.75h3.573a8.177 8.177 0 0 0-.573 3V21Zm9-6.75A6.758 6.758 0 0 1 11.25 21h-.75v-.75a6.758 6.758 0 0 1 6.75-6.75H18v.75Z"></path>
</svg>