<svg width="32" height="32" fill="currentColor" viewBox="0 0 24 24" xmlns="http://www.w3.org/2000/svg">
<path d="M11.625 9.75a1.125 1.125 0 1 0 0-2.25 1.125 1.125 0 0 0 0 2.25Z"></path>
<path d="M15.375 12.75a1.125 1.125 0 1 0 0-2.25 1.125 1.125 0 0 0 0 2.25Z"></path>
<path d="M12 12.75a.75.75 0 1 0 0-1.5.75.75 0 0 0 0 1.5Z"></path>
<path d="M12.375 16.5a1.125 1.125 0 1 0 0-2.25 1.125 1.125 0 0 0 0 2.25Z"></path>
<path d="M8.625 13.5a1.125 1.125 0 1 0 0-2.25 1.125 1.125 0 0 0 0 2.25Z"></path>
<path d="M21 9.75v1.5h-1.538a7.46 7.46 0 0 0-1.66-3.991l1.077-1.077 1.06 1.06L21 6.183 17.818 3l-1.06 1.06 1.06 1.061-1.077 1.077a7.46 7.46 0 0 0-3.991-1.66V3h1.5V1.5h-4.5V3h1.5v1.538a7.46 7.46 0 0 0-3.99 1.66L6.181 5.121l1.06-1.06L6.182 3 3 6.182l1.06 1.06 1.061-1.06L6.2 7.259a7.46 7.46 0 0 0-1.66 3.991H3v-1.5H1.5v4.5H3v-1.5h1.538a7.46 7.46 0 0 0 1.66 3.991l-1.077 1.077-1.06-1.06L3 17.817 6.182 21l1.06-1.06-1.06-1.061L7.259 17.8a7.46 7.46 0 0 0 3.991 1.66V21h-1.5v1.5h4.5V21h-1.5v-1.538a7.46 7.46 0 0 0 3.99-1.66l1.078 1.077-1.06 1.06L17.818 21 21 17.818l-1.06-1.06-1.061 1.06-1.078-1.077a7.46 7.46 0 0 0 1.66-3.991H21v1.5h1.5v-4.5H21ZM12 18a6 6 0 1 1 6-6 6.007 6.007 0 0 1-6 6Z"></path>
</svg>