<svg width="32" height="32" fill="currentColor" viewBox="0 0 24 24" xmlns="http://www.w3.org/2000/svg">
<path d="M16.5 9.75h-9v1.5h9v-1.5Z"></path>
<path d="M16.5 13.5h-9V15h9v-1.5Z"></path>
<path d="m22.5 4.81-1.06-1.06-2.513 2.513a9.06 9.06 0 0 0-1.19-1.19L20.25 2.56 19.19 1.5l-2.707 2.707A8.985 8.985 0 0 0 4.207 16.483L1.5 19.189l1.06 1.061 2.513-2.512c.359.432.757.83 1.19 1.19l-2.513 2.51L4.81 22.5l2.708-2.707A8.985 8.985 0 0 0 19.793 7.518L22.5 4.81ZM12 19.5a7.5 7.5 0 1 1 7.5-7.5 7.509 7.509 0 0 1-7.5 7.5Z"></path>
</svg>