<svg width="32" height="32" fill="currentColor" viewBox="0 0 24 24" xmlns="http://www.w3.org/2000/svg">
<path d="M12 16.5a3 3 0 1 0 0-5.999 3 3 0 0 0 0 5.999Zm0-4.5a1.5 1.5 0 1 1 0 3 1.5 1.5 0 0 1 0-3Z"></path>
<path d="M13.5 4.5h-3V6h3V4.5Z"></path>
<path d="M18 1.5H6A1.502 1.502 0 0 0 4.5 3v18A1.502 1.502 0 0 0 6 22.5h12a1.502 1.502 0 0 0 1.5-1.5V3A1.502 1.502 0 0 0 18 1.5ZM15 21H9v-1.5a.75.75 0 0 1 .75-.75h4.5a.75.75 0 0 1 .75.75V21Zm1.5 0v-1.5a2.25 2.25 0 0 0-2.25-2.25h-4.5A2.25 2.25 0 0 0 7.5 19.5V21H6V3h12v18h-1.5Z"></path>
</svg>