<svg width="32" height="32" fill="currentColor" viewBox="0 0 24 24" xmlns="http://www.w3.org/2000/svg">
<path d="M7.5 21h-6v1.5h6V21Z"></path>
<path d="M12.75 21.75a.75.75 0 0 1-.586-.281L9.39 18H1.5v-1.5h8.25a.75.75 0 0 1 .586.281l2.36 2.95 3.93-5.897a.75.75 0 0 1 1.224-.034l2.025 2.7H22.5V18h-3a.75.75 0 0 1-.6-.3l-1.614-2.152-3.912 5.868a.75.75 0 0 1-.591.333l-.033.001Z"></path>
<path d="M8.25 12V8.25H9a3.003 3.003 0 0 0 3-3V3H9.75a2.983 2.983 0 0 0-2.06.83A4.503 4.503 0 0 0 3.75 1.5H1.5v2.25A4.505 4.505 0 0 0 6 8.25h.75V12H1.5v1.5H12V12H8.25Zm1.5-7.5h.75v.75A1.502 1.502 0 0 1 9 6.75h-.75V6a1.502 1.502 0 0 1 1.5-1.5ZM6 6.75a3.003 3.003 0 0 1-3-3V3h.75a3.003 3.003 0 0 1 3 3v.75H6Z"></path>
</svg>