<svg width="32" height="32" fill="currentColor" viewBox="0 0 24 24" xmlns="http://www.w3.org/2000/svg">
<path d="M11.25 18h-3v1.5h3V18Z"></path>
<path d="M6.75 18h-3v1.5h3V18Z"></path>
<path d="M20.25 18h-3v1.5h3V18Z"></path>
<path d="M15.75 18h-3v1.5h3V18Z"></path>
<path d="M6.75 16.5a3.69 3.69 0 0 1 3-1.5h4.5a3.915 3.915 0 0 1 3 1.5h1.725a5.152 5.152 0 0 0-4.725-3h-4.5a5.153 5.153 0 0 0-4.725 3H6.75Z"></path>
<path d="M19.5 21H18v1.5h1.5V21Z"></path>
<path d="M6 21H4.5v1.5H6V21Z"></path>
<path d="M12 12a5.25 5.25 0 1 1 0-10.5A5.25 5.25 0 0 1 12 12Zm0-9a3.75 3.75 0 1 0 0 7.5A3.75 3.75 0 0 0 12 3Z"></path>
</svg>