<svg width="32" height="32" fill="currentColor" viewBox="0 0 24 24" xmlns="http://www.w3.org/2000/svg">
<path d="M12 13.5a1.5 1.5 0 1 0 0-3 1.5 1.5 0 0 0 0 3Z"></path>
<path d="M17.833 11.609A6.48 6.48 0 0 0 12 7.5a6.48 6.48 0 0 0-5.833 4.109L6 12l.167.391A6.48 6.48 0 0 0 12 16.5a6.48 6.48 0 0 0 5.833-4.109L18 12l-.167-.391ZM12 15a3 3 0 1 1 0-5.999A3 3 0 0 1 12 15Z"></path>
<path d="m21.378 6.102-9-5.25a.75.75 0 0 0-.756 0l-9 5.25a.75.75 0 0 0-.372.648v10.5a.75.75 0 0 0 .372.648l9 5.25a.75.75 0 0 0 .756 0l9-5.25a.75.75 0 0 0 .372-.648V6.75a.75.75 0 0 0-.372-.648ZM20.25 16.82 12 21.632l-8.25-4.813V7.181L12 2.368l8.25 4.813v9.638Z"></path>
</svg>