<svg width="32" height="32" fill="currentColor" viewBox="0 0 24 24" xmlns="http://www.w3.org/2000/svg">
<path d="M9.34 18.753a6.583 6.583 0 0 0 1.16-3.75 7.945 7.945 0 0 0-.135-1.5H16.5v-1.5H9.913a30.966 30.966 0 0 0-.192-.468A7.394 7.394 0 0 1 9 8.253a3.594 3.594 0 0 1 3.75-3.75 4.592 4.592 0 0 1 3.917 1.97l1.166-.941a6.082 6.082 0 0 0-5.083-2.53 5.084 5.084 0 0 0-5.25 5.25 8.738 8.738 0 0 0 .792 3.75H6v1.5h2.83c.118.492.175.996.17 1.5 0 1.893-1.114 3.75-2.25 3.75v1.5H18v-1.5H9.34Z"></path>
</svg>