<svg width="32" height="32" fill="currentColor" viewBox="0 0 24 24" xmlns="http://www.w3.org/2000/svg">
<path d="m14.287 10.3-.75-1.3-7.591 4.384-.748-.431a2.21 2.21 0 0 0 .5-.577 2.25 2.25 0 1 0-3.073.823l1.82 1.051-1.82 1.052a2.276 2.276 0 1 0 2.58.242l.74-.428L10.943 18l.75-1.297-4.247-2.452 6.841-3.951ZM3.025 11.444a.75.75 0 1 1 1.45-.389.75.75 0 0 1-1.45.389ZM3.75 16.5a.75.75 0 1 1 0 1.5.75.75 0 0 1-.002-1.5Z"></path>
<path d="M15.75 19.5h-3V21h3v-1.5Z"></path>
<path d="M10.5 19.5h-3V21h3v-1.5Z"></path>
<path d="M21 21h-3v-1.5h3V3H5.25v3h-1.5V3a1.502 1.502 0 0 1 1.5-1.5H21A1.502 1.502 0 0 1 22.5 3v16.5A1.502 1.502 0 0 1 21 21Z"></path>
</svg>