<svg width="32" height="32" fill="currentColor" viewBox="0 0 24 24" xmlns="http://www.w3.org/2000/svg">
<path d="M19.875 14.723 15.18 12l4.695-2.722a3.75 3.75 0 0 0-.907-6.9A3.893 3.893 0 0 0 18 2.25a3.75 3.75 0 0 0-3.248 5.648 3.75 3.75 0 0 0 1.793 1.575L13.68 11.13 3 4.95l-.75 1.305L12.18 12l-9.93 5.76.75 1.305 10.68-6.195 2.865 1.658a3.751 3.751 0 0 0-1.793 1.574 3.75 3.75 0 0 0 4.216 5.52 3.75 3.75 0 0 0 .907-6.9ZM16.05 7.147a2.25 2.25 0 0 1 1.658-3.372A2.25 2.25 0 0 1 19.95 4.89a2.25 2.25 0 0 1-.825 3.083 2.25 2.25 0 0 1-3.075-.825Zm3.9 12a2.248 2.248 0 0 1-3.075.832 2.248 2.248 0 0 1-.825-3.09 2.249 2.249 0 0 1 3.075-.825 2.25 2.25 0 0 1 .825 3.045v.038Z"></path>
</svg>