<svg width="32" height="32" fill="currentColor" viewBox="0 0 24 24" xmlns="http://www.w3.org/2000/svg">
<path d="M18.75 22.5a4.5 4.5 0 1 1 0-9 4.5 4.5 0 0 1 0 9Zm0-7.5a3 3 0 1 0 0 5.999 3 3 0 0 0 0-5.999Z"></path>
<path d="M5.25 22.5a4.5 4.5 0 1 1 0-9 4.5 4.5 0 0 1 0 9Zm0-7.5a3 3 0 1 0 0 6 3 3 0 0 0 0-6Z"></path>
<path d="M12.75 20.25h-1.5v-4.94l-4.061-4.06a1.502 1.502 0 0 1 0-2.122l3.44-3.44a1.502 1.502 0 0 1 2.12 0L16.062 9h4.189v1.5H15.44l-3.75-3.75-3.439 3.439 4.5 4.5v5.561Z"></path>
<path d="M16.125 6a2.625 2.625 0 1 1 0-5.25 2.625 2.625 0 0 1 0 5.25Zm0-3.75a1.125 1.125 0 1 0 0 2.25 1.125 1.125 0 0 0 0-2.25Z"></path>
</svg>