<svg width="32" height="32" fill="currentColor" viewBox="0 0 24 24" xmlns="http://www.w3.org/2000/svg">
<path d="M21 1.5h-6A1.502 1.502 0 0 0 13.5 3v18a1.502 1.502 0 0 0 1.5 1.5h6a1.502 1.502 0 0 0 1.5-1.5V3A1.502 1.502 0 0 0 21 1.5ZM21 3v5.25h-6V3h6Zm0 6.75v4.5h-6v-4.5h6ZM15 21v-5.25h6V21h-6Z"></path>
<path d="M9 11.25H7.5v-1.5H6v1.5H4.5v1.5H6v1.5h1.5v-1.5H9v-1.5Z"></path>
<path d="M12 4.5V3H7.5A1.502 1.502 0 0 0 6 4.5v2.31a5.242 5.242 0 0 0 0 10.38v2.31A1.502 1.502 0 0 0 7.5 21H12v-1.5H7.5v-2.31a5.242 5.242 0 0 0 0-10.38V4.5H12ZM10.5 12A3.75 3.75 0 1 1 3 12a3.75 3.75 0 0 1 7.5 0Z"></path>
</svg>