<svg width="32" height="32" fill="currentColor" viewBox="0 0 24 24" xmlns="http://www.w3.org/2000/svg">
<path d="M22.5 22.5H18V21h3V3h-3V1.5h4.5v21Z"></path>
<path d="M18.682 14.69a3.383 3.383 0 0 0-1.995-2.43 3.412 3.412 0 0 0-2.625 0 3.702 3.702 0 0 0-.48.263l-2.107-2.108a3.398 3.398 0 1 0-1.058 1.058l2.108 2.107a3.36 3.36 0 0 0 1.537 4.905 3.414 3.414 0 0 0 2.625 0 3.383 3.383 0 0 0 1.995-2.43c.09-.45.09-.914 0-1.365ZM8.625 10.498a1.875 1.875 0 1 1 0-3.75 1.875 1.875 0 0 1 0 3.75Z"></path>
<path d="M6 22.5H1.5v-21H6V3H3v18h3v1.5Z"></path>
</svg>