<svg width="32" height="32" fill="currentColor" viewBox="0 0 24 24" xmlns="http://www.w3.org/2000/svg">
<path d="M21 2.25a2.243 2.243 0 0 0-2.112 1.5h-2.494a2.986 2.986 0 0 0-5.787 0H7.394A2.994 2.994 0 1 0 3.75 7.394v3.213a2.985 2.985 0 0 0 0 5.787v2.494a2.25 2.25 0 1 0 1.5 0v-2.494a2.983 2.983 0 0 0 1.255-.678l2.523 1.261c-.015.09-.024.182-.028.273a2.259 2.259 0 1 0 .692-1.618l-2.361-1.18c.108-.306.165-.628.17-.952a2.997 2.997 0 0 0-2.25-2.893V7.394A2.996 2.996 0 0 0 7.393 5.25h3.213a2.951 2.951 0 0 0 3.586 2.161l1.359 2.378a2.284 2.284 0 1 0 1.3-.749l-1.335-2.334c.427-.39.731-.896.877-1.456h2.494a2.247 2.247 0 1 0 2.112-3ZM6 13.5a1.5 1.5 0 1 1-3 0 1.5 1.5 0 0 1 3 0ZM4.5 6a1.5 1.5 0 1 1 0-3 1.5 1.5 0 0 1 0 3ZM12 4.5a1.5 1.5 0 1 1 3 0 1.5 1.5 0 0 1-3 0Z"></path>
</svg>