<svg width="32" height="32" fill="currentColor" viewBox="0 0 24 24" xmlns="http://www.w3.org/2000/svg">
<path d="M9 13.5H6V15h3v-1.5Z"></path>
<path d="M13.5 13.5h-3V15h3v-1.5Z"></path>
<path d="M9 10.5H6V12h3v-1.5Z"></path>
<path d="M13.5 16.5h-3V18h3v-1.5Z"></path>
<path d="M18 10.5h-3V12h3v-1.5Z"></path>
<path d="M18 16.5h-3V18h3v-1.5Z"></path>
<path d="M20.25 2.25H3.75a1.502 1.502 0 0 0-1.5 1.5v16.5a1.502 1.502 0 0 0 1.5 1.5h16.5a1.502 1.502 0 0 0 1.5-1.5V3.75a1.502 1.502 0 0 0-1.5-1.5Zm0 1.5v3H3.75v-3h16.5Zm-16.5 16.5v-12h16.5v12H3.75Z"></path>
</svg>