<svg width="32" height="32" fill="currentColor" viewBox="0 0 24 24" xmlns="http://www.w3.org/2000/svg">
<path d="M10.5 12a1.5 1.5 0 1 0 0-3 1.5 1.5 0 0 0 0 3Z"></path>
<path d="M15 22.5a.748.748 0 0 1-.53-.22l-8.03-8.03A1.51 1.51 0 0 1 6 13.19V7.5A1.502 1.502 0 0 1 7.5 6h5.69a1.49 1.49 0 0 1 1.06.44l8.03 8.03a.75.75 0 0 1 0 1.06l-6.75 6.75a.75.75 0 0 1-.53.22Zm-7.5-15v5.69l7.5 7.5L20.69 15l-7.5-7.5H7.5Z"></path>
<path d="M9 22.5H3A1.502 1.502 0 0 1 1.5 21V3A1.502 1.502 0 0 1 3 1.5h18A1.502 1.502 0 0 1 22.5 3v6H21V3H3v18h6v1.5Z"></path>
</svg>