<svg width="32" height="32" fill="currentColor" viewBox="0 0 24 24" xmlns="http://www.w3.org/2000/svg">
<path d="m14.151 16.554 1.346-1.31a3.166 3.166 0 0 0 2.466 1.224c1.052 0 1.5-.396 1.5-1.035 0-.517-.31-.845-1.104-.948l-.897-.121c-1.931-.241-3-1.087-3-2.725 0-1.742 1.362-2.846 3.414-2.846a4.292 4.292 0 0 1 3.519 1.415L20.1 11.5a2.974 2.974 0 0 0-2.156-.966c-.948 0-1.362.38-1.362.932 0 .603.328.879 1.173 1.017l.914.12c1.966.277 2.914 1.156 2.914 2.657 0 1.742-1.466 2.949-3.708 2.949a4.57 4.57 0 0 1-3.725-1.656Z"></path>
<path d="M3.18 5.96h4.38c3.14 0 5.191 2.018 5.191 6.02s-2.052 6.018-5.19 6.018H3.18V5.961Zm4.38 10.02c1.69 0 2.777-1 2.777-3.052v-1.897c0-2.052-1.087-3.053-2.777-3.053H5.456v8.003H7.56Z"></path>
</svg>