<svg width="32" height="32" fill="currentColor" viewBox="0 0 24 24" xmlns="http://www.w3.org/2000/svg">
<path d="M18 2.25H6a1.5 1.5 0 0 0-1.5 1.5v16.5a1.5 1.5 0 0 0 1.5 1.5h12a1.5 1.5 0 0 0 1.5-1.5V3.75a1.5 1.5 0 0 0-1.5-1.5Zm0 1.5v4.5H6v-4.5h12ZM6 14.25v-4.5h12v4.5H6Zm0 6v-4.5h12v4.5H6Z"></path>
<path d="M8.25 6.75a.75.75 0 1 0 0-1.5.75.75 0 0 0 0 1.5Z"></path>
<path d="M8.25 12.75a.75.75 0 1 0 0-1.5.75.75 0 0 0 0 1.5Z"></path>
<path d="M8.25 18.75a.75.75 0 1 0 0-1.5.75.75 0 0 0 0 1.5Z"></path>
</svg>