<svg width="32" height="32" fill="currentColor" viewBox="0 0 24 24" xmlns="http://www.w3.org/2000/svg">
<path d="M5.25 6a.75.75 0 1 0 0-1.5.75.75 0 0 0 0 1.5Z"></path>
<path d="M5.25 12a.75.75 0 1 0 0-1.5.75.75 0 0 0 0 1.5Z"></path>
<path d="M5.25 18a.75.75 0 1 0 0-1.5.75.75 0 0 0 0 1.5Z"></path>
<path d="M9 19.5H3V15h6v-1.5H3V9h13.5V3A1.5 1.5 0 0 0 15 1.5H3A1.5 1.5 0 0 0 1.5 3v16.5A1.5 1.5 0 0 0 3 21h6v-1.5ZM3 3h12v4.5H3V3Z"></path>
<path d="M21 12.752v1.81a5.248 5.248 0 1 0-4.5 7.94v-1.5a3.75 3.75 0 1 1 3.432-5.25H18v1.5h4.5v-4.5H21Z"></path>
</svg>