<svg width="32" height="32" fill="currentColor" viewBox="0 0 24 24" xmlns="http://www.w3.org/2000/svg">
<path d="M12 13.5a1.5 1.5 0 1 0 0-3 1.5 1.5 0 0 0 0 3Z"></path>
<path d="M22.5 12.75v-1.5h-4.628l1.936-1.943L18.75 8.25 15 12l3.75 3.75 1.058-1.057-1.936-1.943H22.5Z"></path>
<path d="M11.25 17.872V22.5h1.5v-4.628l1.943 1.936 1.057-1.058L12 15l-3.75 3.75 1.057 1.058 1.943-1.936Z"></path>
<path d="M5.25 8.25 4.192 9.307l1.936 1.943H1.5v1.5h4.628l-1.936 1.943L5.25 15.75 9 12 5.25 8.25Z"></path>
<path d="M12.75 6.128V1.5h-1.5v4.628L9.307 4.192 8.25 5.25 12 9l3.75-3.75-1.057-1.058-1.943 1.936Z"></path>
</svg>