<svg width="32" height="32" fill="currentColor" viewBox="0 0 24 24" xmlns="http://www.w3.org/2000/svg">
<path d="M5.25 22.5a3.75 3.75 0 1 1 0-7.5 3.75 3.75 0 0 1 0 7.5Zm0-6a2.25 2.25 0 1 0 0 4.5 2.25 2.25 0 0 0 0-4.5Z"></path>
<path d="M18 19.5h-7.5V18H18v-5.25H6a1.502 1.502 0 0 1-1.5-1.5V6A1.502 1.502 0 0 1 6 4.5h7.5V6H6v5.25h12a1.502 1.502 0 0 1 1.5 1.5V18a1.502 1.502 0 0 1-1.5 1.5Z"></path>
<path d="M21 9h-4.5A1.502 1.502 0 0 1 15 7.5V3a1.502 1.502 0 0 1 1.5-1.5H21A1.502 1.502 0 0 1 22.5 3v4.5A1.502 1.502 0 0 1 21 9Zm-4.5-6v4.5H21V3h-4.5Z"></path>
</svg>