<svg width="32" height="32" fill="currentColor" viewBox="0 0 24 24" xmlns="http://www.w3.org/2000/svg">
<path d="M21 15h-1.5v1.5H21V21H3v-4.5h1.5V15H3a1.502 1.502 0 0 0-1.5 1.5V21A1.502 1.502 0 0 0 3 22.5h18a1.502 1.502 0 0 0 1.5-1.5v-4.5A1.502 1.502 0 0 0 21 15Z"></path>
<path d="M5.25 19.5a.75.75 0 1 0 0-1.5.75.75 0 0 0 0 1.5Z"></path>
<path d="M15.75 9.75a2.22 2.22 0 0 0-.964.226L13.061 8.25l1.725-1.726A2.22 2.22 0 0 0 17 6.371 2.25 2.25 0 1 0 13.5 4.5c.002.334.079.664.225.964L12 7.189l-1.725-1.725c.146-.3.223-.63.225-.964a2.25 2.25 0 1 0-2.25 2.25 2.22 2.22 0 0 0 .964-.226L10.94 8.25 9.214 9.976A2.22 2.22 0 0 0 7 10.129 2.25 2.25 0 1 0 10.5 12a2.226 2.226 0 0 0-.225-.964L12 9.311l1.725 1.725c-.146.3-.223.63-.225.964a2.25 2.25 0 1 0 2.25-2.25Zm0-6a.75.75 0 1 1 0 1.5.75.75 0 0 1 0-1.5ZM7.5 4.5a.75.75 0 1 1 1.5 0 .75.75 0 0 1-1.5 0Zm.75 8.25a.75.75 0 1 1 0-1.5.75.75 0 0 1 0 1.5Zm7.5 0a.75.75 0 1 1 0-1.5.75.75 0 0 1 0 1.5Z"></path>
</svg>