<svg width="32" height="32" fill="currentColor" viewBox="0 0 24 24" xmlns="http://www.w3.org/2000/svg">
<path d="M17.25 18a.75.75 0 1 0 0-1.5.75.75 0 0 0 0 1.5Z"></path>
<path d="M15 16.5H6V18h9v-1.5Z"></path>
<path d="M17.25 7.5a.75.75 0 1 0 0-1.5.75.75 0 0 0 0 1.5Z"></path>
<path d="M15 6H6v1.5h9V6Z"></path>
<path d="M19.5 10.5A1.5 1.5 0 0 0 21 9V4.5A1.5 1.5 0 0 0 19.5 3h-15A1.5 1.5 0 0 0 3 4.5V9a1.5 1.5 0 0 0 1.5 1.5H6v3H4.5A1.5 1.5 0 0 0 3 15v4.5A1.5 1.5 0 0 0 4.5 21h15a1.5 1.5 0 0 0 1.5-1.5V15a1.5 1.5 0 0 0-1.5-1.5H18v-3h1.5Zm-15-6h15V9h-15V4.5Zm15 15h-15V15h15v4.5Zm-3-6h-9v-3h9v3Z"></path>
</svg>