<svg width="32" height="32" fill="currentColor" viewBox="0 0 24 24" xmlns="http://www.w3.org/2000/svg">
<path d="M19.5 12a2.971 2.971 0 0 0-1.515.424L15.84 10.28l1.72-1.72a1.5 1.5 0 0 0 0-2.12l-4.5-4.5a1.5 1.5 0 0 0-2.122 0l-4.5 4.5a1.5 1.5 0 0 0 0 2.12l1.72 1.72-2.144 2.144a3.032 3.032 0 1 0 1.06 1.061l2.145-2.144 1.72 1.72c.092.09.197.168.31.232V16.5H9v6h6v-6h-2.25v-3.207c.113-.064.218-.142.31-.232l1.72-1.72 2.144 2.144A2.991 2.991 0 1 0 19.5 12ZM6 15a1.5 1.5 0 1 1-3 0 1.5 1.5 0 0 1 3 0Zm7.5 3v3h-3v-3h3ZM12 12 7.5 7.5 12 3l4.5 4.5L12 12Zm7.5 4.5a1.5 1.5 0 1 1 0-3 1.5 1.5 0 0 1 0 3Z"></path>
</svg>