<svg width="32" height="32" fill="currentColor" viewBox="0 0 24 24" xmlns="http://www.w3.org/2000/svg">
<path d="M3 15v1.5h3.44L1.5 21.44l1.06 1.06 4.94-4.94V21H9v-6H3Z"></path>
<path d="M18 16.5h-3V18h3v-1.5Z"></path>
<path d="M15 13.5h-3V15h3v-1.5Z"></path>
<path d="M18 10.5h-3V12h3v-1.5Z"></path>
<path d="M9 10.5H6V12h3v-1.5Z"></path>
<path d="M20.25 2.25H3.75a1.502 1.502 0 0 0-1.5 1.5V12h1.5V8.25h16.5v12H12v1.5h8.25a1.502 1.502 0 0 0 1.5-1.5V3.75a1.502 1.502 0 0 0-1.5-1.5Zm0 4.5H3.75v-3h16.5v3Z"></path>
</svg>