<svg width="32" height="32" fill="currentColor" viewBox="0 0 24 24" xmlns="http://www.w3.org/2000/svg">
<path d="M18.75 9.75V3h-1.5v1.5H15V6h2.25v3.75H15v1.5h6v-1.5h-2.25Z"></path>
<path d="M6.375 4.5a2.625 2.625 0 1 1 0 5.25 2.625 2.625 0 0 1 0-5.25Zm0-1.5a4.125 4.125 0 1 0 0 8.25 4.125 4.125 0 0 0 0-8.25Z"></path>
<path d="M17.625 15a2.625 2.625 0 1 1 0 5.25 2.625 2.625 0 0 1 0-5.25Zm0-1.5a4.125 4.125 0 1 0 0 8.25 4.125 4.125 0 0 0 0-8.25Z"></path>
<path d="M4.5 14.25v1.5h2.69L3 19.94 4.06 21l4.19-4.19v2.69h1.5v-5.25H4.5Z"></path>
</svg>