<svg width="32" height="32" fill="currentColor" viewBox="0 0 24 24" xmlns="http://www.w3.org/2000/svg">
<path d="M4.5 18a1.5 1.5 0 1 1 0 3 1.5 1.5 0 0 1 0-3Zm0-1.5a3 3 0 1 0 0 6 3 3 0 0 0 0-6Z"></path>
<path d="M12 3a1.5 1.5 0 1 1 0 3 1.5 1.5 0 0 1 0-3Zm0-1.5a3 3 0 1 0 0 6 3 3 0 0 0 0-6Z"></path>
<path d="M19.5 3a1.5 1.5 0 1 1 0 3 1.5 1.5 0 0 1 0-3Zm0-1.5a3 3 0 1 0 0 6 3 3 0 0 0 0-6Z"></path>
<path d="M13.5 18v3h-3v-3h3Zm1.5-1.5H9v6h6v-6Z"></path>
<path d="M20.25 16.605V12.75a1.5 1.5 0 0 0-1.5-1.5H5.25V7.5H7.5v-6h-6v6h2.25v3.75a1.5 1.5 0 0 0 1.5 1.5h13.5v3.855a3 3 0 1 0 1.5 0ZM3 3h3v3H3V3Zm16.5 18a1.5 1.5 0 1 1 0-3 1.5 1.5 0 0 1 0 3Z"></path>
</svg>