<svg width="32" height="32" fill="currentColor" viewBox="0 0 24 24" xmlns="http://www.w3.org/2000/svg">
<path d="M3.75 18.75v-6.879l-2.69 2.69L0 13.5 4.5 9 9 13.5l-1.06 1.06-2.69-2.689v6.879h9v1.5h-9a1.502 1.502 0 0 1-1.5-1.5Z"></path>
<path d="M18 16.5h3a1.502 1.502 0 0 1 1.5 1.5v3a1.502 1.502 0 0 1-1.5 1.5h-3a1.502 1.502 0 0 1-1.5-1.5v-3a1.502 1.502 0 0 1 1.5-1.5Zm3 4.5v-3h-3.001L18 21h3Z"></path>
<path d="M20.25 4.5v6.879l2.69-2.69L24 9.75l-4.5 4.5-4.5-4.5 1.06-1.06 2.69 2.689V4.5h-9V3h9a1.502 1.502 0 0 1 1.5 1.5Z"></path>
<path d="M6 4.5H1.5V6H6V4.5Z"></path>
<path d="M7.5 1.5h-6V3h6V1.5Z"></path>
</svg>