<svg width="32" height="32" fill="currentColor" viewBox="0 0 24 24" xmlns="http://www.w3.org/2000/svg">
<path d="M19.286 16.504H19.2a2.529 2.529 0 0 1-2.483 1.707c-2.26 0-3.519-1.707-3.519-4.725 0-3.001 1.26-4.691 3.519-4.691a2.479 2.479 0 0 1 2.483 1.69h.086V5.242h2.208v12.762h-2.208v-1.5Zm0-1.587v-2.863c0-.88-.81-1.449-1.862-1.449a1.918 1.918 0 0 0-1.914 2.121v1.553a1.902 1.902 0 0 0 1.914 2.104c1.052 0 1.862-.535 1.862-1.466Z"></path>
<path d="M4.918 17.998H2.642V5.961h5.432c2.19 0 3.553 1.449 3.553 3.725a3.317 3.317 0 0 1-2.242 3.415l2.466 4.897H9.316L7.074 13.36H4.918V18Zm2.932-6.553a1.266 1.266 0 0 0 1.414-1.363V9.29A1.254 1.254 0 0 0 7.85 7.944H4.918v3.5H7.85Z"></path>
</svg>