<svg width="32" height="32" fill="currentColor" viewBox="0 0 24 24" xmlns="http://www.w3.org/2000/svg">
<path d="M19.5 16.5a2.967 2.967 0 0 0-1.515.425l-2.86-2.86a3.725 3.725 0 0 0 0-4.13l1.91-1.91a2.271 2.271 0 1 0-1.06-1.06l-1.91 1.91a3.724 3.724 0 0 0-4.13 0l-2.86-2.86c.275-.458.422-.981.425-1.515a3 3 0 1 0-3 3 2.966 2.966 0 0 0 1.514-.425l2.86 2.86a3.724 3.724 0 0 0 0 4.13l-2.86 2.86A2.967 2.967 0 0 0 4.5 16.5a3 3 0 1 0 3 3 2.967 2.967 0 0 0-.425-1.514l2.86-2.86c.4.265.846.452 1.315.548v2.464a2.25 2.25 0 1 0 1.5 0v-2.464c.47-.096.916-.283 1.315-.549l2.86 2.86A2.975 2.975 0 0 0 16.5 19.5a3 3 0 1 0 3-3ZM12 9.75a2.25 2.25 0 1 1 0 4.5 2.25 2.25 0 0 1 0-4.5ZM3 4.5a1.5 1.5 0 1 1 3 0 1.5 1.5 0 0 1-3 0ZM4.5 21a1.5 1.5 0 1 1 0-3 1.5 1.5 0 0 1 0 3Zm15 0a1.5 1.5 0 1 1 0-3 1.5 1.5 0 0 1 0 3Z"></path>
</svg>