<svg width="32" height="32" fill="currentColor" viewBox="0 0 24 24" xmlns="http://www.w3.org/2000/svg">
<path d="M6.75 6a.75.75 0 1 0 0-1.5.75.75 0 0 0 0 1.5Z"></path>
<path d="M20.25 16.605V13.5a1.5 1.5 0 0 0-1.5-1.5h-6V9h6.75A1.5 1.5 0 0 0 21 7.5V3a1.5 1.5 0 0 0-1.5-1.5h-15A1.5 1.5 0 0 0 3 3v4.5A1.5 1.5 0 0 0 4.5 9h6.75v3h-6a1.5 1.5 0 0 0-1.5 1.5v3.105a3 3 0 1 0 1.5 0V13.5h6v3H9v6h6v-6h-2.25v-3h6v3.105a3 3 0 1 0 1.5 0ZM6 19.5a1.5 1.5 0 1 1-3 0 1.5 1.5 0 0 1 3 0Zm7.5-1.5v3h-3v-3h3Zm-9-10.5V3h15v4.5h-15Zm15 13.5a1.5 1.5 0 1 1 0-3 1.5 1.5 0 0 1 0 3Z"></path>
</svg>