<svg width="32" height="32" fill="currentColor" viewBox="0 0 24 24" xmlns="http://www.w3.org/2000/svg">
<path d="M19.012 21.66c-3.036 0-4.191-.794-4.191-2.122a1.66 1.66 0 0 1 1.604-1.725v-.19a1.48 1.48 0 0 1-1.156-1.5c0-.93.793-1.397 1.655-1.586v-.07a2.718 2.718 0 0 1-1.638-2.62c0-1.829 1.294-3.053 3.726-3.053a5.004 5.004 0 0 1 1.569.224v-.293a1.15 1.15 0 0 1 1.276-1.31h1.397v1.69H21.34v.241a2.695 2.695 0 0 1 1.397 2.5c0 1.812-1.277 3.019-3.725 3.019a5.524 5.524 0 0 1-1.38-.155.922.922 0 0 0-.638.81c0 .449.38.673 1.173.673h2.413c2.208 0 3.157.948 3.157 2.57 0 1.88-1.276 2.897-4.725 2.897Zm1.12-3.553h-3.069a1.105 1.105 0 0 0-.466.931c0 .69.517 1.104 1.897 1.104h1.104c1.431 0 2.07-.362 2.07-1.121 0-.57-.415-.914-1.535-.914Zm.5-6.122v-.294c0-.914-.568-1.38-1.62-1.38-1.053 0-1.622.466-1.622 1.38v.294c0 .896.57 1.38 1.622 1.38s1.621-.484 1.621-1.38Z"></path>
<path d="M1.676 5.96h2.569l3.087 5.882h.07l3.052-5.881h2.466v12.037h-2.156v-8.64h-.069l-.931 1.914-2.466 4.553-2.466-4.553L3.9 9.358h-.07v8.64H1.676V5.961Z"></path>
</svg>