<svg width="32" height="32" fill="currentColor" viewBox="0 0 24 24" xmlns="http://www.w3.org/2000/svg">
<path d="M16.5 19.5a1.5 1.5 0 1 0 0-3 1.5 1.5 0 0 0 0 3Z"></path>
<path d="M22.333 17.609A6.48 6.48 0 0 0 16.5 13.5a6.48 6.48 0 0 0-5.833 4.109L10.5 18l.167.391A6.48 6.48 0 0 0 16.5 22.5a6.48 6.48 0 0 0 5.833-4.109L22.5 18l-.167-.391ZM16.5 21a3 3 0 1 1 0-5.999 3 3 0 0 1 0 5.999Z"></path>
<path d="M6 6.75a.75.75 0 1 0 0-1.5.75.75 0 0 0 0 1.5Z"></path>
<path d="M6 12.75a.75.75 0 1 0 0-1.5.75.75 0 0 0 0 1.5Z"></path>
<path d="M6 18.75a.75.75 0 1 0 0-1.5.75.75 0 0 0 0 1.5Z"></path>
<path d="M3.75 15.75H9v-1.5H3.75v-4.5h12V12h1.5V3.75a1.5 1.5 0 0 0-1.5-1.5h-12a1.5 1.5 0 0 0-1.5 1.5v16.5a1.5 1.5 0 0 0 1.5 1.5H9v-1.5H3.75v-4.5Zm0-12h12v4.5h-12v-4.5Z"></path>
</svg>