<svg width="32" height="32" fill="currentColor" viewBox="0 0 24 24" xmlns="http://www.w3.org/2000/svg">
<path d="m13.371 16.554 1.345-1.31a3.162 3.162 0 0 0 2.467 1.224c1.051 0 1.5-.396 1.5-1.035 0-.517-.31-.845-1.104-.948l-.897-.121c-1.932-.241-3-1.087-3-2.725 0-1.742 1.362-2.846 3.414-2.846a4.292 4.292 0 0 1 3.518 1.415L19.321 11.5a2.973 2.973 0 0 0-2.156-.966c-.949 0-1.362.38-1.362.932 0 .603.327.879 1.172 1.017l.914.12c1.966.277 2.915 1.156 2.915 2.657 0 1.742-1.466 2.949-3.708 2.949a4.57 4.57 0 0 1-3.725-1.656Z"></path>
<path d="M3.936 17.998V5.961h7.933v2.017H6.212v2.915h5.002v2.018H6.212v3.07h5.657v2.017H3.936Z"></path>
</svg>