<svg width="32" height="32" fill="currentColor" viewBox="0 0 24 24" xmlns="http://www.w3.org/2000/svg">
<path d="m17.25 20.388-1.943-1.943-1.057 1.058 3 3 5.25-5.25-1.058-1.058-4.192 4.193Z"></path>
<path d="M8.25 6.75a.75.75 0 1 0 0-1.5.75.75 0 0 0 0 1.5Z"></path>
<path d="M8.25 12.75a.75.75 0 1 0 0-1.5.75.75 0 0 0 0 1.5Z"></path>
<path d="M8.25 18.75a.75.75 0 1 0 0-1.5.75.75 0 0 0 0 1.5Z"></path>
<path d="M18 2.25H6a1.5 1.5 0 0 0-1.5 1.5v16.5a1.5 1.5 0 0 0 1.5 1.5h6v-1.5H6v-4.5h13.5v-12a1.5 1.5 0 0 0-1.5-1.5Zm0 12H6v-4.5h12v4.5Zm0-6H6v-4.5h12v4.5Z"></path>
</svg>