<svg width="32" height="32" fill="currentColor" viewBox="0 0 24 24" xmlns="http://www.w3.org/2000/svg">
<path d="M21 7.5h-3.75v-3a1.502 1.502 0 0 0-1.5-1.5h-7.5a1.502 1.502 0 0 0-1.5 1.5v3H3A1.502 1.502 0 0 0 1.5 9v12A1.502 1.502 0 0 0 3 22.5h18a1.502 1.502 0 0 0 1.5-1.5V9A1.502 1.502 0 0 0 21 7.5ZM3 21V9h3.75v1.5h-1.5V12h1.5v1.5h-1.5V15h1.5v1.5h-1.5V18h1.5v3H3Zm12.75 0h-7.5V4.5h7.5V21ZM21 21h-3.75v-3h1.5v-1.5h-1.5V15h1.5v-1.5h-1.5V12h1.5v-1.5h-1.5V9H21v12Z"></path>
<path d="M13.5 6h-3v1.5h3V6Z"></path>
<path d="M13.5 9h-3v1.5h3V9Z"></path>
<path d="M13.5 12h-3v1.5h3V12Z"></path>
</svg>