<svg width="32" height="32" fill="currentColor" viewBox="0 0 24 24" xmlns="http://www.w3.org/2000/svg">
<path d="M21 22.5H3A1.502 1.502 0 0 1 1.5 21V3A1.502 1.502 0 0 1 3 1.5h18A1.502 1.502 0 0 1 22.5 3v18a1.502 1.502 0 0 1-1.5 1.5ZM3 3v18h18V3H3Z"></path>
<path d="M11.25 5.25h-1.5v5.25h1.5V5.25Z"></path>
<path d="M7.5 5.25H6v5.25h1.5V5.25Z"></path>
<path d="M16.5 10.5H15A1.502 1.502 0 0 1 13.5 9V6.75a1.502 1.502 0 0 1 1.5-1.5h1.5a1.502 1.502 0 0 1 1.5 1.5V9a1.502 1.502 0 0 1-1.5 1.5ZM15 6.75V9h1.5V6.75H15Z"></path>
<path d="M18 13.5h-1.5v5.25H18V13.5Z"></path>
<path d="M7.5 13.5H6v5.25h1.5V13.5Z"></path>
<path d="M12.75 18.75h-1.5a1.502 1.502 0 0 1-1.5-1.5V15a1.502 1.502 0 0 1 1.5-1.5h1.5a1.502 1.502 0 0 1 1.5 1.5v2.25a1.502 1.502 0 0 1-1.5 1.5ZM11.25 15v2.25h1.5V15h-1.5Z"></path>
</svg>