<svg width="32" height="32" fill="currentColor" viewBox="0 0 24 24" xmlns="http://www.w3.org/2000/svg">
<path d="M13.458 15.549c0-1.845 1.397-2.76 3.846-2.76h1.535v-.655c0-1-.5-1.587-1.673-1.587a2.344 2.344 0 0 0-2.052 1.139l-1.311-1.173a3.79 3.79 0 0 1 3.518-1.725c2.432 0 3.725 1.155 3.725 3.208v4.242h.897v1.76h-1.225a1.638 1.638 0 0 1-1.672-1.553h-.103c-.294 1.156-1.277 1.76-2.622 1.76-1.828 0-2.863-1.052-2.863-2.656Zm5.38-.242v-1.19h-1.413c-1.156 0-1.725.397-1.725 1.104v.293c0 .725.5 1.087 1.362 1.087.983 0 1.777-.448 1.777-1.293Z"></path>
<path d="M5.229 17.998H2.952V5.961h5.433c2.19 0 3.553 1.449 3.553 3.725a3.317 3.317 0 0 1-2.242 3.415l2.466 4.897H9.627L7.384 13.36H5.23V18Zm2.931-6.553a1.266 1.266 0 0 0 1.415-1.363V9.29A1.254 1.254 0 0 0 8.16 7.944H5.23v3.5h2.93Z"></path>
</svg>