<svg width="32" height="32" fill="currentColor" viewBox="0 0 24 24" xmlns="http://www.w3.org/2000/svg">
<path d="M16.5 19.5a1.5 1.5 0 1 0 0-3 1.5 1.5 0 0 0 0 3Z"></path>
<path d="M22.333 17.609A6.48 6.48 0 0 0 16.5 13.5a6.48 6.48 0 0 0-5.833 4.109L10.5 18l.167.391A6.48 6.48 0 0 0 16.5 22.5a6.48 6.48 0 0 0 5.833-4.109L22.5 18l-.167-.391ZM16.5 21a3 3 0 1 1 0-5.999 3 3 0 0 1 0 5.999Z"></path>
<path d="M9 12.75H5.25v1.5H9v-1.5Z"></path>
<path d="M14.25 9h-9v1.5h9V9Z"></path>
<path d="M14.25 5.25h-9v1.5h9v-1.5Z"></path>
<path d="M16.5 1.5H3A1.504 1.504 0 0 0 1.5 3v18A1.504 1.504 0 0 0 3 22.5h6V21H3V3h13.5v8.25H18V3a1.504 1.504 0 0 0-1.5-1.5Z"></path>
</svg>