<svg width="32" height="32" fill="currentColor" viewBox="0 0 24 24" xmlns="http://www.w3.org/2000/svg">
<path d="M17.235 21.66c-3.035 0-4.19-.793-4.19-2.121a1.66 1.66 0 0 1 1.603-1.725v-.19a1.479 1.479 0 0 1-1.155-1.5c0-.932.793-1.397 1.655-1.587v-.069a2.717 2.717 0 0 1-1.638-2.621c0-1.828 1.293-3.053 3.725-3.053a5.008 5.008 0 0 1 1.57.224v-.293a1.151 1.151 0 0 1 1.276-1.31h1.396v1.69h-1.914v.241a2.695 2.695 0 0 1 1.397 2.5c0 1.812-1.277 3.019-3.725 3.019a5.529 5.529 0 0 1-1.38-.155.922.922 0 0 0-.638.81c0 .449.38.673 1.173.673h2.414c2.208 0 3.156.948 3.156 2.57 0 1.88-1.276 2.897-4.725 2.897Zm1.12-3.553h-3.07a1.105 1.105 0 0 0-.465.932c0 .69.518 1.103 1.897 1.103h1.104c1.432 0 2.07-.362 2.07-1.12 0-.57-.414-.915-1.535-.915Zm.501-6.122v-.293c0-.915-.569-1.38-1.62-1.38-1.053 0-1.622.465-1.622 1.38v.293c0 .897.569 1.38 1.621 1.38 1.053 0 1.62-.484 1.62-1.38h.001Z"></path>
<path d="M3.452 17.998V5.961h5.415c2.225 0 3.57 1.5 3.57 3.725 0 2.242-1.345 3.725-3.57 3.725H5.73v4.587H3.452Zm2.277-6.553H8.66a1.265 1.265 0 0 0 1.414-1.363V9.29A1.254 1.254 0 0 0 8.66 7.944H5.729v3.5Z"></path>
</svg>