<svg width="32" height="32" fill="currentColor" viewBox="0 0 24 24" xmlns="http://www.w3.org/2000/svg">
<path d="m22.372 15 .255-1.5-3.877-.637V9.578l3.795-1.02-.383-1.448-3.622.968A6.751 6.751 0 0 0 15 3.75V1.5h-1.5v1.672a6.607 6.607 0 0 0-3 0V1.5H9v2.25a6.75 6.75 0 0 0-3.533 4.365L1.845 7.11 1.5 8.557l3.75 1.02v3.286l-3.87.637.24 1.5 3.63-.615a6.67 6.67 0 0 0 .615 2.678l-3.398 3.405 1.065 1.064 3.143-3.15a6.75 6.75 0 0 0 10.65 0l3.142 3.15 1.065-1.064-3.405-3.405c.391-.84.603-1.752.623-2.678l3.622.615ZM11.25 19.44a5.25 5.25 0 0 1-4.5-5.19v-4.5h4.5v9.69ZM6.967 8.25a5.25 5.25 0 0 1 10.065 0H6.967Zm10.283 6a5.25 5.25 0 0 1-4.5 5.19V9.75h4.5v4.5Z"></path>
</svg>