<svg width="32" height="32" fill="currentColor" viewBox="0 0 24 24" xmlns="http://www.w3.org/2000/svg">
<path d="m22.111 6.468-7.5-4.125a.75.75 0 0 0-.723 0l-7.5 4.125a.75.75 0 0 0 0 1.314l7.112 3.911v8.038l-2.277-1.252-.723 1.314 3.388 1.864a.749.749 0 0 0 .723 0l7.5-4.125a.75.75 0 0 0 .389-.657v-9.75a.75.75 0 0 0-.389-.657ZM14.25 3.856l5.943 3.269-5.943 3.269-5.944-3.27 5.944-3.268ZM21 16.431l-6 3.3v-8.038l6-3.3v8.038Z"></path>
<path d="M1.5 12h6v-1.5h-6V12Z"></path>
<path d="M3 18h6v-1.5H3V18Z"></path>
<path d="M4.5 15h6v-1.5h-6V15Z"></path>
</svg>