<svg width="32" height="32" fill="currentColor" viewBox="0 0 24 24" xmlns="http://www.w3.org/2000/svg">
<path d="M9 4.5H6v-3H4.5v3h-3V6h3v3H6V6h3V4.5Z"></path>
<path d="m22.44 12.455-2.25-5.25a.749.749 0 0 0-.69-.455h-2.25v-1.5a.75.75 0 0 0-.75-.75h-5.25V6h4.5v9.417a2.992 2.992 0 0 0-1.393 1.833H9.643a2.985 2.985 0 0 0-5.786 0H3V10.5H1.5V18a.75.75 0 0 0 .75.75h1.607a2.985 2.985 0 0 0 5.786 0h4.714a2.985 2.985 0 0 0 5.786 0h1.607a.75.75 0 0 0 .75-.75v-5.25a.747.747 0 0 0-.06-.295ZM6.75 19.5a1.5 1.5 0 1 1 0-3 1.5 1.5 0 0 1 0 3Zm10.5-11.25h1.756L20.613 12H17.25V8.25Zm0 11.25a1.5 1.5 0 1 1 0-3 1.5 1.5 0 0 1 0 3ZM21 17.25h-.857A2.996 2.996 0 0 0 17.25 15v-1.5H21v3.75Z"></path>
</svg>