<svg width="32" height="32" fill="currentColor" viewBox="0 0 24 24" xmlns="http://www.w3.org/2000/svg">
<path d="M12 12H3v1.5h9V12Z"></path>
<path d="M9 8.25H1.5v1.5H9v-1.5Z"></path>
<path d="m22.439 12.455-2.25-5.25a.749.749 0 0 0-.69-.455h-2.25v-1.5a.75.75 0 0 0-.75-.75h-12V6h11.25v9.417a2.992 2.992 0 0 0-1.393 1.833H9.643a3 3 0 1 0 0 1.5h4.713a2.985 2.985 0 0 0 5.787 0h1.607a.75.75 0 0 0 .75-.75v-5.25a.747.747 0 0 0-.061-.295ZM6.749 19.5a1.5 1.5 0 1 1 0-3 1.5 1.5 0 0 1 0 3Zm10.5-11.25h1.756L20.613 12H17.25V8.25Zm0 11.25a1.5 1.5 0 1 1 0-3 1.5 1.5 0 0 1 0 3ZM21 17.25h-.856A2.996 2.996 0 0 0 17.25 15v-1.5H21v3.75Z"></path>
</svg>