<svg width="32" height="32" fill="currentColor" viewBox="0 0 24 24" xmlns="http://www.w3.org/2000/svg">
<path d="M22.5 21h-21v1.5h21V21Z"></path>
<path d="m10.11 3.861 4.267 6.105.6.863 1.013-.27 3.39-.908c.275-.074.565-.074.84 0a1.38 1.38 0 0 1 .892 1.968 1.404 1.404 0 0 1-.862.717l-14.033 3.75a1.334 1.334 0 0 1-.75 0 1.403 1.403 0 0 1-.967-.997l-.188-.697-.562-2.108-.555-2.055 1.08-.293L6 12.261l.607.81.983-.262 2.1-.563 1.455-.39-.39-1.447-1.695-6.27 1.05-.278Zm.51-1.612a.795.795 0 0 0-.375 0l-2.318.622a.75.75 0 0 0-.51.878l1.875 7.02-2.107.563-2.048-2.708a.75.75 0 0 0-.39-.27.795.795 0 0 0-.375 0l-2.332.645a.75.75 0 0 0-.54.87l.75 2.805.562 2.1.188.705a2.903 2.903 0 0 0 3.555 2.055l14.025-3.75a2.88 2.88 0 0 0 0-5.58 3.202 3.202 0 0 0-1.62 0l-3.383.907-4.552-6.555a.75.75 0 0 0-.405-.307Z"></path>
</svg>