<svg width="32" height="32" fill="currentColor" viewBox="0 0 24 24" xmlns="http://www.w3.org/2000/svg">
<path d="M14.25 11.999v-1.5h5.378l-1.72-1.72 1.061-1.06 3.531 3.53-3.531 3.53-1.06-1.06 1.72-1.72H14.25Z"></path>
<path d="M12.75 9h-1.5V4.371l-1.72 1.72-1.06-1.06L12 1.5l3.53 3.53-1.06 1.06-1.72-1.719V9Z"></path>
<path d="M12.75 15.075v-1.576a3.003 3.003 0 0 0-3-3H4.371l1.72-1.72-1.06-1.06-3.531 3.53 3.53 3.53 1.06-1.06-1.719-1.72H9.75a1.502 1.502 0 0 1 1.5 1.5v1.576a3.75 3.75 0 1 0 1.5 0ZM12 20.999a2.25 2.25 0 1 1 0-4.5 2.25 2.25 0 0 1 0 4.5Z"></path>
</svg>