<svg width="32" height="32" fill="currentColor" viewBox="0 0 24 24" xmlns="http://www.w3.org/2000/svg">
<path d="M6 15H3.547a1.48 1.48 0 0 0-1.297-.75 1.5 1.5 0 1 0 1.297 2.25H6V15Z"></path>
<path d="M21.75 6.75a1.48 1.48 0 0 0-1.297.75H18V9h2.453a1.5 1.5 0 1 0 1.297-2.25Z"></path>
<path d="M19.06 3.748 15.75.438l-3.31 3.31L15 6.308v7.19h1.5v-7.19l2.56-2.56Zm-3.31-1.19 1.19 1.19-1.19 1.19-1.19-1.19 1.19-1.19Z"></path>
<path d="M9 17.69V10.5H7.5v7.19l-2.56 2.56 3.31 3.31 3.31-3.31L9 17.69Zm-1.94 2.56 1.19-1.19 1.19 1.19-1.19 1.19-1.19-1.19Z"></path>
<path d="M13.5 7.498H6.31l-2.56-2.56-3.31 3.31 3.31 3.31 2.56-2.56h7.19v-1.5Zm-9.75 1.94-1.19-1.19 1.19-1.19 1.19 1.19-1.19 1.19Z"></path>
<path d="M9.75 2.25A1.5 1.5 0 1 0 7.5 3.547V6H9V3.547a1.48 1.48 0 0 0 .75-1.297Z"></path>
<path d="M16.5 20.453V18H15v2.453a1.5 1.5 0 1 0 1.5 0Z"></path>
<path d="m23.56 15.748-3.31-3.31-2.56 2.56H10.5v1.5h7.19l2.56 2.56 3.31-3.31Zm-3.31-1.19 1.19 1.19-1.19 1.19-1.19-1.19 1.19-1.19Z"></path>
</svg>