<svg width="32" height="32" fill="currentColor" viewBox="0 0 24 24" xmlns="http://www.w3.org/2000/svg">
<path d="M3 15v1.5h3.44L1.5 21.44l1.06 1.06 4.94-4.94V21H9v-6H3Z"></path>
<path d="M11.25 21v-1.5a6.76 6.76 0 0 0 6.709-6H12a1.502 1.502 0 0 1-1.5-1.5V6.041a6.76 6.76 0 0 0-6 6.709H3a8.26 8.26 0 0 1 8.25-8.25.75.75 0 0 1 .75.75V12h6.75a.75.75 0 0 1 .75.75A8.26 8.26 0 0 1 11.25 21Z"></path>
<path d="M21.754 10.5h-6.758A1.498 1.498 0 0 1 13.5 9V2.25a.756.756 0 0 1 .765-.75A8.26 8.26 0 0 1 22.5 9.735a.755.755 0 0 1-.746.765ZM15 9h5.959A6.763 6.763 0 0 0 15 3.041V9Z"></path>
</svg>