<svg width="32" height="32" fill="currentColor" viewBox="0 0 24 24" xmlns="http://www.w3.org/2000/svg">
<path d="M9.75 8.25h-4.5A2.25 2.25 0 0 0 3 10.5V12h1.5v-1.5a.75.75 0 0 1 .75-.75h4.5a.75.75 0 0 1 .75.75V12H12v-1.5a2.25 2.25 0 0 0-2.25-2.25Z"></path>
<path d="M7.5 7.5a3 3 0 1 0 0-6 3 3 0 0 0 0 6Zm0-4.5a1.5 1.5 0 1 1 0 3 1.5 1.5 0 0 1 0-3Z"></path>
<path d="M22.5 3H15v1.5h7.5V3Z"></path>
<path d="M22.5 6H15v1.5h7.5V6Z"></path>
<path d="M19.5 9H15v1.5h4.5V9Z"></path>
<path d="M3.75 22.5h-1.5A1.5 1.5 0 0 1 .75 21v-4.5a1.5 1.5 0 0 1 1.5-1.5H4.5v1.5H2.25V18h1.5a1.5 1.5 0 0 1 1.5 1.5V21a1.5 1.5 0 0 1-1.5 1.5Zm-1.5-3V21h1.5v-1.5h-1.5Z"></path>
<path d="M9.75 22.5h-1.5a1.5 1.5 0 0 1-1.5-1.5v-4.5a1.5 1.5 0 0 1 1.5-1.5h1.5a1.5 1.5 0 0 1 1.5 1.5V21a1.5 1.5 0 0 1-1.5 1.5Zm-1.5-6V21h1.5v-4.5h-1.5Z"></path>
<path d="M15.75 22.5h-1.5a1.5 1.5 0 0 1-1.5-1.5v-4.5a1.5 1.5 0 0 1 1.5-1.5h1.5a1.5 1.5 0 0 1 1.5 1.5V21a1.5 1.5 0 0 1-1.5 1.5Zm-1.5-6V21h1.5v-4.5h-1.5Z"></path>
<path d="M21.75 22.5h-1.5a1.5 1.5 0 0 1-1.5-1.5v-4.5a1.5 1.5 0 0 1 1.5-1.5h1.5a1.5 1.5 0 0 1 1.5 1.5V21a1.5 1.5 0 0 1-1.5 1.5Zm-1.5-6V21h1.5v-4.5h-1.5Z"></path>
</svg>