<svg width="32" height="32" fill="currentColor" viewBox="0 0 24 24" xmlns="http://www.w3.org/2000/svg">
<path d="M15.31 10.938 9.312 4.94a1.501 1.501 0 0 0-2.124 0L1.19 10.938a1.501 1.501 0 0 0 0 2.124l2.469 2.469-1.409 1.408L3.31 18l1.41-1.409 2.468 2.469a1.5 1.5 0 0 0 2.124 0l1.692-1.692-1.062-1.062L8.25 18l-6-5.998L8.249 6l6 6-1.124 1.124 1.061 1.061 1.124-1.124a1.5 1.5 0 0 0 0-2.124Z"></path>
<path d="m22.81 10.938-2.47-2.469 1.409-1.408L20.69 6l-1.41 1.409-2.468-2.469a1.501 1.501 0 0 0-2.124 0l-1.692 1.692 1.061 1.061 1.691-1.692 6.001 6-6 5.998-5.998-5.997 1.125-1.126-1.062-1.062-1.124 1.124a1.501 1.501 0 0 0 0 2.124l5.998 5.998a1.5 1.5 0 0 0 2.124 0l5.998-5.998a1.5 1.5 0 0 0 0-2.124Z"></path>
</svg>