<svg width="32" height="32" fill="currentColor" viewBox="0 0 24 24" xmlns="http://www.w3.org/2000/svg">
<path d="M13.409 11.599a2.237 2.237 0 0 1-.659-1.591V5.87l3.44 3.44 1.06-1.061L12 3 6.75 8.25l1.06 1.06 3.44-3.439v4.136a2.236 2.236 0 0 1-.659 1.591l-1.993 1.993A3.726 3.726 0 0 0 7.5 16.243V21H9v-4.758a2.236 2.236 0 0 1 .659-1.59l1.993-1.993c.126-.133.242-.274.348-.424.106.15.222.292.348.424l1.993 1.992A2.237 2.237 0 0 1 15 16.242V21h1.5v-4.758a3.727 3.727 0 0 0-1.098-2.651l-1.993-1.992Z"></path>
</svg>