<svg width="32" height="32" fill="currentColor" viewBox="0 0 24 24" xmlns="http://www.w3.org/2000/svg">
<path d="M22.5 1.5H21v21h1.5v-21Z"></path>
<path d="M18 16.5h-3a1.502 1.502 0 0 1-1.5-1.5V9A1.502 1.502 0 0 1 15 7.5h3A1.502 1.502 0 0 1 19.5 9v6a1.502 1.502 0 0 1-1.5 1.5ZM15 9h-.001L15 15h3V9h-3Z"></path>
<path d="M10.5 1.5H9v21h1.5v-21Z"></path>
<path d="M6 19.5H3A1.502 1.502 0 0 1 1.5 18V6A1.502 1.502 0 0 1 3 4.5h3A1.502 1.502 0 0 1 7.5 6v12A1.502 1.502 0 0 1 6 19.5ZM3 6h-.001L3 18h3V6H3Z"></path>
</svg>