<svg width="32" height="32" fill="currentColor" viewBox="0 0 24 24" xmlns="http://www.w3.org/2000/svg">
<path d="M16.5 1.5V.75H15v.75a5.276 5.276 0 0 1-.06.75H9.06A5.28 5.28 0 0 1 9 1.5V.75H7.5v.75c0 2.816 1.478 4.203 3.076 5.25C8.978 7.797 7.5 9.184 7.5 12s1.478 4.203 3.076 5.25C8.978 18.297 7.5 19.684 7.5 22.5v.75H9v-.75a5.28 5.28 0 0 1 .06-.75h5.88c.038.248.058.499.06.75v.75h1.5v-.75c0-2.816-1.478-4.203-3.076-5.25C15.022 16.203 16.5 14.816 16.5 12s-1.478-4.203-3.076-5.25C15.022 5.703 16.5 4.316 16.5 1.5ZM15 12a5.276 5.276 0 0 1-.06.75H9.06a4.74 4.74 0 0 1 0-1.5h5.88c.038.248.058.499.06.75Zm-.567 8.25H9.567A6.68 6.68 0 0 1 12 18.128a6.68 6.68 0 0 1 2.433 2.122ZM12 16.372a6.68 6.68 0 0 1-2.433-2.122h4.866A6.68 6.68 0 0 1 12 16.372Zm2.433-6.622H9.567A6.68 6.68 0 0 1 12 7.628a6.68 6.68 0 0 1 2.433 2.122ZM12 5.872A6.68 6.68 0 0 1 9.567 3.75h4.866A6.68 6.68 0 0 1 12 5.872Z"></path>
</svg>