<svg width="32" height="32" fill="currentColor" viewBox="0 0 24 24" xmlns="http://www.w3.org/2000/svg">
<path d="M22.5 15H15v1.5h7.5V15Z"></path>
<path d="M19.5 18H15v1.5h4.5V18Z"></path>
<path d="M22.5 12.746v-.75a10.49 10.49 0 1 0-8.077 10.219l-.345-1.46a9.028 9.028 0 0 1-2.078.241c-.142 0-.281-.014-.422-.02a15.228 15.228 0 0 1-2.558-8.23H22.5Zm-1.53-1.5h-4.488a18.212 18.212 0 0 0-2.08-7.919 9.017 9.017 0 0 1 6.567 7.92Zm-8.548-8.23a15.228 15.228 0 0 1 2.559 8.23H9.02c.042-2.932.93-5.79 2.558-8.23.14-.006.28-.02.422-.02.143 0 .281.014.422.02ZM9.6 3.328a18.213 18.213 0 0 0-2.08 7.92H3.03A9.017 9.017 0 0 1 9.6 3.326Zm0 17.338a9.017 9.017 0 0 1-6.568-7.919H7.52a18.212 18.212 0 0 0 2.08 7.92Z"></path>
</svg>