<svg width="32" height="32" fill="currentColor" viewBox="0 0 24 24" xmlns="http://www.w3.org/2000/svg">
<path d="M22.5 17.25H18a1.502 1.502 0 0 1-1.5-1.5v-7.5a1.502 1.502 0 0 1 1.5-1.5h4.5v1.5H18v7.5h4.5v1.5Z"></path>
<path d="M13.5 17.25h-3a1.502 1.502 0 0 1-1.5-1.5v-7.5a1.502 1.502 0 0 1 1.5-1.5h3a1.501 1.501 0 0 1 1.5 1.5v7.5a1.502 1.502 0 0 1-1.5 1.5Zm-3-9v7.5h3v-7.5h-3Z"></path>
<path d="M4.5 17.25h-3V6.75h3a3.003 3.003 0 0 1 3 3v4.5a3.003 3.003 0 0 1-3 3ZM3 15.75h1.5a1.502 1.502 0 0 0 1.5-1.5v-4.5a1.502 1.502 0 0 0-1.5-1.5H3v7.5Z"></path>
</svg>