<svg width="32" height="32" fill="currentColor" viewBox="0 0 24 24" xmlns="http://www.w3.org/2000/svg">
<path d="M6.75 22.5a1.125 1.125 0 1 0 0-2.25 1.125 1.125 0 0 0 0 2.25Z"></path>
<path d="M7.5 18.75H6v-3h1.5a1.5 1.5 0 1 0 0-3H6a1.502 1.502 0 0 0-1.5 1.5v.375H3v-.375a3.003 3.003 0 0 1 3-3h1.5a3 3 0 0 1 0 6v1.5Z"></path>
<path d="m20.775 6.975-5.25-5.25A.68.68 0 0 0 15 1.5H7.5A1.504 1.504 0 0 0 6 3v6h1.5V3h6v4.5A1.504 1.504 0 0 0 15 9h4.5v12h-9v1.5h9A1.505 1.505 0 0 0 21 21V7.5a.68.68 0 0 0-.225-.525ZM15 7.5V3.3l4.2 4.2H15Z"></path>
</svg>