<svg width="32" height="32" fill="currentColor" viewBox="0 0 24 24" xmlns="http://www.w3.org/2000/svg">
<path d="M13.727 12a1.997 1.997 0 0 0-1.43.604l-.296.304-.297-.304a1.996 1.996 0 0 0-2.862 0 2.1 2.1 0 0 0 0 2.923l3.16 3.223 3.156-3.223a2.1 2.1 0 0 0 0-2.923 1.997 1.997 0 0 0-1.43-.604Z"></path>
<path d="m19.275 6.975-5.25-5.25A.68.68 0 0 0 13.5 1.5H6A1.504 1.504 0 0 0 4.5 3v18A1.504 1.504 0 0 0 6 22.5h12a1.505 1.505 0 0 0 1.5-1.5V7.5a.68.68 0 0 0-.225-.525ZM13.5 3.3l4.2 4.2h-4.2V3.3ZM18 21H6V3h6v4.5A1.505 1.505 0 0 0 13.5 9H18v12Z"></path>
</svg>