<svg width="32" height="32" fill="currentColor" viewBox="0 0 24 24" xmlns="http://www.w3.org/2000/svg">
<path d="m17.25 22.5-1.604-.76a3.767 3.767 0 0 1-2.146-3.39V13.5H21v4.85a3.766 3.766 0 0 1-2.146 3.39l-1.604.76ZM15 15v3.35a2.26 2.26 0 0 0 1.288 2.034l.962.456.962-.456a2.26 2.26 0 0 0 1.288-2.033V15H15Z"></path>
<path d="M12 21H4.5V3h6v4.5A1.504 1.504 0 0 0 12 9h4.5v2.25H18V7.5a.68.68 0 0 0-.225-.525l-5.25-5.25A.682.682 0 0 0 12 1.5H4.5A1.504 1.504 0 0 0 3 3v18a1.504 1.504 0 0 0 1.5 1.5H12V21Zm0-17.7 4.2 4.2H12V3.3Z"></path>
</svg>