<svg width="32" height="32" fill="currentColor" viewBox="0 0 24 24" xmlns="http://www.w3.org/2000/svg">
<path d="m22.5 14.25-3 2.4V15a1.502 1.502 0 0 0-1.5-1.5h-6a1.502 1.502 0 0 0-1.5 1.5v4.5A1.502 1.502 0 0 0 12 21h6a1.502 1.502 0 0 0 1.5-1.5v-1.65l3 2.4v-6ZM12 19.5V15h6l.001 4.5H12Z"></path>
<path d="M9 21H6V3h6v4.5A1.504 1.504 0 0 0 13.5 9H18v2.25h1.5V7.5a.68.68 0 0 0-.225-.525l-5.25-5.25A.682.682 0 0 0 13.5 1.5H6A1.504 1.504 0 0 0 4.5 3v18A1.504 1.504 0 0 0 6 22.5h3V21Zm4.5-17.7 4.2 4.2h-4.2V3.3Z"></path>
</svg>