<svg width="32" height="32" fill="currentColor" viewBox="0 0 24 24" xmlns="http://www.w3.org/2000/svg">
<path d="M19.5 22.5H8.25a1.502 1.502 0 0 1-1.5-1.5v-4.5h1.5V21H19.5V4.5h-6.75V3h6.75A1.502 1.502 0 0 1 21 4.5V21a1.502 1.502 0 0 1-1.5 1.5Z"></path>
<path d="M18 7.5h-5.25V9H18V7.5Z"></path>
<path d="M18 11.25h-6v1.5h6v-1.5Z"></path>
<path d="M18 15h-6.75v1.5H18V15Z"></path>
<path d="M6.75 14.25A3.754 3.754 0 0 1 3 10.5V2.25h1.5v8.25a2.25 2.25 0 0 0 4.5 0V3.75a.75.75 0 0 0-1.5 0v7.5H6v-7.5a2.25 2.25 0 1 1 4.5 0v6.75a3.754 3.754 0 0 1-3.75 3.75Z"></path>
</svg>