<svg width="32" height="32" fill="currentColor" viewBox="0 0 24 24" xmlns="http://www.w3.org/2000/svg">
<path d="M12 10.5a3 3 0 1 1 3-3 3.009 3.009 0 0 1-3 3ZM12 6a1.5 1.5 0 1 0 1.5 1.5A1.505 1.505 0 0 0 12 6Z"></path>
<path d="M18 1.5H6A1.502 1.502 0 0 0 4.5 3v18A1.502 1.502 0 0 0 6 22.5h12a1.502 1.502 0 0 0 1.5-1.5V3A1.502 1.502 0 0 0 18 1.5ZM9 18v-4.5a.708.708 0 0 1 .75-.75h4.5a.707.707 0 0 1 .75.75V18h-1.5v3h-3v-3H9Zm6 3v-1.5a1.504 1.504 0 0 0 1.5-1.5v-4.5a2.21 2.21 0 0 0-2.25-2.25h-4.5A2.21 2.21 0 0 0 7.5 13.5V18A1.504 1.504 0 0 0 9 19.5V21H6V3h12v18h-3Z"></path>
</svg>