<svg width="32" height="32" fill="currentColor" viewBox="0 0 24 24" xmlns="http://www.w3.org/2000/svg">
<path d="m21.225 15-.682 6.458L19.5 15H18l-1.043 6.458L16.275 15H15l1.02 7.5h1.71l1.02-6.28 1.02 6.28h1.71L22.5 15h-1.275Z"></path>
<path d="M3 15v1.5h3.44L1.5 21.44l1.06 1.06 4.94-4.94V21H9v-6H3Z"></path>
<path d="m19.28 6.97-5.25-5.25a.75.75 0 0 0-.53-.22H6A1.502 1.502 0 0 0 4.5 3v9H6V3h6v4.5A1.502 1.502 0 0 0 13.5 9H18v3h1.5V7.5a.75.75 0 0 0-.22-.53Zm-5.78.53V3.31l4.19 4.19H13.5Z"></path>
</svg>