<svg width="32" height="32" fill="currentColor" viewBox="0 0 24 24" xmlns="http://www.w3.org/2000/svg">
<path d="M14.56 22.502h-3.31v-3.31l3.775-3.776a3.75 3.75 0 1 1 3.31 3.31l-3.774 3.776Zm-1.81-1.5h1.19l3.904-3.904.405.093a2.277 2.277 0 1 0-1.687-1.687l.093.404-3.905 3.905v1.19Z"></path>
<path d="M18.75 15.75a.75.75 0 1 0 0-1.5.75.75 0 0 0 0 1.5Z"></path>
<path d="M15 4.5H6V6h9V4.5Z"></path>
<path d="M15 7.5H6V9h9V7.5Z"></path>
<path d="M10.5 10.5H6V12h4.5v-1.5Z"></path>
<path d="M9 18H6v1.5h3V18Z"></path>
<path d="M9 22.5H4.5A1.502 1.502 0 0 1 3 21V3a1.502 1.502 0 0 1 1.5-1.5h12A1.502 1.502 0 0 1 18 3v6.75h-1.5V3h-12v18H9v1.5Z"></path>
</svg>