<svg width="32" height="32" fill="currentColor" viewBox="0 0 24 24" xmlns="http://www.w3.org/2000/svg">
<path d="M21.75 23.25a.748.748 0 0 1-.468-.165l-3.545-2.835H15a.75.75 0 0 1-.75-.75v-3.75A.75.75 0 0 1 15 15h2.737l3.545-2.836a.75.75 0 0 1 1.218.586v9.75a.75.75 0 0 1-.75.75Zm-6-4.5H18a.75.75 0 0 1 .468.164L21 20.94v-6.63l-2.532 2.025A.75.75 0 0 1 18 16.5h-2.25v2.25Z"></path>
<path d="M12 21H6V3h6v4.5A1.504 1.504 0 0 0 13.5 9H18v2.25h1.5V7.5a.68.68 0 0 0-.225-.525l-5.25-5.25A.682.682 0 0 0 13.5 1.5H6A1.504 1.504 0 0 0 4.5 3v18A1.504 1.504 0 0 0 6 22.5h6V21Zm1.5-17.7 4.2 4.2h-4.2V3.3Z"></path>
</svg>