<svg width="32" height="32" fill="currentColor" viewBox="0 0 24 24" xmlns="http://www.w3.org/2000/svg">
<path d="M16.5 15H15v7.5h1.5V15Z"></path>
<path d="M4.5 17.25H3v5.25h1.5v-5.25Z"></path>
<path d="M12 22.5h-1.5v-3a.75.75 0 0 0-.75-.75h-1.5v3.75h-1.5v-5.25h3A2.253 2.253 0 0 1 12 19.5v3Z"></path>
<path d="M5.625 16.5A2.628 2.628 0 0 1 3 13.875V12.75H1.5v-1.5h3v2.625a1.125 1.125 0 0 0 2.25 0V11.25h3v1.5h-1.5v1.125A2.628 2.628 0 0 1 5.625 16.5Z"></path>
<path d="M20.25 7.5h-4.235a2.24 2.24 0 0 0-2.089 1.414l-1.081 2.704-2.706 3.383 1.171.937 2.775-3.47 1.234-2.996A.746.746 0 0 1 16.015 9h4.235a.75.75 0 0 1 .75.75V15h-2.25v7.5h1.5v-6H21a1.502 1.502 0 0 0 1.5-1.5V9.75a2.252 2.252 0 0 0-2.25-2.25Z"></path>
<path d="M18 6.75a3 3 0 1 1 0-6 3 3 0 0 1 0 6Zm0-4.5a1.5 1.5 0 1 0 0 3 1.5 1.5 0 0 0 0-3Z"></path>
</svg>