<svg width="32" height="32" fill="currentColor" viewBox="0 0 24 24" xmlns="http://www.w3.org/2000/svg">
<path d="m22.5 18.75-1.06-1.06-1.94 1.939V13.5H18v6.129l-1.94-1.94L15 18.75l3.75 3.75 3.75-3.75Z"></path>
<path d="M17.25 10.5h-3V12h3v-1.5Z"></path>
<path d="M19.5 7.5h-5.25V9h5.25V7.5Z"></path>
<path d="M6.75 13.5h4.5a2.25 2.25 0 0 1 2.25 2.25v1.5H12v-1.5a.75.75 0 0 0-.75-.75h-4.5a.75.75 0 0 0-.75.75v1.5H4.5v-1.5a2.25 2.25 0 0 1 2.25-2.25Z"></path>
<path d="M12 9.75a3 3 0 1 0-6 0 3 3 0 0 0 6 0Zm-1.5 0a1.5 1.5 0 1 1-3 0 1.5 1.5 0 0 1 3 0Z"></path>
<path d="M13.5 19.5H3v-15h18V12h1.5V4.5A1.5 1.5 0 0 0 21 3H3a1.5 1.5 0 0 0-1.5 1.5v15A1.5 1.5 0 0 0 3 21h10.5v-1.5Z"></path>
</svg>