<svg width="32" height="32" fill="currentColor" viewBox="0 0 24 24" xmlns="http://www.w3.org/2000/svg">
<path d="M14.355 21.001a2.566 2.566 0 0 1-1.815-4.387l3.855-3.863a1.064 1.064 0 0 0-.73-1.882 1.066 1.066 0 0 0-.77.382L9.75 16.39a2.625 2.625 0 0 1-3.638 0 2.572 2.572 0 0 1 0-3.63l6.435-6.435a1.065 1.065 0 1 0-1.5-1.5l-6.24 6.202-1.057-1.05 6.217-6.225a2.572 2.572 0 0 1 3.63 3.638L7.17 13.816a1.065 1.065 0 0 0 0 1.5 1.087 1.087 0 0 0 1.5 0l5.145-5.145a2.573 2.573 0 1 1 3.638 3.63l-3.863 3.863a1.065 1.065 0 0 0 1.5 1.5l3.33-3.323 1.08 1.08-3.33 3.33a2.533 2.533 0 0 1-1.815.75Z"></path>
</svg>