<svg width="32" height="32" fill="currentColor" viewBox="0 0 24 24" xmlns="http://www.w3.org/2000/svg">
<path d="M5.25 9A3.75 3.75 0 1 1 9 5.25H7.5A2.25 2.25 0 1 0 5.25 7.5V9Z"></path>
<path d="M18.75 9V7.5a2.25 2.25 0 1 0-2.25-2.25H15A3.75 3.75 0 1 1 18.75 9Z"></path>
<path d="M5.25 22.5a3.75 3.75 0 0 1 0-7.5v1.5a2.25 2.25 0 1 0 2.25 2.25H9a3.754 3.754 0 0 1-3.75 3.75Z"></path>
<path d="M18.75 22.5A3.754 3.754 0 0 1 15 18.75h1.5a2.25 2.25 0 1 0 2.25-2.25V15a3.75 3.75 0 0 1 0 7.5Z"></path>
<path d="M15 13.94v-3.878l4.28-4.28a.752.752 0 0 0-.237-1.234.75.75 0 0 0-.823.173l-3.375 3.375a2.98 2.98 0 0 0-5.69 0L5.78 4.721a.75.75 0 0 0-1.06 0 .75.75 0 0 0 0 1.06L9 10.063v3.879l-4.28 4.28a.749.749 0 0 0 0 1.06.75.75 0 0 0 1.06 0l3.375-3.374a2.98 2.98 0 0 0 5.69 0l3.375 3.375a.75.75 0 0 0 1.06-1.06L15 13.94Zm-1.5 1.061a1.5 1.5 0 1 1-3 0v-6a1.5 1.5 0 0 1 3 0v6Z"></path>
</svg>