<svg width="32" height="32" fill="currentColor" viewBox="0 0 24 24" xmlns="http://www.w3.org/2000/svg">
<path d="M15 22.5H9v-6h6v6ZM10.5 21h3v-3h-3v3Z"></path>
<path d="M24 8.25h-7.5v1.5h3V12h-15V9.75h3v-1.5H0v1.5h3v3.75h3.849L4.5 17.023v3.227H6v-2.773L8.651 13.5h6.698L18 17.477v2.773h1.5v-3.227L17.151 13.5H21V9.75h3v-1.5Z"></path>
<path d="M12 4.5a4.486 4.486 0 0 0-3.18 1.32l1.06 1.06a2.995 2.995 0 0 1 4.24 0l1.06-1.06A4.486 4.486 0 0 0 12 4.5Z"></path>
<path d="m6.7 3.7 1.06 1.06a5.99 5.99 0 0 1 8.48 0L17.3 3.7a7.488 7.488 0 0 0-10.6 0Z"></path>
</svg>