<svg width="32" height="32" fill="currentColor" viewBox="0 0 24 24" xmlns="http://www.w3.org/2000/svg">
<path d="M12 16.5a.75.75 0 1 0 0-1.5.75.75 0 0 0 0 1.5Z"></path>
<path d="M21 14.25v-3h-1.5v1.5h-15v-1.5H3v3h5.25v3.309l-3 1.668V22.5h1.5v-2.39l2.445-1.36h5.61l2.445 1.36v2.39h1.5v-3.273l-3-1.668V14.25H21Zm-6.75 3h-4.5v-3h4.5v3Z"></path>
<path d="M7.5 8.25H0v1.5h7.5v-1.5Z"></path>
<path d="M24 8.25h-7.5v1.5H24v-1.5Z"></path>
<path d="M12 4.5a4.486 4.486 0 0 0-3.18 1.32l1.06 1.06a2.995 2.995 0 0 1 4.24 0l1.06-1.06A4.486 4.486 0 0 0 12 4.5Z"></path>
<path d="m6.7 3.7 1.06 1.06a5.99 5.99 0 0 1 8.48 0L17.3 3.7a7.488 7.488 0 0 0-10.6 0Z"></path>
</svg>