<svg width="32" height="32" fill="currentColor" viewBox="0 0 24 24" xmlns="http://www.w3.org/2000/svg">
<path d="M14.25 19.5a3 3 0 1 1 0-5.999 3 3 0 0 1 0 5.999Zm0-4.5a1.5 1.5 0 1 0 0 3 1.5 1.5 0 0 0 0-3Z"></path>
<path d="M20.25 21.75h-12a1.5 1.5 0 0 1-1.5-1.5V13.5a1.5 1.5 0 0 1 1.5-1.5h2.46l.407-1.224a1.5 1.5 0 0 1 1.424-1.026h3.418a1.5 1.5 0 0 1 1.423 1.026L17.791 12h2.459a1.5 1.5 0 0 1 1.5 1.5v6.75a1.5 1.5 0 0 1-1.5 1.5Zm-12-1.5h12V13.5h-3.54l-.75-2.25h-3.42l-.75 2.25H8.25v6.75Z"></path>
<path d="M21.75 8.25h-1.5v1.5h1.5v-1.5Z"></path>
<path d="M21.75 5.25h-1.5v1.5h1.5v-1.5Z"></path>
<path d="M21.75 2.25h-1.5v1.5h1.5v-1.5Z"></path>
<path d="M18.75 2.25h-1.5v1.5h1.5v-1.5Z"></path>
<path d="M15.75 2.25h-1.5v1.5h1.5v-1.5Z"></path>
<path d="M12.75 2.25h-1.5v1.5h1.5v-1.5Z"></path>
<path d="M9.75 2.25h-1.5v1.5h1.5v-1.5Z"></path>
<path d="M6.75 2.25h-1.5v1.5h1.5v-1.5Z"></path>
<path d="M3.75 2.25h-1.5v1.5h1.5v-1.5Z"></path>
<path d="M3.75 5.25h-1.5v1.5h1.5v-1.5Z"></path>
<path d="M3.75 8.25h-1.5v1.5h1.5v-1.5Z"></path>
<path d="M3.75 11.25h-1.5v1.5h1.5v-1.5Z"></path>
<path d="M3.75 14.25h-1.5v1.5h1.5v-1.5Z"></path>
<path d="M3.75 17.25h-1.5v1.5h1.5v-1.5Z"></path>
<path d="M3.75 20.25h-1.5v1.5h1.5v-1.5Z"></path>
</svg>