<svg width="32" height="32" fill="currentColor" viewBox="0 0 24 24" xmlns="http://www.w3.org/2000/svg">
<path d="M20.25 13.501h2.25v-2.25a3.003 3.003 0 0 0-3-3h-.75V7.126a2.628 2.628 0 0 0-2.625-2.625c-.39.002-.775.092-1.125.263V4.06a2.557 2.557 0 0 0-4.909-1.008l-1.585 3.7H6.75A3.754 3.754 0 0 0 3 10.501v3h3a3.755 3.755 0 0 0 3.75-3.75V7.655l1.72-4.013a1.057 1.057 0 0 1 2.03.417V16.5h-2.54l-2.71 2.47-2.71-2.47H1.5V18h3.46l3.29 3 3.29-3H22.5v-1.5H15V7.126a1.125 1.125 0 1 1 2.25 0v3.375a3.003 3.003 0 0 0 3 3Zm-1.5-3.75h.75a1.502 1.502 0 0 1 1.5 1.5v.75h-.75a1.502 1.502 0 0 1-1.5-1.5v-.75Zm-10.5 0A2.253 2.253 0 0 1 6 12.001H4.5v-1.5a2.253 2.253 0 0 1 2.25-2.25h1.5v1.5Z"></path>
</svg>