<svg width="32" height="32" fill="currentColor" viewBox="0 0 24 24" xmlns="http://www.w3.org/2000/svg">
<path d="M12.75 18H10.5v1.5h2.25V18Z"></path>
<path d="M14.25 16.5h-1.5V18h1.5v-1.5Z"></path>
<path d="M14.25 13.5h-1.5V15h1.5v-1.5Z"></path>
<path d="M12 1.5A10.5 10.5 0 1 0 22.5 12 10.512 10.512 0 0 0 12 1.5Zm-.452 1.522 1.88 3.762-1.186 2.966H7.703l-1.057 3.29 2.139 2.14-.756 1.133-3.315-2.063H3.296a8.952 8.952 0 0 1 8.252-11.227ZM3.829 15.75h.457l2.95 1.837a1.493 1.493 0 0 0 2.042-.442l.755-1.134a1.503 1.503 0 0 0-.187-1.892l-1.492-1.492.443-1.377h3.445a1.492 1.492 0 0 0 1.393-.943l1.186-2.965a1.501 1.501 0 0 0-.05-1.228l-1.508-3.015a8.969 8.969 0 0 1 6.908 12.651H17.25a1.502 1.502 0 0 0-1.5 1.5v2.92a8.961 8.961 0 0 1-11.92-4.42Zm13.421 3.545V17.25h2.045a9.06 9.06 0 0 1-2.045 2.045Z"></path>
</svg>