<svg width="32" height="32" fill="currentColor" viewBox="0 0 24 24" xmlns="http://www.w3.org/2000/svg">
<path d="M22.5 12a10.524 10.524 0 1 0-5.355 9.143l.087.02.02-.084a10.498 10.498 0 0 0 5.248-9.08ZM3 12c.003-.76.103-1.516.296-2.25H6.48l3.744 3.12-1.432 1.91a1.507 1.507 0 0 0 .139 1.96l1.57 1.57v2.554A9.008 9.008 0 0 1 3 12Zm6.99 3.68 2.288-3.05L7.02 8.25H3.83a8.971 8.971 0 0 1 13.334-3.61L16.709 6h-4.27l-2.282 2.282 7.015 6.235-1.236 5.564A8.929 8.929 0 0 1 12 21v-3.31l-2.01-2.01Zm7.736 3.258.91-4.095a1.5 1.5 0 0 0-.467-1.446l-5.826-5.18.718-.717h3.648a1.499 1.499 0 0 0 1.424-1.026l.265-.795a8.984 8.984 0 0 1-.671 13.259Z"></path>
</svg>