<svg width="32" height="32" fill="currentColor" viewBox="0 0 24 24" xmlns="http://www.w3.org/2000/svg">
<path d="M12 1.5A10.5 10.5 0 1 0 22.5 12 10.512 10.512 0 0 0 12 1.5ZM3 12a8.97 8.97 0 0 1 3-6.69v1.44a1.5 1.5 0 0 0 1.5 1.5h2.536a1.5 1.5 0 0 0 1.342-.83l.336-.67H13.5v3H9.927a1.5 1.5 0 0 0-.67.158l-2.428 1.214A1.5 1.5 0 0 0 6 12.463v2.78a1.5 1.5 0 0 0 .943 1.392l2.886 1.155.509 3.05A9.01 9.01 0 0 1 3 12Zm8.884 8.994-.713-4.284L7.5 15.242v-2.778l2.427-1.214H15v-6h-4.214l-.75 1.5H7.5V4.218A8.968 8.968 0 0 1 20.475 9H16.5v3l.692 2.86-1.442 2.163v3.148A8.933 8.933 0 0 1 12 21c-.039 0-.077-.006-.116-.006Zm5.366-1.699v-1.818l1.19-1.784a1.5 1.5 0 0 0 .207-1.197L18 11.908V10.5h2.864a8.88 8.88 0 0 1-3.614 8.795Z"></path>
</svg>