<svg width="32" height="32" fill="currentColor" viewBox="0 0 24 24" xmlns="http://www.w3.org/2000/svg">
<path d="M12 1.5A10.5 10.5 0 1 0 22.5 12 10.512 10.512 0 0 0 12 1.5Zm3.75 2.33c.794.365 1.53.845 2.187 1.424l-.31.746H15.75V3.83Zm-5.716 16.947A8.983 8.983 0 0 1 6.087 5.232L7.099 6.75h2.506l-1.125 3H5.46l-1.037 3.11 1.926 2.89h3.75l1.073 1.61-1.138 3.417ZM12 21c-.152 0-.301-.015-.452-.023l1.048-3.142a1.49 1.49 0 0 0-.175-1.306l-1.074-1.61a1.497 1.497 0 0 0-1.248-.669H7.15l-1.074-1.61.464-1.39h1.71v1.5h1.5v-2.114l2.202-5.873-1.404-.526-.38 1.013H7.9l-.605-.908a8.846 8.846 0 0 1 6.954-1.046V6a1.502 1.502 0 0 0 1.5 1.5h1.94a1.49 1.49 0 0 0 1.06-.44l.105-.105.212-.51A8.987 8.987 0 0 1 20.475 9h-3.526a1.495 1.495 0 0 0-1.479 1.249l-.447 2.58a1.492 1.492 0 0 0 .743 1.565l1.623 1.098 1.094 2.735A8.968 8.968 0 0 1 12 21Zm6.61-6.492-2.035-1.376-.075-.045.449-2.587h3.915a8.807 8.807 0 0 1-1.308 6.371l-.945-2.363Z"></path>
</svg>