<svg width="32" height="32" fill="currentColor" viewBox="0 0 24 24" xmlns="http://www.w3.org/2000/svg">
<path d="M20.25 16.5a2.235 2.235 0 0 0-1.528.608l-3.003-1.802c.041-.202.041-.41 0-.612l3.003-1.802A2.243 2.243 0 1 0 18 11.25c.003.103.014.205.031.307l-3.003 1.802a2.25 2.25 0 1 0 0 3.282l3.003 1.802a2.209 2.209 0 0 0-.031.307 2.25 2.25 0 1 0 2.25-2.25Zm0-6a.75.75 0 1 1 0 1.5.75.75 0 0 1 0-1.5Zm-6.75 5.25a.75.75 0 1 1 0-1.5.75.75 0 0 1 0 1.5Zm6.75 3.75a.75.75 0 1 1 0-1.5.75.75 0 0 1 0 1.5Z"></path>
<path d="M5.25 6.75a.75.75 0 1 0 0-1.5.75.75 0 0 0 0 1.5Z"></path>
<path d="M5.25 12.75a.75.75 0 1 0 0-1.5.75.75 0 0 0 0 1.5Z"></path>
<path d="M5.25 18.75a.75.75 0 1 0 0-1.5.75.75 0 0 0 0 1.5Z"></path>
<path d="M16.5 9.75v-6a1.502 1.502 0 0 0-1.5-1.5H3a1.502 1.502 0 0 0-1.5 1.5v16.5a1.502 1.502 0 0 0 1.5 1.5h12v-1.5H3v-4.5h6v-1.5H3v-4.5h13.5ZM3 3.75h12v4.5H3v-4.5Z"></path>
</svg>