<svg width="32" height="32" fill="currentColor" viewBox="0 0 24 24" xmlns="http://www.w3.org/2000/svg">
<path d="M19.5 4.5h-3v3h3v-3Z"></path>
<path d="M5.25 6a.75.75 0 1 0 0-1.5.75.75 0 0 0 0 1.5Z"></path>
<path d="M18.75 19.5a.75.75 0 1 0 0-1.5.75.75 0 0 0 0 1.5Z"></path>
<path d="M18.75 16.5a.75.75 0 1 0 0-1.5.75.75 0 0 0 0 1.5Z"></path>
<path d="M18.75 13.5a.75.75 0 1 0 0-1.5.75.75 0 0 0 0 1.5Z"></path>
<path d="M16.5 12.75v-1.5H15v-.75A1.502 1.502 0 0 0 13.5 9h-.75V7.5h-1.5V9h-1.5V7.5h-1.5V9H7.5A1.502 1.502 0 0 0 6 10.5v.75H4.5v1.5H6v1.5H4.5v1.5H6v.75A1.502 1.502 0 0 0 7.5 18h.75v1.5h1.5V18h1.5v1.5h1.5V18h.75a1.502 1.502 0 0 0 1.5-1.5v-.75h1.5v-1.5H15v-1.5h1.5Zm-3 3.75h-6v-6h6v6Z"></path>
<path d="M21 22.5H3A1.502 1.502 0 0 1 1.5 21V3A1.502 1.502 0 0 1 3 1.5h18A1.502 1.502 0 0 1 22.5 3v18a1.502 1.502 0 0 1-1.5 1.5ZM3 3v18h18V3H3Z"></path>
</svg>