<svg width="32" height="32" fill="currentColor" viewBox="0 0 24 24" xmlns="http://www.w3.org/2000/svg">
<path d="M8.862 3.572 8.35 2.164a10.482 10.482 0 0 0-3.136 1.83l.964 1.15a8.98 8.98 0 0 1 2.685-1.572Z"></path>
<path d="m4.193 7.5-1.298-.75a10.605 10.605 0 0 0-1.229 3.44l1.476.26A9.114 9.114 0 0 1 4.193 7.5Z"></path>
<path d="M12 19.5a7.5 7.5 0 0 0 0-15v15Z"></path>
<path d="M22.5 12A10.5 10.5 0 0 0 12 1.5V3a8.995 8.995 0 0 1 3.037 17.463c-.126.046-.25.098-.378.137-.189.058-.383.102-.576.148-.095.023-.188.052-.283.072a9.024 9.024 0 0 1-.665.1c-.075.01-.149.026-.224.034a9 9 0 0 1-8.849-4.713 7.059 7.059 0 0 1-.264-.544 9.84 9.84 0 0 1-.655-2.197l-1.476.31c.086.48.206.952.358 1.415l-.019.006A10.472 10.472 0 0 0 12 22.5c.357 0 .71-.018 1.062-.053.1-.01.199-.032.3-.046.246-.031.492-.062.735-.111.135-.028.265-.069.398-.1.202-.05.404-.095.602-.156.185-.057.363-.13.543-.196.135-.05.272-.09.406-.146v-.002A10.5 10.5 0 0 0 22.5 12Z"></path>
</svg>