<svg width="32" height="32" fill="currentColor" viewBox="0 0 24 24" xmlns="http://www.w3.org/2000/svg">
<path d="M6.75 8.25h-1.5v7.5h1.5v-7.5Z"></path>
<path d="M9.75 8.25h-1.5v7.5h1.5v-7.5Z"></path>
<path d="M12.75 8.25h-1.5v7.5h1.5v-7.5Z"></path>
<path d="M15.75 8.25h-1.5v7.5h1.5v-7.5Z"></path>
<path d="M18.75 8.25h-1.5v7.5h1.5v-7.5Z"></path>
<path d="M21 19.5H3A1.502 1.502 0 0 1 1.5 18V6A1.502 1.502 0 0 1 3 4.5h18A1.502 1.502 0 0 1 22.5 6v12a1.502 1.502 0 0 1-1.5 1.5ZM3 6v12h18V6H3Z"></path>
</svg>