<svg width="32" height="32" fill="currentColor" viewBox="0 0 24 24" xmlns="http://www.w3.org/2000/svg">
<path d="M17.25 15.75H6.75v1.5h10.5v-1.5Z"></path>
<path d="M8.25 10.5a1.5 1.5 0 1 0 1.5 1.5 1.485 1.485 0 0 0-1.5-1.5Z"></path>
<path d="M15.75 10.5a1.5 1.5 0 1 0 1.5 1.5 1.486 1.486 0 0 0-1.5-1.5Z"></path>
<path d="M21 6h-7.19l1.555-1.554c.125.034.255.052.385.054a1.5 1.5 0 1 0-1.5-1.5c.002.13.02.26.054.385L11.69 6H3a1.502 1.502 0 0 0-1.5 1.5v12A1.502 1.502 0 0 0 3 21h18a1.502 1.502 0 0 0 1.5-1.5v-12A1.502 1.502 0 0 0 21 6ZM3 19.5v-12h18v12H3Z"></path>
</svg>