<svg width="32" height="32" fill="currentColor" viewBox="0 0 24 24" xmlns="http://www.w3.org/2000/svg">
<path d="M21 22.5h-4.5v-3A1.502 1.502 0 0 1 18 18h1.5v-1.5h-3V15h3a1.502 1.502 0 0 1 1.5 1.5V18a1.502 1.502 0 0 1-1.5 1.5H18V21h3v1.5Z"></path>
<path d="M21 12h1.5A10.5 10.5 0 0 0 12 1.5V3a9 9 0 0 1 9 9Z"></path>
<path d="M19.5 12A7.5 7.5 0 0 0 12 4.5V12h7.5Z"></path>
<path d="M12 21a8.97 8.97 0 0 1-7.938-4.759 7.059 7.059 0 0 1-.264-.544 9.84 9.84 0 0 1-.655-2.197l-1.476.31c.086.48.206.952.358 1.415l-.019.006A10.47 10.47 0 0 0 12 22.5V21Z"></path>
<path d="m4.193 7.5-1.298-.75a10.605 10.605 0 0 0-1.229 3.44l1.476.26A9.114 9.114 0 0 1 4.193 7.5Z"></path>
<path d="M8.862 3.572 8.35 2.164a10.482 10.482 0 0 0-3.136 1.83l.964 1.15a8.98 8.98 0 0 1 2.685-1.572Z"></path>
</svg>