<svg width="32" height="32" fill="currentColor" viewBox="0 0 24 24" xmlns="http://www.w3.org/2000/svg">
<path d="M19.5 4.5H3v2.378l5.557 5.565.443.434V19.5h3V18h1.5v1.5A1.5 1.5 0 0 1 12 21H9a1.5 1.5 0 0 1-1.5-1.5v-6L1.942 7.942A1.5 1.5 0 0 1 1.5 6.878V4.5A1.5 1.5 0 0 1 3 3h16.5v1.5Z"></path>
<path d="m22.282 8.464-2.25-2.25a.75.75 0 0 0-1.064 0L12 13.189v3.308h3.307l6.975-6.968a.75.75 0 0 0 0-1.065Zm-7.59 6.532H13.5v-1.192l3.75-3.75 1.192 1.192-3.75 3.75ZM19.5 10.19l-1.192-1.192L19.5 7.804l1.192 1.193-1.192 1.192Z"></path>
</svg>