<svg width="32" height="32" fill="currentColor" viewBox="0 0 24 24" xmlns="http://www.w3.org/2000/svg">
<path d="M17.719 16.944a4.594 4.594 0 0 1-3.375-1.425l-2.325-2.4-2.325 2.4a4.843 4.843 0 0 1-6.825 0 5.27 5.27 0 0 1-1.35-3.525 4.991 4.991 0 0 1 1.425-3.525 4.753 4.753 0 0 1 6.75 0l2.325 2.4 2.325-2.4a4.753 4.753 0 0 1 6.75 0 5.121 5.121 0 0 1 0 7.05 4.906 4.906 0 0 1-3.375 1.425Zm-4.65-4.95 2.325 2.475a3.304 3.304 0 0 0 4.65 0 3.68 3.68 0 0 0 0-4.95 3.305 3.305 0 0 0-4.65 0l-2.325 2.475Zm-6.75-3.45a3.119 3.119 0 0 0-2.325.975 3.629 3.629 0 0 0 0 4.95 3.304 3.304 0 0 0 4.65 0l2.325-2.475-2.325-2.475a3.578 3.578 0 0 0-2.325-.975Z"></path>
</svg>