<svg width="32" height="32" fill="currentColor" viewBox="0 0 24 24" xmlns="http://www.w3.org/2000/svg">
<path d="M19.5 22.5H18v-2.25a3.755 3.755 0 0 0-3.75-3.75h-4.5A3.755 3.755 0 0 0 6 20.25v2.25H4.5v-2.25A5.256 5.256 0 0 1 9.75 15h4.5a5.256 5.256 0 0 1 5.25 5.25v2.25Z"></path>
<path d="M3.75 4.5a.75.75 0 0 0-.75.75V12h1.5V5.25a.75.75 0 0 0-.75-.75Z"></path>
<path d="M3 1.5V3h3.75v5.25a5.25 5.25 0 0 0 10.5 0V3H21V1.5H3ZM8.25 3h7.5v2.25h-7.5V3ZM12 12a3.75 3.75 0 0 1-3.75-3.75v-1.5h7.5v1.5A3.75 3.75 0 0 1 12 12Z"></path>
</svg>