<svg width="32" height="32" fill="currentColor" viewBox="0 0 24 24" xmlns="http://www.w3.org/2000/svg">
<path d="M21.75 10.5H21v-3h-1.5v3H18v-3h-1.5v3h-.75a.75.75 0 0 0-.75.75v3a3.756 3.756 0 0 0 3 3.674v2.326a.751.751 0 0 1-.75.75H3.75a.75.75 0 1 1 0-1.5H7.5a2.25 2.25 0 0 0 0-4.5H3.75a.75.75 0 1 1 0-1.5H7.5a2.253 2.253 0 0 0 2.25-2.25v-3h.75a3.003 3.003 0 0 0 3-3V3h-2.25a2.984 2.984 0 0 0-2.06.83A4.503 4.503 0 0 0 5.25 1.5H3v2.25a4.505 4.505 0 0 0 4.5 4.5h.75v3a.75.75 0 0 1-.75.75H3.75a2.25 2.25 0 0 0 0 4.5H7.5a.75.75 0 1 1 0 1.5H3.75a2.25 2.25 0 0 0 0 4.5h13.5a2.253 2.253 0 0 0 2.25-2.25v-2.326a3.756 3.756 0 0 0 3-3.674v-3a.75.75 0 0 0-.75-.75ZM9.75 6a1.501 1.501 0 0 1 1.5-1.5H12v.75a1.502 1.502 0 0 1-1.5 1.5h-.75V6Zm-2.25.75a3.003 3.003 0 0 1-3-3V3h.75a3.003 3.003 0 0 1 3 3v.75H7.5Zm13.5 7.5a2.25 2.25 0 0 1-4.5 0V12H21v2.25Z"></path>
</svg>