<svg width="32" height="32" fill="currentColor" viewBox="0 0 24 24" xmlns="http://www.w3.org/2000/svg">
<path d="M7.5 21h-6v1.5h6V21Z"></path>
<path d="M7.5 18h-6v1.5h6V18Z"></path>
<path d="M15 21H9v1.5h6V21Z"></path>
<path d="M15 18H9v1.5h6V18Z"></path>
<path d="M7.5 15h-6v1.5h6V15Z"></path>
<path d="M15 15H9v1.5h6V15Z"></path>
<path d="M7.5 12h-6v1.5h6V12Z"></path>
<path d="M15 12H9v1.5h6V12Z"></path>
<path d="M15 9H9v1.5h6V9Z"></path>
<path d="M15 6H9v1.5h6V6Z"></path>
<path d="M15 3H9v1.5h6V3Z"></path>
<path d="M22.5 21h-6v1.5h6V21Z"></path>
<path d="M22.5 18h-6v1.5h6V18Z"></path>
</svg>