<svg width="32" height="32" fill="currentColor" viewBox="0 0 24 24" xmlns="http://www.w3.org/2000/svg">
<path d="m22.81 12.385-5.944-5.946a1.5 1.5 0 0 0-2.122 0L4.215 16.968a1.502 1.502 0 0 0 0 2.122l3.41 3.41h7.192l7.994-7.994a1.5 1.5 0 0 0 0-2.121ZM14.197 21h-5.95l-2.97-2.972 4.734-4.733 5.946 5.945-1.76 1.76Zm2.82-2.82-5.945-5.946L15.805 7.5l5.945 5.945-4.734 4.735Z"></path>
<path d="M8.25 9H6V1.5h2.25a2.253 2.253 0 0 1 2.25 2.25v3A2.253 2.253 0 0 1 8.25 9ZM7.5 7.5h.75A.75.75 0 0 0 9 6.75v-3A.75.75 0 0 0 8.25 3H7.5v4.5Z"></path>
<path d="M3 1.5H0V3h3v1.5H.75V6H3v1.5H0V9h3a1.502 1.502 0 0 0 1.5-1.5V3A1.502 1.502 0 0 0 3 1.5Z"></path>
</svg>