<svg width="32" height="32" fill="currentColor" viewBox="0 0 24 24" xmlns="http://www.w3.org/2000/svg">
<path d="M13.5 23.25H15v-1.5a.75.75 0 0 1 .75-.75h4.5a.75.75 0 0 1 .75.75v1.5h1.5v-1.5a2.253 2.253 0 0 0-2.25-2.25h-4.5a2.253 2.253 0 0 0-2.25 2.25v1.5Z"></path>
<path d="M18 18.75a3 3 0 1 1 0-5.999 3 3 0 0 1 0 5.999Zm0-4.5a1.5 1.5 0 1 0 0 3 1.5 1.5 0 0 0 0-3Z"></path>
<path d="M1.5 23.25H3v-1.5a.75.75 0 0 1 .75-.75h4.5a.75.75 0 0 1 .75.75v1.5h1.5v-1.5a2.253 2.253 0 0 0-2.25-2.25h-4.5a2.253 2.253 0 0 0-2.25 2.25v1.5Z"></path>
<path d="M6 18.75a3 3 0 1 1 0-6 3 3 0 0 1 0 6Zm0-4.5a1.5 1.5 0 1 0 0 3 1.5 1.5 0 0 0 0-3Z"></path>
<path d="M13.5 12H15v-1.5a.75.75 0 0 1 .75-.75h4.5a.75.75 0 0 1 .75.75V12h1.5v-1.5a2.253 2.253 0 0 0-2.25-2.25h-4.5a2.253 2.253 0 0 0-2.25 2.25V12Z"></path>
<path d="M18 7.5a3 3 0 1 1 0-6 3 3 0 0 1 0 6ZM18 3a1.5 1.5 0 1 0 0 3 1.5 1.5 0 0 0 0-3Z"></path>
<path d="M1.5 12H3v-1.5a.751.751 0 0 1 .75-.75h4.5a.751.751 0 0 1 .75.75V12h1.5v-1.5a2.253 2.253 0 0 0-2.25-2.25h-4.5A2.253 2.253 0 0 0 1.5 10.5V12Z"></path>
<path d="M6 7.5a3 3 0 1 1 0-6 3 3 0 0 1 0 6ZM6 3a1.5 1.5 0 1 0 0 3 1.5 1.5 0 0 0 0-3Z"></path>
</svg>