<svg width="32" height="32" fill="currentColor" viewBox="0 0 24 24" xmlns="http://www.w3.org/2000/svg">
<path d="M18.75 17.25v2.25H5.25v-6.877l2.692 2.684L9 14.25l-4.5-4.5-4.5 4.5 1.058 1.057 2.692-2.684V19.5a1.5 1.5 0 0 0 1.5 1.5h13.5a1.5 1.5 0 0 0 1.5-1.5v-2.25h-1.5Z"></path>
<path d="M20.25 5.25v6.877l2.692-2.684L24 10.5 19.5 15 15 10.5l1.058-1.057 2.692 2.684V5.25h-9v-1.5h9a1.5 1.5 0 0 1 1.5 1.5Z"></path>
<path d="M6 7.5H3A1.5 1.5 0 0 1 1.5 6V3A1.5 1.5 0 0 1 3 1.5h3A1.5 1.5 0 0 1 7.5 3v3A1.5 1.5 0 0 1 6 7.5ZM3 3v3h3V3H3Z"></path>
</svg>