<svg width="32" height="32" fill="currentColor" viewBox="0 0 24 24" xmlns="http://www.w3.org/2000/svg">
<path d="M9 7.5h10.5A1.502 1.502 0 0 0 21 6V3a1.502 1.502 0 0 0-1.5-1.5H9A1.502 1.502 0 0 0 7.5 3v.75h-3V1.5H3v17.25a1.502 1.502 0 0 0 1.5 1.5h3V21A1.502 1.502 0 0 0 9 22.5h10.5A1.502 1.502 0 0 0 21 21v-3a1.502 1.502 0 0 0-1.5-1.5H9A1.502 1.502 0 0 0 7.5 18v.75h-3v-6h3v.75A1.502 1.502 0 0 0 9 15h10.5a1.502 1.502 0 0 0 1.5-1.5v-3A1.502 1.502 0 0 0 19.5 9H9a1.502 1.502 0 0 0-1.5 1.5v.75h-3v-6h3V6A1.502 1.502 0 0 0 9 7.5ZM9 3h10.5v3H9V3Zm0 15h10.5v3H9v-3Zm0-7.5h10.5v3H9v-3Z"></path>
</svg>