<svg width="32" height="32" fill="currentColor" viewBox="0 0 24 24" xmlns="http://www.w3.org/2000/svg">
<path d="M3.75 20.25H1.5v2.25h2.25v-2.25Z"></path>
<path d="m22.282 5.468-3.75-3.75a.75.75 0 0 0-1.057 0L15 4.193l-.968-.975-1.065 1.065.975.968-7.725 7.717a.75.75 0 0 0-.217.533v1.192l-2.033 2.025a.75.75 0 0 0 0 1.058l2.25 2.25a.75.75 0 0 0 1.058 0L9.307 18H10.5a.75.75 0 0 0 .532-.218l7.718-7.725.967.975 1.065-1.065L19.807 9l2.475-2.468a.75.75 0 0 0 0-1.057v-.008Zm-12.09 11.033h-1.5L6.75 18.443l-1.193-1.192L7.5 15.308v-1.5l7.5-7.5 2.692 2.693-7.5 7.5Zm8.558-8.558-2.693-2.692L18 3.308l2.692 2.693-1.942 1.942Z"></path>
</svg>