<svg width="32" height="32" fill="currentColor" viewBox="0 0 24 24" xmlns="http://www.w3.org/2000/svg">
<path d="M8.625 8.25a1.875 1.875 0 1 0 0 3.75 1.875 1.875 0 0 0 0-3.75Z"></path>
<path d="M15.375 8.25a1.875 1.875 0 1 0 0 3.75 1.875 1.875 0 0 0 0-3.75Z"></path>
<path d="M22.5 12.002a10.501 10.501 0 1 0-15.825 9.032l.011.117a1.495 1.495 0 0 0 1.493 1.351h7.642a1.495 1.495 0 0 0 1.493-1.35l.011-.118a10.476 10.476 0 0 0 5.175-9.032Zm-10.5-9a8.993 8.993 0 0 1 8.977 8.548l-3.904 1.952H6.927L3.023 11.55A8.993 8.993 0 0 1 12 3.002ZM3.09 13.26l2.955 1.478.436 4.357A8.977 8.977 0 0 1 3.09 13.26Zm12.731 7.742H8.179l-.6-6h8.843l-.601 6Zm1.698-1.906.436-4.358 2.955-1.477a8.978 8.978 0 0 1-3.39 5.835Z"></path>
</svg>