<svg width="32" height="32" fill="currentColor" viewBox="0 0 24 24" xmlns="http://www.w3.org/2000/svg">
<path d="M12 18.003a6 6 0 0 0 5.137-2.917l-1.282-.75a4.499 4.499 0 0 1-7.71 0l-1.283.75A6 6 0 0 0 12 18.003Z"></path>
<path d="M12 1.5a10.5 10.5 0 1 0 0 21 10.5 10.5 0 0 0 0-21ZM12 3a9 9 0 0 1 8.168 5.25H18.75A.75.75 0 0 0 18 7.5H6a.75.75 0 0 0-.75.75H3.833A9 9 0 0 1 12 3Zm0 18a9 9 0 0 1-9-9 8.9 8.9 0 0 1 .3-2.25h1.95v1.5a1.5 1.5 0 0 0 1.5 1.5h2.483a1.5 1.5 0 0 0 1.5-1.252L11.123 9h1.755l.412 2.498a1.5 1.5 0 0 0 1.5 1.252h2.46a1.5 1.5 0 0 0 1.5-1.5v-1.5h1.95c.196.734.297 1.49.3 2.25a9 9 0 0 1-9 9Z"></path>
</svg>