<svg width="32" height="32" fill="currentColor" viewBox="0 0 24 24" xmlns="http://www.w3.org/2000/svg">
<path d="M12 1.5a10.5 10.5 0 1 0 0 21 10.5 10.5 0 0 0 0-21ZM12 21a9 9 0 1 1 0-18 9 9 0 0 1 0 18Z"></path>
<path d="M18.307 8.253 17.25 7.195l-1.5 1.5-1.5-1.5-1.058 1.058 1.5 1.5-1.5 1.5 1.058 1.057 1.5-1.5 1.5 1.5 1.057-1.057-1.5-1.5 1.5-1.5Z"></path>
<path d="M10.807 8.253 9.75 7.195l-1.5 1.5-1.5-1.5-1.058 1.058 1.5 1.5-1.5 1.5L6.75 12.31l1.5-1.5 1.5 1.5 1.057-1.057-1.5-1.5 1.5-1.5Z"></path>
<path d="M12 14.25a2.25 2.25 0 1 0 0 4.5 2.25 2.25 0 0 0 0-4.5Z"></path>
</svg>