<svg width="32" height="32" fill="currentColor" viewBox="0 0 24 24" xmlns="http://www.w3.org/2000/svg">
<path d="M22.5 3h-3V0H18v3h-3v1.5h3v3h1.5v-3h3V3Z"></path>
<path d="M8.625 8.25a1.875 1.875 0 1 0 1.875 1.875A1.859 1.859 0 0 0 8.625 8.25Z"></path>
<path d="M15.375 8.25a1.875 1.875 0 1 0 1.875 1.875 1.859 1.859 0 0 0-1.875-1.875Z"></path>
<path d="M6.75 15a6.098 6.098 0 0 0 10.5 0H6.75Z"></path>
<path d="M20.865 10.5A9 9 0 1 1 12 3V1.5A10.5 10.5 0 1 0 22.5 12a11.03 11.03 0 0 0-.12-1.5h-1.515Z"></path>
</svg>