<svg width="32" height="32" fill="currentColor" viewBox="0 0 24 24" xmlns="http://www.w3.org/2000/svg">
<path d="M12 1.5a10.5 10.5 0 1 0 0 21 10.5 10.5 0 0 0 0-21ZM12 21a9 9 0 1 1 0-18 9 9 0 0 1 0 18Z"></path>
<path d="M8.625 8.25a1.875 1.875 0 1 0 1.875 1.875A1.859 1.859 0 0 0 8.625 8.25Z"></path>
<path d="M15.375 8.25a1.875 1.875 0 1 0 1.875 1.875 1.859 1.859 0 0 0-1.875-1.875Z"></path>
<path d="M12 18.003a6 6 0 0 0 5.137-2.917l-1.282-.75a4.499 4.499 0 0 1-7.71 0l-1.283.75A6 6 0 0 0 12 18.003Z"></path>
</svg>