<svg width="32" height="32" fill="currentColor" viewBox="0 0 24 24" xmlns="http://www.w3.org/2000/svg">
<path d="M12 16.503a4.5 4.5 0 0 1-3.855-2.19l-1.283.75a6 6 0 0 0 10.275 0l-1.282-.75A4.5 4.5 0 0 1 12 16.503Z"></path>
<path d="M22.5 3h-3V0H18v3h-3v1.5h3v3h1.5v-3h3V3Z"></path>
<path d="M8.625 8.25a1.875 1.875 0 1 0 1.875 1.875A1.859 1.859 0 0 0 8.625 8.25Z"></path>
<path d="M15.375 8.25a1.875 1.875 0 1 0 1.875 1.875 1.859 1.859 0 0 0-1.875-1.875Z"></path>
<path d="M20.707 9.75c.19.735.288 1.49.293 2.25a9 9 0 1 1-9-9V1.5a10.5 10.5 0 1 0 10.252 8.25h-1.545Z"></path>
</svg>