<svg width="32" height="32" fill="currentColor" viewBox="0 0 24 24" xmlns="http://www.w3.org/2000/svg">
<path d="m6.18 18.852-.93 1.147c.929.79 1.99 1.41 3.135 1.83l.518-1.402a9.002 9.002 0 0 1-2.723-1.575Z"></path>
<path d="m3.143 13.5-1.5.307a10.567 10.567 0 0 0 1.252 3.443l1.298-.75a9.33 9.33 0 0 1-1.05-3Z"></path>
<path d="m8.865 3.567-.518-1.403a10.343 10.343 0 0 0-3.097 1.83l.93 1.148a9 9 0 0 1 2.685-1.575Z"></path>
<path d="m4.193 7.5-1.298-.75a10.778 10.778 0 0 0-1.23 3.443l1.5.255A9.037 9.037 0 0 1 4.193 7.5Z"></path>
<path d="M12 1.5V3a9 9 0 0 1 0 18v1.5a10.5 10.5 0 1 0 0-21Z"></path>
</svg>