<svg width="32" height="32" fill="currentColor" viewBox="0 0 24 24" xmlns="http://www.w3.org/2000/svg">
<path d="M12 9.75 8.25 13.5l1.057 1.057 1.943-1.934V21H4.5v1.5h6.75a1.5 1.5 0 0 0 1.5-1.5v-8.377l1.943 1.934L15.75 13.5 12 9.75Z"></path>
<path d="M17.625 16.5h-.375V15h.375a3.373 3.373 0 0 0 .267-6.736l-.611-.048-.074-.609a5.245 5.245 0 0 0-10.413 0l-.074.61-.612.047A3.373 3.373 0 0 0 6.375 15h.375v1.5h-.375A4.873 4.873 0 0 1 5.4 6.852a6.746 6.746 0 0 1 13.2 0 4.873 4.873 0 0 1-.975 9.648Z"></path>
</svg>