<svg width="32" height="32" fill="currentColor" viewBox="0 0 24 24" xmlns="http://www.w3.org/2000/svg">
<path d="M21 15h-1.5v1.5H21V21H3v-4.5h1.5V15H3a1.502 1.502 0 0 0-1.5 1.5V21A1.502 1.502 0 0 0 3 22.5h18a1.502 1.502 0 0 0 1.5-1.5v-4.5A1.502 1.502 0 0 0 21 15Z"></path>
<path d="M5.25 19.5a.75.75 0 1 0 0-1.5.75.75 0 0 0 0 1.5Z"></path>
<path d="m17.03 5.47-3.75-3.75a.75.75 0 0 0-.53-.22h-4.5A1.502 1.502 0 0 0 6.75 3v12a1.502 1.502 0 0 0 1.5 1.5h7.5a1.502 1.502 0 0 0 1.5-1.5V6a.75.75 0 0 0-.22-.53ZM15.44 6h-2.69V3.31L15.44 6Zm-7.19 9V3h3v3a1.502 1.502 0 0 0 1.5 1.5h3V15h-7.5Z"></path>
</svg>