<svg width="32" height="32" fill="currentColor" viewBox="0 0 24 24" xmlns="http://www.w3.org/2000/svg">
<path d="M5.25 3.907a.577.577 0 0 1-.345-1.035A11.595 11.595 0 0 1 12 .749c1.995 0 4.86.338 7.125 1.965a.577.577 0 0 1 .135.803.585.585 0 0 1-.81.127A11.25 11.25 0 0 0 12 1.897a10.5 10.5 0 0 0-6.375 1.89.555.555 0 0 1-.375.12Z"></path>
<path d="M21.172 9.197a.585.585 0 0 1-.472-.248c-1.298-1.83-3.615-4.267-8.7-4.267a10.5 10.5 0 0 0-8.723 4.275.578.578 0 0 1-.802.127.57.57 0 0 1-.113-.832A11.655 11.655 0 0 1 12 3.534c4.207 0 7.357 1.56 9.63 4.755a.577.577 0 0 1-.458.908Z"></path>
<path d="M9.21 23.247a.585.585 0 0 1-.537-.814A.563.563 0 0 1 9 22.13c3.278-1.26 5.25-3.84 5.25-6.908a2.1 2.1 0 0 0-2.25-2.25c-1.395 0-2.07.75-2.25 2.513a3.202 3.202 0 0 1-3.39 2.872 3.2 3.2 0 0 1-3.24-3.442A8.783 8.783 0 0 1 12 6.29a9 9 0 0 1 9 8.947 13.997 13.997 0 0 1-1.042 4.875.585.585 0 0 1-.75.308.568.568 0 0 1-.308-.75c.576-1.41.899-2.91.953-4.433A7.838 7.838 0 0 0 12 7.437a7.635 7.635 0 0 0-7.785 7.5 2.078 2.078 0 0 0 2.093 2.295 2.053 2.053 0 0 0 2.25-1.86c.27-2.332 1.417-3.517 3.42-3.517a3.234 3.234 0 0 1 3.39 3.42c0 3.555-2.25 6.54-6 7.972a.691.691 0 0 1-.158 0Z"></path>
<path d="M14.827 22.709a.607.607 0 0 1-.39-.15.568.568 0 0 1 0-.81 9.473 9.473 0 0 0 2.655-6.51c0-1.17-.36-4.988-5.025-4.988a5.123 5.123 0 0 0-3.705 1.403 4.628 4.628 0 0 0-1.372 3.345.578.578 0 0 1-.798.529.57.57 0 0 1-.357-.53A5.797 5.797 0 0 1 7.5 10.845a6.255 6.255 0 0 1 4.5-1.74c4.56 0 6.18 3.3 6.18 6.135a10.568 10.568 0 0 1-2.925 7.26.562.562 0 0 1-.428.21Z"></path>
<path d="M6.495 20.802a10.66 10.66 0 0 1-1.17-.068.574.574 0 0 1 .128-1.14c1.867.21 3.337-.12 4.38-.99a4.776 4.776 0 0 0 1.59-3.397.561.561 0 0 1 .615-.533.585.585 0 0 1 .54.608 5.918 5.918 0 0 1-2.01 4.215 6.15 6.15 0 0 1-4.073 1.305Z"></path>
</svg>