<svg width="32" height="32" fill="currentColor" viewBox="0 0 24 24" xmlns="http://www.w3.org/2000/svg">
<path d="M20.25 15.297v2.25c-.75 0-1.5-1.125-1.5-3v-2.25c-3 3.75-3.75 5.25-3.75 6.75a3.75 3.75 0 0 0 2.284 3.452 5.646 5.646 0 0 1 1.466-2.702 5.646 5.646 0 0 1 1.466 2.702 3.751 3.751 0 0 0 2.284-3.452c0-1.5-.844-2.679-2.25-3.75Z"></path>
<path d="M12.75 21H3v-3h9.75v-1.5H3A1.502 1.502 0 0 0 1.5 18v3A1.502 1.502 0 0 0 3 22.5h9.75V21Z"></path>
<path d="M21 9H5.25a1.502 1.502 0 0 0-1.5 1.5v3a1.502 1.502 0 0 0 1.5 1.5h7.5v-1.5h-7.5v-3H21V12h1.5v-1.5A1.502 1.502 0 0 0 21 9Z"></path>
<path d="M18.75 7.5H3A1.502 1.502 0 0 1 1.5 6V3A1.502 1.502 0 0 1 3 1.5h15.75a1.502 1.502 0 0 1 1.5 1.5v3a1.502 1.502 0 0 1-1.5 1.5ZM3 3v3h15.75V3H3Z"></path>
</svg>