<svg width="32" height="32" fill="currentColor" viewBox="0 0 24 24" xmlns="http://www.w3.org/2000/svg">
<path d="M21 15v-2.25a3 3 0 0 0-6 0V15a1.502 1.502 0 0 0-1.5 1.5V21a1.502 1.502 0 0 0 1.5 1.5h6a1.502 1.502 0 0 0 1.5-1.5v-4.5A1.502 1.502 0 0 0 21 15Zm-4.5-2.25a1.5 1.5 0 1 1 3 0V15h-3v-2.25ZM21 21h-6v-4.5h6V21Z"></path>
<path d="M11.25 20.25H3a1.5 1.5 0 0 1-1.5-1.5V16.5A1.5 1.5 0 0 1 3 15h8.25v1.5H3v2.25h8.25v1.5Z"></path>
<path d="M12.75 13.5H6A1.5 1.5 0 0 1 4.5 12V9.75A1.5 1.5 0 0 1 6 8.25h8.25v1.5H6V12h6.75v1.5Z"></path>
<path d="M16.5 6.75H3a1.5 1.5 0 0 1-1.5-1.5V3A1.5 1.5 0 0 1 3 1.5h13.5A1.5 1.5 0 0 1 18 3v2.25a1.5 1.5 0 0 1-1.5 1.5ZM3 5.25h13.5V3H3v2.25Z"></path>
</svg>