<svg width="32" height="32" fill="currentColor" viewBox="0 0 24 24" xmlns="http://www.w3.org/2000/svg">
<path d="M18.624 12.727c-.204-.485-.436-1.035-.662-1.714-.593-1.776 1.3-3.714 1.318-3.733l-1.06-1.06c-.106.105-2.568 2.608-1.681 5.267.244.734.488 1.312.703 1.823.5.989.76 2.082.758 3.19a4.681 4.681 0 0 1-3.142 3.97 6.389 6.389 0 0 0-1.578-6l-.783-.784-.436 1.018c-1.377 3.213-3.016 4.616-3.98 5.201A4.383 4.383 0 0 1 6 16.5a7.218 7.218 0 0 1 .697-2.722A8.5 8.5 0 0 0 7.5 10.5V9.166c.655.27 1.5.978 1.5 2.834v1.953l1.307-1.451c2.334-2.59 1.847-5.676.905-7.731A3.364 3.364 0 0 1 13.5 8.25H15C15 4.097 11.566 3 9.75 3h-1.5l.9 1.199c.103.14 2.146 2.946 1.014 5.766A3.707 3.707 0 0 0 6.75 7.5H6v3a7.218 7.218 0 0 1-.697 2.722A8.5 8.5 0 0 0 4.5 16.5c0 2.886 2.867 6 7.5 6s7.5-3.114 7.5-6a8.534 8.534 0 0 0-.876-3.773Zm-8.998 7.918a12.375 12.375 0 0 0 3.275-4.2 4.578 4.578 0 0 1 .193 4.48A8.486 8.486 0 0 1 12 21a7.747 7.747 0 0 1-2.374-.355Z"></path>
</svg>