<svg width="32" height="32" fill="currentColor" viewBox="0 0 24 24" xmlns="http://www.w3.org/2000/svg">
<path d="M18 6a.75.75 0 1 0 0-1.5.75.75 0 0 0 0 1.5Z"></path>
<path d="M19.5 1.5a12.014 12.014 0 0 0-12 12V15H2.25a.75.75 0 0 0-.53 1.28l6 6A.75.75 0 0 0 9 21.75V16.5h1.5a12.014 12.014 0 0 0 12-12v-3h-3Zm-12 18.44L4.06 16.5H7.5v3.44ZM9 15v-1.5c0-2.708 1.05-5.31 2.93-7.258l5.828 5.827A10.455 10.455 0 0 1 10.5 15H9ZM21 4.5c0 2.341-.787 4.614-2.235 6.454l-5.72-5.719A10.437 10.437 0 0 1 19.5 3H21v1.5Z"></path>
</svg>