<svg width="32" height="32" fill="currentColor" viewBox="0 0 24 24" xmlns="http://www.w3.org/2000/svg">
<path d="M22.5 10.5a9.739 9.739 0 0 0-2.871-6.932L18.31 2.25l-1.06 1.06 1.318 1.318a8.303 8.303 0 0 1 0 11.743L16.5 18.44l1.06 1.061 2.069-2.068A9.738 9.738 0 0 0 22.5 10.5Z"></path>
<path d="M12.75 9a.75.75 0 1 0 0-1.5.75.75 0 0 0 0 1.5Z"></path>
<path d="M16.5 10.5a9.739 9.739 0 0 0-2.871-6.932L12.31 2.25l-1.06 1.06 1.318 1.318a8.303 8.303 0 0 1 0 11.743L10.5 18.44l1.06 1.061 2.069-2.068A9.738 9.738 0 0 0 16.5 10.5Z"></path>
<path d="M18.75 9a.75.75 0 1 0 0-1.5.75.75 0 0 0 0 1.5Z"></path>
<path d="M6.75 9a.75.75 0 1 0 0-1.5.75.75 0 0 0 0 1.5Z"></path>
<path d="m7.06 17.998.569-.568a9.804 9.804 0 0 0 0-13.864L6 1.938 4.371 3.566a9.803 9.803 0 0 0 0 13.864l.568.568-3.22 3.22a.75.75 0 0 0 .531 1.28h7.5a.75.75 0 0 0 .53-1.28l-3.22-3.22ZM3 10.498a8.25 8.25 0 0 1 2.432-5.871L6 4.059l.568.568a8.304 8.304 0 0 1 0 11.742L6 16.938l-.568-.569A8.248 8.248 0 0 1 3 10.5Zm1.06 10.5L6 19.058l1.94 1.94H4.06Z"></path>
</svg>