<svg width="32" height="32" fill="currentColor" viewBox="0 0 24 24" xmlns="http://www.w3.org/2000/svg">
<path d="m18.598 1.5-3.331 4.998A2.246 2.246 0 0 1 13.395 7.5H9a2.253 2.253 0 0 0-2.25 2.25v4.5a1.502 1.502 0 0 0 1.5 1.5V21a1.502 1.502 0 0 0 1.5 1.5h3a1.502 1.502 0 0 0 1.5-1.5v-9h-1.5v9h-3v-6.75h-1.5v-4.5A.75.75 0 0 1 9 9h4.395a3.741 3.741 0 0 0 3.12-1.67l3.331-4.998-1.248-.832Z"></path>
<path d="M8.25 3.75a3 3 0 1 1 6 0 3 3 0 0 1-6 0Zm1.5 0a1.5 1.5 0 1 0 3 0 1.5 1.5 0 0 0-3 0Z"></path>
</svg>