<svg width="32" height="32" fill="currentColor" viewBox="0 0 24 24" xmlns="http://www.w3.org/2000/svg">
<path d="M8.347 5.168 8.85 3h6l-1.5 6.75h3.9l-1.868 2.438 1.073 1.072 2.902-3.802a.75.75 0 0 0 .083-.75.75.75 0 0 0-.69-.458h-3.563L16.5 2.415a.749.749 0 0 0-.75-.915h-7.5a.75.75 0 0 0-.75.578l-.405 1.837 1.252 1.253Z"></path>
<path d="m22.5 21.442-6.982-6.982-1.066-1.073L7.95 6.892 6.697 5.64 2.558 1.5 1.5 2.558l4.8 4.807-1.05 4.463a.75.75 0 0 0 .75.922h3.623L8.25 21.637A.75.75 0 0 0 9 22.5a.75.75 0 0 0 .592-.293l5.01-6.547 6.84 6.84 1.058-1.058ZM6.945 11.25l.607-2.64 2.64 2.64H6.946Zm3.24 7.71 1.065-6.683 2.25 2.31-3.315 4.373Z"></path>
</svg>