<svg width="32" height="32" fill="currentColor" viewBox="0 0 24 24" xmlns="http://www.w3.org/2000/svg">
<path d="M12 21c-.168 0-.337-.011-.504-.033a16.339 16.339 0 0 1-2.471-8.217h13.437c.018-.249.038-.497.038-.75A10.5 10.5 0 1 0 12 22.5V21Zm8.962-9.75h-4.49a18.244 18.244 0 0 0-2.065-7.913 9.01 9.01 0 0 1 6.555 7.913Zm-8.458-8.217a16.34 16.34 0 0 1 2.471 8.217h-5.95a16.34 16.34 0 0 1 2.471-8.217 3.869 3.869 0 0 1 1.008 0Zm-2.912.304a18.246 18.246 0 0 0-2.064 7.913h-4.49a9.01 9.01 0 0 1 6.554-7.913ZM3.038 12.75h4.49c.08 2.76.786 5.466 2.064 7.913a9.01 9.01 0 0 1-6.554-7.913Z"></path>
<path fill-rule="evenodd" d="m18.75 18.75 3.75 1.5v-1.5l-3.75-1.875V15a.75.75 0 1 0-1.5 0v1.875L13.5 18.75v1.5l3.75-1.5v2.625l-1.5 1.125v.75L18 22.5l2.25.75v-.75l-1.5-1.125V18.75Z" clip-rule="evenodd"></path>
</svg>