<svg width="32" height="32" fill="currentColor" viewBox="0 0 24 24" xmlns="http://www.w3.org/2000/svg">
<path fill-rule="evenodd" d="m18.75 17.25 3.75 1.5v-1.5l-3.75-1.875V13.5a.75.75 0 1 0-1.5 0v1.875L13.5 17.25v1.5l3.75-1.5v2.625L15.75 21v.75L18 21l2.25.75V21l-1.5-1.125V17.25Z" clip-rule="evenodd"></path>
<path fill-rule="evenodd" d="M19.5 3h-3V1.5H15V3H9V1.5H7.5V3h-3A1.5 1.5 0 0 0 3 4.5v15A1.5 1.5 0 0 0 4.5 21H12v-1.5H4.5v-15h3V6H9V4.5h6V6h1.5V4.5h3v5.25H21V4.5A1.5 1.5 0 0 0 19.5 3Z" clip-rule="evenodd"></path>
</svg>