<svg width="32" height="32" fill="currentColor" viewBox="0 0 24 24" xmlns="http://www.w3.org/2000/svg">
<path d="M21.75 21c-.256 0-.51-.047-.75-.136v-.005a2.823 2.823 0 0 1-1.54-1.6.728.728 0 0 0-.71-.509.755.755 0 0 0-.712.513A2.579 2.579 0 0 1 15.75 21a2.58 2.58 0 0 1-2.29-1.74.742.742 0 0 0-.71-.51.755.755 0 0 0-.711.513A2.579 2.579 0 0 1 9.75 21a2.58 2.58 0 0 1-2.29-1.74.75.75 0 0 0-1.422.003A2.579 2.579 0 0 1 3.75 21H1.5v1.5h2.25a3.7 3.7 0 0 0 3-1.49 3.764 3.764 0 0 0 6 0 3.764 3.764 0 0 0 6 0c.418.54.97.959 1.603 1.215a3.63 3.63 0 0 0 1.397.275h.75V21h-.75Z"></path>
<path d="m22.434 11.202-4.712-8.674a.538.538 0 0 0-.943 0l-4.712 8.674a.54.54 0 0 0 .473.798h9.42a.54.54 0 0 0 .474-.798ZM16.688 5.25h1.125v3h-1.125v-3Zm.562 5.25a.75.75 0 1 1 0-1.5.75.75 0 0 1 0 1.5Z"></path>
<path d="M21 15.75V13.5h-1.5v2.25h-.75a2.578 2.578 0 0 1-2.288-1.737.75.75 0 0 0-1.422-.004 2.58 2.58 0 0 1-2.29 1.741 2.578 2.578 0 0 1-2.289-1.737.755.755 0 0 0-1.149-.374.742.742 0 0 0-.272.37 2.58 2.58 0 0 1-2.29 1.741 2.525 2.525 0 0 1-2.25-1.64V9.047L12 3.204l1.9 1.481.726-1.336-2.167-1.689a.757.757 0 0 0-.932 0L.75 10.065l.932 1.178L3 10.216v3.89a2.767 2.767 0 0 1-1.5 1.503v1.563a3.747 3.747 0 0 0 2.25-1.413 3.764 3.764 0 0 0 6 0 3.765 3.765 0 0 0 6 0 3.699 3.699 0 0 0 3 1.491h3.75v-1.5H21Z"></path>
</svg>