<svg width="32" height="32" fill="currentColor" viewBox="0 0 24 24" xmlns="http://www.w3.org/2000/svg">
<path d="M21.75 21c-.256 0-.51-.047-.75-.136v-.005a2.823 2.823 0 0 1-1.54-1.6.728.728 0 0 0-.71-.509.755.755 0 0 0-.712.513A2.579 2.579 0 0 1 15.75 21a2.58 2.58 0 0 1-2.29-1.74.742.742 0 0 0-.71-.51.755.755 0 0 0-.711.513A2.579 2.579 0 0 1 9.75 21a2.58 2.58 0 0 1-2.29-1.74.75.75 0 0 0-1.422.003A2.579 2.579 0 0 1 3.75 21H1.5v1.5h2.25a3.7 3.7 0 0 0 3-1.49 3.764 3.764 0 0 0 6 0 3.764 3.764 0 0 0 6 0c.418.54.97.959 1.603 1.215a3.63 3.63 0 0 0 1.397.275h.75V21h-.75Z"></path>
<path d="m21 10.223 1.318 1.027.932-1.179-10.79-8.41a.757.757 0 0 0-.933 0L.75 10.064l.932 1.178L3 10.216v3.89a2.768 2.768 0 0 1-1.5 1.503v1.563a3.747 3.747 0 0 0 2.25-1.413 3.764 3.764 0 0 0 6 0 3.765 3.765 0 0 0 6 0 3.699 3.699 0 0 0 3 1.491h3.75v-1.5H21v-5.527Zm-4.538 3.79a.75.75 0 0 0-1.422-.004 2.58 2.58 0 0 1-2.29 1.741 2.578 2.578 0 0 1-2.289-1.737.755.755 0 0 0-1.149-.374.742.742 0 0 0-.272.37 2.58 2.58 0 0 1-2.29 1.741 2.527 2.527 0 0 1-2.252-1.643l.002-5.06 7.493-5.843 7.507 5.85.001 6.696h-.751a2.578 2.578 0 0 1-2.288-1.737Z"></path>
</svg>