<svg width="32" height="32" fill="currentColor" viewBox="0 0 24 24" xmlns="http://www.w3.org/2000/svg">
<path d="M22.5 14.25h-9v1.5h9v-1.5Z"></path>
<path d="M22.5 17.25h-9v1.5h9v-1.5Z"></path>
<path d="M19.5 20.25h-6v1.5h6v-1.5Z"></path>
<path d="M18 3a2.997 2.997 0 0 0-2.894 2.25H9V3H3v6h6V6.75h6.106c.07.268.177.526.319.764l-7.911 7.911A2.964 2.964 0 0 0 6 15a3 3 0 1 0 2.893 3.75H12v-1.5H8.893a2.954 2.954 0 0 0-.319-.764l7.911-7.911c.458.275.98.422 1.515.425a3 3 0 0 0 0-6ZM7.5 7.5h-3v-3h3v3ZM6 19.5a1.5 1.5 0 1 1 0-3 1.5 1.5 0 0 1 0 3Zm12-12a1.5 1.5 0 1 1 0-3 1.5 1.5 0 0 1 0 3Z"></path>
</svg>