<svg width="32" height="32" fill="currentColor" viewBox="0 0 24 24" xmlns="http://www.w3.org/2000/svg">
<path d="M15 18H8.897a3.098 3.098 0 0 0-.321-.765l7.91-7.91A2.996 2.996 0 1 0 15.105 6H10.5v1.5h4.606c.07.269.177.526.319.765l-7.91 7.91a2.996 2.996 0 1 0 1.38 3.325H15v2.25h6v-6h-6V18Zm3-12.75a1.5 1.5 0 1 1 0 3 1.5 1.5 0 0 1 0-3Zm-12 15a1.5 1.5 0 1 1 0-3 1.5 1.5 0 0 1 0 3Zm10.5-3h3v3h-3v-3Z"></path>
<path d="M7.27 9.563a3.75 3.75 0 0 1 0-5.626l.993 1.125a2.25 2.25 0 0 0 0 3.376L7.27 9.562Z"></path>
<path d="M5.286 11.813a6.75 6.75 0 0 1 0-10.126l.992 1.125a5.25 5.25 0 0 0 0 7.876l-.992 1.125Z"></path>
</svg>