<svg width="32" height="32" fill="currentColor" viewBox="0 0 24 24" xmlns="http://www.w3.org/2000/svg">
<path d="M15 18h-3v1.5h3v2.25h6v-6h-6V18Zm1.5-.75h3v3h-3v-3Z"></path>
<path d="M3 15v1.5h3.44L1.5 21.44l1.06 1.06 4.94-4.94V21H9v-6H3Z"></path>
<path d="M18 3.75A2.997 2.997 0 0 0 15.107 6H10.5v1.5h4.607c.07.268.177.526.318.764L10.5 13.19l1.06 1.06 4.926-4.925c.457.275.98.422 1.514.425a3 3 0 0 0 0-6Zm0 4.5a1.5 1.5 0 1 1 0-3 1.5 1.5 0 0 1 0 3Z"></path>
<path d="M7.27 9.563a3.75 3.75 0 0 1 0-5.626l.993 1.125a2.25 2.25 0 0 0 0 3.376L7.27 9.562Z"></path>
<path d="M5.286 11.813a6.75 6.75 0 0 1 0-10.126l.992 1.125a5.25 5.25 0 0 0 0 7.876l-.992 1.125Z"></path>
</svg>