<svg width="32" height="32" fill="currentColor" viewBox="0 0 24 24" xmlns="http://www.w3.org/2000/svg">
<path d="M21 13.5h-4.5A1.502 1.502 0 0 0 15 15v1.5h-4.19L7.5 13.19V9H9a1.502 1.502 0 0 0 1.5-1.5V3A1.501 1.501 0 0 0 9 1.5H4.5A1.502 1.502 0 0 0 3 3v4.5A1.502 1.502 0 0 0 4.5 9H6v4.19l-3.53 3.53a.75.75 0 0 0 0 1.06l3.75 3.75a.75.75 0 0 0 1.06 0L10.81 18H15v1.5a1.502 1.502 0 0 0 1.5 1.5H21a1.502 1.502 0 0 0 1.5-1.5V15a1.502 1.502 0 0 0-1.5-1.5ZM4.5 3H9v4.5H4.5V3Zm2.25 16.94-2.69-2.69 2.69-2.69 2.69 2.69-2.69 2.69Zm9.75-.44V15H21v4.5h-4.5Z"></path>
</svg>