<svg width="32" height="32" fill="currentColor" viewBox="0 0 24 24" xmlns="http://www.w3.org/2000/svg">
<path d="M18.6 8.354a6.745 6.745 0 0 0-13.2 0 4.9 4.9 0 0 0-3.9 4.771v1.125a.75.75 0 0 0 .75.75h9a.75.75 0 1 0 0-1.5H3v-.372a3.388 3.388 0 0 1 3.108-3.362l.612-.048.074-.609a5.245 5.245 0 0 1 10.413 0l.074.61.611.047a3.372 3.372 0 0 1-.267 6.734H5.25a.75.75 0 1 0 0 1.5h12.375a4.872 4.872 0 0 0 .976-9.646Z"></path>
<path d="M14.25 19.5h-12a.75.75 0 0 0 0 1.5h12a.75.75 0 0 0 0-1.5Z"></path>
</svg>