<svg width="32" height="32" fill="currentColor" viewBox="0 0 24 24" xmlns="http://www.w3.org/2000/svg">
<path d="M21 6h-9L9.443 3.442A1.5 1.5 0 0 0 8.377 3H3a1.5 1.5 0 0 0-1.5 1.5v15A1.5 1.5 0 0 0 3 21h18a1.5 1.5 0 0 0 1.5-1.5v-12A1.5 1.5 0 0 0 21 6Zm-4.5 13.5h-6v-.75a.75.75 0 0 1 .75-.75h4.5a.75.75 0 0 1 .75.75v.75Zm4.5 0h-3v-.75a2.25 2.25 0 0 0-2.25-2.25h-4.5A2.25 2.25 0 0 0 9 18.75v.75H3v-15h5.377l2.566 2.558.434.442H21v12Z"></path>
<path d="M10.5 12.75a3 3 0 1 0 5.999 0 3 3 0 0 0-5.999 0Zm3-1.5a1.5 1.5 0 1 1 0 3 1.5 1.5 0 0 1 0-3Z"></path>
</svg>