<svg width="32" height="32" fill="currentColor" viewBox="0 0 24 24" xmlns="http://www.w3.org/2000/svg">
<path d="M19.5 13.5A7.5 7.5 0 1 1 12 6h3v3.75l4.5-4.5L15 .75V4.5h-3a9 9 0 1 0 9 9h-1.5Z"></path>
<path d="M10.875 18.75a1.125 1.125 0 1 0 0-2.25 1.125 1.125 0 0 0 0 2.25Z"></path>
<path d="M8.625 15.75a1.125 1.125 0 1 0 0-2.25 1.125 1.125 0 0 0 0 2.25Z"></path>
<path d="M13.125 15.75a1.125 1.125 0 1 0 0-2.25 1.125 1.125 0 0 0 0 2.25Z"></path>
<path d="m12.44 9.748-2.69 2.69 1.06 1.06 2.69-2.69-1.06-1.06Z"></path>
<path d="m16.94 9.748-2.69 2.69 1.06 1.06 2.69-2.69-1.06-1.06Z"></path>
</svg>