<svg width="32" height="32" fill="currentColor" viewBox="0 0 24 24" xmlns="http://www.w3.org/2000/svg">
<path d="m9.44 8.998-2.69 2.69 1.06 1.06 2.69-2.69-1.06-1.06Z"></path>
<path d="m12.44 10.498-1.19 1.19 1.06 1.06 1.19-1.19-1.06-1.06Z"></path>
<path d="M7.875 18a1.125 1.125 0 1 0 0-2.25 1.125 1.125 0 0 0 0 2.25Z"></path>
<path d="M5.625 15a1.125 1.125 0 1 0 0-2.25 1.125 1.125 0 0 0 0 2.25Z"></path>
<path d="M10.125 15a1.125 1.125 0 1 0 0-2.25 1.125 1.125 0 0 0 0 2.25Z"></path>
<path d="M10.5 21a7.5 7.5 0 0 1 0-15h3v3.75l4.5-4.5-4.5-4.5V4.5h-3a9 9 0 1 0 0 18V21Z"></path>
<path d="M15 15h-3v1.5h3V18h-2.25v1.5H15V21h-3v1.5h3a1.502 1.502 0 0 0 1.5-1.5v-4.5A1.502 1.502 0 0 0 15 15Z"></path>
<path d="M21 22.5h-1.5A1.502 1.502 0 0 1 18 21v-4.5a1.502 1.502 0 0 1 1.5-1.5H21a1.502 1.502 0 0 1 1.5 1.5V21a1.502 1.502 0 0 1-1.5 1.5Zm-1.5-6V21H21v-4.5h-1.5Z"></path>
</svg>