<svg width="32" height="32" fill="currentColor" viewBox="0 0 24 24" xmlns="http://www.w3.org/2000/svg">
<path d="M19.5 13.5A7.5 7.5 0 1 1 12 6h3v3.75l4.5-4.5L15 .75V4.5h-3a9 9 0 1 0 9 9h-1.5Z"></path>
<path d="M14.73 16.6c-.331.01-.66-.06-.96-.202a1.77 1.77 0 0 1-.667-.577 2.543 2.543 0 0 1-.353-.938 5.343 5.343 0 0 1-.127-1.26 5.43 5.43 0 0 1 .127-1.26c.067-.335.2-.653.39-.937.17-.246.4-.445.668-.578.3-.142.629-.211.96-.202a1.83 1.83 0 0 1 1.62.75c.383.666.566 1.43.525 2.197a3.982 3.982 0 0 1-.525 2.198 1.83 1.83 0 0 1-1.658.81Zm0-.914a.75.75 0 0 0 .75-.413 2.43 2.43 0 0 0 .225-1.132v-1.035a2.377 2.377 0 0 0-.225-1.125.915.915 0 0 0-1.537 0 2.386 2.386 0 0 0-.218 1.125v1.035c-.019.39.056.778.218 1.132a.75.75 0 0 0 .787.413Z"></path>
<path d="M9.465 13.064c.266.026.533-.046.75-.203a.63.63 0 0 0 .232-.51v-.06a.707.707 0 0 0-.224-.555.9.9 0 0 0-.623-.202 1.239 1.239 0 0 0-.668.18 1.576 1.576 0 0 0-.51.51l-.697-.623a4 4 0 0 1 .33-.382 2.03 2.03 0 0 1 .405-.3c.164-.093.341-.162.525-.203a2.44 2.44 0 0 1 .652-.075 2.96 2.96 0 0 1 .795.105c.223.059.432.16.615.3.168.126.307.287.405.473a1.538 1.538 0 0 1 .053 1.125 1.365 1.365 0 0 1-.24.39c-.102.109-.22.2-.353.27a1.7 1.7 0 0 1-.427.15v.045c.164.03.323.082.473.157a1.275 1.275 0 0 1 .637.698c.063.175.093.36.09.547a1.5 1.5 0 0 1-.15.69c-.1.212-.25.397-.435.54-.2.154-.426.268-.668.338a2.86 2.86 0 0 1-.862.12 3.074 3.074 0 0 1-.75-.083c-.2-.052-.391-.13-.57-.232a2.066 2.066 0 0 1-.42-.338 3.158 3.158 0 0 1-.33-.412l.803-.608c.06.11.131.216.21.315.078.096.169.182.27.255.102.073.216.129.337.165.14.038.283.056.428.053.269.02.536-.06.75-.225a.839.839 0 0 0 .255-.638v-.06a.75.75 0 0 0-.278-.6 1.336 1.336 0 0 0-.795-.21h-.57v-.907h.555Z"></path>
</svg>