<svg width="32" height="32" fill="currentColor" viewBox="0 0 24 24" xmlns="http://www.w3.org/2000/svg">
<path d="M19.5 11.25a4.502 4.502 0 0 0-2.33-3.94A2.985 2.985 0 0 0 18 5.25h-1.5a1.502 1.502 0 0 1-1.5 1.5 4.503 4.503 0 0 0-4.496 4.42A5.25 5.25 0 0 1 9 7.5a2.997 2.997 0 0 0-2.25-2.894V3h-1.5v1.606A2.997 2.997 0 0 0 3 7.5v3.75H1.5V12a10.5 10.5 0 1 0 21 0v-.75h-3Zm-4.5-3a3.003 3.003 0 0 1 3 3h-6a3.003 3.003 0 0 1 3-3ZM4.5 7.5a1.5 1.5 0 0 1 3 0 6.743 6.743 0 0 0 1.15 3.75H4.5V7.5ZM12 21a9.012 9.012 0 0 1-8.969-8.25H20.97A9.013 9.013 0 0 1 12 21Z"></path>
</svg>