<svg width="32" height="32" fill="currentColor" viewBox="0 0 24 24" xmlns="http://www.w3.org/2000/svg">
<path d="m14.72 22.143-.388-1.449a9.003 9.003 0 0 0 4.59-14.446l1.154-.959a10.503 10.503 0 0 1-5.357 16.854Z"></path>
<path d="M7.5 21.75H6v-2.865l.603-.12C7.696 18.546 9 17.715 9 15v-1.036l-3-1.5v-1.678l3-1.5V9c0-4.1 2.944-6.75 7.5-6.75H18v2.865l-.603.12C16.304 5.455 15 6.286 15 9v.286l3 1.5v1.678l-3 1.5V15c0 4.1-2.944 6.75-7.5 6.75Zm0-1.5c3.7 0 6-2.012 6-5.25v-1.964l2.823-1.411-2.823-1.411V9c0-3.434 1.789-4.644 3-5.07v-.18c-3.7 0-6 2.012-6 5.25v1.214l-2.823 1.411 2.823 1.411V15c0 3.434-1.789 4.644-3 5.07v.18Z"></path>
<path d="M3.923 18.706a10.502 10.502 0 0 1 5.36-16.854L9.671 3.3a9.003 9.003 0 0 0-4.594 14.446l-1.154.96Z"></path>
</svg>