<svg width="32" height="32" fill="currentColor" viewBox="0 0 24 24" xmlns="http://www.w3.org/2000/svg">
<path d="M5.632 22.5a4.02 4.02 0 0 1-1.08-.142 4.2 4.2 0 0 1-2.91-5.107l1.748-6.63a4.155 4.155 0 0 1 1.942-2.558 4.072 4.072 0 0 1 4.622.372c.444.36.808.808 1.07 1.316h1.95a4.118 4.118 0 0 1 2.58-2.108 4.072 4.072 0 0 1 3.113.405 4.162 4.162 0 0 1 1.943 2.558l1.747 6.645a4.2 4.2 0 0 1-2.917 5.122 4.07 4.07 0 0 1-3.113-.405 4.154 4.154 0 0 1-1.942-2.557l-.135-.66h-4.5l-.173.645a4.155 4.155 0 0 1-1.942 2.557 4.1 4.1 0 0 1-2.003.548ZM7.372 9a2.621 2.621 0 0 0-1.29.346 2.685 2.685 0 0 0-1.245 1.642l-1.747 6.63a2.7 2.7 0 0 0 1.86 3.293 2.572 2.572 0 0 0 1.965-.255 2.677 2.677 0 0 0 1.245-1.643l.465-1.762h6.75l.457 1.762a2.7 2.7 0 0 0 1.245 1.643 2.593 2.593 0 0 0 1.973.255 2.685 2.685 0 0 0 1.852-3.293l-1.747-6.63a2.649 2.649 0 0 0-1.238-1.642 2.595 2.595 0 0 0-1.972-.255 2.663 2.663 0 0 0-1.778 1.665l-.18.495h-3.975l-.18-.495A2.67 2.67 0 0 0 8.047 9.09 2.61 2.61 0 0 0 7.372 9Z"></path>
<path d="M7.5 15a1.5 1.5 0 1 1 0-3 1.5 1.5 0 0 1 0 3Z"></path>
<path d="M16.5 12.75a.75.75 0 1 0 0-1.5.75.75 0 0 0 0 1.5Z"></path>
<path d="M16.5 15.75a.75.75 0 1 0 0-1.5.75.75 0 0 0 0 1.5Z"></path>
<path d="M15 14.25a.75.75 0 1 0 0-1.5.75.75 0 0 0 0 1.5Z"></path>
<path d="M18 14.25a.75.75 0 1 0 0-1.5.75.75 0 0 0 0 1.5Z"></path>
<path d="m10.313 6.751-1.126-.997a3.75 3.75 0 0 1 5.626 0l-1.126.997a2.25 2.25 0 0 0-3.374 0Z"></path>
<path d="M15.938 4.775a5.25 5.25 0 0 0-7.876 0l-1.124-.99a6.75 6.75 0 0 1 10.125 0l-1.125.99Z"></path>
</svg>