<svg width="32" height="32" fill="currentColor" viewBox="0 0 24 24" xmlns="http://www.w3.org/2000/svg">
<path d="M17.25 17.25h-.099l.723-1.084A.75.75 0 0 0 18 15.75V9c0-7.414-5.94-7.5-6-7.5a.75.75 0 0 0-.75.75v1.5h-.75a.747.747 0 0 0-.436.14l-5.25 3.75a.75.75 0 0 0-.276.847l.75 2.25a.748.748 0 0 0 .818.505l3.652-.522-2.894 4.632a.75.75 0 0 0 .012.814l.723 1.084h-.1a2.252 2.252 0 0 0-2.25 2.25v3H19.5v-3a2.252 2.252 0 0 0-2.25-2.25Zm-5.364-7.103a.75.75 0 0 0-.742-1.14l-4.63.662-.378-1.131L10.74 5.25H12a.75.75 0 0 0 .75-.75V3.096c1.126.251 3.162 1.156 3.645 4.404H14.25V9h2.25v1.5h-2.25V12h2.25v1.5h-2.25V15h2.25v.523l-1.152 1.727H9.401l-1.009-1.514 3.494-5.589ZM18 21H6.75v-1.5a.75.75 0 0 1 .75-.75h9.75a.75.75 0 0 1 .75.75V21Z"></path>
</svg>