<svg width="32" height="32" fill="currentColor" viewBox="0 0 24 24" xmlns="http://www.w3.org/2000/svg">
<path d="M11.25 7.5H6V9h5.25V7.5Z"></path>
<path d="m21.31 6-3.75-3.75-1.06 1.06 2.25 2.25V9a1.502 1.502 0 0 0 1.5 1.5v7.875a1.125 1.125 0 1 1-2.25 0V12a.75.75 0 0 0-.75-.75h-3v-7.5A.75.75 0 0 0 13.5 3H3.75a.75.75 0 0 0-.75.75V19.5H1.5V21h14.25v-1.5h-1.5v-6.75h2.25v5.55a2.673 2.673 0 0 0 2.074 2.644 2.63 2.63 0 0 0 3.176-2.569V7.061A1.5 1.5 0 0 0 21.31 6Zm-8.56 13.5H4.5v-15h8.25v15Z"></path>
</svg>