<svg width="32" height="32" fill="currentColor" viewBox="0 0 24 24" xmlns="http://www.w3.org/2000/svg">
<path d="M23.25 12a1.489 1.489 0 0 0-.44-1.06l-4.344-4.345 2.15-2.151a1.5 1.5 0 1 0-1.06-1.06l-2.15 2.15L13.06 1.19a1.5 1.5 0 0 0-2.122 0L6.595 5.534l-2.151-2.15a1.5 1.5 0 1 0-1.06 1.06l2.15 2.15L1.19 10.94a1.5 1.5 0 0 0 0 2.122l4.345 4.344-2.15 2.151a1.5 1.5 0 1 0 1.06 1.06l2.15-2.15 4.345 4.345a1.5 1.5 0 0 0 2.122 0l4.344-4.345 2.151 2.15a1.5 1.5 0 1 0 1.06-1.06l-2.15-2.15 4.345-4.345A1.491 1.491 0 0 0 23.25 12Zm-5.845 4.345-2.094-2.095-1.061 1.06 2.095 2.095L12 21.75l-4.345-4.345 2.095-2.094-1.06-1.061-2.095 2.095L2.25 12l4.344-4.345L8.69 9.75l1.06-1.06-2.095-2.097L12 2.25l4.345 4.344L14.25 8.69l1.06 1.061 2.096-2.095L21.75 12l-4.345 4.345Z"></path>
</svg>