<svg width="32" height="32" fill="currentColor" viewBox="0 0 24 24" xmlns="http://www.w3.org/2000/svg">
<path d="M8.25 8.25v4.85a3.766 3.766 0 0 0 2.146 3.39l1.604.76 1.604-.76a3.767 3.767 0 0 0 2.146-3.39V8.25h-7.5Zm6 4.85a2.26 2.26 0 0 1-1.288 2.034L12 15.59l-.962-.456a2.26 2.26 0 0 1-1.288-2.033V9.75h4.5v3.35Z"></path>
<path d="M22.81 13.06a1.5 1.5 0 0 0 0-2.12L18.47 6.6l2.176-2.148a1.501 1.501 0 1 0-1.081-1.04L17.41 5.539l-4.35-4.35a1.5 1.5 0 0 0-2.12 0L6.6 5.53 4.452 3.354a1.501 1.501 0 1 0-1.04 1.081L5.538 6.59l-4.35 4.35a1.5 1.5 0 0 0 0 2.12l4.35 4.35-2.127 2.155a1.499 1.499 0 1 0 1.04 1.081L6.6 18.471l4.34 4.34a1.5 1.5 0 0 0 2.12 0l4.35-4.35 2.155 2.127a1.498 1.498 0 1 0 1.081-1.04L18.471 17.4l4.34-4.34ZM12 21.75 2.25 12 12 2.25 21.75 12 12 21.75Z"></path>
</svg>