<svg width="32" height="32" fill="currentColor" viewBox="0 0 24 24" xmlns="http://www.w3.org/2000/svg">
<path d="M14.909 9.091a.315.315 0 0 0-.328-.072l-6.875 2.5a.312.312 0 0 0-.01.584l3.001 1.2 1.2 3a.312.312 0 0 0 .29.197h.006a.312.312 0 0 0 .288-.206l2.5-6.875a.313.313 0 0 0-.072-.328Z"></path>
<path d="M22.81 13.06a1.5 1.5 0 0 0 0-2.12L18.47 6.6l2.176-2.148a1.501 1.501 0 1 0-1.081-1.04L17.41 5.539l-4.35-4.35a1.5 1.5 0 0 0-2.12 0L6.6 5.53 4.452 3.354a1.501 1.501 0 1 0-1.04 1.081L5.538 6.59l-4.35 4.35a1.5 1.5 0 0 0 0 2.12l4.35 4.35-2.127 2.155a1.499 1.499 0 1 0 1.04 1.081L6.6 18.471l4.34 4.34a1.5 1.5 0 0 0 2.12 0l4.35-4.35 2.155 2.127a1.498 1.498 0 1 0 1.081-1.04L18.471 17.4l4.34-4.34ZM12 21.75 2.25 12 12 2.25 21.75 12 12 21.75Z"></path>
</svg>