<svg width="32" height="32" fill="currentColor" viewBox="0 0 24 24" xmlns="http://www.w3.org/2000/svg">
<path d="M18 18v3H6v-3H4.5v3A1.5 1.5 0 0 0 6 22.5h12a1.5 1.5 0 0 0 1.5-1.5v-3H18Z"></path>
<path d="m15.75 15.75-1.06-1.06-1.94 1.939V10.5h-1.5v6.129l-1.94-1.94-1.06 1.061L12 19.5l3.75-3.75Z"></path>
<path d="M21 3V1.5h-4.5V9H18V6h2.25V4.5H18V3h3Z"></path>
<path d="M12.75 9h-3V1.5h3A2.253 2.253 0 0 1 15 3.75v3A2.253 2.253 0 0 1 12.75 9Zm-1.5-1.5h1.5a.75.75 0 0 0 .75-.75v-3a.75.75 0 0 0-.75-.75h-1.5v4.5Z"></path>
<path d="M6.75 1.5H3V9h1.5V6.75h2.25a1.502 1.502 0 0 0 1.5-1.5V3a1.502 1.502 0 0 0-1.5-1.5ZM4.5 5.25V3h2.25v2.25H4.5Z"></path>
</svg>