<svg width="32" height="32" fill="currentColor" viewBox="0 0 24 24" xmlns="http://www.w3.org/2000/svg">
<path d="M19.5 7.5h-2.071A3.365 3.365 0 0 0 12 3.53 3.365 3.365 0 0 0 6.571 7.5H4.5A1.502 1.502 0 0 0 3 9v3a1.502 1.502 0 0 0 1.5 1.5V21A1.502 1.502 0 0 0 6 22.5h12a1.502 1.502 0 0 0 1.5-1.5v-7.5A1.502 1.502 0 0 0 21 12V9a1.502 1.502 0 0 0-1.5-1.5Zm-6.75-1.874A1.875 1.875 0 1 1 14.625 7.5H12.75V5.626ZM9.375 3.75a1.877 1.877 0 0 1 1.875 1.875V7.5H9.375a1.875 1.875 0 0 1 0-3.75ZM4.5 9h6.75v3H4.5V9ZM6 13.5h5.25V21H6v-7.5ZM18 21h-5.25v-7.5H18V21Zm-5.25-9V9h6.75v3h-6.75Z"></path>
</svg>