<svg width="32" height="32" fill="currentColor" viewBox="0 0 24 24" xmlns="http://www.w3.org/2000/svg">
<path d="M21 22.5h-4.5A1.502 1.502 0 0 1 15 21v-4.5a1.502 1.502 0 0 1 1.5-1.5H21a1.502 1.502 0 0 1 1.5 1.5V21a1.502 1.502 0 0 1-1.5 1.5Zm-4.5-6V21H21v-4.5h-4.5Z"></path>
<path d="M13.5 19.5H9a2.253 2.253 0 0 1-2.25-2.25v-3h1.5v3A.75.75 0 0 0 9 18h4.5v1.5Z"></path>
<path d="M19.5 13.5H18v-2.25a.75.75 0 0 0-.75-.75H13.5V9h3.75a2.253 2.253 0 0 1 2.25 2.25v2.25Z"></path>
<path d="M11.25 13.5a.748.748 0 0 1-.373-.1L7.5 11.468 4.123 13.4a.75.75 0 0 1-1.104-.82l.797-3.43-2.114-2.264a.75.75 0 0 1 .424-1.252l3.15-.526 1.55-3.187a.75.75 0 0 1 1.34-.016L9.82 5.11l3.057.527a.75.75 0 0 1 .421 1.25l-2.114 2.266.796 3.429a.75.75 0 0 1-.73.92ZM7.5 9.75s.257.135.373.202l2.257 1.293-.587-2.533 1.711-1.834-2.425-.417L7.52 3.924 6.287 6.461l-2.535.424 1.705 1.827-.588 2.533 2.258-1.293c.116-.067.373-.202.373-.202Z"></path>
</svg>