<svg width="32" height="32" fill="currentColor" viewBox="0 0 24 24" xmlns="http://www.w3.org/2000/svg">
<path d="M8.25 15.75h-1.5v-1.5A2.253 2.253 0 0 1 9 12h4.5v1.5H9a.75.75 0 0 0-.75.75v1.5Z"></path>
<path d="M11.25 11.25a3 3 0 1 1 0-6 3 3 0 0 1 0 6Zm0-4.5a1.5 1.5 0 1 0 0 3 1.5 1.5 0 0 0 0-3Z"></path>
<path d="M18 16.5a3 3 0 1 1 0-5.999 3 3 0 0 1 0 5.999Zm0-4.5a1.5 1.5 0 1 0 0 3 1.5 1.5 0 0 0 0-3Z"></path>
<path d="M22.5 21H21v-1.5a.75.75 0 0 0-.75-.75h-4.5a.75.75 0 0 0-.75.75V21h-1.5v-1.5a2.253 2.253 0 0 1 2.25-2.25h4.5a2.253 2.253 0 0 1 2.25 2.25V21Z"></path>
<path d="m10.5 20.8-3.926-2.093A6.74 6.74 0 0 1 3 12.75V3h15v4.5h1.5V3A1.502 1.502 0 0 0 18 1.5H3A1.502 1.502 0 0 0 1.5 3v9.75a8.236 8.236 0 0 0 4.368 7.28L10.5 22.5v-1.7Z"></path>
</svg>