<svg width="32" height="32" fill="currentColor" viewBox="0 0 24 24" xmlns="http://www.w3.org/2000/svg">
<path d="M23.25 22.5h-1.5v-2.25A2.25 2.25 0 0 0 19.5 18h-3a2.25 2.25 0 0 0-2.25 2.25v2.25h-1.5v-2.25a3.75 3.75 0 0 1 3.75-3.75h3a3.75 3.75 0 0 1 3.75 3.75v2.25Z"></path>
<path d="M18 9a2.25 2.25 0 1 1 0 4.5A2.25 2.25 0 0 1 18 9Zm0-1.5a3.75 3.75 0 1 0 0 7.5 3.75 3.75 0 0 0 0-7.5Z"></path>
<path d="M11.25 16.5h-1.5v-2.25A2.25 2.25 0 0 0 7.5 12h-3a2.25 2.25 0 0 0-2.25 2.25v2.25H.75v-2.25A3.75 3.75 0 0 1 4.5 10.5h3a3.75 3.75 0 0 1 3.75 3.75v2.25Z"></path>
<path d="M6 3a2.25 2.25 0 1 1 0 4.5A2.25 2.25 0 0 1 6 3Zm0-1.5A3.75 3.75 0 1 0 6 9a3.75 3.75 0 0 0 0-7.5Z"></path>
</svg>