<svg width="32" height="32" fill="currentColor" viewBox="0 0 24 24" xmlns="http://www.w3.org/2000/svg">
<path d="M7.5 22.5H6v-2.25H3v2.25H1.5v-2.25a1.502 1.502 0 0 1 1.5-1.5h3a1.502 1.502 0 0 1 1.5 1.5v2.25Z"></path>
<path d="M22.5 22.5H21v-2.25h-3v2.25h-1.5v-2.25a1.502 1.502 0 0 1 1.5-1.5h3a1.502 1.502 0 0 1 1.5 1.5v2.25Z"></path>
<path d="M15 22.5h-1.5v-2.25h-3v2.25H9v-2.25a1.502 1.502 0 0 1 1.5-1.5h3a1.502 1.502 0 0 1 1.5 1.5v2.25Z"></path>
<path d="M12 18a1.5 1.5 0 1 0 0-3 1.5 1.5 0 0 0 0 3Z"></path>
<path d="M4.5 18a1.5 1.5 0 1 0 0-3 1.5 1.5 0 0 0 0 3Z"></path>
<path d="M19.5 18a1.5 1.5 0 1 0 0-3 1.5 1.5 0 0 0 0 3Z"></path>
<path d="M15.75 15a1.5 1.5 0 1 0 0-3 1.5 1.5 0 0 0 0 3Z"></path>
<path d="M8.25 15a1.5 1.5 0 1 0 0-3 1.5 1.5 0 0 0 0 3Z"></path>
<path d="M19.5 10.5h-15A1.502 1.502 0 0 1 3 9V3a1.502 1.502 0 0 1 1.5-1.5h15A1.502 1.502 0 0 1 21 3v6a1.502 1.502 0 0 1-1.5 1.5ZM4.5 3v6h15V3h-15Z"></path>
</svg>