<svg width="32" height="32" fill="currentColor" viewBox="0 0 24 24" xmlns="http://www.w3.org/2000/svg">
<path d="M6 14.25H4.5v-1.5a2.253 2.253 0 0 1 2.25-2.25h3.75V12H6.75a.75.75 0 0 0-.75.75v1.5Z"></path>
<path d="M9 9.75a3 3 0 1 1 0-6 3 3 0 0 1 0 6Zm0-4.5a1.5 1.5 0 1 0 0 3 1.5 1.5 0 0 0 0-3Z"></path>
<path d="M15 15a3 3 0 1 1 0-5.999A3 3 0 0 1 15 15Zm0-4.5a1.5 1.5 0 1 0 0 3 1.5 1.5 0 0 0 0-3Z"></path>
<path d="M19.5 19.5H18V18a.75.75 0 0 0-.75-.75h-4.5A.75.75 0 0 0 12 18v1.5h-1.5V18a2.253 2.253 0 0 1 2.25-2.25h4.5A2.253 2.253 0 0 1 19.5 18v1.5Z"></path>
<path d="M6 22.5H3A1.502 1.502 0 0 1 1.5 21V3A1.502 1.502 0 0 1 3 1.5h3V3H3v18h3v1.5Z"></path>
<path d="M21 22.5h-3V21h3V3h-3V1.5h3A1.502 1.502 0 0 1 22.5 3v18a1.502 1.502 0 0 1-1.5 1.5Z"></path>
</svg>