<svg width="32" height="32" fill="currentColor" viewBox="0 0 24 24" xmlns="http://www.w3.org/2000/svg">
<path d="M12.75 8.25h-4.5A2.25 2.25 0 0 0 6 10.5v3h1.5v-3a.75.75 0 0 1 .75-.75h4.5a.75.75 0 0 1 .75.75v.75H15v-.75a2.25 2.25 0 0 0-2.25-2.25Z"></path>
<path d="M7.5 4.5a3 3 0 1 0 6 0 3 3 0 0 0-6 0Zm4.5 0a1.5 1.5 0 1 1-3 0 1.5 1.5 0 0 1 3 0Z"></path>
<path d="M16.5 20.25H12a1.502 1.502 0 0 1-1.5-1.5v-4.5a1.502 1.502 0 0 1 1.5-1.5h4.5a1.502 1.502 0 0 1 1.5 1.5v4.5a1.502 1.502 0 0 1-1.5 1.5Zm-4.5-6v4.5h4.5v-4.5H12Z"></path>
<path d="M6 22.5H3A1.502 1.502 0 0 1 1.5 21V3A1.502 1.502 0 0 1 3 1.5h3V3H3v18h3v1.5Z"></path>
<path d="M21 22.5h-3V21h3V3h-3V1.5h3A1.502 1.502 0 0 1 22.5 3v18a1.502 1.502 0 0 1-1.5 1.5Z"></path>
</svg>