<svg width="32" height="32" fill="currentColor" viewBox="0 0 24 24" xmlns="http://www.w3.org/2000/svg">
<path d="M15 6.75a.75.75 0 1 0 0-1.5.75.75 0 0 0 0 1.5Z"></path>
<path d="M17.25 6.75a.75.75 0 1 0 0-1.5.75.75 0 0 0 0 1.5Z"></path>
<path d="M19.5 6.75a.75.75 0 1 0 0-1.5.75.75 0 0 0 0 1.5Z"></path>
<path d="M21 3H3a1.502 1.502 0 0 0-1.5 1.5v15A1.502 1.502 0 0 0 3 21h18a1.502 1.502 0 0 0 1.5-1.5v-15A1.502 1.502 0 0 0 21 3Zm0 1.5v3H3v-3h18ZM3 9h4.5v10.5H3V9Zm6 10.5V9h12v10.5H9Z"></path>
</svg>