<svg width="32" height="32" fill="currentColor" viewBox="0 0 24 24" xmlns="http://www.w3.org/2000/svg">
<path d="M16.125 23.25a1.125 1.125 0 1 0 0-2.25 1.125 1.125 0 0 0 0 2.25Z"></path>
<path d="M18.375 20.25a1.125 1.125 0 1 0 0-2.25 1.125 1.125 0 0 0 0 2.25Z"></path>
<path d="M5.625 20.25a1.125 1.125 0 1 0 0-2.25 1.125 1.125 0 0 0 0 2.25Z"></path>
<path d="M3.375 23.25a1.125 1.125 0 1 0 0-2.25 1.125 1.125 0 0 0 0 2.25Z"></path>
<path d="M7.875 23.25a1.125 1.125 0 1 0 0-2.25 1.125 1.125 0 0 0 0 2.25Z"></path>
<path d="m11.901 22.869-1.302-.744 2.358-4.128H8.458l3.641-6.372 1.302.744-2.358 4.128h4.5l-3.642 6.372Z"></path>
<path d="M17.625 16.5h-.375V15h.375a3.373 3.373 0 0 0 .267-6.736l-.611-.048-.074-.609a5.245 5.245 0 0 0-10.413 0l-.074.61-.612.047A3.373 3.373 0 0 0 6.375 15h.375v1.5h-.375A4.873 4.873 0 0 1 5.4 6.852a6.746 6.746 0 0 1 13.2 0 4.873 4.873 0 0 1-.975 9.648Z"></path>
</svg>