<svg width="32" height="32" fill="currentColor" viewBox="0 0 24 24" xmlns="http://www.w3.org/2000/svg">
<path d="m19.778 15.392-7.027-3.833v-1.162A3 3 0 1 0 9 7.502h1.5a1.505 1.505 0 1 1 3 .255 1.56 1.56 0 0 1-1.583 1.245.667.667 0 0 0-.667.667v1.89l-7.028 3.833c-.46.244-.824.635-1.035 1.11a2.123 2.123 0 0 0 1.92 3h13.785a2.122 2.122 0 0 0 1.92-3 2.326 2.326 0 0 0-1.035-1.11Zm-.885 2.61H5.108a.608.608 0 0 1-.608-.608.75.75 0 0 1 .39-.66L12 12.857l7.11 3.877a.75.75 0 0 1 .39.66.608.608 0 0 1-.607.608Z"></path>
</svg>