<svg width="32" height="32" fill="currentColor" viewBox="0 0 24 24" xmlns="http://www.w3.org/2000/svg">
<path d="M16.125 6.75a1.125 1.125 0 1 0 0-2.25 1.125 1.125 0 0 0 0 2.25Z"></path>
<path d="M10.81 15H6.75v-4.06l4.523-4.523A4.03 4.03 0 0 1 11.25 6a4.5 4.5 0 1 1 4.5 4.5 3.87 3.87 0 0 1-.417-.023L10.811 15Zm-2.56-1.5h1.94l4.627-4.628.388.072a3.038 3.038 0 1 0-2.399-2.398l.072.387L8.25 11.56v1.94Z"></path>
<path d="M21 15h-6.75v1.5H21V21H3v-4.5h1.5V15H3a1.502 1.502 0 0 0-1.5 1.5V21A1.502 1.502 0 0 0 3 22.5h18a1.502 1.502 0 0 0 1.5-1.5v-4.5A1.502 1.502 0 0 0 21 15Z"></path>
<path d="M5.25 19.5a.75.75 0 1 0 0-1.5.75.75 0 0 0 0 1.5Z"></path>
</svg>