<svg width="32" height="32" fill="currentColor" viewBox="0 0 24 24" xmlns="http://www.w3.org/2000/svg">
<path d="M21.75 16.5h-12a.75.75 0 1 0 0 1.5h7.258a8.324 8.324 0 0 1-5.667 2.248c-.104 0-.209.004-.313 0A8.321 8.321 0 0 1 8.627 4.06 11.365 11.365 0 0 0 8.59 9h1.535a9.863 9.863 0 0 1 .292-5.715.76.76 0 0 0-.682-1.035.737.737 0 0 0-.13.012 9.822 9.822 0 0 0 1.368 19.486c.123.005.246 0 .368 0A9.78 9.78 0 0 0 19.034 18h2.716a.75.75 0 1 0 0-1.5Z"></path>
<path d="M20.25 15h-7.5a.75.75 0 1 1 0-1.5h7.5a.75.75 0 1 1 0 1.5Z"></path>
<path d="M18.75 12h-9a.75.75 0 1 1 0-1.5h9a.75.75 0 1 1 0 1.5Z"></path>
</svg>