<svg width="32" height="32" fill="currentColor" viewBox="0 0 24 24" xmlns="http://www.w3.org/2000/svg">
<path d="M14.25 21h-12a.75.75 0 1 1 0-1.5h12a.75.75 0 1 1 0 1.5Z"></path>
<path d="M11.25 15h-9a.75.75 0 1 1 0-1.5h9a.75.75 0 1 1 0 1.5Z"></path>
<path d="m21.466 18.903-2.121-2.122-1.06 1.06 2.12 2.122 1.061-1.06Z"></path>
<path d="M24 11.25h-3v1.5h3v-1.5Z"></path>
<path d="m20.405 4.035-2.12 2.121 1.06 1.06 2.121-2.12-1.06-1.061Z"></path>
<path d="M14.25 1.5h-1.5v3h1.5v-3Z"></path>
<path d="M5.534 5.097 7.655 7.22l1.06-1.06-2.12-2.122-1.061 1.06Z"></path>
<path d="M13.5 6a6.007 6.007 0 0 0-6 6H9a4.5 4.5 0 1 1 4.5 4.5H5.25a.75.75 0 1 0 0 1.5h8.25a6 6 0 1 0 0-12Z"></path>
</svg>