<svg width="32" height="32" fill="currentColor" viewBox="0 0 24 24" xmlns="http://www.w3.org/2000/svg">
<path d="M13.5 22.5V21a7.509 7.509 0 0 0 7.5-7.5h1.5a9.01 9.01 0 0 1-9 9Z"></path>
<path d="M13.5 19.5V18a4.504 4.504 0 0 0 4.5-4.5h1.5a6.007 6.007 0 0 1-6 6Z"></path>
<path d="M13.5 16.5V15a1.502 1.502 0 0 0 1.5-1.5h1.5a3.003 3.003 0 0 1-3 3Z"></path>
<path d="M7.5 1.5A6.758 6.758 0 0 0 .75 8.25h1.5a5.25 5.25 0 1 1 10.5 0 5.317 5.317 0 0 1-2.626 4.601l-.374.216v2.305a2.201 2.201 0 0 1-.676 1.614 3.137 3.137 0 0 1-3.474.772A3.069 3.069 0 0 1 3.75 15h-1.5a4.587 4.587 0 0 0 2.752 4.134 4.32 4.32 0 0 0 1.736.364 4.94 4.94 0 0 0 3.359-1.416 3.704 3.704 0 0 0 1.153-2.71v-1.457a6.83 6.83 0 0 0 3-5.665A6.758 6.758 0 0 0 7.5 1.5Z"></path>
<path d="M6.96 6.062a2.255 2.255 0 0 1 2.79 2.189h1.5a3.734 3.734 0 0 0-1.413-2.934 3.781 3.781 0 0 0-3.21-.717 3.712 3.712 0 0 0-2.778 2.777 3.774 3.774 0 0 0 1.728 4.094 2.308 2.308 0 0 1 1.173 1.972V15h1.5v-1.558a3.795 3.795 0 0 0-1.903-3.26 2.252 2.252 0 0 1 .613-4.12Z"></path>
</svg>