<svg width="32" height="32" fill="currentColor" viewBox="0 0 24 24" xmlns="http://www.w3.org/2000/svg">
<path d="M15.75 16.5a1.5 1.5 0 1 0 0-3 1.5 1.5 0 0 0 0 3Z"></path>
<path d="M10.5 10.5a1.5 1.5 0 1 0 0-3 1.5 1.5 0 0 0 0 3Z"></path>
<path d="M21.75 15a.75.75 0 1 0 0-1.5.75.75 0 0 0 0 1.5Z"></path>
<path d="M19.875 22.5a2.625 2.625 0 1 1 0-5.25 2.625 2.625 0 0 1 0 5.25Zm0-3.75a1.125 1.125 0 1 0 0 2.25 1.125 1.125 0 0 0 0-2.25Z"></path>
<path d="M10.5 22.5a2.967 2.967 0 0 1-1.595-.466 5.248 5.248 0 1 1 3.083-5.129A2.994 2.994 0 0 1 10.5 22.5Zm-1.414-2.27.405.37a1.493 1.493 0 1 0 1.503-2.507l-.519-.183.023-.634a3.756 3.756 0 1 0-1.887 3.226l.475-.273Z"></path>
<path d="M18 12a4.505 4.505 0 0 1-4.5-4.5c0-.133.007-.267.02-.4A2.967 2.967 0 0 1 12 4.5a3.004 3.004 0 0 1 4.508-2.594c.457.267.834.652 1.093 1.114A4.5 4.5 0 1 1 18 12Zm-3-9a1.501 1.501 0 0 0-1.5 1.5 1.485 1.485 0 0 0 1.072 1.427l.677.203-.162.687A2.995 2.995 0 1 0 18 4.5c-.23.003-.46.032-.684.087l-.687.16-.202-.675A1.485 1.485 0 0 0 15 3Z"></path>
<path d="M4.875 8.25a3.375 3.375 0 1 1 0-6.75 3.375 3.375 0 0 1 0 6.75Zm0-5.25a1.875 1.875 0 1 0 0 3.75 1.875 1.875 0 0 0 0-3.75Z"></path>
</svg>