<svg width="32" height="32" fill="currentColor" viewBox="0 0 24 24" xmlns="http://www.w3.org/2000/svg">
<path d="M16.5 13.5H15V15h1.5v-1.5Z"></path>
<path d="M22.5 12H21v1.5h1.5V12Z"></path>
<path d="M12 4.5h-1.5V6H12V4.5Z"></path>
<path d="M12 16.5H9V12a1.502 1.502 0 0 0-1.5-1.5H3A1.502 1.502 0 0 0 1.5 12v4.5A1.502 1.502 0 0 0 3 18h4.5v3A1.502 1.502 0 0 0 9 22.5h3a1.502 1.502 0 0 0 1.5-1.5v-3a1.502 1.502 0 0 0-1.5-1.5Zm-9 0V12h4.5v4.5H3ZM9 21v-3h3v3H9Z"></path>
<path d="M21 22.5h-3a1.502 1.502 0 0 1-1.5-1.5v-3a1.502 1.502 0 0 1 1.5-1.5h3a1.502 1.502 0 0 1 1.5 1.5v3a1.502 1.502 0 0 1-1.5 1.5ZM18 18v3h3v-3h-3Z"></path>
<path d="M21 1.5h-4.5A1.502 1.502 0 0 0 15 3v4.5h-1.5A1.502 1.502 0 0 0 12 9v1.5a1.502 1.502 0 0 0 1.5 1.5H15a1.502 1.502 0 0 0 1.5-1.5V9H21a1.502 1.502 0 0 0 1.5-1.5V3A1.502 1.502 0 0 0 21 1.5Zm-7.5 9V9H15v1.5h-1.5Zm3-3V3H21v4.5h-4.5Z"></path>
<path d="M6 7.5H3A1.502 1.502 0 0 1 1.5 6V3A1.502 1.502 0 0 1 3 1.5h3A1.502 1.502 0 0 1 7.5 3v3A1.502 1.502 0 0 1 6 7.5ZM3 3v3h3V3H3Z"></path>
</svg>