<svg width="32" height="32" fill="currentColor" viewBox="0 0 24 24" xmlns="http://www.w3.org/2000/svg">
<path d="M20.25 7.5h-4.5a2.253 2.253 0 0 0-2.25 2.25v4.5a1.502 1.502 0 0 0 1.5 1.5V21a1.502 1.502 0 0 0 1.5 1.5h3A1.502 1.502 0 0 0 21 21v-5.25a1.502 1.502 0 0 0 1.5-1.5v-4.5a2.253 2.253 0 0 0-2.25-2.25Zm.75 6.75h-1.5V21h-3v-6.75H15v-4.5a.75.75 0 0 1 .75-.75h4.5a.75.75 0 0 1 .75.75v4.5Z"></path>
<path d="M15 3.75a3 3 0 1 1 6 0 3 3 0 0 1-6 0Zm1.5 0a1.5 1.5 0 1 0 3 0 1.5 1.5 0 0 0-3 0Z"></path>
<path d="M10.5 12V9.75A2.253 2.253 0 0 0 8.25 7.5h-4.5A2.253 2.253 0 0 0 1.5 9.75V12H0v1.5h12V12h-1.5ZM3 9.75A.75.75 0 0 1 3.75 9h4.5a.75.75 0 0 1 .75.75V12H3V9.75Z"></path>
<path d="M3 3.75a3 3 0 1 1 6 0 3 3 0 0 1-6 0Zm1.5 0a1.5 1.5 0 1 0 3 0 1.5 1.5 0 0 0-3 0Z"></path>
</svg>