<svg width="32" height="32" fill="currentColor" viewBox="0 0 24 24" xmlns="http://www.w3.org/2000/svg">
<path d="M7.125 11.25a1.125 1.125 0 1 1 0 2.25 1.125 1.125 0 0 1 0-2.25Zm0-1.5a2.625 2.625 0 1 0 0 5.25 2.625 2.625 0 0 0 0-5.25Z"></path>
<path d="M18.75 10.498h-6a1.5 1.5 0 0 0-1.5 1.5v4.5H3v-8.55l9-4.845 9.398 5.055.704-1.32-9.75-5.25a.75.75 0 0 0-.704 0l-9.75 5.25a.75.75 0 0 0-.398.66v15H3v-4.5h18v4.5h1.5v-8.25a3.75 3.75 0 0 0-3.75-3.75Zm-6 6v-4.5h6a2.25 2.25 0 0 1 2.25 2.25v2.25h-8.25Z"></path>
</svg>