<svg width="32" height="32" fill="currentColor" viewBox="0 0 24 24" xmlns="http://www.w3.org/2000/svg">
<path d="M19.5 9a2.923 2.923 0 0 1-3-2.833 2.926 2.926 0 0 1 .49-1.548l1.888-2.808a.778.778 0 0 1 1.244 0l1.864 2.771a2.98 2.98 0 0 1 .514 1.585A2.923 2.923 0 0 1 19.5 9Zm0-5.428L18.258 5.42a1.42 1.42 0 0 0-.258.748 1.51 1.51 0 0 0 3 0 1.486 1.486 0 0 0-.281-.785L19.5 3.572Z"></path>
<path d="M17.625 22.5H6.375a4.872 4.872 0 0 1-.975-9.646 6.745 6.745 0 0 1 13.2 0 4.872 4.872 0 0 1-.976 9.646ZM11.998 9a5.25 5.25 0 0 0-5.206 4.609l-.074.61-.611.047A3.372 3.372 0 0 0 6.375 21h11.25a3.372 3.372 0 0 0 .267-6.734l-.612-.048-.074-.609A5.251 5.251 0 0 0 12 9Z"></path>
</svg>