<svg width="32" height="32" fill="currentColor" viewBox="0 0 24 24" xmlns="http://www.w3.org/2000/svg">
<path d="M19.5 16.5a2.97 2.97 0 0 0-1.515.424L13.061 12l4.925-4.925c.457.275.98.422 1.514.425a3 3 0 1 0-3-3c.003.534.15 1.057.425 1.514L12 10.94 7.076 6.015c.275-.458.421-.981.424-1.515a3 3 0 1 0-3 3 2.969 2.969 0 0 0 1.515-.424L10.939 12l-4.925 4.925A2.964 2.964 0 0 0 4.5 16.5a3 3 0 1 0 3 3 2.963 2.963 0 0 0-.425-1.514L12 13.06l4.924 4.924A2.968 2.968 0 0 0 16.5 19.5a3 3 0 1 0 3-3Zm0-13.5a1.5 1.5 0 1 1 0 3 1.5 1.5 0 0 1 0-3Zm-15 18a1.5 1.5 0 1 1 0-3 1.5 1.5 0 0 1 0 3Z"></path>
</svg>