<svg width="32" height="32" fill="currentColor" viewBox="0 0 24 24" xmlns="http://www.w3.org/2000/svg">
<path d="M16.59 7.409a2.25 2.25 0 0 0-3.181 0l-.349.348 1.061 1.06.349-.347a.75.75 0 1 1 1.06 1.06L13.06 12l1.061 1.06 2.47-2.47a2.25 2.25 0 0 0 0-3.181Z"></path>
<path d="M9.53 15.528a.75.75 0 1 1-1.06-1.06l2.47-2.47-1.061-1.06-2.47 2.47a2.25 2.25 0 1 0 3.182 3.181l.349-.348-1.061-1.06-.349.348Z"></path>
<path d="M10.59 7.41a2.25 2.25 0 0 0-3.181 3.182l.348.348 1.06-1.06-.347-.349a.75.75 0 0 1 1.06-1.06L12 10.94l1.06-1.062-2.47-2.47Z"></path>
<path d="m16.591 13.41-.348-.348-1.06 1.061.347.349a.75.75 0 1 1-1.06 1.06L12 13.062l-1.06 1.061 2.47 2.47a2.25 2.25 0 0 0 3.181-3.182Z"></path>
<path d="M12 23.25a.749.749 0 0 1-.378-.102l-9-5.25a.75.75 0 0 1-.372-.648V6.75a.75.75 0 0 1 .372-.648l9-5.25a.75.75 0 0 1 .756 0l9 5.25-.756 1.296L12 2.368 3.75 7.181v9.638L12 21.632l8.25-4.813V11.25h1.5v6a.75.75 0 0 1-.372.648l-9 5.25a.749.749 0 0 1-.378.102Z"></path>
</svg>