<svg width="32" height="32" fill="currentColor" viewBox="0 0 24 24" xmlns="http://www.w3.org/2000/svg">
<path d="m16.773 16.023-1.06-1.06a5.25 5.25 0 0 0 0-7.425l1.06-1.061a6.75 6.75 0 0 1 0 9.546Z"></path>
<path d="m14.651 13.905-1.06-1.06a2.253 2.253 0 0 0 0-3.183l1.06-1.06a3.754 3.754 0 0 1 0 5.303Z"></path>
<path d="M12.75 19.5h-1.5v-8.25a.75.75 0 0 1 .75-.75.75.75 0 0 1 .75.75v8.25Z"></path>
<path d="M9.349 13.905a3.754 3.754 0 0 1 0-5.303l1.06 1.06a2.253 2.253 0 0 0 0 3.182l-1.06 1.06Z"></path>
<path d="M7.227 16.023a6.75 6.75 0 0 1 0-9.546l1.06 1.06a5.25 5.25 0 0 0 0 7.425l-1.06 1.06Z"></path>
<path d="M12 23.25a.749.749 0 0 1-.378-.102l-9-5.25a.75.75 0 0 1-.372-.648V6.75a.75.75 0 0 1 .372-.648l9-5.25a.75.75 0 0 1 .756 0l9 5.25-.756 1.296L12 2.368 3.75 7.181v9.638L12 21.632l8.25-4.813V11.25h1.5v6a.75.75 0 0 1-.372.648l-9 5.25a.749.749 0 0 1-.378.102Z"></path>
</svg>