<svg width="32" height="32" fill="currentColor" viewBox="0 0 24 24" xmlns="http://www.w3.org/2000/svg">
<path d="M3.75 18.75a1.5 1.5 0 1 0 0 3 1.5 1.5 0 0 0 0-3Z"></path>
<path d="M12 18.75a1.5 1.5 0 1 0 0 3 1.5 1.5 0 0 0 0-3Z"></path>
<path d="M20.25 18.75a1.5 1.5 0 1 0 0 3 1.5 1.5 0 0 0 0-3Z"></path>
<path d="M21 17.25h-1.5v-9a1.505 1.505 0 0 0-1.5-1.5h-1.5v-1.5H18a3.009 3.009 0 0 1 3 3v9Z"></path>
<path d="M12.75 9h-1.5v8.25h1.5V9Z"></path>
<path d="M4.5 17.25H3v-9a3.009 3.009 0 0 1 3-3h1.5v1.5H6a1.504 1.504 0 0 0-1.5 1.5v9Z"></path>
<path d="m12 1.5-.975 1.976-2.18.315 1.578 1.538L10.05 7.5 12 6.476 13.95 7.5l-.373-2.17 1.577-1.537-2.179-.317L12 1.5Z"></path>
</svg>