<svg width="32" height="32" fill="currentColor" viewBox="0 0 24 24" xmlns="http://www.w3.org/2000/svg">
<path d="M17.25 12a.75.75 0 1 0 0-1.5.75.75 0 0 0 0 1.5Z"></path>
<path d="M6 12a.75.75 0 1 0 0-1.5.75.75 0 0 0 0 1.5Z"></path>
<path d="M15.75 8.25a.75.75 0 1 0 0-1.5.75.75 0 0 0 0 1.5Z"></path>
<path d="M11.25 18a.75.75 0 1 0 0-1.5.75.75 0 0 0 0 1.5Z"></path>
<path d="M15.75 14.247c-.13.002-.259.02-.384.056l-1.336-1.336-.02.019a2.21 2.21 0 0 0 .24-.99A2.252 2.252 0 0 0 12 9.747a2.223 2.223 0 0 0-.99.24l.02-.02-1.336-1.335a1.526 1.526 0 1 0-1.06 1.06l1.336 1.336.019-.02a2.222 2.222 0 0 0-.24.99 2.252 2.252 0 0 0 2.25 2.25 2.21 2.21 0 0 0 .99-.24l-.02.02 1.337 1.336a1.497 1.497 0 1 0 1.444-1.116Zm-3.75-1.5a.75.75 0 1 1 0-1.5.75.75 0 0 1 0 1.5Z"></path>
<path d="M12 23.25a.749.749 0 0 1-.378-.102l-9-5.25a.75.75 0 0 1-.372-.648V6.75a.75.75 0 0 1 .372-.648l9-5.25a.75.75 0 0 1 .756 0l9 5.25-.756 1.296L12 2.368 3.75 7.181v9.638L12 21.632l8.25-4.813V11.25h1.5v6a.75.75 0 0 1-.372.648l-9 5.25a.749.749 0 0 1-.378.102Z"></path>
</svg>