<svg width="32" height="32" fill="currentColor" viewBox="0 0 24 24" xmlns="http://www.w3.org/2000/svg">
<path d="M6.75 5.25a.75.75 0 1 0 0-1.5.75.75 0 0 0 0 1.5Z"></path>
<path d="M19.5 1.5h-15A1.5 1.5 0 0 0 3 3v3a1.5 1.5 0 0 0 1.5 1.5h6.75v3h1.5v-3h6.75A1.5 1.5 0 0 0 21 6V3a1.5 1.5 0 0 0-1.5-1.5Zm0 4.5h-15V3h15v3Z"></path>
<path d="M12.75 21v-1.5h-1.5V21H3v1.5h18V21h-8.25Z"></path>
<path d="M6.75 15.75a.75.75 0 1 0 0-1.5.75.75 0 0 0 0 1.5Z"></path>
<path d="M4.5 18h15a1.5 1.5 0 0 0 1.5-1.5v-3a1.5 1.5 0 0 0-1.5-1.5h-15A1.5 1.5 0 0 0 3 13.5v3A1.5 1.5 0 0 0 4.5 18Zm0-4.5h15v3h-15v-3Z"></path>
</svg>