<svg width="32" height="32" fill="currentColor" viewBox="0 0 24 24" xmlns="http://www.w3.org/2000/svg">
<path d="M12 17.796a4.505 4.505 0 0 1-4.5-4.5V8.453l4.5-2.25 4.5 2.25v4.843a4.505 4.505 0 0 1-4.5 4.5ZM9 9.38v3.916a3 3 0 0 0 6 0V9.38l-3-1.5-3 1.5Z"></path>
<path d="M12 23.25a.749.749 0 0 1-.378-.102l-9-5.25a.75.75 0 0 1-.372-.648V6.75a.75.75 0 0 1 .372-.648l9-5.25a.75.75 0 0 1 .756 0l9 5.25-.756 1.296L12 2.368 3.75 7.181v9.638L12 21.632l8.25-4.813V11.25h1.5v6a.75.75 0 0 1-.372.648l-9 5.25a.749.749 0 0 1-.378.102Z"></path>
</svg>