<svg width="32" height="32" fill="currentColor" viewBox="0 0 24 24" xmlns="http://www.w3.org/2000/svg">
<path d="M15.75 16.5h-4.5a1.502 1.502 0 0 1-1.5-1.5v-3a1.502 1.502 0 0 1 1.5-1.5h4.5a1.502 1.502 0 0 1 1.5 1.5v3a1.502 1.502 0 0 1-1.5 1.5Zm-4.5-4.5v3h4.5v-3h-4.5Z"></path>
<path d="M8.25 12.75h-1.5V9a1.502 1.502 0 0 1 1.5-1.5h4.5V9h-4.5v3.75Z"></path>
<path d="M12 23.25a.749.749 0 0 1-.378-.102l-9-5.25a.75.75 0 0 1-.372-.648V6.75a.75.75 0 0 1 .372-.648l9-5.25a.75.75 0 0 1 .756 0l9 5.25-.756 1.296L12 2.368 3.75 7.181v9.638L12 21.632l8.25-4.813V11.25h1.5v6a.75.75 0 0 1-.372.648l-9 5.25a.749.749 0 0 1-.378.102Z"></path>
</svg>