<svg width="32" height="32" fill="currentColor" viewBox="0 0 24 24" xmlns="http://www.w3.org/2000/svg">
<path d="M10.5 18a.75.75 0 0 1-.721-.544L8.434 12.75H6v-1.5h3a.75.75 0 0 1 .721.544l.779 2.726 2.279-7.976a.75.75 0 0 1 1.442 0l1.345 4.706H18v1.5h-3a.75.75 0 0 1-.721-.544L13.5 9.48l-2.279 7.976A.75.75 0 0 1 10.5 18Z"></path>
<path d="M12 23.25a.749.749 0 0 1-.378-.102l-9-5.25a.75.75 0 0 1-.372-.648V6.75a.75.75 0 0 1 .372-.648l9-5.25a.75.75 0 0 1 .756 0l9 5.25-.756 1.296L12 2.368 3.75 7.181v9.638L12 21.632l8.25-4.813V11.25h1.5v6a.75.75 0 0 1-.372.648l-9 5.25a.749.749 0 0 1-.378.102Z"></path>
</svg>