<svg width="32" height="32" fill="currentColor" viewBox="0 0 24 24" xmlns="http://www.w3.org/2000/svg">
<path d="M19.5 16.5a2.705 2.705 0 0 0-1.5.45l-3.439-3.45-1.06 1.06L16.95 18a3.134 3.134 0 0 0-.3.75H7.393A2.664 2.664 0 0 0 7.05 18L18 7.05c.445.295.967.451 1.5.45a3 3 0 1 0-2.892-3.75H7.425A3.059 3.059 0 0 0 4.5 1.5a3 3 0 1 0 0 6A2.705 2.705 0 0 0 6 7.05l3.44 3.45 1.06-1.06L7.05 6a3.12 3.12 0 0 0 .3-.75h9.257c.075.266.19.52.343.75L6 16.95a2.705 2.705 0 0 0-1.5-.45 3 3 0 1 0 2.893 3.75h9.182A3.01 3.01 0 1 0 19.5 16.5Zm0-13.5a1.5 1.5 0 1 1 0 3 1.5 1.5 0 0 1 0-3Zm-15 3a1.5 1.5 0 1 1 0-3 1.5 1.5 0 0 1 0 3Zm0 15a1.5 1.5 0 1 1 0-3 1.5 1.5 0 0 1 0 3Zm15 0a1.5 1.5 0 1 1 0-3 1.5 1.5 0 0 1 0 3Z"></path>
</svg>