<svg width="32" height="32" fill="currentColor" viewBox="0 0 24 24" xmlns="http://www.w3.org/2000/svg">
<path d="m11.56 8.627-1.06 1.06 1.94 1.94 1.06-1.06-1.94-1.94Z"></path>
<path d="m11.56 12.377-1.06 1.06 1.94 1.94 1.06-1.06-1.94-1.94Z"></path>
<path d="M14.25 18h-4.5a1.502 1.502 0 0 1-1.5-1.5v-9A1.502 1.502 0 0 1 9.75 6h4.5a1.502 1.502 0 0 1 1.5 1.5v9a1.502 1.502 0 0 1-1.5 1.5ZM9.75 7.5v9h4.5v-9h-4.5Z"></path>
<path d="M12 23.25a.749.749 0 0 1-.378-.102l-9-5.25a.75.75 0 0 1-.372-.648V6.75a.75.75 0 0 1 .372-.648l9-5.25a.75.75 0 0 1 .756 0l9 5.25-.756 1.296L12 2.368 3.75 7.181v9.638L12 21.632l8.25-4.813V11.25h1.5v6a.75.75 0 0 1-.372.648l-9 5.25a.749.749 0 0 1-.378.102Z"></path>
</svg>