<svg width="32" height="32" fill="currentColor" viewBox="0 0 24 24" xmlns="http://www.w3.org/2000/svg">
<path d="m19.425 15.675 2.625-2.625a1.45 1.45 0 0 0 0-2.1l-3.975-3.975 1.05-1.05c.115.06.245.087.375.075A1.5 1.5 0 1 0 18 4.5c-.012.13.014.26.075.375L13.5 9.45a2.725 2.725 0 0 0-3 0L8.025 6.975 12 3l2.625 2.625 1.05-1.05L13.05 1.95a1.45 1.45 0 0 0-2.1 0L6.975 5.925l-1.05-1.05A.676.676 0 0 0 6 4.5 1.5 1.5 0 1 0 4.5 6c.13.012.26-.014.375-.075L9.45 10.5a2.725 2.725 0 0 0 0 3l-2.475 2.475L3 12l2.625-2.625-1.05-1.05L1.95 10.95a1.45 1.45 0 0 0 0 2.1l3.975 3.975-1.05 1.05A.676.676 0 0 0 4.5 18 1.5 1.5 0 1 0 6 19.5a.676.676 0 0 0-.075-.375L10.5 14.55a2.725 2.725 0 0 0 3 0l2.475 2.475L12 21l-2.625-2.625-1.05 1.05 2.625 2.625a1.45 1.45 0 0 0 2.1 0l3.975-3.975 1.05 1.05c0 .15-.075.225-.075.375a1.5 1.5 0 1 0 1.5-1.5.676.676 0 0 0-.375.075L14.55 13.5a2.724 2.724 0 0 0 0-3l2.475-2.475L21 12l-2.625 2.625 1.05 1.05ZM12 13.5a1.5 1.5 0 1 1 0-3 1.5 1.5 0 0 1 0 3Z"></path>
</svg>