<svg width="32" height="32" fill="currentColor" viewBox="0 0 24 24" xmlns="http://www.w3.org/2000/svg">
<path d="M19.5 15.002a2.228 2.228 0 0 0-1.392.495L16.5 14.57v-1.206a2.25 2.25 0 1 0-1.5 0v1.206l-1.609.928A2.228 2.228 0 0 0 12 15.002a2.265 2.265 0 1 0 2.194 1.764l1.556-.898 1.556.898a2.248 2.248 0 1 0 2.194-1.764Zm-7.5 3a.75.75 0 1 1 0-1.5.75.75 0 0 1 0 1.5Zm3.75-7.5a.75.75 0 1 1 0 1.5.75.75 0 0 1 0-1.5Zm3.75 7.5a.75.75 0 1 1 0-1.5.75.75 0 0 1 0 1.5Z"></path>
<path d="M12 23.253a8.26 8.26 0 0 1-8.25-8.25V4.79L11.99.664l7.846 3.928-.672 1.341-7.174-3.591-6.74 3.374v9.287a6.75 6.75 0 0 0 10.8 5.4l.9 1.2a8.181 8.181 0 0 1-4.95 1.65Z"></path>
</svg>