<svg width="32" height="32" fill="currentColor" viewBox="0 0 24 24" xmlns="http://www.w3.org/2000/svg">
<path d="M15 20.25H5.25a1.505 1.505 0 0 1-1.5-1.5V9h1.5v9.75H15v1.5Z"></path>
<path d="m17.55 16.5-3-3c.295-.445.451-.967.45-1.5a3.009 3.009 0 0 0-3-3 2.704 2.704 0 0 0-1.5.45l-3-3V1.5h-6v6h4.95l3 3A2.704 2.704 0 0 0 9 12a3.009 3.009 0 0 0 3 3 2.704 2.704 0 0 0 1.5-.45l3 3v4.95h6v-6h-4.95ZM6 6H3V3h3v3Zm6 7.5a1.5 1.5 0 1 1 0-3 1.5 1.5 0 0 1 0 3Zm9 7.5h-3v-3h3v3Z"></path>
<path d="M18.75 15h1.5V5.25a1.505 1.505 0 0 0-1.5-1.5H9v1.5h9.75V15Z"></path>
</svg>