<svg width="32" height="32" fill="currentColor" viewBox="0 0 24 24" xmlns="http://www.w3.org/2000/svg">
<path d="M15 15v1.5h3.915a8.262 8.262 0 0 1-8.978 3.49l-.374 1.453A9.749 9.749 0 0 0 19.5 18.22V21H21v-6h-6Z"></path>
<path d="M18.75 2.25a3.003 3.003 0 0 0-3 3c.003.534.15 1.057.425 1.514l-9.41 9.411a2.964 2.964 0 0 0-1.515-.425 3 3 0 1 0 3 3 2.965 2.965 0 0 0-.425-1.514l9.41-9.411c.458.275.981.422 1.515.425a3 3 0 1 0 0-6Zm-13.5 18a1.5 1.5 0 1 1 0-3 1.5 1.5 0 0 1 0 3Zm13.5-13.5a1.5 1.5 0 1 1 0-3 1.5 1.5 0 0 1 0 3Z"></path>
<path d="M12 2.25a9.78 9.78 0 0 0-7.5 3.53V3H3v6h6V7.5H5.085a8.262 8.262 0 0 1 8.977-3.49l.375-1.453A9.778 9.778 0 0 0 12 2.25Z"></path>
</svg>