<svg width="32" height="32" fill="currentColor" viewBox="0 0 24 24" xmlns="http://www.w3.org/2000/svg">
<path d="M20.849 7.5a7.5 7.5 0 0 0-14.715.092 5.622 5.622 0 0 0 .991 11.157H8.25v-1.5H7.125a4.122 4.122 0 0 1-.283-8.234l.628-.043.067-.625a5.995 5.995 0 0 1 11.766-.848h1.546Z"></path>
<path d="M20.25 18a2.229 2.229 0 0 0-1.444.54l-3.076-1.846c.006-.065.02-.127.02-.194 0-.066-.014-.128-.02-.192l3.077-1.846c.402.345.913.536 1.443.538a2.266 2.266 0 1 0-2.208-1.829l-2.934 1.76a2.25 2.25 0 1 0 0 3.138l2.934 1.761A2.248 2.248 0 1 0 20.25 18Zm0-6a.75.75 0 1 1 0 1.501.75.75 0 0 1 0-1.5Zm-6.75 5.25a.75.75 0 1 1 0-1.5.75.75 0 0 1 0 1.5ZM20.25 21a.75.75 0 1 1 0-1.5.75.75 0 0 1 0 1.5Z"></path>
</svg>