<svg width="32" height="32" fill="currentColor" viewBox="0 0 24 24" xmlns="http://www.w3.org/2000/svg">
<path d="M11.25 15h-4.5a2.25 2.25 0 0 0-2.25 2.25v1.5H6v-1.5a.75.75 0 0 1 .75-.75h4.5a.75.75 0 0 1 .75.75v1.5h1.5v-1.5A2.25 2.25 0 0 0 11.25 15Z"></path>
<path d="M9 14.25a3 3 0 1 0 0-5.999 3 3 0 0 0 0 5.999Zm0-4.5a1.5 1.5 0 1 1 0 3 1.5 1.5 0 0 1 0-3Z"></path>
<path d="M21 14.25V21H3V6h9V4.5H3A1.5 1.5 0 0 0 1.5 6v15A1.5 1.5 0 0 0 3 22.5h18a1.5 1.5 0 0 0 1.5-1.5v-6.75H21Z"></path>
<path d="M19.5 14.25H15v1.5h4.5v-1.5Z"></path>
<path d="M19.5 17.25h-3v1.5h3v-1.5Z"></path>
<path d="M24 7.5V6h-1.576a3.725 3.725 0 0 0-.549-1.315l1.118-1.117-1.06-1.06-1.118 1.117a3.726 3.726 0 0 0-1.315-.55V1.5H18v1.576c-.47.097-.916.283-1.315.549l-1.117-1.118-1.06 1.06 1.117 1.118A3.727 3.727 0 0 0 15.075 6H13.5v1.5h1.576c.096.47.283.916.549 1.315l-1.118 1.117 1.06 1.06 1.118-1.117c.4.266.846.453 1.315.55V12h1.5v-1.576c.47-.096.916-.283 1.315-.549l1.117 1.118 1.06-1.06-1.117-1.118c.266-.4.453-.846.55-1.315H24ZM18.75 9a2.25 2.25 0 1 1 0-4.5 2.25 2.25 0 0 1 0 4.5Z"></path>
</svg>