<svg width="32" height="32" fill="currentColor" viewBox="0 0 24 24" xmlns="http://www.w3.org/2000/svg">
<path d="M15.75 18h-7.5v1.5h7.5V18Z"></path>
<path d="M14.25 21h-4.5v1.5h4.5V21Z"></path>
<path d="M12 1.5A7.5 7.5 0 0 0 4.5 9a6.892 6.892 0 0 0 2.595 5.715c.75.697 1.155 1.095 1.155 1.785h1.5c0-1.38-.833-2.152-1.643-2.895A5.4 5.4 0 0 1 6 9a6 6 0 1 1 12 0 5.4 5.4 0 0 1-2.115 4.605c-.803.75-1.635 1.5-1.635 2.895h1.5c0-.69.397-1.088 1.155-1.793A6.884 6.884 0 0 0 19.5 9 7.5 7.5 0 0 0 12 1.5Z"></path>
</svg>