<svg width="32" height="32" fill="currentColor" viewBox="0 0 24 24" xmlns="http://www.w3.org/2000/svg">
<path d="M21 4.5v15H3v-15h18ZM21 3H3a1.5 1.5 0 0 0-1.5 1.5v15A1.5 1.5 0 0 0 3 21h18a1.5 1.5 0 0 0 1.5-1.5v-15A1.5 1.5 0 0 0 21 3Z"></path>
<path d="M9.75 7.5H4.5V9h5.25V7.5Z"></path>
<path d="M7.5 10.5h-3V12h3v-1.5Z"></path>
<path d="M17.25 13.5h-4.5a2.25 2.25 0 0 0-2.25 2.25v1.5H12v-1.5a.75.75 0 0 1 .75-.75h4.5a.75.75 0 0 1 .75.75v1.5h1.5v-1.5a2.25 2.25 0 0 0-2.25-2.25Z"></path>
<path d="M15 12.75a3 3 0 1 0 0-5.999 3 3 0 0 0 0 5.999Zm0-4.5a1.5 1.5 0 1 1 0 3 1.5 1.5 0 0 1 0-3Z"></path>
</svg>