<svg width="32" height="32" fill="currentColor" viewBox="0 0 24 24" xmlns="http://www.w3.org/2000/svg">
<path d="M7.5 12a4.493 4.493 0 0 0 7.103 3.664L18.44 19.5l1.061-1.06-3.836-3.836a4.5 4.5 0 0 0-4.389-7.046A4.498 4.498 0 0 0 7.5 12ZM9 12a3 3 0 1 1 6 0 3 3 0 0 1-6 0Z"></path>
<path d="M21.75 5.25h-4.845l-1.283-1.913A.746.746 0 0 0 15 3H9a.746.746 0 0 0-.623.337L7.095 5.25H2.25A.752.752 0 0 0 1.5 6v12.75a.753.753 0 0 0 .75.75H9V18H3V6.75h4.5a.746.746 0 0 0 .623-.338L9.405 4.5h5.19l1.282 1.912a.746.746 0 0 0 .623.338H21v9h1.5V6a.752.752 0 0 0-.75-.75Z"></path>
</svg>