<svg width="32" height="32" fill="currentColor" viewBox="0 0 24 24" xmlns="http://www.w3.org/2000/svg">
<path d="M3 15v1.5h3.44L1.5 21.44l1.06 1.06 4.94-4.94V21H9v-6H3Z"></path>
<path d="M14.25 10.5a2.25 2.25 0 1 0 0-4.5 2.25 2.25 0 0 0 0 4.5Zm0-3a.75.75 0 1 1 0 1.5.75.75 0 0 1 0-1.5Z"></path>
<path d="M19.5 3h-15A1.5 1.5 0 0 0 3 4.5V12h1.5V4.5h15v11.377l-2.692-2.692a1.5 1.5 0 0 0-2.115 0L13.5 14.377 8.873 9.75l-1.061 1.062L10.5 13.5l1.943 1.943a1.5 1.5 0 0 0 2.114 0l1.193-1.193L19.5 18v1.5H12V21h7.5a1.5 1.5 0 0 0 1.5-1.5v-15A1.5 1.5 0 0 0 19.5 3Z"></path>
</svg>