<svg width="32" height="32" fill="currentColor" viewBox="0 0 24 24" xmlns="http://www.w3.org/2000/svg">
<path d="M21 15h-1.5v1.5H21V21H3v-4.5h1.5V15H3a1.502 1.502 0 0 0-1.5 1.5V21A1.502 1.502 0 0 0 3 22.5h18a1.502 1.502 0 0 0 1.5-1.5v-4.5A1.502 1.502 0 0 0 21 15Z"></path>
<path d="M5.25 19.5a.75.75 0 1 0 0-1.5.75.75 0 0 0 0 1.5Z"></path>
<path d="M11.25 3h-1.5v6h1.5V3Z"></path>
<path d="M8.25 3h-1.5v6h1.5V3Z"></path>
<path d="M15.75 9h-1.5a1.502 1.502 0 0 1-1.5-1.5v-3a1.502 1.502 0 0 1 1.5-1.5h1.5a1.502 1.502 0 0 1 1.5 1.5v3a1.502 1.502 0 0 1-1.5 1.5Zm-1.5-4.5v3h1.5v-3h-1.5Z"></path>
<path d="M17.25 10.5h-1.5v6h1.5v-6Z"></path>
<path d="M8.25 10.5h-1.5v6h1.5v-6Z"></path>
<path d="M12.75 16.5h-1.5a1.502 1.502 0 0 1-1.5-1.5v-3a1.502 1.502 0 0 1 1.5-1.5h1.5a1.502 1.502 0 0 1 1.5 1.5v3a1.502 1.502 0 0 1-1.5 1.5Zm-1.5-4.5v3h1.5v-3h-1.5Z"></path>
</svg>