<svg width="32" height="32" fill="currentColor" viewBox="0 0 24 24" xmlns="http://www.w3.org/2000/svg">
<path d="M3 16.5H1.5V3A1.502 1.502 0 0 1 3 1.5h13.5V3H3v13.5Z"></path>
<path d="M15.75 12.75a2.25 2.25 0 1 0 0-4.5 2.25 2.25 0 0 0 0 4.5Zm0-3a.75.75 0 1 1 0 1.5.75.75 0 0 1 0-1.5Z"></path>
<path d="M21 5.25H6.75a1.502 1.502 0 0 0-1.5 1.5V21a1.502 1.502 0 0 0 1.5 1.5H21a1.502 1.502 0 0 0 1.5-1.5V6.75a1.502 1.502 0 0 0-1.5-1.5ZM21 21H6.75v-4.5l3-2.998 4.19 4.19a1.5 1.5 0 0 0 2.12 0l1.19-1.19L21 20.25V21Zm0-2.871-2.69-2.69a1.5 1.5 0 0 0-2.12 0L15 16.63l-4.19-4.19a1.5 1.5 0 0 0-2.12 0l-1.94 1.94V6.75H21v11.379Z"></path>
</svg>