<svg width="32" height="32" fill="currentColor" viewBox="0 0 24 24" xmlns="http://www.w3.org/2000/svg">
<path d="M18 10.5a4.492 4.492 0 0 0-3.664 7.103L10.5 21.44l1.06 1.061 3.837-3.836A4.499 4.499 0 1 0 18 10.5Zm0 7.5a3 3 0 1 1 0-5.999A3 3 0 0 1 18 18Z"></path>
<path d="M12.75 9a2.25 2.25 0 1 0 0-4.5 2.25 2.25 0 0 0 0 4.5Zm0-3a.75.75 0 1 1 0 1.5.75.75 0 0 1 0-1.5Z"></path>
<path d="M9 18H3v-4.503L6.75 9.75l4.19 4.19L12 12.875l-4.19-4.19a1.5 1.5 0 0 0-2.12 0L3 11.377V3h15v4.5h1.5V3A1.502 1.502 0 0 0 18 1.5H3A1.502 1.502 0 0 0 1.5 3v15A1.502 1.502 0 0 0 3 19.5h6V18Z"></path>
</svg>