<svg width="32" height="32" fill="currentColor" viewBox="0 0 24 24" xmlns="http://www.w3.org/2000/svg">
<path d="M10.5 19.5a9 9 0 1 1 0-18v18Z"></path>
<path d="M13.37 3.573a7.52 7.52 0 0 1 2.43 1.626l1.06-1.06a9.027 9.027 0 0 0-2.917-1.952l-.574 1.386Z"></path>
<path d="M19.5 10.498a8.947 8.947 0 0 0-.688-3.443l-1.385.574c.378.909.573 1.884.573 2.869h1.5Z"></path>
<path d="M22.5 18a4.5 4.5 0 1 0-9 0 4.5 4.5 0 0 0 9 0ZM21 18a2.965 2.965 0 0 1-.425 1.514l-4.09-4.089A2.975 2.975 0 0 1 18 15a3.003 3.003 0 0 1 3 3Zm-6 0c.003-.534.15-1.057.425-1.514l4.09 4.089A2.975 2.975 0 0 1 18 21a3.003 3.003 0 0 1-3-3Z"></path>
</svg>