<svg width="32" height="32" fill="currentColor" viewBox="0 0 24 24" xmlns="http://www.w3.org/2000/svg">
<path d="m17.823 5.143.964-1.148a10.482 10.482 0 0 0-3.137-1.83l-.512 1.407a8.98 8.98 0 0 1 2.685 1.571Z"></path>
<path d="m20.858 10.497 1.475-.31a10.419 10.419 0 0 0-1.228-3.406l-1.298.716a9.39 9.39 0 0 1 1.05 3Z"></path>
<path d="m15.138 20.43.512 1.409a10.48 10.48 0 0 0 3.137-1.831l-.964-1.149a8.98 8.98 0 0 1-2.685 1.571Z"></path>
<path d="m19.807 16.497 1.298.75a10.604 10.604 0 0 0 1.229-3.44l-1.476-.26a9.112 9.112 0 0 1-1.051 2.95Z"></path>
<path d="M12 22.5v-21a10.5 10.5 0 0 0 0 21Z"></path>
</svg>