<svg width="32" height="32" fill="currentColor" viewBox="0 0 24 24" xmlns="http://www.w3.org/2000/svg">
<path d="M22.5 2.56 21.44 1.5 1.5 21.44l1.06 1.06 2.583-2.582A10.471 10.471 0 0 0 19.917 5.143L22.5 2.561ZM21 12a8.98 8.98 0 0 1-14.8 6.86l5.05-5.05v2.69h-1.5V18H15v-1.5h-2.25v-4.19l6.11-6.109A8.923 8.923 0 0 1 21 12Z"></path>
<path d="M12 6a1.125 1.125 0 1 0 0 2.25A1.125 1.125 0 0 0 12 6Z"></path>
<path d="M4.253 16.564A8.987 8.987 0 0 1 16.564 4.253l1.091-1.09A10.489 10.489 0 0 0 3.162 17.654l1.09-1.09Z"></path>
</svg>