<svg width="32" height="32" fill="currentColor" viewBox="0 0 24 24" xmlns="http://www.w3.org/2000/svg">
<path d="M5.25 18a.75.75 0 1 0 0-1.5.75.75 0 0 0 0 1.5Z"></path>
<path d="M4.5 4.5h-3V6h3V4.5Z"></path>
<path d="M9 4.5H6V6h3V4.5Z"></path>
<path d="M13.5 4.5h-3V6h3V4.5Z"></path>
<path d="M18 4.5h-3V6h3V4.5Z"></path>
<path d="M22.5 4.5h-3V6h3V4.5Z"></path>
<path d="M21 21H3a1.502 1.502 0 0 1-1.5-1.5V15A1.502 1.502 0 0 1 3 13.5h18a1.502 1.502 0 0 1 1.5 1.5v4.5A1.502 1.502 0 0 1 21 21ZM3 15v4.5h18V15H3Z"></path>
<path d="M22.5 9h-21v1.5h21V9Z"></path>
</svg>