<svg width="32" height="32" fill="currentColor" viewBox="0 0 24 24" xmlns="http://www.w3.org/2000/svg">
<path d="M17.625 15.75h-.375v-1.5h.375a3.373 3.373 0 0 0 .267-6.736l-.611-.048-.074-.609a5.245 5.245 0 0 0-10.413 0l-.074.61-.612.047a3.373 3.373 0 0 0 .267 6.736h.375v1.5h-.375A4.873 4.873 0 0 1 5.4 6.102a6.746 6.746 0 0 1 13.2 0 4.873 4.873 0 0 1-.975 9.648Z"></path>
<path d="M6.75 21a.75.75 0 1 0 0-1.5.75.75 0 0 0 0 1.5Z"></path>
<path d="M19.5 17.25h-6.75v-5.377l1.943 1.934 1.057-1.057L12 9l-3.75 3.75 1.057 1.057 1.943-1.934v5.377H4.5a1.502 1.502 0 0 0-1.5 1.5v3a1.502 1.502 0 0 0 1.5 1.5h15a1.502 1.502 0 0 0 1.5-1.5v-3a1.502 1.502 0 0 0-1.5-1.5Zm0 4.5h-15v-3h15v3Z"></path>
</svg>