<svg width="32" height="32" fill="currentColor" viewBox="0 0 24 24" xmlns="http://www.w3.org/2000/svg">
<path d="M9 3.75A2.253 2.253 0 0 0 6.75 1.5H3v9.75h3.75A2.253 2.253 0 0 0 9 9V7.875a2.233 2.233 0 0 0-.585-1.5c.375-.41.583-.945.585-1.5V3.75ZM4.5 3h2.25a.751.751 0 0 1 .75.75v1.163a.72.72 0 0 1-.75.712H4.5V3Zm3 6a.75.75 0 0 1-.75.75H4.5V7.125h2.25a.75.75 0 0 1 .75.75V9Z"></path>
<path d="M16.5 3.75H15l-1.5 2.923L12 3.75h-1.5l2.179 3.75-2.179 3.75H12l1.5-2.85 1.5 2.85h1.5L14.323 7.5 16.5 3.75Z"></path>
<path d="M6.75 21a.75.75 0 1 0 0-1.5.75.75 0 0 0 0 1.5Z"></path>
<path d="M4.5 13.5h-3V15h3v-1.5Z"></path>
<path d="M9 13.5H6V15h3v-1.5Z"></path>
<path d="M13.5 13.5h-3V15h3v-1.5Z"></path>
<path d="M18 13.5h-3V15h3v-1.5Z"></path>
<path d="M22.5 13.5h-3V15h3v-1.5Z"></path>
<path d="M19.5 23.25h-15a1.502 1.502 0 0 1-1.5-1.5v-3a1.502 1.502 0 0 1 1.5-1.5h15a1.502 1.502 0 0 1 1.5 1.5v3a1.502 1.502 0 0 1-1.5 1.5Zm-15-4.5v3h15v-3h-15Z"></path>
</svg>