<svg width="32" height="32" fill="currentColor" viewBox="0 0 24 24" xmlns="http://www.w3.org/2000/svg">
<path d="M6.75 21a.75.75 0 1 0 0-1.5.75.75 0 0 0 0 1.5Z"></path>
<path d="M16.5 3.75H15l-1.5 2.923L12 3.75h-1.5l2.179 3.75-2.179 3.75H12l1.5-2.85 1.5 2.85h1.5L14.323 7.5 16.5 3.75Z"></path>
<path d="M9 11.25H4.5A1.502 1.502 0 0 1 3 9.75V3a1.502 1.502 0 0 1 1.5-1.5H9V3H4.5v6.75H9v1.5Z"></path>
<path d="M4.5 13.5h-3V15h3v-1.5Z"></path>
<path d="M9 13.5H6V15h3v-1.5Z"></path>
<path d="M13.5 13.5h-3V15h3v-1.5Z"></path>
<path d="M18 13.5h-3V15h3v-1.5Z"></path>
<path d="M22.5 13.5h-3V15h3v-1.5Z"></path>
<path d="M19.5 23.25h-15a1.502 1.502 0 0 1-1.5-1.5v-3a1.502 1.502 0 0 1 1.5-1.5h15a1.502 1.502 0 0 1 1.5 1.5v3a1.502 1.502 0 0 1-1.5 1.5Zm-15-4.5v3h15v-3h-15Z"></path>
</svg>