<svg width="32" height="32" fill="currentColor" viewBox="0 0 24 24" xmlns="http://www.w3.org/2000/svg">
<path d="m22.41 11.64-4.5-8.25a.75.75 0 0 0-.66-.39H6.75a.75.75 0 0 0-.66.39l-4.5 8.25a.75.75 0 0 0 0 .75l4.5 8.25a.75.75 0 0 0 .66.36h10.5a.75.75 0 0 0 .66-.39l4.5-8.25a.75.75 0 0 0 0-.72Zm-5.213-6.39 3.293 6h-7.125l3.832-6ZM12 10.605 8.115 4.5h7.77L12 10.605ZM6.802 5.25l3.833 6H3.51l3.292-6Zm-3.292 7.5h7.125l-3.833 6-3.292-6Zm8.49.645 3.885 6.105h-7.77L12 13.395Zm5.197 5.355-3.832-6h7.125l-3.293 6Z"></path>
</svg>