<svg width="32" height="32" fill="currentColor" viewBox="0 0 24 24" xmlns="http://www.w3.org/2000/svg">
<path d="M19.5 13.5h-3v-3H15V21h4.5a1.502 1.502 0 0 0 1.5-1.5V15a1.502 1.502 0 0 0-1.5-1.5Zm-3 6V15h3v4.5h-3Z"></path>
<path d="m15 4.557-.558-1.393L12 4.141V1.5h-1.5v2.642l-2.442-.977L7.5 4.558l2.563 1.025L8.175 8.1l1.2.9 1.875-2.5L13.125 9l1.2-.9-1.888-2.518L15 4.557Z"></path>
<path d="M7.5 13.5H3.75V15H7.5v1.5h-3A1.5 1.5 0 0 0 3 18v1.5A1.5 1.5 0 0 0 4.5 21H9v-6a1.502 1.502 0 0 0-1.5-1.5Zm0 6h-3V18h3v1.5Z"></path>
</svg>