<svg width="32" height="32" fill="currentColor" viewBox="0 0 24 24" xmlns="http://www.w3.org/2000/svg">
<path d="M16.5 19.414a1.5 1.5 0 1 0 0-3 1.5 1.5 0 0 0 0 3Z"></path>
<path d="M22.333 17.609A6.48 6.48 0 0 0 16.5 13.5a6.48 6.48 0 0 0-5.833 4.109L10.5 18l.167.391A6.48 6.48 0 0 0 16.5 22.5a6.48 6.48 0 0 0 5.833-4.109L22.5 18l-.167-.391ZM16.5 21a3 3 0 1 1 0-5.999 3 3 0 0 1 0 5.999Z"></path>
<path d="M18.75 7.5H3A1.502 1.502 0 0 1 1.5 6V3A1.502 1.502 0 0 1 3 1.5h15.75a1.502 1.502 0 0 1 1.5 1.5v3a1.502 1.502 0 0 1-1.5 1.5ZM3 3v3h15.75V3H3Z"></path>
<path d="M9 21H3v-3h6v-1.5H3A1.502 1.502 0 0 0 1.5 18v3A1.502 1.502 0 0 0 3 22.5h6V21Z"></path>
<path d="M21 9H5.25a1.502 1.502 0 0 0-1.5 1.5v3a1.502 1.502 0 0 0 1.5 1.5H9v-1.5H5.25v-3H21V12h1.5v-1.5A1.502 1.502 0 0 0 21 9Z"></path>
</svg>