<svg width="32" height="32" fill="currentColor" viewBox="0 0 24 24" xmlns="http://www.w3.org/2000/svg">
<path d="M22.5 14.25h-3v-3H18V18H6V6h6.75V4.5h-3v-3h-1.5v3H6A1.502 1.502 0 0 0 4.5 6v2.25h-3v1.5h3v4.5h-3v1.5h3V18A1.502 1.502 0 0 0 6 19.5h2.25v3h1.5v-3h4.5v3h1.5v-3H18a1.502 1.502 0 0 0 1.5-1.5v-2.25h3v-1.5Z"></path>
<path d="M19.5 1.5a3.003 3.003 0 0 0-3 3c.003.534.15 1.057.425 1.514L14.69 8.25H8.25v7.5h7.5V9.31l2.236-2.235c.457.275.98.422 1.514.425a3 3 0 0 0 0-6Zm-5.25 12.75h-4.5v-4.5h4.5v4.5ZM19.5 6a1.5 1.5 0 1 1 0-3 1.5 1.5 0 0 1 0 3Z"></path>
</svg>