<svg width="32" height="32" fill="currentColor" viewBox="0 0 24 24" xmlns="http://www.w3.org/2000/svg">
<path d="M22.5 14.25h-3v-3H18V18H6V6h6.75V4.5h-3v-3h-1.5v3H6A1.502 1.502 0 0 0 4.5 6v2.25h-3v1.5h3v4.5h-3v1.5h3V18A1.502 1.502 0 0 0 6 19.5h2.25v3h1.5v-3h4.5v3h1.5v-3H18a1.502 1.502 0 0 0 1.5-1.5v-2.25h3v-1.5Z"></path>
<path d="M15.75 15.75h-7.5v-7.5h7.5v7.5Zm-6-1.5h4.5v-4.5h-4.5v4.5Z"></path>
<path d="M23.25 9.75h-1.5a7.508 7.508 0 0 0-7.5-7.5V.75a9.01 9.01 0 0 1 9 9Z"></path>
<path d="M19.5 9.75H18A3.755 3.755 0 0 0 14.25 6V4.5a5.256 5.256 0 0 1 5.25 5.25Z"></path>
</svg>