<svg width="32" height="32" fill="currentColor" viewBox="0 0 24 24" xmlns="http://www.w3.org/2000/svg">
<path d="M18 15.75h-2.25a1.5 1.5 0 0 1-1.5-1.5v-4.5a1.5 1.5 0 0 1 1.5-1.5H18a1.5 1.5 0 0 1 1.5 1.5v4.5a1.5 1.5 0 0 1-1.5 1.5Zm-2.25-6v4.5H18v-4.5h-2.25Z"></path>
<path d="M11.25 15.75H7.5v-1.5h3.75v-1.5H9a1.5 1.5 0 0 1-1.5-1.5v-1.5A1.5 1.5 0 0 1 9 8.25h3.75v1.5H9v1.5h2.25a1.5 1.5 0 0 1 1.5 1.5v1.5a1.5 1.5 0 0 1-1.5 1.5Z"></path>
<path d="M6 8.25H4.5v7.5H6v-7.5Z"></path>
<path d="M21 4.5H3A1.5 1.5 0 0 0 1.5 6v12A1.5 1.5 0 0 0 3 19.5h18a1.5 1.5 0 0 0 1.5-1.5V6A1.5 1.5 0 0 0 21 4.5ZM3 18V6h18v12H3Z"></path>
</svg>