<svg width="32" height="32" fill="currentColor" viewBox="0 0 24 24" xmlns="http://www.w3.org/2000/svg">
<path d="M15 4.5a7.462 7.462 0 0 0-3.002.63 7.493 7.493 0 0 1 0 13.74A7.498 7.498 0 1 0 15 4.5Z"></path>
<path d="M7.5 11.999a7.481 7.481 0 0 0 2.814 5.85 5.995 5.995 0 0 0 0-11.7 7.482 7.482 0 0 0-2.814 5.85Z"></path>
<path d="M9 18A6.001 6.001 0 0 1 5.505 7.111a6 6 0 0 1 4.81-.961 7.483 7.483 0 0 1 1.683-1.02 7.5 7.5 0 1 0 0 13.74 7.488 7.488 0 0 1-1.684-1.02A5.981 5.981 0 0 1 9 18Z"></path>
</svg>