<svg width="32" height="32" fill="currentColor" viewBox="0 0 24 24" xmlns="http://www.w3.org/2000/svg">
<path d="M23.25 8.25v7.5h-1.5l-1.5-4.5v4.5h-1.5v-7.5h1.5l1.5 4.5v-4.5h1.5Z"></path>
<path d="M16 15.75h-2a1.251 1.251 0 0 1-1.25-1.25v-5A1.251 1.251 0 0 1 14 8.25h2a1.251 1.251 0 0 1 1.25 1.25v5A1.251 1.251 0 0 1 16 15.75Zm-1.75-1.5h1.5v-4.5h-1.5v4.5Z"></path>
<path d="M10 15.75H6.75v-1.5h3v-1.5h-1.5a1.502 1.502 0 0 1-1.5-1.5V9.5A1.251 1.251 0 0 1 8 8.25h3.25v1.5h-3v1.5h1.5a1.502 1.502 0 0 1 1.5 1.5v1.75A1.251 1.251 0 0 1 10 15.75Z"></path>
<path d="M4 15.75H2A1.251 1.251 0 0 1 .75 14.5v-1.75h1.5v1.5h1.5v-6h1.5v6.25A1.251 1.251 0 0 1 4 15.75Z"></path>
</svg>