<svg width="32" height="32" fill="currentColor" viewBox="0 0 24 24" xmlns="http://www.w3.org/2000/svg">
<path d="M3 15v1.5h3.44L1.5 21.44l1.06 1.06 4.94-4.94V21H9v-6H3Z"></path>
<path d="m21.75 9-1.5-4.5h-1.5V12h1.5V7.5l1.5 4.5h1.5V4.5h-1.5V9Z"></path>
<path d="M16 4.5h-2a1.251 1.251 0 0 0-1.25 1.25v5A1.251 1.251 0 0 0 14 12h2a1.251 1.251 0 0 0 1.25-1.25v-5A1.252 1.252 0 0 0 16 4.5Zm-.25 6h-1.5V6h1.5v4.5Z"></path>
<path d="M6.75 5.75V7.5A1.502 1.502 0 0 0 8.25 9h1.5v1.5h-3V12H10a1.251 1.251 0 0 0 1.25-1.25V9a1.502 1.502 0 0 0-1.5-1.5h-1.5V6h3V4.5H8a1.251 1.251 0 0 0-1.25 1.25Z"></path>
<path d="M3.75 10.5h-1.5V9H.75v1.75A1.251 1.251 0 0 0 2 12h2a1.252 1.252 0 0 0 1.25-1.25V4.5h-1.5v6Z"></path>
</svg>