<svg width="32" height="32" fill="currentColor" viewBox="0 0 24 24" xmlns="http://www.w3.org/2000/svg">
<path d="M18.75 7.5a2.923 2.923 0 0 1-3-2.833 2.926 2.926 0 0 1 .49-1.548L18.128.311a.778.778 0 0 1 1.244 0l1.864 2.771a2.98 2.98 0 0 1 .514 1.585 2.923 2.923 0 0 1-3 2.833Zm0-5.428L17.508 3.92a1.42 1.42 0 0 0-.258.748 1.51 1.51 0 0 0 3 0 1.486 1.486 0 0 0-.281-.785l-1.219-1.81Z"></path>
<path d="M22.489 11.873a10.48 10.48 0 0 0-1.361-3.625l-1.303.753a9.03 9.03 0 0 1 .802 1.659 4.06 4.06 0 0 0-1.127-.16 4.908 4.908 0 0 0-2.954 1 10.888 10.888 0 0 0-2.284-6.7 10.415 10.415 0 0 0-1.512-1.5V1.5h-1.5v1.535a10.786 10.786 0 0 0-9.74 8.838.75.75 0 0 0 1.122.772A3.641 3.641 0 0 1 4.5 12a3.65 3.65 0 0 1 3.105 1.883.779.779 0 0 0 1.29 0 3.765 3.765 0 0 1 2.355-1.789v7.031a1.875 1.875 0 1 1-3.75 0v-.375H6v.375a3.375 3.375 0 0 0 6.75 0v-7.03a3.765 3.765 0 0 1 2.355 1.788.75.75 0 0 0 1.29 0A3.65 3.65 0 0 1 19.5 12c.67.039 1.316.262 1.867.645a.75.75 0 0 0 1.122-.772ZM7.454 11.5a4.908 4.908 0 0 0-2.954-1c-.382 0-.761.054-1.128.16A9.331 9.331 0 0 1 9.738 4.8a10.887 10.887 0 0 0-2.284 6.7Zm4.546-1a4.915 4.915 0 0 0-3.042 1.073c.028-1.665.456-4.867 3.042-6.882 2.573 2.007 3.007 5.211 3.04 6.88A4.914 4.914 0 0 0 12 10.5Z"></path>
</svg>