<svg width="32" height="32" fill="currentColor" viewBox="0 0 24 24" xmlns="http://www.w3.org/2000/svg">
<path d="M21 19.5H3A1.5 1.5 0 0 1 1.5 18V7.5A1.5 1.5 0 0 1 3 6h18a1.5 1.5 0 0 1 1.5 1.5V18a1.5 1.5 0 0 1-1.5 1.5ZM3 7.5V18h18V7.5H3Z"></path>
<path d="M15.75 15H7.5v1.5h8.25V15Z"></path>
<path d="M6 9H4.5v1.5H6V9Z"></path>
<path d="M9 9H7.5v1.5H9V9Z"></path>
<path d="M12 9h-1.5v1.5H12V9Z"></path>
<path d="M15 9h-1.5v1.5H15V9Z"></path>
<path d="M6 15H4.5v1.5H6V15Z"></path>
<path d="M6 12H4.5v1.5H6V12Z"></path>
<path d="M9 12H7.5v1.5H9V12Z"></path>
<path d="M12 12h-1.5v1.5H12V12Z"></path>
<path d="M19.5 9h-3v1.5h3V9Z"></path>
<path d="M19.5 12h-3v1.5h3V12Z"></path>
<path d="M15 12h-1.5v1.5H15V12Z"></path>
<path d="M19.5 15h-2.25v1.5h2.25V15Z"></path>
</svg>