<svg width="32" height="32" fill="currentColor" viewBox="0 0 24 24" xmlns="http://www.w3.org/2000/svg">
<path d="m21.917 13.473-2.477-.566a7.338 7.338 0 0 0-1.144-4.968L20.2 6.42l-.935-1.173-1.905 1.518a7.478 7.478 0 0 0-4.611-2.227V2.25h-1.5v2.288a7.477 7.477 0 0 0-4.611 2.228L4.734 5.247 3.8 6.42l1.905 1.519a7.338 7.338 0 0 0-1.144 4.969l-2.477.565.334 1.462 2.473-.565a7.527 7.527 0 0 0 3.202 4.019l-.998 2.072 1.351.651.998-2.07a7.358 7.358 0 0 0 5.115 0l.997 2.07 1.351-.651-.997-2.072a7.528 7.528 0 0 0 3.201-4.018l2.474.564.333-1.462ZM18 12c0 .193-.011.383-.029.572l-3.75-.856a2.226 2.226 0 0 0-.103-.446l2.997-2.39c.578.938.884 2.018.885 3.12Zm-6.75 0a.75.75 0 1 1 1.5 0 .75.75 0 0 1-1.5 0Zm4.932-4.294-2.997 2.39a2.248 2.248 0 0 0-.435-.208V6.052a5.982 5.982 0 0 1 3.432 1.654ZM11.25 6.052v3.836a2.25 2.25 0 0 0-.435.208l-2.997-2.39a5.982 5.982 0 0 1 3.432-1.654ZM6 12c0-1.102.307-2.182.885-3.12l2.997 2.39c-.05.145-.084.294-.103.446l-3.75.856A6.053 6.053 0 0 1 6 12Zm.363 2.034 3.731-.852c.088.146.193.28.311.403l-1.66 3.447a6.023 6.023 0 0 1-2.382-2.998ZM12 18a5.975 5.975 0 0 1-1.905-.315l1.665-3.46c.08.013.16.021.24.025.08-.004.16-.012.24-.024l1.665 3.459A5.968 5.968 0 0 1 12 18Zm3.255-.968-1.66-3.448a2.26 2.26 0 0 0 .311-.402l3.731.852a6.023 6.023 0 0 1-2.382 2.998Z"></path>
</svg>