<svg width="32" height="32" fill="currentColor" viewBox="0 0 24 24" xmlns="http://www.w3.org/2000/svg">
<path d="M17.25 9.75H13.5v1.5h3.75v1.5h-3a1.5 1.5 0 0 0-1.5 1.5v1.5a1.5 1.5 0 0 0 1.5 1.5h4.5v-6a1.502 1.502 0 0 0-1.5-1.5Zm0 6h-3v-1.5h3v1.5Z"></path>
<path d="M9.75 6.75h-3a1.502 1.502 0 0 0-1.5 1.5v9h1.5V13.5h3v3.75h1.5v-9a1.502 1.502 0 0 0-1.5-1.5Zm-3 5.25V8.25h3V12h-3Z"></path>
<path d="M21 21H3a1.502 1.502 0 0 1-1.5-1.5v-15A1.502 1.502 0 0 1 3 3h18a1.502 1.502 0 0 1 1.5 1.5v15A1.502 1.502 0 0 1 21 21ZM3 4.5v15h18v-15H3Z"></path>
</svg>