<svg width="32" height="32" fill="currentColor" viewBox="0 0 24 24" xmlns="http://www.w3.org/2000/svg">
<path d="M18 14.25h-4.5v1.5H18v-1.5Z"></path>
<path d="M22.5 11.25h-9v1.5h9v-1.5Z"></path>
<path d="M22.5 8.25h-9v1.5h9v-1.5Z"></path>
<path d="M10.5 15.75v-1.5H6.75v-1.5h-1.5v1.5H1.5v1.5h6.161A6.443 6.443 0 0 1 6 18.733a6.954 6.954 0 0 1-1.085-1.483H3.25a8.143 8.143 0 0 0 1.609 2.473 10.995 10.995 0 0 1-2.609 1.372l.527 1.405a12.314 12.314 0 0 0 3.218-1.752A12.364 12.364 0 0 0 9.223 22.5l.527-1.405a11.002 11.002 0 0 1-2.608-1.37A7.735 7.735 0 0 0 9.19 15.75h1.31Z"></path>
<path d="M8.375 9.75H10L6.562 1.5H4.938L1.5 9.75h1.625l.625-1.5h4l.625 1.5Zm-4-3 1.375-3.3 1.375 3.3h-2.75Z"></path>
</svg>