<svg width="32" height="32" fill="currentColor" viewBox="0 0 24 24" xmlns="http://www.w3.org/2000/svg">
<path d="M22.219 1.665a.75.75 0 0 0-.823-.076L13.452 5.85 2.525 1.552a.75.75 0 0 0-.96 1.003l4.826 10.86a2.973 2.973 0 0 0 1.042 5.208A3.004 3.004 0 0 1 4.5 21H3v1.5h1.5a4.504 4.504 0 0 0 4.446-3.84 3.002 3.002 0 0 0 2.198-2.16h6.286a1.5 1.5 0 0 0 1.446-1.099l3.597-12.95a.75.75 0 0 0-.254-.786ZM8.25 17.25a1.5 1.5 0 1 1 0-3 1.5 1.5 0 0 1 0 3ZM17.43 15h-6.286a2.923 2.923 0 0 0-3.384-2.2L3.679 3.618l9.87 3.882 7.009-3.76L17.43 15Z"></path>
</svg>