<svg width="32" height="32" fill="currentColor" viewBox="0 0 24 24" xmlns="http://www.w3.org/2000/svg">
<path d="M17.25 19.5a.75.75 0 1 0 0-1.5.75.75 0 0 0 0 1.5Z"></path>
<path d="M19.5 16.5V21h-15v-4.5h15Zm0-1.5h-15A1.5 1.5 0 0 0 3 16.5V21a1.5 1.5 0 0 0 1.5 1.5h15A1.5 1.5 0 0 0 21 21v-4.5a1.5 1.5 0 0 0-1.5-1.5Z"></path>
<path d="M15.443 3.442 12.75 6.128V0h-1.5v6.128L8.557 3.442 7.5 4.5 12 9l4.5-4.5-1.057-1.058Z"></path>
<path d="M15.443 7.945 12 11.373 8.557 7.945 7.5 9.003l4.5 4.5 4.5-4.5-1.057-1.058Z"></path>
<path d="M15 18H6v1.5h9V18Z"></path>
</svg>