<svg width="32" height="32" fill="currentColor" viewBox="0 0 24 24" xmlns="http://www.w3.org/2000/svg">
<path d="M12 18.004a.747.747 0 0 1-.355-.09l-9.75-5.25.71-1.32L12 16.402l9.395-5.058.71 1.32-9.75 5.25a.747.747 0 0 1-.355.09Z"></path>
<path d="M12 22.504a.747.747 0 0 1-.355-.09l-9.75-5.25.71-1.32L12 20.902l9.395-5.058.71 1.32-9.75 5.25a.747.747 0 0 1-.355.09Z"></path>
<path d="M12 13.5a.75.75 0 0 1-.356-.09l-9.75-5.25a.75.75 0 0 1 0-1.32l9.75-5.25a.748.748 0 0 1 .711 0l9.75 5.25a.75.75 0 0 1 0 1.32l-9.75 5.25a.75.75 0 0 1-.355.09Zm-8.168-6L12 11.9l8.168-4.4L12 3.102 3.832 7.5Z"></path>
</svg>