<svg width="32" height="32" fill="currentColor" viewBox="0 0 24 24" xmlns="http://www.w3.org/2000/svg">
<path d="M17.25 9.75h-3v-3h-1.5v10.5h4.5a1.5 1.5 0 0 0 1.5-1.5v-4.5a1.5 1.5 0 0 0-1.5-1.5Zm-3 6v-4.5h3v4.5h-3Z"></path>
<path d="M11.25 9A2.25 2.25 0 0 0 9 6.75H5.25v10.5H9A2.25 2.25 0 0 0 11.25 15v-1.5a2.25 2.25 0 0 0-.585-1.5 2.25 2.25 0 0 0 .585-1.5V9Zm-4.5-.75H9a.75.75 0 0 1 .75.75v1.5a.75.75 0 0 1-.75.75H6.75v-3Zm3 6.75a.75.75 0 0 1-.75.75H6.75v-3H9a.75.75 0 0 1 .75.75V15Z"></path>
</svg>