<svg width="32" height="32" fill="currentColor" viewBox="0 0 24 24" xmlns="http://www.w3.org/2000/svg">
<path d="m22.28 14.47-2.25-2.25a.75.75 0 0 0-1.06 0L12 19.19v3.31h3.31l6.97-6.97a.75.75 0 0 0 0-1.06ZM14.69 21H13.5v-1.19l3.75-3.75 1.19 1.19L14.69 21Zm4.81-4.81L18.31 15l1.19-1.19L20.69 15l-1.19 1.19Z"></path>
<path d="M15 9.75v-1.5h-1.607a2.953 2.953 0 0 0-.318-.764l1.138-1.138-1.061-1.06-1.138 1.137a2.957 2.957 0 0 0-.764-.318V4.5h-1.5v1.607c-.268.07-.526.177-.764.318L7.848 5.287l-1.06 1.061 1.137 1.138a2.954 2.954 0 0 0-.318.764H6v1.5h1.607c.07.268.177.526.318.764l-1.138 1.138 1.061 1.06 1.138-1.137c.238.142.496.249.764.318V13.5h1.5v-1.607c.268-.07.526-.177.764-.318l1.138 1.138 1.06-1.061-1.137-1.138c.141-.238.249-.496.318-.764H15Zm-4.5.75a1.5 1.5 0 1 1 0-3 1.5 1.5 0 0 1 0 3Z"></path>
<path d="M9 22.5H4.5A1.502 1.502 0 0 1 3 21V3a1.502 1.502 0 0 1 1.5-1.5h12A1.502 1.502 0 0 1 18 3v7.5h-1.5V3h-12v18H9v1.5Z"></path>
</svg>