<svg width="32" height="32" fill="currentColor" viewBox="0 0 24 24" xmlns="http://www.w3.org/2000/svg">
<path d="M10.5 10.5H6V12h4.5v-1.5Z"></path>
<path d="M15 4.5H6V6h9V4.5Z"></path>
<path d="M15 7.5H6V9h9V7.5Z"></path>
<path d="M10.5 18H6v1.5h4.5V18Z"></path>
<path d="M20.25 18.75h-4.5A2.25 2.25 0 0 0 13.5 21v1.5H15V21a.75.75 0 0 1 .75-.75h4.5A.75.75 0 0 1 21 21v1.5h1.5V21a2.25 2.25 0 0 0-2.25-2.25Z"></path>
<path d="M18 18a3 3 0 1 0 0-5.999A3 3 0 0 0 18 18Zm0-4.5a1.5 1.5 0 1 1 0 3 1.5 1.5 0 0 1 0-3Z"></path>
<path d="M10.5 22.5h-6A1.502 1.502 0 0 1 3 21V3a1.502 1.502 0 0 1 1.5-1.5h12A1.502 1.502 0 0 1 18 3v7.5h-1.5V3h-12v18h6v1.5Z"></path>
</svg>