<svg width="32" height="32" fill="currentColor" viewBox="0 0 24 24" xmlns="http://www.w3.org/2000/svg">
<path d="M16.5 10.5a6 6 0 1 0 6 6 6.007 6.007 0 0 0-6-6Zm4.433 5.25h-1.466a9.02 9.02 0 0 0-.913-3.25 4.507 4.507 0 0 1 2.379 3.25Zm-5.891 0a7.51 7.51 0 0 1 1.458-3.739 7.509 7.509 0 0 1 1.459 3.739h-2.917Zm2.917 1.5a7.508 7.508 0 0 1-1.459 3.74 7.51 7.51 0 0 1-1.459-3.74h2.918Zm-3.512-4.749a9.02 9.02 0 0 0-.914 3.249h-1.465a4.508 4.508 0 0 1 2.378-3.249Zm-2.38 4.749h1.465a9.02 9.02 0 0 0 .914 3.249 4.508 4.508 0 0 1-2.378-3.249Zm6.487 3.249a9.018 9.018 0 0 0 .913-3.249h1.466a4.505 4.505 0 0 1-2.38 3.249Z"></path>
<path d="M9 10.5H4.5V12H9v-1.5Z"></path>
<path d="M13.5 4.5h-9V6h9V4.5Z"></path>
<path d="M13.5 7.5h-9V9h9V7.5Z"></path>
<path d="M9 18H4.5v1.5H9V18Z"></path>
<path d="M9 22.5H3A1.502 1.502 0 0 1 1.5 21V3A1.502 1.502 0 0 1 3 1.5h12A1.502 1.502 0 0 1 16.5 3v6H15V3H3v18h6v1.5Z"></path>
</svg>