<svg width="32" height="32" fill="currentColor" viewBox="0 0 24 24" xmlns="http://www.w3.org/2000/svg">
<path d="M21.17 17.11a10.475 10.475 0 0 0 0-10.219l.14-.14a1.501 1.501 0 0 0 0-2.122l-1.939-1.94a1.502 1.502 0 0 0-2.121 0l-.14.141a10.476 10.476 0 0 0-10.219 0l-.141-.14a1.502 1.502 0 0 0-2.121 0l-1.94 1.94a1.502 1.502 0 0 0 0 2.12l.141.14a10.477 10.477 0 0 0 0 10.22l-.14.14a1.502 1.502 0 0 0 0 2.121l1.939 1.94a1.502 1.502 0 0 0 2.121 0l.141-.141a10.477 10.477 0 0 0 10.218 0l.141.14a1.501 1.501 0 0 0 2.121 0l1.94-1.939a1.501 1.501 0 0 0 0-2.12l-.142-.142ZM21 12a8.98 8.98 0 0 1-.941 4l-2.921-2.921c.15-.71.15-1.445 0-2.155l2.921-2.921A8.98 8.98 0 0 1 21 12Zm-.75-6.31-3.701 3.7a5.282 5.282 0 0 0-1.939-1.939l3.7-3.7 1.94 1.939ZM12 15.75a3.75 3.75 0 1 1 0-7.5 3.75 3.75 0 0 1 0 7.5Zm3.986-11.797-2.909 2.91a5.235 5.235 0 0 0-2.154 0l-2.91-2.91a9.186 9.186 0 0 1 7.973 0ZM5.69 3.75l3.7 3.701a5.284 5.284 0 0 0-1.94 1.94L3.75 5.69l1.94-1.94ZM3 12a8.99 8.99 0 0 1 .94-3.998l2.922 2.92a5.221 5.221 0 0 0 0 2.156l-2.921 2.92A8.978 8.978 0 0 1 3 12Zm2.69 8.25-1.94-1.94 3.7-3.7a5.283 5.283 0 0 0 1.94 1.94l-3.7 3.7Zm2.323-.202 2.91-2.91c.71.15 1.444.15 2.154 0l2.91 2.91a9.187 9.187 0 0 1-7.974 0Zm10.298.202-3.701-3.7a5.283 5.283 0 0 0 1.939-1.94l3.701 3.7-1.94 1.94Z"></path>
</svg>