<svg width="32" height="32" fill="currentColor" viewBox="0 0 24 24" xmlns="http://www.w3.org/2000/svg">
<path d="M12.75 1.5h-1.5v3.75h1.5V1.5Z"></path>
<path d="m18.894 4.043-2.63 2.629 1.061 1.06 2.63-2.629-1.061-1.06Z"></path>
<path d="M22.5 11.25h-3.75v1.5h3.75v-1.5Z"></path>
<path d="m17.325 16.268-1.06 1.06 2.629 2.63 1.06-1.061-2.629-2.63Z"></path>
<path d="M12.75 18.75h-1.5v3.75h1.5v-3.75Z"></path>
<path d="m6.674 16.261-2.63 2.63 1.061 1.06 2.63-2.63-1.06-1.06Z"></path>
<path d="M5.25 11.25H1.5v1.5h3.75v-1.5Z"></path>
<path d="m5.105 4.049-1.06 1.06 2.63 2.63 1.06-1.06-2.63-2.63Z"></path>
<path d="M12 9a3 3 0 1 1 0 6 3 3 0 0 1 0-6Zm0-1.5a4.5 4.5 0 1 0 0 9 4.5 4.5 0 0 0 0-9Z"></path>
</svg>