<svg width="32" height="32" fill="currentColor" viewBox="0 0 24 24" xmlns="http://www.w3.org/2000/svg">
<path d="M21.938 5.074a4.5 4.5 0 0 0-6.375 0l1.065 1.065a3.007 3.007 0 1 1 4.252 4.252l-6 6a3.004 3.004 0 1 1-4.252-4.245l1.057-1.065-1.057-1.065-1.065 1.065a4.5 4.5 0 0 0 0 6.375 4.5 4.5 0 0 0 3.187 1.297 4.499 4.499 0 0 0 3.203-1.32l6-6a4.5 4.5 0 0 0-.015-6.36Z"></path>
<path d="M3.142 18.618a3 3 0 0 1 0-4.253l6-6a3 3 0 0 1 4.253 0 2.957 2.957 0 0 1 .855 2.138 3 3 0 0 1-.878 2.137l-1.59 1.613 1.065 1.065 1.59-1.59a4.513 4.513 0 0 0-6.382-6.383l-6 6a4.5 4.5 0 0 0 0 6.383 4.5 4.5 0 0 0 3.195 1.275 4.553 4.553 0 0 0 3.21-1.32l-1.065-1.065a2.999 2.999 0 0 1-4.253 0Z"></path>
</svg>