<svg width="32" height="32" fill="currentColor" viewBox="0 0 24 24" xmlns="http://www.w3.org/2000/svg">
<path d="m22.42 17.657-1.292-2.586a1.5 1.5 0 0 0-1.341-.829h-.352a11.163 11.163 0 0 0-1.364-3.448C17.299 9.332 16.5 7.82 16.5 6a4.5 4.5 0 1 0-9 0 9.753 9.753 0 0 1-1.537 4.662 11.026 11.026 0 0 0-1.403 3.581h-.347a1.5 1.5 0 0 0-1.342.83l-1.293 2.585a.75.75 0 0 0 .073.788l3.022 3.994a2.25 2.25 0 0 0 2.886.489l1.405-.843c.986.287 2.008.427 3.035.414 1.027.013 2.05-.127 3.037-.415l1.403.842c.348.21.747.322 1.154.323a2.28 2.28 0 0 0 1.754-.839l3-3.966a.751.751 0 0 0 .073-.788Zm-5.675-6.162c.511.859.904 1.783 1.169 2.747h-1.61a12.508 12.508 0 0 0-.735-1.984 9.525 9.525 0 0 1-.66-1.834c.286-.331.538-.69.753-1.071l.029-.054c.312.75.664 1.483 1.054 2.196ZM9 15.75a7.047 7.047 0 0 1 .805-2.889c.192-.437.386-.882.544-1.35a3.035 3.035 0 0 0 3.302 0c.158.469.353.913.544 1.35.473.894.747 1.88.805 2.889 0 .966-.31 2.25-3 2.25-2.689 0-3-1.284-3-2.25Zm4.883-6.431A2.718 2.718 0 0 1 12 10.5a2.72 2.72 0 0 1-1.883-1.182 5.727 5.727 0 0 1 3.766 0ZM9 6a3 3 0 1 1 6 0c.003.792.121 1.579.35 2.336a5.985 5.985 0 0 0-1.1-.472V6h-1.5v1.54a6.94 6.94 0 0 0-1.5 0V6h-1.5v1.864a5.927 5.927 0 0 0-1.109.478A8.032 8.032 0 0 0 9.001 6Zm-1.714 5.37c.375-.677.714-1.373 1.016-2.085l.036.067c.215.381.467.74.753 1.071a9.532 9.532 0 0 1-.66 1.834c-.3.64-.546 1.304-.735 1.986H6.079c.257-1.013.664-1.98 1.207-2.874Zm1.028 9.357-1.526.916a.74.74 0 0 1-.94-.135L3.13 17.913l1.085-2.17h2.78l1.624 4.046a.753.753 0 0 1-.304.938Zm1.737.089a2.218 2.218 0 0 0-.042-1.583A6.77 6.77 0 0 0 12 19.5c.674.01 1.345-.08 1.992-.267a2.242 2.242 0 0 0-.04 1.582 10.405 10.405 0 0 1-3.9 0Zm8.123.662a.747.747 0 0 1-.962.164l-1.526-.916a.758.758 0 0 1-.297-.955l1.618-4.029h2.779l1.085 2.169-2.697 3.567Z"></path>
</svg>