<svg width="32" height="32" fill="currentColor" viewBox="0 0 24 24" xmlns="http://www.w3.org/2000/svg">
<path d="M16.959 15.391a4.618 4.618 0 0 0 1.04-2.997c0-2.285-1.514-4.144-3.374-4.144A3.183 3.183 0 0 0 12 9.795 3.183 3.183 0 0 0 9.375 8.25C7.514 8.25 6 10.109 6 12.394a4.62 4.62 0 0 0 1.04 2.997 13.4 13.4 0 0 0-.74.51.751.751 0 0 0-.136 1.068C6.494 17.38 9.462 21 12 21c2.537 0 5.505-3.619 5.835-4.031A.752.752 0 0 0 17.7 15.9a14.452 14.452 0 0 0-.741-.509ZM9.375 9.75c1.016 0 1.875 1.21 1.875 2.644v1.175c-.26.043-.516.1-.769.173.011-.08.018-.16.019-.242 0-.828-.504-1.5-1.125-1.5-.622 0-1.125.672-1.125 1.5-.005.364.101.72.305 1.022-.06.03-.126.06-.186.091a3.022 3.022 0 0 1-.87-2.219c0-1.433.86-2.644 1.876-2.644ZM12 19.5c-1.177 0-2.974-1.563-4.14-2.854C8.925 15.959 10.699 15 12 15c1.3 0 3.075.96 4.14 1.646C14.973 17.937 13.177 19.5 12 19.5Zm3.63-4.887c-.06-.03-.125-.06-.186-.091.204-.302.31-.658.306-1.022 0-.828-.504-1.5-1.125-1.5-.622 0-1.125.672-1.125 1.5 0 .081.007.162.018.242a6.815 6.815 0 0 0-.768-.173v-1.175c0-1.433.858-2.644 1.875-2.644 1.016 0 1.875 1.21 1.875 2.644a3.023 3.023 0 0 1-.87 2.22Z"></path>
<path d="M22.5 22.5a2.916 2.916 0 0 1-3-3v-9a7.5 7.5 0 0 0-15 0v9a2.916 2.916 0 0 1-3 3V21A1.41 1.41 0 0 0 3 19.5v-9a9 9 0 1 1 18 0v9a1.413 1.413 0 0 0 1.5 1.5v1.5Z"></path>
</svg>