<svg width="32" height="32" fill="currentColor" viewBox="0 0 24 24" xmlns="http://www.w3.org/2000/svg">
<path d="M19.5 4.5v-3h-18V9h6.75v13.5H22.5v-18h-3ZM3 7.5V3h15v1.5H8.25v3H3ZM21 21H9.75V6H21v15Z"></path>
<path d="M12.75 8.25h-1.5v1.5h1.5v-1.5Z"></path>
<path d="M19.5 8.25h-5.25v1.5h5.25v-1.5Z"></path>
<path d="M12.75 12.75h-1.5v1.5h1.5v-1.5Z"></path>
<path d="M19.5 12.75h-5.25v1.5h5.25v-1.5Z"></path>
<path d="M12.75 17.25h-1.5v1.5h1.5v-1.5Z"></path>
<path d="M19.5 17.25h-5.25v1.5h5.25v-1.5Z"></path>
</svg>