<svg width="32" height="32" fill="currentColor" viewBox="0 0 24 24" xmlns="http://www.w3.org/2000/svg">
<path d="M16.5 11.25h-9v1.5h9v-1.5Z"></path>
<path d="M6.525 4.714A2.225 2.225 0 0 0 6.371 2.5 2.25 2.25 0 1 0 4.5 6a2.22 2.22 0 0 0 .964-.226L7.5 7.811V9.75H9V7.19L6.525 4.713ZM4.5 4.5a.75.75 0 1 1 0-1.5.75.75 0 0 1 0 1.5Z"></path>
<path d="M14.25 3.752a2.25 2.25 0 1 0-3 2.112v3.888h1.5V5.864a2.247 2.247 0 0 0 1.5-2.112Zm-2.25.75a.75.75 0 1 1 0-1.5.75.75 0 0 1 0 1.5Z"></path>
<path d="M19.5 1.5a2.253 2.253 0 0 0-2.25 2.25c.002.334.079.664.225.964L15 7.189V9.75h1.5V7.81l2.036-2.036a2.22 2.22 0 0 0 2.555-.433A2.25 2.25 0 0 0 19.5 1.5Zm0 3a.75.75 0 1 1 0-1.5.75.75 0 0 1 0 1.5Z"></path>
<path d="M9 14.25H7.5v1.94l-2.036 2.036a2.22 2.22 0 0 0-2.214.153 2.25 2.25 0 1 0 3.5 1.871 2.225 2.225 0 0 0-.225-.964L9 16.811V14.25ZM4.5 21a.75.75 0 1 1 0-1.5.75.75 0 0 1 0 1.5Z"></path>
<path d="M12.75 18.138V14.25h-1.5v3.888a2.25 2.25 0 1 0 1.5 0ZM12 21a.75.75 0 1 1 0-1.5.75.75 0 0 1 0 1.5Z"></path>
<path d="M19.5 18a2.221 2.221 0 0 0-.964.226L16.5 16.189V14.25H15v2.56l2.475 2.476c-.146.3-.223.63-.225.964A2.25 2.25 0 1 0 19.5 18Zm0 3a.75.75 0 1 1 0-1.5.75.75 0 0 1 0 1.5Z"></path>
</svg>