<svg width="32" height="32" fill="currentColor" viewBox="0 0 24 24" xmlns="http://www.w3.org/2000/svg">
<path d="M12.75 6h-1.5v1.5h1.5V6Z"></path>
<path d="M15.75 6h-1.5v1.5h1.5V6Z"></path>
<path d="M9.75 6h-1.5v1.5h1.5V6Z"></path>
<path d="M18.75 12h-6V9.75h-1.5V12h-6a1.502 1.502 0 0 0-1.5 1.5V18h1.5v-4.5h6V18h1.5v-4.5h6V18h1.5v-4.5a1.502 1.502 0 0 0-1.5-1.5Z"></path>
<path d="M6 19.5H3v3h3v-3Z"></path>
<path d="M13.5 19.5h-3v3h3v-3Z"></path>
<path d="M21 19.5h-3v3h3v-3Z"></path>
<path d="M15.75 2.25h-7.5v1.5h7.5v-1.5Z"></path>
</svg>