<svg width="32" height="32" fill="currentColor" viewBox="0 0 24 24" xmlns="http://www.w3.org/2000/svg">
<path d="M6 22.5H1.5V18H6v4.5ZM3 21h1.5v-1.5H3V21Z"></path>
<path d="M14.25 22.5h-4.5V18h4.5v4.5Zm-3-1.5h1.5v-1.5h-1.5V21Z"></path>
<path d="M22.5 22.5H18V18h4.5v4.5Zm-3-1.5H21v-1.5h-1.5V21Z"></path>
<path d="M12 7.5a3 3 0 1 1 0-6 3 3 0 0 1 0 6ZM12 3a1.5 1.5 0 1 0 0 3 1.5 1.5 0 0 0 0-3Z"></path>
<path d="M19.5 12h-3.75a3.003 3.003 0 0 1-3-3h-1.5a3.003 3.003 0 0 1-3 3H4.5A1.502 1.502 0 0 0 3 13.5v3h1.5v-3h3.75a4.477 4.477 0 0 0 3-1.155V16.5h1.5v-4.155a4.477 4.477 0 0 0 3 1.155h3.75v3H21v-3a1.502 1.502 0 0 0-1.5-1.5Z"></path>
</svg>