<svg width="32" height="32" fill="currentColor" viewBox="0 0 24 24" xmlns="http://www.w3.org/2000/svg">
<path d="M18.75 12h-6V9h-1.5v3h-6a1.502 1.502 0 0 0-1.5 1.5v3h1.5v-3h6v3h1.5v-3h6v3h1.5v-3a1.502 1.502 0 0 0-1.5-1.5Z"></path>
<path d="M15 7.5v-6H9v6h6ZM10.5 6V3h3v3h-3Z"></path>
<path d="M19.5 18a2.246 2.246 0 0 0-2.112 1.5h-3.276a2.237 2.237 0 0 0-4.224 0H6.612a2.25 2.25 0 1 0 0 1.5h3.276a2.236 2.236 0 0 0 4.224 0h3.276a2.245 2.245 0 1 0 2.112-3Zm-15 3a.75.75 0 1 1 0-1.5.75.75 0 0 1 0 1.5Zm7.5 0a.75.75 0 1 1 0-1.5.75.75 0 0 1 0 1.5Zm7.5 0a.75.75 0 1 1 0-1.5.75.75 0 0 1 0 1.5Z"></path>
</svg>