<svg width="32" height="32" fill="currentColor" viewBox="0 0 24 24" xmlns="http://www.w3.org/2000/svg">
<path d="M13.727 6.75a1.996 1.996 0 0 0-1.43.604L12 7.658l-.297-.304a1.996 1.996 0 0 0-2.862 0 2.1 2.1 0 0 0 0 2.923l3.16 3.223 3.156-3.223a2.1 2.1 0 0 0 0-2.923 1.996 1.996 0 0 0-1.43-.604Z"></path>
<path d="m12 22.5-6.327-7.461a26.199 26.199 0 0 1-.26-.34A8.167 8.167 0 0 1 3.75 9.75a8.25 8.25 0 1 1 16.5 0 8.163 8.163 0 0 1-1.661 4.948l-.001.002s-.225.296-.259.335L12 22.5Zm-5.39-8.704s.174.231.214.281L12 20.181l5.183-6.113.209-.274A6.676 6.676 0 0 0 18.75 9.75a6.75 6.75 0 0 0-13.5 0 6.68 6.68 0 0 0 1.36 4.046Z"></path>
</svg>