<svg width="32" height="32" fill="currentColor" viewBox="0 0 24 24" xmlns="http://www.w3.org/2000/svg">
<path d="M13.5 22.5H15V21a.75.75 0 0 1 .75-.75h4.5A.75.75 0 0 1 21 21v1.5h1.5V21a2.253 2.253 0 0 0-2.25-2.25h-4.5A2.253 2.253 0 0 0 13.5 21v1.5Z"></path>
<path d="M18 18a3 3 0 1 1 0-5.999A3 3 0 0 1 18 18Zm0-4.5a1.5 1.5 0 1 0 0 3 1.5 1.5 0 0 0 0-3Z"></path>
<path d="m19.006 7.545-16.5-6a.75.75 0 0 0-.96.961l6 16.5a.75.75 0 0 0 .692.494h.012a.75.75 0 0 0 .697-.471l2.88-7.202 7.202-2.88a.75.75 0 0 0-.022-1.402Zm-8.034 3.008-.299.12-.12.298-2.27 5.676L3.505 3.504l13.143 4.78-5.675 2.27Z"></path>
</svg>