<svg width="32" height="32" fill="currentColor" viewBox="0 0 24 24" xmlns="http://www.w3.org/2000/svg">
<path d="M12 5.25 13.434 8l3.066.38-2.25 2.064.45 3.056-2.7-1.719L9.3 13.5l.45-3.056L7.5 8.38 10.65 8 12 5.25Z"></path>
<path d="m12 22.5-6.327-7.461a26.199 26.199 0 0 1-.26-.34A8.167 8.167 0 0 1 3.75 9.75a8.25 8.25 0 1 1 16.5 0 8.163 8.163 0 0 1-1.661 4.948l-.001.002s-.225.296-.259.335L12 22.5Zm-5.39-8.704s.174.231.214.281L12 20.181l5.183-6.113.209-.274A6.676 6.676 0 0 0 18.75 9.75a6.75 6.75 0 0 0-13.5 0 6.68 6.68 0 0 0 1.36 4.046Z"></path>
</svg>