<svg width="32" height="32" fill="currentColor" viewBox="0 0 24 24" xmlns="http://www.w3.org/2000/svg">
<path fill-rule="evenodd" d="M12 1.5a10.5 10.5 0 0 0-3.323 20.46c.525.098.75-.225.75-.502v-1.785c-2.917.63-3.532-1.41-3.532-1.41a2.782 2.782 0 0 0-1.215-1.538c-.953-.645.075-.637.075-.637a2.205 2.205 0 0 1 1.605 1.087 2.25 2.25 0 0 0 3.06.87c.042-.532.277-1.03.66-1.402-2.325-.27-4.778-1.17-4.778-5.19a4.05 4.05 0 0 1 1.08-2.82 3.75 3.75 0 0 1 .105-2.775s.878-.285 2.888 1.072a9.975 9.975 0 0 1 5.25 0c2.002-1.357 2.88-1.072 2.88-1.072a3.75 3.75 0 0 1 .105 2.775 4.05 4.05 0 0 1 1.08 2.82c0 4.035-2.453 4.92-4.793 5.182a2.499 2.499 0 0 1 .713 1.943v2.88c0 .345.187.607.75.502A10.5 10.5 0 0 0 12 1.5Z" clip-rule="evenodd"></path>
</svg>