<svg width="32" height="32" fill="currentColor" viewBox="0 0 24 24" xmlns="http://www.w3.org/2000/svg">
<path d="M17.616 6.852v2.225a3.214 3.214 0 0 1-3.13 3.176H9.484A2.556 2.556 0 0 0 6.978 14.8v4.77c0 1.358 1.18 2.157 2.505 2.547a8.38 8.38 0 0 0 5.004 0c1.26-.366 2.505-1.1 2.505-2.546v-1.91h-5.005v-.637h7.51c1.456 0 1.998-1.015 2.505-2.54a8.598 8.598 0 0 0 0-5.091c-.36-1.45-1.047-2.54-2.505-2.54h-1.88Zm-2.814 12.08a.956.956 0 1 1-.87.59.946.946 0 0 1 .87-.59Z"></path>
<path d="M11.876 1.5c-.802.001-1.603.07-2.394.205-2.12.374-2.505 1.158-2.505 2.604v1.91h5.01v.636h-6.89a3.128 3.128 0 0 0-3.13 2.54 9.364 9.364 0 0 0 0 5.092c.356 1.483 1.207 2.54 2.662 2.54h1.723v-2.29a3.184 3.184 0 0 1 3.13-3.112h5.004A2.523 2.523 0 0 0 16.99 9.08V4.31a2.797 2.797 0 0 0-2.505-2.604 15.63 15.63 0 0 0-2.61-.205Zm-2.71 1.536a.955.955 0 1 1 .03 1.91.955.955 0 0 1-.03-1.91Z"></path>
</svg>