<svg width="32" height="32" fill="currentColor" viewBox="0 0 24 24" xmlns="http://www.w3.org/2000/svg">
<path d="M19.557 2.69a1.268 1.268 0 1 1-1.32-1.188 1.252 1.252 0 0 1 1.32 1.189Z"></path>
<path d="M12.164 17.335c-3.365 0-6.322-1.208-7.851-2.991a8.37 8.37 0 0 0 15.703 0c-1.526 1.783-4.472 2.99-7.852 2.99Z"></path>
<path d="M12.164 5.734c3.365 0 6.323 1.208 7.852 2.991a8.372 8.372 0 0 0-15.703 0c1.529-1.787 4.471-2.99 7.851-2.99Z"></path>
<path d="M7.532 20.802a1.581 1.581 0 1 1-3.159.168 1.581 1.581 0 0 1 3.159-.168Z"></path>
<path d="M4.695 5.331a.92.92 0 1 1 .894-.957.931.931 0 0 1-.894.957Z"></path>
</svg>