<svg width="32" height="32" fill="currentColor" viewBox="0 0 24 24" xmlns="http://www.w3.org/2000/svg">
<path fill-rule="evenodd" d="M20.314 18.582a4.963 4.963 0 0 0 2.186-3.985c0-2.91-2.832-5.27-6.325-5.27-3.493 0-6.326 2.36-6.326 5.27 0 2.91 2.833 5.272 6.326 5.272a7.48 7.48 0 0 0 2.065-.29l.185-.027a.668.668 0 0 1 .336.097l1.385.8.122.04a.21.21 0 0 0 .21-.212l-.033-.154-.285-1.063-.022-.135a.42.42 0 0 1 .176-.343ZM9.091 3.508C4.898 3.508 1.5 6.339 1.5 9.833a5.954 5.954 0 0 0 2.622 4.781.504.504 0 0 1 .213.412l-.026.162-.342 1.275-.042.185a.254.254 0 0 0 .253.253l.147-.047 1.662-.96a.793.793 0 0 1 .402-.116l.224.033c.805.231 1.64.348 2.478.348l.416-.011a4.886 4.886 0 0 1-.254-1.55c0-3.186 3.099-5.768 6.922-5.768l.412.01c-.572-3.021-3.71-5.332-7.496-5.332Zm4.975 10.247a.844.844 0 1 1 0-1.687.844.844 0 0 1 0 1.687Zm4.217 0a.844.844 0 1 1-.001-1.687.844.844 0 0 1 .001 1.687ZM6.56 8.821a1.012 1.012 0 1 1 .001-2.024 1.012 1.012 0 0 1 0 2.024Zm5.06 0a1.012 1.012 0 1 1 .001-2.024 1.012 1.012 0 0 1 0 2.024Z" clip-rule="evenodd"></path>
</svg>