<svg width="32" height="32" fill="currentColor" viewBox="0 0 24 24" xmlns="http://www.w3.org/2000/svg">
<path d="M4.86 5.703v2.94H1.5v7.11h5.46V5.703h-2.1Zm0 8.4H3.6v-3.75h1.26v3.75Z"></path>
<path d="M9.9 8.64H7.8v7.14h2.1V8.64Z"></path>
<path d="M9.9 5.703H7.8v2.1h2.1v-2.1Z"></path>
<path d="M10.74 8.64v7.11h3.36v.84h-3.36v1.71h5.46V8.64h-5.46Zm3.36 5.46h-1.26v-3.75h1.26v3.75Z"></path>
<path d="M17.04 8.64v7.11h3.36v.84h-3.36v1.71h5.46V8.64h-5.46Zm3.36 5.46h-1.26v-3.75h1.26v3.75Z"></path>
</svg>