<svg width="32" height="32" fill="currentColor" viewBox="0 0 24 24" xmlns="http://www.w3.org/2000/svg">
<path d="M19.846 11.847a9.101 9.101 0 0 0-.884-3.238l2.788-1.012a8.993 8.993 0 0 0-.77-1.304l-1.308.476a8.991 8.991 0 0 0-16.283 5.935l1.311-.48c.042.501.125 1 .248 1.488l-2.785 1.016a9.109 9.109 0 0 0 1.405 3.046l1.474-.537.002.003a8.915 8.915 0 0 0 3.503 2.918 9.01 9.01 0 0 0 11.958-4.353 8.903 8.903 0 0 0 .81-4.494l-1.469.536Zm-2.19 2.622A5.85 5.85 0 0 1 9.891 17.3a5.79 5.79 0 0 1-1.703-1.21l-1.489.543a5.88 5.88 0 0 1-1.555-2.992l2.793-1.018a5.872 5.872 0 0 1-.092-1.549l-1.314.477a5.83 5.83 0 0 1 8.293-4.847h.005c.634.298 1.21.709 1.698 1.212l1.308-.476c.361.371.671.789.922 1.242l-2.783 1.02a5.868 5.868 0 0 1 .733 3.29l1.476-.536a5.754 5.754 0 0 1-.527 2.013Z"></path>
</svg>