<svg width="32" height="32" fill="currentColor" viewBox="0 0 24 24" xmlns="http://www.w3.org/2000/svg">
<path d="M10.592 20.201a.834.834 0 1 1-1.668 0 .834.834 0 0 1 1.668 0Z"></path>
<path d="M15.769 20.201a.834.834 0 1 1-1.668 0 .834.834 0 0 1 1.668 0"></path>
<path d="m7.523 4.326-.045.729.729.045.045-.73-.73-.044Z"></path>
<path d="M19.82 12.287a9.816 9.816 0 0 0-3.858-3.136 10.588 10.588 0 0 0-.851-.334l.03-.07a3.623 3.623 0 0 0-2.24-4.74 4.453 4.453 0 0 0-1.497-.266c-.027-.094-.087-.506.435-1.618L10.781 1.5l-.253.35c-.288.398-.566.783-.827 1.162a1.624 1.624 0 0 0-1.087-.508l-1.223-.076h-.004a1.64 1.64 0 0 0-1.732 1.534l-.076 1.226v.004a1.641 1.641 0 0 0 1.535 1.73l.876.055a3.878 3.878 0 0 0 .352 2.016 9.897 9.897 0 0 0-3.198 2.175c-2.894 2.923-2.894 6.127-2.894 8.7v1.554l1.143-1.213c.228.806.563 1.576.998 2.291h1.487a8.032 8.032 0 0 1-1.47-3.367l1.677-1.779-.863 2.705 1.523-1.108c2.69-1.958 5.9-2.407 9.544-1.337a3.471 3.471 0 0 0 3.915-1.101c.033-.047.062-.096.092-.145.08.432.122.87.123 1.31A9.315 9.315 0 0 1 19.21 22.5h1.408a10.802 10.802 0 0 0 1.034-4.823 9.2 9.2 0 0 0-1.832-5.39Zm-9.436-7.843a1.19 1.19 0 0 0 1.049.53c.369.005.735.074 1.08.204a2.378 2.378 0 0 1 .77 4.098l-.356-.439-.002-.003a1.279 1.279 0 0 0-2.268.74 2.41 2.41 0 0 1-1.424-2.656 6.36 6.36 0 0 1 1.078-2.599c.022.043.046.085.073.125Zm2.618 6.944-.456.373a.2.2 0 0 1-.282-.029l-.095-.116a.21.21 0 0 1 .03-.295l.45-.367-.926-1.137a.273.273 0 0 1 .037-.384.272.272 0 0 1 .384.04l2.59 3.19a.27.27 0 0 1-.149.436.269.269 0 0 1-.271-.093l-.258-.318-.916.748a.21.21 0 0 1-.234.022.21.21 0 0 1-.064-.052l-.415-.508a.21.21 0 0 1 .03-.294l.92-.752-.375-.464ZM6.81 5.264l.076-1.226a.405.405 0 0 1 .404-.38l.024.001 1.226.076a.404.404 0 0 1 .378.429l-.005.089c-.277.476-.504.98-.678 1.503L7.19 5.691a.406.406 0 0 1-.379-.427Zm12.386 10.538a2.241 2.241 0 0 1-2.559.628c-3.398-.997-6.471-.79-9.159.616l1.43-4.484-5.402 5.73a8.753 8.753 0 0 1 2.515-6.257 8.622 8.622 0 0 1 3.08-2.018 4.065 4.065 0 0 0 2.103 1.006 1.22 1.22 0 0 0 .184 1.231l.063.078a1.219 1.219 0 0 0 .195 1.204l.415.508a1.22 1.22 0 0 0 1.717.174l.249-.203a1.28 1.28 0 0 0 1.49-1.99L14.06 10.23c.13-.105.251-.22.365-.342.353.11.7.239 1.037.389a8.564 8.564 0 0 1 3.381 2.763c.731 1.005.863 2.037.353 2.761Z"></path>
</svg>