<svg width="32" height="32" fill="currentColor" viewBox="0 0 24 24" xmlns="http://www.w3.org/2000/svg">
<path d="M20.983 7.22a5.488 5.488 0 0 0-.089-.966 3.936 3.936 0 0 0-.365-1.121 3.891 3.891 0 0 0-.75-1 3.717 3.717 0 0 0-1.635-.932 6.633 6.633 0 0 0-1.73-.184l-.003-.01H7.587v.01a9.434 9.434 0 0 0-.992.044 4.722 4.722 0 0 0-1.06.239A3.837 3.837 0 0 0 3.19 5.86a6.6 6.6 0 0 0-.184 1.714L3 16.43c.006.4.033.8.082 1.199.06.42.184.828.368 1.211.26.51.63.957 1.082 1.308.324.258.69.456 1.083.587a5.875 5.875 0 0 0 1.781.261c.378.002.755.012 1.133.01 2.744-.011 5.488.02 8.232-.017a6.473 6.473 0 0 0 1.08-.114 3.657 3.657 0 0 0 1.809-.88 3.744 3.744 0 0 0 1.195-1.99A7.249 7.249 0 0 0 21 16.43v-.106c0-.041-.015-8.985-.017-9.103Zm-2.41 8.33c-.116.27-.698.492-1.683.645-.092.014-.131.163-.185.408a4.29 4.29 0 0 1-.075.304.184.184 0 0 1-.195.146h-.015a1.575 1.575 0 0 1-.28-.036 3.691 3.691 0 0 0-.74-.078c-.178 0-.356.016-.532.045-.372.094-.717.27-1.011.517a2.934 2.934 0 0 1-1.775.7c-.038 0-.074-.002-.1-.003a.797.797 0 0 1-.067.002 2.93 2.93 0 0 1-1.773-.699 2.557 2.557 0 0 0-1.013-.517 3.265 3.265 0 0 0-.532-.045c-.249.002-.497.03-.74.083a1.646 1.646 0 0 1-.28.04.193.193 0 0 1-.21-.15 4.237 4.237 0 0 1-.075-.306c-.054-.247-.093-.397-.185-.41-.985-.153-1.567-.377-1.683-.648a.251.251 0 0 1-.02-.085.158.158 0 0 1 .132-.165 3.44 3.44 0 0 0 2.067-1.23c.286-.33.523-.699.705-1.096l.004-.007a.708.708 0 0 0 .067-.593c-.127-.3-.547-.432-.825-.52a2.853 2.853 0 0 1-.187-.064c-.246-.098-.652-.303-.598-.587a.55.55 0 0 1 .697-.32c.207.107.435.168.668.178a.56.56 0 0 0 .385-.118 36.883 36.883 0 0 0-.024-.394 6.656 6.656 0 0 1 .16-2.659 3.456 3.456 0 0 1 3.208-2.068l.265-.003a3.462 3.462 0 0 1 3.214 2.07c.232.868.286 1.773.16 2.662l-.004.043-.02.35c.099.078.222.12.349.116.22-.016.434-.076.63-.175a.497.497 0 0 1 .206-.041c.08 0 .16.015.235.045l.004.001a.437.437 0 0 1 .33.359c.003.137-.1.343-.602.542-.052.02-.118.041-.187.063-.278.088-.698.222-.825.52a.708.708 0 0 0 .067.593l.004.007a4.074 4.074 0 0 0 2.772 2.326.158.158 0 0 1 .133.165.253.253 0 0 1-.021.086Z"></path>
</svg>