<svg width="32" height="32" fill="currentColor" viewBox="0 0 24 24" xmlns="http://www.w3.org/2000/svg">
<path d="M16.867 17.786h-5.655a2.339 2.339 0 0 1-1.807-.75A11.182 11.182 0 0 1 7.5 14.163c-.975-1.95-1.905-3.915-2.865-5.865-.292-.6-.615-1.17-.96-1.74A5.88 5.88 0 0 0 1.5 4.203h2.678c1.759.017 3.514.17 5.25.458a6.068 6.068 0 0 1 4.754 3.817 36.383 36.383 0 0 1 1.628 5.52 19.503 19.503 0 0 0 1.057 3.788Z"></path>
<path d="M21.075 19.785a2.198 2.198 0 0 1-2.055-1.98 31.543 31.543 0 0 1-.105-3.675 36.01 36.01 0 0 0-.457-5.685 2.813 2.813 0 0 0-.623-1.5h1.988c.404 0 .547.278.667.585.28.783.452 1.6.51 2.43.218 2.04.233 4.088.247 6.135a8.163 8.163 0 0 0 0 .863c.068.585.3.825.878.81.375 0 .375-.045.375-.045v2.017a6.41 6.41 0 0 1-1.425.045Z"></path>
</svg>