<svg width="32" height="32" fill="currentColor" viewBox="0 0 24 24" xmlns="http://www.w3.org/2000/svg">
<path d="M22.057 6.943a2.625 2.625 0 0 0-1.852-1.852C18.57 4.648 12 4.648 12 4.648s-6.57 0-8.205.443a2.625 2.625 0 0 0-1.853 1.852 27.097 27.097 0 0 0-.442 5.055 27.107 27.107 0 0 0 .442 5.055 2.625 2.625 0 0 0 1.853 1.853c1.635.442 8.205.442 8.205.442s6.57 0 8.205-.442a2.625 2.625 0 0 0 1.852-1.853 27.1 27.1 0 0 0 .443-5.055 27.1 27.1 0 0 0-.443-5.055ZM9.9 15.148v-6.3l5.452 3.15-5.452 3.15Z"></path>
</svg>