<svg width="32" height="32" fill="currentColor" viewBox="0 0 24 24" xmlns="http://www.w3.org/2000/svg">
<path d="M8.565 6.22a.938.938 0 0 0-.848-.57h-3a.488.488 0 0 0-.412.187.472.472 0 0 0 0 .465l2.047 3.547-3.225 5.693a.45.45 0 0 0 .166.623.435.435 0 0 0 .224.052h3a.915.915 0 0 0 .825-.585l3.27-5.783-2.047-3.63Z"></path>
<path d="M20.873 2.16a.488.488 0 0 0 0-.464.458.458 0 0 0-.398-.195h-3.06a.893.893 0 0 0-.81.577s-6.524 11.572-6.75 11.947l4.306 7.898a.945.945 0 0 0 .84.578h3a.442.442 0 0 0 .404-.196.465.465 0 0 0 0-.465l-4.267-7.8 6.735-11.88Z"></path>
</svg>