<svg width="32" height="32" fill="currentColor" viewBox="0 0 24 24" xmlns="http://www.w3.org/2000/svg">
<path d="M20.932 13.409A9.045 9.045 0 0 0 10.59 3.067a5.467 5.467 0 0 0-7.5 7.5c-.085.472-.13.951-.135 1.432A9.045 9.045 0 0 0 13.41 20.93a5.467 5.467 0 0 0 7.5-7.5l.022-.022Zm-4.635 2.7a3.75 3.75 0 0 1-1.68 1.297 6.75 6.75 0 0 1-2.61.465A6.307 6.307 0 0 1 9 17.25a3.9 3.9 0 0 1-1.365-1.223 2.693 2.693 0 0 1-.525-1.5 1.02 1.02 0 0 1 .322-.75 1.17 1.17 0 0 1 .818-.277c.249-.005.49.08.682.24.21.195.371.437.473.705.13.313.296.61.495.885.198.253.455.454.75.585.4.171.833.25 1.267.232a3 3 0 0 0 1.755-.465 1.351 1.351 0 0 0 .585-1.624 1.154 1.154 0 0 0-.27-.4 2.316 2.316 0 0 0-.937-.526c-.39-.127-.908-.255-1.56-.397-.75-.175-1.48-.42-2.183-.735a3.585 3.585 0 0 1-1.417-1.05 2.625 2.625 0 0 1-.525-1.658 2.737 2.737 0 0 1 .555-1.68 3.52 3.52 0 0 1 1.605-1.125A7.132 7.132 0 0 1 12 6.126a6.472 6.472 0 0 1 1.942.263c.495.147.96.38 1.373.69.325.244.595.553.795.907.162.286.25.609.255.938a1.049 1.049 0 0 1-.323.75 1.071 1.071 0 0 1-.802.345.938.938 0 0 1-.668-.21 2.521 2.521 0 0 1-.487-.653 2.841 2.841 0 0 0-.788-.982 2.347 2.347 0 0 0-1.462-.345 2.73 2.73 0 0 0-1.5.375 1.08 1.08 0 0 0-.57.9.862.862 0 0 0 .187.562c.15.174.334.314.54.413.22.114.451.204.69.27.24.067.63.165 1.178.292.69.15 1.305.315 1.867.495.503.154.983.376 1.425.66.386.244.703.582.923.983.223.456.326.962.3 1.47a3.18 3.18 0 0 1-.578 1.86Z"></path>
</svg>