<svg width="32" height="32" fill="currentColor" viewBox="0 0 24 24" xmlns="http://www.w3.org/2000/svg">
<path fill-rule="evenodd" d="M22.5 11.087c0-3.884-4.701-7.032-10.5-7.032S1.5 7.203 1.5 11.087c0 3.46 3.736 6.331 8.652 6.917v2.243l3.582-.001v-2.23a14.532 14.532 0 0 0 2.507-.499l1.454 2.732 4.048-.002-2.44-4.114c1.969-1.278 3.197-3.065 3.197-5.046Zm-16.874.525c0-2.655 3.574-4.808 7.981-4.808 4.408 0 7.66 1.472 7.66 4.808a4.103 4.103 0 0 1-2.548 3.844 2.433 2.433 0 0 0-.223-.131 7.853 7.853 0 0 0-1.005-.379s3.13-.232 3.13-3.35c0-3.116-3.276-3.175-3.276-3.175h-7.193v7.52c-2.674-.777-4.526-2.421-4.526-4.33Zm10.307 1.384h-2.17l.001-2.01h2.169a.936.936 0 0 1 1.005.987.992.992 0 0 1-1.005 1.022Zm-2.2 2.62h.962a.659.659 0 0 1 .48.219c.147.14.276.3.383.472a16.83 16.83 0 0 1-1.824.11v-.8Z" clip-rule="evenodd"></path>
</svg>