<svg width="32" height="32" fill="currentColor" viewBox="0 0 24 24" xmlns="http://www.w3.org/2000/svg">
<path d="M8.94 18.704a9.57 9.57 0 0 0 9.63-9.63v-.442a7.05 7.05 0 0 0 1.68-1.747c-.618.27-1.273.45-1.942.532a3.42 3.42 0 0 0 1.5-1.875 6.667 6.667 0 0 1-2.145.825 3.39 3.39 0 0 0-5.776 3.083 9.592 9.592 0 0 1-6.975-3.533 3.382 3.382 0 0 0 1.05 4.5 3.353 3.353 0 0 1-1.5-.42v.037a3.397 3.397 0 0 0 2.663 3.338 3.397 3.397 0 0 1-1.5.06 3.383 3.383 0 0 0 3.135 2.317 6.788 6.788 0 0 1-4.207 1.5 7.333 7.333 0 0 1-.803-.067 9.577 9.577 0 0 0 5.19 1.5"></path>
</svg>