<svg width="32" height="32" fill="currentColor" viewBox="0 0 24 24" xmlns="http://www.w3.org/2000/svg">
<path d="M24 12.576v-2.2c0-1.86-1.861-2.876-3.384-2.876a5.059 5.059 0 0 0-2.877 1.185A3.8 3.8 0 0 0 15.032 7.5a4.454 4.454 0 0 0-2.877 1.185A2.863 2.863 0 0 0 9.617 7.5 2.619 2.619 0 0 0 7.11 8.866L4.88 13.93 2.401 8.25A1.253 1.253 0 0 0 .76 7.6a1.253 1.253 0 0 0-.645 1.676l3.072 6.685s.508 1.184 1.523 1.184a1.431 1.431 0 0 0 1.523-.846c.235-.351 2.01-4.087 3.081-6.352a.426.426 0 0 1 .811.183v5.615a1.384 1.384 0 0 0 1.264 1.397 1.354 1.354 0 0 0 1.443-1.35v-4.654a1.438 1.438 0 1 1 2.877 0v4.653a1.354 1.354 0 1 0 2.707 0v-4.653a1.439 1.439 0 1 1 2.877 0v4.653a1.354 1.354 0 1 0 2.707 0v-3.215Z"></path>
</svg>