<svg width="32" height="32" fill="currentColor" viewBox="0 0 24 24" xmlns="http://www.w3.org/2000/svg">
<path fill-rule="evenodd" d="m6.817 11.433 3.503 1.708a.803.803 0 0 1-.157 1.501l-3.782.943a.805.805 0 0 1-.993-.69 6.913 6.913 0 0 1 .316-2.998.803.803 0 0 1 1.113-.464Z" clip-rule="evenodd"></path>
<path fill-rule="evenodd" d="m8.22 18.646 2.607-2.896a.803.803 0 0 1 1.4.565l-.136 3.896a.805.805 0 0 1-.937.765 6.977 6.977 0 0 1-2.792-1.13.802.802 0 0 1-.142-1.2Z" clip-rule="evenodd"></path>
<path fill-rule="evenodd" d="m14.402 14.79 3.706 1.204a.805.805 0 0 1 .477 1.11 6.976 6.976 0 0 1-1.853 2.374.804.804 0 0 1-1.194-.194l-2.065-3.305a.804.804 0 0 1 .929-1.19Z" clip-rule="evenodd"></path>
<path fill-rule="evenodd" d="m18.17 12.427-3.745 1.074a.803.803 0 0 1-.887-1.22l2.18-3.231a.803.803 0 0 1 1.195-.155 6.912 6.912 0 0 1 1.772 2.437.804.804 0 0 1-.514 1.095Z" clip-rule="evenodd"></path>
<path fill-rule="evenodd" d="M9.417 3.335a11.26 11.26 0 0 0-1.926.71.802.802 0 0 0-.348 1.126l3.662 6.342a.803.803 0 0 0 1.498-.402V3.788a.802.802 0 0 0-.864-.801c-.683.054-1.36.17-2.022.348Z" clip-rule="evenodd"></path>
</svg>