<svg width="32" height="32" fill="currentColor" viewBox="0 0 24 24" xmlns="http://www.w3.org/2000/svg">
<path d="M21.75 17.898h-1.5a1.29 1.29 0 0 1-1.297 1.29c-.863 0-1.366-.645-1.936-1.5a8.25 8.25 0 0 0 3.593-6.825c.067-5.393-4.387-8.918-9.127-8.918-4.74 0-9.233 3.585-9.233 8.835 0 5.25 4.5 8.843 9.127 8.843a8.031 8.031 0 0 0 2.303-.36c.863 1.582 1.943 2.805 4.095 2.805a3.75 3.75 0 0 0 3.975-4.17Zm-6.105-2.588a4.733 4.733 0 0 0-4.17-2.37 4.5 4.5 0 0 0-2.805.863l.48 1.2c.21-.062.427-.087.645-.075 1.365 0 2.25 1.147 3.09 2.73-.47.108-.95.156-1.432.142-3.308.023-4.703-2.347-4.703-6.945 0-4.597 1.432-6.975 4.672-6.975 3.24 0 4.74 2.37 4.74 6.975a15.512 15.512 0 0 1-.54 4.455h.023Z"></path>
</svg>