<svg width="32" height="32" fill="currentColor" viewBox="0 0 24 24" xmlns="http://www.w3.org/2000/svg">
<path d="M6.782 14.375a1.891 1.891 0 1 1-1.891-1.89h1.89v1.89Z"></path>
<path d="M7.734 14.371a1.891 1.891 0 0 1 3.782 0v4.735A1.89 1.89 0 0 1 8.9 20.863a1.89 1.89 0 0 1-1.165-1.757V14.37Z"></path>
<path d="M9.625 6.782a1.89 1.89 0 1 1 1.891-1.891v1.89h-1.89Z"></path>
<path d="M9.626 7.734a1.891 1.891 0 0 1 0 3.782H4.89A1.889 1.889 0 0 1 3.133 8.9a1.89 1.89 0 0 1 1.758-1.165h4.735Z"></path>
<path d="M17.219 9.625a1.89 1.89 0 1 1 1.89 1.891h-1.89v-1.89Z"></path>
<path d="M16.265 9.622a1.892 1.892 0 0 1-3.782 0V4.887a1.893 1.893 0 0 1 2.618-1.758 1.892 1.892 0 0 1 1.164 1.758v4.735Z"></path>
<path d="M14.374 17.219a1.89 1.89 0 1 1-1.89 1.89v-1.89h1.89Z"></path>
<path d="M14.374 16.266a1.89 1.89 0 0 1 0-3.782h4.735a1.891 1.891 0 1 1 0 3.782h-4.735Z"></path>
</svg>