<svg width="32" height="32" fill="currentColor" viewBox="0 0 24 24" xmlns="http://www.w3.org/2000/svg">
<path d="M10.235 11.184a1.086 1.086 0 1 0 .995 1.082 1.036 1.036 0 0 0-.995-1.082Zm3.56 0a1.086 1.086 0 1 0 .994 1.082 1.04 1.04 0 0 0-.995-1.082Z"></path>
<path d="M18.532 3H5.468a2.004 2.004 0 0 0-2 2.008v13.183a2.003 2.003 0 0 0 2 2.008h11.056l-.517-1.804 1.248 1.16 1.18 1.093 2.096 1.852V5.008A2.005 2.005 0 0 0 18.533 3ZM14.77 15.733s-.351-.419-.643-.79a3.076 3.076 0 0 0 1.764-1.16 5.58 5.58 0 0 1-1.121.576 6.421 6.421 0 0 1-1.414.419 6.83 6.83 0 0 1-2.525-.01 8.18 8.18 0 0 1-1.433-.419 5.705 5.705 0 0 1-.712-.332c-.03-.019-.058-.029-.088-.048a.137.137 0 0 1-.039-.03c-.175-.097-.273-.165-.273-.165.418.57 1.021.977 1.707 1.15-.293.37-.654.81-.654.81a3.534 3.534 0 0 1-2.973-1.482c.031-1.977.511-3.92 1.404-5.685a4.821 4.821 0 0 1 2.74-1.024l.097.117a6.577 6.577 0 0 0-2.564 1.278s.214-.117.575-.283c.7-.32 1.447-.527 2.213-.614a.96.96 0 0 1 .166-.02 7.948 7.948 0 0 1 4.904.916A6.49 6.49 0 0 0 13.472 7.7l.137-.157c.997.05 1.954.408 2.74 1.024a13.056 13.056 0 0 1 1.404 5.684 3.563 3.563 0 0 1-2.984 1.482Z"></path>
</svg>