<svg width="32" height="32" fill="currentColor" viewBox="0 0 24 24" xmlns="http://www.w3.org/2000/svg">
<path d="M18 9.75a3 3 0 0 0 3-3V6a3 3 0 0 0-3-3h-.75a3 3 0 0 0-3 3v2.25h-4.5V6a3 3 0 0 0-3-3H6a3 3 0 0 0-3 3v.75a3 3 0 0 0 3 3h2.25v4.5H6a3 3 0 0 0-3 3V18a3 3 0 0 0 3 3h.75a3 3 0 0 0 3-3v-2.25h4.5V18a3 3 0 0 0 3 3H18a3 3 0 0 0 3-3v-.75a3 3 0 0 0-3-3h-2.25v-4.5H18ZM15.75 6a1.5 1.5 0 0 1 1.5-1.5H18A1.5 1.5 0 0 1 19.5 6v.75a1.5 1.5 0 0 1-1.5 1.5h-2.25V6ZM6 8.25a1.5 1.5 0 0 1-1.5-1.5V6A1.5 1.5 0 0 1 6 4.5h.75A1.5 1.5 0 0 1 8.25 6v2.25H6ZM8.25 18a1.5 1.5 0 0 1-1.5 1.5H6A1.5 1.5 0 0 1 4.5 18v-.75a1.5 1.5 0 0 1 1.5-1.5h2.25V18Zm6-3.75h-4.5v-4.5h4.5v4.5Zm1.5 1.5H18a1.5 1.5 0 0 1 1.5 1.5V18a1.5 1.5 0 0 1-1.5 1.5h-.75a1.5 1.5 0 0 1-1.5-1.5v-2.25Z"></path>
</svg>