<svg width="32" height="32" fill="currentColor" viewBox="0 0 24 24" xmlns="http://www.w3.org/2000/svg">
<path d="M12 18.747a5.243 5.243 0 0 1-4.375-2.346l1.25-.83a3.75 3.75 0 0 0 6.25 0l1.25.83A5.243 5.243 0 0 1 12 18.747Z"></path>
<path d="M15 10.5a1.5 1.5 0 1 0 1.5 1.5 1.486 1.486 0 0 0-1.5-1.5Z"></path>
<path d="M9 10.5a1.5 1.5 0 1 0 1.5 1.5A1.486 1.486 0 0 0 9 10.5Z"></path>
<path d="M22.5 12v-1.5H21v-3a3.003 3.003 0 0 0-3-3h-1.5v-3H15v3H9v-3H7.5v3H6a3.003 3.003 0 0 0-3 3v3H1.5V12H3v3.75H1.5v1.5H3v2.25a3.003 3.003 0 0 0 3 3h12a3.003 3.003 0 0 0 3-3v-2.25h1.5v-1.5H21V12h1.5Zm-3 7.5A1.502 1.502 0 0 1 18 21H6a1.502 1.502 0 0 1-1.5-1.5v-12A1.502 1.502 0 0 1 6 6h12a1.502 1.502 0 0 1 1.5 1.5v12Z"></path>
</svg>