<svg width="32" height="32" fill="currentColor" viewBox="0 0 24 24" xmlns="http://www.w3.org/2000/svg">
<path d="M20.25 18a2.22 2.22 0 0 0-.964.226L16.061 15H13.5v1.5h1.94l2.785 2.786c-.146.3-.223.63-.225.964A2.25 2.25 0 1 0 20.25 18Zm0 3a.75.75 0 1 1 0-1.5.75.75 0 0 1 0 1.5Z"></path>
<path d="M20.25 9.75a2.246 2.246 0 0 0-2.112 1.5H13.5v1.5h4.638a2.246 2.246 0 1 0 2.112-3Zm0 3a.75.75 0 1 1 0-1.5.75.75 0 0 1 0 1.5Z"></path>
<path d="M20.25 1.5A2.253 2.253 0 0 0 18 3.75c.003.36.092.713.261 1.03L15.447 7.5H13.5V9h2.553l3.3-3.19a2.249 2.249 0 1 0 .897-4.31Zm0 3a.75.75 0 1 1 0-1.5.75.75 0 0 1 0 1.5Z"></path>
<path d="M13.5 4.5H15V3h-1.5a2.982 2.982 0 0 0-2.25 1.037A2.982 2.982 0 0 0 9 3h-.75A6.758 6.758 0 0 0 1.5 9.75v4.5A6.758 6.758 0 0 0 8.25 21H9a2.983 2.983 0 0 0 2.25-1.037A2.982 2.982 0 0 0 13.5 21H15v-1.5h-1.5A1.502 1.502 0 0 1 12 18V6a1.502 1.502 0 0 1 1.5-1.5ZM9 19.5h-.75A5.253 5.253 0 0 1 3.06 15H4.5v-1.5H3v-3h2.25A2.253 2.253 0 0 0 7.5 8.25v-1.5H6v1.5a.75.75 0 0 1-.75.75H3.06a5.254 5.254 0 0 1 5.19-4.5H9A1.502 1.502 0 0 1 10.5 6v3H9v1.5h1.5v3H9a2.253 2.253 0 0 0-2.25 2.25v1.5h1.5v-1.5A.75.75 0 0 1 9 15h1.5v3A1.502 1.502 0 0 1 9 19.5Z"></path>
</svg>