<svg width="32" height="32" fill="currentColor" viewBox="0 0 24 24" xmlns="http://www.w3.org/2000/svg">
<path d="M12.442 15.307 15.127 18l-2.692 2.692L13.5 21.75 17.25 18l-3.75-3.75-1.058 1.057Z"></path>
<path d="M17.692 15.307 20.377 18l-2.692 2.692 1.065 1.058L22.5 18l-3.75-3.75-1.058 1.057Z"></path>
<path d="M10.5 17.25H3V5.933l8.572 5.932a.75.75 0 0 0 .856 0L21 5.932v6.818h1.5v-7.5a1.5 1.5 0 0 0-1.5-1.5H3a1.5 1.5 0 0 0-1.5 1.5v12a1.5 1.5 0 0 0 1.5 1.5h7.5v-1.5Zm8.85-12L12 10.335 4.65 5.25h14.7Z"></path>
</svg>