<svg width="32" height="32" fill="currentColor" viewBox="0 0 24 24" xmlns="http://www.w3.org/2000/svg">
<path d="M22.5 12H21V3h-9V1.5h9A1.502 1.502 0 0 1 22.5 3v9Z"></path>
<path d="M18.75 17.25h-1.5V6.75H6.75v-1.5h10.5a1.502 1.502 0 0 1 1.5 1.5v10.5Z"></path>
<path d="M13.5 22.5H3A1.502 1.502 0 0 1 1.5 21V10.5A1.502 1.502 0 0 1 3 9h10.5a1.502 1.502 0 0 1 1.5 1.5V21a1.502 1.502 0 0 1-1.5 1.5ZM3 10.5V21h10.502L13.5 10.5H3Z"></path>
<path d="M9.75 13.5h.75V12h-.75a3.756 3.756 0 0 0-3.674 3H5.25v1.5h.826a3.756 3.756 0 0 0 3.674 3h.75V18h-.75a2.25 2.25 0 0 1 0-4.5Z"></path>
</svg>