<svg width="32" height="32" fill="currentColor" viewBox="0 0 24 24" xmlns="http://www.w3.org/2000/svg">
<path d="M18.75 24H24v-5.25h-1.5v3.75h-3.75V24Z"></path>
<path d="M18.75 20.25H16.5v-7.5h2.25A2.253 2.253 0 0 1 21 15v3a2.253 2.253 0 0 1-2.25 2.25Zm-.75-1.5h.75a.75.75 0 0 0 .75-.75v-3a.75.75 0 0 0-.75-.75H18v4.5Z"></path>
<path d="M15 20.25h-4.5v-3a1.502 1.502 0 0 1 1.5-1.5h1.5v-1.5h-3v-1.5h3a1.502 1.502 0 0 1 1.5 1.5v1.5a1.502 1.502 0 0 1-1.5 1.5H12v1.5h3v1.5Z"></path>
<path d="M18.75 11.25H16.5v-7.5h2.25A2.253 2.253 0 0 1 21 6v3a2.253 2.253 0 0 1-2.25 2.25ZM18 9.75h.75A.75.75 0 0 0 19.5 9V6a.75.75 0 0 0-.75-.75H18v4.5Z"></path>
<path d="M13.5 3.75h-3v1.5h3v1.5h-2.25v1.5h2.25v1.5h-3v1.5h3a1.502 1.502 0 0 0 1.5-1.5v-4.5a1.502 1.502 0 0 0-1.5-1.5Z"></path>
<path d="M7.5 20.25H6v-2.284c-3.536-.332-4.5-3.008-4.5-4.466 0-2.261 1.562-3.376 2.94-4.36C5.68 8.254 6.75 7.489 6.75 6V3.75h1.5V6c0 2.26-1.561 3.376-2.94 4.36C4.07 11.246 3 12.011 3 13.5c.004.303.144 3 3.75 3a.75.75 0 0 1 .75.75v3Z"></path>
<path d="M5.25 0H0v5.25h1.5V1.5h3.75V0Z"></path>
</svg>