<svg width="32" height="32" fill="currentColor" viewBox="0 0 24 24" xmlns="http://www.w3.org/2000/svg">
<path d="M22.5 17.25h-3.75V13.5h-1.5v3.75H13.5v1.5h3.75v3.75h1.5v-3.75h3.75v-1.5Z"></path>
<path d="m18.096 8.88.885.16a4.344 4.344 0 0 1 1.969.858 4.066 4.066 0 0 1 1.515 3.602h1.522a5.627 5.627 0 0 0-4.612-5.914 7.506 7.506 0 0 0-8.883-5.933A7.502 7.502 0 0 0 4.63 7.586a5.63 5.63 0 0 0-4.587 6.22A5.763 5.763 0 0 0 5.83 18.75h4.67v-1.5H5.773a4.225 4.225 0 0 1-4.201-3.364 4.13 4.13 0 0 1 3.325-4.823l1.012-.183.16-.833a6.155 6.155 0 0 1 5.057-4.982 5.979 5.979 0 0 1 2.26.098 6.108 6.108 0 0 1 4.54 4.834l.17.883Z"></path>
</svg>