<svg width="32" height="32" fill="currentColor" viewBox="0 0 24 24" xmlns="http://www.w3.org/2000/svg">
<path d="M12.75 6h-1.5v4.5h1.5V6Z"></path>
<path d="M12.75 13.5h-1.5V18h1.5v-4.5Z"></path>
<path d="M18 11.25h-4.5v1.5H18v-1.5Z"></path>
<path d="M10.5 11.25H6v1.5h4.5v-1.5Z"></path>
<path d="M3 7.5H1.5V3A1.502 1.502 0 0 1 3 1.5h4.5V3H3v4.5Z"></path>
<path d="M7.5 22.5H3A1.502 1.502 0 0 1 1.5 21v-4.5H3V21h4.5v1.5Z"></path>
<path d="M21 22.5h-4.5V21H21v-4.5h1.5V21a1.502 1.502 0 0 1-1.5 1.5Z"></path>
<path d="M22.5 7.5H21V3h-4.5V1.5H21A1.502 1.502 0 0 1 22.5 3v4.5Z"></path>
</svg>