<svg width="32" height="32" fill="currentColor" viewBox="0 0 24 24" xmlns="http://www.w3.org/2000/svg">
<path d="M18.75 19.5h-1.5v3h1.5v-3Z"></path>
<path d="M18.75 13.5h-1.5v3h1.5v-3Z"></path>
<path d="M22.5 17.25h-3v1.5h3v-1.5Z"></path>
<path d="M16.5 17.25h-3v1.5h3v-1.5Z"></path>
<path d="m19.006 7.545-16.5-6a.75.75 0 0 0-.96.961l6 16.5a.75.75 0 0 0 .692.494h.012a.75.75 0 0 0 .697-.471l2.88-7.202 7.202-2.88a.75.75 0 0 0-.022-1.402Zm-8.034 3.008-.299.12-.12.298-2.27 5.676L3.505 3.504l13.143 4.78-5.675 2.27Z"></path>
</svg>