<svg width="32" height="32" fill="currentColor" viewBox="0 0 24 24" xmlns="http://www.w3.org/2000/svg">
<path d="M21 12h-7.5v-1.5h3.75v-3a1.5 1.5 0 0 1 1.5-1.5h1.125a1.125 1.125 0 0 0 .213-2.23l-.533-.102-.056-.428a1.974 1.974 0 0 0-1.26-1.637 1.879 1.879 0 0 0-2.313.978l-.228.486-.532-.058a1.514 1.514 0 0 0-1.627 1.826A1.573 1.573 0 0 0 15.095 6h.655v1.5h-.586a3.112 3.112 0 0 1-3.155-2.765 3.002 3.002 0 0 1 2.806-3.23 3.376 3.376 0 0 1 6.055.94 2.629 2.629 0 0 1 1.607 2.782 2.721 2.721 0 0 1-2.74 2.273h-.987v3H21V12Z"></path>
<path d="M16.5 13.5h-3V15h3v-1.5Z"></path>
<path d="M10.5 13.5V12H9v3h3v-1.5h-1.5Z"></path>
<path d="M10.5 7.5H9v3h1.5v-3Z"></path>
<path d="m13.414 22.5-4.55-2.893L3 20.992V3h7.5v3H9V4.5H4.5v14.596L9.136 18l4.45 2.831 3.527-1.332H19.5V15H18v-1.5h3V21h-3.613l-3.973 1.5Z"></path>
</svg>