<svg width="32" height="32" fill="currentColor" viewBox="0 0 24 24" xmlns="http://www.w3.org/2000/svg">
<path d="m12 18-4.567-6.45A6.105 6.105 0 0 1 12 1.5a6.06 6.06 0 0 1 6 6.098 6.15 6.15 0 0 1-1.35 3.847L12 18Zm0-15a4.552 4.552 0 0 0-4.5 4.598 4.642 4.642 0 0 0 1.118 3L12 15.39l3.473-4.89A4.68 4.68 0 0 0 16.5 7.598 4.553 4.553 0 0 0 12 3Z"></path>
<path d="M12 8.25a1.5 1.5 0 1 0 0-3 1.5 1.5 0 0 0 0 3Z"></path>
<path d="M21 9h-1.5v1.5H21V21H3V10.5h1.5V9H3a1.5 1.5 0 0 0-1.5 1.5V21A1.5 1.5 0 0 0 3 22.5h18a1.5 1.5 0 0 0 1.5-1.5V10.5A1.5 1.5 0 0 0 21 9Z"></path>
</svg>