<svg width="32" height="32" fill="currentColor" viewBox="0 0 24 24" xmlns="http://www.w3.org/2000/svg">
<path d="M9 15H5.25a.75.75 0 0 0-.728.932l.705 2.818h1.546L6.21 16.5h11.58l-.563 2.25h1.546l.704-2.818A.75.75 0 0 0 18.75 15H10.5V2.25a.75.75 0 0 0-1.35-.45l-7.495 9.743a.75.75 0 0 0 .595 1.207H9V15Zm-5.227-3.75L9 4.455v6.795H3.773Z"></path>
<path d="M20.18 19.313A2.249 2.249 0 0 1 18 21a2.579 2.579 0 0 1-2.289-1.737.755.755 0 0 0-1.149-.374.742.742 0 0 0-.272.37A2.58 2.58 0 0 1 12 21a2.579 2.579 0 0 1-2.289-1.737A.755.755 0 0 0 9 18.75a.728.728 0 0 0-.71.51A2.58 2.58 0 0 1 6 21a2.249 2.249 0 0 1-2.18-1.687l-1.452.374A3.747 3.747 0 0 0 6 22.5a3.7 3.7 0 0 0 3-1.49 3.764 3.764 0 0 0 6 0 3.698 3.698 0 0 0 3 1.49 3.748 3.748 0 0 0 3.632-2.813l-1.453-.374Z"></path>
<path d="m22.434 10.452-4.712-8.674a.538.538 0 0 0-.943 0l-4.712 8.674a.54.54 0 0 0 .473.798h9.42a.54.54 0 0 0 .474-.798ZM16.688 4.5h1.125v3h-1.125v-3Zm.562 5.25a.75.75 0 1 1 0-1.5.75.75 0 0 1 0 1.5Z"></path>
</svg>