<svg width="32" height="32" fill="currentColor" viewBox="0 0 24 24" xmlns="http://www.w3.org/2000/svg">
<path d="M7.767 17.294c1.81 1.15 3.949 2.206 5.697 2.206a2.904 2.904 0 0 0 2.141-.813c1.715-1.718.106-4.798-1.453-7.78l4.35-4.35a32.72 32.72 0 0 1 2.26 1.593l.988-1.139a34.058 34.058 0 0 0-2.154-1.547L22.5 2.56 21.44 1.5l-3.155 3.155c-2.488-1.433-5.331-2.435-6.922-.842-1.53 1.532-.413 4.15.951 6.812l-4.73 4.73a32.949 32.949 0 0 1-2.1-1.576L4.5 14.914c.46.379 1.163.933 1.999 1.526L3 19.939V1.5H1.5V21A1.5 1.5 0 0 0 3 22.5h19.5V21H4.06l3.707-3.706Zm4.657-12.418c.851-.854 2.77-.215 4.752.887L13.43 9.51c-.984-1.965-1.763-3.876-1.006-4.633Zm.616 7.144c1.185 2.274 2.386 4.722 1.505 5.605-.984.985-3.392-.02-5.679-1.431l4.174-4.174Z"></path>
</svg>