<svg width="32" height="32" fill="currentColor" viewBox="0 0 24 24" xmlns="http://www.w3.org/2000/svg">
<path d="M18 14.25h-1.5V18H18v-3.75Z"></path>
<path d="M17.25 23.25a6 6 0 1 1 0-12 6 6 0 0 1 0 12Zm0-10.5a4.5 4.5 0 1 0 0 9 4.5 4.5 0 0 0 0-9Z"></path>
<path d="M17.25 20.25a.75.75 0 1 0 0-1.5.75.75 0 0 0 0 1.5Z"></path>
<path d="M15 1.5H3A1.5 1.5 0 0 0 1.5 3v3A1.5 1.5 0 0 0 3 7.5V21a1.5 1.5 0 0 0 1.5 1.5h6V21h-6v-1.5h3.75V9H4.5V7.5h9v2.25H15V7.5A1.5 1.5 0 0 0 16.5 6V3A1.5 1.5 0 0 0 15 1.5Zm-8.25 9V18H4.5v-7.5h2.25ZM3 6V3h12v3H3Z"></path>
</svg>