<svg width="32" height="32" fill="currentColor" viewBox="0 0 24 24" xmlns="http://www.w3.org/2000/svg">
<path d="M1.5 19.5h2.25a2.25 2.25 0 0 0-2.25-2.25v2.25Z"></path>
<path d="M6.75 19.5h-1.5a3.754 3.754 0 0 0-3.75-3.75v-1.5a5.256 5.256 0 0 1 5.25 5.25Z"></path>
<path d="M9.75 19.5h-1.5a6.758 6.758 0 0 0-6.75-6.75v-1.5a8.26 8.26 0 0 1 8.25 8.25Z"></path>
<path d="M21 19.5h-9.75V18H21V6H3v3.75H1.5V6A1.502 1.502 0 0 1 3 4.5h18A1.502 1.502 0 0 1 22.5 6v12a1.502 1.502 0 0 1-1.5 1.5Z"></path>
</svg>