<svg width="32" height="32" fill="currentColor" viewBox="0 0 24 24" xmlns="http://www.w3.org/2000/svg">
<path d="M19.5 12.003a7.445 7.445 0 0 0-.855-3.464l-1.122 1.122c.316.74.478 1.537.477 2.342h1.5Z"></path>
<path d="m17.56 7.498-1.06-1.06-3.536 3.536c-.3-.147-.63-.224-.964-.226a2.25 2.25 0 1 0 2.25 2.25 2.225 2.225 0 0 0-.225-.964l3.536-3.536ZM12 12.748a.75.75 0 1 1 0-1.5.75.75 0 0 1 0 1.5Z"></path>
<path d="M12 6c.805 0 1.601.161 2.342.476l1.122-1.122A7.49 7.49 0 0 0 4.5 12H6a6.007 6.007 0 0 1 6-6Z"></path>
<path d="M12 22.5A10.5 10.5 0 1 1 22.5 12 10.512 10.512 0 0 1 12 22.5ZM12 3a9 9 0 1 0 9 9 9.01 9.01 0 0 0-9-9Z"></path>
</svg>