<svg width="32" height="32" fill="currentColor" viewBox="0 0 24 24" xmlns="http://www.w3.org/2000/svg">
<path d="M19.046 18a5.907 5.907 0 0 0-1.253-6.426 2.94 2.94 0 0 0-.814-3.31l2.082-2.083a1.502 1.502 0 0 0 0-2.121l-2.12-2.121a1.502 1.502 0 0 0-2.122 0l-9.88 9.88a1.502 1.502 0 0 0 0 2.12l2.122 2.122a1.502 1.502 0 0 0 2.121 0l3.581-3.582a2.95 2.95 0 0 0 4.136.325A4.458 4.458 0 0 1 17.383 18H12v3H3v1.5h18V18h-1.954ZM8.12 15 6 12.88l1.409-1.41 2.121 2.122L8.121 15ZM12 10.5c.001.19.02.379.057.564l-1.466 1.466-2.121-2.12L15.88 3 18 5.12l-2.436 2.437A2.983 2.983 0 0 0 12 10.5Zm3 1.5a1.5 1.5 0 1 1 0-3 1.5 1.5 0 0 1 0 3Zm4.5 9h-6v-1.5h6V21Z"></path>
</svg>