<svg width="32" height="32" fill="currentColor" viewBox="0 0 24 24" xmlns="http://www.w3.org/2000/svg">
<path d="M6.885 13.928a5.558 5.558 0 0 1-.135-1.178V10.5h-1.5v2.25a6.63 6.63 0 0 0 .435 2.385l1.2-1.207Z"></path>
<path d="M9.75 11.251v-6a2.25 2.25 0 0 1 4.5 0v1.313l1.5-1.5a3.751 3.751 0 0 0-7.5.187v6h1.5Z"></path>
<path d="M17.25 12.75a5.25 5.25 0 0 1-8.797 3.855l1.065-1.058a3.75 3.75 0 0 0 6.232-2.797V9.315l6.75-6.75L21.442 1.5 1.5 21.442 2.558 22.5l4.83-4.83a6.683 6.683 0 0 0 3.862 1.785V21h-3v1.5h7.5V21h-3v-1.545a6.75 6.75 0 0 0 6-6.705V10.5h-1.5v2.25Zm-3 0a2.249 2.249 0 0 1-3.675 1.732l3.675-3.667v1.935Z"></path>
</svg>