<svg width="32" height="32" fill="currentColor" viewBox="0 0 24 24" xmlns="http://www.w3.org/2000/svg">
<path d="M19.5 1.5h-15A1.5 1.5 0 0 0 3 3v3a1.5 1.5 0 0 0 1.5 1.5h6.75v4.627l-1.943-1.934L8.25 11.25 12 15l3.75-3.75-1.057-1.057-1.943 1.934V7.5h6.75A1.5 1.5 0 0 0 21 6V3a1.5 1.5 0 0 0-1.5-1.5ZM4.5 3h3v3h-3V3Zm15 3H9V3h10.5v3Z"></path>
<path d="M19.5 16.5h-15A1.5 1.5 0 0 0 3 18v3a1.5 1.5 0 0 0 1.5 1.5h15A1.5 1.5 0 0 0 21 21v-3a1.5 1.5 0 0 0-1.5-1.5ZM4.5 18H15v3H4.5v-3Zm15 3h-3v-3h3v3Z"></path>
</svg>