<svg width="32" height="32" fill="currentColor" viewBox="0 0 24 24" xmlns="http://www.w3.org/2000/svg">
<path d="m22.003 14.95-5.799-2.083-2.424-3.044A2.242 2.242 0 0 0 12.04 9H6.043a2.249 2.249 0 0 0-1.86.984L2.15 12.97a3.741 3.741 0 0 0-.65 2.11v4.42a.75.75 0 0 0 .75.75h1.607a2.986 2.986 0 0 0 5.786 0h4.714a2.986 2.986 0 0 0 5.786 0h1.607a.75.75 0 0 0 .75-.75v-3.844a.75.75 0 0 0-.497-.706ZM6.75 21a1.5 1.5 0 1 1 0-3 1.5 1.5 0 0 1 0 3Zm10.5 0a1.5 1.5 0 1 1 0-3 1.5 1.5 0 0 1 0 3ZM21 18.75h-.857a2.985 2.985 0 0 0-5.786 0H9.643a2.985 2.985 0 0 0-5.786 0H3v-3.67c0-.451.136-.893.39-1.266l2.033-2.986a.75.75 0 0 1 .62-.328h5.997a.744.744 0 0 1 .574.266l2.55 3.201a.751.751 0 0 0 .333.24L21 16.183v2.566Z"></path>
<path d="M21 1.5h-3A1.502 1.502 0 0 0 16.5 3v6a1.502 1.502 0 0 0 1.5 1.5h3A1.502 1.502 0 0 0 22.5 9V3A1.502 1.502 0 0 0 21 1.5ZM21 3v1.5h-3V3h3Zm-3 6V6h3v3h-3Z"></path>
</svg>