<svg width="32" height="32" fill="currentColor" viewBox="0 0 24 24" xmlns="http://www.w3.org/2000/svg">
<path d="M22.5 9H21v2.25h1.5V9Z"></path>
<path d="M19.5 5.25H18V15h1.5V5.25Z"></path>
<path d="M16.5 8.25H15V12h1.5V8.25Z"></path>
<path d="M13.5 6.75H12v6.75h1.5V6.75Z"></path>
<path d="M10.5 9H9v2.25h1.5V9Z"></path>
<path d="M10.125 19.5a1.125 1.125 0 1 0 0-2.25 1.125 1.125 0 0 0 0 2.25Z"></path>
<path d="M15 22.5H5.25a1.502 1.502 0 0 1-1.5-1.5V3a1.502 1.502 0 0 1 1.5-1.5H15V3H5.25v18H15v-3h1.5v3a1.502 1.502 0 0 1-1.5 1.5Z"></path>
</svg>