<svg width="32" height="32" fill="currentColor" viewBox="0 0 24 24" xmlns="http://www.w3.org/2000/svg">
<path d="m21.335 12.08-4.085-2.044V5.25a.75.75 0 0 0-.415-.67l-4.5-2.25a.75.75 0 0 0-.67 0l-4.5 2.25a.75.75 0 0 0-.415.67v4.786L2.665 12.08a.75.75 0 0 0-.415.671V18a.75.75 0 0 0 .415.67l4.5 2.25a.751.751 0 0 0 .67 0L12 18.84l4.165 2.082a.752.752 0 0 0 .67 0l4.5-2.25A.75.75 0 0 0 21.75 18v-5.25a.75.75 0 0 0-.415-.67Zm-5.585-2.044-3 1.5V7.964l3-1.5v3.572ZM12 3.84l2.823 1.411L12 6.661 9.177 5.25 12 3.839ZM8.25 6.464l3 1.5v3.572l-3-1.5V6.464Zm-1.5 12.572-3-1.5v-3.572l3 1.5v3.572Zm.75-4.875L4.677 12.75 7.5 11.339l2.823 1.411L7.5 14.161Zm.75 1.303 3-1.5v3.572l-3 1.5v-3.572Zm7.5 3.572-3-1.5v-3.572l3 1.5v3.572Zm.75-4.875-2.823-1.411 2.823-1.411 2.823 1.411-2.823 1.411Zm3.75 3.375-3 1.5v-3.572l3-1.5v3.572Z"></path>
</svg>