<svg width="32" height="32" fill="currentColor" viewBox="0 0 24 24" xmlns="http://www.w3.org/2000/svg">
<path d="M22.5 16.5h-21V18h21v-1.5Z"></path>
<path d="M22.5 19.5h-21V21h21v-1.5Z"></path>
<path d="M18 7.5a1.5 1.5 0 1 0 0 3 1.5 1.5 0 0 0 0-3Z"></path>
<path d="M12 12a3 3 0 1 1 0-5.999A3 3 0 0 1 12 12Zm0-4.5a1.5 1.5 0 1 0 0 3 1.5 1.5 0 0 0 0-3Z"></path>
<path d="M6 7.5a1.5 1.5 0 1 0 0 3 1.5 1.5 0 0 0 0-3Z"></path>
<path d="M21 15H3a1.504 1.504 0 0 1-1.5-1.5v-9A1.504 1.504 0 0 1 3 3h18a1.504 1.504 0 0 1 1.5 1.5v9A1.502 1.502 0 0 1 21 15Zm0-10.5H3v9h18v-9Z"></path>
</svg>