<svg width="32" height="32" fill="currentColor" viewBox="0 0 24 24" xmlns="http://www.w3.org/2000/svg">
<path d="M17.25 16.5h-1.5V15h-1.5v1.5h-1.5V15h-1.5v1.5h-1.5V15h-1.5v1.5h-1.5V18h1.5v1.5h1.5V18h1.5v1.5h1.5V18h1.5v1.5h1.5V18h1.5v-1.5Z"></path>
<path d="M21 8.25h-.75V3a1.502 1.502 0 0 0-1.5-1.5H5.25A1.502 1.502 0 0 0 3.75 3v5.25H3a1.502 1.502 0 0 0-1.5 1.5v3a1.502 1.502 0 0 0 1.5 1.5h.75v3A5.256 5.256 0 0 0 9 22.5h6a5.256 5.256 0 0 0 5.25-5.25v-3H21a1.502 1.502 0 0 0 1.5-1.5v-3a1.502 1.502 0 0 0-1.5-1.5ZM18.75 3v2.536l-1.915-.957a.75.75 0 0 0-.67 0L13.5 5.911 10.835 4.58a.75.75 0 0 0-.67 0L7.5 5.911 5.25 4.786V3h13.5ZM21 12.75h-2.25v4.5A3.754 3.754 0 0 1 15 21H9a3.754 3.754 0 0 1-3.75-3.75v-4.5H3v-3h2.25V6.464l1.915.957a.75.75 0 0 0 .67 0L10.5 6.089l2.665 1.332a.751.751 0 0 0 .67 0L16.5 6.089l2.25 1.125V9.75H21v3Z"></path>
<path d="M10.5 10.5H6.75V12h3.75v-1.5Z"></path>
<path d="M17.25 10.5H13.5V12h3.75v-1.5Z"></path>
</svg>