<svg width="32" height="32" fill="currentColor" viewBox="0 0 24 24" xmlns="http://www.w3.org/2000/svg">
<path d="M22.5 21h-21v1.5h21V21Z"></path>
<path d="M19.5 19.5H18a5.99 5.99 0 0 0-1.527-4l1.117-1a7.488 7.488 0 0 1 1.91 5Z"></path>
<path d="M12 19.5h-1.5a7.445 7.445 0 0 1 2.815-5.853A5.922 5.922 0 0 0 12 13.5a6.007 6.007 0 0 0-6 6H4.5A7.508 7.508 0 0 1 12 12c1.158 0 2.3.27 3.334.789a.75.75 0 0 1 0 1.342A5.968 5.968 0 0 0 12 19.5Z"></path>
<path d="M12 10.5 8.25 6.75l1.057-1.058 1.943 1.936V1.5h1.5v6.128l1.943-1.936L15.75 6.75 12 10.5Z"></path>
</svg>