<svg width="32" height="32" fill="currentColor" viewBox="0 0 24 24" xmlns="http://www.w3.org/2000/svg">
<path d="M22.383 11.276a1.137 1.137 0 0 0-.922-.65 4.016 4.016 0 0 1-2.558-1.286 4.85 4.85 0 0 1-.964-4.795 1.202 1.202 0 0 0-.224-1.159 1.09 1.09 0 0 0-1.02-.37l-.015.003a5.945 5.945 0 0 0-4.665 5.573 5.522 5.522 0 0 0-1.89-.342 5.663 5.663 0 0 0-5.362 3.933A4.494 4.494 0 0 0 6 21h8.25a4.483 4.483 0 0 0 4.211-6.066 5.63 5.63 0 0 0 3.85-2.518 1.153 1.153 0 0 0 .072-1.14ZM14.25 19.5H6a2.995 2.995 0 0 1-.505-5.947l.497-.084.11-.492a4.122 4.122 0 0 1 8.047 0l.109.492.497.084a2.994 2.994 0 0 1-.505 5.947Zm3.35-6h-.017a4.468 4.468 0 0 0-2.096-1.317 5.63 5.63 0 0 0-1.95-2.757c-.008-.077-.028-.149-.031-.226a4.56 4.56 0 0 1 2.843-4.537 6.343 6.343 0 0 0 1.455 5.697 5.551 5.551 0 0 0 2.926 1.67 4.072 4.072 0 0 1-3.13 1.47Z"></path>
</svg>