<svg width="32" height="32" fill="currentColor" viewBox="0 0 24 24" xmlns="http://www.w3.org/2000/svg">
<path d="M16.307 14.015A4.498 4.498 0 1 0 9.05 9.867a5.668 5.668 0 0 0-4.287 3.816A4.494 4.494 0 0 0 6 22.5h8.25a4.488 4.488 0 0 0 2.057-8.485ZM13.5 7.5a3.003 3.003 0 0 1 3 3 2.971 2.971 0 0 1-1.305 2.468 5.656 5.656 0 0 0-4.6-3.18A2.999 2.999 0 0 1 13.5 7.5Zm.75 13.5H6a2.995 2.995 0 0 1-.505-5.948l.497-.084.11-.492a4.122 4.122 0 0 1 8.046 0l.11.492.497.085A2.995 2.995 0 0 1 14.25 21Z"></path>
<path d="M22.5 9.75h-3v1.5h3v-1.5Z"></path>
<path d="m19.334 3.613-2.121 2.121 1.06 1.06 2.122-2.12-1.06-1.06Z"></path>
<path d="M14.25 1.5h-1.5v3h1.5v-3Z"></path>
<path d="m7.666 3.611-1.06 1.06 2.121 2.122 1.06-1.06L7.666 3.61Z"></path>
</svg>