<svg width="32" height="32" fill="currentColor" viewBox="0 0 24 24" xmlns="http://www.w3.org/2000/svg">
<path d="M24 15.75h-4.5v-3a1.502 1.502 0 0 1 1.5-1.5h1.5v-1.5h-3v-1.5h3a1.502 1.502 0 0 1 1.5 1.5v1.5a1.502 1.502 0 0 1-1.5 1.5H21v1.5h3v1.5Z"></path>
<path d="M18 15.75h-3a1.502 1.502 0 0 1-1.5-1.5v-4.5a1.502 1.502 0 0 1 1.5-1.5h3v1.5h-3v4.5h1.5v-1.5h-.75v-1.5H18v4.5Z"></path>
<path d="M10.5 8.25H6.75v7.5h1.5V13.5h2.25A1.502 1.502 0 0 0 12 12V9.75a1.502 1.502 0 0 0-1.5-1.5ZM8.25 12V9.75h2.25V12H8.25Z"></path>
<path d="M5.25 8.25h-1.5l-1.125 3-1.125-3H0v7.5h1.5V10.5l1.125 3 1.125-3v5.25h1.5v-7.5Z"></path>
</svg>