<svg width="32" height="32" fill="currentColor" viewBox="0 0 24 24" xmlns="http://www.w3.org/2000/svg">
<path d="M19.808 5.25 22.5 2.558 21.442 1.5 18.75 4.192 16.058 1.5 15 2.558l2.692 2.692L15 7.942 16.058 9l2.692-2.692L21.442 9 22.5 7.942 19.808 5.25Z"></path>
<path d="M18 11.25v5.667a2.965 2.965 0 0 0-1.5-.417 3 3 0 1 0 3 3v-8.25H18ZM16.5 21a1.5 1.5 0 1 1 0-3 1.5 1.5 0 0 1 0 3Z"></path>
<path d="M12.75 4.5H7.5A1.502 1.502 0 0 0 6 6v10.917a2.966 2.966 0 0 0-1.5-.417 3 3 0 1 0 3 3V6h5.25V4.5ZM4.5 21a1.5 1.5 0 1 1 0-3 1.5 1.5 0 0 1 0 3Z"></path>
</svg>