<svg width="32" height="32" fill="currentColor" viewBox="0 0 24 24" xmlns="http://www.w3.org/2000/svg">
<path d="M12 12a1.5 1.5 0 1 0 0-3 1.5 1.5 0 0 0 0 3Z"></path>
<path d="m22.401 7.878-3-5.25a.75.75 0 0 0-1.037-.27L14.792 4.5H9.208L5.636 2.357a.75.75 0 0 0-1.037.271l-3 5.25a.75.75 0 0 0 .265 1.015l3.582 2.15 2.804 4.906v4.301A.75.75 0 0 0 9 21h6a.75.75 0 0 0 .75-.75v-4.3l2.804-4.907 3.582-2.15a.75.75 0 0 0 .265-1.015Zm-8.265 7.872H9.864L6.432 9.744 8.572 6h6.856l2.14 3.744-3.432 6.006Z"></path>
</svg>