<svg width="32" height="32" fill="currentColor" viewBox="0 0 24 24" xmlns="http://www.w3.org/2000/svg">
<path d="M12 12a1.5 1.5 0 1 0 0-3 1.5 1.5 0 0 0 0 3Z"></path>
<path d="M15 21H9a.75.75 0 0 1-.75-.75v-4.3l-2.804-4.908-3.582-2.149a.75.75 0 0 1-.265-1.015l3-5.25a.75.75 0 0 1 1.037-.271L9.208 4.5h5.584l3.572-2.143a.75.75 0 0 1 1.037.27l3 5.25a.75.75 0 0 1-.265 1.016l-3.582 2.15-2.804 4.906v4.301A.75.75 0 0 1 15 21Zm-5.25-1.5h4.5v-3.95l3.196-5.592 3.288-1.973-2.255-3.948L15.208 6H8.792L5.521 4.037 3.265 7.985l3.289 1.973L9.75 15.55v3.95Z"></path>
</svg>