<svg width="32" height="32" fill="currentColor" viewBox="0 0 24 24" xmlns="http://www.w3.org/2000/svg">
<path d="M15 13.503a2.997 2.997 0 0 1-2.25 2.893v-3.643h1.5v-1.5h-1.5v-.888a2.25 2.25 0 1 0-1.5 0v.888h-1.5v1.5h1.5v3.643A2.998 2.998 0 0 1 9 13.503H7.5a4.5 4.5 0 0 0 9 0H15Zm-3-6a.75.75 0 1 1 0 1.5.75.75 0 0 1 0-1.5Z"></path>
<path d="M22.5 10.5h-1.636A9.01 9.01 0 0 0 13.5 3.136V1.5h-3v1.636A9.008 9.008 0 0 0 3.136 10.5H1.5v3h1.636a9.009 9.009 0 0 0 7.364 7.364V22.5h3v-1.636a9.01 9.01 0 0 0 7.364-7.364H22.5v-3Zm-10.5 9a7.5 7.5 0 1 1 7.5-7.5 7.509 7.509 0 0 1-7.5 7.5Z"></path>
</svg>