<svg width="32" height="32" fill="currentColor" viewBox="0 0 24 24" xmlns="http://www.w3.org/2000/svg">
<path d="M16.5 21h-9a.75.75 0 0 1-.633-.347l-5.25-8.25a.75.75 0 0 1 0-.806l5.25-8.25A.75.75 0 0 1 7.5 3h9a.75.75 0 0 1 .633.347l5.25 8.25a.75.75 0 0 1 0 .806l-5.25 8.25A.751.751 0 0 1 16.5 21Zm-8.588-1.5h8.177L20.86 12l-4.773-7.5H7.912L3.139 12l4.773 7.5Z"></path>
<path d="M14.625 18h-5.25a.751.751 0 0 1-.631-.344l-3.375-5.25a.751.751 0 0 1 0-.812l3.375-5.25A.75.75 0 0 1 9.374 6h5.25a.75.75 0 0 1 .632.344l3.375 5.25a.751.751 0 0 1 0 .812l-3.375 5.25a.752.752 0 0 1-.631.344Zm-4.84-1.5h4.43l2.893-4.5-2.893-4.5h-4.43L6.891 12l2.892 4.5Z"></path>
</svg>