<svg width="32" height="32" fill="currentColor" viewBox="0 0 24 24" xmlns="http://www.w3.org/2000/svg">
<path d="M12 15a3 3 0 1 1 0-5.999A3 3 0 0 1 12 15Zm0-4.5a1.5 1.5 0 1 0 0 3 1.5 1.5 0 0 0 0-3Z"></path>
<path d="M18 18H6a1.502 1.502 0 0 1-1.5-1.5v-9A1.502 1.502 0 0 1 6 6h12a1.502 1.502 0 0 1 1.5 1.5v9A1.502 1.502 0 0 1 18 18ZM6 7.5v9h12v-9H6Z"></path>
<path d="M21 21H3a1.502 1.502 0 0 1-1.5-1.5v-15A1.502 1.502 0 0 1 3 3h18a1.502 1.502 0 0 1 1.5 1.5v15A1.502 1.502 0 0 1 21 21ZM3 4.5v15h18v-15H3Z"></path>
</svg>