<svg width="32" height="32" fill="currentColor" viewBox="0 0 24 24" xmlns="http://www.w3.org/2000/svg">
<path d="M12 13.5a1.5 1.5 0 1 0 0-3 1.5 1.5 0 0 0 0 3Z"></path>
<path d="M22.5 4.5A1.502 1.502 0 0 0 21 3H3a1.502 1.502 0 0 0-1.5 1.5v15A1.502 1.502 0 0 0 3 21h18a1.502 1.502 0 0 0 1.5-1.5v-15ZM21 9.694 17.223 4.5H21v5.194ZM20.823 12l-5.455 7.5H8.632L3.177 12l5.455-7.5h6.736l5.455 7.5ZM6.777 4.5 3 9.694V4.5h3.777ZM3 14.306 6.777 19.5H3v-5.194ZM17.223 19.5 21 14.305V19.5h-3.777Z"></path>
</svg>