<svg width="32" height="32" fill="currentColor" viewBox="0 0 24 24" xmlns="http://www.w3.org/2000/svg">
<path d="M21.84 12.66a2.235 2.235 0 0 0-1.582-.66h-.008a2.232 2.232 0 0 0-1.59.66l-3.677 3.675a2.246 2.246 0 0 0-2.233-2.085H7.5A3.754 3.754 0 0 0 3.75 18v.5L1.5 21.497l1.2.9L5.25 19v-1a2.253 2.253 0 0 1 2.25-2.25h5.25a.75.75 0 1 1 0 1.5h-3v1.5h3.697a2.977 2.977 0 0 0 2.121-.879l4.152-4.151a.746.746 0 0 1 .53-.22h.003a.75.75 0 0 1 .527 1.28l-5.56 5.56a2.232 2.232 0 0 1-1.591.66H8.25v1.5h5.379a3.724 3.724 0 0 0 2.651-1.099l5.56-5.56a2.248 2.248 0 0 0 0-3.182Z"></path>
<path d="M16.19 6.44 13.5 9V1.5H12V9L9.31 6.44 8.25 7.5l4.5 4.5 4.5-4.5-1.06-1.06Z"></path>
</svg>