<svg width="32" height="32" fill="currentColor" viewBox="0 0 24 24" xmlns="http://www.w3.org/2000/svg">
<path d="M19.349 7.5a7.5 7.5 0 0 0-14.715.092 5.622 5.622 0 0 0 .991 11.157H6v-1.5h-.375a4.122 4.122 0 0 1-.283-8.234l.628-.043.067-.625a5.995 5.995 0 0 1 11.766-.848h1.546Z"></path>
<path d="M21 9h-7.5a1.502 1.502 0 0 0-1.5 1.5v3H9A1.502 1.502 0 0 0 7.5 15v7.5h15v-12A1.502 1.502 0 0 0 21 9ZM9 21v-6h3v6H9Zm12 0h-7.5V10.5H21V21Z"></path>
<path d="M16.5 12H15v3h1.5v-3Z"></path>
<path d="M19.5 12H18v3h1.5v-3Z"></path>
<path d="M16.5 16.5H15v3h1.5v-3Z"></path>
<path d="M19.5 16.5H18v3h1.5v-3Z"></path>
</svg>