<svg width="32" height="32" fill="currentColor" viewBox="0 0 24 24" xmlns="http://www.w3.org/2000/svg">
<path d="M15.75 21a1.5 1.5 0 1 0 0-3 1.5 1.5 0 0 0 0 3Z"></path>
<path d="M3 15v1.5h3.44L1.5 21.44l1.06 1.06 4.94-4.94V21H9v-6H3Z"></path>
<path d="M15.75 6a1.5 1.5 0 1 0 0-3 1.5 1.5 0 0 0 0 3Z"></path>
<path d="M3 13.5a1.5 1.5 0 1 0 0-3 1.5 1.5 0 0 0 0 3Z"></path>
<path d="M21 9a2.997 2.997 0 0 0-2.893 2.25h-3.214a2.975 2.975 0 0 0-4.118-1.982L8.392 6.29a2.972 2.972 0 0 0 .102-3.457A3 3 0 1 0 6 7.5a2.97 2.97 0 0 0 1.225-.268l2.382 2.978A2.97 2.97 0 0 0 9 12a2.994 2.994 0 0 0 5.893.75h3.214A2.995 2.995 0 1 0 21 9ZM6 6a1.5 1.5 0 1 1 0-3 1.5 1.5 0 0 1 0 3Zm6 7.5a1.5 1.5 0 1 1 0-3 1.5 1.5 0 0 1 0 3Zm9 0a1.5 1.5 0 1 1 0-3 1.5 1.5 0 0 1 0 3Z"></path>
</svg>