<svg width="32" height="32" fill="currentColor" viewBox="0 0 24 24" xmlns="http://www.w3.org/2000/svg">
<path d="m20.25 15.311-1.06-1.061-1.94 1.94-1.94-1.94-1.06 1.061 1.94 1.939-1.94 1.94 1.06 1.06 1.94-1.94 1.94 1.94 1.06-1.06-1.94-1.94 1.94-1.939Z"></path>
<path d="M18 3a3.003 3.003 0 0 0-3 3c.003.534.15 1.057.425 1.514l-7.91 7.911A2.964 2.964 0 0 0 6 15a3 3 0 1 0 3 3 2.963 2.963 0 0 0-.425-1.514l7.91-7.911c.458.275.981.422 1.515.425a3 3 0 1 0 0-6ZM6 19.5a1.5 1.5 0 1 1 0-3 1.5 1.5 0 0 1 0 3Zm12-12a1.5 1.5 0 1 1 0-3 1.5 1.5 0 0 1 0 3Z"></path>
<path d="M6 8.388 4.058 6.445 3 7.503l3 3 5.25-5.25-1.057-1.058L6 8.388Z"></path>
</svg>