<svg width="32" height="32" fill="currentColor" viewBox="0 0 24 24" xmlns="http://www.w3.org/2000/svg">
<path d="M15.75 21a1.5 1.5 0 1 0 0-3 1.5 1.5 0 0 0 0 3Z"></path>
<path d="M15.75 6a1.5 1.5 0 1 0 0-3 1.5 1.5 0 0 0 0 3Z"></path>
<path d="M3 13.5a1.5 1.5 0 1 0 0-3 1.5 1.5 0 0 0 0 3Z"></path>
<path d="M21 9a2.997 2.997 0 0 0-2.893 2.25h-3.214a2.975 2.975 0 0 0-4.118-1.982L8.392 6.29a2.972 2.972 0 0 0 .102-3.457A3 3 0 1 0 6 7.5a2.97 2.97 0 0 0 1.225-.268l2.382 2.978a2.943 2.943 0 0 0 0 3.58l-2.381 2.978a2.97 2.97 0 0 0-2.893.238A3 3 0 1 0 9 19.5a2.972 2.972 0 0 0-.607-1.79l2.381-2.978a2.974 2.974 0 0 0 4.12-1.982h3.213A2.995 2.995 0 1 0 21 9ZM4.5 4.5a1.5 1.5 0 1 1 3 0 1.5 1.5 0 0 1-3 0ZM6 21a1.5 1.5 0 1 1 0-3 1.5 1.5 0 0 1 0 3Zm6-7.5a1.5 1.5 0 1 1 0-3 1.5 1.5 0 0 1 0 3Zm9 0a1.5 1.5 0 1 1 0-3 1.5 1.5 0 0 1 0 3Z"></path>
</svg>