<svg width="32" height="32" fill="currentColor" viewBox="0 0 24 24" xmlns="http://www.w3.org/2000/svg">
<path d="M16.875 9.75a6.37 6.37 0 0 0-6.375 6.375 6.37 6.37 0 0 0 6.375 6.375 6.37 6.37 0 0 0 6.375-6.375 6.37 6.37 0 0 0-6.375-6.375Zm4.875 6H19.5c0-1.5-.225-3-.675-4.125 1.575.75 2.775 2.25 2.925 4.125ZM16.875 21c-.3-.15-.975-1.35-1.125-3.75h2.175c-.15 2.4-.75 3.6-1.05 3.75Zm-1.125-5.25c.075-2.85.825-4.35 1.05-4.5.3.15 1.05 1.65 1.125 4.5H15.75Zm-.825-4.125c-.45 1.125-.6 2.625-.675 4.125H12c.15-1.875 1.35-3.375 2.925-4.125ZM12.15 17.25h2.1c.075 1.2.3 2.4.675 3.375-1.35-.6-2.4-1.875-2.775-3.375Zm6.675 3.375c.375-.975.6-2.1.675-3.375h2.175c-.45 1.5-1.5 2.775-2.85 3.375Z"></path>
<path d="M19.35 7.5c-.675-3.45-3.75-6-7.35-6-3.6 0-6.675 2.55-7.35 6.075C2.025 8.1 0 10.35 0 13.125 0 16.2 2.55 18.75 5.625 18.75H8.25v-1.5H5.625c-2.25 0-4.125-1.875-4.125-4.125C1.5 10.95 3.15 9.15 5.325 9H6v-.675C6.375 5.325 8.925 3 12 3c2.775 0 5.1 1.95 5.775 4.5h1.575Z"></path>
</svg>