<svg width="32" height="32" fill="currentColor" viewBox="0 0 24 24" xmlns="http://www.w3.org/2000/svg">
<path d="M16.5 17.25h-6.127l1.934-1.943-1.057-1.057L7.5 18l3.75 3.75 1.057-1.058-1.934-1.942H16.5v-1.5Z"></path>
<path d="M8.25 9.75h6.127l-1.934-1.942L13.5 6.75l3.75 3.75-3.75 3.75-1.057-1.057 1.934-1.943H8.25v-1.5Z"></path>
<path d="M18.375 18.75H18v-1.5h.375a4.122 4.122 0 0 0 .283-8.235l-.628-.042-.067-.626a5.998 5.998 0 0 0-11.926 0l-.068.626-.627.042a4.122 4.122 0 0 0 .283 8.235H6v1.5h-.375a5.622 5.622 0 0 1-.991-11.157 7.5 7.5 0 0 1 14.732 0 5.622 5.622 0 0 1-.99 11.157Z"></path>
</svg>