<svg width="32" height="32" fill="currentColor" viewBox="0 0 24 24" xmlns="http://www.w3.org/2000/svg">
<path d="M22.5 2.56 21.44 1.5 1.5 21.44l1.06 1.06 1.5-1.5H19.5a1.502 1.502 0 0 0 1.5-1.5V4.06l1.5-1.5Zm-3 16.94H5.56l5.845-5.845 1.784 1.784a1.5 1.5 0 0 0 2.122 0L16.5 14.25l3 2.998V19.5Zm0-4.374-1.94-1.94a1.5 1.5 0 0 0-2.12 0l-1.19 1.19-1.783-1.783L19.5 5.561v9.565Z"></path>
<path d="M4.5 16.5v-2.25l3.75-3.748 1.03 1.03 1.062-1.062L9.31 9.44a1.5 1.5 0 0 0-2.122 0L4.5 12.128V4.5h12V3h-12A1.502 1.502 0 0 0 3 4.5v12h1.5Z"></path>
</svg>