<svg width="32" height="32" fill="currentColor" viewBox="0 0 24 24" xmlns="http://www.w3.org/2000/svg">
<path d="M21 4.5h-.44l1.94-1.94-1.06-1.06L1.5 21.44l1.06 1.06 3-3H21a1.502 1.502 0 0 0 1.5-1.5v-3.75a.75.75 0 0 0-.75-.75 1.5 1.5 0 1 1 0-3 .75.75 0 0 0 .75-.75V6A1.502 1.502 0 0 0 21 4.5Zm0 4.595a3 3 0 0 0 0 5.81V18h-5.25v-2.25h-1.5V18H7.06l7.19-7.19v3.44h1.5V9.31L19.06 6H21v3.095Z"></path>
<path d="M3 9.095V6h11.25V4.5H3A1.502 1.502 0 0 0 1.5 6v3.75a.75.75 0 0 0 .75.75 1.5 1.5 0 1 1 0 3 .75.75 0 0 0-.75.75V18H3v-3.095a3 3 0 0 0 0-5.81Z"></path>
</svg>