<svg width="32" height="32" fill="currentColor" viewBox="0 0 24 24" xmlns="http://www.w3.org/2000/svg">
<path d="M18.75 17.25h-4.5A2.25 2.25 0 0 0 12 19.5V21h1.5v-1.5a.75.75 0 0 1 .75-.75h4.5a.75.75 0 0 1 .75.75V21H21v-1.5a2.25 2.25 0 0 0-2.25-2.25Z"></path>
<path d="M13.5 13.5a3 3 0 1 0 5.999 0 3 3 0 0 0-5.999 0Zm4.5 0a1.5 1.5 0 1 1-3 0 1.5 1.5 0 0 1 3 0Z"></path>
<path d="M7.5 13.943 5.558 12 4.5 13.057l3 3 5.25-5.25-1.057-1.057L7.5 13.943Z"></path>
<path d="M10.5 19.5H3v-15h5.379l2.56 2.56.44.44H21v6h1.5v-6A1.5 1.5 0 0 0 21 6h-9L9.44 3.44A1.5 1.5 0 0 0 8.378 3H3a1.5 1.5 0 0 0-1.5 1.5v15A1.5 1.5 0 0 0 3 21h7.5v-1.5Z"></path>
</svg>