<svg width="32" height="32" fill="currentColor" viewBox="0 0 24 24" xmlns="http://www.w3.org/2000/svg">
<path d="m8.56 11.25-6-6L1.5 6.31l4.94 4.94H1.5V12a10.5 10.5 0 1 0 21 0v-.75H8.56ZM12 21a9.012 9.012 0 0 1-8.969-8.25H20.97A9.013 9.013 0 0 1 12 21Z"></path>
<path d="M16.5 6c-.4 0-.798.065-1.178.192A6.018 6.018 0 0 0 10.5 3.75a5.952 5.952 0 0 0-3.68 1.26L3.31 1.5 2.25 2.56 6.787 7.1l.53-.531A4.47 4.47 0 0 1 10.5 5.25a4.515 4.515 0 0 1 3.516 1.698c-.16.14-.308.293-.443.458a2.242 2.242 0 0 1-1.757.844H9v1.5h2.816a3.735 3.735 0 0 0 2.927-1.406A2.25 2.25 0 0 1 18.75 9.75h1.5A3.755 3.755 0 0 0 16.5 6Z"></path>
</svg>