<svg width="32" height="32" fill="currentColor" viewBox="0 0 24 24" xmlns="http://www.w3.org/2000/svg">
<path d="M22.5 21.442 2.558 1.5 1.5 2.558l6 6-5.505 1.987a.75.75 0 0 0 0 1.402l7.2 2.88 2.88 7.2a.75.75 0 0 0 .675.473.75.75 0 0 0 .69-.495l2.01-5.505 6 6 1.05-1.058ZM4.35 11.25l4.305-1.5L10.943 12 9.57 13.373 4.35 11.25Zm8.4 8.4-2.092-5.25L12 13.057l2.25 2.288-1.5 4.305Z"></path>
<path d="m11.768 8.587 5.73-2.085-2.085 5.73 1.17 1.17 2.872-7.897a.75.75 0 0 0-.96-.96l-7.897 2.872 1.17 1.17Z"></path>
</svg>