<svg width="32" height="32" fill="currentColor" viewBox="0 0 24 24" xmlns="http://www.w3.org/2000/svg">
<path d="M21 15h-1.5v1.5H21V21H3v-4.5h7.5V15H3a1.502 1.502 0 0 0-1.5 1.5V21A1.502 1.502 0 0 0 3 22.5h18a1.502 1.502 0 0 0 1.5-1.5v-4.5A1.502 1.502 0 0 0 21 15Z"></path>
<path d="M5.25 19.5a.75.75 0 1 0 0-1.5.75.75 0 0 0 0 1.5Z"></path>
<path d="M15.75 10.5a2.235 2.235 0 0 0-1.528.608l-3.003-1.801c.018-.102.028-.204.031-.307a2.204 2.204 0 0 0-.031-.307l3.003-1.801A2.243 2.243 0 1 0 13.5 5.25c.003.103.014.205.031.307l-3.003 1.802a2.25 2.25 0 1 0 0 3.282l3.003 1.802a2.209 2.209 0 0 0-.031.307 2.25 2.25 0 1 0 2.25-2.25Zm0-6a.75.75 0 1 1 0 1.5.75.75 0 0 1 0-1.5ZM9 9.75a.75.75 0 1 1 0-1.5.75.75 0 0 1 0 1.5Zm6.75 3.75a.75.75 0 1 1 0-1.5.75.75 0 0 1 0 1.5Z"></path>
</svg>