<svg width="32" height="32" fill="currentColor" viewBox="0 0 24 24" xmlns="http://www.w3.org/2000/svg">
<path d="M3 13.5a9 9 0 1 0 9-9H9V.75l-4.5 4.5L9 9.75V6h3a7.5 7.5 0 1 1-7.5 7.5H3Z"></path>
<path d="M10.125 18.75a1.125 1.125 0 1 0 0-2.25 1.125 1.125 0 0 0 0 2.25Z"></path>
<path d="M7.875 15.75a1.125 1.125 0 1 0 0-2.25 1.125 1.125 0 0 0 0 2.25Z"></path>
<path d="M12.375 15.75a1.125 1.125 0 1 0 0-2.25 1.125 1.125 0 0 0 0 2.25Z"></path>
<path d="M11.69 9.748 9 12.438l1.06 1.06 2.69-2.69-1.06-1.06Z"></path>
<path d="m16.19 9.748-2.69 2.69 1.06 1.06 2.69-2.69-1.06-1.06Z"></path>
</svg>