<svg width="32" height="32" fill="currentColor" viewBox="0 0 24 24" xmlns="http://www.w3.org/2000/svg">
<path d="M7.5 4.5h-3v3h3v-3Z"></path>
<path d="M10.5 7.5h-3v3h3v-3Z"></path>
<path d="M13.5 4.5h-3v3h3v-3Z"></path>
<path d="M19.5 4.5h-3v3h3v-3Z"></path>
<path d="M7.5 10.5h-3v3h3v-3Z"></path>
<path d="M13.5 10.5h-3v3h3v-3Z"></path>
<path d="M19.5 10.5h-3v3h3v-3Z"></path>
<path d="M7.5 16.5h-3v3h3v-3Z"></path>
<path d="M13.5 16.5h-3v3h3v-3Z"></path>
<path d="M19.5 16.5h-3v3h3v-3Z"></path>
<path d="M16.5 7.5h-3v3h3v-3Z"></path>
<path d="M10.5 13.5h-3v3h3v-3Z"></path>
<path d="M16.5 13.5h-3v3h3v-3Z"></path>
</svg>