<svg width="32" height="32" fill="currentColor" viewBox="0 0 24 24" xmlns="http://www.w3.org/2000/svg">
<path d="M22.5 15H15v1.5h7.5V15Z"></path>
<path d="M22.5 18H15v1.5h7.5V18Z"></path>
<path d="M22.5 21H15v1.5h7.5V21Z"></path>
<path d="M12 15a2.935 2.935 0 0 1-3-3 2.934 2.934 0 0 1 3-3 2.934 2.934 0 0 1 3 3h1.5a4.5 4.5 0 1 0-4.5 4.5V15Z"></path>
<path d="m21.978 8.283-1.77-3.066a1.498 1.498 0 0 0-1.78-.67l-1.825.617a8.283 8.283 0 0 0-.984-.57l-.378-1.888A1.5 1.5 0 0 0 13.77 1.5h-3.54a1.5 1.5 0 0 0-1.471 1.206L8.38 4.595a8.224 8.224 0 0 0-.995.565L5.57 4.546a1.498 1.498 0 0 0-1.78.671L2.02 8.283a1.5 1.5 0 0 0 .31 1.877l1.447 1.272c-.013.189-.028.376-.028.568 0 .193.007.384.02.574L2.33 13.84a1.5 1.5 0 0 0-.309 1.877l1.77 3.066a1.498 1.498 0 0 0 1.78.67l1.826-.617c.314.212.643.402.984.57l.378 1.888a1.5 1.5 0 0 0 1.47 1.206H12V21h-1.77l-.532-2.663a6.821 6.821 0 0 1-2.02-1.179l-2.586.875-1.77-3.066 2.043-1.796a6.695 6.695 0 0 1-.005-2.346L3.32 9.033l1.771-3.066 2.57.87a6.773 6.773 0 0 1 2.036-1.174L10.23 3h3.54l.532 2.663c.737.274 1.42.672 2.021 1.179l2.585-.875 1.77 3.066-2.098 1.84.99 1.127 2.1-1.84a1.5 1.5 0 0 0 .31-1.877Z"></path>
</svg>