<svg width="32" height="32" fill="currentColor" viewBox="0 0 24 24" xmlns="http://www.w3.org/2000/svg">
<path d="M15 1.5V9h1.5V1.5H15Z"></path>
<path d="M18 1.5V9h1.5V1.5H18Z"></path>
<path d="M21 1.5V9h1.5V1.5H21Z"></path>
<path d="M12 15a2.935 2.935 0 0 1-3-3 2.934 2.934 0 0 1 3-3V7.5a4.5 4.5 0 1 0 4.5 4.5H15a2.935 2.935 0 0 1-3 3Z"></path>
<path d="M21.67 13.84 19.572 12l-.988 1.128 2.094 1.84-1.77 3.065-2.57-.87a6.774 6.774 0 0 1-2.036 1.174L13.77 21h-3.54l-.533-2.663a6.821 6.821 0 0 1-2.02-1.179l-2.586.875-1.77-3.066 2.043-1.796a6.695 6.695 0 0 1-.005-2.346L3.32 9.033l1.771-3.066 2.57.87a6.773 6.773 0 0 1 2.036-1.174L10.23 3H12V1.5h-1.77a1.5 1.5 0 0 0-1.471 1.206L8.38 4.595a8.224 8.224 0 0 0-.995.565L5.57 4.546a1.498 1.498 0 0 0-1.78.671L2.02 8.283a1.5 1.5 0 0 0 .31 1.877l1.447 1.272c-.013.189-.028.376-.028.568 0 .193.007.384.02.574L2.33 13.84a1.5 1.5 0 0 0-.309 1.877l1.77 3.066a1.498 1.498 0 0 0 1.78.67l1.826-.617c.314.212.643.402.984.57l.378 1.888a1.5 1.5 0 0 0 1.47 1.206h3.54a1.5 1.5 0 0 0 1.472-1.206l.377-1.889a8.22 8.22 0 0 0 .995-.565l1.815.614a1.499 1.499 0 0 0 1.78-.671l1.77-3.066a1.5 1.5 0 0 0-.309-1.877Z"></path>
</svg>