<svg width="32" height="32" fill="currentColor" viewBox="0 0 24 24" xmlns="http://www.w3.org/2000/svg">
<path d="M15.75 18H9v1.5h6.75V18Z"></path>
<path d="M14.25 21h-4.5v1.5h4.5V21Z"></path>
<path d="m6.587 14.23 1.064-1.063A5.19 5.19 0 0 1 6 9a5.992 5.992 0 0 1 10.145-4.327l1.06-1.06A7.491 7.491 0 0 0 4.5 9a6.705 6.705 0 0 0 2.087 5.23Z"></path>
<path d="M22.5 2.56 21.44 1.5 1.5 21.44l1.06 1.06L17.746 7.315A5.78 5.78 0 0 1 18 9a5.402 5.402 0 0 1-2.117 4.607c-.803.744-1.633 1.514-1.633 2.893h1.5c0-.69.395-1.088 1.151-1.79A6.894 6.894 0 0 0 19.5 9a7.405 7.405 0 0 0-.582-2.857L22.5 2.56Z"></path>
</svg>