<svg width="32" height="32" fill="currentColor" viewBox="0 0 24 24" xmlns="http://www.w3.org/2000/svg">
<path d="m18.682 21.705-6.058-10.84a.715.715 0 0 0-1.248 0L5.32 21.706a.534.534 0 0 0 .466.795h12.43a.534.534 0 0 0 .467-.795Zm-7.338-7.455h1.313v4.125h-1.313V14.25ZM12 21a.75.75 0 1 1 0-1.5.75.75 0 0 1 0 1.5Z"></path>
<path d="M18.6 6.852a6.746 6.746 0 0 0-13.2 0 4.87 4.87 0 0 0 .687 9.633L6.917 15h-.542a3.36 3.36 0 0 1-2.527-5.592l3.973 3.973.76-1.36-3.495-3.496a3.26 3.26 0 0 1 1.022-.26l.612-.049.074-.609a5.59 5.59 0 0 1 .073-.43l2.835 2.836.76-1.361-3.01-3.01a5.266 5.266 0 0 1 1.482-1.648l10.48 10.481a3.345 3.345 0 0 1-1.789.525h-.543l.83 1.485a4.87 4.87 0 0 0 .689-9.633Zm1.875 6.563L10.337 3.276a5.23 5.23 0 0 1 6.87 4.331l.074.61.611.047A3.388 3.388 0 0 1 21 11.625a3.345 3.345 0 0 1-.525 1.79Z"></path>
</svg>