<svg width="32" height="32" fill="currentColor" viewBox="0 0 24 24" xmlns="http://www.w3.org/2000/svg">
<path d="M21 6h-3V3a1.502 1.502 0 0 0-1.5-1.5H3A1.502 1.502 0 0 0 1.5 3v13.5A1.502 1.502 0 0 0 3 18h3v3a1.502 1.502 0 0 0 1.5 1.5H21a1.502 1.502 0 0 0 1.5-1.5V7.5A1.502 1.502 0 0 0 21 6ZM3 16.5V3h13.5v3h-9A1.502 1.502 0 0 0 6 7.5v9H3Zm13.5 0h-1.94L7.5 9.44V7.5h1.94l7.06 7.062V16.5Zm-9-4.94 4.94 4.94H7.5v-4.94Zm9 .88L11.56 7.5h4.94v4.94ZM7.5 21v-3h9a1.502 1.502 0 0 0 1.5-1.5v-9h3V21H7.5Z"></path>
</svg>