<svg width="32" height="32" fill="currentColor" viewBox="0 0 24 24" xmlns="http://www.w3.org/2000/svg">
<path d="M4.5 13.5h-3V15h3v-1.5Z"></path>
<path d="M22.5 13.5h-3V15h3v-1.5Z"></path>
<path d="M18 16.5V21H6v-4.5H4.5V21A1.504 1.504 0 0 0 6 22.5h12a1.504 1.504 0 0 0 1.5-1.5v-4.5H18Z"></path>
<path d="M6 12V3h6v4.5A1.504 1.504 0 0 0 13.5 9H18v3h1.5V7.5a.68.68 0 0 0-.225-.525l-5.25-5.25A.682.682 0 0 0 13.5 1.5H6A1.504 1.504 0 0 0 4.5 3v9H6Zm7.5-8.7 4.2 4.2h-4.2V3.3Z"></path>
<path d="M10.5 13.5h-3V15h3v-1.5Z"></path>
<path d="M16.5 13.5h-3V15h3v-1.5Z"></path>
</svg>