<svg width="32" height="32" fill="currentColor" viewBox="0 0 24 24" xmlns="http://www.w3.org/2000/svg">
<path d="M12 21.003H3a1.418 1.418 0 0 1-1.5-1.5v-9a1.418 1.418 0 0 1 1.5-1.5h9a1.418 1.418 0 0 1 1.5 1.5v9a1.416 1.416 0 0 1-1.5 1.5Zm-9-10.5v9h9v-9H3Z"></path>
<path d="M16.5 14.253H15v-6.75H7.5v-1.5H15a1.418 1.418 0 0 1 1.5 1.5v6.75Z"></path>
<path d="M19.5 10.503H18v-6h-6v-1.5h6a1.418 1.418 0 0 1 1.5 1.5v6Z"></path>
<path d="M18 12.75v1.5h2.1l-3.6 4.05v-1.8H15V21h4.5v-1.5h-2.1l3.6-4.05v1.8h1.5v-4.5H18Z"></path>
</svg>