<svg width="32" height="32" fill="currentColor" viewBox="0 0 24 24" xmlns="http://www.w3.org/2000/svg">
<path d="M21.621 2.382a3.07 3.07 0 0 0-4.242 0L3.038 16.722A5.215 5.215 0 0 0 1.5 20.434v2.069h2.067a5.215 5.215 0 0 0 3.712-1.538l14.342-14.34a3 3 0 0 0 0-4.243ZM8.183 13.698l2.121 2.121-1.591 1.591-2.123-2.12 1.592-1.591Zm-1.964 6.206a3.727 3.727 0 0 1-2.652 1.099H3v-.57a3.725 3.725 0 0 1 1.098-2.65l1.433-1.433 2.121 2.12-1.433 1.434ZM20.56 5.564l-9.196 9.195-2.122-2.122 9.196-9.195a1.536 1.536 0 0 1 2.122 0 1.5 1.5 0 0 1 0 2.121Z"></path>
</svg>