<svg width="32" height="32" fill="currentColor" viewBox="0 0 24 24" xmlns="http://www.w3.org/2000/svg">
<path d="m21.623 17.374-4.373-4.38V9.747a.75.75 0 0 0-.217-.533l-7.5-7.5a.75.75 0 0 0-1.065 0l-6.75 6.75a.75.75 0 0 0 0 1.065l7.5 7.5a.752.752 0 0 0 .532.218h3.255l4.373 4.38a3.001 3.001 0 1 0 4.245-4.245v-.008ZM4.5 7.804l1.718 1.725 1.065-1.065-1.725-1.717L6.75 5.554l3.218 3.225 1.065-1.065-3.225-3.217L9 3.304l4.943 4.943-5.693 5.692-4.942-4.942L4.5 7.804Zm16.058 12.75a1.5 1.5 0 0 1-2.115 0l-4.598-4.59a1.35 1.35 0 0 0-.532-.218h-3.255l-.75-.75L15 9.304l.75.75v3.255a.75.75 0 0 0 .218.525l4.59 4.605a1.5 1.5 0 0 1 0 2.115Z"></path>
</svg>