<svg width="32" height="32" fill="currentColor" viewBox="0 0 24 24" xmlns="http://www.w3.org/2000/svg">
<path d="M13.928 21C13.422 20.044 12 16.67 12 9v-.098l.838.558A4.845 4.845 0 0 1 15 13.5h1.5a6.343 6.343 0 0 0-2.83-5.288L12.602 7.5h1.148a5.28 5.28 0 0 1 3.15 1.05l1.4 1.05.9-1.2-1.4-1.05A6.795 6.795 0 0 0 13.75 6h-.912A5.273 5.273 0 0 1 16.5 4.5H18V3h-1.5a6.777 6.777 0 0 0-5.25 2.523A6.776 6.776 0 0 0 6 3H4.5v1.5H6A5.273 5.273 0 0 1 9.662 6H8.75A6.795 6.795 0 0 0 4.7 7.35L3.3 8.4l.9 1.2 1.4-1.05A5.28 5.28 0 0 1 8.75 7.5h1.148l-1.068.712A6.343 6.343 0 0 0 6 13.5h1.5a4.846 4.846 0 0 1 2.162-4.04l.838-.558V9c0 6.708 1.059 10.323 1.77 12H1.5v1.5h21V21h-8.572Z"></path>
</svg>