<svg width="32" height="32" fill="currentColor" viewBox="0 0 24 24" xmlns="http://www.w3.org/2000/svg">
<path d="M21 9.75V6a1.502 1.502 0 0 0-1.5-1.5h-2.25V6h2.25v3.75A2.982 2.982 0 0 0 20.537 12a2.982 2.982 0 0 0-1.037 2.25V18h-2.25v1.5h2.25A1.502 1.502 0 0 0 21 18v-3.75a1.502 1.502 0 0 1 1.5-1.5v-1.5a1.502 1.502 0 0 1-1.5-1.5Z"></path>
<path fill-rule="evenodd" d="M12.75 6.75 12.107 9h1.5l.643-2.25h1.5L15.107 9H16.5v1.5h-1.821l-.857 3h1.928V15h-2.357l-.643 2.25h-1.5l.643-2.25h-1.5l-.643 2.25h-1.5L8.893 15H7.5v-1.5h1.822l.857-3H8.25V9h2.357l.643-2.25h1.5Zm.429 3.75h-1.5l-.857 3h1.5l.857-3Z" clip-rule="evenodd"></path>
<path d="M4.5 9.75V6h2.25V4.5H4.5A1.502 1.502 0 0 0 3 6v3.75a1.502 1.502 0 0 1-1.5 1.5v1.5a1.502 1.502 0 0 1 1.5 1.5V18a1.502 1.502 0 0 0 1.5 1.5h2.25V18H4.5v-3.75A2.982 2.982 0 0 0 3.463 12 2.982 2.982 0 0 0 4.5 9.75Z"></path>
</svg>