<svg width="32" height="32" fill="currentColor" viewBox="0 0 24 24" xmlns="http://www.w3.org/2000/svg">
<path d="M21 9a1.5 1.5 0 0 0 1.5-1.5V3A1.5 1.5 0 0 0 21 1.5H3A1.5 1.5 0 0 0 1.5 3v4.5A1.5 1.5 0 0 0 3 9h8.25v3h-4.5a1.5 1.5 0 0 0-1.5 1.5v3H3A1.5 1.5 0 0 0 1.5 18v3A1.5 1.5 0 0 0 3 22.5h6a1.5 1.5 0 0 0 1.5-1.5v-3A1.5 1.5 0 0 0 9 16.5H6.75v-3h10.5v3H15a1.5 1.5 0 0 0-1.5 1.5v3a1.5 1.5 0 0 0 1.5 1.5h6a1.5 1.5 0 0 0 1.5-1.5v-3a1.5 1.5 0 0 0-1.5-1.5h-2.25v-3a1.5 1.5 0 0 0-1.5-1.5h-4.5V9H21ZM9 21H3v-3h6v3Zm12 0h-6v-3h6v3ZM3 3h18v4.5H3V3Z"></path>
</svg>