<svg width="32" height="32" fill="currentColor" viewBox="0 0 24 24" xmlns="http://www.w3.org/2000/svg">
<path d="M23.25 11.25h-3v1.5h3v-1.5Z"></path>
<path d="m19.5 3.438-2.25 2.25 1.06 1.06 2.25-2.25-1.06-1.06Z"></path>
<path d="M12.75.75h-1.5v3h1.5v-3Z"></path>
<path d="M5.69 17.25 3.44 19.5l1.06 1.06 2.25-2.25-1.06-1.06Z"></path>
<path d="M4.5 3.44 3.44 4.5l2.25 2.25 1.06-1.06L4.5 3.44Z"></path>
<path d="M3.75 11.25h-3v1.5h3v-1.5Z"></path>
<path d="M20.095 15.259a5.22 5.22 0 0 0-1.4-2.45 6.6 6.6 0 0 0 .055-.806 6.75 6.75 0 1 0-10.939 5.274 3.732 3.732 0 0 0 3.439 5.226h7.5a3.747 3.747 0 0 0 1.345-7.244ZM6.75 12.003a5.247 5.247 0 0 1 10.489-.223A5.166 5.166 0 0 0 15 11.253a5.28 5.28 0 0 0-5.096 4.006 3.739 3.739 0 0 0-1.233.786 5.226 5.226 0 0 1-1.921-4.042Zm12 9h-7.5a2.247 2.247 0 0 1-.522-4.432l.494-.118.074-.502a3.745 3.745 0 0 1 7.408 0l.074.502.494.118a2.246 2.246 0 0 1-.522 4.432Z"></path>
</svg>