<svg width="32" height="32" fill="currentColor" viewBox="0 0 24 24" xmlns="http://www.w3.org/2000/svg">
<path d="M22.5 14.25a3.73 3.73 0 0 0-2.404-3.494 5.229 5.229 0 0 0-9.777-1.081 9.856 9.856 0 0 1 .098-6.39.76.76 0 0 0-.682-1.035.737.737 0 0 0-.13.012 9.822 9.822 0 0 0 1.368 19.486c.123.005.246 0 .368 0a9.78 9.78 0 0 0 7.717-3.78A3.743 3.743 0 0 0 22.5 14.25Zm-11.472 5.998A8.321 8.321 0 0 1 8.627 4.06a11.39 11.39 0 0 0 .633 7.026A3.74 3.74 0 0 0 11.25 18h5.758a8.324 8.324 0 0 1-5.667 2.248c-.104 0-.209.004-.313 0ZM18.75 16.5h-7.5a2.246 2.246 0 0 1-.522-4.431l.494-.118.074-.503a3.744 3.744 0 0 1 7.408 0l.074.503.494.118a2.246 2.246 0 0 1-.522 4.431Z"></path>
</svg>