<svg width="32" height="32" fill="currentColor" viewBox="0 0 24 24" xmlns="http://www.w3.org/2000/svg">
<path d="M7.875 6.75a2.625 2.625 0 1 1 0-5.25 2.625 2.625 0 0 1 0 5.25Zm0-3.75a1.125 1.125 0 1 0 0 2.25 1.125 1.125 0 0 0 0-2.25Z"></path>
<path d="m16.856 23.486-2.35-5.484H9.178a3.005 3.005 0 0 1-2.9-2.228l-1.225-4.595a2.924 2.924 0 0 1 5.65-1.507l.622 2.33h4.424v1.5h-5.577l-.917-3.444a1.425 1.425 0 0 0-2.753.735l1.225 4.594a1.504 1.504 0 0 0 1.451 1.115h6.315l2.74 6.394-1.378.59Z"></path>
<path d="M22.5 4.5h-3v-3H18v3h-3V6h3v3h1.5V6h3V4.5Z"></path>
<path d="M13.5 20.998H5.825a1.502 1.502 0 0 1-1.45-1.114L1.526 9.191l1.449-.386 2.851 10.693H13.5v1.5Z"></path>
</svg>