<svg width="32" height="32" fill="currentColor" viewBox="0 0 24 24" xmlns="http://www.w3.org/2000/svg">
<path d="M22.5 3V1.5h-6V3a2.993 2.993 0 0 0 2.25 2.894V8.25h-1.5v1.5h4.5v-1.5h-1.5V5.894A2.993 2.993 0 0 0 22.5 3Z"></path>
<path d="M7.875 6.75a2.625 2.625 0 1 1 0-5.25 2.625 2.625 0 0 1 0 5.25Zm0-3.75a1.125 1.125 0 1 0 0 2.25 1.125 1.125 0 0 0 0-2.25Z"></path>
<path d="M16.856 23.485 14.506 18H9.18a3.006 3.006 0 0 1-2.9-2.228l-1.225-4.595a2.924 2.924 0 0 1 5.65-1.506L11.326 12h4.424v1.5h-5.576l-.917-3.443a1.425 1.425 0 0 0-2.753.734l1.225 4.594a1.504 1.504 0 0 0 1.45 1.115h6.316l2.74 6.394-1.379.59Z"></path>
<path d="M13.5 20.998H5.826a1.502 1.502 0 0 1-1.45-1.114L1.527 9.191l1.449-.386 2.851 10.693H13.5v1.5Z"></path>
</svg>