<svg width="32" height="32" fill="currentColor" viewBox="0 0 24 24" xmlns="http://www.w3.org/2000/svg">
<path d="m16.258 10.5-.934-2.336a2.24 2.24 0 0 0-2.09-1.414h-3.068c-.408 0-.808.11-1.158.32L5.25 9.326V13.5h1.5v-3.325L9 8.825v8.948l-2.596 3.895 1.248.832 2.848-4.273V8.25h2.735a.746.746 0 0 1 .696.472L15.242 12H19.5v-1.5h-3.242Z"></path>
<path d="m12.788 13.74 1.462 4.384v4.379h1.5V17.88l-1.538-4.615-1.424.474Z"></path>
<path d="M12.375 6a2.625 2.625 0 1 1 0-5.25 2.625 2.625 0 0 1 0 5.25Zm0-3.75a1.125 1.125 0 1 0 0 2.25 1.125 1.125 0 0 0 0-2.25Z"></path>
</svg>