<svg width="32" height="32" fill="currentColor" viewBox="0 0 24 24" xmlns="http://www.w3.org/2000/svg">
<path d="M15 22.5h-2.25a1.502 1.502 0 0 1-1.5-1.5v-3.75h1.5V21H15v-3.75h1.5v-3a.75.75 0 0 0-.75-.75H9.21L7.71 9H3a.75.75 0 0 0-.75.75v4.5h1.5V21h3v-5.25h1.5V21a1.502 1.502 0 0 1-1.5 1.5h-3a1.502 1.502 0 0 1-1.5-1.5v-5.25a1.502 1.502 0 0 1-1.5-1.5v-4.5A2.252 2.252 0 0 1 3 7.5h4.71a1.498 1.498 0 0 1 1.423 1.026L10.29 12h5.459A2.253 2.253 0 0 1 18 14.25v3a1.502 1.502 0 0 1-1.5 1.5V21a1.502 1.502 0 0 1-1.5 1.5Z"></path>
<path d="M21 22.5h-1.5v-8.25h2.25v-4.5A.75.75 0 0 0 21 9h-3V7.5h3a2.253 2.253 0 0 1 2.25 2.25v4.5a1.502 1.502 0 0 1-1.5 1.5H21v6.75Z"></path>
<path d="M5.25 6.75a3 3 0 1 1 0-6 3 3 0 0 1 0 6Zm0-4.5a1.5 1.5 0 1 0 0 3 1.5 1.5 0 0 0 0-3Z"></path>
<path d="M18.75 6.75a3 3 0 1 1 0-6 3 3 0 0 1 0 6Zm0-4.5a1.5 1.5 0 1 0 0 3 1.5 1.5 0 0 0 0-3Z"></path>
<path d="M13.875 11.25a2.625 2.625 0 1 1 0-5.25 2.625 2.625 0 0 1 0 5.25Zm0-3.75a1.125 1.125 0 1 0 0 2.25 1.125 1.125 0 0 0 0-2.25Z"></path>
</svg>