<svg width="32" height="32" fill="currentColor" viewBox="0 0 24 24" xmlns="http://www.w3.org/2000/svg">
<path d="m22.28 3.97-2.25-2.25a.749.749 0 0 0-1.06 0L14.69 6h-1.87a8.259 8.259 0 0 0-7.786 5.525l-3.492 9.978a.75.75 0 0 0 .956.955l9.978-3.492A8.259 8.259 0 0 0 18 11.179V9.311l4.28-4.28a.749.749 0 0 0 0-1.061Zm-5.56 4.5a.75.75 0 0 0-.22.53v2.179a6.758 6.758 0 0 1-4.52 6.371l-6.876 2.407L12 13.06 10.94 12l-6.897 6.896L6.45 12.02a6.758 6.758 0 0 1 6.37-4.52H15a.75.75 0 0 0 .53-.22l3.97-3.97 1.19 1.19-3.97 3.97Z"></path>
</svg>