<svg width="32" height="32" fill="currentColor" viewBox="0 0 24 24" xmlns="http://www.w3.org/2000/svg">
<path d="M7.5 23.25h-3a1.504 1.504 0 0 1-1.5-1.5V16.5A1.504 1.504 0 0 1 1.5 15v-4.5a2.21 2.21 0 0 1 2.25-2.25h4.5a2.21 2.21 0 0 1 2.25 2.25V15A1.504 1.504 0 0 1 9 16.5v5.25a1.504 1.504 0 0 1-1.5 1.5ZM3.75 9.75a.708.708 0 0 0-.75.75V15h1.5v6.75h3V15H9v-4.5a.708.708 0 0 0-.75-.75h-4.5Z"></path>
<path d="M6 7.5a3 3 0 1 1 0-6 3 3 0 0 1 0 6ZM6 3a1.5 1.5 0 1 0 0 3 1.5 1.5 0 0 0 0-3Z"></path>
<path d="M21.575 3.193a3.159 3.159 0 0 0-4.325-.168 3.159 3.159 0 0 0-4.325.168 3.24 3.24 0 0 0 0 4.534l4.323 4.38.002-.002.002.001 4.323-4.38a3.24 3.24 0 0 0 0-4.533Zm-1.069 3.48L17.252 9.97l-.001-.001-.002.001-3.255-3.298a1.731 1.731 0 0 1 0-2.425 1.698 1.698 0 0 1 2.368 0l.885.906.004-.004.004.004.885-.906a1.698 1.698 0 0 1 2.367 0 1.731 1.731 0 0 1 0 2.425Z"></path>
</svg>