<svg width="32" height="32" fill="currentColor" viewBox="0 0 24 24" xmlns="http://www.w3.org/2000/svg">
<path d="M5.625 8.25a1.125 1.125 0 1 0 0-2.25 1.125 1.125 0 0 0 0 2.25Z"></path>
<path d="M9.75 10.5a.75.75 0 1 0 0-1.5.75.75 0 0 0 0 1.5Z"></path>
<path d="M16.5 16.5a.75.75 0 1 0 0-1.5.75.75 0 0 0 0 1.5Z"></path>
<path d="M18.75 10.5a6.739 6.739 0 0 0-5.25 2.517V9.75c0-1.187-.258-2.36-.757-3.438l-.268-.583-.617.173A2.202 2.202 0 0 1 11.25 6 2.253 2.253 0 0 1 9 3.75c.004-.206.037-.41.097-.608l.174-.617-.583-.268A8.184 8.184 0 0 0 5.25 1.5H1.5v5.25a8.171 8.171 0 0 0 1.675 4.97l.292.321.405-.029a4.147 4.147 0 0 1 4.022 2.442l.166.373.403.063c.425.07.856.107 1.287.11H12v7.5h1.5v-3h2.25a6.758 6.758 0 0 0 6.75-6.75V10.5h-3.75Zm-9.674 2.96a5.633 5.633 0 0 0-4.93-2.96A6.67 6.67 0 0 1 3 6.75V3h2.25a6.68 6.68 0 0 1 2.27.397 3.724 3.724 0 0 0 4.083 4.083A6.66 6.66 0 0 1 12 9.75v3.75H9.75c-.225 0-.45-.014-.674-.04ZM21 12.75A5.256 5.256 0 0 1 15.75 18H13.5v-.75a5.257 5.257 0 0 1 3.766-5.033A1.122 1.122 0 1 0 19.43 12H21v.75Z"></path>
</svg>