<svg width="32" height="32" fill="currentColor" viewBox="0 0 24 24" xmlns="http://www.w3.org/2000/svg">
<path d="M9.75 21.75h-1.5V24h1.5v-2.25Z"></path>
<path d="M9.75 6h-1.5v2.25h1.5V6Z"></path>
<path d="M2.25 14.25H0v1.5h2.25v-1.5Z"></path>
<path d="M18 14.25h-2.25v1.5H18v-1.5Z"></path>
<path d="m3.165 8.122-1.05 1.05 1.591 1.59 1.05-1.05-1.59-1.59Z"></path>
<path d="m14.306 19.247-1.05 1.05 1.59 1.59 1.05-1.05-1.59-1.59Z"></path>
<path d="m3.714 19.253-1.59 1.59 1.05 1.05 1.59-1.59-1.05-1.05Z"></path>
<path d="m14.839 8.112-1.591 1.591 1.05 1.05 1.591-1.59-1.05-1.05Z"></path>
<path d="M9 9.75a5.25 5.25 0 1 0 0 10.5 5.25 5.25 0 0 0 0-10.5Zm0 9a3.75 3.75 0 0 1 0-7.5v7.5Z"></path>
<path d="M1.5 1.5h5.25V0H0v6.75h1.5V1.5Z"></path>
<path d="M22.5 0h-3A1.5 1.5 0 0 0 18 1.5V9a1.5 1.5 0 0 0 1.5 1.5h3A1.5 1.5 0 0 0 24 9V1.5A1.5 1.5 0 0 0 22.5 0Zm-3 9V1.5h3V9h-3Z"></path>
</svg>