<svg width="32" height="32" fill="currentColor" viewBox="0 0 24 24" xmlns="http://www.w3.org/2000/svg">
<path d="M15.75 15.75h-1.5V18h1.5v-2.25Z"></path>
<path d="M15.75 0h-1.5v2.25h1.5V0Z"></path>
<path d="M8.25 8.25H6v1.5h2.25v-1.5Z"></path>
<path d="M24 8.25h-2.25v1.5H24v-1.5Z"></path>
<path d="m9.162 2.114-1.05 1.05 1.591 1.591 1.05-1.05-1.59-1.591Z"></path>
<path d="m20.308 13.239-1.05 1.05 1.59 1.591 1.05-1.05-1.59-1.591Z"></path>
<path d="m9.711 13.237-1.59 1.591 1.05 1.05 1.59-1.59-1.05-1.05Z"></path>
<path d="M20.841 2.104 19.25 3.695l1.05 1.05 1.591-1.59-1.05-1.05Z"></path>
<path d="M15 3.75a5.25 5.25 0 1 0 0 10.5 5.25 5.25 0 0 0 0-10.5Zm0 9a3.75 3.75 0 1 1 0-7.5v7.5Z"></path>
<path d="M3.75 13.5H0V24h3.75A2.25 2.25 0 0 0 6 21.75v-1.5a2.25 2.25 0 0 0-.585-1.5A2.25 2.25 0 0 0 6 17.25v-1.5a2.25 2.25 0 0 0-2.25-2.25ZM1.5 15h2.25a.75.75 0 0 1 .75.75v1.5a.75.75 0 0 1-.75.75H1.5v-3Zm3 6.75a.75.75 0 0 1-.75.75H1.5v-3h2.25a.75.75 0 0 1 .75.75v1.5Z"></path>
<path d="M1.5 1.5h5.25V0H0v6.75h1.5V1.5Z"></path>
</svg>