<svg width="32" height="32" fill="currentColor" viewBox="0 0 24 24" xmlns="http://www.w3.org/2000/svg">
<path d="M19.5 21.75h-.128C4.635 20.902 2.542 8.467 2.25 4.672A2.25 2.25 0 0 1 4.5 2.25h3.952a1.5 1.5 0 0 1 1.395.945L10.987 6a1.5 1.5 0 0 1-.33 1.62L9.06 9.232a7.02 7.02 0 0 0 5.685 5.7l1.627-1.612A1.499 1.499 0 0 1 18 13.012l2.827 1.133a1.5 1.5 0 0 1 .923 1.395v3.96a2.25 2.25 0 0 1-2.25 2.25Zm-15-18a.75.75 0 0 0-.75.81C4.095 9 6.307 19.5 19.455 20.25a.75.75 0 0 0 .795-.75v-3.96l-2.828-1.132-2.152 2.137-.36-.045C8.385 15.682 7.5 9.158 7.5 9.09l-.045-.36 2.13-2.153L8.46 3.75H4.5Z"></path>
<path d="M20.25 9.75v-1.5h-3.44l4.94-4.94-1.06-1.06-4.94 4.94V3.75h-1.5v6h6Z"></path>
</svg>