<svg width="32" height="32" fill="currentColor" viewBox="0 0 24 24" xmlns="http://www.w3.org/2000/svg">
<path d="M6.893 13.92A19.245 19.245 0 0 1 3.75 4.56V4.5a.75.75 0 0 1 .75-.75h3.96l1.125 2.827-2.13 2.153.045.36a9.75 9.75 0 0 0 1.095 3.127l1.095-1.095a7.005 7.005 0 0 1-.63-1.89l1.598-1.612a1.5 1.5 0 0 0 .33-1.62l-1.14-2.805a1.5 1.5 0 0 0-1.395-.945H4.32a2.25 2.25 0 0 0-2.07 2.423A21 21 0 0 0 5.843 15l1.05-1.08Z"></path>
<path d="M20.828 14.145 18 13.012a1.5 1.5 0 0 0-1.628.308l-1.627 1.612a6.878 6.878 0 0 1-3.157-1.432L22.5 2.558 21.442 1.5 1.5 21.442 2.558 22.5l5.25-5.25c2.534 2.385 6.21 4.215 11.542 4.5h.15a2.25 2.25 0 0 0 2.25-2.25v-3.96a1.5 1.5 0 0 0-.922-1.395ZM20.25 19.5v.045a.749.749 0 0 1-.795.705c-4.882-.277-8.25-1.905-10.582-4.065L10.5 14.58a8.077 8.077 0 0 0 4.41 1.92l.36.045 2.152-2.138 2.828 1.133v3.96Z"></path>
</svg>