<svg width="32" height="32" fill="currentColor" viewBox="0 0 24 24" xmlns="http://www.w3.org/2000/svg">
<path d="M22.5 7.5V6h-1.576a3.725 3.725 0 0 0-.549-1.315l1.118-1.117-1.06-1.06-1.118 1.117A3.726 3.726 0 0 0 18 3.075V1.5h-1.5v1.576c-.47.097-.916.283-1.315.549l-1.117-1.118-1.06 1.06 1.117 1.118A3.727 3.727 0 0 0 13.575 6H12v1.5h1.576c.096.47.283.916.549 1.315l-1.118 1.117 1.06 1.06 1.118-1.117c.4.266.845.453 1.315.55V12H18v-1.576c.47-.096.916-.283 1.315-.549l1.117 1.118 1.06-1.06-1.117-1.118c.266-.4.453-.846.55-1.315H22.5ZM17.25 9a2.25 2.25 0 1 1 0-4.5 2.25 2.25 0 0 1 0 4.5Z"></path>
<path d="M18.75 22.5h-.128C3.885 21.652 1.792 9.217 1.5 5.422A2.25 2.25 0 0 1 3.75 3h3.952a1.5 1.5 0 0 1 1.395.945l1.14 2.805a1.5 1.5 0 0 1-.33 1.62L8.31 9.983a7.02 7.02 0 0 0 5.685 5.7l1.627-1.613a1.499 1.499 0 0 1 1.628-.308l2.827 1.133A1.5 1.5 0 0 1 21 16.29v3.96a2.25 2.25 0 0 1-2.25 2.25Zm-15-18a.75.75 0 0 0-.75.81C3.345 9.75 5.557 20.25 18.705 21a.75.75 0 0 0 .795-.75v-3.96l-2.828-1.132-2.152 2.137-.36-.045c-6.525-.817-7.41-7.342-7.41-7.41l-.045-.36 2.13-2.153L7.71 4.5H3.75Z"></path>
</svg>