<svg width="32" height="32" fill="currentColor" viewBox="0 0 24 24" xmlns="http://www.w3.org/2000/svg">
<path d="M19.5 21.75h-.15c-14.7-.825-16.8-13.275-17.1-17.1-.075-1.2.825-2.325 2.1-2.4h4.125c.6 0 1.2.375 1.425.975L10.95 6c.226.525.075 1.2-.3 1.65L9.075 9.225a7.018 7.018 0 0 0 5.7 5.7l1.65-1.575c.45-.45 1.05-.525 1.65-.3l2.85 1.125c.526.225.9.75.9 1.425v3.9c-.075 1.275-1.05 2.25-2.325 2.25Zm-15-18c-.45 0-.75.3-.75.75v.075C4.125 9 6.3 19.5 19.425 20.25c.45 0 .75-.3.825-.675v-4.05L17.4 14.4l-2.174 2.175-.3-.075C8.4 15.675 7.5 9.15 7.5 9.075L7.425 8.7l2.1-2.175-1.05-2.775H4.5Z"></path>
<path d="M15 3v1.5h3.45L13.5 9.45l1.05 1.05 4.95-4.95V9H21V3h-6Z"></path>
</svg>