<svg width="32" height="32" fill="currentColor" viewBox="0 0 24 24" xmlns="http://www.w3.org/2000/svg">
<path d="M13.727 7.5a1.996 1.996 0 0 0-1.43.604L12 8.408l-.297-.304a1.996 1.996 0 0 0-2.862 0 2.1 2.1 0 0 0 0 2.923l3.16 3.223 3.156-3.223a2.1 2.1 0 0 0 0-2.923 1.996 1.996 0 0 0-1.43-.604Z"></path>
<path d="M13.302 22.5 12 21.75l3-5.25h4.5A1.497 1.497 0 0 0 21 15V6a1.497 1.497 0 0 0-1.5-1.5h-15A1.497 1.497 0 0 0 3 6v9a1.497 1.497 0 0 0 1.5 1.5h6.75V18H4.5a3 3 0 0 1-3-3V6a3 3 0 0 1 3-3h15a2.999 2.999 0 0 1 3 3v9a3 3 0 0 1-3 3h-3.627l-2.571 4.5Z"></path>
</svg>