<svg width="32" height="32" fill="currentColor" viewBox="0 0 24 24" xmlns="http://www.w3.org/2000/svg">
<path d="M16.5 10.5c-1.054 0-2.09.28-3 .812V6.75a5.25 5.25 0 1 0-10.5 0v10.5a5.24 5.24 0 0 0 9.207 3.433A5.997 5.997 0 1 0 16.5 10.5ZM8.25 3A3.755 3.755 0 0 1 12 6.75v4.5H4.5v-4.5A3.754 3.754 0 0 1 8.25 3Zm0 18a3.755 3.755 0 0 1-3.75-3.75v-4.5h7.324a5.967 5.967 0 0 0-.543 6.699A3.762 3.762 0 0 1 8.25 21Zm8.25 0a4.5 4.5 0 1 1 0-9 4.5 4.5 0 0 1 0 9Z"></path>
<path d="M18.75 15.75h-1.5v-1.5h-1.5v1.5h-1.5v1.5h1.5v1.5h1.5v-1.5h1.5v-1.5Z"></path>
</svg>