<svg width="32" height="32" fill="currentColor" viewBox="0 0 24 24" xmlns="http://www.w3.org/2000/svg">
<path d="M16.5 10.5c-1.054 0-2.09.28-3 .812V6.75a5.25 5.25 0 1 0-10.5 0v10.5a5.25 5.25 0 0 0 9.214 3.44A5.997 5.997 0 1 0 16.5 10.5Zm0 1.5a4.504 4.504 0 0 1 4.433 3.75h-8.865A4.504 4.504 0 0 1 16.5 12Zm-12-5.25a3.75 3.75 0 0 1 7.5 0v4.5H4.5v-4.5ZM8.25 21a3.755 3.755 0 0 1-3.75-3.75v-4.5h7.324a5.967 5.967 0 0 0-.543 6.699A3.741 3.741 0 0 1 8.25 21Zm8.25 0a4.503 4.503 0 0 1-4.432-3.75h8.865A4.503 4.503 0 0 1 16.5 21Z"></path>
</svg>