<svg width="32" height="32" fill="currentColor" viewBox="0 0 24 24" xmlns="http://www.w3.org/2000/svg">
<path d="M22.5 22.5H21a3.7 3.7 0 0 1-3-1.49 3.765 3.765 0 0 1-6 0 3.765 3.765 0 0 1-6 0 3.698 3.698 0 0 1-3 1.49H1.5V21H3a2.58 2.58 0 0 0 2.29-1.741.729.729 0 0 1 .71-.509.755.755 0 0 1 .712.513A2.58 2.58 0 0 0 9 21a2.58 2.58 0 0 0 2.29-1.741.743.743 0 0 1 .71-.509.755.755 0 0 1 .711.513A2.58 2.58 0 0 0 15 21a2.58 2.58 0 0 0 2.29-1.741.75.75 0 0 1 1.422.004A2.58 2.58 0 0 0 21 21h1.5v1.5Z"></path>
<path d="M21 4.5v3h-1.875L17.55 5.4a2.26 2.26 0 0 0-1.8-.9h-4.5A2.253 2.253 0 0 0 9 6.75v.75H6.464L5.92 6.415l-.75-1.5A.75.75 0 0 0 4.5 4.5H2.25a.75.75 0 0 0-.75.75v4.5A2.253 2.253 0 0 0 3.75 12h5.115l-.5 3H5.25a.75.75 0 1 0 0 1.5h15a.75.75 0 1 0 0-1.5h-3.115l-.5-3h.122a3.724 3.724 0 0 0 2.651-1.099L21 9.311V12h1.5V4.5H21ZM10.5 6.75a.75.75 0 0 1 .75-.75h4.5a.753.753 0 0 1 .6.3l.9 1.2H10.5v-.75ZM15.615 15h-5.73l.5-3h4.73l.5 3Zm1.143-4.5H3.75A.75.75 0 0 1 3 9.75V6h1.036l.543 1.085L5.536 9H19.19l-.84.84a2.233 2.233 0 0 1-1.591.66Z"></path>
</svg>