<svg width="32" height="32" fill="currentColor" viewBox="0 0 24 24" xmlns="http://www.w3.org/2000/svg">
<path d="M22.027 11.063 15 7.5v-3a3 3 0 0 0-6 0v3l-7.027 3.563a.75.75 0 0 0-.473.697v3.75a.75.75 0 0 0 .75.75.748.748 0 0 0 .217-.038L9 13.5v3.75l-2.588 1.29a.75.75 0 0 0-.412.675v2.535a.75.75 0 0 0 .75.75c.07.011.14.011.21 0L12 21l5.04 1.5c.07.011.14.011.21 0a.75.75 0 0 0 .75-.75v-2.535a.75.75 0 0 0-.413-.675L15 17.25V13.5l6.532 2.707c.07.024.144.036.218.038a.75.75 0 0 0 .75-.75v-3.75a.75.75 0 0 0-.473-.682ZM21 14.363l-7.5-3.113v6.93l3 1.5v1.073L12 19.44l-4.5 1.313V19.68l3-1.5v-6.93L3 14.363v-2.138l7.5-3.803V4.5a1.5 1.5 0 1 1 3 0v3.922l7.5 3.803v2.138Z"></path>
</svg>