<svg width="32" height="32" fill="currentColor" viewBox="0 0 24 24" xmlns="http://www.w3.org/2000/svg">
<path d="m21.438 10.939-2.34-1.404A3.746 3.746 0 0 0 17.17 9H5.836L5.37 7.136A1.498 1.498 0 0 0 3.914 6H3a1.502 1.502 0 0 0-1.5 1.5v5.25A2.253 2.253 0 0 0 3.75 15H9v4.5a1.502 1.502 0 0 0 1.5 1.5h.98a1.507 1.507 0 0 0 1.405-.973L14.77 15h5.543a2.186 2.186 0 0 0 1.125-4.061ZM20.313 13.5H13.73l-2.25 6h-.98v-6H3.75a.75.75 0 0 1-.75-.75V7.5h.914l.75 3H7.5V12H9v-1.5h2.25V12h1.5v-1.5H15V12h1.5v-1.5h.67c.407 0 .807.11 1.157.32l2.34 1.405a.686.686 0 0 1-.354 1.275Z"></path>
<path d="M10.5 3h.992l1.8 4.5h1.616l-2.023-5.057a1.493 1.493 0 0 0-1.393-.943H10.5A1.502 1.502 0 0 0 9 3v4.5h1.5V3Z"></path>
</svg>