<svg width="32" height="32" fill="currentColor" viewBox="0 0 24 24" xmlns="http://www.w3.org/2000/svg">
<path d="M21 22.5h-7.5A1.502 1.502 0 0 1 12 21v-7.5a1.502 1.502 0 0 1 1.5-1.5H15v1.5h-1.5V21H21v-7.5h-1.5V12H21a1.502 1.502 0 0 1 1.5 1.5V21a1.502 1.502 0 0 1-1.5 1.5Z"></path>
<path d="M10.5 12H3a1.502 1.502 0 0 1-1.5-1.5V3A1.502 1.502 0 0 1 3 1.5h7.5A1.502 1.502 0 0 1 12 3v1.5h-1.5V3H3v7.5h7.5V9H12v1.5a1.502 1.502 0 0 1-1.5 1.5Z"></path>
<path d="M19.5 6.75A2.244 2.244 0 0 0 15.138 6H6.75v1.5h8.388A2.246 2.246 0 0 0 16.5 8.86v8.389H18V8.862a2.247 2.247 0 0 0 1.5-2.112Zm-2.25.75a.75.75 0 1 1 0-1.5.75.75 0 0 1 0 1.5Z"></path>
</svg>