<svg width="32" height="32" fill="currentColor" viewBox="0 0 24 24" xmlns="http://www.w3.org/2000/svg">
<path d="M9 18H7.5v4.5H9V18Z"></path>
<path d="M15.75 15H5.25A2.253 2.253 0 0 1 3 12.75V4.5H1.5v8.25a3.755 3.755 0 0 0 3.75 3.75h10.5a3.705 3.705 0 0 1 1.579.36l-4.579 4.58 1.06 1.06 4.73-4.73a3.72 3.72 0 0 1 .96 2.48v2.25H21v-2.25A5.256 5.256 0 0 0 15.75 15Z"></path>
<path d="m18.956 3.029-5.25-1.5a.75.75 0 0 0-.413 0l-5.25 1.5a.75.75 0 0 0-.52.903l.727 2.91V8.25a5.25 5.25 0 1 0 10.5 0V6.842l.727-2.91a.75.75 0 0 0-.521-.903Zm-5.456 0 4.346 1.243L17.414 6H14.25V4.5h-1.5V6H9.586l-.432-1.728L13.5 3.03Zm0 8.97a3.754 3.754 0 0 1-3.75-3.75V7.5h7.5v.75A3.754 3.754 0 0 1 13.5 12Z"></path>
</svg>