<svg width="32" height="32" fill="currentColor" viewBox="0 0 24 24" xmlns="http://www.w3.org/2000/svg">
<path d="M22.5 13.501a4.501 4.501 0 1 0-7.5 3.345v5.655l3-1.42 3 1.42v-5.655a4.485 4.485 0 0 0 1.5-3.345Zm-3 6.63-1.5-.71-1.5.71V17.74c.97.35 2.03.35 3 0v2.392Zm-1.5-3.63a3 3 0 1 1 0-6 3 3 0 0 1 0 6Z"></path>
<path d="M12 10.5H6.75V12H12v-1.5Z"></path>
<path d="M14.25 6h-7.5v1.5h7.5V6Z"></path>
<path d="M4.5 22.5A1.502 1.502 0 0 1 3 21V3a1.502 1.502 0 0 1 1.5-1.5h12A1.502 1.502 0 0 1 18 3v3h-1.5V3h-12v18H12v1.5H4.5Z"></path>
</svg>