<svg width="32" height="32" fill="currentColor" viewBox="0 0 24 24" xmlns="http://www.w3.org/2000/svg">
<path d="M18.75 16.5h-4.5a1.502 1.502 0 0 1-1.5-1.5V7.5a1.502 1.502 0 0 1 1.5-1.5h4.5v1.5h-4.5V15h4.5v1.5Z"></path>
<path d="M9.75 6h-3a1.502 1.502 0 0 0-1.5 1.5V15a1.502 1.502 0 0 0 1.5 1.5h.75V18A1.502 1.502 0 0 0 9 19.5h1.5V18H9v-1.5h.75a1.502 1.502 0 0 0 1.5-1.5V7.5A1.502 1.502 0 0 0 9.75 6Zm-3 9V7.5h3V15h-3Z"></path>
<path d="M21 22.5H3A1.502 1.502 0 0 1 1.5 21V3A1.502 1.502 0 0 1 3 1.5h18A1.502 1.502 0 0 1 22.5 3v18a1.502 1.502 0 0 1-1.5 1.5ZM3 3v18h18V3H3Z"></path>
</svg>