<svg width="32" height="32" fill="currentColor" viewBox="0 0 24 24" xmlns="http://www.w3.org/2000/svg">
<path d="M18 19.5V21h1.5v-1.5H18Z"></path>
<path d="M13.5 16.5V18H15v-1.5h-1.5Z"></path>
<path d="M13.5 22.5h3V21H15v-1.5h-1.5v3Z"></path>
<path d="M19.5 16.5v3H21v-3h-1.5Z"></path>
<path d="M21 19.5h1.5v3h-3V21H21v-1.5Z"></path>
<path d="M19.5 15v-1.5h3v3H21V15h-1.5Z"></path>
<path d="M18 15h-1.5v3H15v1.5h3V15Z"></path>
<path d="M13.5 13.5V15h3v-1.5h-3Z"></path>
<path d="M7.5 16.5h-3v3h3v-3Z"></path>
<path d="M10.5 22.5h-9v-9h9v9ZM3 21h6v-6H3v6Z"></path>
<path d="M19.5 4.5h-3v3h3v-3Z"></path>
<path d="M22.5 10.5h-9v-9h9v9ZM15 9h6V3h-6v6Z"></path>
<path d="M7.5 4.5h-3v3h3v-3Z"></path>
<path d="M10.5 10.5h-9v-9h9v9ZM3 9h6V3H3v6Z"></path>
</svg>