<svg width="32" height="32" fill="currentColor" viewBox="0 0 24 24" xmlns="http://www.w3.org/2000/svg">
<path d="M22.5 11.25h-9.75V1.5h-1.5v9.75H1.5v1.5h9.75v9.75h1.5v-9.75h9.75v-1.5Z"></path>
<path d="M3.75 22.5a2.25 2.25 0 1 1 0-4.5 2.25 2.25 0 0 1 0 4.5Zm0-3a.75.75 0 1 0 0 1.5.75.75 0 0 0 0-1.5Z"></path>
<path d="M6 6a2.25 2.25 0 1 1 0-4.5A2.25 2.25 0 0 1 6 6Zm0-3a.75.75 0 1 0 0 1.5A.75.75 0 0 0 6 3Z"></path>
<path d="M16.5 9.75a2.25 2.25 0 1 1 0-4.5 2.25 2.25 0 0 1 0 4.5Zm0-3a.75.75 0 1 0 0 1.5.75.75 0 0 0 0-1.5Z"></path>
<path d="M8.25 9.75a1.5 1.5 0 1 0 0-3 1.5 1.5 0 0 0 0 3Z"></path>
<path d="M8.25 17.25a1.5 1.5 0 1 0 0-3 1.5 1.5 0 0 0 0 3Z"></path>
<path d="M15.75 17.25a1.5 1.5 0 1 0 0-3 1.5 1.5 0 0 0 0 3Z"></path>
<path d="M16.5 22.5a1.5 1.5 0 1 0 0-3 1.5 1.5 0 0 0 0 3Z"></path>
<path d="M21 19.5a1.5 1.5 0 1 0 0-3 1.5 1.5 0 0 0 0 3Z"></path>
<path d="M3 9.75a1.5 1.5 0 1 0 0-3 1.5 1.5 0 0 0 0 3Z"></path>
<path d="M21 4.5a1.5 1.5 0 1 0 0-3 1.5 1.5 0 0 0 0 3Z"></path>
</svg>