<svg width="32" height="32" fill="none" viewBox="0 0 24 24" xmlns="http://www.w3.org/2000/svg">
<path fill="blaack" d="M22.5 15h-6v1.5h6V15Z"></path>
<path fill="blaack" d="M22.5 18h-6v1.5h6V18Z"></path>
<path fill="blaack" d="M22.5 21h-6v1.5h6V21Z"></path>
<path fill="blaack" d="M15 18h-1.5v1.5H15V18Z"></path>
<path fill="blaack" d="M15 15h-1.5v1.5H15V15Z"></path>
<path fill="blaack" d="M15 21h-1.5v1.5H15V21Z"></path>
<path fill="blaack" d="M5.111 6.216a9.058 9.058 0 0 1 2.394-2.004l-.75-1.298a10.564 10.564 0 0 0-2.792 2.339l1.148.963Z"></path>
<path fill="blaack" d="m18.889 6.216 1.148-.963a10.564 10.564 0 0 0-2.793-2.339l-.749 1.298a9.058 9.058 0 0 1 2.394 2.004Z"></path>
<path fill="blaack" d="m3.552 8.926-1.407-.512a10.426 10.426 0 0 0-.645 3.587H3c.002-1.05.19-2.09.552-3.075Z"></path>
<path fill="blaack" d="M5.111 17.783a9 9 0 0 1-1.559-2.705l-1.407.512a10.493 10.493 0 0 0 1.818 3.157l1.148-.964Z"></path>
<path fill="blaack" d="M20.447 8.926A8.94 8.94 0 0 1 21 12.001h1.5a10.423 10.423 0 0 0-.645-3.587l-1.408.512Z"></path>
<path fill="blaack" d="M10.439 20.851a8.915 8.915 0 0 1-2.934-1.07l-.75 1.298a10.4 10.4 0 0 0 3.423 1.248l.26-1.476Z"></path>
<path fill="blaack" d="M10.439 3.145a8.476 8.476 0 0 1 3.123 0l.26-1.476a9.89 9.89 0 0 0-3.643 0l.26 1.476Z"></path>
</svg>