<svg width="32" height="32" fill="currentColor" viewBox="0 0 24 24" xmlns="http://www.w3.org/2000/svg">
<path d="M22.5 2.561 21.44 1.5l-8.47 8.47a.751.751 0 1 0 1.06 1.06l2.591-2.59a3.736 3.736 0 0 1-3.121 5.81 3.777 3.777 0 0 1-.456-.037 6.032 6.032 0 0 0-3.256-3.257A3.675 3.675 0 0 1 13.5 6.75v-1.5a5.256 5.256 0 0 0-5.25 5.25c0 .018.004.035.004.053A6.024 6.024 0 0 0 7.5 10.5a5.962 5.962 0 0 0-1.491.195C6.007 10.63 6 10.565 6 10.5A7.509 7.509 0 0 1 13.5 3V1.5a9.01 9.01 0 0 0-8.965 9.79 5.996 5.996 0 1 0 8.175 8.174 8.988 8.988 0 0 0 7.656-14.769L22.5 2.562ZM11.932 15.75h-1.465a9.022 9.022 0 0 0-.913-3.249 4.507 4.507 0 0 1 2.378 3.249Zm-8.864 1.5h1.465a9.024 9.024 0 0 0 .913 3.25 4.509 4.509 0 0 1-2.378-3.25Zm1.464-1.5H3.068a4.508 4.508 0 0 1 2.378-3.249 9.024 9.024 0 0 0-.913 3.249ZM7.5 20.99a7.51 7.51 0 0 1-1.459-3.74H8.96a7.511 7.511 0 0 1-1.46 3.74Zm-1.459-5.24A7.509 7.509 0 0 1 7.5 12.011a7.508 7.508 0 0 1 1.459 3.739H6.04Zm3.513 4.75a9.023 9.023 0 0 0 .913-3.25h1.465a4.506 4.506 0 0 1-2.378 3.25ZM21 10.5a7.508 7.508 0 0 1-7.5 7.5c-.065 0-.13-.008-.195-.009a5.663 5.663 0 0 0 .143-2.245c.017 0 .034.004.052.004a5.25 5.25 0 0 0 4.204-8.394l1.599-1.598A7.462 7.462 0 0 1 21 10.5Z"></path>
</svg>