<svg width="32" height="32" fill="currentColor" viewBox="0 0 24 24" xmlns="http://www.w3.org/2000/svg">
<path d="M22.5 2.561 21.44 1.5l-8.47 8.47a.75.75 0 1 0 1.06 1.06l2.591-2.59a3.724 3.724 0 0 1-2.91 5.789 5.288 5.288 0 0 0-3.858-2.905A3.708 3.708 0 0 1 13.5 6.75v-1.5a5.216 5.216 0 0 0-5.181 6.06 5.2 5.2 0 0 0-2.14.794A7.477 7.477 0 0 1 13.5 3V1.5a8.982 8.982 0 0 0-8.57 11.727 5.196 5.196 0 0 0-1.026 2.03A3.746 3.746 0 0 0 5.25 22.5h7.5a3.744 3.744 0 0 0 3.726-3.51A9.03 9.03 0 0 0 22.5 10.5a8.9 8.9 0 0 0-2.13-5.81l2.13-2.129ZM12.75 21h-7.5a2.246 2.246 0 0 1-.522-4.431l.494-.118.074-.503a3.744 3.744 0 0 1 7.408 0l.074.503.494.117A2.246 2.246 0 0 1 12.75 21ZM21 10.5a7.525 7.525 0 0 1-4.734 6.968 3.718 3.718 0 0 0-1.515-1.875 5.244 5.244 0 0 0 2.953-8.237l1.6-1.598A7.415 7.415 0 0 1 21 10.5Z"></path>
</svg>