<svg width="32" height="32" fill="currentColor" viewBox="0 0 24 24" xmlns="http://www.w3.org/2000/svg">
<path d="M7.5 19.5a3 3 0 1 1 0-6 3 3 0 0 1 0 6Zm0-4.5a1.5 1.5 0 1 0 0 3 1.5 1.5 0 0 0 0-3Z"></path>
<path d="M19.5 15h-6.75v1.5h6.75V15Z"></path>
<path d="M19.5 18h-6.75v1.5h6.75V18Z"></path>
<path d="M15 9h6a1.502 1.502 0 0 0 1.5-1.5v-3A1.502 1.502 0 0 0 21 3h-6a1.502 1.502 0 0 0-1.5 1.5v.75H9a3.003 3.003 0 0 0-3 3v2.25H4.5V3H3v7.5A1.502 1.502 0 0 0 1.5 12v9A1.502 1.502 0 0 0 3 22.5h18a1.502 1.502 0 0 0 1.5-1.5v-9a1.502 1.502 0 0 0-1.5-1.5H7.5V8.25A1.502 1.502 0 0 1 9 6.75h4.5v.75A1.502 1.502 0 0 0 15 9Zm3-4.5h3v3h-3v-3Zm-3 0h1.5v3H15v-3ZM21 21H3v-9h18v9Z"></path>
</svg>