<svg width="32" height="32" fill="currentColor" viewBox="0 0 24 24" xmlns="http://www.w3.org/2000/svg">
<path d="M21 7.5h-3v-6h-1.5v6H9.75V6h-1.5v1.5H6V6H4.5v1.5H3A1.5 1.5 0 0 0 1.5 9v12A1.5 1.5 0 0 0 3 22.5h18a1.5 1.5 0 0 0 1.5-1.5V9A1.5 1.5 0 0 0 21 7.5ZM3 21V9h18v12H3Z"></path>
<path d="M7.5 19.5a3 3 0 1 1 0-6 3 3 0 0 1 0 6Zm0-4.5a1.5 1.5 0 1 0 0 3 1.5 1.5 0 0 0 0-3Z"></path>
<path d="M9.75 10.5h-4.5V12h4.5v-1.5Z"></path>
<path d="M19.5 12h-6.75v1.5h6.75V12Z"></path>
<path d="M19.5 15h-6.75v1.5h6.75V15Z"></path>
<path d="M19.5 18h-6.75v1.5h6.75V18Z"></path>
</svg>