<svg width="32" height="32" fill="currentColor" viewBox="0 0 24 24" xmlns="http://www.w3.org/2000/svg">
<path d="M8.25 22.497a.75.75 0 0 1-.67-1.085l1.5-3a.751.751 0 1 1 1.34.67l-1.5 3a.749.749 0 0 1-.67.415Z"></path>
<path d="M18.6 6.852a6.746 6.746 0 0 0-13.2 0 4.873 4.873 0 0 0 .975 9.648h8.161l-.957 1.915a.751.751 0 0 0 1.341.67l1.293-2.585h1.412a4.873 4.873 0 0 0 .976-9.648ZM17.626 15H6.375a3.373 3.373 0 0 1-.267-6.736l.612-.048.074-.609a5.245 5.245 0 0 1 10.413 0l.074.61.611.047A3.373 3.373 0 0 1 17.625 15Z"></path>
</svg>