<svg width="32" height="32" fill="currentColor" viewBox="0 0 24 24" xmlns="http://www.w3.org/2000/svg">
<path d="M12.75 22.5a.75.75 0 0 1-.67-1.085l1.5-3a.75.75 0 1 1 1.34.67l-1.5 3a.748.748 0 0 1-.67.415Z"></path>
<path d="M6 22.5a.75.75 0 0 1-.67-1.085l1.5-3a.75.75 0 0 1 1.34.67l-1.5 3A.748.748 0 0 1 6 22.5Z"></path>
<path d="M22.5 11.625a4.899 4.899 0 0 0-3.9-4.773 6.746 6.746 0 0 0-13.2 0 4.868 4.868 0 0 0-1.123 9.167L3.08 18.415a.75.75 0 1 0 1.34.67L5.714 16.5h5.073l-.956 1.915a.75.75 0 1 0 1.34.67l1.293-2.585h5.073l-.957 1.915a.75.75 0 1 0 1.342.67l1.458-2.917a4.88 4.88 0 0 0 3.121-4.543ZM17.625 15H6.375a3.373 3.373 0 0 1-.267-6.736l.612-.048.074-.609a5.245 5.245 0 0 1 10.413 0l.074.61.611.047A3.373 3.373 0 0 1 17.625 15Z"></path>
</svg>