<svg width="32" height="32" fill="currentColor" viewBox="0 0 24 24" xmlns="http://www.w3.org/2000/svg">
<path d="M6.381 24.003a.76.76 0 0 1-.568-.258.75.75 0 0 1-.105-.827l1.12-2.25a.752.752 0 0 1 1.346.67l-1.12 2.25a.75.75 0 0 1-.673.415Z"></path>
<path d="M22.383 9.776a1.139 1.139 0 0 0-.923-.65 4.019 4.019 0 0 1-2.557-1.286 4.848 4.848 0 0 1-.964-4.795 1.203 1.203 0 0 0-.225-1.16 1.09 1.09 0 0 0-1.02-.369l-.014.002a5.891 5.891 0 0 0-4.579 4.86A5.53 5.53 0 0 0 10.125 6a5.663 5.663 0 0 0-5.362 3.933A4.495 4.495 0 0 0 6 18.75h5.537l-.957 1.915a.751.751 0 0 0 1.163.907.749.749 0 0 0 .178-.236l1.292-2.586h1.037a4.467 4.467 0 0 0 4.41-5.359 5.624 5.624 0 0 0 3.65-2.475 1.153 1.153 0 0 0 .073-1.14ZM14.25 17.25H6a2.995 2.995 0 0 1-.505-5.947l.497-.084.11-.492a4.122 4.122 0 0 1 8.047 0l.109.492.497.084a2.993 2.993 0 0 1-.505 5.947Zm3.863-5.286a4.473 4.473 0 0 0-2.626-2.03 5.631 5.631 0 0 0-1.965-2.771 4.508 4.508 0 0 1 2.827-4 6.343 6.343 0 0 0 1.455 5.697 5.55 5.55 0 0 0 2.926 1.67 4.079 4.079 0 0 1-2.617 1.434Z"></path>
</svg>