<svg width="32" height="32" fill="currentColor" viewBox="0 0 24 24" xmlns="http://www.w3.org/2000/svg">
<path d="M6.381 24.003a.76.76 0 0 1-.568-.258.75.75 0 0 1-.105-.827l1.12-2.25a.752.752 0 0 1 1.346.67l-1.12 2.25a.751.751 0 0 1-.673.415Z"></path>
<path d="m20.909 11.595-1.06 1.061 1.59 1.59 1.061-1.06-1.591-1.59Z"></path>
<path d="M24 7.5h-2.25V9H24V7.5Z"></path>
<path d="m21.44 2.253-1.591 1.59 1.06 1.062L22.5 3.313l-1.06-1.06Z"></path>
<path d="M16.5 0H15v2.25h1.5V0Z"></path>
<path d="M10.06 2.252 9 3.312l1.591 1.592 1.06-1.061-1.59-1.591Z"></path>
<path d="M20.25 8.25a4.497 4.497 0 0 0-8.525-2.002 5.512 5.512 0 0 0-1.6-.248 5.663 5.663 0 0 0-5.362 3.933A4.495 4.495 0 0 0 6 18.75h5.536l-.957 1.915a.75.75 0 1 0 1.342.67l1.292-2.585h1.037a4.49 4.49 0 0 0 3.912-6.71 4.496 4.496 0 0 0 2.088-3.79Zm-6 9H6a2.994 2.994 0 0 1-.505-5.947l.497-.084.11-.493a4.122 4.122 0 0 1 8.047 0l.11.493.496.084a2.994 2.994 0 0 1-.505 5.947Zm2.945-6.383a4.47 4.47 0 0 0-1.708-.934 5.637 5.637 0 0 0-2.39-3.051 2.99 2.99 0 1 1 4.098 3.985Z"></path>
</svg>