<svg width="32" height="32" fill="currentColor" viewBox="0 0 24 24" xmlns="http://www.w3.org/2000/svg">
<path d="m21.9 6.75-.255 6-.195 3.405-.308-2.655-.51-4.095h-1.515l-.51 4.095-.307 2.655-.195-3.405-.255-6H16.5l.75 10.5h1.703l.57-3.697.345-3.053.007-.023.008.023.345 3.053.57 3.697H22.5l.75-10.5H21.9Z"></path>
<path d="M13.5 6.75h-3A1.5 1.5 0 0 0 9 8.25v9h1.5V13.5h3v3.75H15v-9a1.5 1.5 0 0 0-1.5-1.5Zm-3 5.25V8.25h3V12h-3Z"></path>
<path d="M7.5 11.25v-3A1.5 1.5 0 0 0 6 6.75H1.5v10.5H3v-4.5h1.11l1.755 4.5H7.5l-1.777-4.5H6a1.5 1.5 0 0 0 1.5-1.5Zm-4.5-3h3v3H3v-3Z"></path>
</svg>