<svg width="32" height="32" fill="currentColor" viewBox="0 0 24 24" xmlns="http://www.w3.org/2000/svg">
<path d="M17.25 12h-1.5v1.5h1.5V12Z"></path>
<path d="M12.75 12h-6v1.5h6V12Z"></path>
<path d="M17.25 9h-1.5v1.5h1.5V9Z"></path>
<path d="M12.75 9h-6v1.5h6V9Z"></path>
<path d="M17.25 6H6.75v1.5h10.5V6Z"></path>
<path d="M18.75 1.5H5.25A1.502 1.502 0 0 0 3.75 3v18.75a.75.75 0 0 0 .75.75h.75a.748.748 0 0 0 .6-.3L7.5 20l1.65 2.2a.776.776 0 0 0 1.2 0L12 20l1.65 2.2a.775.775 0 0 0 1.2 0L16.5 20l1.65 2.2a.749.749 0 0 0 .6.3h.75a.75.75 0 0 0 .75-.75V3a1.502 1.502 0 0 0-1.5-1.5Zm0 19-1.65-2.2a.775.775 0 0 0-1.2 0l-1.65 2.2-1.65-2.2a.775.775 0 0 0-1.2 0l-1.65 2.2-1.65-2.2a.776.776 0 0 0-1.2 0l-1.65 2.2V3h13.5v17.5Z"></path>
</svg>