<svg width="32" height="32" fill="currentColor" viewBox="0 0 24 24" xmlns="http://www.w3.org/2000/svg">
<path d="M10.5 9a2.923 2.923 0 0 1-3-2.833 2.926 2.926 0 0 1 .49-1.548l1.887-2.808a.779.779 0 0 1 1.245 0l1.864 2.771a2.98 2.98 0 0 1 .514 1.585A2.923 2.923 0 0 1 10.5 9Zm0-5.428L9.258 5.42A1.42 1.42 0 0 0 9 6.168 1.425 1.425 0 0 0 10.5 7.5 1.425 1.425 0 0 0 12 6.167a1.486 1.486 0 0 0-.281-.785L10.5 3.572Z"></path>
<path d="M5.625 19.5A4.039 4.039 0 0 1 1.5 15.563c.016-.755.243-1.49.655-2.123l2.712-4.036a.913.913 0 0 1 1.516 0l2.662 3.958a4.12 4.12 0 0 1 .705 2.201A4.039 4.039 0 0 1 5.625 19.5Zm0-8.535L3.424 14.24A2.52 2.52 0 0 0 3 15.563 2.54 2.54 0 0 0 5.625 18a2.539 2.539 0 0 0 2.625-2.437 2.577 2.577 0 0 0-.473-1.4l-2.152-3.198Z"></path>
<path d="M18.75 1.5 15 5.25l1.06 1.06L18 4.372V12a3.003 3.003 0 0 1-3 3h-3v1.5h3a4.504 4.504 0 0 0 4.5-4.5V4.371l1.94 1.94L22.5 5.25 18.75 1.5Z"></path>
<path d="M22.5 21h-21v1.5h21V21Z"></path>
</svg>