<svg width="32" height="32" fill="currentColor" viewBox="0 0 24 24" xmlns="http://www.w3.org/2000/svg">
<path d="M22.5 17.25v-1.5H21v-1.5h-1.5v1.5h-2.25v-1.5h-1.5v1.5h-1.5v1.5h1.5v2.25h-1.5V21h1.5v1.5h1.5V21h2.25v1.5H21V21h1.5v-1.5H21v-2.25h1.5Zm-3 2.25h-2.25v-2.25h2.25v2.25Z"></path>
<path d="M3.623 15.267a18.715 18.715 0 0 0 7.627 1.956v-1.5A17.175 17.175 0 0 1 3.1 13.27 8.985 8.985 0 0 1 3 12a8.99 8.99 0 0 1 .1-1.268 17.196 17.196 0 0 1 17.8 0c.063.42.097.844.1 1.268h1.5A10.5 10.5 0 1 0 12 22.5V21a9.008 9.008 0 0 1-8.377-5.733ZM12 3a9.008 9.008 0 0 1 8.378 5.735 18.674 18.674 0 0 0-16.756 0A9.008 9.008 0 0 1 12 3Z"></path>
</svg>