<svg width="32" height="32" fill="currentColor" viewBox="0 0 24 24" xmlns="http://www.w3.org/2000/svg">
<path d="M21 18.75h-6a1.502 1.502 0 0 1-1.5-1.5V15H15v2.25h6V6.75h-6V9h-1.5V6.75a1.502 1.502 0 0 1 1.5-1.5h6a1.502 1.502 0 0 1 1.5 1.5v10.5a1.502 1.502 0 0 1-1.5 1.5Z"></path>
<path d="M9 11.25H6v1.5h3v-1.5Z"></path>
<path d="M18 11.25h-3v1.5h3v-1.5Z"></path>
<path d="M13.5 11.25h-3v1.5h3v-1.5Z"></path>
<path d="M9 18.75H3a1.502 1.502 0 0 1-1.5-1.5V6.75A1.502 1.502 0 0 1 3 5.25h6a1.501 1.501 0 0 1 1.5 1.5V9H9V6.75H3v10.5h6V15h1.5v2.25a1.502 1.502 0 0 1-1.5 1.5Z"></path>
</svg>