<svg width="32" height="32" fill="currentColor" viewBox="0 0 24 24" xmlns="http://www.w3.org/2000/svg">
<path d="M20.25 9v1.5H21v3a2.25 2.25 0 1 1-4.5 0v-3h.75V9H15v4.5a3.756 3.756 0 0 0 3 3.674V18a3 3 0 0 1-6 0v-1.638a2.25 2.25 0 1 0-1.5 0V18a4.5 4.5 0 1 0 9 0v-.826a3.756 3.756 0 0 0 3-3.674V9h-2.25Zm-9 4.5a.75.75 0 1 1 0 1.5.75.75 0 0 1 0-1.5Z"></path>
<path d="M19.5 3h-3V1.5H15V3H9V1.5H7.5V3h-3A1.5 1.5 0 0 0 3 4.5v15A1.5 1.5 0 0 0 4.5 21h3v-1.5h-3v-15h3V6H9V4.5h6V6h1.5V4.5h3v3H21v-3A1.5 1.5 0 0 0 19.5 3Z"></path>
</svg>