<svg width="32" height="32" fill="currentColor" viewBox="0 0 24 24" xmlns="http://www.w3.org/2000/svg">
<path d="M21.66 22.499a.75.75 0 0 1-.66-.375 11.392 11.392 0 0 0-9.75-5.625v4.5a.75.75 0 0 1-.465.69.749.749 0 0 1-.817-.158l-9-9a.75.75 0 0 1 0-1.065l9-9a.75.75 0 0 1 .817-.157.75.75 0 0 1 .465.69V7.58A12.893 12.893 0 0 1 22.5 20.33a12.231 12.231 0 0 1-.097 1.5.75.75 0 0 1-.593.645l-.15.023Zm-10.785-7.5A13.215 13.215 0 0 1 21 19.499a11.482 11.482 0 0 0-10.567-10.5.75.75 0 0 1-.683-.75V4.806L2.558 12l7.192 7.19v-3.44a.75.75 0 0 1 .75-.75h.405-.03Z"></path>
</svg>