<svg width="32" height="32" fill="currentColor" viewBox="0 0 24 24" xmlns="http://www.w3.org/2000/svg">
<path d="M14.25 21.75a.75.75 0 0 1-.576-.27l-7.5-9a.75.75 0 0 1 0-.96l7.5-9A.75.75 0 0 1 15 3v5.274c5.255.347 8.25 4.395 8.25 11.226a.75.75 0 0 1-1.35.45c-2.117-2.822-4.044-4.01-6.9-4.179V21a.75.75 0 0 1-.75.75ZM7.726 12l5.774 6.928V15a.75.75 0 0 1 .75-.75 9.534 9.534 0 0 1 7.38 3.068c-.566-4.902-3.136-7.568-7.38-7.568A.75.75 0 0 1 13.5 9V5.07L7.726 12Z"></path>
<path d="M8.598 21.692.924 12.483a.75.75 0 0 1 0-.96l7.674-9.21 1.152.96-7.274 8.73 7.274 8.729-1.152.96Z"></path>
</svg>