<svg width="32" height="32" fill="currentColor" viewBox="0 0 24 24" xmlns="http://www.w3.org/2000/svg">
<path d="M4.5 1.5h-3v3h3v-3Z"></path>
<path d="M10.5 1.5h-3v3h3v-3Z"></path>
<path d="M16.5 1.5h-3v3h3v-3Z"></path>
<path d="M22.5 1.5h-3v3h3v-3Z"></path>
<path d="M4.5 7.5h-3v3h3v-3Z"></path>
<path d="M10.5 7.5h-3v3h3v-3Z"></path>
<path d="M16.5 7.5h-3v3h3v-3Z"></path>
<path d="M22.5 7.5h-3v3h3v-3Z"></path>
<path d="M4.5 13.5h-3v3h3v-3Z"></path>
<path d="M10.5 13.5h-3v3h3v-3Z"></path>
<path d="M16.5 13.5h-3v3h3v-3Z"></path>
<path d="M22.5 13.5h-3v3h3v-3Z"></path>
<path d="M4.5 19.5h-3v3h3v-3Z"></path>
<path d="M10.5 19.5h-3v3h3v-3Z"></path>
<path d="M16.5 19.5h-3v3h3v-3Z"></path>
<path d="M22.5 19.5h-3v3h3v-3Z"></path>
</svg>