<svg width="32" height="32" fill="currentColor" viewBox="0 0 24 24" xmlns="http://www.w3.org/2000/svg">
<path d="m16.402 5.883-1.305-.75L12 10.503a1.5 1.5 0 1 0 1.297.75l3.105-5.37Z"></path>
<path d="M12 1.5a10.5 10.5 0 1 0 0 21 10.5 10.5 0 0 0 0-21ZM12 3a9 9 0 0 1 8.378 5.738 19.269 19.269 0 0 0-2.768-1.125l-.75 1.327a17.024 17.024 0 0 1 4.058 1.793c.13.84.13 1.694 0 2.534A17.19 17.19 0 0 1 12 15.75a17.19 17.19 0 0 1-8.902-2.482 8.287 8.287 0 0 1 0-2.536A17.1 17.1 0 0 1 11.25 8.25v-1.5A18.75 18.75 0 0 0 3.623 8.7 9 9 0 0 1 12 3Zm0 18a9 9 0 0 1-8.377-5.738 18.66 18.66 0 0 0 16.755 0A9 9 0 0 1 12 21Z"></path>
</svg>