<svg width="32" height="32" fill="currentColor" viewBox="0 0 24 24" xmlns="http://www.w3.org/2000/svg">
<path d="M22.5 8.25v-6a.75.75 0 0 0-.75-.75h-7.5a.75.75 0 0 0-.75.75v6a4.503 4.503 0 0 0 3.75 4.432V21h-3v1.5h7.5V21h-3v-8.318A4.503 4.503 0 0 0 22.5 8.25Zm-7.5 0V3h6v5.25a3 3 0 0 1-6 0Z"></path>
<path d="M9 1.5v6.765a2.973 2.973 0 0 1-2.97 2.97A3.004 3.004 0 0 1 3 8.265V1.5H1.5v6.765a4.491 4.491 0 0 0 3.75 4.399V22.5h1.5v-9.829a4.474 4.474 0 0 0 3.75-4.406V1.5H9Z"></path>
<path d="M6.75 1.5h-1.5v7.485h1.5V1.5Z"></path>
</svg>