<svg width="32" height="32" fill="currentColor" viewBox="0 0 24 24" xmlns="http://www.w3.org/2000/svg">
<path d="M3 13.5a9 9 0 1 0 9-9H9V.75l-4.5 4.5L9 9.75V6h3a7.5 7.5 0 1 1-7.5 7.5H3Z"></path>
<path d="M14.722 16.6a2.13 2.13 0 0 1-.96-.202 1.83 1.83 0 0 1-.667-.577 2.678 2.678 0 0 1-.39-.938 5.767 5.767 0 0 1-.128-1.26 5.87 5.87 0 0 1 .128-1.26 2.73 2.73 0 0 1 .39-.937 1.83 1.83 0 0 1 .667-.578c.3-.14.629-.21.96-.202a1.83 1.83 0 0 1 1.62.75c.387.665.57 1.43.525 2.197a3.923 3.923 0 0 1-.525 2.198 1.829 1.829 0 0 1-1.62.81Zm0-.914a.803.803 0 0 0 .75-.413c.18-.35.275-.738.278-1.132v-1.035a2.483 2.483 0 0 0-.218-1.125.923.923 0 0 0-1.545 0 2.488 2.488 0 0 0-.217 1.125v1.035c-.016.39.059.777.217 1.132a.796.796 0 0 0 .735.413Z"></path>
<path d="M7.973 16.5v-.884h1.5v-3.893l-1.395.75-.413-.795 1.74-.975H10.5v4.875h1.335v.923H7.973Z"></path>
</svg>