<svg width="32" height="32" fill="currentColor" viewBox="0 0 24 24" xmlns="http://www.w3.org/2000/svg">
<path d="M3 13.5a9 9 0 1 0 9-9H9V.75l-4.5 4.5L9 9.75V6h3a7.5 7.5 0 1 1-7.5 7.5H3Z"></path>
<path d="M13.935 11.687h-2.588l-.097 1.928c.059-.116.124-.229.195-.338.068-.1.152-.188.247-.262.1-.075.211-.134.33-.173a1.49 1.49 0 0 1 .45-.06c.236-.003.47.038.69.12.209.079.398.202.555.36.163.165.29.362.375.578.092.239.137.493.135.75.004.274-.044.546-.142.802a1.77 1.77 0 0 1-1.08 1.043c-.29.107-.599.158-.908.15a2.843 2.843 0 0 1-.705-.083 2.25 2.25 0 0 1-.555-.24 1.84 1.84 0 0 1-.412-.337 3.093 3.093 0 0 1-.308-.413l.795-.607.203.307c.073.096.159.182.255.255a1.194 1.194 0 0 0 .735.225.968.968 0 0 0 .75-.27c.176-.209.265-.477.247-.75v-.045a.885.885 0 0 0-.96-.952 1.08 1.08 0 0 0-.577.135 1.455 1.455 0 0 0-.36.292l-.893-.127.218-3.233h3.39l.015.945Z"></path>
</svg>