<svg width="32" height="32" fill="currentColor" viewBox="0 0 24 24" xmlns="http://www.w3.org/2000/svg">
<path d="M14.25 9.75h-4.5v1.5h4.5v-1.5Z"></path>
<path d="m19.08 6-.953-3.413A1.507 1.507 0 0 0 16.683 1.5H7.316a1.507 1.507 0 0 0-1.443 1.088L4.9 6H3v1.5h1.5v5.25a1.502 1.502 0 0 0 1.5 1.5v2.25h1.5v-2.25h9v2.25H18v-2.25a1.502 1.502 0 0 0 1.5-1.5V7.5H21V6h-1.92ZM7.317 3h9.368l1.072 3.75H6.244L7.316 3ZM18 9.75h-1.5v1.5H18v1.5H6v-1.5h1.5v-1.5H6v-1.5h12v1.5Z"></path>
<path d="M3 12H1.5v10.5H3V12Z"></path>
<path d="M22.5 12H21v10.5h1.5V12Z"></path>
<path d="M12.75 15.75h-1.5V18h1.5v-2.25Z"></path>
<path d="M12.75 19.5h-1.5v3h1.5v-3Z"></path>
</svg>