<svg width="32" height="32" fill="currentColor" viewBox="0 0 24 24" xmlns="http://www.w3.org/2000/svg">
<path d="M9 22.5H3A1.502 1.502 0 0 1 1.5 21v-3A1.502 1.502 0 0 1 3 16.5h6a1.502 1.502 0 0 1 1.5 1.5v3A1.502 1.502 0 0 1 9 22.5ZM3 18v3h6v-3H3Z"></path>
<path d="M21 15H9a1.502 1.502 0 0 1-1.5-1.5v-3A1.502 1.502 0 0 1 9 9h12a1.502 1.502 0 0 1 1.5 1.5v3A1.502 1.502 0 0 1 21 15ZM9 10.5v3h12v-3H9Z"></path>
<path d="M12 7.5H3A1.502 1.502 0 0 1 1.5 6V3A1.502 1.502 0 0 1 3 1.5h9A1.502 1.502 0 0 1 13.5 3v3A1.502 1.502 0 0 1 12 7.5ZM3 3v3h9V3H3Z"></path>
</svg>