<svg width="32" height="32" fill="currentColor" viewBox="0 0 24 24" xmlns="http://www.w3.org/2000/svg">
<path d="M12 23.25h-1.5v-.171a2.26 2.26 0 0 0-1.46-2.107l-2.65-.992a2.928 2.928 0 0 1-1.89-2.73H6a1.421 1.421 0 0 0 .918 1.324l2.649.993A3.767 3.767 0 0 1 12 23.08v.171Z"></path>
<path d="M22.5 23.25H21v-.171a2.26 2.26 0 0 0-1.46-2.107l-2.649-.993A2.928 2.928 0 0 1 15 17.25h1.5a1.42 1.42 0 0 0 .918 1.324l2.649.993A3.767 3.767 0 0 1 22.5 23.08v.171Z"></path>
<path d="M12.75 9.75h-4.5v1.5h4.5v-1.5Z"></path>
<path d="m17.58 6-.953-3.413A1.507 1.507 0 0 0 15.184 1.5H5.816a1.507 1.507 0 0 0-1.443 1.088L3.4 6H1.5v1.5H3v5.25a1.502 1.502 0 0 0 1.5 1.5v1.5H6v-1.5h9v1.5h1.5v-1.5a1.502 1.502 0 0 0 1.5-1.5V7.5h1.5V6h-1.92ZM5.817 3h9.368l1.072 3.75H4.744L5.816 3ZM16.5 9.75H15v1.5h1.5v1.5h-12v-1.5H6v-1.5H4.5v-1.5h12v1.5Z"></path>
</svg>