<svg width="32" height="32" fill="currentColor" viewBox="0 0 24 24" xmlns="http://www.w3.org/2000/svg">
<path d="m11.464 11.47-5.998 6 1.06 1.06 5.998-5.998-1.06-1.06Z"></path>
<path d="M12.75 22.5a.747.747 0 0 1-.742-.645l-.75-5.25 1.5-.21.562 3.953 2.43-1.958v-5.64a.75.75 0 0 1 .218-.533l3.052-3.052A6.705 6.705 0 0 0 21 4.395V3h-1.395a6.705 6.705 0 0 0-4.77 1.98l-3.052 3.053a.75.75 0 0 1-.533.217H5.61l-1.957 2.445 3.952.563-.21 1.5-5.25-.75a.749.749 0 0 1-.638-.856.75.75 0 0 1 .158-.36l3-3.75a.75.75 0 0 1 .585-.292h5.693l2.827-2.835A8.19 8.19 0 0 1 19.605 1.5H21A1.5 1.5 0 0 1 22.5 3v1.395a8.192 8.192 0 0 1-2.415 5.835l-2.835 2.827v5.693a.752.752 0 0 1-.285.585l-3.75 3a.75.75 0 0 1-.465.165Z"></path>
</svg>