<svg width="32" height="32" fill="currentColor" viewBox="0 0 24 24" xmlns="http://www.w3.org/2000/svg">
<path d="m10.569 20.119-.26 1.476a9.672 9.672 0 0 1-3.18-1.156l.75-1.298a8.18 8.18 0 0 0 2.69.978Z"></path>
<path d="m5.682 17.302-1.149.964a9.736 9.736 0 0 1-1.687-2.933l1.408-.513c.327.905.81 1.745 1.428 2.482Z"></path>
<path d="M16.872 20.439a9.67 9.67 0 0 1-3.18 1.156l-.26-1.476a8.18 8.18 0 0 0 2.69-.978l.75 1.298Z"></path>
<path d="m19.745 14.82 1.408.513a9.736 9.736 0 0 1-1.687 2.933l-.234-.196-.915-.768a8.237 8.237 0 0 0 1.428-2.482Z"></path>
<path d="M10.246 3.942c-.12.026-.236.06-.353.091a8.22 8.22 0 0 0-.475.137 7.56 7.56 0 0 0-.365.134 8.35 8.35 0 0 0-.427.176 8.38 8.38 0 0 0-1.461.85c-.106.077-.211.153-.313.234a8.545 8.545 0 0 0-.352.305c-.092.083-.186.163-.274.25-.125.122-.242.253-.36.383A8.208 8.208 0 0 0 3.75 12h-1.5a9.702 9.702 0 0 1 2.287-6.262l-.003-.003c.069-.082.148-.155.22-.235.137-.153.275-.307.422-.452.104-.102.214-.196.322-.293.138-.123.275-.246.419-.362.12-.096.243-.185.367-.275.144-.105.29-.207.44-.304a10.127 10.127 0 0 1 1.796-.91c.142-.055.283-.11.428-.157.185-.062.374-.113.563-.163.139-.037.276-.077.417-.107.217-.048.44-.08.662-.113.12-.017.236-.042.357-.055A9.7 9.7 0 0 1 19.5 5.778V3H21v6h-6V7.5h3.891a8.22 8.22 0 0 0-7.783-3.7c-.102.011-.2.032-.302.047a8.26 8.26 0 0 0-.56.095Z"></path>
</svg>