<svg width="32" height="32" fill="currentColor" viewBox="0 0 24 24" xmlns="http://www.w3.org/2000/svg">
<path d="m19.462 5.738.004-.003c-.069-.082-.148-.155-.22-.235a9.985 9.985 0 0 0-.422-.452c-.104-.102-.214-.196-.323-.293-.137-.123-.274-.246-.418-.362-.12-.096-.243-.185-.367-.275a9.62 9.62 0 0 0-.44-.304 10.064 10.064 0 0 0-1.796-.91c-.142-.055-.283-.11-.428-.157a9.658 9.658 0 0 0-.563-.163c-.139-.037-.276-.077-.417-.107a9.627 9.627 0 0 0-.662-.113c-.12-.017-.236-.042-.357-.055A9.7 9.7 0 0 0 4.5 5.778V3H3v6h6V7.5H5.109A8.22 8.22 0 0 1 12 3.75c.298.001.596.018.892.05.102.011.2.032.302.047.188.027.376.055.56.095.12.026.236.06.353.091.16.042.32.086.475.137.124.041.244.087.365.134a8.5 8.5 0 0 1 .428.176 8.365 8.365 0 0 1 1.46.85c.106.077.212.153.313.234.121.098.237.201.353.305.092.083.186.163.274.25.125.122.241.253.359.383A8.244 8.244 0 1 1 3.75 12h-1.5a9.75 9.75 0 1 0 17.212-6.262Z"></path>
</svg>