<svg width="32" height="32" fill="currentColor" viewBox="0 0 24 24" xmlns="http://www.w3.org/2000/svg">
<path d="m13.433 20.117.262 1.5a9.676 9.676 0 0 0 3.18-1.155l-.75-1.298a8.161 8.161 0 0 1-2.692.953Z"></path>
<path d="m18.315 17.303 1.185.96a9.747 9.747 0 0 0 1.68-2.933l-1.402-.51a8.248 8.248 0 0 1-1.463 2.483Z"></path>
<path d="M7.125 20.437c.984.569 2.06.96 3.18 1.155l.263-1.5a8.16 8.16 0 0 1-2.693-.975l-.75 1.32Z"></path>
<path d="m4.252 14.82-1.402.51a9.75 9.75 0 0 0 1.65 2.933l.24-.195.915-.75a8.25 8.25 0 0 1-1.433-2.483l.03-.015Z"></path>
<path d="M21.75 12.002a9.639 9.639 0 0 0-.6-3.33l-1.403.51c.328.904.498 1.858.503 2.82h1.5Z"></path>
<path d="M19.5 5.739a9.75 9.75 0 0 0-15 0V3H3v6h6V7.5H5.107a8.25 8.25 0 0 1 13.209-.8l1.185-.96Z"></path>
</svg>