<svg width="32" height="32" fill="currentColor" viewBox="0 0 24 24" xmlns="http://www.w3.org/2000/svg">
<path d="M15.75 18.75 12 22.5l-3.75-3.75 1.057-1.064 1.943 1.929V14.25h1.5v5.404l1.943-1.968 1.057 1.064Z"></path>
<path d="M18 8.25 14.25 12 18 15.75l1.064-1.057-1.929-1.943H22.5v-1.5h-5.404l1.968-1.943L18 8.25Z"></path>
<path d="M6 8.25 9.75 12 6 15.75l-1.064-1.057 1.929-1.943H1.5v-1.5h5.404L4.936 9.307 6 8.25Z"></path>
<path d="M9.322 4.367V5.59a.845.845 0 0 1-.508.769l-1.042.448a.841.841 0 0 1-.917-.175L5.491 5.267A.837.837 0 0 1 5.5 4.083l.026-.024c5.545-4.896 11.019-1.528 12.91-.036a.837.837 0 0 1 .065 1.25L17.183 6.59a.833.833 0 0 1-.917.175l-1.042-.448a.834.834 0 0 1-.51-.767V4.33s-2.735-2.03-5.392.038Z"></path>
</svg>