<svg width="32" height="32" fill="currentColor" viewBox="0 0 24 24" xmlns="http://www.w3.org/2000/svg">
<path d="M15.75 5.25 12 1.5 8.25 5.25l1.057 1.064 1.943-1.929V9.75h1.5V4.346l1.943 1.968L15.75 5.25Z"></path>
<path d="M15.75 18.75 12 22.5l-3.75-3.75 1.057-1.064 1.943 1.929V14.25h1.5v5.404l1.943-1.968 1.057 1.064Z"></path>
<path d="M18 8.25 14.25 12 18 15.75l1.064-1.057-1.929-1.943H22.5v-1.5h-5.404l1.968-1.943L18 8.25Z"></path>
<path d="M6 8.25 9.75 12 6 15.75l-1.064-1.057 1.929-1.943H1.5v-1.5h5.404L4.936 9.307 6 8.25Z"></path>
</svg>