<svg width="32" height="32" fill="currentColor" viewBox="0 0 24 24" xmlns="http://www.w3.org/2000/svg">
<path d="M12 11.25A1.125 1.125 0 1 0 12 9a1.125 1.125 0 0 0 0 2.25Z"></path>
<path d="M14.651 7.849a3.749 3.749 0 0 0-5.303 0l-1.06-1.06a5.25 5.25 0 0 1 7.424 0l-1.06 1.06Z"></path>
<path d="M17.303 5.197a7.5 7.5 0 0 0-10.607 0l-1.06-1.061a9 9 0 0 1 12.728 0l-1.06 1.06Z"></path>
<path d="M15.75 18.75 12 22.5l-3.75-3.75 1.057-1.064 1.943 1.929V14.25h1.5v5.404l1.943-1.968 1.057 1.064Z"></path>
<path d="M18 8.25 14.25 12 18 15.75l1.064-1.057-1.929-1.943H22.5v-1.5h-5.404l1.968-1.943L18 8.25Z"></path>
<path d="M6 8.25 9.75 12 6 15.75l-1.064-1.057 1.929-1.943H1.5v-1.5h5.404L4.936 9.307 6 8.25Z"></path>
</svg>