<svg width="32" height="32" fill="currentColor" viewBox="0 0 24 24" xmlns="http://www.w3.org/2000/svg">
<path d="M21 9H7.5A1.502 1.502 0 0 1 6 7.5V3a1.502 1.502 0 0 1 1.5-1.5H21A1.502 1.502 0 0 1 22.5 3v4.5A1.502 1.502 0 0 1 21 9ZM7.5 3v4.5H21V3H7.5Z"></path>
<path d="M21 22.5H7.5A1.502 1.502 0 0 1 6 21v-4.5A1.502 1.502 0 0 1 7.5 15H21a1.502 1.502 0 0 1 1.5 1.5V21a1.502 1.502 0 0 1-1.5 1.5Zm-13.5-6V21H21v-4.5H7.5Z"></path>
<path d="m6.75 12.002-4.19-4.19L1.5 8.873l3.129 3.129L1.5 15.131l1.06 1.06 4.19-4.189Z"></path>
</svg>