<svg width="32" height="32" fill="currentColor" viewBox="0 0 24 24" xmlns="http://www.w3.org/2000/svg">
<path d="M18 22.5H3A1.502 1.502 0 0 1 1.5 21v-4.5A1.502 1.502 0 0 1 3 15h15a1.502 1.502 0 0 1 1.5 1.5V21a1.502 1.502 0 0 1-1.5 1.5Zm-15-6h-.001L3 21h15v-4.5H3Z"></path>
<path d="M22.5 2.558 21.442 1.5 18.75 4.192 16.058 1.5 15 2.558l2.692 2.692L15 7.942 16.058 9l2.692-2.692L21.442 9 22.5 7.942 19.808 5.25 22.5 2.558Z"></path>
<path d="M3 10.5V6h10.5V4.5H3A1.502 1.502 0 0 0 1.5 6v4.5A1.502 1.502 0 0 0 3 12h16.5v-1.5H3Z"></path>
</svg>