<svg width="32" height="32" fill="currentColor" viewBox="0 0 24 24" xmlns="http://www.w3.org/2000/svg">
<path d="m22.28 14.47-2.25-2.25a.75.75 0 0 0-1.06 0L12 19.19v3.31h3.31l6.97-6.97a.75.75 0 0 0 0-1.06ZM14.69 21H13.5v-1.19l3.75-3.75 1.19 1.19L14.69 21Zm4.81-4.81L18.31 15l1.19-1.19L20.69 15l-1.19 1.19Z"></path>
<path d="M13.5 12H6v1.5h7.5V12Z"></path>
<path d="M15 7.5H6V9h9V7.5Z"></path>
<path d="M19.5 3A1.502 1.502 0 0 0 18 1.5H3A1.502 1.502 0 0 0 1.5 3v9.75a8.236 8.236 0 0 0 4.368 7.28L9.75 22.1v-1.7l-3.176-1.693A6.74 6.74 0 0 1 3 12.75V3h15v6.75h1.5V3Z"></path>
</svg>