<svg width="32" height="32" fill="currentColor" viewBox="0 0 24 24" xmlns="http://www.w3.org/2000/svg">
<path d="M22.057 16.25 7.755 1.932a1.5 1.5 0 0 0-2.123 0L1.942 5.63a1.5 1.5 0 0 0 0 2.115l14.302 14.317a1.502 1.502 0 0 0 1.066.435 1.5 1.5 0 0 0 1.057-.435l3.69-3.697a1.5 1.5 0 0 0 0-2.115Zm-4.747 4.747L3 6.687l3.69-3.69L9.532 5.84 7.845 7.497l1.057 1.058 1.688-1.658 3.097 3.098-1.688 1.687 1.066 1.065 1.687-1.687 3.097 3.097-1.687 1.688 1.088 1.057 1.687-1.687L21 17.307l-3.69 3.69Z"></path>
</svg>