<svg width="32" height="32" fill="currentColor" viewBox="0 0 24 24" xmlns="http://www.w3.org/2000/svg">
<path d="M22.5 18a4.5 4.5 0 1 0-9 0 4.5 4.5 0 0 0 9 0ZM21 18a2.965 2.965 0 0 1-.425 1.514l-4.09-4.089A2.975 2.975 0 0 1 18 15a3.003 3.003 0 0 1 3 3Zm-6 0c.003-.534.15-1.057.425-1.514l4.09 4.089A2.975 2.975 0 0 1 18 21a3.003 3.003 0 0 1-3-3Z"></path>
<path d="M13.5 12H6v1.5h7.5V12Z"></path>
<path d="M15 7.5H6V9h9V7.5Z"></path>
<path d="m10.5 20.8-3.926-2.093A6.74 6.74 0 0 1 3 12.75V3h15v8.25h1.5V3A1.502 1.502 0 0 0 18 1.5H3A1.502 1.502 0 0 0 1.5 3v9.75a8.236 8.236 0 0 0 4.368 7.28L10.5 22.5v-1.7Z"></path>
</svg>