<svg width="32" height="32" fill="currentColor" viewBox="0 0 24 24" xmlns="http://www.w3.org/2000/svg">
<path d="M5.227 18.75h1.546L6.21 16.5h11.58l-.563 2.25h1.546l.704-2.818A.75.75 0 0 0 18.75 15H15v-2.25h3.75a.75.75 0 0 0 .681-1.064l-4.5-9.75a.752.752 0 0 0-1.277-.143l-7.499 9.75a.75.75 0 0 0 .595 1.207h6.75V15H5.25a.75.75 0 0 0-.728.932l.705 2.818ZM15 5.665l2.578 5.585H15V5.665ZM8.273 11.25 13.5 4.455v6.795H8.273Z"></path>
<path d="M20.18 19.313A2.249 2.249 0 0 1 18 21a2.579 2.579 0 0 1-2.289-1.737.755.755 0 0 0-1.149-.374.742.742 0 0 0-.272.37A2.58 2.58 0 0 1 12 21a2.579 2.579 0 0 1-2.289-1.737A.755.755 0 0 0 9 18.75a.728.728 0 0 0-.71.51A2.58 2.58 0 0 1 6 21a2.249 2.249 0 0 1-2.18-1.687l-1.452.374A3.747 3.747 0 0 0 6 22.5a3.7 3.7 0 0 0 3-1.49 3.764 3.764 0 0 0 6 0 3.698 3.698 0 0 0 3 1.49 3.748 3.748 0 0 0 3.632-2.813l-1.453-.374Z"></path>
</svg>