<svg width="32" height="32" fill="currentColor" viewBox="0 0 24 24" xmlns="http://www.w3.org/2000/svg">
<path d="M22.5 1.5h-21V12h4.583c.815.001 1.619.19 2.348.555l3.392 1.695-3.392 1.695a5.277 5.277 0 0 1-2.348.555H1.5v6h5.417a6.784 6.784 0 0 0 3.019-.712l6.466-3.233A5.277 5.277 0 0 1 18.75 18h3.75v-7.5h-3.75a5.277 5.277 0 0 1-2.348-.554L11.512 7.5H22.5v-6ZM6 3h12v3H6V3ZM3 3h1.5v7.5H3V3Zm0 15h1.5v3H3v-3Zm12.731-.788-6.466 3.233A5.277 5.277 0 0 1 6.917 21H6v-3h.083a6.784 6.784 0 0 0 3.02-.712l4.397-2.2 1.398.7c.938.467 1.97.71 3.018.712H18v.044a6.79 6.79 0 0 0-2.269.668ZM21 16.5h-1.5V12H21v4.5ZM9.265 8.054l6.466 3.233c.712.354 1.48.58 2.269.669V15h-.084a5.277 5.277 0 0 1-2.347-.555l-6.467-3.232a6.784 6.784 0 0 0-3.019-.713H6v-3h.917a5.27 5.27 0 0 1 2.348.554ZM21 6h-1.5V3H21v3Z"></path>
</svg>