<svg width="32" height="32" fill="currentColor" viewBox="0 0 24 24" xmlns="http://www.w3.org/2000/svg">
<path d="M21 1.5v4.533c-1.473.148-4.737.924-7.923 4.707-.148-.207-.298-.41-.44-.638C8.98 4.254 4.738 3.207 3 3.032V1.5H1.5v21H3v-2.965a11.15 11.15 0 0 0 7.439-2.97c3.413 4.03 8.488 4.464 10.512 4.464l.049-.001V22.5h1.5v-21H21Zm0 6.041v7.493a9.663 9.663 0 0 1-6.957-3.1C16.877 8.45 19.72 7.695 21 7.541Zm-9.636 3.357c.243.388.497.742.756 1.08a21.93 21.93 0 0 0-.756 1.127c-.238.378-.496.741-.774 1.09-.061-.103-.125-.202-.184-.31C6.995 7.75 4.34 6.334 3 6.052V4.538c1.495.18 5.117 1.165 8.364 6.36ZM3 18.037V7.605c.994.349 3.153 1.714 6.095 7.009.142.256.296.49.45.725A9.66 9.66 0 0 1 3 18.037Zm8.488-2.566c.42-.495.804-1.02 1.148-1.57.166-.266.334-.503.501-.747A11.152 11.152 0 0 0 21 16.532v2.99c-1.747-.008-6.47-.39-9.512-4.051Z"></path>
</svg>