<svg width="32" height="32" fill="currentColor" viewBox="0 0 24 24" xmlns="http://www.w3.org/2000/svg">
<path d="M19.875 9H14.25a3 3 0 0 1 0-6h.063a3.59 3.59 0 0 1 2.937-1.5 3.736 3.736 0 0 1 3.49 2.403 2.6 2.6 0 0 1 1.76 2.472A2.628 2.628 0 0 1 19.875 9ZM14.25 4.5a1.5 1.5 0 0 0 0 3h5.625a1.126 1.126 0 0 0 .853-1.857 1.114 1.114 0 0 0-.686-.373l-.496-.075-.122-.486a2.217 2.217 0 0 0-4.115-.534l-.223.325h-.836Z"></path>
<path d="M9.75 21v-2.334a5.953 5.953 0 0 0 3.53-1.711.75.75 0 0 0 0-1.06l-3.182-3.182L12 10.81l-1.06-1.06-1.902 1.902L5.855 8.47a.75.75 0 0 0-1.06 0 6 6 0 0 0 0 8.485c.12.122.249.234.379.344L3.325 21H1.5v1.5h21V21H9.75Zm-1.5 0H5.001l1.441-2.882a5.95 5.95 0 0 0 1.808.537V21Zm-2.394-5.106a4.503 4.503 0 0 1-.487-5.79l6.277 6.276a4.502 4.502 0 0 1-5.79-.486Z"></path>
</svg>