<svg width="32" height="32" fill="currentColor" viewBox="0 0 24 24" xmlns="http://www.w3.org/2000/svg">
<path d="m17.186 12.375 2.094-2.095a.749.749 0 0 0 0-1.06L17.56 7.5l1.565-1.564 2.314 2.314L22.5 7.19 16.81 1.5l-1.06 1.06 2.314 2.315L16.5 6.439l-1.72-1.72a.75.75 0 0 0-1.06 0l-2.095 2.095L6.53 1.72a.75.75 0 0 0-1.06 0L1.72 5.47a.75.75 0 0 0 0 1.06l5.094 5.095L4.72 13.72a.749.749 0 0 0 0 1.06l1.72 1.72-1.565 1.564-2.314-2.314L1.5 16.81l5.69 5.69 1.06-1.06-2.314-2.315L7.5 17.561l1.72 1.72a.75.75 0 0 0 1.06 0l2.095-2.095 5.095 5.094a.75.75 0 0 0 1.06 0l3.75-3.75a.749.749 0 0 0 0-1.06l-5.094-5.095ZM3.31 6 6 3.31l1.564 1.565-2.689 2.69L3.311 6Zm2.625 2.625 2.689-2.69 1.94 1.94-2.69 2.69-1.94-1.94Zm3.814 9.064L6.31 14.25l7.94-7.94 3.44 3.44-7.94 7.94Zm3.686-1.564 2.689-2.69 1.94 1.94-2.69 2.69-1.94-1.94ZM18 20.689l-1.564-1.564 2.689-2.69L20.689 18 18 20.69Z"></path>
</svg>