<svg width="32" height="32" fill="currentColor" viewBox="0 0 24 24" xmlns="http://www.w3.org/2000/svg">
<path d="M22.5 10.5H21A7.508 7.508 0 0 0 13.5 3V1.5a9.01 9.01 0 0 1 9 9Z"></path>
<path d="M19.5 10.5H18A4.505 4.505 0 0 0 13.5 6V4.5a6.007 6.007 0 0 1 6 6Z"></path>
<path d="M12 20.998v-2.28a7.435 7.435 0 0 0 5.488-1.656 1.385 1.385 0 0 0 .509-1 1.35 1.35 0 0 0-.393-1.02l-3.793-3.794 1.939-1.94-1.06-1.06-1.94 1.94-3.794-3.794a1.36 1.36 0 0 0-2.02.116 7.467 7.467 0 0 0-.385 8.963L4.71 20.998H1.5v1.5h21v-1.5H12ZM8.01 7.568l8.42 8.42a6 6 0 0 1-8.42-8.42Zm2.49 13.43H6.29l1.407-4.22a7.493 7.493 0 0 0 2.803 1.628v2.592Z"></path>
</svg>