<svg width="32" height="32" fill="currentColor" viewBox="0 0 24 24" xmlns="http://www.w3.org/2000/svg">
<path d="m16.17 11.325-2.61-3.262a1.5 1.5 0 0 0-1.17-.563H3A1.5 1.5 0 0 0 1.5 9v12A1.5 1.5 0 0 0 3 22.5h12a1.5 1.5 0 0 0 1.5-1.5v-8.738a1.5 1.5 0 0 0-.33-.937ZM6.75 9h4.5v2.25h-4.5V9Zm4.5 12h-4.5v-4.5h4.5V21Zm1.5 0v-4.5a1.5 1.5 0 0 0-1.5-1.5h-4.5a1.5 1.5 0 0 0-1.5 1.5V21H3V9h2.25v2.25a1.5 1.5 0 0 0 1.5 1.5h4.5a1.5 1.5 0 0 0 1.5-1.5v-1.8L15 12.263V21h-2.25Z"></path>
<path d="M20.25 15.75h-1.5V5.25H8.25v-1.5h10.5a1.5 1.5 0 0 1 1.5 1.5v10.5Z"></path>
<path d="M24 10.5h-1.5v-9h-9V0h9A1.5 1.5 0 0 1 24 1.5v9Z"></path>
</svg>