<svg width="32" height="32" fill="currentColor" viewBox="0 0 24 24" xmlns="http://www.w3.org/2000/svg">
<path d="M15 12a3.75 3.75 0 0 0 7.5 0 .751.751 0 0 0-.08-.335l-2.998-5.998a.749.749 0 0 0-.672-.417h-4.634a2.263 2.263 0 0 0-1.366-1.362V1.5h-1.5v2.388A2.261 2.261 0 0 0 9.884 5.25H5.25a.75.75 0 0 0-.67.415l-3 6A.75.75 0 0 0 1.5 12 3.75 3.75 0 0 0 9 12a.75.75 0 0 0-.08-.335L6.465 6.75h3.42a2.261 2.261 0 0 0 1.366 1.362V21H4.5v1.5h15V21h-6.75V8.112a2.261 2.261 0 0 0 1.366-1.362h3.42l-2.457 4.915A.751.751 0 0 0 15 12Zm-9.75 2.25a2.247 2.247 0 0 1-2.111-1.5H7.36a2.247 2.247 0 0 1-2.111 1.5Zm1.787-3H3.463L5.25 7.677l1.787 3.573ZM12 6.75a.75.75 0 1 1 0-1.5.75.75 0 0 1 0 1.5Zm6.75 7.5a2.247 2.247 0 0 1-2.111-1.5h4.222a2.247 2.247 0 0 1-2.111 1.5Zm0-6.573 1.787 3.573h-3.574l1.787-3.573Z"></path>
</svg>