<svg width="32" height="32" fill="currentColor" viewBox="0 0 24 24" xmlns="http://www.w3.org/2000/svg">
<path d="M15 9.75a3.75 3.75 0 0 0 7.5 0 .751.751 0 0 0-.08-.335l-3-6a.75.75 0 0 0-.907-.377l-4.748 1.583a2.274 2.274 0 0 0-1.015-.733V1.5h-1.5v2.388a2.246 2.246 0 0 0-1.497 2.07l-4.74 1.58a.75.75 0 0 0-.434.376l-3 6a.75.75 0 0 0-.079.336 3.75 3.75 0 0 0 7.5 0 .75.75 0 0 0-.08-.335L6.309 8.688l3.927-1.31a2.27 2.27 0 0 0 1.015.734V21H4.5v1.5h15V21h-6.75V8.112a2.246 2.246 0 0 0 1.497-2.07l3.022-1.008-2.19 4.38A.75.75 0 0 0 15 9.75ZM5.25 16.5A2.247 2.247 0 0 1 3.139 15H7.36a2.247 2.247 0 0 1-2.111 1.5Zm1.787-3H3.463L5.25 9.927 7.037 13.5ZM12 6.75a.75.75 0 1 1 0-1.5.75.75 0 0 1 0 1.5ZM18.75 12a2.247 2.247 0 0 1-2.111-1.5h4.222A2.247 2.247 0 0 1 18.75 12Zm0-6.573L20.537 9h-3.574l1.787-3.573Z"></path>
</svg>