<svg width="32" height="32" fill="currentColor" viewBox="0 0 24 24" xmlns="http://www.w3.org/2000/svg">
<path d="M21.621 5.382a3.07 3.07 0 0 0-4.242 0L.258 22.502h6.934a3.727 3.727 0 0 0 2.652-1.098L21.62 9.624a2.998 2.998 0 0 0 0-4.242ZM9.22 15.662l1.564-1.565 2.122 2.122-1.564 1.565-2.122-2.122Zm-.437 4.681a2.238 2.238 0 0 1-1.591.66H3.879l4.28-4.28 2.123 2.122-1.5 1.498ZM20.56 8.563l-6.594 6.596-2.122-2.122 6.594-6.595a1.535 1.535 0 0 1 2.122 0 1.5 1.5 0 0 1 0 2.121Z"></path>
<path d="M11.25 1.5A2.246 2.246 0 0 0 9.138 3H5.862A2.244 2.244 0 1 0 3 5.862v3.276a2.25 2.25 0 1 0 1.5 0V5.862A2.247 2.247 0 0 0 5.862 4.5h3.276a2.246 2.246 0 1 0 2.112-3ZM3.75 12a.75.75 0 1 1 0-1.5.75.75 0 0 1 0 1.5Zm0-7.5a.75.75 0 1 1 0-1.5.75.75 0 0 1 0 1.5Zm7.5 0a.75.75 0 1 1 0-1.5.75.75 0 0 1 0 1.5Z"></path>
</svg>