<svg width="32" height="32" fill="currentColor" viewBox="0 0 24 24" xmlns="http://www.w3.org/2000/svg">
<path d="M21.621 5.35a3.07 3.07 0 0 0-4.242 0L.258 22.471h6.934a3.725 3.725 0 0 0 2.652-1.098L21.62 9.593a2.998 2.998 0 0 0 0-4.243ZM9.22 15.63l1.564-1.564 2.122 2.122-1.564 1.565L9.22 15.63Zm-.437 4.682a2.236 2.236 0 0 1-1.591.66H3.879l4.28-4.281 2.123 2.123-1.5 1.498ZM20.56 8.532l-6.594 6.595-2.122-2.121L18.44 6.41a1.535 1.535 0 0 1 2.12 0 1.5 1.5 0 0 1 0 2.121Z"></path>
<path d="M8.25 1.5h-3a3.738 3.738 0 0 0-2.897 6.115c-.065.205-.1.42-.103.635a2.246 2.246 0 0 0 1.5 2.112v.138a1.502 1.502 0 0 1-1.5 1.5H1.5v1.5h.75a3.003 3.003 0 0 0 3-3v-.138A2.246 2.246 0 0 0 6.612 9H8.25a3.75 3.75 0 0 0 0-7.5ZM4.5 9a.75.75 0 1 1 0-1.5.75.75 0 0 1 0 1.5Zm3.75-1.5H6.612a2.23 2.23 0 0 0-3.316-1.144A2.243 2.243 0 0 1 5.25 3h3a2.25 2.25 0 1 1 0 4.5Z"></path>
</svg>