<svg width="32" height="32" fill="currentColor" viewBox="0 0 24 24" xmlns="http://www.w3.org/2000/svg">
<path d="M22.037 1.557a.75.75 0 0 0-.817.163l-19.5 19.5a.75.75 0 0 0 .53 1.28h6V21H4.06l3-3h9.44a1.502 1.502 0 0 0 1.5-1.5V7.061l3-3v4.19h1.5v-6a.75.75 0 0 0-.463-.694ZM16.5 16.5H8.56l7.94-7.939v7.94Z"></path>
<path d="M7.5 13.316V7.5h5.816l1.5-1.5H7.5A1.502 1.502 0 0 0 6 7.5v7.316l1.5-1.5Z"></path>
<path d="M8.25 1.5H1.5v6.75H3V3h5.25V1.5Z"></path>
<path d="M15.75 22.5h6.75v-6.75H21V21h-5.25v1.5Z"></path>
<path d="M3 17.816V15.75H1.5v3.566l1.5-1.5Z"></path>
<path d="M19.316 1.5H15.75V3h2.066l1.5-1.5Z"></path>
</svg>