<svg width="32" height="32" fill="currentColor" viewBox="0 0 24 24" xmlns="http://www.w3.org/2000/svg">
<path d="M7.125 9a1.875 1.875 0 1 0 0-3.75 1.875 1.875 0 0 0 0 3.75Z"></path>
<path d="M7.125 18.75a1.875 1.875 0 1 0 0-3.75 1.875 1.875 0 0 0 0 3.75Z"></path>
<path d="M16.875 18.75a1.875 1.875 0 1 0 0-3.75 1.875 1.875 0 0 0 0 3.75Z"></path>
<path d="M21 1.5H3A1.502 1.502 0 0 0 1.5 3v18A1.502 1.502 0 0 0 3 22.5h18a1.502 1.502 0 0 0 1.5-1.5V3A1.502 1.502 0 0 0 21 1.5Zm0 9.75h-8.25V3H21v8.25ZM11.25 3v8.25H3V3h8.25ZM3 12.75h8.25V21H3v-8.25ZM12.75 21v-8.25H21V21h-8.25Z"></path>
</svg>