<svg width="32" height="32" fill="currentColor" viewBox="0 0 24 24" xmlns="http://www.w3.org/2000/svg">
<path d="M20.25 14.25a3.004 3.004 0 0 0-3-3H6.75a1.503 1.503 0 0 1-1.5-1.5V7.393A2.996 2.996 0 0 0 7.393 5.25h9.213a3 3 0 1 0 0-1.5H7.394A2.994 2.994 0 1 0 3.75 7.394v2.355a3.005 3.005 0 0 0 3.001 3.001H17.25a1.502 1.502 0 0 1 1.5 1.5v2.25H16.5v2.25H7.394a3 3 0 1 0 0 1.5H16.5v2.25h6v-6h-2.25v-2.25ZM19.5 3a1.5 1.5 0 1 1 0 3 1.5 1.5 0 0 1 0-3ZM3 4.5a1.5 1.5 0 1 1 3 0 1.5 1.5 0 0 1-3 0ZM4.5 21a1.5 1.5 0 1 1 0-3 1.5 1.5 0 0 1 0 3ZM21 18v3h-3v-3h3Z"></path>
</svg>