<svg width="32" height="32" fill="currentColor" viewBox="0 0 24 24" xmlns="http://www.w3.org/2000/svg">
<path d="M19.5 21a3 3 0 1 1 0-5.999 3 3 0 0 1 0 5.999Zm0-4.5a1.5 1.5 0 1 0 0 3 1.5 1.5 0 0 0 0-3Z"></path>
<path d="M18 6h-4.5v1.5H18A.75.75 0 1 1 18 9h-2.25a.75.75 0 0 0-.735.897l.693 3.466-1.883 3.137h-2.017l-1.93-6.431A1.491 1.491 0 0 0 8.443 9H4.5v1.5h3.942l.45 1.5H5.25a3.754 3.754 0 0 0-3.75 3.75v1.5a.75.75 0 0 0 .75.75H3a3 3 0 0 0 6 0h5.25a.75.75 0 0 0 .643-.364l2.25-3.75a.75.75 0 0 0 .092-.533l-.57-2.853H18A2.25 2.25 0 0 0 18 6ZM6 19.5A1.502 1.502 0 0 1 4.5 18h3A1.502 1.502 0 0 1 6 19.5Zm-3-3v-.75a2.253 2.253 0 0 1 2.25-2.25h4.092l.9 3H3Z"></path>
</svg>