<svg width="32" height="32" fill="currentColor" viewBox="0 0 24 24" xmlns="http://www.w3.org/2000/svg">
<path d="m14.123 19.5 1.935-1.935L15 16.5l-3 3 3 3 1.065-1.058-1.943-1.942Z"></path>
<path d="m20.377 19.5-1.935 1.935L19.5 22.5l3-3-3-3-1.065 1.058 1.942 1.942Z"></path>
<path d="M10.5 21H6V3h6v4.5A1.504 1.504 0 0 0 13.5 9H18v4.5h1.5v-6a.68.68 0 0 0-.225-.525l-5.25-5.25A.682.682 0 0 0 13.5 1.5H6A1.504 1.504 0 0 0 4.5 3v18A1.504 1.504 0 0 0 6 22.5h4.5V21Zm3-17.7 4.2 4.2h-4.2V3.3Z"></path>
</svg>