<svg width="32" height="32" fill="currentColor" viewBox="0 0 24 24" xmlns="http://www.w3.org/2000/svg">
<path d="M22.5 6.75h-1.575L18 11.7V6.75h-1.5v10.5H18v-3.225l.675-1.125 2.25 4.35H22.5l-2.925-5.7 2.925-4.8Z"></path>
<path d="M12 17.25H9V6.75h3a3.009 3.009 0 0 1 3 3v4.5a3.009 3.009 0 0 1-3 3Zm-1.5-1.5H12a1.505 1.505 0 0 0 1.5-1.5v-4.5a1.505 1.505 0 0 0-1.5-1.5h-1.5v7.5Z"></path>
<path d="M6 17.25H1.5v-1.5H6v-3H3a1.505 1.505 0 0 1-1.5-1.5v-3A1.504 1.504 0 0 1 3 6.75h4.5v1.5H3v3h3a1.505 1.505 0 0 1 1.5 1.5v3a1.505 1.505 0 0 1-1.5 1.5Z"></path>
</svg>