<svg width="32" height="32" fill="currentColor" viewBox="0 0 24 24" xmlns="http://www.w3.org/2000/svg">
<path d="M22.5 18v-1.5h-1.576a3.725 3.725 0 0 0-.549-1.315l1.118-1.117-1.06-1.06-1.118 1.117a3.727 3.727 0 0 0-1.315-.55V12h-1.5v1.576c-.47.096-.916.283-1.315.549l-1.117-1.118-1.06 1.06 1.117 1.118a3.727 3.727 0 0 0-.55 1.315H12V18h1.576c.096.47.283.916.549 1.315l-1.118 1.117 1.06 1.06 1.118-1.117c.4.266.845.453 1.315.55V22.5H18v-1.576c.47-.096.916-.283 1.315-.549l1.117 1.118 1.06-1.06-1.117-1.118c.266-.4.453-.846.55-1.315H22.5Zm-5.25 1.5a2.25 2.25 0 1 1 0-4.5 2.25 2.25 0 0 1 0 4.5Z"></path>
<path d="m10.5 20-2.426-1.293A6.74 6.74 0 0 1 4.5 12.75V3h15v7.5H21V3a1.502 1.502 0 0 0-1.5-1.5h-15A1.502 1.502 0 0 0 3 3v9.75a8.236 8.236 0 0 0 4.368 7.28L10.5 21.7V20Z"></path>
</svg>