<svg width="32" height="32" fill="currentColor" viewBox="0 0 24 24" xmlns="http://www.w3.org/2000/svg">
<path d="M6 19.5H3A1.502 1.502 0 0 1 1.5 18v-3H3v3h3v1.5Z"></path>
<path d="M3 9H1.5v3H3V9Z"></path>
<path d="M19.5 6H18V3h-3V1.5h3A1.502 1.502 0 0 1 19.5 3v3Z"></path>
<path d="M12 1.5H9V3h3V1.5Z"></path>
<path d="M3 6H1.5V3A1.502 1.502 0 0 1 3 1.5h3V3H3v3Z"></path>
<path d="M20.25 24a.747.747 0 0 1-.53-.22l-4.603-4.603-2.493 3.74a.75.75 0 0 1-1.342-.202l-4.5-15a.75.75 0 0 1 .933-.933l15 4.5a.75.75 0 0 1 .201 1.342l-3.739 2.493 4.603 4.603a.75.75 0 0 1 0 1.06l-3 3a.75.75 0 0 1-.53.22Zm0-1.81 1.94-1.94-5.367-5.366 3.935-2.623-12.14-3.642 3.643 12.139 2.623-3.935 5.366 5.366Z"></path>
</svg>