<svg width="32" height="32" fill="currentColor" viewBox="0 0 24 24" xmlns="http://www.w3.org/2000/svg">
<path d="M9 4.5H6v-3H4.5v3h-3V6h3v3H6V6h3V4.5Z"></path>
<path d="M15 4.5h-3V6h3V4.5Z"></path>
<path d="M18 4.5V6h3v3h1.5V6A1.5 1.5 0 0 0 21 4.5h-3Z"></path>
<path d="M6 12H4.5v3H6v-3Z"></path>
<path d="M6 21v-3H4.5v3A1.5 1.5 0 0 0 6 22.5h3V21H6Z"></path>
<path d="M22.5 12H21v3h1.5v-3Z"></path>
<path d="M15 21h-3v1.5h3V21Z"></path>
<path d="M21 18v3h-3v1.5h3a1.5 1.5 0 0 0 1.5-1.5v-3H21Z"></path>
</svg>