<svg width="32" height="32" fill="currentColor" viewBox="0 0 24 24" xmlns="http://www.w3.org/2000/svg">
<path d="M3 5.25H1.5V3A1.502 1.502 0 0 1 3 1.5h2.25V3H3v2.25Z"></path>
<path d="M5.25 16.5H3A1.502 1.502 0 0 1 1.5 15v-2.25H3V15h2.25v1.5Z"></path>
<path d="M3 7.5H1.5v3H3v-3Z"></path>
<path d="M16.5 5.25H15V3h-2.25V1.5H15A1.502 1.502 0 0 1 16.5 3v2.25Z"></path>
<path d="M10.5 1.5h-3V3h3V1.5Z"></path>
<path d="M21 22.5H9A1.502 1.502 0 0 1 7.5 21V9A1.502 1.502 0 0 1 9 7.5h12A1.502 1.502 0 0 1 22.5 9v12a1.502 1.502 0 0 1-1.5 1.5ZM9 9v12h12V9H9Z"></path>
</svg>