<svg width="32" height="32" fill="currentColor" viewBox="0 0 24 24" xmlns="http://www.w3.org/2000/svg">
<path d="M21 22.5H3A1.502 1.502 0 0 1 1.5 21v-4.5A1.502 1.502 0 0 1 3 15h18a1.502 1.502 0 0 1 1.5 1.5V21a1.502 1.502 0 0 1-1.5 1.5Zm-18-6V21h18v-4.5H3Z"></path>
<path d="M5.25 19.5a.75.75 0 1 0 0-1.5.75.75 0 0 0 0 1.5Z"></path>
<path d="m14.25 8.69-1.5-1.5V4.5h-1.5v3.31l1.94 1.94 1.06-1.06Z"></path>
<path d="M12 13.5a6 6 0 1 1 6-6 6.007 6.007 0 0 1-6 6ZM12 3a4.5 4.5 0 1 0 0 9 4.5 4.5 0 0 0 0-9Z"></path>
</svg>