<svg width="32" height="32" fill="currentColor" viewBox="0 0 24 24" xmlns="http://www.w3.org/2000/svg">
<path d="M12 1.5a6 6 0 1 0 6 6 6.007 6.007 0 0 0-6-6Zm4.433 5.25h-1.829a11.431 11.431 0 0 0-.593-3.27 4.506 4.506 0 0 1 2.422 3.27ZM12.017 12h-.006c-.286-.091-.982-1.367-1.11-3.75h2.197c-.127 2.382-.82 3.658-1.082 3.75Zm-1.115-5.25c.127-2.382.82-3.658 1.082-3.75h.005c.286.091.982 1.367 1.11 3.75h-2.197Zm-.913-3.27a11.434 11.434 0 0 0-.593 3.27H7.567A4.507 4.507 0 0 1 9.99 3.48ZM7.567 8.25h1.828c.038 1.113.238 2.215.594 3.27a4.507 4.507 0 0 1-2.422-3.27Zm6.443 3.27c.356-1.055.556-2.157.594-3.27h1.829a4.507 4.507 0 0 1-2.422 3.27h-.001Z"></path>
<path d="M21 22.5H3A1.502 1.502 0 0 1 1.5 21v-4.5A1.502 1.502 0 0 1 3 15h18a1.502 1.502 0 0 1 1.5 1.5V21a1.502 1.502 0 0 1-1.5 1.5Zm-18-6V21h18v-4.5H3Z"></path>
<path d="M5.25 19.5a.75.75 0 1 0 0-1.5.75.75 0 0 0 0 1.5Z"></path>
</svg>