<svg width="32" height="32" fill="currentColor" viewBox="0 0 24 24" xmlns="http://www.w3.org/2000/svg">
<path d="M4.5 22.5h15A1.5 1.5 0 0 0 21 21v-4.5a1.5 1.5 0 0 0-1.5-1.5h-15A1.5 1.5 0 0 0 3 16.5V21a1.5 1.5 0 0 0 1.5 1.5Zm0-6h15V21h-15v-4.5Z"></path>
<path d="M6.75 19.5a.75.75 0 1 0 0-1.5.75.75 0 0 0 0 1.5Z"></path>
<path d="m19.5 1.496-1.058 1.058 1.936 1.942h-3.642a5.238 5.238 0 0 0-9.926 3H3.623l1.934-1.942L4.5 4.496.75 8.246l3.75 3.75 1.058-1.057-1.935-1.943h3.64a5.238 5.238 0 0 0 9.927-3h3.188L18.442 7.94 19.5 8.996l3.75-3.75-3.75-3.75Zm-3.75 5.25a3.737 3.737 0 0 1-6.73 2.25H12v-1.5H8.326a3.739 3.739 0 0 1 6.655-3H12v1.5h3.674c.05.247.076.498.076.75Z"></path>
</svg>