<svg width="32" height="32" fill="currentColor" viewBox="0 0 24 24" xmlns="http://www.w3.org/2000/svg">
<path d="M20.25 12.572v-1.148l1.44-1.26a1.5 1.5 0 0 0 .285-1.912l-1.77-3a1.5 1.5 0 0 0-1.298-.75 1.5 1.5 0 0 0-.48.075l-1.822.615a8.5 8.5 0 0 0-.983-.563l-.382-1.89a1.5 1.5 0 0 0-1.5-1.207h-3.51a1.5 1.5 0 0 0-1.5 1.207l-.383 1.89a8.61 8.61 0 0 0-.99.563l-1.785-.645a1.5 1.5 0 0 0-.48-.045 1.5 1.5 0 0 0-1.297.75l-1.77 3a1.5 1.5 0 0 0 .307 1.882l1.418 1.297v1.148l-1.418 1.26a1.5 1.5 0 0 0-.307 1.912l1.77 3a1.5 1.5 0 0 0 1.297.75 1.5 1.5 0 0 0 .48-.075l1.823-.614c.315.209.643.396.982.562l.383 1.89a1.5 1.5 0 0 0 1.5 1.207h3.54a1.5 1.5 0 0 0 1.5-1.207l.382-1.89c.342-.165.673-.353.99-.563l1.815.616a1.5 1.5 0 0 0 .48.075 1.5 1.5 0 0 0 1.298-.75l1.71-3a1.5 1.5 0 0 0-.308-1.883l-1.417-1.297Zm-1.343 5.43-2.572-.87a6.64 6.64 0 0 1-2.033 1.177l-.532 2.692h-3.54l-.533-2.662a7.018 7.018 0 0 1-2.025-1.177l-2.58.84-1.77-3 2.04-1.8a6.675 6.675 0 0 1 0-2.348l-2.04-1.852 1.77-3 2.573.87a6.645 6.645 0 0 1 2.032-1.178l.533-2.692h3.54l.532 2.662a6.98 6.98 0 0 1 2.025 1.178l2.58-.84 1.77 3-2.04 1.8a6.674 6.674 0 0 1 0 2.347l2.04 1.853-1.77 3Z"></path>
<path d="M12 16.5a4.5 4.5 0 1 1 4.5-4.5 4.456 4.456 0 0 1-4.5 4.5ZM12 9a2.933 2.933 0 0 0-3 3 2.933 2.933 0 0 0 3 3 2.933 2.933 0 0 0 3-3 2.933 2.933 0 0 0-3-3Z"></path>
</svg>