<svg width="32" height="32" fill="currentColor" viewBox="0 0 24 24" xmlns="http://www.w3.org/2000/svg">
<path d="M22.5 6h-3.075c-.375-1.725-1.875-3-3.675-3-1.8 0-3.3 1.275-3.675 3H1.5v1.5h10.575c.375 1.725 1.875 3 3.675 3 1.8 0 3.3-1.275 3.675-3H22.5V6Zm-6.75 3c-1.275 0-2.25-.975-2.25-2.25s.975-2.25 2.25-2.25S18 5.475 18 6.75 17.025 9 15.75 9Z"></path>
<path d="M1.5 18h3.075c.375 1.725 1.875 3 3.675 3 1.8 0 3.3-1.275 3.675-3H22.5v-1.5H11.925c-.375-1.725-1.875-3-3.675-3-1.8 0-3.3 1.275-3.675 3H1.5V18Zm6.75-3c1.275 0 2.25.975 2.25 2.25s-.975 2.25-2.25 2.25S6 18.525 6 17.25 6.975 15 8.25 15Z"></path>
</svg>