<svg width="32" height="32" fill="currentColor" viewBox="0 0 24 24" xmlns="http://www.w3.org/2000/svg">
<path d="M21.75 18.75h-1.5v-1.5H21v-3h-3V15h-1.5v-1.5a.75.75 0 0 1 .75-.75h4.5a.75.75 0 0 1 .75.75V18a.75.75 0 0 1-.75.75Z"></path>
<path d="M18 22.5h-4.5a.75.75 0 0 1-.75-.75v-4.5a.75.75 0 0 1 .75-.75H18a.75.75 0 0 1 .75.75v4.5a.75.75 0 0 1-.75.75ZM14.25 21h3v-3h-3v3Z"></path>
<path d="M11.25 14.89A2.996 2.996 0 1 1 15 11.997h1.5a4.5 4.5 0 1 0-5.25 4.432V14.89Z"></path>
<path d="m21.667 10.162-1.732 1.523-1.065-1.065 1.807-1.59-1.77-3.06-2.58.87a7.024 7.024 0 0 0-2.025-1.178L13.77 3h-3.54l-.533 2.662A6.646 6.646 0 0 0 7.665 6.84l-2.573-.87-1.77 3.06 2.04 1.793a6.672 6.672 0 0 0 0 2.347l-2.04 1.8 1.77 3.06 2.58-.87a7.027 7.027 0 0 0 2.025 1.177L10.23 21h1.02v1.5h-1.02a1.5 1.5 0 0 1-1.47-1.207l-.383-1.89a8.555 8.555 0 0 1-.982-.563l-1.823.615c-.155.05-.317.076-.48.075a1.48 1.48 0 0 1-1.297-.75l-1.77-3.06a1.5 1.5 0 0 1 .307-1.883l1.44-1.26A7.43 7.43 0 0 1 3.75 12c0-.195.015-.383.03-.57l-1.448-1.268a1.5 1.5 0 0 1-.307-1.882l1.77-3.06a1.48 1.48 0 0 1 1.297-.75c.163 0 .325.025.48.075l1.815.615a8.79 8.79 0 0 1 .99-.563l.383-1.89A1.5 1.5 0 0 1 10.23 1.5h3.54a1.5 1.5 0 0 1 1.47 1.208l.382 1.89c.34.165.668.353.983.562l1.822-.615c.155-.05.317-.076.48-.075a1.48 1.48 0 0 1 1.298.75l1.77 3.06a1.5 1.5 0 0 1-.308 1.883Z"></path>
</svg>