<svg width="32" height="32" fill="currentColor" viewBox="0 0 24 24" xmlns="http://www.w3.org/2000/svg">
<path d="M20.25 18.75h-4.5A2.25 2.25 0 0 0 13.5 21v1.5H15V21a.75.75 0 0 1 .75-.75h4.5A.75.75 0 0 1 21 21v1.5h1.5V21a2.25 2.25 0 0 0-2.25-2.25Z"></path>
<path d="M15 15a3 3 0 1 0 5.999 0A3 3 0 0 0 15 15Zm4.5 0a1.5 1.5 0 1 1-3 0 1.5 1.5 0 0 1 3 0Z"></path>
<path d="M4.5 15.75V15H3v.75A5.25 5.25 0 0 0 8.25 21h2.25v-1.5H8.25a3.75 3.75 0 0 1-3.75-3.75Z"></path>
<path d="M19.5 7.5h-5.25V9h5.25V7.5Z"></path>
<path d="M21.75 4.5h-7.5V6h7.5V4.5Z"></path>
<path d="M21.75 1.5h-7.5V3h7.5V1.5Z"></path>
<path d="M8.25 8.25h-4.5A2.25 2.25 0 0 0 1.5 10.5V12H3v-1.5a.75.75 0 0 1 .75-.75h4.5a.75.75 0 0 1 .75.75V12h1.5v-1.5a2.25 2.25 0 0 0-2.25-2.25Z"></path>
<path d="M6 7.5a3 3 0 1 0 0-6 3 3 0 0 0 0 6ZM6 3a1.5 1.5 0 1 1 0 3 1.5 1.5 0 0 1 0-3Z"></path>
</svg>