<svg width="32" height="32" fill="currentColor" viewBox="0 0 24 24" xmlns="http://www.w3.org/2000/svg">
<path d="M7.5 22.5a1.5 1.5 0 1 0 0-3 1.5 1.5 0 0 0 0 3Z"></path>
<path d="M18 22.5a1.5 1.5 0 1 0 0-3 1.5 1.5 0 0 0 0 3Z"></path>
<path d="M3.735 2.103A.75.75 0 0 0 3 1.5H0V3h2.385l2.88 14.397A.75.75 0 0 0 6 18h13.5v-1.5H6.615l-.6-3H19.5a.75.75 0 0 0 .732-.587l1.701-7.663h-1.535l-1.5 6.75H5.716l-1.98-9.897Z"></path>
<path d="M12.75 1.5a4.5 4.5 0 1 0 0 9 4.5 4.5 0 0 0 0-9Zm0 1.5c.534.003 1.057.15 1.514.425l-4.089 4.09A2.965 2.965 0 0 1 9.75 6a3.003 3.003 0 0 1 3-3Zm0 6a2.964 2.964 0 0 1-1.514-.425l4.089-4.09c.275.458.422.981.425 1.515a3.003 3.003 0 0 1-3 3Z"></path>
</svg>