<svg width="32" height="32" fill="currentColor" viewBox="0 0 24 24" xmlns="http://www.w3.org/2000/svg">
<path d="M21 7.5H3A1.502 1.502 0 0 1 1.5 6V3A1.502 1.502 0 0 1 3 1.5h18A1.502 1.502 0 0 1 22.5 3v3A1.502 1.502 0 0 1 21 7.5ZM3 3v3h18V3H3Z"></path>
<path d="M21 22.5H3A1.502 1.502 0 0 1 1.5 21v-3A1.502 1.502 0 0 1 3 16.5h18a1.502 1.502 0 0 1 1.5 1.5v3a1.502 1.502 0 0 1-1.5 1.5ZM3 18v3h18v-3H3Z"></path>
<path d="M21 15H3a1.502 1.502 0 0 1-1.5-1.5v-3A1.502 1.502 0 0 1 3 9h18a1.502 1.502 0 0 1 1.5 1.5v3A1.502 1.502 0 0 1 21 15ZM3 10.5v3h18v-3H3Z"></path>
</svg>