<svg width="32" height="32" fill="currentColor" viewBox="0 0 24 24" xmlns="http://www.w3.org/2000/svg">
<path d="M9 9H7.5v1.5H9V9Z"></path>
<path d="M6 9H4.5v1.5H6V9Z"></path>
<path d="M3 9H1.5v1.5H3V9Z"></path>
<path d="M19.5 22.5H18v-2.25h-3a3.754 3.754 0 0 1-3.75-3.75v-.96l-1.737-.579a.75.75 0 0 1-.406-1.097l2.143-3.572V8.25A6.758 6.758 0 0 1 18 1.5h3.75V3H18a5.256 5.256 0 0 0-5.25 5.25v2.25a.75.75 0 0 1-.107.386l-1.769 2.948 1.363.455a.75.75 0 0 1 .513.711v1.5A2.253 2.253 0 0 0 15 18.75h3.75a.75.75 0 0 1 .75.75v3Z"></path>
<path d="M17.25 9h-3v1.5h3V9Z"></path>
</svg>