<svg width="32" height="32" fill="currentColor" viewBox="0 0 24 24" xmlns="http://www.w3.org/2000/svg">
<path d="M15.75 6.75H6a1.502 1.502 0 0 0-1.5 1.5v7.5a1.502 1.502 0 0 0 1.5 1.5h9.75a1.502 1.502 0 0 0 1.5-1.5v-7.5a1.502 1.502 0 0 0-1.5-1.5Zm0 3H13.5v-1.5h2.25v1.5Zm-2.25 1.5h2.25v1.5H13.5v-1.5Zm-1.5-3v7.5H9.75V10.5A.75.75 0 0 0 9 9.75H6v-1.5h6Zm-3.75 4.5H6v-1.5h2.25v1.5ZM6 14.25h2.25v1.5H6v-1.5Zm7.5 1.5v-1.5h2.25v1.5H13.5Z"></path>
<path d="M17.649 20.25H3a1.502 1.502 0 0 1-1.5-1.5V5.25A1.502 1.502 0 0 1 3 3.75h18a1.502 1.502 0 0 1 1.5 1.5v9.478c0 .351-.123.691-.348.961l-3.351 4.021a1.494 1.494 0 0 1-1.152.54ZM3 5.25v13.5h14.649L21 14.728V5.25H3Z"></path>
</svg>