<svg width="32" height="32" fill="currentColor" viewBox="0 0 24 24" xmlns="http://www.w3.org/2000/svg">
<path d="M21 15h-1.5v1.5H21V21H3v-4.5h1.5V15H3a1.502 1.502 0 0 0-1.5 1.5V21A1.502 1.502 0 0 0 3 22.5h18a1.502 1.502 0 0 0 1.5-1.5v-4.5A1.502 1.502 0 0 0 21 15Z"></path>
<path d="M5.25 19.5a.75.75 0 1 0 0-1.5.75.75 0 0 0 0 1.5Z"></path>
<path d="M12 16.499a.75.75 0 0 1-.336-.08l-7.5-3.75.671-1.34 7.164 3.582 7.165-3.583.671 1.342-7.5 3.75a.751.751 0 0 1-.336.079Z"></path>
<path d="M12 12a.751.751 0 0 1-.335-.08l-7.5-3.75a.75.75 0 0 1 0-1.34l7.5-3.75a.75.75 0 0 1 .67 0l7.5 3.75a.75.75 0 0 1 0 1.34l-7.5 3.75A.75.75 0 0 1 12 12ZM6.177 7.5 12 10.412 17.823 7.5 12 4.588 6.177 7.5Z"></path>
</svg>