<svg width="32" height="32" fill="currentColor" viewBox="0 0 24 24" xmlns="http://www.w3.org/2000/svg">
<path d="M20.25 21a.749.749 0 0 1-.6-.3l-.61-.814a6.747 6.747 0 0 1-1.201-5.465l1.105-5.157a5.247 5.247 0 0 0-.933-4.25L17.4 4.2a.749.749 0 1 1 1.2-.9l.61.814a6.748 6.748 0 0 1 1.201 5.464l-1.105 5.158a5.246 5.246 0 0 0 .933 4.25l.611.814a.751.751 0 0 1-.6 1.2Z"></path>
<path d="M16.5 21a.749.749 0 0 1-.6-.3l-.61-.814a6.747 6.747 0 0 1-1.201-5.465l1.105-5.157a5.247 5.247 0 0 0-.933-4.25L13.65 4.2a.749.749 0 1 1 1.2-.9l.61.814a6.748 6.748 0 0 1 1.201 5.464l-1.105 5.158a5.246 5.246 0 0 0 .934 4.25l.61.814a.751.751 0 0 1-.6 1.2Z"></path>
<path d="M12.75 21a.749.749 0 0 1-.6-.3l-.61-.814a6.747 6.747 0 0 1-1.201-5.465l1.105-5.157a5.247 5.247 0 0 0-.933-4.25L9.9 4.2a.75.75 0 1 1 1.2-.9l.61.814a6.748 6.748 0 0 1 1.201 5.464l-1.105 5.158a5.247 5.247 0 0 0 .934 4.25l.61.814a.751.751 0 0 1-.6 1.2Z"></path>
<path d="M9 21a.748.748 0 0 1-.6-.3l-.61-.814a6.748 6.748 0 0 1-1.201-5.465l1.105-5.157a5.247 5.247 0 0 0-.933-4.25L6.15 4.2a.75.75 0 0 1 1.2-.9l.61.814a6.748 6.748 0 0 1 1.201 5.464l-1.105 5.158a5.247 5.247 0 0 0 .934 4.25l.61.814A.75.75 0 0 1 9 21Z"></path>
<path d="M5.25 21a.749.749 0 0 1-.6-.3l-.61-.814a6.748 6.748 0 0 1-1.2-5.465l1.104-5.157a5.247 5.247 0 0 0-.933-4.25L2.4 4.2a.75.75 0 0 1 1.2-.9l.61.814a6.748 6.748 0 0 1 1.201 5.464l-1.105 5.158a5.247 5.247 0 0 0 .933 4.25l.611.814a.75.75 0 0 1-.6 1.2Z"></path>
</svg>