<svg width="32" height="32" fill="currentColor" viewBox="0 0 24 24" xmlns="http://www.w3.org/2000/svg">
<path d="M3 19.5H1.5V21H3v-1.5Z"></path>
<path d="M4.5 21H3v1.5h1.5V21Z"></path>
<path d="M6 22.5H4.5V24H6v-1.5Z"></path>
<path d="M6 19.5H4.5V21H6v-1.5Z"></path>
<path d="M3 22.5H1.5V24H3v-1.5Z"></path>
<path d="M16.5 19.5H15V21h1.5v-1.5Z"></path>
<path d="M18 21h-1.5v1.5H18V21Z"></path>
<path d="M19.5 22.5H18V24h1.5v-1.5Z"></path>
<path d="M19.5 19.5H18V21h1.5v-1.5Z"></path>
<path d="M16.5 22.5H15V24h1.5v-1.5Z"></path>
<path d="M9.75 19.5h-1.5V21h1.5v-1.5Z"></path>
<path d="M11.25 21h-1.5v1.5h1.5V21Z"></path>
<path d="M12.75 22.5h-1.5V24h1.5v-1.5Z"></path>
<path d="M12.75 19.5h-1.5V21h1.5v-1.5Z"></path>
<path d="M9.75 22.5h-1.5V24h1.5v-1.5Z"></path>
<path d="M22.383 9.776a1.139 1.139 0 0 0-.922-.65 4.017 4.017 0 0 1-2.558-1.286 4.85 4.85 0 0 1-.964-4.795 1.202 1.202 0 0 0-.224-1.159 1.09 1.09 0 0 0-1.02-.37l-.015.003a5.826 5.826 0 0 0-4.413 4.18 5.528 5.528 0 0 0-2.142-.449 5.663 5.663 0 0 0-5.362 3.933A4.495 4.495 0 0 0 6 18h8.25a4.505 4.505 0 0 0 4.5-4.5c0-.043-.01-.083-.01-.126a5.63 5.63 0 0 0 3.57-2.458 1.153 1.153 0 0 0 .073-1.14ZM14.25 16.5H6a2.995 2.995 0 0 1-.505-5.947l.497-.084.11-.493a4.122 4.122 0 0 1 8.047 0l.109.493.497.084a2.994 2.994 0 0 1-.505 5.947Zm4.198-4.597a4.474 4.474 0 0 0-2.96-2.72 5.617 5.617 0 0 0-1.868-2.685 4.427 4.427 0 0 1 2.729-3.335 6.344 6.344 0 0 0 1.455 5.697 5.551 5.551 0 0 0 2.926 1.67 4.086 4.086 0 0 1-2.282 1.373Z"></path>
</svg>