<svg width="32" height="32" fill="currentColor" viewBox="0 0 24 24" xmlns="http://www.w3.org/2000/svg">
<path d="M12 21a6.759 6.759 0 0 1-6.75-6.75 7.488 7.488 0 0 1 1.12-3.716l4.995-7.956a.78.78 0 0 1 1.27 0l4.972 7.917a7.547 7.547 0 0 1 1.143 3.755A6.758 6.758 0 0 1 12 21Zm0-16.614-4.336 6.906a5.983 5.983 0 0 0-.914 2.958 5.25 5.25 0 0 0 10.5 0 6.046 6.046 0 0 0-.936-2.996L12 4.386Z"></path>
<path d="m15.45 12.6-.9-1.2-1.8 1.35V10.5h-1.5v2.25l-1.8-1.35-.9 1.2 2.2 1.65-2.2 1.65.9 1.2 1.8-1.35V18h1.5v-2.25l1.8 1.35.9-1.2-2.2-1.65 2.2-1.65Z"></path>
</svg>