<svg width="32" height="32" fill="currentColor" viewBox="0 0 24 24" xmlns="http://www.w3.org/2000/svg">
<path d="M16.061 9H21V7.5h-3.439l3.44-3.439L19.94 3 16.5 6.44V3H15v4.94L13.94 9h-1.19V6h-1.5v3h-1.19L9 7.94V3H7.5v3.44L4.06 3 3 4.061 6.439 7.5H3V9h4.939L9 10.061v1.189H6v1.5h3v1.19L7.94 15H3v1.5h3.44L3 19.94 4.06 21l3.44-3.439V21H9v-4.939L10.061 15h1.189v3h1.5v-3h1.189L15 16.061V21h1.5v-3.439l3.439 3.44L21 19.94l-3.44-3.44H21V15h-4.94L15 13.94v-1.19h3v-1.5h-3v-1.189L16.061 9ZM13.5 13.5h-3v-3h3v3Z"></path>
</svg>