<svg width="32" height="32" fill="currentColor" viewBox="0 0 24 24" xmlns="http://www.w3.org/2000/svg">
<path d="M3 19.5H1.5V21H3v-1.5Z"></path>
<path d="M4.5 21H3v1.5h1.5V21Z"></path>
<path d="M6 22.5H4.5V24H6v-1.5Z"></path>
<path d="M6 19.5H4.5V21H6v-1.5Z"></path>
<path d="M3 22.5H1.5V24H3v-1.5Z"></path>
<path d="M16.5 19.5H15V21h1.5v-1.5Z"></path>
<path d="M18 21h-1.5v1.5H18V21Z"></path>
<path d="M19.5 22.5H18V24h1.5v-1.5Z"></path>
<path d="M19.5 19.5H18V21h1.5v-1.5Z"></path>
<path d="M16.5 22.5H15V24h1.5v-1.5Z"></path>
<path d="M9.75 19.5h-1.5V21h1.5v-1.5Z"></path>
<path d="M11.25 21h-1.5v1.5h1.5V21Z"></path>
<path d="M12.75 22.5h-1.5V24h1.5v-1.5Z"></path>
<path d="M12.75 19.5h-1.5V21h1.5v-1.5Z"></path>
<path d="M9.75 22.5h-1.5V24h1.5v-1.5Z"></path>
<path d="M16.5 0H15v2.25h1.5V0Z"></path>
<path d="M24 7.5h-2.25V9H24V7.5Z"></path>
<path d="m21.44 2.253-1.591 1.59 1.06 1.061 1.591-1.59-1.06-1.061Z"></path>
<path d="m19.849 12.659 1.59 1.591 1.061-1.06-1.59-1.592-1.061 1.061Z"></path>
<path d="m9 3.307 1.59 1.591 1.062-1.06-1.591-1.591L9 3.307Z"></path>
<path d="M20.25 8.25a4.489 4.489 0 0 0-8.143-2.619 5.53 5.53 0 0 0-1.982-.381 5.663 5.663 0 0 0-5.362 3.933A4.495 4.495 0 0 0 6 18h8.25a4.476 4.476 0 0 0 4.175-6.15 4.478 4.478 0 0 0 1.825-3.6Zm-6 8.25H6a2.995 2.995 0 0 1-.505-5.947l.497-.085.11-.492a4.122 4.122 0 0 1 8.047 0l.109.492.497.085a2.994 2.994 0 0 1-.505 5.947Zm3.392-5.935a4.47 4.47 0 0 0-2.155-1.382 5.64 5.64 0 0 0-2.042-2.835 2.99 2.99 0 1 1 4.197 4.217Z"></path>
</svg>