<svg width="32" height="32" fill="currentColor" viewBox="0 0 24 24" xmlns="http://www.w3.org/2000/svg">
<path d="M12.75 22.5a1.5 1.5 0 1 0 0-3 1.5 1.5 0 0 0 0 3Z"></path>
<path d="M10.19 11.248 6 15.438l1.06 1.06 4.19-4.19-1.06-1.06Z"></path>
<path d="M21 12.438 14.56 6H4.5v1.5h9.44l2.25 2.25L4.5 21.44l1.06 1.06 11.69-11.689 2.688 2.689-2.688 2.69 1.06 1.06L21 14.562a1.503 1.503 0 0 0 0-2.124Z"></path>
<path d="M18.375 6.75a2.625 2.625 0 1 1 0-5.25 2.625 2.625 0 0 1 0 5.25Zm0-3.75a1.125 1.125 0 1 0 0 2.25 1.125 1.125 0 0 0 0-2.25Z"></path>
</svg>