<svg width="32" height="32" fill="currentColor" viewBox="0 0 24 24" xmlns="http://www.w3.org/2000/svg">
<path d="M18.375 21a4.039 4.039 0 0 1-4.125-3.937c.016-.755.243-1.49.655-2.123l2.713-4.037a.912.912 0 0 1 1.515 0l2.662 3.958a4.12 4.12 0 0 1 .705 2.202A4.038 4.038 0 0 1 18.375 21Zm0-8.535-2.202 3.275a2.52 2.52 0 0 0-.423 1.323 2.633 2.633 0 0 0 5.25 0 2.577 2.577 0 0 0-.473-1.4l-2.152-3.198Z"></path>
<path d="M3.75 10.5a.75.75 0 1 0 0-1.5.75.75 0 0 0 0 1.5Z"></path>
<path d="M8.25 15a.75.75 0 1 0 0-1.5.75.75 0 0 0 0 1.5Z"></path>
<path d="M11.25 19.5a.75.75 0 1 0 0-1.5.75.75 0 0 0 0 1.5Z"></path>
<path d="M12.75 12a.75.75 0 1 0 0-1.5.75.75 0 0 0 0 1.5Z"></path>
<path d="M9.75 9a.75.75 0 1 0 0-1.5.75.75 0 0 0 0 1.5Z"></path>
<path d="M20.25 9a.75.75 0 1 0 0-1.5.75.75 0 0 0 0 1.5Z"></path>
<path d="M6.75 21a.75.75 0 1 0 0-1.5.75.75 0 0 0 0 1.5Z"></path>
<path d="M2.25 16.5a.75.75 0 1 0 0-1.5.75.75 0 0 0 0 1.5Z"></path>
<path d="M22.5 4.5h-21V6h21V4.5Z"></path>
</svg>