<svg width="32" height="32" fill="currentColor" viewBox="0 0 24 24" xmlns="http://www.w3.org/2000/svg">
<path d="M18.375 22.5a3.902 3.902 0 0 1-3.47-6.06l2.713-4.037a.912.912 0 0 1 1.515 0l2.662 3.958a4.12 4.12 0 0 1 .705 2.202 4.04 4.04 0 0 1-4.125 3.937Zm0-8.535-2.201 3.275A2.406 2.406 0 0 0 18.375 21 2.54 2.54 0 0 0 21 18.563a2.577 2.577 0 0 0-.472-1.4l-2.153-3.198Z"></path>
<path d="M8.25 12V8.25H9a3.003 3.003 0 0 0 3-3V3H9.75a2.983 2.983 0 0 0-2.06.83A4.503 4.503 0 0 0 3.75 1.5H1.5v2.25A4.505 4.505 0 0 0 6 8.25h.75V12H1.5v1.5H12V12H8.25Zm1.5-7.5h.75v.75A1.502 1.502 0 0 1 9 6.75h-.75V6a1.502 1.502 0 0 1 1.5-1.5ZM6 6.75a3.003 3.003 0 0 1-3-3V3h.75a3.003 3.003 0 0 1 3 3v.75H6Z"></path>
<path d="M12 15.75H1.5v1.5H12v-1.5Z"></path>
<path d="M12 19.5H1.5V21H12v-1.5Z"></path>
</svg>