<svg width="32" height="32" fill="currentColor" viewBox="0 0 24 24" xmlns="http://www.w3.org/2000/svg">
<path d="M3.75 10.5a.75.75 0 1 0 0-1.5.75.75 0 0 0 0 1.5Z"></path>
<path d="M8.25 15a.75.75 0 1 0 0-1.5.75.75 0 0 0 0 1.5Z"></path>
<path d="M11.25 19.5a.75.75 0 1 0 0-1.5.75.75 0 0 0 0 1.5Z"></path>
<path d="M12.75 12a.75.75 0 1 0 0-1.5.75.75 0 0 0 0 1.5Z"></path>
<path d="M9.75 9a.75.75 0 1 0 0-1.5.75.75 0 0 0 0 1.5Z"></path>
<path d="M6.75 21a.75.75 0 1 0 0-1.5.75.75 0 0 0 0 1.5Z"></path>
<path d="M2.25 16.5a.75.75 0 1 0 0-1.5.75.75 0 0 0 0 1.5Z"></path>
<path d="M18.75 22.5a3.74 3.74 0 0 1-2.25-6.735V11.25a2.25 2.25 0 0 1 4.5 0v4.515a3.74 3.74 0 0 1-2.25 6.735Zm0-12a.75.75 0 0 0-.75.75v5.348l-.373.216A2.226 2.226 0 0 0 16.5 18.75a2.25 2.25 0 0 0 4.5 0 2.226 2.226 0 0 0-1.128-1.936l-.372-.216V11.25a.75.75 0 0 0-.75-.75Z"></path>
<path d="M22.5 4.5h-21V6h21V4.5Z"></path>
</svg>