<svg width="32" height="32" fill="currentColor" viewBox="0 0 24 24" xmlns="http://www.w3.org/2000/svg">
<path d="M18.75 22.5a3.55 3.55 0 0 1-3.155-5.512l2.526-3.896a.75.75 0 0 1 1.259 0l2.486 3.832a3.73 3.73 0 0 1 .634 1.993 3.673 3.673 0 0 1-3.75 3.583Zm0-7.622-1.88 2.9a2.195 2.195 0 1 0 4.13 1.14 2.22 2.22 0 0 0-.408-1.203l-1.842-2.837Z"></path>
<path d="M8.25 18h-1.5A12.765 12.765 0 0 1 19.5 5.25h3v1.5h-3A11.263 11.263 0 0 0 8.25 18Z"></path>
<path d="M12 18h-1.5a9.01 9.01 0 0 1 9-9h3v1.5h-3A7.508 7.508 0 0 0 12 18Z"></path>
<path d="M19.5 1.5a16.397 16.397 0 0 0-9 2.682 16.392 16.392 0 0 0-9-2.682V3c2.711-.004 5.372.73 7.697 2.126A16.611 16.611 0 0 0 7.46 6.734 12.75 12.75 0 0 0 1.5 5.25v1.5c1.721 0 3.42.394 4.964 1.152-.469.605-.895 1.24-1.276 1.903A9.024 9.024 0 0 0 1.5 9v1.5a7.412 7.412 0 0 1 3 .638A16.395 16.395 0 0 0 3 18h1.5a15.017 15.017 0 0 1 15-15h3V1.5h-3Z"></path>
</svg>