<svg width="32" height="32" fill="currentColor" viewBox="0 0 24 24" xmlns="http://www.w3.org/2000/svg">
<path d="M18.75 22.5a3.74 3.74 0 0 1-2.25-6.735V11.25a2.25 2.25 0 0 1 4.5 0v4.515a3.74 3.74 0 0 1-2.25 6.735Zm0-12a.75.75 0 0 0-.75.75v5.348l-.373.216A2.226 2.226 0 0 0 16.5 18.75a2.25 2.25 0 0 0 4.5 0 2.226 2.226 0 0 0-1.128-1.936l-.372-.216V11.25a.75.75 0 0 0-.75-.75Z"></path>
<path d="M12 17.998h-1.5a8.916 8.916 0 0 1 2.823-6.545l1.03 1.09A7.432 7.432 0 0 0 12 18Z"></path>
<path d="M8.25 18h-1.5A12.765 12.765 0 0 1 19.5 5.25h3v1.5h-3A11.263 11.263 0 0 0 8.25 18Z"></path>
<path d="M19.5 1.5a16.397 16.397 0 0 0-9 2.682 16.392 16.392 0 0 0-9-2.682V3c2.711-.004 5.372.73 7.697 2.126A16.611 16.611 0 0 0 7.46 6.734 12.75 12.75 0 0 0 1.5 5.25v1.5c1.721 0 3.42.394 4.964 1.152-.469.605-.895 1.24-1.276 1.903A9.024 9.024 0 0 0 1.5 9v1.5a7.412 7.412 0 0 1 3 .638A16.395 16.395 0 0 0 3 18h1.5a15.017 15.017 0 0 1 15-15h3V1.5h-3Z"></path>
</svg>