<svg width="32" height="32" fill="currentColor" viewBox="0 0 24 24" xmlns="http://www.w3.org/2000/svg">
<path d="M8.25 12V8.25H9a3.003 3.003 0 0 0 3-3V3H9.75a2.983 2.983 0 0 0-2.06.83A4.503 4.503 0 0 0 3.75 1.5H1.5v2.25A4.505 4.505 0 0 0 6 8.25h.75V12H1.5v1.5H12V12H8.25Zm1.5-7.5h.75v.75A1.502 1.502 0 0 1 9 6.75h-.75V6a1.502 1.502 0 0 1 1.5-1.5ZM6 6.75a3.003 3.003 0 0 1-3-3V3h.75a3.003 3.003 0 0 1 3 3v.75H6Z"></path>
<path d="M12 15.75H1.5v1.5H12v-1.5Z"></path>
<path d="M12 19.5H1.5V21H12v-1.5Z"></path>
<path d="M18.75 22.5a3.74 3.74 0 0 1-2.25-6.735V11.25a2.25 2.25 0 0 1 4.5 0v4.515a3.74 3.74 0 0 1-2.25 6.735Zm0-12a.75.75 0 0 0-.75.75v5.348l-.373.216A2.226 2.226 0 0 0 16.5 18.75a2.25 2.25 0 0 0 4.5 0 2.226 2.226 0 0 0-1.128-1.936l-.372-.216V11.25a.75.75 0 0 0-.75-.75Z"></path>
</svg>