<svg width="32" height="32" fill="currentColor" viewBox="0 0 24 24" xmlns="http://www.w3.org/2000/svg">
<path d="M22.5 19.5v-9H9.75v9h3.75V21h-12v1.5h21V21h-3.75v-1.5h3.75ZM18.75 18v-2.25H21V18h-2.25Zm-1.5-2.25V18H15v-2.25h2.25ZM15 14.25V12h2.25v2.25H15Zm6 0h-2.25V12H21v2.25ZM13.5 12v2.25h-2.25V12h2.25Zm-2.25 6v-2.25h2.25V18h-2.25Zm6 3H15v-1.5h2.25V21Z"></path>
<path d="M7 11.236A3 3 0 1 1 12 9h-1.5A1.5 1.5 0 1 0 8 10.118l-1 1.118Z"></path>
<path d="M9.75 1.5h-1.5v3h1.5v-3Z"></path>
<path d="M4.5 8.25h-3v1.5h3v-1.5Z"></path>
<path d="m4.227 3.166-1.061 1.06 2.121 2.122 1.061-1.06-2.121-2.122Z"></path>
<path d="m11.651 5.29 1.06 1.062 2.122-2.122-1.06-1.06-2.122 2.12Z"></path>
</svg>