<svg width="32" height="32" fill="currentColor" viewBox="0 0 24 24" xmlns="http://www.w3.org/2000/svg">
<path d="M2.25 8.25v1.5h4.193l-4.725 4.717 1.065 1.066L7.5 10.806V15H9V8.25H2.25Z"></path>
<path d="M19.5 9.75h-2.25V9h-1.5v.75H13.5a1.5 1.5 0 0 0-1.5 1.5v1.5a1.5 1.5 0 0 0 1.5 1.5h2.25V15h1.5v-.75h2.25a1.5 1.5 0 0 0 1.5-1.5v-1.5a1.5 1.5 0 0 0-1.5-1.5Zm-6 3v-1.5h6v1.5h-6Z"></path>
<path d="M19.5 17.25h-2.25v-.75h-1.5v.75H13.5a1.5 1.5 0 0 0-1.5 1.5v1.5a1.5 1.5 0 0 0 1.5 1.5h2.25v.75h1.5v-.75h2.25a1.5 1.5 0 0 0 1.5-1.5v-1.5a1.5 1.5 0 0 0-1.5-1.5Zm-6 3v-1.5h6v1.5h-6Z"></path>
<path d="M19.5 2.25h-2.25V1.5h-1.5v.75H13.5a1.5 1.5 0 0 0-1.5 1.5v1.5a1.5 1.5 0 0 0 1.5 1.5h2.25v.75h1.5v-.75h2.25a1.5 1.5 0 0 0 1.5-1.5v-1.5a1.5 1.5 0 0 0-1.5-1.5Zm-6 3v-1.5h6v1.5h-6Z"></path>
</svg>