<svg width="32" height="32" fill="currentColor" viewBox="0 0 24 24" xmlns="http://www.w3.org/2000/svg">
<path d="M16.875 17.25a3.374 3.374 0 1 1 0-6.749 3.374 3.374 0 0 1 0 6.749Zm0-5.25a1.875 1.875 0 1 0 0 3.75 1.875 1.875 0 0 0 0-3.75Z"></path>
<path d="M21 6h-1.5V2.25h-5.25V6h-1.5a1.501 1.501 0 0 0-1.5 1.5V21a1.502 1.502 0 0 0 1.5 1.5H21a1.502 1.502 0 0 0 1.5-1.5V7.5A1.502 1.502 0 0 0 21 6Zm-5.25-2.25H18V6h-2.25V3.75Zm-3 17.25V7.5H21l.002 13.5H12.75Z"></path>
<path d="M3.75 10.5H1.5v2.25h2.25V10.5Z"></path>
<path d="M7.5 6.75H5.25V9H7.5V6.75Z"></path>
<path d="M3.75 6.75H1.5V9h2.25V6.75Z"></path>
<path d="M11.25 3H9v2.25h2.25V3Z"></path>
<path d="M7.5 3H5.25v2.25H7.5V3Z"></path>
<path d="M3.75 3H1.5v2.25h2.25V3Z"></path>
</svg>