<svg width="32" height="32" fill="currentColor" viewBox="0 0 24 24" xmlns="http://www.w3.org/2000/svg">
<path d="M18 15.75v-9h-1.5v10.5h6v-1.5H18Z"></path>
<path d="M13.5 6.75h-3A1.5 1.5 0 0 0 9 8.25v7.5a1.5 1.5 0 0 0 1.5 1.5h.75v1.5a1.5 1.5 0 0 0 1.5 1.5h1.5v-1.5h-1.5v-1.5h.75a1.5 1.5 0 0 0 1.5-1.5v-7.5a1.5 1.5 0 0 0-1.5-1.5Zm-3 9v-7.5h3v7.5h-3Z"></path>
<path d="M6 17.25H1.5v-1.5H6v-3H3a1.5 1.5 0 0 1-1.5-1.5v-3A1.5 1.5 0 0 1 3 6.75h4.5v1.5H3v3h3a1.5 1.5 0 0 1 1.5 1.5v3a1.5 1.5 0 0 1-1.5 1.5Z"></path>
</svg>