<svg width="32" height="32" fill="currentColor" viewBox="0 0 24 24" xmlns="http://www.w3.org/2000/svg">
<path d="M6 22.5H1.5A1.5 1.5 0 0 1 0 21V10.5A1.5 1.5 0 0 1 1.5 9H6a1.5 1.5 0 0 1 1.5 1.5V21A1.5 1.5 0 0 1 6 22.5Zm-4.5-12V21H6V10.5H1.5Z"></path>
<path d="M15 22.5h-4.5A1.5 1.5 0 0 1 9 21V10.5A1.5 1.5 0 0 1 10.5 9H15a1.5 1.5 0 0 1 1.5 1.5V21a1.5 1.5 0 0 1-1.5 1.5Zm-4.5-12V21H15V10.5h-4.5Z"></path>
<path d="M20.25 15.75h-1.5v-9h-6v-1.5h6a1.5 1.5 0 0 1 1.5 1.5v9Z"></path>
<path d="M24 12h-1.5V3h-6V1.5h6A1.5 1.5 0 0 1 24 3v9Z"></path>
</svg>