<svg width="32" height="32" fill="currentColor" viewBox="0 0 24 24" xmlns="http://www.w3.org/2000/svg">
<path d="M5.25 22.5a3.75 3.75 0 1 1 0-7.5 3.75 3.75 0 0 1 0 7.5Zm0-6a2.25 2.25 0 1 0 0 4.5 2.25 2.25 0 0 0 0-4.5Z"></path>
<path d="M17.25 22.5a3.75 3.75 0 1 1 0-7.5 3.75 3.75 0 0 1 0 7.5Zm0-6a2.25 2.25 0 1 0 0 4.5 2.25 2.25 0 0 0 0-4.5Z"></path>
<path d="M18 5.25v5.25l2.69-2.56L21.75 9l-4.5 4.5-4.5-4.5 1.06-1.06 2.69 2.56V5.25a.75.75 0 0 0-.75-.75h-9a.75.75 0 0 0-.75.75v8.25H4.5V5.25A2.253 2.253 0 0 1 6.75 3h9A2.253 2.253 0 0 1 18 5.25Z"></path>
</svg>