<svg width="32" height="32" fill="currentColor" viewBox="0 0 24 24" xmlns="http://www.w3.org/2000/svg">
<path d="m18.855 17.826 1.15.964a10.483 10.483 0 0 0 1.83-3.137l-1.409-.512a8.98 8.98 0 0 1-1.57 2.685Z"></path>
<path d="m13.5 20.856.31 1.475a10.415 10.415 0 0 0 3.406-1.228l-.716-1.298a9.39 9.39 0 0 1-3 1.05Z"></path>
<path d="m7.5 19.805-.75 1.298a10.605 10.605 0 0 0 3.44 1.229l.26-1.476a9.113 9.113 0 0 1-2.95-1.051Z"></path>
<path d="m3.573 15.14-1.408.513a10.481 10.481 0 0 0 1.83 3.137l1.15-.964a8.979 8.979 0 0 1-1.572-2.685Z"></path>
<path d="M12 16.5a1.125 1.125 0 1 0 0 2.25 1.125 1.125 0 0 0 0-2.25Z"></path>
<path d="M12.75 6h-1.5v8.25h1.5V6Z"></path>
<path d="M22.5 12H21a9 9 0 1 0-18 0H1.5a10.5 10.5 0 0 1 21 0Z"></path>
</svg>