<svg width="32" height="32" fill="currentColor" viewBox="0 0 24 24" xmlns="http://www.w3.org/2000/svg">
<path d="M17.25 22.5h-1.5V21a2.253 2.253 0 0 0-2.25-2.25h-3A2.253 2.253 0 0 0 8.25 21v1.5h-1.5V21a3.755 3.755 0 0 1 3.75-3.75h3A3.755 3.755 0 0 1 17.25 21v1.5Z"></path>
<path d="M12 9.75a2.25 2.25 0 1 1 0 4.5 2.25 2.25 0 0 1 0-4.5Zm0-1.5a3.75 3.75 0 1 0 0 7.5 3.75 3.75 0 0 0 0-7.5Z"></path>
<path d="M22.5 22.5H21V10.848l-9-7.615-9 7.615V22.5H1.5v-12a.75.75 0 0 1 .266-.572l9.75-8.25a.75.75 0 0 1 .969 0l9.75 8.25a.75.75 0 0 1 .265.572v12Z"></path>
</svg>