<svg width="32" height="32" fill="currentColor" viewBox="0 0 24 24" xmlns="http://www.w3.org/2000/svg">
<path d="M14.25 7.5a2.25 2.25 0 1 1 0-4.5 2.25 2.25 0 0 1 0 4.5Zm0-3a.75.75 0 1 0 0 1.5.75.75 0 0 0 0-1.5Z"></path>
<path d="M14.25 14.25a2.25 2.25 0 1 1 0-4.5 2.25 2.25 0 0 1 0 4.5Zm0-3a.75.75 0 1 0 0 1.5.75.75 0 0 0 0-1.5Z"></path>
<path d="M20.25 14.25a2.25 2.25 0 1 1 0-4.5 2.25 2.25 0 0 1 0 4.5Zm0-3a.75.75 0 1 0 0 1.5.75.75 0 0 0 0-1.5Z"></path>
<path d="M14.25 21a2.25 2.25 0 1 1 0-4.5 2.25 2.25 0 0 1 0 4.5Zm0-3a.75.75 0 1 0 0 1.5.75.75 0 0 0 0-1.5Z"></path>
<path d="M10.5 1.5H9v21h1.5v-21Z"></path>
<path d="M5.25 21a2.25 2.25 0 1 1 0-4.5 2.25 2.25 0 0 1 0 4.5Zm0-3a.75.75 0 1 0 0 1.5.75.75 0 0 0 0-1.5Z"></path>
<path d="M5.25 14.25a2.25 2.25 0 1 1 0-4.5 2.25 2.25 0 0 1 0 4.5Zm0-3a.75.75 0 1 0 0 1.5.75.75 0 0 0 0-1.5Z"></path>
<path d="M5.25 7.5a2.25 2.25 0 1 1 0-4.5 2.25 2.25 0 0 1 0 4.5Zm0-3a.75.75 0 1 0 0 1.5.75.75 0 0 0 0-1.5Z"></path>
</svg>