<svg width="32" height="32" fill="currentColor" viewBox="0 0 24 24" xmlns="http://www.w3.org/2000/svg">
<path d="M12 1.5a.75.75 0 0 0-.73.578L9.978 7.57a7.549 7.549 0 1 0 6.452 6.452l5.492-1.292A.75.75 0 0 0 22.5 12 10.511 10.511 0 0 0 12 1.5ZM8.47 15.53a.75.75 0 0 0 .702.2l2.821-.664a2.997 2.997 0 1 1-3.06-3.06l-.663 2.822a.75.75 0 0 0 .2.702Zm1.537-1.538 1.704-7.237a5.627 5.627 0 0 1 5.535 5.535l-7.239 1.702ZM15 15a6 6 0 1 1-5.367-5.965l-.348 1.48c-.095-.007-.19-.015-.285-.015a4.5 4.5 0 1 0 4.5 4.5c0-.095-.008-.19-.014-.285l1.479-.348c.023.21.034.421.035.633Zm3.728-3.06a7.124 7.124 0 0 0-6.668-6.668l.53-2.253a9.015 9.015 0 0 1 8.391 8.391l-2.253.53Z"></path>
</svg>