<svg width="32" height="32" fill="currentColor" viewBox="0 0 24 24" xmlns="http://www.w3.org/2000/svg">
<path d="M8.25 7.5h-1.5V9h1.5V7.5Z"></path>
<path d="M8.25 10.5h-1.5V12h1.5v-1.5Z"></path>
<path d="M11.25 9h-1.5v1.5h1.5V9Z"></path>
<path d="M6.75 21.002c-.187 0-.373-.014-.558-.04A3.82 3.82 0 0 1 3 17.151V8.4a5.371 5.371 0 0 1 4.733-5.374 5.22 5.22 0 0 1 3.348.803l5.977 3.736a5.235 5.235 0 0 1-.517 9.142l-8.16 3.922a3.733 3.733 0 0 1-1.63.373Zm1.502-16.5c-.124 0-.25.006-.376.018A3.86 3.86 0 0 0 4.5 8.4v8.752a2.313 2.313 0 0 0 1.908 2.325 2.27 2.27 0 0 0 1.321-.199l8.163-3.922a3.736 3.736 0 0 0 .366-6.522l-5.98-3.737a3.727 3.727 0 0 0-2.026-.595Z"></path>
<path d="M19.5 5.25h-3a3.003 3.003 0 0 1-3-3V1.5H15v.75a1.502 1.502 0 0 0 1.5 1.5h3v1.5Z"></path>
</svg>