<svg width="32" height="32" fill="currentColor" viewBox="0 0 24 24" xmlns="http://www.w3.org/2000/svg">
<path d="M15 3a3.75 3.75 0 1 1 0 7.5A3.75 3.75 0 0 1 15 3Zm0-1.5A5.25 5.25 0 1 0 15 12a5.25 5.25 0 0 0 0-10.5Z"></path>
<path d="M22.5 22.5H21v-3.75A3.75 3.75 0 0 0 17.25 15h-4.5A3.75 3.75 0 0 0 9 18.75v3.75H7.5v-3.75a5.25 5.25 0 0 1 5.25-5.25h4.5a5.25 5.25 0 0 1 5.25 5.25v3.75Z"></path>
<path d="M8.25 6h-4.5A2.25 2.25 0 0 1 1.5 3.75v-1.5H3v1.5a.75.75 0 0 0 .75.75h4.5V6Z"></path>
<path d="M3 11.25H1.5v-1.5A2.25 2.25 0 0 1 3.75 7.5h4.5V9h-4.5a.75.75 0 0 0-.75.75v1.5Z"></path>
</svg>