<svg width="32" height="32" fill="currentColor" viewBox="0 0 24 24" xmlns="http://www.w3.org/2000/svg">
<path d="M6.44 14.56 9.873 18l-3.435 3.44L7.5 22.5 12 18l-4.5-4.5-1.06 1.06Z"></path>
<path d="M1.94 14.56 5.373 18l-3.435 3.44L3 22.5 7.5 18 3 13.5l-1.06 1.06Z"></path>
<path d="M9 10.5V9h3.75V7.5H10.5V6h2.25V4.5h1.5V6h2.25v1.5h-2.25V9H18v1.5h-3.75V12H18v1.5h-3.75V15h2.25v1.5h-3.75v-3H10.5V12h2.25v-1.5H9Z"></path>
<path d="M14.25 18H21V3H6v9H4.5V3A1.5 1.5 0 0 1 6 1.5h15A1.5 1.5 0 0 1 22.5 3v15a1.5 1.5 0 0 1-1.5 1.5h-6.75V18Z"></path>
</svg>