<svg width="32" height="32" fill="currentColor" viewBox="0 0 24 24" xmlns="http://www.w3.org/2000/svg">
<path d="M16.5 6.753h3.9a8.25 8.25 0 0 0-15.15 4.5h-1.5A9.75 9.75 0 0 1 21 5.028V2.253h1.5v6h-6v-1.5Z"></path>
<path d="M12 9a2.25 2.25 0 1 1-2.25 2.25A2.213 2.213 0 0 1 12 9Zm0-1.5a3.75 3.75 0 1 0 0 7.5 3.75 3.75 0 0 0 0-7.5Z"></path>
<path d="M17.25 22.5h-1.5v-2.25A2.25 2.25 0 0 0 13.5 18h-3a2.25 2.25 0 0 0-2.25 2.25v2.25h-1.5v-2.25a3.75 3.75 0 0 1 3.75-3.75h3a3.75 3.75 0 0 1 3.75 3.75v2.25Z"></path>
</svg>