<svg width="32" height="32" fill="currentColor" viewBox="0 0 24 24" xmlns="http://www.w3.org/2000/svg">
<path d="M21 15h-2.25v-1.5H21V3H10.5v2.25H9V3a1.502 1.502 0 0 1 1.5-1.5H21A1.502 1.502 0 0 1 22.5 3v10.5A1.502 1.502 0 0 1 21 15Z"></path>
<path d="M12.75 16.5V15h-3v-1.5H12V12H9.75v-1.5h-1.5V12H6v1.5h2.25V15h-3v1.5h3V18H6v1.5h6V18H9.75v-1.5h3Z"></path>
<path d="M15 22.5H3A1.502 1.502 0 0 1 1.5 21V9A1.502 1.502 0 0 1 3 7.5h12A1.502 1.502 0 0 1 16.5 9v12a1.502 1.502 0 0 1-1.5 1.5ZM3 9v12h12V9H3Z"></path>
</svg>