<svg width="32" height="32" fill="currentColor" viewBox="0 0 24 24" xmlns="http://www.w3.org/2000/svg">
<path d="M11.51 22.489a10.446 10.446 0 0 1-3.154-.639l.52-1.406c.868.32 1.78.505 2.703.546l-.069 1.499Zm3.199-.342-.386-1.45a8.936 8.936 0 0 0 2.522-1.111l.809 1.263a10.436 10.436 0 0 1-2.945 1.298Zm-9.163-1.864a10.546 10.546 0 0 1-2.205-2.341l1.236-.85A9.039 9.039 0 0 0 6.47 19.1l-.923 1.182ZM1.947 15.04A10.539 10.539 0 0 1 1.5 12H3c0 .883.129 1.762.383 2.607l-1.436.434Z"></path>
<path d="m19.5 12.75-1.06 1.06L19.628 15h-7.767a2.238 2.238 0 0 0-.206-.432l3.36-4.2c.236.084.484.13.734.132a2.25 2.25 0 1 0-2.112-3h-3.276a2.237 2.237 0 0 0-4.224 0H1.5V9h4.638a2.236 2.236 0 0 0 4.224 0h3.276c.053.151.122.296.206.432l-3.36 4.201a2.225 2.225 0 0 0-.734-.133 2.25 2.25 0 1 0 2.112 3h7.767l-1.19 1.19 1.061 1.06 3-3-3-3ZM15.75 7.5a.75.75 0 1 1 0 1.5.75.75 0 0 1 0-1.5ZM8.25 9a.75.75 0 1 1 0-1.5.75.75 0 0 1 0 1.5Zm1.5 7.5a.75.75 0 1 1 0-1.5.75.75 0 0 1 0 1.5Z"></path>
<path d="M21 11.997a9.03 9.03 0 0 0-.384-2.608l1.436-.433c.297.986.448 2.01.448 3.04H21Zm-1.578-5.092a9.04 9.04 0 0 0-1.891-2.009l.922-1.182c.85.663 1.594 1.452 2.205 2.341l-1.236.85ZM7.154 4.411l-.808-1.263A10.436 10.436 0 0 1 9.29 1.85l.386 1.45a8.936 8.936 0 0 0-2.522 1.11Zm7.969-.858a8.947 8.947 0 0 0-2.702-.547l.069-1.498c1.078.049 2.142.264 3.153.639l-.52 1.406Z"></path>
</svg>