<svg width="32" height="32" fill="currentColor" viewBox="0 0 24 24" xmlns="http://www.w3.org/2000/svg">
<path d="M12 22.5A10.512 10.512 0 0 1 1.5 12H3a9.002 9.002 0 0 0 13.846 7.586l.808 1.263A10.463 10.463 0 0 1 12 22.5Z"></path>
<path d="m19.5 12.75-1.06 1.06L19.628 15h-7.767a2.238 2.238 0 0 0-.206-.432l3.36-4.2c.236.084.484.13.734.132a2.25 2.25 0 1 0-2.112-3h-3.276a2.237 2.237 0 0 0-4.224 0H1.5V9h4.638a2.236 2.236 0 0 0 4.224 0h3.276c.053.151.122.296.206.432l-3.36 4.201a2.225 2.225 0 0 0-.734-.133 2.25 2.25 0 1 0 2.112 3h7.767l-1.19 1.19 1.061 1.06 3-3-3-3ZM15.75 7.5a.75.75 0 1 1 0 1.5.75.75 0 0 1 0-1.5ZM8.25 9a.75.75 0 1 1 0-1.5.75.75 0 0 1 0 1.5Zm1.5 7.5a.75.75 0 1 1 0-1.5.75.75 0 0 1 0 1.5Z"></path>
<path d="M22.5 12H21A9.002 9.002 0 0 0 7.154 4.414l-.808-1.263A10.501 10.501 0 0 1 22.5 12Z"></path>
</svg>