<svg width="32" height="32" fill="currentColor" viewBox="0 0 24 24" xmlns="http://www.w3.org/2000/svg">
<path d="m5.75 20.624-4.25-3.79.998-1.12 4.231 3.774 5.768-5.584a1.446 1.446 0 0 1 2.005-.006l2.718 2.598 4.184-4.48L22.5 13.04l-4.186 4.482a1.497 1.497 0 0 1-2.128.06l-2.683-2.565-5.75 5.566a1.472 1.472 0 0 1-2.003.041Z"></path>
<path d="M22.5 8.25h-3L21 6l1.5 2.25Z"></path>
<path d="M16.5 3h-3v1.5h3V6h-2.25v1.5h2.25V9h-3v1.5h3A1.502 1.502 0 0 0 18 9V4.5A1.502 1.502 0 0 0 16.5 3Z"></path>
<path d="M12 10.5H7.5v-3A1.502 1.502 0 0 1 9 6h1.5V4.5h-3V3h3A1.502 1.502 0 0 1 12 4.5V6a1.502 1.502 0 0 1-1.5 1.5H9V9h3v1.5Z"></path>
<path d="M4.5 9V3H3v.75H1.5v1.5H3V9H1.5v1.5H6V9H4.5Z"></path>
</svg>