<svg width="32" height="32" fill="currentColor" viewBox="0 0 24 24" xmlns="http://www.w3.org/2000/svg">
<path d="M22.499 20.25H1.5v1.5h20.999v-1.5Z"></path>
<path d="M12 15a3.003 3.003 0 0 1 3 3h1.5a4.5 4.5 0 1 0-9 0H9a3.003 3.003 0 0 1 3-3Z"></path>
<path d="M22.5 16.5h-3.75V18h3.75v-1.5Z"></path>
<path d="m18.894 10.043-2.63 2.629 1.061 1.06 2.63-2.629-1.061-1.06Z"></path>
<path d="M12 3 8.25 6.75l1.057 1.058 1.943-1.936v5.378h1.5V5.872l1.943 1.936L15.75 6.75 12 3Z"></path>
<path d="m5.105 10.049-1.06 1.06 2.63 2.63 1.06-1.06-2.63-2.63Z"></path>
<path d="M5.25 16.5H1.5V18h3.75v-1.5Z"></path>
</svg>