<svg width="32" height="32" fill="currentColor" viewBox="0 0 24 24" xmlns="http://www.w3.org/2000/svg">
<path d="M22.5 19.5H21a3.7 3.7 0 0 1-3-1.49 3.765 3.765 0 0 1-6 0 3.765 3.765 0 0 1-6 0 3.698 3.698 0 0 1-3 1.49H1.5V18H3a2.58 2.58 0 0 0 2.29-1.741.729.729 0 0 1 .71-.509.755.755 0 0 1 .712.513A2.58 2.58 0 0 0 9 18a2.58 2.58 0 0 0 2.29-1.741.743.743 0 0 1 .71-.509.755.755 0 0 1 .711.513A2.58 2.58 0 0 0 15 18a2.58 2.58 0 0 0 2.29-1.741.75.75 0 0 1 1.422.004A2.58 2.58 0 0 0 21 18h1.5v1.5Z"></path>
<path d="m17.25 13.19-6.53-6.53A2.235 2.235 0 0 0 9.129 6H3v1.5h6.129a.745.745 0 0 1 .53.22l2.03 2.03L7.5 13.94 8.56 15l4.19-4.19 3.44 3.44 1.06-1.06Z"></path>
<path d="M15 7.5a3 3 0 1 1 6 0 3 3 0 0 1-6 0Zm1.5 0a1.5 1.5 0 1 0 3 0 1.5 1.5 0 0 0-3 0Z"></path>
</svg>