<svg width="32" height="32" fill="currentColor" viewBox="0 0 24 24" xmlns="http://www.w3.org/2000/svg">
<path d="M16.5 3v1.5h1.94l-3.75 3.75 1.06 1.06 3.75-3.75V7.5H21V3h-4.5Z"></path>
<path d="M7.5 3v1.5H5.56l3.75 3.75-1.06 1.06L4.5 5.56V7.5H3V3h4.5Z"></path>
<path d="m15 3.75-3-3-3 3 1.06 1.06 1.19-1.188V8.25h1.5V3.622l1.19 1.189L15 3.75Z"></path>
<path d="M16.5 20.998v-1.5h1.94l-3.75-3.75 1.06-1.06 3.75 3.75v-1.94H21v4.5h-4.5Z"></path>
<path d="M7.5 20.998v-1.5H5.56l3.75-3.75-1.06-1.06-3.75 3.75v-1.94H3v4.5h4.5Z"></path>
<path d="m15 20.25-3 3-3-3 1.06-1.06 1.19 1.188V15.75h1.5v4.628l1.19-1.189L15 20.25Z"></path>
<path d="m3.75 9-3 3 3 3 1.06-1.06-1.188-1.19H8.25v-1.5H3.622l1.189-1.19L3.75 9Z"></path>
<path d="m20.25 9 3 3-3 3-1.06-1.06 1.188-1.19H15.75v-1.5h4.628l-1.189-1.19L20.25 9Z"></path>
</svg>