<svg width="32" height="32" fill="currentColor" viewBox="0 0 24 24" xmlns="http://www.w3.org/2000/svg">
<path d="M12 19.5V18H4.372l1.936-1.942L5.25 15 1.5 18.75l3.75 3.75 1.058-1.058L4.372 19.5H12Z"></path>
<path d="M12 10.5V9H4.372l1.936-1.942L5.25 6 1.5 9.75l3.75 3.75 1.058-1.057L4.372 10.5H12Z"></path>
<path d="M12 4.5V6h7.628l-1.936 1.942L18.75 9l3.75-3.75-3.75-3.75-1.058 1.058L19.628 4.5H12Z"></path>
<path d="M12 13.5V15h7.628l-1.936 1.942L18.75 18l3.75-3.75-3.75-3.75-1.058 1.057 1.936 1.943H12Z"></path>
</svg>