<svg width="32" height="32" fill="currentColor" viewBox="0 0 24 24" xmlns="http://www.w3.org/2000/svg">
<path d="m22.28 5.47-2.25-2.25a.75.75 0 0 0-1.06 0L12 10.19v3.31h3.31l6.97-6.97a.75.75 0 0 0 0-1.06ZM14.69 12H13.5v-1.19l3.75-3.75 1.19 1.19L14.69 12Zm4.81-4.81L18.31 6l1.19-1.19L20.69 6 19.5 7.19Z"></path>
<path d="M7.5 10.5a3 3 0 1 1 0-6 3 3 0 0 1 0 6Zm0-4.5a1.5 1.5 0 1 0-.003 3A1.5 1.5 0 0 0 7.5 6Z"></path>
<path d="m20.254 10.677-1.06 1.06L21 13.543 13.543 21 3 10.456V3h7.456l3.305 3.305 1.06-1.06-3.304-3.306a1.5 1.5 0 0 0-1.061-.439H3A1.5 1.5 0 0 0 1.5 3v7.456c0 .398.158.78.44 1.06l10.543 10.545a1.5 1.5 0 0 0 2.121 0l7.457-7.457a1.501 1.501 0 0 0 0-2.121l-1.807-1.806Z"></path>
</svg>