<svg width="32" height="32" fill="currentColor" viewBox="0 0 24 24" xmlns="http://www.w3.org/2000/svg">
<path d="m17.319 7.741 5.181-5.18L21.44 1.5 1.5 21.44l1.06 1.06 5.181-5.18 4.742 4.741a1.5 1.5 0 0 0 2.121 0l7.457-7.457a1.501 1.501 0 0 0 0-2.121L17.319 7.74ZM13.543 21l-4.74-4.742 7.456-7.456L21 13.543 13.543 21Z"></path>
<path d="M7.5 10.5a3 3 0 1 1 0-6 3 3 0 0 1 0 6Zm0-4.5a1.5 1.5 0 1 0-.003 3A1.5 1.5 0 0 0 7.5 6Z"></path>
<path d="m5.62 15.197 1.06-1.06L3 10.456V3h7.456l3.68 3.68 1.061-1.06-3.68-3.68a1.5 1.5 0 0 0-1.061-.44H3A1.5 1.5 0 0 0 1.5 3v7.456c0 .398.158.78.44 1.06l3.68 3.681Z"></path>
</svg>