<svg width="32" height="32" fill="currentColor" viewBox="0 0 24 24" xmlns="http://www.w3.org/2000/svg">
<path d="M23.25 13.5 18.75 9l-1.06 1.06 2.689 2.69H12.75v1.5h7.629l-2.69 2.69L18.75 18l4.5-4.5Z"></path>
<path d="M7.5 10.5a3 3 0 1 1 0-6 3 3 0 0 1 0 6Zm0-4.5a1.5 1.5 0 1 0-.003 3A1.5 1.5 0 0 0 7.5 6Z"></path>
<path d="M15.794 18.75 13.544 21 3 10.456V3h7.456l5.25 5.25 1.061-1.06-5.25-5.25a1.5 1.5 0 0 0-1.061-.44H3A1.5 1.5 0 0 0 1.5 3v7.456c0 .398.158.78.44 1.06l10.543 10.545a1.5 1.5 0 0 0 2.121 0l2.251-2.25-1.06-1.061Z"></path>
</svg>