<svg width="32" height="32" fill="currentColor" viewBox="0 0 24 24" xmlns="http://www.w3.org/2000/svg">
<path d="M7.5 12a1.5 1.5 0 1 0 0-3 1.5 1.5 0 0 0 0 3Z"></path>
<path d="M12 22.5a.748.748 0 0 1-.533-.218L3.444 14.25A1.5 1.5 0 0 1 3 13.193V7.5A1.5 1.5 0 0 1 4.5 6h5.693a1.5 1.5 0 0 1 1.057.442l8.032 8.025a.75.75 0 0 1 0 1.066l-6.75 6.75A.75.75 0 0 1 12 22.5Zm-7.5-15v5.693l7.5 7.5L17.692 15l-7.5-7.5H4.5Z"></path>
<path d="M20.782 9.967 12.75 1.944a1.5 1.5 0 0 0-1.057-.443H6A1.5 1.5 0 0 0 4.5 3v1.5H6V3h5.693l7.5 7.5-.976.967 1.066 1.066 1.5-1.5a.75.75 0 0 0 0-1.066Z"></path>
</svg>