<svg width="32" height="32" fill="currentColor" viewBox="0 0 24 24" xmlns="http://www.w3.org/2000/svg">
<path d="M12 13.5 16.5 9l1.06 1.06-2.689 2.69H22.5v1.5h-7.629l2.69 2.69L16.5 18 12 13.5Z"></path>
<path d="M7.5 10.5a3 3 0 1 1 0-6 3 3 0 0 1 0 6Zm0-4.5a1.5 1.5 0 1 0-.003 3A1.5 1.5 0 0 0 7.5 6Z"></path>
<path d="m15.044 19.5-1.5 1.5L3 10.456V3h7.456l4.5 4.5 1.061-1.06-4.5-4.5a1.5 1.5 0 0 0-1.061-.44H3A1.5 1.5 0 0 0 1.5 3v7.456c0 .398.158.78.44 1.06l10.543 10.545a1.5 1.5 0 0 0 2.121 0l1.5-1.5-1.06-1.061Z"></path>
</svg>