<svg width="32" height="32" fill="currentColor" viewBox="0 0 24 24" xmlns="http://www.w3.org/2000/svg">
<path d="M22.5 9.75v-1.5h-8.536l-.543-1.085a.75.75 0 0 0-.671-.415h-6A.75.75 0 0 0 6 7.5v3.75H3v1.5h13.978l2.7 2.25H2.25a.75.75 0 0 0-.75.75v1.5A3.754 3.754 0 0 0 5.25 21h13.5a3.754 3.754 0 0 0 3.75-3.75v-1.5a.75.75 0 0 0-.27-.576l-4.5-3.75a.75.75 0 0 0-.48-.174h-1.786l-.75-1.5H22.5Zm-1.5 7.5a2.253 2.253 0 0 1-2.25 2.25H5.25A2.253 2.253 0 0 1 3 17.25v-.75h18v.75Zm-13.5-6v-3h4.787l1.5 3H7.5Z"></path>
</svg>