<svg width="32" height="32" fill="currentColor" viewBox="0 0 24 24" xmlns="http://www.w3.org/2000/svg">
<path d="M21.375 24a2.607 2.607 0 0 1-1.856-.769l-3.096-3.096a4.872 4.872 0 0 1-5.511-6.717l.44-1.005 3.118 3.117a.768.768 0 0 0 1.06 0 .749.749 0 0 0 0-1.06l-3.117-3.118 1.005-.44a4.872 4.872 0 0 1 6.718 5.51l3.095 3.097A2.625 2.625 0 0 1 21.375 24Zm-4.523-5.556 3.727 3.727a1.151 1.151 0 0 0 1.591 0 1.125 1.125 0 0 0 0-1.591l-3.727-3.727.141-.437a3.373 3.373 0 0 0-3.396-4.41l1.403 1.403a2.249 2.249 0 0 1 0 3.182 2.304 2.304 0 0 1-3.182 0l-1.404-1.404a3.372 3.372 0 0 0 4.41 3.398l.438-.141Z"></path>
<path d="M18.75 3.75H16.5V3A1.504 1.504 0 0 0 15 1.5H9A1.504 1.504 0 0 0 7.5 3v.75H5.25a1.504 1.504 0 0 0-1.5 1.5V21a1.504 1.504 0 0 0 1.5 1.5h5.25V21H5.25V5.25H7.5V7.5h9V5.25h2.25V9h1.5V5.25a1.504 1.504 0 0 0-1.5-1.5ZM15 6H9V3h6v3Z"></path>
</svg>