<svg width="32" height="32" fill="currentColor" viewBox="0 0 24 24" xmlns="http://www.w3.org/2000/svg">
<path d="M16.5 19.5a1.5 1.5 0 1 0 0-3 1.5 1.5 0 0 0 0 3Z"></path>
<path d="M22.333 17.609A6.48 6.48 0 0 0 16.5 13.5a6.48 6.48 0 0 0-5.833 4.109L10.5 18l.167.391A6.48 6.48 0 0 0 16.5 22.5a6.48 6.48 0 0 0 5.833-4.109L22.5 18l-.167-.391ZM16.5 21a3 3 0 1 1 0-5.999 3 3 0 0 1 0 5.999Z"></path>
<path d="M9 21H5.25V5.25H7.5V7.5h9V5.25h2.25V12h1.5V5.25a1.5 1.5 0 0 0-1.5-1.5H16.5V3A1.5 1.5 0 0 0 15 1.5H9A1.5 1.5 0 0 0 7.5 3v.75H5.25a1.5 1.5 0 0 0-1.5 1.5V21a1.5 1.5 0 0 0 1.5 1.5H9V21ZM9 3h6v3H9V3Z"></path>
</svg>