<svg width="32" height="32" fill="currentColor" viewBox="0 0 24 24" xmlns="http://www.w3.org/2000/svg">
<path d="m19.808 18.75 2.692-2.692L21.442 15l-2.692 2.692L16.058 15 15 16.058l2.692 2.692L15 21.442l1.058 1.058 2.692-2.692 2.692 2.692 1.058-1.058-2.692-2.692Z"></path>
<path d="M18.75 3.75H16.5V3A1.504 1.504 0 0 0 15 1.5H9A1.504 1.504 0 0 0 7.5 3v.75H5.25a1.504 1.504 0 0 0-1.5 1.5V21a1.504 1.504 0 0 0 1.5 1.5H12V21H5.25V5.25H7.5V7.5h9V5.25h2.25v7.5h1.5v-7.5a1.504 1.504 0 0 0-1.5-1.5ZM15 6H9V3h6v3Z"></path>
</svg>