<svg width="32" height="32" fill="currentColor" viewBox="0 0 24 24" xmlns="http://www.w3.org/2000/svg">
<path d="M18 17.25a1.5 1.5 0 1 0 0-3 1.5 1.5 0 0 0 0 3Z"></path>
<path d="m18 23.25-3.584-4.801a4.451 4.451 0 0 1-.916-2.699 4.5 4.5 0 1 1 9 0 4.456 4.456 0 0 1-.918 2.702L18 23.25Zm0-10.5a3.003 3.003 0 0 0-3 3 2.97 2.97 0 0 0 .615 1.798L18 20.743l2.382-3.192A2.971 2.971 0 0 0 21 15.75a3.003 3.003 0 0 0-3-3Z"></path>
<path d="M18.75 3.75H16.5V3A1.504 1.504 0 0 0 15 1.5H9A1.504 1.504 0 0 0 7.5 3v.75H5.25a1.504 1.504 0 0 0-1.5 1.5V21a1.504 1.504 0 0 0 1.5 1.5H12V21H5.25V5.25H7.5V7.5h9V5.25h2.25V9h1.5V5.25a1.504 1.504 0 0 0-1.5-1.5ZM15 6H9V3h6v3Z"></path>
</svg>