<svg width="32" height="32" fill="currentColor" viewBox="0 0 24 24" xmlns="http://www.w3.org/2000/svg">
<path d="M16.875 19.5a2.625 2.625 0 1 1 0-5.25 2.625 2.625 0 0 1 0 5.25Zm0-3.75a1.125 1.125 0 1 0 0 2.25 1.125 1.125 0 0 0 0-2.25Z"></path>
<path d="M16.875 23.25a6.375 6.375 0 1 1 6.375-6.375 6.383 6.383 0 0 1-6.375 6.375Zm0-11.25a4.875 4.875 0 1 0 0 9.75 4.875 4.875 0 0 0 0-9.75Z"></path>
<path d="M18.75 3.75H16.5V3A1.504 1.504 0 0 0 15 1.5H9A1.504 1.504 0 0 0 7.5 3v.75H5.25a1.504 1.504 0 0 0-1.5 1.5V21a1.504 1.504 0 0 0 1.5 1.5H9V21H5.25V5.25H7.5V7.5h9V5.25h2.25V9h1.5V5.25a1.504 1.504 0 0 0-1.5-1.5ZM15 6H9V3h6v3Z"></path>
</svg>