<svg width="32" height="32" fill="currentColor" viewBox="0 0 24 24" xmlns="http://www.w3.org/2000/svg">
<path d="m22.043 12.06-5.018-2.152-1.905-3.255-.06-.09A1.5 1.5 0 0 0 13.89 6h-6a1.5 1.5 0 0 0-1.252.668L4.095 10.5H2.25a.75.75 0 0 0-.75.75V18a.75.75 0 0 0 .75.75h1.605a3 3 0 0 0 5.79 0h4.71a3 3 0 0 0 5.79 0h1.605a.75.75 0 0 0 .75-.75v-5.25a.75.75 0 0 0-.457-.69ZM6.75 19.5a1.5 1.5 0 1 1 0-3 1.5 1.5 0 0 1 0 3Zm10.5 0a1.5 1.5 0 1 1 0-3 1.5 1.5 0 0 1 0 3ZM21 17.25h-.855a3 3 0 0 0-5.79 0h-4.71a3 3 0 0 0-5.79 0H3V12h1.5a.75.75 0 0 0 .622-.338L7.905 7.5h6l1.973 3.375c.08.14.204.25.352.315L21 13.245v4.005Z"></path>
</svg>