<svg width="32" height="32" fill="currentColor" viewBox="0 0 24 24" xmlns="http://www.w3.org/2000/svg">
<path d="M10.5 6.75a3.699 3.699 0 0 0 3-1.49 3.764 3.764 0 0 0 6 0 3.699 3.699 0 0 0 3 1.49v-1.5a2.578 2.578 0 0 1-2.288-1.737.756.756 0 0 0-1.15-.374.742.742 0 0 0-.272.37A2.58 2.58 0 0 1 16.5 5.25a2.578 2.578 0 0 1-2.288-1.737.756.756 0 0 0-1.152-.377.728.728 0 0 0-.27.373A2.58 2.58 0 0 1 10.5 5.25h-.75V4.5a3 3 0 1 0-6 0v8.446a5.259 5.259 0 1 0 6.655.554h.095a3.7 3.7 0 0 0 3-1.49 3.764 3.764 0 0 0 6 0 3.699 3.699 0 0 0 3 1.49V12a2.578 2.578 0 0 1-2.288-1.737.756.756 0 0 0-1.15-.374.742.742 0 0 0-.272.37A2.58 2.58 0 0 1 16.5 12a2.578 2.578 0 0 1-2.288-1.737.756.756 0 0 0-1.152-.377.728.728 0 0 0-.27.373A2.58 2.58 0 0 1 10.5 12h-.75V6.75h.75ZM5.25 4.5a1.5 1.5 0 1 1 3 0V9h-3V4.5ZM6.75 21a3.747 3.747 0 0 1-1.874-6.994l.374-.217V10.5h3v3.29l.375.216A3.747 3.747 0 0 1 6.75 21Z"></path>
</svg>