<svg width="32" height="32" fill="currentColor" viewBox="0 0 24 24" xmlns="http://www.w3.org/2000/svg">
<path d="M22.5 6H18v4.5h1.5V8.656A4.455 4.455 0 0 1 21 12a4.503 4.503 0 0 1-3.821 4.443 5.271 5.271 0 0 0-2.18-3.497V4.5a3 3 0 1 0-6 0v8.446a5.246 5.246 0 1 0 8.198 5.01A5.985 5.985 0 0 0 20.449 7.5h2.05V6Zm-12-1.5a1.5 1.5 0 0 1 3 0v5.25h-3V4.5ZM12 21a3.747 3.747 0 0 1-1.874-6.994l.374-.217V11.25h3v2.54l.374.216A3.748 3.748 0 0 1 12 21Z"></path>
<path d="M1.5 7.5A6.03 6.03 0 0 0 3.551 12H1.5v1.5H6V9H4.5v1.844A4.455 4.455 0 0 1 3 7.5 4.505 4.505 0 0 1 7.5 3V1.5a6.007 6.007 0 0 0-6 6Z"></path>
</svg>