<svg width="32" height="32" fill="currentColor" viewBox="0 0 24 24" xmlns="http://www.w3.org/2000/svg">
<path d="M19.5 4.5v3h-15v-3h15Zm0-1.5h-15A1.5 1.5 0 0 0 3 4.5v3A1.5 1.5 0 0 0 4.5 9h15A1.5 1.5 0 0 0 21 7.5v-3A1.5 1.5 0 0 0 19.5 3Z"></path>
<path d="M7.5 12v7.5h-3V12h3Zm0-1.5h-3A1.5 1.5 0 0 0 3 12v7.5A1.5 1.5 0 0 0 4.5 21h3A1.5 1.5 0 0 0 9 19.5V12a1.5 1.5 0 0 0-1.5-1.5Z"></path>
<path d="M19.5 12v7.5H12V12h7.5Zm0-1.5H12a1.5 1.5 0 0 0-1.5 1.5v7.5A1.5 1.5 0 0 0 12 21h7.5a1.5 1.5 0 0 0 1.5-1.5V12a1.5 1.5 0 0 0-1.5-1.5Z"></path>
</svg>