<svg width="32" height="32" fill="currentColor" viewBox="0 0 24 24" xmlns="http://www.w3.org/2000/svg">
<path d="M20.25 3H15v1.5h5.25V3Z"></path>
<path d="M22.5 7.5H15V9h7.5V7.5Z"></path>
<path d="M20.25 12H15v1.5h5.25V12Z"></path>
<path d="M9 17.25a2.25 2.25 0 0 1-4.5 0H9Z"></path>
<path d="M22.5 16.5H11.939a5.258 5.258 0 0 0-1.44-2.917V5.25a3.75 3.75 0 0 0-7.5 0v8.333A5.246 5.246 0 1 0 11.94 18H22.5v-1.5ZM6.75 21a3.745 3.745 0 0 1-2.5-6.539l.25-.223V5.25a2.25 2.25 0 0 1 4.5 0v8.988l.249.223A3.745 3.745 0 0 1 6.749 21Z"></path>
</svg>