<svg width="32" height="32" fill="currentColor" viewBox="0 0 24 24" xmlns="http://www.w3.org/2000/svg">
<path d="M22.5 13.5H18a1.502 1.502 0 0 1-1.5-1.5V4.5A1.502 1.502 0 0 1 18 3h4.5v1.5H18V12h4.5v1.5Z"></path>
<path d="M13.5 4.5a1.5 1.5 0 1 0 0-3 1.5 1.5 0 0 0 0 3Z"></path>
<path d="M7.5 15.138V9H6v6.138a2.25 2.25 0 1 0 1.5 0Z"></path>
<path d="M6.75 22.5A5.245 5.245 0 0 1 3 13.583V5.25a3.75 3.75 0 0 1 7.5 0v8.333A5.245 5.245 0 0 1 6.75 22.5Zm0-19.5A2.253 2.253 0 0 0 4.5 5.25v8.988l-.249.223a3.75 3.75 0 1 0 4.998 0L9 14.238V5.25A2.253 2.253 0 0 0 6.75 3Z"></path>
</svg>