<svg width="32" height="32" fill="currentColor" viewBox="0 0 24 24" xmlns="http://www.w3.org/2000/svg">
<path d="M20.25 7.5H15V9h5.25V7.5Z"></path>
<path d="M22.5 12H15v1.5h7.5V12Z"></path>
<path d="M20.25 16.5H15V18h5.25v-1.5Z"></path>
<path d="M7.5 15.138V5.25H6v9.888a2.25 2.25 0 1 0 1.5 0Z"></path>
<path d="M22.5 3H9.73A3.737 3.737 0 0 0 3 5.25v8.333a5.25 5.25 0 1 0 7.5 0V5.25c0-.252-.025-.503-.076-.75H22.5V3ZM6.75 21a3.745 3.745 0 0 1-2.499-6.539l.249-.223V5.25a2.25 2.25 0 0 1 4.5 0v8.988l.249.223a3.744 3.744 0 0 1-2.499 6.54Z"></path>
</svg>