<svg width="32" height="32" fill="currentColor" viewBox="0 0 24 24" xmlns="http://www.w3.org/2000/svg">
<path d="M20.375 12.668 16.29 9.75l4.085-2.918 1.888.629.474-1.423L21 5.46V3.75h-1.5v1.864l-3.75 2.679V4.025l1.916-1.277-.832-1.248L15 2.723 13.166 1.5l-.832 1.248 1.916 1.277v4.268L12 6.686v1.843l1.71 1.221L12 10.971v1.844l2.25-1.608v5.07L16.834 18l.832-1.248-1.916-1.277v-4.268l3.75 2.68v1.863H21v-1.71l1.737-.579-.474-1.423-1.888.63Z"></path>
<path d="M9 17.25a2.25 2.25 0 0 1-4.5 0H9Z"></path>
<path d="M6.75 22.5A5.245 5.245 0 0 1 3 13.583V5.25a3.75 3.75 0 0 1 7.5 0v8.333A5.245 5.245 0 0 1 6.75 22.5Zm0-19.5A2.253 2.253 0 0 0 4.5 5.25v8.988l-.249.223a3.75 3.75 0 1 0 4.998 0L9 14.238V5.25A2.253 2.253 0 0 0 6.75 3Z"></path>
</svg>