<svg width="32" height="32" fill="currentColor" viewBox="0 0 24 24" xmlns="http://www.w3.org/2000/svg">
<path d="M22.5 9.75h-3v1.5h3v-1.5Z"></path>
<path d="M19.371 3.566 17.25 5.688l1.06 1.06 2.122-2.121-1.06-1.06Z"></path>
<path d="m18.31 14.252-1.06 1.06 2.121 2.122 1.06-1.06-2.12-2.122Z"></path>
<path d="M14.25 1.5h-1.5v3h1.5v-3Z"></path>
<path d="M13.5 6a4.527 4.527 0 0 0-.75.067v1.54c.244-.068.496-.104.75-.107a3 3 0 0 1 0 6V15a4.5 4.5 0 1 0 0-9Z"></path>
<path d="M7.5 15.138V5.25H6v9.888a2.25 2.25 0 1 0 1.5 0Z"></path>
<path d="M6.75 22.5A5.245 5.245 0 0 1 3 13.583V5.25a3.75 3.75 0 0 1 7.5 0v8.333A5.245 5.245 0 0 1 6.75 22.5Zm0-19.5A2.253 2.253 0 0 0 4.5 5.25v8.988l-.249.223a3.75 3.75 0 1 0 4.998 0L9 14.238V5.25A2.253 2.253 0 0 0 6.75 3Z"></path>
</svg>