<svg width="32" height="32" fill="currentColor" viewBox="0 0 24 24" xmlns="http://www.w3.org/2000/svg">
<path d="M19.5 22.5h-3A1.505 1.505 0 0 1 15 21v-5.25a1.505 1.505 0 0 1-1.5-1.5v-4.5a2.208 2.208 0 0 1 2.25-2.25h4.5a2.21 2.21 0 0 1 2.25 2.25v4.5a1.504 1.504 0 0 1-1.5 1.5V21a1.504 1.504 0 0 1-1.5 1.5ZM15.75 9a.708.708 0 0 0-.75.75v4.5h1.5V21h3v-6.75H21v-4.5a.71.71 0 0 0-.75-.75h-4.5Z"></path>
<path d="M18 6.75a3 3 0 1 1 3-3 3.009 3.009 0 0 1-3 3Zm0-4.5a1.5 1.5 0 1 0 0 3 1.5 1.5 0 0 0 0-3Z"></path>
<path d="M7.5 15.138V9H6v6.138a2.25 2.25 0 1 0 1.5 0Z"></path>
<path d="M6.75 22.5A5.245 5.245 0 0 1 3 13.583V5.25a3.75 3.75 0 0 1 7.5 0v8.333A5.245 5.245 0 0 1 6.75 22.5Zm0-19.5A2.253 2.253 0 0 0 4.5 5.25v8.988l-.249.223a3.75 3.75 0 1 0 4.998 0L9 14.238V5.25A2.253 2.253 0 0 0 6.75 3Z"></path>
</svg>