<svg width="32" height="32" fill="currentColor" viewBox="0 0 24 24" xmlns="http://www.w3.org/2000/svg">
<path d="M18 3a1.5 1.5 0 1 0-3 0 1.5 1.5 0 0 0 3 0Z"></path>
<path d="M8.25 12.001a.75.75 0 0 1-.53-1.28l5.25-5.25a.75.75 0 1 1 1.06 1.06l-5.25 5.25a.748.748 0 0 1-.53.22Z"></path>
<path d="M17.78 18.22a6.297 6.297 0 0 0-3.54-1.657c.15-.123.295-.252.434-.39a6.933 6.933 0 0 0 1.3-7.436l-1.408.523c.832 2.235.476 4.423-.954 5.851a5.022 5.022 0 0 1-4.17 1.354 7.332 7.332 0 0 1-4.33-2.09c-2.229-2.227-3.056-6.17-.735-8.49 1.43-1.428 3.62-1.784 5.858-.953l.524-1.406C7.995 2.5 5.143 2.997 3.316 4.825c-2.957 2.954-2.008 7.872.735 10.612a8.86 8.86 0 0 0 5.232 2.52c.157.016.311.017.467.024V18h3.747c1.19.04 2.33.493 3.223 1.28l3.22 3.22L21 21.44l-3.22-3.22Z"></path>
</svg>