<svg width="32" height="32" fill="currentColor" viewBox="0 0 24 24" xmlns="http://www.w3.org/2000/svg">
<path d="M14.25 3a6.736 6.736 0 0 0-6.127 9.566L1.5 19.19l1.06 1.061 6.366-6.366a6.77 6.77 0 0 0 1.19 1.19L7.5 17.689l1.06 1.061 2.874-2.873A6.746 6.746 0 1 0 14.25 3Zm5.18 5.93a5.254 5.254 0 0 1-4.36-4.36 5.254 5.254 0 0 1 4.36 4.36ZM9.07 10.57a5.254 5.254 0 0 1 4.36 4.36 5.253 5.253 0 0 1-4.36-4.36Zm5.877 4.378a6.757 6.757 0 0 0-5.895-5.896 5.253 5.253 0 0 1 4.5-4.5 6.757 6.757 0 0 0 5.896 5.896 5.253 5.253 0 0 1-4.5 4.5Z"></path>
</svg>