<svg width="32" height="32" fill="currentColor" viewBox="0 0 24 24" xmlns="http://www.w3.org/2000/svg">
<path d="M21 19.5h-2.25V18H21V6h-2.25V4.5H21A1.502 1.502 0 0 1 22.5 6v12a1.502 1.502 0 0 1-1.5 1.5Z"></path>
<path d="M17.25 13.5a1.5 1.5 0 1 0 0-3 1.5 1.5 0 0 0 0 3Z"></path>
<path d="M12 13.5a1.5 1.5 0 1 0 0-3 1.5 1.5 0 0 0 0 3Z"></path>
<path d="M6.75 13.5a1.5 1.5 0 1 0 0-3 1.5 1.5 0 0 0 0 3Z"></path>
<path d="M5.25 19.5H3A1.502 1.502 0 0 1 1.5 18V6A1.502 1.502 0 0 1 3 4.5h2.25V6H3v12h2.25v1.5Z"></path>
</svg>