<svg width="32" height="32" fill="currentColor" viewBox="0 0 24 24" xmlns="http://www.w3.org/2000/svg">
<path d="M14.03 20.69a3.947 3.947 0 0 1-2.792-6.738l1.061 1.06a2.448 2.448 0 1 0 3.462 3.463l4.522-4.523a2.448 2.448 0 0 0-3.462-3.462l-1.06-1.06a3.948 3.948 0 0 1 5.583 5.583l-4.523 4.522a3.934 3.934 0 0 1-2.791 1.155Z"></path>
<path d="M7.698 22.497a3.946 3.946 0 0 1-2.792-6.737l4.523-4.523a3.946 3.946 0 0 1 6.75 2.789 3.947 3.947 0 0 1-1.167 2.794l-1.06-1.06a2.446 2.446 0 0 0-.79-4.002 2.448 2.448 0 0 0-2.673.54L5.967 16.82a2.448 2.448 0 0 0 3.462 3.462l1.06 1.061a3.933 3.933 0 0 1-2.79 1.154Z"></path>
<path d="M7.5 7.5h-6V9h6V7.5Z"></path>
<path d="M10.5 4.5h-9V6h9V4.5Z"></path>
<path d="M10.5 1.5h-9V3h9V1.5Z"></path>
</svg>