<svg width="32" height="32" fill="currentColor" viewBox="0 0 24 24" xmlns="http://www.w3.org/2000/svg">
<path d="M20.25 16.602v-9.21a3 3 0 1 0-3.645-3.645h-9.21A3 3 0 1 0 3.75 7.392v9.21a3 3 0 1 0 3.645 3.645h9.21a3 3 0 1 0 3.645-3.645ZM19.5 2.997a1.5 1.5 0 1 1 0 3 1.5 1.5 0 0 1 0-3ZM3 4.497a1.5 1.5 0 1 1 3 0 1.5 1.5 0 0 1-3 0Zm1.5 16.5a1.5 1.5 0 1 1 0-3 1.5 1.5 0 0 1 0 3Zm12.105-2.25h-9.21a3 3 0 0 0-2.145-2.145v-9.21a3 3 0 0 0 2.145-2.145h9.21a3 3 0 0 0 2.145 2.145v9.21a3 3 0 0 0-2.145 2.145Zm2.895 2.25a1.5 1.5 0 1 1 0-3 1.5 1.5 0 0 1 0 3Z"></path>
<path d="M15.75 8.25h-7.5v1.5h3v6.75h1.5V9.75h3v-1.5Z"></path>
</svg>