<svg width="32" height="32" fill="currentColor" viewBox="0 0 24 24" xmlns="http://www.w3.org/2000/svg">
<path d="M9 11.25H3.75A2.25 2.25 0 0 1 1.5 9V7.5a2.25 2.25 0 0 1 2.25-2.25H7.5v-1.5A.75.75 0 0 0 6.75 3h-4.5V1.5h4.5A2.25 2.25 0 0 1 9 3.75v7.5Zm-5.25-4.5A.75.75 0 0 0 3 7.5V9a.75.75 0 0 0 .75.75H7.5v-3H3.75Z"></path>
<path d="M15 17.25v1.5a.75.75 0 0 0 .75.75h3.75v-3h-3.75a.75.75 0 0 0-.75.75Z"></path>
<path d="M1.5 22.5h21v-21l-21 21ZM21 21h-5.25a2.25 2.25 0 0 1-2.25-2.25v-1.5A2.25 2.25 0 0 1 15.75 15h3.75v-1.5a.75.75 0 0 0-.75-.75h-4.5v-1.5h4.5A2.25 2.25 0 0 1 21 13.5V21Z"></path>
</svg>