<svg width="32" height="32" fill="currentColor" viewBox="0 0 24 24" xmlns="http://www.w3.org/2000/svg">
<path d="M22.153 10.32 19.68 7.847a1.19 1.19 0 0 0-1.68 0L7.5 18.35v4.15h4.15L22.152 12a1.19 1.19 0 0 0 0-1.68ZM11.028 21H9v-2.028l7.08-7.08 2.029 2.027L11.029 21Zm8.141-8.141-2.028-2.028 1.7-1.7 2.029 2.027-1.7 1.7Z"></path>
<path d="M8.25 12.75h1.5V7.5H12V6H6v1.5h2.25v5.25Z"></path>
<path d="M6 15H3V3h12v3h1.5V3A1.5 1.5 0 0 0 15 1.5H3A1.5 1.5 0 0 0 1.5 3v12A1.5 1.5 0 0 0 3 16.5h3V15Z"></path>
</svg>