<svg width="32" height="32" fill="currentColor" viewBox="0 0 24 24" xmlns="http://www.w3.org/2000/svg">
<path d="M22.5 9.75h-12v1.5h12v-1.5Z"></path>
<path d="M22.5 21H11.25v1.5H22.5V21Z"></path>
<path d="M19.387 20.25H21l-3.27-7.5h-1.71l-3.27 7.5h1.613l.6-1.5h3.825l.6 1.5Zm-3.825-3 1.313-3.277 1.313 3.277h-2.625Z"></path>
<path d="M19.387 9H21l-3.27-7.5h-1.71L12.75 9h1.613l.6-1.5h3.825l.6 1.5Zm-3.825-3 1.313-3.277L18.188 6h-2.625Z"></path>
<path d="m4.5 11.873 1.935 1.934L7.5 12.75l-3-3-3 3 1.058 1.065L4.5 11.873Z"></path>
<path d="m4.5 20.38-1.935-1.935L1.5 19.503l3 3 3-3-1.058-1.066L4.5 20.38Z"></path>
</svg>