<svg width="32" height="32" fill="currentColor" viewBox="0 0 24 24" xmlns="http://www.w3.org/2000/svg">
<path d="M21 20.25h-5.25A2.25 2.25 0 0 1 13.5 18v-1.5a2.25 2.25 0 0 1 2.25-2.25h3.75v-1.5a.75.75 0 0 0-.75-.75h-4.5v-1.5h4.5A2.25 2.25 0 0 1 21 12.75v7.5Zm-5.25-4.5a.75.75 0 0 0-.75.75V18a.75.75 0 0 0 .75.75h3.75v-3h-3.75Z"></path>
<path d="M9.75 5.25H12v-1.5H9.75A3 3 0 0 0 7.5 4.785 3 3 0 0 0 5.25 3.75H3v1.5h2.25a1.5 1.5 0 0 1 1.5 1.5v3.75h-3V12h3v5.25a1.5 1.5 0 0 1-1.5 1.5H3v1.5h2.25a3 3 0 0 0 2.25-1.035 3 3 0 0 0 2.25 1.035H12v-1.5H9.75a1.5 1.5 0 0 1-1.5-1.5V12h3v-1.5h-3V6.75a1.5 1.5 0 0 1 1.5-1.5Z"></path>
</svg>