<svg width="32" height="32" fill="currentColor" viewBox="0 0 24 24" xmlns="http://www.w3.org/2000/svg">
<path d="M15 18.747a5.243 5.243 0 0 1-4.375-2.346l1.25-.83a3.75 3.75 0 0 0 6.25 0l1.25.83A5.243 5.243 0 0 1 15 18.747Z"></path>
<path d="M18 10.5a1.5 1.5 0 1 0 1.5 1.5 1.486 1.486 0 0 0-1.5-1.5Z"></path>
<path d="M12 10.5a1.5 1.5 0 1 0 1.5 1.5 1.486 1.486 0 0 0-1.5-1.5Z"></path>
<path d="M21 6h-4.5V3A1.502 1.502 0 0 0 15 1.5H3A1.502 1.502 0 0 0 1.5 3v7.5a7.508 7.508 0 0 0 6.602 7.441A7.499 7.499 0 0 0 22.5 15V7.5A1.502 1.502 0 0 0 21 6ZM3 10.5V3h12v3H9a1.502 1.502 0 0 0-1.5 1.5V15c.002.448.044.895.126 1.335A6.006 6.006 0 0 1 3 10.5ZM21 15a6 6 0 1 1-12 0V7.5h12V15Z"></path>
</svg>