<svg width="32" height="32" fill="currentColor" viewBox="0 0 24 24" xmlns="http://www.w3.org/2000/svg">
<path d="M6 22.5H3A1.5 1.5 0 0 1 1.5 21v-3A1.5 1.5 0 0 1 3 16.5h3A1.5 1.5 0 0 1 7.5 18v3A1.5 1.5 0 0 1 6 22.5ZM3 18v3h3v-3H3Z"></path>
<path d="M13.5 22.5h-3A1.5 1.5 0 0 1 9 21v-3a1.5 1.5 0 0 1 1.5-1.5h3A1.5 1.5 0 0 1 15 18v3a1.5 1.5 0 0 1-1.5 1.5Zm-3-4.5v3h3v-3h-3Z"></path>
<path d="M21 22.5h-3a1.5 1.5 0 0 1-1.5-1.5v-3a1.5 1.5 0 0 1 1.5-1.5h3a1.5 1.5 0 0 1 1.5 1.5v3a1.5 1.5 0 0 1-1.5 1.5ZM18 18v3h3v-3h-3Z"></path>
<path d="M21 15H3a1.5 1.5 0 0 1-1.5-1.5V3A1.5 1.5 0 0 1 3 1.5h18A1.5 1.5 0 0 1 22.5 3v10.5A1.5 1.5 0 0 1 21 15ZM3 3v10.5h18V3H3Z"></path>
</svg>