<svg width="32" height="32" fill="currentColor" viewBox="0 0 24 24" xmlns="http://www.w3.org/2000/svg">
<path d="M6 22.5H3A1.5 1.5 0 0 1 1.5 21v-3A1.5 1.5 0 0 1 3 16.5h3A1.5 1.5 0 0 1 7.5 18v3A1.5 1.5 0 0 1 6 22.5ZM3 18v3h3v-3H3Z"></path>
<path d="M13.5 22.5h-3A1.5 1.5 0 0 1 9 21v-3a1.5 1.5 0 0 1 1.5-1.5h3A1.5 1.5 0 0 1 15 18v3a1.5 1.5 0 0 1-1.5 1.5Zm-3-4.5v3h3v-3h-3Z"></path>
<path d="M21 22.5h-3a1.5 1.5 0 0 1-1.5-1.5v-3a1.5 1.5 0 0 1 1.5-1.5h3a1.5 1.5 0 0 1 1.5 1.5v3a1.5 1.5 0 0 1-1.5 1.5ZM18 18v3h3v-3h-3Z"></path>
<path d="M6 15H3a1.5 1.5 0 0 1-1.5-1.5v-3A1.5 1.5 0 0 1 3 9h3a1.5 1.5 0 0 1 1.5 1.5v3A1.5 1.5 0 0 1 6 15Zm-3-4.5v3h3v-3H3Z"></path>
<path d="M13.5 15h-3A1.5 1.5 0 0 1 9 13.5v-3A1.5 1.5 0 0 1 10.5 9h3a1.5 1.5 0 0 1 1.5 1.5v3a1.5 1.5 0 0 1-1.5 1.5Zm-3-4.5v3h3v-3h-3Z"></path>
<path d="M21 15h-3a1.5 1.5 0 0 1-1.5-1.5v-3A1.5 1.5 0 0 1 18 9h3a1.5 1.5 0 0 1 1.5 1.5v3A1.5 1.5 0 0 1 21 15Zm-3-4.5v3h3v-3h-3Z"></path>
<path d="M6 7.5H3A1.5 1.5 0 0 1 1.5 6V3A1.5 1.5 0 0 1 3 1.5h3A1.5 1.5 0 0 1 7.5 3v3A1.5 1.5 0 0 1 6 7.5ZM3 3v3h3V3H3Z"></path>
<path d="M13.5 7.5h-3A1.5 1.5 0 0 1 9 6V3a1.5 1.5 0 0 1 1.5-1.5h3A1.5 1.5 0 0 1 15 3v3a1.5 1.5 0 0 1-1.5 1.5Zm-3-4.5v3h3V3h-3Z"></path>
<path d="M21 7.5h-3A1.5 1.5 0 0 1 16.5 6V3A1.5 1.5 0 0 1 18 1.5h3A1.5 1.5 0 0 1 22.5 3v3A1.5 1.5 0 0 1 21 7.5ZM18 3v3h3V3h-3Z"></path>
</svg>