<svg width="32" height="32" fill="currentColor" viewBox="0 0 24 24" xmlns="http://www.w3.org/2000/svg">
<path d="M21 9H3a1.502 1.502 0 0 0-1.5 1.5V21A1.501 1.501 0 0 0 3 22.5h18a1.502 1.502 0 0 0 1.5-1.5V10.5A1.502 1.502 0 0 0 21 9Zm-6 12H9v-.75a.75.75 0 0 1 .75-.75h4.5a.75.75 0 0 1 .75.75V21Zm6 0h-4.5v-.75A2.253 2.253 0 0 0 14.25 18h-4.5a2.253 2.253 0 0 0-2.25 2.25V21H3V10.5h18.002L21 21Z"></path>
<path d="M12 17.25a3 3 0 1 1 0-5.999 3 3 0 0 1 0 5.999Zm0-4.5a1.5 1.5 0 1 0 0 3 1.5 1.5 0 0 0 0-3Z"></path>
<path d="M22.5 3v3A1.502 1.502 0 0 1 21 7.5h-3A1.502 1.502 0 0 1 16.5 6V3A1.502 1.502 0 0 1 18 1.5h3A1.502 1.502 0 0 1 22.5 3ZM21 6l.002-3H18v3h3Z"></path>
<path d="M15 3v3a1.502 1.502 0 0 1-1.5 1.5h-3A1.502 1.502 0 0 1 9 6V3a1.502 1.502 0 0 1 1.5-1.5h3A1.502 1.502 0 0 1 15 3Zm-1.5 3 .002-3H10.5v3h3Z"></path>
<path d="M7.5 3v3A1.502 1.502 0 0 1 6 7.5H3A1.502 1.502 0 0 1 1.5 6V3A1.502 1.502 0 0 1 3 1.5h3A1.502 1.502 0 0 1 7.5 3ZM6 6l.001-3H3v3h3Z"></path>
</svg>