<svg width="32" height="32" fill="currentColor" viewBox="0 0 24 24" xmlns="http://www.w3.org/2000/svg">
<path d="M15.75 22.5a.75.75 0 0 1-.67-1.085l1.5-3a.75.75 0 0 1 1.34.67l-1.5 3a.748.748 0 0 1-.67.415Z"></path>
<path d="M6.75 24a.75.75 0 0 1-.67-1.085l1.5-3a.75.75 0 0 1 1.34.67l-1.5 3a.748.748 0 0 1-.67.415Z"></path>
<path d="m11.926 22.869-1.302-.744 2.358-4.128h-4.5l3.642-6.372 1.302.744-2.36 4.128h4.502l-3.642 6.372Z"></path>
<path d="M18.6 6.852a6.746 6.746 0 0 0-13.2 0 4.87 4.87 0 0 0 .172 9.576l-.993 1.987a.75.75 0 1 0 1.342.67l1.5-3a.75.75 0 0 0-.336-1.006.733.733 0 0 0-.335-.071V15h-.375a3.373 3.373 0 0 1-.267-6.736l.611-.048.075-.609a5.245 5.245 0 0 1 10.412 0l.074.61.612.047A3.373 3.373 0 0 1 17.625 15h-.375v1.5h.375a4.873 4.873 0 0 0 .975-9.648Z"></path>
</svg>