<svg width="32" height="32" fill="currentColor" viewBox="0 0 24 24" xmlns="http://www.w3.org/2000/svg">
<path d="M15.75 22.503a.75.75 0 0 1-.67-1.085l1.5-3a.751.751 0 0 1 1.42.387.75.75 0 0 1-.08.283l-1.5 3a.749.749 0 0 1-.67.415Z"></path>
<path d="M6.75 24.003a.75.75 0 0 1-.67-1.085l1.5-3a.75.75 0 1 1 1.34.67l-1.5 3a.749.749 0 0 1-.67.415Z"></path>
<path d="m11.926 22.869-1.302-.744 2.358-4.128h-4.5l3.642-6.372 1.302.744-2.36 4.128h4.502l-3.642 6.372Z"></path>
<path d="M20.964 11.25c.019.124.031.25.036.375A3.379 3.379 0 0 1 17.625 15h-.375v1.5h.375a4.88 4.88 0 0 0 4.875-4.875c0-.127-.023-.25-.033-.375h-1.503Z"></path>
<path d="M23.933 8.952 19.221.278a.538.538 0 0 0-.943 0l-4.712 8.674a.54.54 0 0 0 .474.798h9.42a.54.54 0 0 0 .473-.798ZM18.187 3h1.125v3h-1.125V3Zm.563 5.25a.75.75 0 1 1 0-1.5.75.75 0 0 1 0 1.5Z"></path>
<path d="m6.108 8.264.611-.048.075-.609A5.24 5.24 0 0 1 14.27 3.52L15 2.21a6.733 6.733 0 0 0-9.6 4.642 4.87 4.87 0 0 0 .172 9.576l-.993 1.987a.75.75 0 1 0 1.342.67l1.5-3a.75.75 0 0 0-.336-1.006.734.734 0 0 0-.335-.071V15h-.375a3.373 3.373 0 0 1-.267-6.736Z"></path>
</svg>