<svg width="32" height="32" fill="currentColor" viewBox="0 0 24 24" xmlns="http://www.w3.org/2000/svg">
<path d="M10.004 22.5 8.7 21.75l1.716-3H7.5l2.995-5.25 1.303.75-1.713 3h2.918l-3 5.25Z"></path>
<path d="M20.25 8.25a4.497 4.497 0 0 0-8.525-2.002 5.512 5.512 0 0 0-1.6-.248 5.663 5.663 0 0 0-5.362 3.933A4.495 4.495 0 0 0 6 18.75v-1.5a2.994 2.994 0 0 1-.505-5.947l.497-.084.11-.493a4.122 4.122 0 0 1 8.047 0l.11.493.496.084a2.994 2.994 0 0 1-.505 5.947v1.5a4.49 4.49 0 0 0 3.912-6.71 4.496 4.496 0 0 0 2.088-3.79Zm-3.055 2.617a4.47 4.47 0 0 0-1.708-.934 5.637 5.637 0 0 0-2.39-3.051 2.99 2.99 0 1 1 4.098 3.985Z"></path>
<path d="m19.849 12.659 1.59 1.591 1.061-1.06-1.59-1.592-1.061 1.061Z"></path>
<path d="M24 7.5h-2.25V9H24V7.5Z"></path>
<path d="m21.44 2.253-1.591 1.59 1.06 1.061 1.591-1.59-1.06-1.061Z"></path>
<path d="M16.5 0H15v2.25h1.5V0Z"></path>
<path d="m9 3.307 1.59 1.591 1.062-1.06-1.591-1.591L9 3.307Z"></path>
</svg>