<svg width="32" height="32" fill="currentColor" viewBox="0 0 24 24" xmlns="http://www.w3.org/2000/svg">
<path d="M10.004 22.5 8.7 21.75l1.716-3H7.5l2.995-5.25 1.303.75-1.713 3h2.918l-3 5.25Z"></path>
<path d="M22.383 9.776a1.14 1.14 0 0 0-.923-.65 4.017 4.017 0 0 1-2.557-1.286 4.849 4.849 0 0 1-.964-4.795 1.204 1.204 0 0 0-.225-1.16 1.091 1.091 0 0 0-1.02-.369l-.014.003a5.89 5.89 0 0 0-4.579 4.86A5.53 5.53 0 0 0 10.125 6a5.663 5.663 0 0 0-5.362 3.934A4.494 4.494 0 0 0 6 18.75v-1.5a2.994 2.994 0 0 1-.505-5.947l.497-.085.11-.492a4.122 4.122 0 0 1 8.047 0l.109.492.497.085a2.993 2.993 0 0 1-.505 5.947v1.5a4.467 4.467 0 0 0 4.41-5.36 5.625 5.625 0 0 0 3.65-2.474 1.152 1.152 0 0 0 .073-1.14Zm-4.27 2.188a4.475 4.475 0 0 0-2.626-2.031 5.63 5.63 0 0 0-1.965-2.77 4.507 4.507 0 0 1 2.827-4 6.345 6.345 0 0 0 1.455 5.697 5.553 5.553 0 0 0 2.926 1.67 4.081 4.081 0 0 1-2.616 1.434Z"></path>
</svg>