<svg width="32" height="32" fill="currentColor" viewBox="0 0 24 24" xmlns="http://www.w3.org/2000/svg">
<path d="M21.75 10.5a.75.75 0 0 0 .75-.75V6A1.5 1.5 0 0 0 21 4.5H3A1.5 1.5 0 0 0 1.5 6v3.75a.75.75 0 0 0 .75.75 1.5 1.5 0 1 1 0 3 .75.75 0 0 0-.75.75V18A1.5 1.5 0 0 0 3 19.5h18a1.5 1.5 0 0 0 1.5-1.5v-3.75a.75.75 0 0 0-.75-.75 1.5 1.5 0 1 1 0-3ZM21 14.902V18h-5.25v-2.25h-1.5V18H3v-3.098a3 3 0 0 0 0-5.804V6h11.25v2.25h1.5V6H21v3.098a3 3 0 0 0 0 5.804Z"></path>
<path d="M15.75 9.75h-1.5v4.5h1.5v-4.5Z"></path>
</svg>