<svg width="32" height="32" fill="currentColor" viewBox="0 0 24 24" xmlns="http://www.w3.org/2000/svg">
<path d="M10.5 5.25 6.75 1.5 3 5.25l1.06 1.062L6 4.375V10.5h1.5V4.375L9.44 6.31l1.06-1.06Z"></path>
<path d="M19.94 5.69 18 7.624V1.5h-1.5v6.125l-1.94-1.937L13.5 6.75l3.75 3.75L21 6.75l-1.06-1.06Z"></path>
<path d="M15 15a2.579 2.579 0 0 1-2.289-1.737.755.755 0 0 0-1.149-.374.742.742 0 0 0-.272.37A2.58 2.58 0 0 1 9 15a2.579 2.579 0 0 1-2.288-1.737A.755.755 0 0 0 6 12.75a.728.728 0 0 0-.71.51A2.58 2.58 0 0 1 3 15H1.5v1.5H3a3.7 3.7 0 0 0 3-1.49 3.764 3.764 0 0 0 6 0 3.698 3.698 0 0 0 3 1.49h7.5V15H15Z"></path>
<path d="M21 21a2.579 2.579 0 0 1-2.288-1.737.755.755 0 0 0-1.15-.374.742.742 0 0 0-.272.37A2.58 2.58 0 0 1 15 21a2.579 2.579 0 0 1-2.289-1.737.755.755 0 0 0-.711-.513.728.728 0 0 0-.71.51A2.58 2.58 0 0 1 9 21H1.5v1.5H9a3.7 3.7 0 0 0 3-1.49 3.764 3.764 0 0 0 6 0 3.698 3.698 0 0 0 3 1.49h1.5V21H21Z"></path>
</svg>