<svg width="32" height="32" fill="currentColor" viewBox="0 0 24 24" xmlns="http://www.w3.org/2000/svg">
<path d="m6.686 18.378 3.192-3.192-1.06-1.061-3.193 3.193-.595-.595a.75.75 0 0 0-1.06 0l-3 3a.75.75 0 0 0 0 1.06l2.25 2.25a.749.749 0 0 0 1.06 0l3-3a.75.75 0 0 0 0-1.06l-.594-.595ZM3.75 21.443l-1.19-1.19 1.94-1.94 1.19 1.19-1.94 1.94Z"></path>
<path d="M18 22.5a4.505 4.505 0 0 1-4.5-4.5c0-.392.054-.782.158-1.16L7.16 10.342a4.482 4.482 0 0 1-5.343-5.98l.418-1.066L4.72 5.78a.768.768 0 0 0 1.06 0 .75.75 0 0 0 0-1.06L3.295 2.234l1.068-.418a4.483 4.483 0 0 1 5.979 5.344l6.498 6.498a4.48 4.48 0 0 1 5.343 5.98l-.418 1.066-2.485-2.484a.767.767 0 0 0-1.06 0 .75.75 0 0 0 0 1.06l2.484 2.485-1.066.418A4.47 4.47 0 0 1 18 22.5ZM7.547 8.607l7.846 7.846-.18.457a2.982 2.982 0 0 0 2.6 4.084l-.654-.653a2.25 2.25 0 0 1 0-3.182 2.304 2.304 0 0 1 3.182 0l.653.654a2.983 2.983 0 0 0-4.084-2.6l-.457.18-7.845-7.846.18-.457a2.982 2.982 0 0 0-2.6-4.084l.653.653a2.25 2.25 0 0 1 0 3.182 2.304 2.304 0 0 1-3.182 0l-.653-.653A2.981 2.981 0 0 0 7.09 8.787l.457-.18Z"></path>
<path d="M21.842 2.137a2.304 2.304 0 0 0-3.182 0l-5.61 5.61 1.06 1.061 5.61-5.61a.768.768 0 0 1 1.061 0 .752.752 0 0 1 0 1.06l-5.61 5.61 1.06 1.061 5.61-5.61a2.252 2.252 0 0 0 0-3.182Z"></path>
</svg>