<svg width="32" height="32" fill="currentColor" viewBox="0 0 24 24" xmlns="http://www.w3.org/2000/svg">
<path d="m22.061 16.25-4.751-4.752 4.75-4.75a1.5 1.5 0 0 0 .002-2.122l-.002-.001-2.685-2.685a1.5 1.5 0 0 0-2.121-.001h-.001l-4.75 4.75-4.753-4.75a1.503 1.503 0 0 0-2.12 0L1.938 5.63a1.5 1.5 0 0 0 0 2.121l4.75 4.751-5.189 5.19V22.5h4.808l5.19-5.19 4.75 4.753a1.505 1.505 0 0 0 2.123 0l3.69-3.692a1.5 1.5 0 0 0 0-2.121ZM18.31 2.997l2.693 2.693-4.75 4.75-2.693-2.692 4.75-4.75ZM6 21H3v-2.694l4.747-4.746 2.758 2.758L6 21Zm11.31.003L3 6.69 6.691 3l2.842 2.84-1.69 1.69 1.062 1.06 1.688-1.69L13.69 10 12 11.688l1.062 1.06 1.689-1.689 3.097 3.098-1.688 1.688 1.06 1.061 1.689-1.688 2.093 2.093-3.692 3.692Z"></path>
</svg>