<svg width="32" height="32" fill="currentColor" viewBox="0 0 24 24" xmlns="http://www.w3.org/2000/svg">
<path d="M15 18h-1.5A3.75 3.75 0 0 1 6 18H4.5A5.25 5.25 0 0 0 15 18Z"></path>
<path d="M21 10.5V6A5.256 5.256 0 0 0 15.75.75H12a4.61 4.61 0 0 0-3.08 1.175l-6.008 5.48a2.249 2.249 0 0 0 2.911 3.413L7.5 9.673V18a2.25 2.25 0 0 0 4.5 0v-3.888a2.205 2.205 0 0 0 2.647-.913c.335.195.715.299 1.103.301a2.245 2.245 0 0 0 1.897-1.051c.335.195.715.299 1.103.301A2.253 2.253 0 0 0 21 10.5Zm-1.5 0a.75.75 0 1 1-1.5 0v-.75h-1.5v1.5a.75.75 0 1 1-1.5 0v-1.5h-1.5V12a.75.75 0 1 1-1.5 0V9.75h-1.5V18A.75.75 0 1 1 9 18V6.828L4.95 9.601a.75.75 0 0 1-.981-1.129l5.963-5.438A3.111 3.111 0 0 1 12 2.25h3.75A3.755 3.755 0 0 1 19.5 6v4.5Z"></path>
</svg>