<svg width="32" height="32" fill="currentColor" viewBox="0 0 24 24" xmlns="http://www.w3.org/2000/svg">
<path d="M19.5 15.75V15a.75.75 0 0 1 1.5 0v7.5h1.5V15a2.252 2.252 0 0 0-2.25-2.25 2.223 2.223 0 0 0-1.103.301 2.216 2.216 0 0 0-3-.75 2.245 2.245 0 0 0-1.897-1.051c-.256.002-.51.05-.75.138V7.5a2.25 2.25 0 1 0-4.5 0v8.328l-1.676-1.147v.001a2.25 2.25 0 0 0-2.911 3.413L9.242 22.5l1.01-1.108-4.783-4.364a.743.743 0 0 1-.107-.922.75.75 0 0 1 1.088-.207l4.05 2.773V7.5a.75.75 0 0 1 1.5 0v8.25h1.5V13.5a.75.75 0 0 1 1.5 0v2.25h1.5v-1.5a.75.75 0 0 1 1.5 0v1.5h1.5Z"></path>
<path d="M21 9h-4.5V7.5H21V3H3v4.5h3V9H3a1.502 1.502 0 0 1-1.5-1.5V3A1.502 1.502 0 0 1 3 1.5h18A1.502 1.502 0 0 1 22.5 3v4.5A1.502 1.502 0 0 1 21 9Z"></path>
</svg>