<svg width="32" height="32" fill="currentColor" viewBox="0 0 24 24" xmlns="http://www.w3.org/2000/svg">
<path d="M15 6h-1.5A3.75 3.75 0 0 0 6 6H4.5A5.25 5.25 0 1 1 15 6Z"></path>
<path d="M18.75 11.25a2.205 2.205 0 0 0-1.103.3 2.25 2.25 0 0 0-1.897-1.05 2.205 2.205 0 0 0-1.103.3A2.25 2.25 0 0 0 12 9.885V6a2.25 2.25 0 0 0-4.5 0v8.325l-1.673-1.14A2.197 2.197 0 0 0 4.5 12.75a2.25 2.25 0 0 0-1.59 3.848l6 5.475A4.62 4.62 0 0 0 12 23.25h3.75A5.25 5.25 0 0 0 21 18v-4.5a2.25 2.25 0 0 0-2.25-2.25ZM19.5 18a3.75 3.75 0 0 1-3.75 3.75H12A3.128 3.128 0 0 1 9.93 21l-5.963-5.475a.75.75 0 0 1-.105-.92.75.75 0 0 1 1.088-.205L9 17.175V6a.75.75 0 0 1 1.5 0v8.25H12V12a.75.75 0 1 1 1.5 0v2.25H15v-1.5a.75.75 0 1 1 1.5 0v1.5H18v-.75a.75.75 0 1 1 1.5 0V18Z"></path>
</svg>