<svg width="32" height="32" fill="currentColor" viewBox="0 0 24 24" xmlns="http://www.w3.org/2000/svg">
<path d="M12.75 15.75h-4.5v1.5h4.5v-1.5Z"></path>
<path d="m18.184 6 1.286 4.5h3.03V9h-1.898l-.975-3.412A1.506 1.506 0 0 0 18.184 4.5h-1.011l-.547-1.912A1.506 1.506 0 0 0 15.184 1.5H5.816a1.506 1.506 0 0 0-1.442 1.088L3.398 6H1.5v1.5h3.03L5.816 3h9.368l.429 1.5H8.816a1.506 1.506 0 0 0-1.442 1.088L6.613 8.25h-.827a1.499 1.499 0 0 0-1.419 1.014L3.43 12H1.5v1.5H3v5.25a1.502 1.502 0 0 0 1.5 1.5v2.25H6v-2.25h9v2.25h1.5v-2.25a1.502 1.502 0 0 0 1.5-1.5V13.5h1.5V12h-1.928l-.939-2.736a1.5 1.5 0 0 0-1.419-1.014H8.173L8.816 6h9.368ZM16.5 14.25v1.5H15v1.5h1.5v1.5h-12v-1.5H6v-1.5H4.5v-1.5h12Zm-.257-1.5H4.757l1.029-3h9.428l1.029 3Z"></path>
</svg>