<svg width="32" height="32" fill="currentColor" viewBox="0 0 24 24" xmlns="http://www.w3.org/2000/svg">
<path d="M19.5 7.065 18.442 6l-1.938 1.939-.004-.004-.004.004-1.931-1.931L13.5 7.065 15.435 9 13.5 10.935 14.557 12l1.94-1.939.003.004.004-.004 1.931 1.931 1.065-1.057L17.565 9 19.5 7.065Z"></path>
<path d="M10.5 13.065 9.443 12l-1.94 1.939-.003-.004-.004.004-1.931-1.931L4.5 13.065 6.435 15 4.5 16.935 5.558 18l1.938-1.939.004.004.004-.004 1.931 1.931 1.065-1.057L8.565 15l1.935-1.935Z"></path>
<path d="M3 1.5H1.5v21H3v-21Z"></path>
<path d="M22.5 1.5H21v21h1.5v-21Z"></path>
<path d="M12.75 1.5h-1.5v3h1.5v-3Z"></path>
<path d="M12.75 7.5h-1.5v3h1.5v-3Z"></path>
<path d="M12.75 13.5h-1.5v3h1.5v-3Z"></path>
<path d="M12.75 19.5h-1.5v3h1.5v-3Z"></path>
</svg>