<svg width="32" height="32" fill="currentColor" viewBox="0 0 24 24" xmlns="http://www.w3.org/2000/svg">
<path d="M3 18H1.5v4.5H3V18Z"></path>
<path d="M22.5 1.5H21v21h1.5v-21Z"></path>
<path d="M12.75 1.5h-1.5v3h1.5v-3Z"></path>
<path d="M12.75 7.5h-1.5v3h1.5v-3Z"></path>
<path d="M12.75 13.5h-1.5v3h1.5v-3Z"></path>
<path d="M12.75 19.5h-1.5v3h1.5v-3Z"></path>
<path d="M4.5 9a2.923 2.923 0 0 1-3-2.833 2.926 2.926 0 0 1 .49-1.548l1.887-2.808a.779.779 0 0 1 1.245 0l1.865 2.771c.318.47.496 1.019.513 1.585A2.923 2.923 0 0 1 4.5 9Zm0-5.428L3.258 5.42A1.42 1.42 0 0 0 3 6.168 1.426 1.426 0 0 0 4.5 7.5 1.426 1.426 0 0 0 6 6.167a1.485 1.485 0 0 0-.281-.785L4.5 3.572Z"></path>
<path d="m8.25 8.82-1.242 1.847a1.42 1.42 0 0 0-.258.748 1.425 1.425 0 0 0 1.5 1.333 1.425 1.425 0 0 0 1.5-1.333 1.485 1.485 0 0 0-.281-.785L8.25 8.82Z"></path>
<path d="m4.5 11.82-1.242 1.847a1.42 1.42 0 0 0-.258.748 1.425 1.425 0 0 0 1.5 1.333A1.425 1.425 0 0 0 6 14.415a1.485 1.485 0 0 0-.281-.785L4.5 11.82Z"></path>
</svg>