<svg width="32" height="32" fill="currentColor" viewBox="0 0 24 24" xmlns="http://www.w3.org/2000/svg">
<path d="M22.5 21h-21v1.5h21V21Z"></path>
<path d="m11.796 7.263-3.182 3.182 1.06 1.061 3.183-3.182-1.06-1.06Z"></path>
<path d="m9.06 17.573 3.088 1.738a1.506 1.506 0 0 0 1.79-.251l6.624-6.624a1.507 1.507 0 0 0 .25-1.79L19.09 7.544l1.343-1.342-1.061-1.06-1.06 1.06-3.713-3.713a1.502 1.502 0 0 0-2.122 0L10.886.9 9.825 1.96l1.59 1.591-6.363 6.364-1.591-1.591-1.06 1.06 1.59 1.592a1.502 1.502 0 0 0 0 2.121l3.713 3.713-1.061 1.06 1.06 1.06 1.358-1.356Zm10.44-6.198-6.624 6.624-3.409-1.894 8.14-8.14 1.894 3.41ZM7.174 14.157l1.061-1.06-1.06-1.062-1.061 1.061-1.061-1.06 8.485-8.486 1.06 1.06-1.06 1.061 1.061 1.061 1.06-1.06 1.061 1.06-8.485 8.485-1.06-1.06Z"></path>
</svg>