<svg width="32" height="32" fill="currentColor" viewBox="0 0 24 24" xmlns="http://www.w3.org/2000/svg">
<path d="M21.845 5.344a.844.844 0 0 1 0-1.688h.656V1.5h-9v2.156h.656a.844.844 0 1 1 0 1.688h-.656V7.5h9V5.344h-.656Z"></path>
<path d="M16.501 9.75V12h-12V7.5h6.75V6H4.639a2.246 2.246 0 0 1 2.112-1.5h4.5V3h-4.5a3.754 3.754 0 0 0-3.75 3.75v9a3.743 3.743 0 0 0 2.686 3.578L4.328 22.5H5.96l1.285-3h6.511l1.286 3h1.632l-1.36-3.172a3.742 3.742 0 0 0 2.687-3.578v-6h-1.5Zm0 5.25h-2.25v1.5h2.112A2.246 2.246 0 0 1 14.25 18h-7.5a2.246 2.246 0 0 1-2.112-1.5H6.75V15H4.5v-1.5h12V15Z"></path>
</svg>