<svg width="32" height="32" fill="currentColor" viewBox="0 0 24 24" xmlns="http://www.w3.org/2000/svg">
<path d="M15.75 2.25h-7.5A3.754 3.754 0 0 0 4.5 6v9a3.743 3.743 0 0 0 2.686 3.578L5.827 21.75h1.632l1.286-3h6.51l1.286 3h1.632l-1.36-3.172A3.743 3.743 0 0 0 19.5 15V6a3.754 3.754 0 0 0-3.75-3.75Zm-7.5 1.5h7.5a2.246 2.246 0 0 1 2.112 1.5H6.138a2.246 2.246 0 0 1 2.112-1.5ZM18 14.25h-2.25v1.5h2.112a2.246 2.246 0 0 1-2.112 1.5h-7.5a2.246 2.246 0 0 1-2.112-1.5H8.25v-1.5H6v-1.5h12v1.5Zm0-3H6v-4.5h12v4.5Z"></path>
</svg>