<svg width="32" height="32" fill="currentColor" viewBox="0 0 24 24" xmlns="http://www.w3.org/2000/svg">
<path d="M22.5 18.75h-21v1.5H3v1.5h1.5v-1.5h3.75v1.5h1.5v-1.5h3.75v1.5H15v-1.5h3.75v1.5h1.5v-1.5h2.25v-1.5Z"></path>
<path d="M6 12H1.5v-1.5H6V9H1.5V7.5H6A1.502 1.502 0 0 1 7.5 9v1.5A1.502 1.502 0 0 1 6 12Z"></path>
<path d="m21.413 10.673-6.436-5.899A6.733 6.733 0 0 0 10.418 3H1.5v1.5H9v3A1.502 1.502 0 0 0 10.5 9h6.867l3.032 2.779A1.855 1.855 0 0 1 19.145 15H1.5v1.5h17.645a3.355 3.355 0 0 0 2.267-5.828ZM10.5 7.5V4.504a5.233 5.233 0 0 1 3.464 1.376L15.73 7.5H10.5Z"></path>
</svg>