<svg width="32" height="32" fill="currentColor" viewBox="0 0 24 24" xmlns="http://www.w3.org/2000/svg">
<path d="M20.477 1.5a1.996 1.996 0 0 0-1.43.604l-.296.304-.297-.304a1.996 1.996 0 0 0-2.862 0 2.1 2.1 0 0 0 0 2.923l3.16 3.223 3.156-3.223a2.1 2.1 0 0 0 0-2.923 1.996 1.996 0 0 0-1.43-.604Z"></path>
<path d="M16.5 9.75V12h-12V7.5h6.75V6H4.638A2.246 2.246 0 0 1 6.75 4.5h4.5V3h-4.5A3.754 3.754 0 0 0 3 6.75v9a3.743 3.743 0 0 0 2.686 3.578L4.327 22.5h1.632l1.286-3h6.51l1.286 3h1.632l-1.36-3.172A3.743 3.743 0 0 0 18 15.75v-6h-1.5Zm0 5.25h-2.25v1.5h2.112A2.246 2.246 0 0 1 14.25 18h-7.5a2.246 2.246 0 0 1-2.112-1.5H6.75V15H4.5v-1.5h12V15Z"></path>
</svg>