<svg width="32" height="32" fill="currentColor" viewBox="0 0 24 24" xmlns="http://www.w3.org/2000/svg">
<path d="M15.75 4.5h-3V3h4.5V1.5H6.75V3h4.5v1.5h-3A3.754 3.754 0 0 0 4.5 8.25v8.25a3.743 3.743 0 0 0 2.686 3.578L6.148 22.5H7.78l.965-2.25h6.51l.965 2.25h1.632l-1.038-2.422A3.743 3.743 0 0 0 19.5 16.5V8.25a3.754 3.754 0 0 0-3.75-3.75ZM8.25 6h7.5a2.246 2.246 0 0 1 2.112 1.5H6.138A2.246 2.246 0 0 1 8.25 6ZM18 15.75h-2.25v1.5h2.112a2.246 2.246 0 0 1-2.112 1.5h-7.5a2.246 2.246 0 0 1-2.112-1.5H8.25v-1.5H6v-1.5h12v1.5Zm0-3H6V9h12v3.75Z"></path>
</svg>