<svg width="32" height="32" fill="currentColor" viewBox="0 0 24 24" xmlns="http://www.w3.org/2000/svg">
<path d="M14.25 19.5H10.5V18h3.75A3.754 3.754 0 0 0 18 14.25V10.5h1.5v3.75a5.256 5.256 0 0 1-5.25 5.25Z"></path>
<path d="M6 22.5H3A1.502 1.502 0 0 1 1.5 21V10.5A1.502 1.502 0 0 1 3 9h3a1.502 1.502 0 0 1 1.5 1.5V21A1.502 1.502 0 0 1 6 22.5Zm-3-12V21h3V10.5H3Z"></path>
<path d="M21 7.5H10.5A1.502 1.502 0 0 1 9 6V3a1.502 1.502 0 0 1 1.5-1.5H21A1.502 1.502 0 0 1 22.5 3v3A1.502 1.502 0 0 1 21 7.5ZM10.5 3v3H21V3H10.5Z"></path>
</svg>