<svg width="32" height="32" fill="currentColor" viewBox="0 0 24 24" xmlns="http://www.w3.org/2000/svg">
<path d="M17.25 6.75h4.5a1.5 1.5 0 0 0 1.5-1.5v-3a1.5 1.5 0 0 0-1.5-1.5h-4.5a1.5 1.5 0 0 0-1.5 1.5V3h-7.5v-.75a1.5 1.5 0 0 0-1.5-1.5h-4.5a1.5 1.5 0 0 0-1.5 1.5v3a1.5 1.5 0 0 0 1.5 1.5h4.5a1.5 1.5 0 0 0 1.5-1.5V4.5h3v15a1.502 1.502 0 0 0 1.5 1.5h3v.75a1.5 1.5 0 0 0 1.5 1.5h4.5a1.5 1.5 0 0 0 1.5-1.5v-3a1.5 1.5 0 0 0-1.5-1.5h-4.5a1.5 1.5 0 0 0-1.5 1.5v.75h-3v-6.75h3v.75a1.5 1.5 0 0 0 1.5 1.5h4.5a1.5 1.5 0 0 0 1.5-1.5v-3a1.5 1.5 0 0 0-1.5-1.5h-4.5a1.5 1.5 0 0 0-1.5 1.5v.75h-3V4.5h3v.75a1.5 1.5 0 0 0 1.5 1.5Zm0-4.5h4.5v3h-4.5v-3Zm-10.5 3h-4.5v-3h4.5v3Zm10.5 13.5h4.5v3h-4.5v-3Zm0-8.25h4.5v3h-4.5v-3Z"></path>
</svg>