<svg width="32" height="32" fill="currentColor" viewBox="0 0 24 24" xmlns="http://www.w3.org/2000/svg">
<path d="M9 22.498H6.75v-1.5H9v-9.326l-2.636-1.581.772-1.286 2.636 1.581a1.508 1.508 0 0 1 .728 1.287v9.325a1.501 1.501 0 0 1-1.5 1.5Z"></path>
<path d="M16.5 22.5h-2.25a1.502 1.502 0 0 1-1.5-1.5v-8.25h4.5a3 3 0 0 0 2.986-3.297 3.112 3.112 0 0 0-3.147-2.703h-1.188l-.132-.584C15.339 4.272 13.523 3 11.25 3a4.515 4.515 0 0 0-4.081 2.614l-.231.5-.648-.085A2.078 2.078 0 0 0 6 6a3 3 0 1 0 0 6v1.5a4.5 4.5 0 1 1 .059-9 6.02 6.02 0 0 1 5.191-3c2.76 0 5.02 1.483 5.814 3.75h.025a4.623 4.623 0 0 1 4.64 4.06 4.5 4.5 0 0 1-4.479 4.94h-3V21h2.25v1.5Z"></path>
</svg>