<svg width="32" height="32" fill="currentColor" viewBox="0 0 24 24" xmlns="http://www.w3.org/2000/svg">
<path d="m22.434 10.452-4.712-8.674a.538.538 0 0 0-.943 0l-4.712 8.674a.54.54 0 0 0 .473.798h9.42a.54.54 0 0 0 .474-.798ZM16.688 4.5h1.125v3h-1.125v-3Zm.562 5.25a.75.75 0 1 1 0-1.5.75.75 0 0 1 0 1.5Z"></path>
<path d="M19.5 14.25v-1.5h-6.75V21a1.502 1.502 0 0 0 1.5 1.5h2.25V21h-2.25v-6.75h5.25Z"></path>
<path d="M9 22.498H6.75v-1.5H9v-9.326l-2.636-1.581.772-1.286 2.636 1.581a1.508 1.508 0 0 1 .728 1.287v9.325a1.502 1.502 0 0 1-1.5 1.5Z"></path>
<path d="m13.998 3.755.72-1.326A6.7 6.7 0 0 0 11.25 1.5a6.02 6.02 0 0 0-5.191 3.001H6a4.5 4.5 0 0 0 0 9V12a3 3 0 0 1 0-6c.097.002.194.012.29.029l.647.085.232-.5A4.514 4.514 0 0 1 11.25 3a5.17 5.17 0 0 1 2.748.755Z"></path>
</svg>