<svg width="32" height="32" fill="currentColor" viewBox="0 0 24 24" xmlns="http://www.w3.org/2000/svg">
<path d="M7.5 12.75a3 3 0 1 1 0-6 3 3 0 0 1 0 6Zm0-4.5a1.5 1.5 0 1 0 0 3 1.5 1.5 0 0 0 0-3Z"></path>
<path d="M11.114 4.987A263.9 263.9 0 0 1 13.28 2.78a.75.75 0 0 0-.53-1.28C8.859 1.5 1.5 3.224 1.5 9.75a5.92 5.92 0 0 0 2.386 4.762c-.121.126-1.463 1.505-2.166 2.208A.75.75 0 0 0 2.25 18c3.891 0 11.25-1.724 11.25-8.25a5.919 5.919 0 0 0-2.386-4.763ZM7.28 15.596c-.996.349-2.024.596-3.07.739.122-.125 2.076-2.18 2.076-2.18l-.88-.455A4.43 4.43 0 0 1 3 9.75C3 7 4.588 5.034 7.72 3.905a15.705 15.705 0 0 1 3.07-.739c-.17.175-2.077 2.18-2.077 2.18l.881.455A4.431 4.431 0 0 1 12 9.75c0 2.75-1.588 4.716-4.72 5.845Z"></path>
<path d="M22.5 12.75 18.75 9 15 12.75l1.06 1.062L18 11.874v2.376A6.758 6.758 0 0 1 11.25 21H9v1.5h2.25a8.26 8.26 0 0 0 8.25-8.25v-2.376l1.94 1.937 1.06-1.061Z"></path>
</svg>