<svg width="32" height="32" fill="currentColor" viewBox="0 0 24 24" xmlns="http://www.w3.org/2000/svg">
<path d="M20.961 19.263a.75.75 0 0 0-1.421-.004A2.58 2.58 0 0 1 17.25 21a2.58 2.58 0 0 1-2.29-1.741.75.75 0 0 0-1.422.004A2.578 2.578 0 0 1 11.25 21h-.325C10.443 20.095 9 16.734 9 9v-.098l.837.558c.369.248.701.544.989.882l.75-1.38a6.337 6.337 0 0 0-.907-.75L9.602 7.5h1.148a5.24 5.24 0 0 1 1.495.23l.732-1.346A6.755 6.755 0 0 0 10.75 6h-.913A5.275 5.275 0 0 1 13.5 4.5h.5l.815-1.5H13.5a6.777 6.777 0 0 0-5.25 2.523A6.777 6.777 0 0 0 3 3H1.5v1.5H3A5.273 5.273 0 0 1 6.662 6H5.75A6.795 6.795 0 0 0 1.7 7.35L.3 8.4l.9 1.2 1.4-1.05A5.28 5.28 0 0 1 5.75 7.5h1.148l-1.068.712A6.343 6.343 0 0 0 3 13.5h1.5a4.846 4.846 0 0 1 2.162-4.04l.838-.558V9c0 6.702 1.05 10.315 1.766 12H1.5v1.5h9.75a3.7 3.7 0 0 0 3-1.49 3.765 3.765 0 0 0 6 0 3.747 3.747 0 0 0 2.25 1.412v-1.563a2.823 2.823 0 0 1-1.539-1.596Z"></path>
<path d="m22.434 10.452-4.712-8.674a.538.538 0 0 0-.943 0l-4.712 8.674a.54.54 0 0 0 .473.798h9.42a.54.54 0 0 0 .474-.798ZM16.688 4.5h1.125v3h-1.125v-3Zm.562 5.25a.75.75 0 1 1 0-1.5.75.75 0 0 1 0 1.5Z"></path>
</svg>