<svg width="32" height="32" fill="currentColor" viewBox="0 0 24 24" xmlns="http://www.w3.org/2000/svg">
<path d="M12 15.75a3.75 3.75 0 1 1 0-7.5 3.75 3.75 0 0 1 0 7.5Zm0-6a2.25 2.25 0 1 0 0 4.5 2.25 2.25 0 0 0 0-4.5Z"></path>
<path d="M20.145 9.36a9.696 9.696 0 0 0-3.643-3.749l.332-.344c.615-.636 1.447-1.487 2.446-2.487a.75.75 0 0 0-.53-1.28c-.265 0-6.552.037-10.702 3.226a9.113 9.113 0 0 0-2.437 2.772l-.344-.331A216.352 216.352 0 0 1 2.78 4.72a.75.75 0 0 0-1.28.53c0 .27.038 6.655 3.304 10.802a9.077 9.077 0 0 0 2.694 2.337l-.492.51c-.597.616-1.371 1.406-2.286 2.32a.75.75 0 0 0 .53 1.281c.214 0 5.296-.026 9.344-2.33a9.721 9.721 0 0 0 3.795-3.669l.51.493c.615.597 1.406 1.372 2.321 2.286a.75.75 0 0 0 1.28-.53c0-.216-.027-5.334-2.355-9.39Zm-2.273 4.58-.41 1.026a7.906 7.906 0 0 1-3.61 3.901 18.264 18.264 0 0 1-6.664 1.993c.33-.337 2.871-2.987 2.871-2.987l-1.026-.41a7.352 7.352 0 0 1-3.05-2.34c-1.906-2.417-2.594-5.82-2.843-7.934.408.4 2.986 2.87 2.986 2.87l.41-1.025a7.393 7.393 0 0 1 2.427-3.117c2.412-1.855 5.76-2.53 7.849-2.776-.4.408-2.871 2.987-2.871 2.987l1.026.41a7.89 7.89 0 0 1 3.877 3.57 18.22 18.22 0 0 1 2.016 6.705c-.337-.33-2.988-2.871-2.988-2.871Z"></path>
</svg>