<svg width="32" height="32" fill="currentColor" viewBox="0 0 24 24" xmlns="http://www.w3.org/2000/svg">
<path d="m20.22 22.5-1.441-5.044a.75.75 0 0 1 .253-.792l3.373-2.699-1.015-4.064-2.054 2.568a.75.75 0 0 1-.586.281H15v-1.5h3.39l2.774-3.469a.75.75 0 0 1 1.314.287l1.5 6a.75.75 0 0 1-.259.768l-3.36 2.688 1.304 4.564-1.443.412Z"></path>
<path d="M17.25 4.125a2.625 2.625 0 1 1 5.25 0 2.625 2.625 0 0 1-5.25 0Zm1.5 0a1.125 1.125 0 1 0 2.25 0 1.125 1.125 0 0 0-2.25 0Z"></path>
<path d="M15.003 14.25a1.503 1.503 0 0 1-1.503-1.503v-1.494a1.503 1.503 0 0 1 1.503-1.503H16.5V7.5h-9v2.25h1.497a1.503 1.503 0 0 1 1.503 1.503v1.494a1.503 1.503 0 0 1-1.503 1.503H7.5v2.25h9v-2.25h-1.497Z"></path>
<path d="m3.78 22.5 1.441-5.044a.751.751 0 0 0-.253-.792l-3.374-2.699L2.61 9.901l2.054 2.568a.751.751 0 0 0 .586.281H9v-1.5H5.61L2.836 7.781a.75.75 0 0 0-1.313.287l-1.5 6a.75.75 0 0 0 .258.768l3.36 2.688-1.304 4.564 1.443.412Z"></path>
<path d="M4.125 6.75a2.625 2.625 0 1 1 0-5.25 2.625 2.625 0 0 1 0 5.25Zm0-3.75a1.125 1.125 0 1 0 0 2.25 1.125 1.125 0 0 0 0-2.25Z"></path>
</svg>