<svg width="32" height="32" fill="currentColor" viewBox="0 0 24 24" xmlns="http://www.w3.org/2000/svg">
<path d="m8.25 17.388-1.5-1.5-1.059 1.057 2.559 2.558 4.5-4.5-1.058-1.058-3.442 3.443Z"></path>
<path d="M21 22.5h-3V21h3v-9h-3V6a3.003 3.003 0 0 0-3-3V1.5A4.505 4.505 0 0 1 19.5 6v4.5H21a1.502 1.502 0 0 1 1.5 1.5v9a1.502 1.502 0 0 1-1.5 1.5Z"></path>
<path d="M15 10.5h-1.5V6a4.5 4.5 0 1 0-9 0v4.5H3A1.5 1.5 0 0 0 1.5 12v9A1.5 1.5 0 0 0 3 22.5h12a1.5 1.5 0 0 0 1.5-1.5v-9a1.5 1.5 0 0 0-1.5-1.5ZM6 6a3 3 0 1 1 6 0v4.5H6V6Zm9 15H3v-9h12v9Z"></path>
</svg>