<svg width="32" height="32" fill="currentColor" viewBox="0 0 24 24" xmlns="http://www.w3.org/2000/svg">
<path d="M22.5 11.25h-9.75V1.5h-1.5v9.75H1.5v1.5h9.75v9.75h1.5v-9.75h9.75v-1.5Z"></path>
<path d="m19.19 15 1.06 1.06-2.69 2.69 2.69 2.69-1.06 1.06-3.75-3.75L19.19 15Z"></path>
<path d="M8.25 22.498h-6a.75.75 0 0 1-.67-1.085l3-6a.78.78 0 0 1 1.341 0l3 6a.75.75 0 0 1-.67 1.085Zm-4.786-1.5h3.572L5.25 17.425l-1.786 3.573Z"></path>
<path d="M21 9h-4.5A1.502 1.502 0 0 1 15 7.5V3a1.502 1.502 0 0 1 1.5-1.5H21A1.502 1.502 0 0 1 22.5 3v4.5A1.502 1.502 0 0 1 21 9Zm-4.5-6v4.5H21V3h-4.5Z"></path>
<path d="M5.25 9a3.75 3.75 0 1 1 0-7.5 3.75 3.75 0 0 1 0 7.5Zm0-6a2.25 2.25 0 1 0 0 4.5 2.25 2.25 0 0 0 0-4.5Z"></path>
</svg>