<svg width="32" height="32" fill="currentColor" viewBox="0 0 24 24" xmlns="http://www.w3.org/2000/svg">
<path d="M22.489 11.873a10.786 10.786 0 0 0-9.74-8.838V1.5h-1.5v1.535a10.786 10.786 0 0 0-9.738 8.838.75.75 0 0 0 1.121.772A3.641 3.641 0 0 1 4.5 12a3.65 3.65 0 0 1 3.105 1.883.779.779 0 0 0 1.29 0 3.765 3.765 0 0 1 2.355-1.789v7.031a1.875 1.875 0 1 1-3.75 0v-.375H6v.375a3.375 3.375 0 0 0 6.75 0v-7.03a3.765 3.765 0 0 1 2.355 1.788.75.75 0 0 0 1.29 0A3.65 3.65 0 0 1 19.5 12c.67.039 1.316.262 1.867.645a.75.75 0 0 0 1.122-.772ZM4.499 10.5c-.38 0-.76.054-1.127.16A9.331 9.331 0 0 1 9.738 4.8a10.887 10.887 0 0 0-2.284 6.7 4.908 4.908 0 0 0-2.954-1Zm7.5 0a4.915 4.915 0 0 0-3.041 1.073c.028-1.665.456-4.867 3.042-6.882 2.573 2.007 3.007 5.211 3.04 6.88A4.915 4.915 0 0 0 12 10.5Zm7.5 0a4.908 4.908 0 0 0-2.953 1 10.887 10.887 0 0 0-2.284-6.7 9.331 9.331 0 0 1 6.366 5.86 4.059 4.059 0 0 0-1.128-.16Z"></path>
</svg>