<svg width="32" height="32" fill="currentColor" viewBox="0 0 24 24" xmlns="http://www.w3.org/2000/svg">
<path d="m3.748 2.69-1.06 1.06 2.561 2.561 1.06-1.06-2.561-2.562Z"></path>
<path d="m18.747 17.682-1.06 1.06 2.56 2.562 1.061-1.06-2.56-2.562Z"></path>
<path d="M9.75 1.5h-1.5v3h1.5v-3Z"></path>
<path d="M4.5 8.25h-3v1.5h3v-1.5Z"></path>
<path d="M22.5 14.25h-3v1.5h3v-1.5Z"></path>
<path d="M15.75 19.5h-1.5v3h1.5v-3Z"></path>
<path d="m12.435 15.803-2.783 2.79a3.003 3.003 0 0 1-5.124-2.123c0-.796.316-1.56.88-2.122l2.79-2.79L7.131 10.5 4.35 13.29a4.5 4.5 0 0 0-.045 6.405A4.5 4.5 0 0 0 7.5 21a4.553 4.553 0 0 0 3.24-1.35l2.76-2.782-1.065-1.065Z"></path>
<path d="m11.557 8.198 2.79-2.79a3 3 0 1 1 4.246 4.245l-2.79 2.79 1.064 1.057 2.783-2.79a4.5 4.5 0 0 0 .045-6.405A4.501 4.501 0 0 0 16.5 3a4.552 4.552 0 0 0-3.24 1.35L10.5 7.133l1.057 1.065Z"></path>
</svg>