<svg width="32" height="32" fill="currentColor" viewBox="0 0 24 24" xmlns="http://www.w3.org/2000/svg">
<path d="M20.477 9a1.996 1.996 0 0 0-1.43.604l-.296.304-.297-.304a1.996 1.996 0 0 0-2.862 0 2.1 2.1 0 0 0 0 2.923l3.16 3.223 3.156-3.223a2.1 2.1 0 0 0 0-2.923A1.996 1.996 0 0 0 20.478 9Z"></path>
<path d="M1.5 22.5H3v-3.75A3.755 3.755 0 0 1 6.75 15h4.5A3.755 3.755 0 0 1 15 18.75v3.75h1.5v-3.75a5.256 5.256 0 0 0-5.25-5.25h-4.5a5.256 5.256 0 0 0-5.25 5.25v3.75Z"></path>
<path d="M9 3a3.75 3.75 0 1 1 0 7.5A3.75 3.75 0 0 1 9 3Zm0-1.5A5.25 5.25 0 1 0 9 12 5.25 5.25 0 0 0 9 1.5Z"></path>
</svg>