<svg width="32" height="32" fill="currentColor" viewBox="0 0 24 24" xmlns="http://www.w3.org/2000/svg">
<path d="M16.5 8.25h3a.75.75 0 0 1 .75.75v1.5h-4.5V9a.75.75 0 0 1 .75-.75Z"></path>
<path d="M18 7.5a1.5 1.5 0 1 0 0-3 1.5 1.5 0 0 0 0 3Z"></path>
<path d="M22.5 13.5h-9A1.502 1.502 0 0 1 12 12V3a1.502 1.502 0 0 1 1.5-1.5h9A1.502 1.502 0 0 1 24 3v9a1.502 1.502 0 0 1-1.5 1.5ZM13.5 3v9h9V3h-9Z"></path>
<path d="M11.25 22.5h-1.5v-3a2.21 2.21 0 0 0-2.25-2.25h-3a2.208 2.208 0 0 0-2.25 2.25v3H.75v-3a3.713 3.713 0 0 1 3.75-3.75h3a3.714 3.714 0 0 1 3.75 3.75v3Z"></path>
<path d="M6 8.25a2.25 2.25 0 1 1 0 4.5 2.25 2.25 0 0 1 0-4.5Zm0-1.5a3.75 3.75 0 1 0 0 7.5 3.75 3.75 0 0 0 0-7.5Z"></path>
</svg>