<svg width="32" height="32" fill="currentColor" viewBox="0 0 24 24" xmlns="http://www.w3.org/2000/svg">
<path d="m18.75 7.5 1.195 2.25 2.555.31-1.875 1.69.375 2.5-2.25-1.406-2.25 1.406.375-2.5L15 10.06l2.625-.31L18.75 7.5Z"></path>
<path d="M16.5 22.5H15v-3.75A3.755 3.755 0 0 0 11.25 15h-4.5A3.755 3.755 0 0 0 3 18.75v3.75H1.5v-3.75a5.256 5.256 0 0 1 5.25-5.25h4.5a5.256 5.256 0 0 1 5.25 5.25v3.75Z"></path>
<path d="M9 3a3.75 3.75 0 1 1 0 7.5A3.75 3.75 0 0 1 9 3Zm0-1.5A5.25 5.25 0 1 0 9 12 5.25 5.25 0 0 0 9 1.5Z"></path>
</svg>