<svg width="32" height="32" fill="currentColor" viewBox="0 0 24 24" xmlns="http://www.w3.org/2000/svg">
<path d="M21.575 3.193a3.159 3.159 0 0 0-4.325-.168 3.159 3.159 0 0 0-4.325.168 3.24 3.24 0 0 0 0 4.534l4.323 4.38.002-.002.002.001 4.323-4.38a3.24 3.24 0 0 0 0-4.533Zm-1.069 3.48L17.252 9.97l-.001-.001-.002.001-3.255-3.298a1.731 1.731 0 0 1 0-2.425 1.698 1.698 0 0 1 2.368 0l.885.906.004-.004.004.004.885-.906a1.698 1.698 0 0 1 2.367 0 1.731 1.731 0 0 1 0 2.425Z"></path>
<path d="M12 22.5h-1.5v-3.75a2.253 2.253 0 0 0-2.25-2.25h-3A2.253 2.253 0 0 0 3 18.75v3.75H1.5v-3.75A3.755 3.755 0 0 1 5.25 15h3A3.755 3.755 0 0 1 12 18.75v3.75Z"></path>
<path d="M6.75 7.5a2.25 2.25 0 1 1 0 4.5 2.25 2.25 0 0 1 0-4.5Zm0-1.5a3.75 3.75 0 1 0 0 7.5 3.75 3.75 0 0 0 0-7.5Z"></path>
</svg>