<svg width="32" height="32" fill="currentColor" viewBox="0 0 24 24" xmlns="http://www.w3.org/2000/svg">
<path d="M18.75 9.75 17.555 12 15 12.31 16.875 14l-.375 2.5 2.25-1.406L21 16.5l-.375-2.5 1.875-1.69-2.625-.31-1.125-2.25Z"></path>
<path d="m16.06 10.06 2.69-2.685 2.69 2.687L22.5 9l-3.75-3.75L15 9l1.06 1.06Z"></path>
<path d="m16.06 6.31 2.69-2.684 2.69 2.686L22.5 5.25 18.75 1.5 15 5.25l1.06 1.06Z"></path>
<path d="M12 22.5h-1.5v-3.75a2.253 2.253 0 0 0-2.25-2.25h-3A2.253 2.253 0 0 0 3 18.75v3.75H1.5v-3.75A3.755 3.755 0 0 1 5.25 15h3A3.755 3.755 0 0 1 12 18.75v3.75Z"></path>
<path d="M6.75 7.5a2.25 2.25 0 1 1 0 4.5 2.25 2.25 0 0 1 0-4.5Zm0-1.5a3.75 3.75 0 1 0 0 7.5 3.75 3.75 0 0 0 0-7.5Z"></path>
</svg>