<svg width="32" height="32" fill="currentColor" viewBox="0 0 24 24" xmlns="http://www.w3.org/2000/svg">
<path d="M23.25 2.25h-10.5A.75.75 0 0 0 12 3v9.75a.75.75 0 0 0 .75.75h10.5a.75.75 0 0 0 .75-.75V3a.75.75 0 0 0-.75-.75ZM21 6.75h-2.25V9H21v1.5h-2.25V12h-1.5v-1.5H15V9h2.25V6.75H15v-1.5h2.25v-1.5h1.5v1.5H21v1.5Z"></path>
<path d="M11.25 22.5h-1.5v-3a2.21 2.21 0 0 0-2.25-2.25h-3a2.208 2.208 0 0 0-2.25 2.25v3H.75v-3a3.713 3.713 0 0 1 3.75-3.75h3a3.714 3.714 0 0 1 3.75 3.75v3Z"></path>
<path d="M6 8.25a2.25 2.25 0 1 1 0 4.5 2.25 2.25 0 0 1 0-4.5Zm0-1.5a3.75 3.75 0 1 0 0 7.5 3.75 3.75 0 0 0 0-7.5Z"></path>
</svg>