<svg width="32" height="32" fill="currentColor" viewBox="0 0 24 24" xmlns="http://www.w3.org/2000/svg">
<path d="M22.5 6H21v6h1.5V6Z"></path>
<path d="M18.75 3.75h-1.5V12h1.5V3.75Z"></path>
<path d="M15 7.5h-1.5V12H15V7.5Z"></path>
<path d="M12 22.5h-1.5V18a2.253 2.253 0 0 0-2.25-2.25h-3A2.253 2.253 0 0 0 3 18v4.5H1.5V18a3.755 3.755 0 0 1 3.75-3.75h3A3.755 3.755 0 0 1 12 18v4.5Z"></path>
<path d="M6.75 6.75a2.25 2.25 0 1 1 0 4.5 2.25 2.25 0 0 1 0-4.5Zm0-1.5a3.75 3.75 0 1 0 0 7.5 3.75 3.75 0 0 0 0-7.5Z"></path>
</svg>