<svg width="32" height="32" fill="currentColor" viewBox="0 0 24 24" xmlns="http://www.w3.org/2000/svg">
<path d="m22.061 14.25-1.286-1.286c.146-.3.223-.63.225-.964a2.25 2.25 0 1 0-2.25 2.25c.334-.002.664-.079.965-.225L21 15.311V21h-4.5v-2.25a5.256 5.256 0 0 0-5.25-5.25h-4.5a5.256 5.256 0 0 0-5.25 5.25v3.75h21v-7.19a1.491 1.491 0 0 0-.439-1.06ZM3 18.75A3.754 3.754 0 0 1 6.75 15h4.5A3.755 3.755 0 0 1 15 18.75V21H3v-2.25Z"></path>
<path d="M9 3a3.75 3.75 0 1 1 0 7.5A3.75 3.75 0 0 1 9 3Zm0-1.5A5.25 5.25 0 1 0 9 12 5.25 5.25 0 0 0 9 1.5Z"></path>
</svg>