<svg width="32" height="32" fill="currentColor" viewBox="0 0 24 24" xmlns="http://www.w3.org/2000/svg">
<path d="m19 8.963.904-.905a.884.884 0 0 1 .945-.194l1.102.44a.88.88 0 0 1 .549.808v2.019a.875.875 0 0 1-.883.869l-.037-.001c-7.722-.48-9.28-7.022-9.575-9.526a.876.876 0 0 1 .876-.973h1.95a.872.872 0 0 1 .807.55l.44 1.102a.873.873 0 0 1-.19.945L14.984 5s.52 3.525 4.016 3.962Z"></path>
<path d="M12 22.5h-1.5v-3.75a2.253 2.253 0 0 0-2.25-2.25h-3A2.253 2.253 0 0 0 3 18.75v3.75H1.5v-3.75A3.755 3.755 0 0 1 5.25 15h3A3.755 3.755 0 0 1 12 18.75v3.75Z"></path>
<path d="M6.75 7.5a2.25 2.25 0 1 1 0 4.5 2.25 2.25 0 0 1 0-4.5Zm0-1.5a3.75 3.75 0 1 0 0 7.5 3.75 3.75 0 0 0 0-7.5Z"></path>
</svg>