<svg width="32" height="32" fill="currentColor" viewBox="0 0 24 24" xmlns="http://www.w3.org/2000/svg">
<path d="M18.75 17.25h-.016a.751.751 0 0 1-.705-.544l-2.376-8.314-1.45 3.87a.75.75 0 0 1-.703.488h-3v-1.5h2.48l2.068-5.513a.75.75 0 0 1 1.423.057l2.334 8.169 1.484-4.45A.75.75 0 0 1 21 9h3v1.5h-2.46l-2.079 6.237a.75.75 0 0 1-.711.513Z"></path>
<path d="M11.25 22.5h-1.5v-5.25A2.253 2.253 0 0 0 7.5 15h-3a2.253 2.253 0 0 0-2.25 2.25v5.25H.75v-5.25A3.755 3.755 0 0 1 4.5 13.5h3a3.755 3.755 0 0 1 3.75 3.75v5.25Z"></path>
<path d="M6 6a2.25 2.25 0 1 1 0 4.5A2.25 2.25 0 0 1 6 6Zm0-1.5A3.75 3.75 0 1 0 6 12a3.75 3.75 0 0 0 0-7.5Z"></path>
</svg>