<svg width="32" height="32" fill="currentColor" viewBox="0 0 24 24" xmlns="http://www.w3.org/2000/svg">
<path d="M22.098 10.5 19.5 9l-.75 1.299 2.598 1.5.75-1.299Z"></path>
<path d="M22.5 6h-3v1.5h3V6Z"></path>
<path d="m2.652 11.797 2.598-1.5-.75-1.3-2.598 1.5.75 1.3Z"></path>
<path d="M19.5 22.5H18v-3.75A3.755 3.755 0 0 0 14.25 15h-4.5A3.755 3.755 0 0 0 6 18.75v3.75H4.5v-3.75a5.256 5.256 0 0 1 5.25-5.25h4.5a5.256 5.256 0 0 1 5.25 5.25v3.75Z"></path>
<path d="M12 3a3.75 3.75 0 1 1 0 7.5A3.75 3.75 0 0 1 12 3Zm0-1.5A5.25 5.25 0 1 0 12 12a5.25 5.25 0 0 0 0-10.5Z"></path>
<path d="m21.348 1.703-2.598 1.5.75 1.3 2.598-1.5-.75-1.3Z"></path>
<path d="M4.5 6h-3v1.5h3V6Z"></path>
<path d="M1.902 3 4.5 4.5l.75-1.299-2.598-1.5L1.902 3Z"></path>
</svg>