<svg width="32" height="32" fill="currentColor" viewBox="0 0 24 24" xmlns="http://www.w3.org/2000/svg">
<path d="M11.226 22.5H9.73v-3.742a2.248 2.248 0 0 0-2.245-2.245H4.492a2.247 2.247 0 0 0-2.245 2.245V22.5H.75v-3.742a3.746 3.746 0 0 1 3.742-3.741h2.993a3.746 3.746 0 0 1 3.741 3.741V22.5Z"></path>
<path d="M5.988 7.534a2.245 2.245 0 1 1 0 4.49 2.245 2.245 0 0 1 0-4.49Zm0-1.497a3.742 3.742 0 1 0 0 7.483 3.742 3.742 0 0 0 0-7.483Z"></path>
<path d="M21.702 9.034a1.49 1.49 0 0 0-.383.055l-.79-.79a2.902 2.902 0 0 0 0-3.021l.79-.79a1.522 1.522 0 1 0-1.058-1.058l-.79.79a2.902 2.902 0 0 0-3.021 0l-.79-.79a1.522 1.522 0 1 0-1.058 1.058l.79.79a2.903 2.903 0 0 0 0 3.022l-.79.79a1.522 1.522 0 1 0 1.058 1.058l.79-.79a2.903 2.903 0 0 0 3.021 0l.79.79a1.494 1.494 0 1 0 1.441-1.114Zm-5.238-2.245a1.496 1.496 0 1 1 2.993 0 1.496 1.496 0 0 1-2.993 0Z"></path>
</svg>