<svg width="32" height="32" fill="currentColor" viewBox="0 0 24 24" xmlns="http://www.w3.org/2000/svg">
<path d="m12 4.434 1.308 2.2.587.986L15 7.312l2.34-.653L16.689 9l-.308 1.105.986.586 2.2 1.309-2.2 1.308-.986.586.308 1.106.653 2.34-2.34-.652-1.106-.308-.587.986-1.308 2.2-1.308-2.2-.587-.986L9 16.688l-2.34.653L7.311 15l.308-1.106-.986-.586L4.434 12l2.2-1.309.986-.586L7.312 9l-.653-2.34L9 7.312l1.105.308.587-.986L12 4.434ZM12 1.5 9.402 5.867 4.5 4.5l1.367 4.902L1.5 12l4.367 2.597L4.5 19.5l4.902-1.367L12 22.5l2.598-4.367L19.5 19.5l-1.367-4.903L22.5 12l-4.367-2.598L19.5 4.5l-4.902 1.367L12 1.5Z"></path>
</svg>