<svg width="32" height="32" fill="currentColor" viewBox="0 0 24 24" xmlns="http://www.w3.org/2000/svg">
<path d="m22.358 12-5.25-7.17a.75.75 0 0 0-.608-.33H2.25a.75.75 0 0 0-.75.75V18a.75.75 0 0 0 .75.75h1.605a3 3 0 0 0 5.79 0h4.71a3 3 0 0 0 5.79 0h1.605a.75.75 0 0 0 .75-.75v-5.58a.75.75 0 0 0-.142-.42ZM15 6h1.117l3.848 5.25H15V6ZM6.75 19.5a1.5 1.5 0 1 1 0-3 1.5 1.5 0 0 1 0 3Zm10.5 0a1.5 1.5 0 1 1 0-3 1.5 1.5 0 0 1 0 3ZM21 17.25h-.855a3 3 0 0 0-5.79 0h-4.71a3 3 0 0 0-5.79 0H3V6h10.5v6.75H21v4.5Z"></path>
</svg>