<svg width="32" height="32" fill="currentColor" viewBox="0 0 24 24" xmlns="http://www.w3.org/2000/svg">
<path d="M16.125 9a1.125 1.125 0 1 0 0-2.25 1.125 1.125 0 0 0 0 2.25Z"></path>
<path d="M21.375.75a1.839 1.839 0 0 0-.905.233l-6.233 3.223.002.004a4.123 4.123 0 1 0 5.495 5.659h.002l3.3-6.374A1.875 1.875 0 0 0 21.375.75Zm-5.25 9.75a2.625 2.625 0 1 1 0-5.25 2.625 2.625 0 0 1 0 5.25Zm5.58-7.698-1.787 3.454a4.146 4.146 0 0 0-2.175-2.174l3.447-1.783a.387.387 0 0 1 .56.326.374.374 0 0 1-.044.177Z"></path>
<path d="M14.25 15h5.25v-1.5h-6.75V21a1.502 1.502 0 0 0 1.5 1.5h2.25V21h-2.25v-6Z"></path>
<path d="M9 22.498H6.75v-1.5H9v-9.326l-2.636-1.581.772-1.286 2.636 1.581a1.508 1.508 0 0 1 .728 1.287v9.325a1.502 1.502 0 0 1-1.5 1.5Z"></path>
<path d="M12.98 1.714a7.116 7.116 0 0 0-1.73-.214 6.02 6.02 0 0 0-5.191 3H6a4.5 4.5 0 0 0 0 9V12a3 3 0 0 1 0-6c.097.003.194.013.29.03l.647.085.232-.5A4.514 4.514 0 0 1 11.25 3c.438.003.873.057 1.298.161l.433-1.447Z"></path>
</svg>