<svg width="32" height="32" fill="currentColor" viewBox="0 0 24 24" xmlns="http://www.w3.org/2000/svg">
<path d="M21 8.25a1.49 1.49 0 0 0-.619.137l-1.756-1.254c.08-.245.121-.5.125-.758a2.589 2.589 0 0 0-.125-.757l1.756-1.255A1.498 1.498 0 1 0 19.5 3c0 .048.01.093.014.14l-1.718 1.228a2.599 2.599 0 0 0-3.527.151A2.625 2.625 0 0 0 16.125 9a2.599 2.599 0 0 0 1.67-.617l1.72 1.227c-.005.047-.015.092-.015.14a1.5 1.5 0 1 0 1.5-1.5Zm-4.875-.75a1.125 1.125 0 1 1 0-2.25 1.125 1.125 0 0 1 0 2.25Z"></path>
<path d="m22.003 14.95-5.799-2.083-2.424-3.044A2.242 2.242 0 0 0 12.04 9H6.043a2.249 2.249 0 0 0-1.86.984L2.15 12.97a3.741 3.741 0 0 0-.65 2.11v4.42a.75.75 0 0 0 .75.75h1.607a2.986 2.986 0 0 0 5.786 0h4.714a2.986 2.986 0 0 0 5.786 0h1.607a.75.75 0 0 0 .75-.75v-3.844a.75.75 0 0 0-.497-.706ZM6.75 21a1.5 1.5 0 1 1 0-3 1.5 1.5 0 0 1 0 3Zm10.5 0a1.5 1.5 0 1 1 0-3 1.5 1.5 0 0 1 0 3ZM21 18.75h-.857a2.985 2.985 0 0 0-5.786 0H9.643a2.985 2.985 0 0 0-5.786 0H3v-3.67c0-.451.136-.893.39-1.266l2.033-2.986a.75.75 0 0 1 .62-.328h5.997a.744.744 0 0 1 .574.266l2.55 3.201a.751.751 0 0 0 .333.24L21 16.183v2.566Z"></path>
</svg>