<svg width="32" height="32" fill="currentColor" viewBox="0 0 24 24" xmlns="http://www.w3.org/2000/svg">
<path d="m22.003 13.45-5.799-2.083-2.424-3.044a2.242 2.242 0 0 0-1.74-.823H6.043a2.249 2.249 0 0 0-1.86.984L2.15 11.47a3.741 3.741 0 0 0-.65 2.11v5.92a.75.75 0 0 0 .75.75h1.607a2.986 2.986 0 0 0 5.786 0h4.714a2.986 2.986 0 0 0 5.786 0h1.607a.75.75 0 0 0 .75-.75v-5.344a.75.75 0 0 0-.497-.706ZM6.75 21a1.5 1.5 0 1 1 0-3 1.5 1.5 0 0 1 0 3Zm10.5 0a1.5 1.5 0 1 1 0-3 1.5 1.5 0 0 1 0 3ZM21 18.75h-.857a2.985 2.985 0 0 0-5.786 0H9.643a2.985 2.985 0 0 0-5.786 0H3v-5.17c0-.451.136-.893.39-1.266l2.033-2.986A.75.75 0 0 1 6.043 9h5.997a.745.745 0 0 1 .574.266l2.55 3.201a.751.751 0 0 0 .333.24L21 14.683v4.066Z"></path>
<path d="M18.75 8.25h-1.5a1.502 1.502 0 0 0-1.5-1.5v-1.5a3.003 3.003 0 0 1 3 3Z"></path>
<path d="M21.75 8.25h-1.5a4.505 4.505 0 0 0-4.5-4.5v-1.5a6.007 6.007 0 0 1 6 6Z"></path>
</svg>