<svg width="32" height="32" fill="currentColor" viewBox="0 0 24 24" xmlns="http://www.w3.org/2000/svg">
<path d="M12.75 9H6v1.5h6.75V9Z"></path>
<path d="M9.75 12.75H6v1.5h3.75v-1.5Z"></path>
<path d="M15.75 19.5H3A1.502 1.502 0 0 1 1.5 18V6A1.502 1.502 0 0 1 3 4.5h12.75a1.502 1.502 0 0 1 1.5 1.5v3.042l4.064-2.902a.75.75 0 0 1 1.186.61v10.5a.75.75 0 0 1-1.186.61l-4.064-2.902V18a1.502 1.502 0 0 1-1.5 1.5ZM3 6v12h12.75v-4.5a.75.75 0 0 1 1.186-.61L21 15.792V8.209l-4.064 2.902a.75.75 0 0 1-1.186-.61V6H3Z"></path>
</svg>