<svg width="32" height="32" fill="currentColor" viewBox="0 0 24 24" xmlns="http://www.w3.org/2000/svg">
<path d="m3.93 16.883 1.072-1.065A10.545 10.545 0 0 1 2.302 12C3.825 8.197 8.025 5.25 12 5.25a9.285 9.285 0 0 1 3 .54l1.162-1.17A11.04 11.04 0 0 0 12 3.75 12.518 12.518 0 0 0 .795 11.745a.75.75 0 0 0 0 .51 12 12 0 0 0 3.135 4.627Z"></path>
<path d="M9 11.796a3 3 0 0 1 2.775-2.775l1.357-1.365a4.5 4.5 0 0 0-5.497 5.498L9 11.796Z"></path>
<path d="M23.205 11.745a12.3 12.3 0 0 0-4.305-5.58l3.6-3.607L21.442 1.5 1.5 21.442 2.558 22.5l3.825-3.825A11.47 11.47 0 0 0 12 20.25a12.517 12.517 0 0 0 11.205-7.995.75.75 0 0 0 0-.51ZM15 12a3 3 0 0 1-4.5 2.58l4.08-4.08A3 3 0 0 1 15 12Zm-3 6.75a9.788 9.788 0 0 1-4.5-1.185l1.905-1.905a4.5 4.5 0 0 0 6.263-6.262l2.152-2.153A10.906 10.906 0 0 1 21.698 12c-1.523 3.803-5.723 6.75-9.698 6.75Z"></path>
</svg>