<svg width="32" height="32" fill="currentColor" viewBox="0 0 24 24" xmlns="http://www.w3.org/2000/svg">
<path d="M15 15v-2.25a3 3 0 0 0-6 0V15a1.502 1.502 0 0 0-1.5 1.5V21A1.502 1.502 0 0 0 9 22.5h6a1.502 1.502 0 0 0 1.5-1.5v-4.5A1.502 1.502 0 0 0 15 15Zm-4.5-2.25a1.5 1.5 0 1 1 3 0V15h-3v-2.25ZM9 21v-4.5h6V21H9Z"></path>
<path d="M19.372 7.586a7.504 7.504 0 0 0-5.954-5.95 7.502 7.502 0 0 0-8.79 5.95 5.627 5.627 0 0 0 .99 11.164H6v-1.5h-.378a4.127 4.127 0 0 1-.728-8.187l1.012-.183.194-1.01a6.008 6.008 0 0 1 11.799 0l.194 1.01 1.012.183a4.126 4.126 0 0 1-.724 8.187H18v1.5h.38a5.626 5.626 0 0 0 .992-11.164Z"></path>
</svg>