<svg width="32" height="32" fill="currentColor" viewBox="0 0 24 24" xmlns="http://www.w3.org/2000/svg">
<path d="M18.375 8.25a1.125 1.125 0 1 0 0-2.25 1.125 1.125 0 0 0 0 2.25Z"></path>
<path d="M13.06 16.5H9v-4.06l4.523-4.523A4.03 4.03 0 0 1 13.5 7.5 4.5 4.5 0 1 1 18 12a3.87 3.87 0 0 1-.417-.023L13.061 16.5ZM10.5 15h1.94l4.627-4.628.388.072a3.039 3.039 0 1 0-2.399-2.398l.072.387L10.5 13.06V15Z"></path>
<path d="M21 13.5v6H7.5v-15h3V3H3a1.502 1.502 0 0 0-1.5 1.5v15A1.502 1.502 0 0 0 3 21h18a1.502 1.502 0 0 0 1.5-1.5v-6H21Zm-18-9h3v15H3v-15Z"></path>
</svg>