<svg width="32" height="32" fill="currentColor" viewBox="0 0 24 24" xmlns="http://www.w3.org/2000/svg">
<path d="M15 9.75H9a1.502 1.502 0 0 0-1.5 1.5V21A1.502 1.502 0 0 0 9 22.5h6a1.502 1.502 0 0 0 1.5-1.5v-9.75a1.502 1.502 0 0 0-1.5-1.5Zm0 1.5v2.25H9v-2.25h6ZM15 15v2.25H9V15h6Zm-6 6v-2.25h6V21H9Z"></path>
<path d="M19.433 7.598a.091.091 0 0 1-.073-.072 7.505 7.505 0 0 0-5.942-5.89 7.502 7.502 0 0 0-8.779 5.89.09.09 0 0 1-.072.072A5.626 5.626 0 0 0 5.618 18.75H6v-1.5h-.378a4.132 4.132 0 0 1-4.08-4.725A4.275 4.275 0 0 1 5.078 9.03l.762-.138a.098.098 0 0 0 .079-.078l.135-.701a6.21 6.21 0 0 1 5.135-5.057 5.968 5.968 0 0 1 2.135.093 6.166 6.166 0 0 1 4.61 4.909l.146.756a.097.097 0 0 0 .079.078l.793.143a4.336 4.336 0 0 1 2.326 1.155 4.13 4.13 0 0 1-2.897 7.06H18v1.5h.38a5.626 5.626 0 0 0 1.053-11.152Z"></path>
</svg>