<svg width="32" height="32" fill="currentColor" viewBox="0 0 24 24" xmlns="http://www.w3.org/2000/svg">
<path d="m18.75 8.25 1.06 1.06-1.939 1.94H22.5v1.5h-4.629l1.94 1.94-1.061 1.06L15 12l3.75-3.75Z"></path>
<path d="M22.5 21H15a1.502 1.502 0 0 1-1.5-1.5v-15A1.502 1.502 0 0 1 15 3h7.5v1.5H15v15h7.5V21Z"></path>
<path d="M9 21H1.5v-1.5H9v-15H1.5V3H9a1.502 1.502 0 0 1 1.5 1.5v15A1.502 1.502 0 0 1 9 21Z"></path>
<path d="M5.25 8.25 4.19 9.31l1.939 1.94H1.5v1.5h4.629l-1.94 1.94 1.061 1.06L9 12 5.25 8.25Z"></path>
</svg>