<svg width="32" height="32" fill="currentColor" viewBox="0 0 24 24" xmlns="http://www.w3.org/2000/svg">
<path d="M17.56 16.5 7.5 6.44V1.5h-6v6h4.94L16.5 17.56v4.94h6v-6h-4.94ZM6 6H3V3h3v3Zm15 15h-3v-3h3v3Z"></path>
<path d="M22.5 4.5a2.994 2.994 0 0 0-5.893-.75H9.75v1.5h6.857a2.996 2.996 0 0 0 2.143 2.143v6.857h1.5V7.393A2.997 2.997 0 0 0 22.5 4.5Zm-3 1.5a1.5 1.5 0 1 1 0-3 1.5 1.5 0 0 1 0 3Z"></path>
<path d="M14.25 18.75H7.393a2.996 2.996 0 0 0-2.143-2.143V9.75h-1.5v6.857a2.994 2.994 0 1 0 3.643 3.643h6.857v-1.5ZM4.5 21a1.5 1.5 0 1 1 0-3 1.5 1.5 0 0 1 0 3Z"></path>
</svg>