<svg width="32" height="32" fill="currentColor" viewBox="0 0 24 24" xmlns="http://www.w3.org/2000/svg">
<path d="M17.25 10.5a1.5 1.5 0 1 0 0-3 1.5 1.5 0 0 0 0 3Z"></path>
<path d="M21 3.75h-8.82a6 6 0 1 0-7.68 8.94v7.56a1.5 1.5 0 0 0 1.5 1.5h15a1.5 1.5 0 0 0 1.5-1.5v-15a1.5 1.5 0 0 0-1.5-1.5ZM3 7.5a4.5 4.5 0 0 1 8.393-2.25H6v1.5h5.933c.041.248.064.498.067.75a4.987 4.987 0 0 1-.067.75H7.5v1.5h3.893A4.5 4.5 0 0 1 3 7.5Zm18 12.75H6l3.75-3.75 1.193 1.192a1.5 1.5 0 0 0 2.115 0L17.25 13.5 21 17.25v3Zm0-5.123-2.692-2.692a1.5 1.5 0 0 0-2.115 0L12 16.627l-1.192-1.192a1.5 1.5 0 0 0-2.115 0L6 18.127v-4.822c.49.126.994.191 1.5.195a6 6 0 0 0 6-6c0-.772-.15-1.536-.442-2.25H21v9.877Z"></path>
</svg>