<svg width="32" height="32" fill="currentColor" viewBox="0 0 24 24" xmlns="http://www.w3.org/2000/svg">
<path d="M12 16.5a3 3 0 1 0 0 5.999 3 3 0 0 0 0-5.999Zm0 4.5a1.5 1.5 0 1 1 0-3 1.5 1.5 0 0 1 0 3Z"></path>
<path d="M22.5 3.753a2.25 2.25 0 1 0-3 2.111v5.389h-6.75v-4.5h-1.5v4.5H4.5V5.865a2.25 2.25 0 1 0-1.5 0v5.388a1.501 1.501 0 0 0 1.5 1.5h6.75v2.25h1.5v-2.25h6.75a1.502 1.502 0 0 0 1.5-1.5V5.865a2.246 2.246 0 0 0 1.5-2.112Zm-18.75-.75a.75.75 0 1 1 0 1.5.75.75 0 0 1 0-1.5Zm16.5 1.5a.75.75 0 1 1 0-1.5.75.75 0 0 1 0 1.5Z"></path>
<path d="M12 5.25a1.5 1.5 0 1 0 0-3 1.5 1.5 0 0 0 0 3Z"></path>
</svg>