<svg width="32" height="32" fill="currentColor" viewBox="0 0 24 24" xmlns="http://www.w3.org/2000/svg">
<path d="M22.5 12.75v-1.5h-9.75v-3h1.5a1.502 1.502 0 0 0 1.5-1.5V3a1.502 1.502 0 0 0-1.5-1.5h-4.5A1.502 1.502 0 0 0 8.25 3v3.75a1.502 1.502 0 0 0 1.5 1.5h1.5v3H1.5v1.5H6v3H4.5a1.502 1.502 0 0 0-1.5 1.5V21a1.502 1.502 0 0 0 1.5 1.5H9a1.502 1.502 0 0 0 1.5-1.5v-3.75a1.502 1.502 0 0 0-1.5-1.5H7.5v-3h9v3H15a1.502 1.502 0 0 0-1.5 1.5V21a1.502 1.502 0 0 0 1.5 1.5h4.5A1.502 1.502 0 0 0 21 21v-3.75a1.502 1.502 0 0 0-1.5-1.5H18v-3h4.5ZM9.75 3h4.5v3.75h-4.5V3ZM9 21H4.5v-3.75H9V21Zm10.5 0H15v-3.75h4.5V21Z"></path>
</svg>