<svg width="32" height="32" fill="currentColor" viewBox="0 0 24 24" xmlns="http://www.w3.org/2000/svg">
<path d="M7.875 19.5a1.125 1.125 0 1 0 0-2.25 1.125 1.125 0 0 0 0 2.25Z"></path>
<path d="m14.56 11.252-1.06 1.06 2.69 2.69 1.06-1.06-2.69-2.69Z"></path>
<path d="M12 11.25a1.5 1.5 0 1 0 0-3 1.5 1.5 0 0 0 0 3Z"></path>
<path d="M12 4.5A5.25 5.25 0 1 0 12 15v-1.5a3.75 3.75 0 1 1 3.75-3.75h1.5A5.25 5.25 0 0 0 12 4.5Z"></path>
<path d="M19.5 1.5h-15A1.5 1.5 0 0 0 3 3v18a1.5 1.5 0 0 0 1.5 1.5h15A1.5 1.5 0 0 0 21 21V3a1.5 1.5 0 0 0-1.5-1.5Zm0 19.5h-15V3h15v18Z"></path>
</svg>