<svg width="32" height="32" fill="currentColor" viewBox="0 0 24 24" xmlns="http://www.w3.org/2000/svg">
<path d="M23.25 9.307 22.192 8.25 19.5 10.943 16.808 8.25 15.75 9.307 18.442 12l-2.692 2.693 1.058 1.057 2.692-2.693 2.692 2.693 1.058-1.057L20.558 12l2.692-2.693Z"></path>
<path d="M13.5 22.5a.75.75 0 0 1-.533-.224L7.252 16.5H2.25a.75.75 0 0 1-.75-.75v-7.5a.75.75 0 0 1 .75-.75h5.003l5.714-5.775a.75.75 0 0 1 1.058 0 .75.75 0 0 1 .225.525v19.5a.75.75 0 0 1-.75.75ZM3 15h4.5a.878.878 0 0 1 .592.226l4.658 4.702V4.073L8.092 8.776A.878.878 0 0 1 7.5 9H3v6Z"></path>
</svg>