<svg width="32" height="32" fill="currentColor" viewBox="0 0 24 24" xmlns="http://www.w3.org/2000/svg">
<path d="M17.25 18.002a2.235 2.235 0 0 0-1.528.608l-3.003-1.801a1.536 1.536 0 0 0 0-.614l3.003-1.802a2.435 2.435 0 1 0-.691-1.334l-3.003 1.802a2.25 2.25 0 1 0 0 3.282l3.003 1.802a2.225 2.225 0 0 0-.031.307 2.25 2.25 0 1 0 2.25-2.25Zm0-6a.75.75 0 1 1 0 1.5.75.75 0 0 1 0-1.5Zm-6.75 5.25a.75.75 0 1 1 0-1.501.75.75 0 0 1 0 1.5Zm6.75 3.75a.75.75 0 1 1 0-1.501.75.75 0 0 1 0 1.5Z"></path>
<path d="M6 21H3a1.502 1.502 0 0 1-1.5-1.5v-15A1.502 1.502 0 0 1 3 3h5.69a1.49 1.49 0 0 1 1.06.44L12.31 6H21a1.502 1.502 0 0 1 1.5 1.5v6H21v-6h-9.31l-3-3H3v15h3V21Z"></path>
</svg>