<svg width="32" height="32" fill="currentColor" viewBox="0 0 24 24" xmlns="http://www.w3.org/2000/svg">
<path d="m20.37 6.063-1.148.967a7.5 7.5 0 0 1-.217 9.922l1.102 1.05a9 9 0 0 0 .263-11.91v-.03Z"></path>
<path d="M16.185 8.999a4.5 4.5 0 0 1-.135 5.955l1.102 1.02a6 6 0 0 0 .173-7.943L16.185 9Z"></path>
<path d="M13.5 22.5a.75.75 0 0 1-.533-.224L7.252 16.5H2.25a.75.75 0 0 1-.75-.75v-7.5a.75.75 0 0 1 .75-.75h5.003l5.714-5.775a.75.75 0 0 1 1.058 0 .75.75 0 0 1 .225.525v19.5a.75.75 0 0 1-.75.75ZM3 15h4.56a.75.75 0 0 1 .532.226l4.658 4.702V4.073L8.092 8.776A.75.75 0 0 1 7.56 9H3v6Z"></path>
</svg>