<svg width="32" height="32" fill="currentColor" viewBox="0 0 24 24" xmlns="http://www.w3.org/2000/svg">
<path d="M22.5 11.251a4.501 4.501 0 1 0-7.5 3.345v7.155l3-1.413 3 1.413v-7.155a4.485 4.485 0 0 0 1.5-3.345Zm-3 8.136-1.5-.706-1.5.706V15.49c.97.35 2.03.35 3 0v3.898ZM18 14.251a3 3 0 1 1 0-6 3 3 0 0 1 0 6Z"></path>
<path d="M10.5 1.5A4.505 4.505 0 0 0 6 6v4.5H4.5A1.502 1.502 0 0 0 3 12v9a1.502 1.502 0 0 0 1.5 1.5h8.25V21H4.5v-9h6.75v-1.5H7.5V6a3 3 0 0 1 5.94-.6l1.47-.3a4.513 4.513 0 0 0-4.41-3.6Z"></path>
</svg>