<svg width="32" height="32" fill="currentColor" viewBox="0 0 24 24" xmlns="http://www.w3.org/2000/svg">
<path d="M16.233 7.206a8.334 8.334 0 0 0-4.209-1.098.555.555 0 0 0-.572.327.563.563 0 0 0 .34.763.555.555 0 0 0 .232.023c.471.007.94.059 1.4.155-1.656.796-3.49 2.638-4.934 5.158a16.607 16.607 0 0 0-1.466 3.272 7.07 7.07 0 0 1-1.599-2.903 2.54 2.54 0 0 1 .206-1.96C6.21 9.932 7.42 9.357 9.025 9.32a.554.554 0 0 0 .506-.36.561.561 0 0 0 .037-.215.555.555 0 0 0-.572-.545c-1.965.03-3.497.796-4.304 2.137a3.579 3.579 0 0 0-.323 2.793 8.851 8.851 0 0 0 2.347 3.847 8.412 8.412 0 0 0-.176 2.395 7.38 7.38 0 0 1-1.467-2.565.555.555 0 0 0-.477-.406.557.557 0 0 0-.615.534.563.563 0 0 0 .036.226 8.43 8.43 0 0 0 3.799 4.701 8.343 8.343 0 0 0 4.208 1.135 8.57 8.57 0 0 0 2.2-.287 8.411 8.411 0 0 0 4.132-2.596 8.498 8.498 0 0 0 1.22-9.295 8.442 8.442 0 0 0-3.32-3.584l-.023-.03Zm-2.317 14.422a7.225 7.225 0 0 1-5.543-.737c-.63-.361-.887-1.474-.69-2.948.572.47 1.18.895 1.819 1.268a10.17 10.17 0 0 0 5.081 1.473 8.036 8.036 0 0 0 1.775-.206 7.155 7.155 0 0 1-2.442 1.15Zm4.444-3.434c-1.467 1.474-4.884 2.019-8.3.037a12.736 12.736 0 0 1-2.12-1.563 15.577 15.577 0 0 1 1.525-3.618c2.156-3.744 5.008-5.579 6.21-4.878a7.364 7.364 0 0 1 3.396 4.455 7.402 7.402 0 0 1-.712 5.567Z"></path>
<path d="M3.341 8.847 1.127 7.58a.556.556 0 0 0-.852.625.56.56 0 0 0 .295.34l2.214 1.246a.628.628 0 0 0 .279.073.562.562 0 0 0 .484-.28.563.563 0 0 0-.206-.737Z"></path>
<path d="M6.37 5.802a.544.544 0 0 0 .476.303.548.548 0 0 0 .279-.074.56.56 0 0 0 .205-.737l-1.276-2.21a.558.558 0 0 0-.733-.2.552.552 0 0 0-.205.737L6.37 5.802Z"></path>
<path d="M12.026 4.692a.556.556 0 0 0 .557-.56V1.56a.562.562 0 0 0-.557-.56.556.556 0 0 0-.557.56v2.572a.561.561 0 0 0 .557.56Z"></path>
<path d="M16.922 6.007a.548.548 0 0 0 .733-.206l1.283-2.211a.555.555 0 0 0-.205-.737.555.555 0 0 0-.733.199l-1.276 2.21a.562.562 0 0 0 .198.745Z"></path>
<path d="M23.681 7.766a.558.558 0 0 0-.733-.2l-2.2 1.283a.56.56 0 0 0-.205.737.566.566 0 0 0 .484.28.628.628 0 0 0 .279-.074l2.2-1.29a.56.56 0 0 0 .175-.736Z"></path>
</svg>