<svg width="32" height="32" fill="currentColor" viewBox="0 0 24 24" xmlns="http://www.w3.org/2000/svg">
<path d="M16.302 20h-1.438v-5.993l-2.322 2.822a.721.721 0 0 1-.553.263.713.713 0 0 1-.554-.263l-2.322-2.822V20H7.676v-8a.734.734 0 0 1 .474-.684.71.71 0 0 1 .798.218l3.04 3.695 3.041-3.695a.718.718 0 0 1 .798-.218.734.734 0 0 1 .474.684v8Z"></path>
<path d="m3.477 11.748-2.156-1.273a.543.543 0 0 0-.748.204.558.558 0 0 0 .201.756l2.157 1.295a.542.542 0 0 0 .856-.391.56.56 0 0 0-.31-.562v-.03Z"></path>
<path d="M6.45 8.74a.53.53 0 0 0 .524.264.52.52 0 0 0 .195-.067.545.545 0 0 0 .201-.728L6.12 6.028a.552.552 0 0 0-.546-.273.543.543 0 0 0-.458.405.56.56 0 0 0 .055.42l1.28 2.16Z"></path>
<path d="M11.988 7.636a.543.543 0 0 0 .386-.162.556.556 0 0 0 .16-.39V4.553a.556.556 0 0 0-.16-.391.543.543 0 0 0-.773 0 .556.556 0 0 0-.16.39v2.539a.554.554 0 0 0 .547.546Z"></path>
<path d="M16.79 8.936c.08.05.172.077.266.08a.541.541 0 0 0 .474-.276l1.258-2.182a.56.56 0 0 0-.201-.757.542.542 0 0 0-.748.204l-1.25 2.182a.551.551 0 0 0 .2.749Z"></path>
<path d="M23.42 10.675a.547.547 0 0 0-.719-.204l-2.156 1.273a.558.558 0 0 0 .087 1.018.54.54 0 0 0 .416-.036l2.157-1.265a.556.556 0 0 0 .29-.572.564.564 0 0 0-.075-.214Z"></path>
</svg>