<svg width="32" height="32" fill="currentColor" viewBox="0 0 24 24" xmlns="http://www.w3.org/2000/svg">
<path d="M16.5 22.5h-3.75a5.256 5.256 0 0 1-5.25-5.25 5.012 5.012 0 0 1 1.518-3.523 5.094 5.094 0 0 0-1.511-.227C3.782 13.535 3 18.413 3 22.5H1.5c0-8.632 3.259-10.474 5.993-10.5 1.17.015 2.32.302 3.359.838a.75.75 0 0 1 .046 1.297A3.658 3.658 0 0 0 12.75 21h3.75v1.5Z"></path>
<path d="M14.25 6h-1.5v6h1.5V6Z"></path>
<path d="M21 4.06 19.94 3l-1.697 1.696a7.462 7.462 0 0 0-3.993-1.658V1.5h-1.5v1.538A7.51 7.51 0 0 0 6 10.5h1.5a6 6 0 1 1 6 6V18a7.494 7.494 0 0 0 5.804-12.243L21 4.06Z"></path>
</svg>