<svg width="32" height="32" fill="currentColor" viewBox="0 0 24 24" xmlns="http://www.w3.org/2000/svg">
<path d="M16.5 22.5h-3.75a5.256 5.256 0 0 1-5.25-5.25 5.012 5.012 0 0 1 1.518-3.523 5.035 5.035 0 0 0-1.511-.227C3.782 13.535 3 18.413 3 22.5H1.5c0-8.632 3.259-10.474 5.993-10.5a7.571 7.571 0 0 1 3.359.838.75.75 0 0 1 .046 1.297A3.658 3.658 0 0 0 12.75 21h3.75v1.5Z"></path>
<path d="M13.5 18v-1.5a6 6 0 1 0-6-6H6a7.5 7.5 0 1 1 7.5 7.5Z"></path>
<path d="M13.5 6.75a.75.75 0 1 0 0-1.5.75.75 0 0 0 0 1.5Z"></path>
<path d="m17.25 13.19-1.725-1.726c.146-.3.223-.63.225-.964a2.253 2.253 0 0 0-2.25-2.25 2.221 2.221 0 0 0-.964.226L10.81 6.75 9.75 7.81l1.725 1.726c-.146.3-.223.63-.225.964a2.253 2.253 0 0 0 2.25 2.25c.334-.002.664-.079.964-.226l1.725 1.726 1.061-1.06Zm-4.5-2.69a.75.75 0 1 1 1.5 0 .75.75 0 0 1-1.5 0Z"></path>
</svg>