<svg width="32" height="32" fill="currentColor" viewBox="0 0 24 24" xmlns="http://www.w3.org/2000/svg">
<path d="M22.5 1.5H18V3h4.5V1.5Z"></path>
<path d="M21 6h-3v1.5h3V6Z"></path>
<path d="M22.5 10.5H18V12h4.5v-1.5Z"></path>
<path d="M21 15h-3v1.5h3V15Z"></path>
<path d="M22.5 21H18a7.526 7.526 0 0 1-5.195-12.946 8.972 8.972 0 0 0-3.06-.554 5.177 5.177 0 0 0-4.523 2.565C3.747 12.326 3 16.005 3 21H1.5c0-5.29.83-9.245 2.465-11.754A6.68 6.68 0 0 1 9.745 6h.005a11.07 11.07 0 0 1 4.847 1.194.75.75 0 0 1 .065 1.292A6.018 6.018 0 0 0 18 19.5h4.5V21Z"></path>
</svg>