<svg width="32" height="32" fill="currentColor" viewBox="0 0 24 24" xmlns="http://www.w3.org/2000/svg">
<path d="M21.124 1.5a9.771 9.771 0 0 0-9.406 7.184l-.883 3.237A8.267 8.267 0 0 1 2.875 18H1.5v1.5h1.376a9.687 9.687 0 0 0 2.601-.361 2.998 2.998 0 1 0 4.937-3.215 9.725 9.725 0 0 0 1.215-1.896 2.994 2.994 0 0 0 3.72-4.273 2.994 2.994 0 0 0-1.937-1.426 8.211 8.211 0 0 1 1.294-2.257 2.987 2.987 0 0 0 5.18-2.974c.41-.064.823-.097 1.238-.098H22.5V1.5h-1.376ZM8.25 19.5a1.5 1.5 0 0 1-1.359-.874 9.81 9.81 0 0 0 2.473-1.607A1.483 1.483 0 0 1 8.25 19.5Zm6-8.25a1.494 1.494 0 0 1-2.07 1.385c.034-.107.073-.21.102-.32l.694-2.542a1.498 1.498 0 0 1 1.274 1.477Zm4.5-6.75a1.495 1.495 0 0 1-2.926.442 8.288 8.288 0 0 1 2.522-1.454A1.5 1.5 0 0 1 18.75 4.5Z"></path>
<path d="M7.5 3v3.44L2.56 1.5 1.5 2.56 6.44 7.5H3V9h6V3H7.5Z"></path>
</svg>