<svg width="32" height="32" fill="currentColor" viewBox="0 0 24 24" xmlns="http://www.w3.org/2000/svg">
<path d="M21.124 1.5a9.771 9.771 0 0 0-9.406 7.184l-.883 3.237A8.267 8.267 0 0 1 2.875 18H1.5v1.5h1.376c.223 0 .444-.013.664-.028l5.947 2.23A.751.751 0 0 0 10.5 21v-5.18c.248-.315.477-.643.684-.986l4.772-1.363a.749.749 0 0 0 .38-1.19l-2.998-3.746c.217-.62.507-1.21.864-1.76l4.31 1.437A.75.75 0 0 0 19.5 7.5V3.169A8.172 8.172 0 0 1 21.124 3H22.5V1.5h-1.376ZM6.252 18.887A9.786 9.786 0 0 0 9 17.321v2.596l-2.748-1.03Zm5.804-5.862a9.63 9.63 0 0 0 .227-.71l.549-2.013 1.628 2.036-2.404.687ZM18 6.46l-2.806-.935A8.303 8.303 0 0 1 18 3.623v2.836Z"></path>
<path d="M7.5 3v3.44L2.56 1.5 1.5 2.56 6.44 7.5H3V9h6V3H7.5Z"></path>
</svg>