<svg width="32" height="32" fill="currentColor" viewBox="0 0 24 24" xmlns="http://www.w3.org/2000/svg">
<path d="M12.75 21v-8.25h.75a1.502 1.502 0 0 0 1.5-1.5v-3a1.502 1.502 0 0 0-1.5-1.5h-3A1.502 1.502 0 0 0 9 8.25v3a1.502 1.502 0 0 0 1.5 1.5h.75V21H1.5v1.5h21V21h-9.75ZM10.5 8.25h3l.001 3H10.5v-3Z"></path>
<path d="M7 13.662a5.25 5.25 0 0 1 0-7.826l1 1.117a3.75 3.75 0 0 0 0 5.59l-1 1.119Z"></path>
<path d="m17 13.661-1-1.117a3.75 3.75 0 0 0 0-5.59l1-1.118a5.25 5.25 0 0 1 0 7.825Z"></path>
<path d="M4.8 16.349a8.251 8.251 0 0 1 0-13.2l.9 1.2a6.75 6.75 0 0 0 0 10.8l-.9 1.2Z"></path>
<path d="m19.2 16.35-.9-1.2a6.75 6.75 0 0 0 0-10.802l.9-1.2a8.252 8.252 0 0 1 0 13.201Z"></path>
</svg>