<svg width="32" height="32" fill="currentColor" viewBox="0 0 24 24" xmlns="http://www.w3.org/2000/svg">
<path d="M21.124 1.5a9.739 9.739 0 0 0-6.305 2.33 2.996 2.996 0 1 0-3.132 4.966l-.852 3.125a8.23 8.23 0 0 1-.187.586 2.99 2.99 0 0 0-3.866 4.504A8.217 8.217 0 0 1 2.876 18H1.5v1.5h1.376c.223 0 .444-.013.664-.028l5.947 2.23A.751.751 0 0 0 10.5 21v-5.18c.248-.315.477-.643.684-.986l4.772-1.363a.749.749 0 0 0 .38-1.19l-2.998-3.746c.217-.62.507-1.21.864-1.76l4.31 1.437A.75.75 0 0 0 19.5 7.5V3.169A8.172 8.172 0 0 1 21.124 3H22.5V1.5h-1.376Zm-8.374 3c.369.005.723.146.993.397a9.707 9.707 0 0 0-1.563 2.49 1.5 1.5 0 0 1 .57-2.887ZM7.5 15a1.49 1.49 0 0 1 2.503-1.104 8.261 8.261 0 0 1-1.947 2.261A1.498 1.498 0 0 1 7.5 15Zm-1.248 3.887A9.786 9.786 0 0 0 9 17.321v2.596l-2.748-1.03Zm5.804-5.862a9.63 9.63 0 0 0 .227-.71l.549-2.013 1.628 2.036-2.404.687ZM18 6.46l-2.806-.935A8.303 8.303 0 0 1 18 3.623v2.836Z"></path>
<path d="M16.5 16.5V18h3.44l-3.44 3.44 1.06 1.06L21 19.06v3.44h1.5v-6h-6Z"></path>
<path d="M1.5 1.5V3h3.44L1.5 6.44 2.56 7.5 6 4.06V7.5h1.5v-6h-6Z"></path>
</svg>