<svg width="32" height="32" fill="currentColor" viewBox="0 0 24 24" xmlns="http://www.w3.org/2000/svg">
<path d="M18 19.5a2.25 2.25 0 1 0-2.113-3H9.75v.75A3.75 3.75 0 1 1 6 13.5V12a5.25 5.25 0 1 0 5.196 6h4.691A2.243 2.243 0 0 0 18 19.5Z"></path>
<path d="M18 12c-.66 0-1.314.124-1.927.365l-2.375-4.154a2.285 2.285 0 1 0-1.3.749l3.09 5.406.652-.373a3.75 3.75 0 1 1-1.389 5.131l-1.298.752a5.252 5.252 0 0 0 9.094-5.25A5.25 5.25 0 0 0 18 12Z"></path>
<path d="M6.399 15.041a2.273 2.273 0 1 0 1.3.75l2.719-4.76.373-.65-.651-.373a3.75 3.75 0 1 1 5.109-1.383l1.298.752a5.25 5.25 0 1 0-7.76 1.526c-.342.557-.826 1.404-1.554 2.68l-.834 1.458Z"></path>
</svg>