<svg width="32" height="32" fill="currentColor" viewBox="0 0 24 24" xmlns="http://www.w3.org/2000/svg">
<path d="M18 19.5a1.5 1.5 0 1 0 0-3 1.5 1.5 0 0 0 0 3Z"></path>
<path d="M18 22.5a4.5 4.5 0 1 1 0-9 4.5 4.5 0 0 1 0 9Zm0-7.5a3 3 0 1 0 0 5.999A3 3 0 0 0 18 15Z"></path>
<path d="M12 21H6V3h6v4.5A1.504 1.504 0 0 0 13.5 9H18v2.25h1.5V7.5a.68.68 0 0 0-.225-.525l-5.25-5.25A.682.682 0 0 0 13.5 1.5H6A1.504 1.504 0 0 0 4.5 3v18A1.504 1.504 0 0 0 6 22.5h6V21Zm1.5-17.7 4.2 4.2h-4.2V3.3Z"></path>
</svg>