<svg width="32" height="32" fill="currentColor" viewBox="0 0 24 24" xmlns="http://www.w3.org/2000/svg">
<path d="M15 15v-2.25a3 3 0 0 0-6 0V15a1.502 1.502 0 0 0-1.5 1.5V21A1.502 1.502 0 0 0 9 22.5h6a1.502 1.502 0 0 0 1.5-1.5v-4.5A1.502 1.502 0 0 0 15 15Zm-4.5-2.25a1.5 1.5 0 1 1 3 0V15h-3v-2.25ZM9 21v-4.5h6V21H9Z"></path>
<path d="m4.58 5.329 1.06 1.06a8.986 8.986 0 0 1 12.721 0l1.06-1.06a10.483 10.483 0 0 0-14.842 0Z"></path>
<path d="M12 6a6.728 6.728 0 0 0-4.77 1.98l1.06 1.06a5.242 5.242 0 0 1 7.42 0l1.06-1.06A6.728 6.728 0 0 0 12 6Z"></path>
</svg>