<svg width="32" height="32" fill="currentColor" viewBox="0 0 24 24" xmlns="http://www.w3.org/2000/svg">
<path d="M12 20.25a1.5 1.5 0 1 0 0-3 1.5 1.5 0 0 0 0 3Z"></path>
<path d="m7.853 14.425 1.06 1.06a4.477 4.477 0 0 1 6.167-.007l1.06-1.06a5.972 5.972 0 0 0-8.287.007Z"></path>
<path d="m4.672 11.244 1.06 1.06a8.966 8.966 0 0 1 12.528-.007l1.06-1.06a10.463 10.463 0 0 0-14.648.008Z"></path>
<path d="M22.5 8.056a14.955 14.955 0 0 0-21 0v.017l1.053 1.053A13.45 13.45 0 0 1 21.44 9.12l1.06-1.063v-.001Z"></path>
</svg>