<svg width="32" height="32" fill="currentColor" viewBox="0 0 24 24" xmlns="http://www.w3.org/2000/svg">
<path d="m5.212 15.714-1.06-1.06a3.75 3.75 0 0 0 0-5.304l1.06-1.06a5.25 5.25 0 0 1 0 7.424Z"></path>
<path d="m7.864 18.36-1.06-1.06a7.5 7.5 0 0 0 0-10.607l1.06-1.06a9 9 0 0 1 0 12.728Z"></path>
<path d="M18.788 15.714a5.25 5.25 0 0 1 0-7.425l1.06 1.061a3.748 3.748 0 0 0 0 5.304l-1.06 1.06Z"></path>
<path d="M16.136 18.36a9 9 0 0 1 0-12.727l1.06 1.06a7.5 7.5 0 0 0 0 10.607l-1.06 1.06Z"></path>
<path d="M2.25 11.25H1.5V3H0v18h1.5v-8.25h.75a.75.75 0 1 0 0-1.5Z"></path>
<path d="M22.5 3v8.25h-.75a.75.75 0 1 0 0 1.5h.75V21H24V3h-1.5Z"></path>
</svg>