<svg width="32" height="32" fill="currentColor" viewBox="0 0 24 24" xmlns="http://www.w3.org/2000/svg">
<path d="M9.75 19.5h-1.5a3.754 3.754 0 0 0-3.75-3.75v-1.5a5.256 5.256 0 0 1 5.25 5.25Z"></path>
<path d="M13.5 19.5H12A7.508 7.508 0 0 0 4.5 12v-1.5a9.01 9.01 0 0 1 9 9Z"></path>
<path d="M19.5 9.75a5.256 5.256 0 0 1-5.25-5.25h1.5a3.754 3.754 0 0 0 3.75 3.75v1.5Z"></path>
<path d="M19.5 13.5a9.01 9.01 0 0 1-9-9H12a7.508 7.508 0 0 0 7.5 7.5v1.5Z"></path>
<path d="M5.78 18.22a.75.75 0 0 0-1.06 0L1.5 21.44l1.06 1.06 3.22-3.22a.75.75 0 0 0 0-1.06Z"></path>
<path d="m21.439 1.5-3.22 3.22a.75.75 0 0 0 1.06 1.06l3.22-3.22-1.06-1.06Z"></path>
</svg>