<svg width="32" height="32" fill="currentColor" viewBox="0 0 24 24" xmlns="http://www.w3.org/2000/svg">
<path d="M12.75 3h-1.5v2.25h1.5V3Z"></path>
<path d="M21 11.25h-2.25v1.5H21v-1.5Z"></path>
<path d="M12.75 18.75h-1.5V21h1.5v-2.25Z"></path>
<path d="M5.25 11.25H3v1.5h2.25v-1.5Z"></path>
<path d="M6.143 5.08 5.082 6.14l1.591 1.592 1.06-1.061-1.59-1.591Z"></path>
<path d="m17.856 5.08-1.591 1.592 1.06 1.06 1.591-1.59-1.06-1.061Z"></path>
<path d="m17.324 16.26-1.06 1.06 1.59 1.591 1.061-1.06-1.59-1.591Z"></path>
<path d="m6.676 16.26-1.591 1.592 1.06 1.06 1.592-1.59-1.061-1.061Z"></path>
<path d="M21 22.5H3V24h18v-1.5Z"></path>
<path d="M21 0H3v1.5h18V0Z"></path>
<path d="M12 7.5a4.5 4.5 0 1 0 0 9 4.5 4.5 0 0 0 0-9ZM9 12a3 3 0 0 1 3-3v6a3 3 0 0 1-3-3Z"></path>
</svg>