<svg width="32" height="32" fill="currentColor" viewBox="0 0 24 24" xmlns="http://www.w3.org/2000/svg">
<path d="m18.75 1.5-1.06 1.06 1.939 1.94H15.81a12.697 12.697 0 0 0-4.735.912L7.867 6.695a11.197 11.197 0 0 1-4.178.805H1.5V9h2.189c1.622.001 3.23-.308 4.735-.912l3.209-1.283A11.198 11.198 0 0 1 15.811 6h3.818l-1.94 1.94L18.75 9l3.75-3.75-3.75-3.75Z"></path>
<path d="m15.75 8.25-1.06 1.06 1.939 1.94h-2.453c-1.529 0-3.046.274-4.477.812l-1.925.722a11.21 11.21 0 0 1-3.95.716H1.5V15h2.324c1.529 0 3.046-.274 4.477-.812l1.925-.722a11.211 11.211 0 0 1 3.95-.716h2.453l-1.94 1.94 1.061 1.06L19.5 12l-3.75-3.75Z"></path>
<path d="m12.75 15-1.06 1.06L13.628 18h-1.181c-1.371 0-2.733.22-4.033.654l-.804.269a11.241 11.241 0 0 1-3.559.577H1.5V21h2.552c1.371 0 2.733-.22 4.033-.654l.804-.269a11.24 11.24 0 0 1 3.559-.577h1.18l-1.939 1.94 1.061 1.06 3.75-3.75L12.75 15Z"></path>
</svg>