<svg width="32" height="32" fill="currentColor" viewBox="0 0 24 24" xmlns="http://www.w3.org/2000/svg">
<path d="M18.75 21A3.754 3.754 0 0 1 15 17.25h1.5A2.25 2.25 0 1 0 18.75 15H4.5v-1.5h14.25a3.75 3.75 0 0 1 0 7.5Z"></path>
<path d="M17.25 11.25H7.5v-1.5h9.75A2.25 2.25 0 1 0 15 7.5h-1.5a3.75 3.75 0 1 1 3.75 3.75Z"></path>
<path d="M9.75 17.25h-1.5v1.5h1.5v-1.5Z"></path>
<path d="M11.25 18.75h-1.5v1.5h1.5v-1.5Z"></path>
<path d="M12.75 20.25h-1.5v1.5h1.5v-1.5Z"></path>
<path d="M12.75 17.25h-1.5v1.5h1.5v-1.5Z"></path>
<path d="M9.75 20.25h-1.5v1.5h1.5v-1.5Z"></path>
<path d="M6 3H4.5v1.5H6V3Z"></path>
<path d="M7.5 4.5H6V6h1.5V4.5Z"></path>
<path d="M9 6H7.5v1.5H9V6Z"></path>
<path d="M9 3H7.5v1.5H9V3Z"></path>
<path d="M6 6H4.5v1.5H6V6Z"></path>
<path d="M3 19.5H1.5V21H3v-1.5Z"></path>
<path d="M4.5 21H3v1.5h1.5V21Z"></path>
<path d="M6 22.5H4.5V24H6v-1.5Z"></path>
<path d="M6 19.5H4.5V21H6v-1.5Z"></path>
<path d="M3 22.5H1.5V24H3v-1.5Z"></path>
</svg>