<svg width="32" height="32" fill="currentColor" viewBox="0 0 24 24" xmlns="http://www.w3.org/2000/svg">
<path d="M12.75 1.5h-1.5v2.25h1.5V1.5Z"></path>
<path d="M21 9.75h-2.25v1.5H21v-1.5Z"></path>
<path d="M12.75 17.25h-1.5v2.25h1.5v-2.25Z"></path>
<path d="M5.25 9.75H3v1.5h2.25v-1.5Z"></path>
<path d="M6.143 3.58 5.082 4.64l1.591 1.592 1.06-1.061-1.59-1.591Z"></path>
<path d="m17.863 3.58-1.591 1.592 1.06 1.06 1.591-1.59-1.06-1.061Z"></path>
<path d="m17.33 14.752-1.061 1.06 1.59 1.592 1.061-1.061-1.59-1.591Z"></path>
<path d="M6.675 14.768 5.084 16.36l1.06 1.061 1.592-1.591-1.061-1.06Z"></path>
<path d="M21 21H3v1.5h18V21Z"></path>
<path d="M12 15a4.5 4.5 0 1 0 0-9 4.5 4.5 0 0 0 0 9Zm0-7.5v6a3 3 0 0 1 0-6Z"></path>
</svg>