<svg width="32" height="32" fill="currentColor" viewBox="0 0 24 24" xmlns="http://www.w3.org/2000/svg">
<path d="M12.75 1.5h-1.5v2.25h1.5V1.5Z"></path>
<path d="M22.5 11.25h-2.25v1.5h2.25v-1.5Z"></path>
<path d="M12.75 20.25h-1.5v2.25h1.5v-2.25Z"></path>
<path d="M3.75 11.25H1.5v1.5h2.25v-1.5Z"></path>
<path d="M5.155 4.094 4.093 5.156 5.686 6.75l1.062-1.062-1.593-1.593Z"></path>
<path d="m18.841 4.097-1.591 1.59 1.06 1.061 1.592-1.59-1.061-1.061Z"></path>
<path d="m18.311 17.251-1.061 1.061 1.592 1.592 1.061-1.061-1.591-1.592Z"></path>
<path d="m4.103 18.845 1.59-1.595 1.057 1.064-1.587 1.591-1.06-1.06Z"></path>
<path d="M12.75 9.75h-1.5v1.5h1.5v-1.5Z"></path>
<path d="M15.75 9.75h-1.5v1.5h1.5v-1.5Z"></path>
<path d="M14.25 8.25h-1.5v1.5h1.5v-1.5Z"></path>
<path d="M14.25 11.25h-1.5v1.5h1.5v-1.5Z"></path>
<path d="M14.25 14.25h-1.5v1.5h1.5v-1.5Z"></path>
<path d="M12.75 12.75h-1.5v1.5h1.5v-1.5Z"></path>
<path d="M15.75 12.75h-1.5v1.5h1.5v-1.5Z"></path>
<path d="M12 5.25A6.75 6.75 0 1 0 18.75 12 6.758 6.758 0 0 0 12 5.25ZM6.75 12a5.253 5.253 0 0 1 4.5-5.19v1.44h1.5V6.81c.52.074 1.026.227 1.5.454v.986h1.418l.082.082V9.75h.986c.226.474.38.98.454 1.5h-1.44v1.5h1.44a5.195 5.195 0 0 1-.454 1.5h-.986v1.418a5.348 5.348 0 0 1-.082.082H14.25v.986c-.474.226-.98.38-1.5.454v-1.44h-1.5v1.44A5.253 5.253 0 0 1 6.75 12Z"></path>
</svg>