<svg width="32" height="32" fill="currentColor" viewBox="0 0 24 24" xmlns="http://www.w3.org/2000/svg">
<path d="M17.25 21a3.754 3.754 0 0 1-3.75-3.75H15A2.25 2.25 0 1 0 17.25 15h-.75v-1.5h.75a3.75 3.75 0 0 1 0 7.5Z"></path>
<path d="M15 13.5h-3V15h3v-1.5Z"></path>
<path d="M10.5 13.5h-3V15h3v-1.5Z"></path>
<path d="M6 13.5H3V15h3v-1.5Z"></path>
<path d="M15.75 11.25H15v-1.5h.75A2.25 2.25 0 1 0 13.5 7.5H12a3.75 3.75 0 1 1 3.75 3.75Z"></path>
<path d="M13.5 9.75h-3v1.5h3v-1.5Z"></path>
<path d="M9 9.75H6v1.5h3v-1.5Z"></path>
</svg>