<svg width="32" height="32" fill="currentColor" viewBox="0 0 24 24" xmlns="http://www.w3.org/2000/svg">
<path d="M12.75 4.5h-1.5V6h1.5V4.5Z"></path>
<path d="M19.5 11.25H18v1.5h1.5v-1.5Z"></path>
<path d="M12.75 18h-1.5v1.5h1.5V18Z"></path>
<path d="M6 11.25H4.5v1.5H6v-1.5Z"></path>
<path d="m7.19 6.127-1.061 1.06 1.06 1.061 1.061-1.06-1.06-1.061Z"></path>
<path d="m16.81 6.127-1.06 1.06 1.06 1.061 1.061-1.06-1.06-1.061Z"></path>
<path d="m16.81 15.752-1.06 1.06 1.06 1.061 1.061-1.06-1.06-1.061Z"></path>
<path d="m7.19 15.752-1.061 1.06 1.06 1.061 1.061-1.06-1.06-1.061Z"></path>
<path d="M12 16.5a4.5 4.5 0 1 0 0-9 4.5 4.5 0 0 0 0 9ZM12 9v6a3 3 0 0 1 0-6Z"></path>
<path d="M21 22.5H3A1.502 1.502 0 0 1 1.5 21V3A1.502 1.502 0 0 1 3 1.5h18A1.502 1.502 0 0 1 22.5 3v18a1.502 1.502 0 0 1-1.5 1.5ZM3 3v18h18V3H3Z"></path>
</svg>