<svg width="32" height="32" fill="currentColor" viewBox="0 0 24 24" xmlns="http://www.w3.org/2000/svg">
<path d="M12.75 4.5h-1.5v2.25h1.5V4.5Z"></path>
<path d="M21 12.75h-2.25v1.5H21v-1.5Z"></path>
<path d="M12.75 20.25h-1.5v2.25h1.5v-2.25Z"></path>
<path d="M5.25 12.75H3v1.5h2.25v-1.5Z"></path>
<path d="M6.14 6.58 5.08 7.64l1.591 1.592 1.06-1.061-1.59-1.591Z"></path>
<path d="m17.861 6.58-1.59 1.592 1.06 1.06 1.591-1.59-1.06-1.061Z"></path>
<path d="m17.328 17.752-1.06 1.06 1.59 1.591 1.061-1.06-1.59-1.591Z"></path>
<path d="M6.674 17.768 5.083 19.36l1.06 1.061 1.592-1.591-1.061-1.06Z"></path>
<path d="M21 1.5H3V3h18V1.5Z"></path>
<path d="M12 18a4.5 4.5 0 1 0 0-9 4.5 4.5 0 0 0 0 9Zm0-7.5v6a3 3 0 0 1 0-6Z"></path>
</svg>