<svg width="32" height="32" fill="currentColor" viewBox="0 0 24 24" xmlns="http://www.w3.org/2000/svg">
<path d="m21.987 6.039-13.5-4.5a.75.75 0 0 0-.687.111L3 5.25V1.5H1.5v21H3V8.25l4.8 3.6a.75.75 0 0 0 .687.112l13.5-4.5a.75.75 0 0 0 0-1.423ZM7.5 9.75l-4-3 4-3v6Zm3-.04-1.5.5V3.29l1.5.5v5.92Zm3-1-1.5.5V4.29l1.5.5v3.92Zm1.5-.5V5.29l4.378 1.46L15 8.21Z"></path>
<path d="M15 16.5a3 3 0 0 0-6 0h1.5A1.5 1.5 0 1 1 12 18H6v1.5h6a3.003 3.003 0 0 0 3-3Z"></path>
<path d="M19.5 16.5a3.003 3.003 0 0 0-3 3H18a1.5 1.5 0 1 1 1.5 1.5H9v1.5h10.5a3 3 0 0 0 0-6Z"></path>
</svg>