<svg width="32" height="32" fill="currentColor" viewBox="0 0 24 24" xmlns="http://www.w3.org/2000/svg">
<path d="m16.263 14.287-1.888.63-4.625-3.303V5.526l1.916-1.278L10.833 3 9 4.223 7.166 3l-.833 1.248L8.25 5.526v5.016L4.5 7.864V5.999H3v1.71l-1.737.579.474 1.423 1.887-.63L7.71 12l-4.086 2.918-1.887-.63-.474 1.423L3 16.29V18h1.5v-1.864l3.75-2.679v5.015L6.333 19.75l.833 1.248L9 19.776 10.833 21l.833-1.248-1.916-1.279v-5.016l3.75 2.68V18H15v-1.71l1.737-.579-.474-1.424Z"></path>
<path d="m22.434 10.452-4.712-8.674a.538.538 0 0 0-.943 0l-4.712 8.674a.54.54 0 0 0 .473.798h9.42a.54.54 0 0 0 .474-.798ZM16.688 4.5h1.125v3h-1.125v-3Zm.562 5.25a.75.75 0 1 1 0-1.5.75.75 0 0 1 0 1.5Z"></path>
</svg>