<svg width="32" height="32" fill="currentColor" viewBox="0 0 24 24" xmlns="http://www.w3.org/2000/svg">
<path d="M12.75 19.5h-1.5V21h1.5v-1.5Z"></path>
<path d="M14.25 21h-1.5v1.5h1.5V21Z"></path>
<path d="M15.75 22.5h-1.5V24h1.5v-1.5Z"></path>
<path d="M15.75 19.5h-1.5V21h1.5v-1.5Z"></path>
<path d="M12.75 22.5h-1.5V24h1.5v-1.5Z"></path>
<path d="M11.25 12h-1.5v1.5h1.5V12Z"></path>
<path d="M12.75 13.5h-1.5V15h1.5v-1.5Z"></path>
<path d="M14.25 15h-1.5v1.5h1.5V15Z"></path>
<path d="M14.25 12h-1.5v1.5h1.5V12Z"></path>
<path d="M11.25 15h-1.5v1.5h1.5V15Z"></path>
<path d="M7.5 22.5a.75.75 0 0 1-.67-1.085l1.5-3a.75.75 0 1 1 1.34.67l-1.5 3a.748.748 0 0 1-.67.415Z"></path>
<path d="M18.6 6.852a6.746 6.746 0 0 0-13.2 0 4.9 4.9 0 0 0-3.9 4.773V16.5l.75 1.5.75-1.5v-1.365a4.867 4.867 0 0 0 2.572 1.293l-.992 1.987a.75.75 0 1 0 1.34.67l1.5-3a.75.75 0 0 0-.334-1.006.732.732 0 0 0-.367-.067V15h-.344a3.373 3.373 0 0 1-.267-6.736l.612-.048.074-.609a5.245 5.245 0 0 1 10.413 0l.074.61.611.047A3.373 3.373 0 0 1 17.625 15h-.407v.006a.747.747 0 0 0-.718.744V18l.75 1.5L18 18v-1.519a4.837 4.837 0 0 0 1.5-.357V19.5l.75 1.5.75-1.5v-4.365a4.866 4.866 0 0 0-2.4-8.283Z"></path>
</svg>