<svg width="32" height="32" fill="currentColor" viewBox="0 0 24 24" xmlns="http://www.w3.org/2000/svg">
<path d="M13.5 21v-1.5A7.5 7.5 0 0 0 21 12h1.5a9 9 0 0 1-9 9Z"></path>
<path d="M13.5 17.25v-1.5A3.75 3.75 0 0 0 17.25 12h1.5a5.25 5.25 0 0 1-5.25 5.25Z"></path>
<path d="M20.25 8.25h-4.5v-3A2.25 2.25 0 0 0 13.5 3H9a2.25 2.25 0 0 0-2.25 2.25v3h-4.5a.75.75 0 0 0-.75.863l1.41 9.112a1.5 1.5 0 0 0 1.5 1.275h6.84V18H4.395L3.127 9.75H20.25v-1.5Zm-12-3A.75.75 0 0 1 9 4.5h4.5a.75.75 0 0 1 .75.75v3h-6v-3Z"></path>
</svg>