<svg width="32" height="32" fill="currentColor" viewBox="0 0 24 24" xmlns="http://www.w3.org/2000/svg">
<path d="m21.75 6.75-1.5 9.75-1.5-9.75h-1.5l1.89 10.5h2.22l1.89-10.5h-1.5Z"></path>
<path d="m14.25 6.75-1.14 3.75-.36 1.485-.345-1.485-1.155-3.75h-1.5v10.5h1.5v-6l-.12-1.5.435 1.5 1.185 3.473 1.185-3.473.435-1.5-.12 1.5v6h1.5V6.75h-1.5Z"></path>
<path d="m6.9 6.75-.255 6-.195 3.405-.308-2.655-.51-4.095H4.119l-.51 4.095-.308 2.655-.195-3.405-.255-6H1.5l.75 10.5h1.703l.57-3.697.345-3.053.007-.023.008.023.345 3.053.57 3.697H7.5l.75-10.5H6.9Z"></path>
</svg>