<svg width="32" height="32" fill="currentColor" viewBox="0 0 24 24" xmlns="http://www.w3.org/2000/svg">
<path d="M16.5 12h-9v1.5h9V12Z"></path>
<path d="M13.5 15h-6v1.5h6V15Z"></path>
<path d="M12 5.25a6.017 6.017 0 0 1 5.898 4.87l.195 1.01 1.011.183a4.127 4.127 0 0 1-.724 8.187H5.621a4.126 4.126 0 0 1-.727-8.187l1.012-.183.194-1.01A6.02 6.02 0 0 1 12 5.25Zm0-1.5a7.518 7.518 0 0 0-7.373 6.087A5.626 5.626 0 0 0 5.617 21H18.38a5.626 5.626 0 0 0 .991-11.163 7.518 7.518 0 0 0-7.38-6.087H12Z"></path>
</svg>