<svg width="32" height="32" fill="currentColor" viewBox="0 0 24 24" xmlns="http://www.w3.org/2000/svg">
<path d="M20.25 4.5v3.75h-7.5V4.5h7.5Zm0-1.5h-7.5a1.5 1.5 0 0 0-1.5 1.5v3.75a1.5 1.5 0 0 0 1.5 1.5h7.5a1.5 1.5 0 0 0 1.5-1.5V4.5a1.5 1.5 0 0 0-1.5-1.5Z"></path>
<path d="M9 18.75H4.5v-6H9v-1.5H4.5a1.5 1.5 0 0 0-1.5 1.5v6a1.5 1.5 0 0 0 1.5 1.5H9v-1.5Z"></path>
<path d="M22.5 15h-9.879l1.94-1.94L13.5 12l-3.75 3.75 3.75 3.75 1.06-1.06-1.939-1.94H22.5V15Z"></path>
<path d="M8.25 4.5v3.75H4.5V4.5h3.75Zm0-1.5H4.5A1.5 1.5 0 0 0 3 4.5v3.75a1.5 1.5 0 0 0 1.5 1.5h3.75a1.5 1.5 0 0 0 1.5-1.5V4.5A1.5 1.5 0 0 0 8.25 3Z"></path>
</svg>