<svg width="32" height="32" fill="currentColor" viewBox="0 0 24 24" xmlns="http://www.w3.org/2000/svg">
<path d="m19.94 12.75-3.44 3.439-3.75-3.75a1.501 1.501 0 0 0-2.121 0l-3.44 3.438a1.503 1.503 0 0 0 0 2.122l3 3H4.5v1.5H12a.75.75 0 0 0 .53-1.28l-4.28-4.28 3.439-3.44 4.28 4.28a.75.75 0 0 0 1.061 0L21 13.81l-1.06-1.06Z"></path>
<path d="M16.125 12.75a2.625 2.625 0 1 1 0-5.25 2.625 2.625 0 0 1 0 5.25Zm0-3.75a1.125 1.125 0 1 0 0 2.25 1.125 1.125 0 0 0 0-2.25Z"></path>
<path d="M3 7.948 12 3.1l9.395 5.06.71-1.322-9.75-5.25a.754.754 0 0 0-.71 0l-9.75 5.25a.75.75 0 0 0-.395.66v15H3V7.949Z"></path>
</svg>