<svg width="32" height="32" fill="currentColor" viewBox="0 0 24 24" xmlns="http://www.w3.org/2000/svg">
<path d="M20.25 13.5a.75.75 0 0 1-.406-.12L16.5 11.227l-3.344 2.153a.75.75 0 0 1-1.132-.82l1.013-3.85-2.304-2.193a.75.75 0 0 1 .413-1.285l3.28-.46 1.4-2.852a.75.75 0 0 1 1.339-.017l1.495 2.869 3.197.46a.75.75 0 0 1 .41 1.285L19.963 8.71l1.013 3.85a.75.75 0 0 1-.726.94ZM16.5 9.584a.75.75 0 0 1 .406.12l2.128 1.37-.634-2.41a.75.75 0 0 1 .208-.735l1.505-1.432-2.047-.295a.75.75 0 0 1-.558-.396l-.988-1.895-.922 1.879a.75.75 0 0 1-.57.412l-2.136.3 1.5 1.427a.75.75 0 0 1 .209.734l-.634 2.411 2.127-1.37a.75.75 0 0 1 .406-.12Z"></path>
<path d="M11.863 22.5A10.36 10.36 0 0 1 6.806 3.096a.75.75 0 0 1 1.021 1.02 8.857 8.857 0 0 0 12.056 12.057.75.75 0 0 1 1.021 1.02 10.381 10.381 0 0 1-9.041 5.307ZM5.495 5.98A8.857 8.857 0 0 0 18.02 18.503 10.358 10.358 0 0 1 5.495 5.98Z"></path>
</svg>