<svg width="32" height="32" fill="currentColor" viewBox="0 0 24 24" xmlns="http://www.w3.org/2000/svg">
<path d="M16.086 15A8.142 8.142 0 0 0 18 9.75 8.25 8.25 0 1 0 9.75 18 8.142 8.142 0 0 0 15 16.086l5.69 5.664 1.06-1.06L16.086 15ZM9.75 16.5a6.75 6.75 0 1 1 6.75-6.75 6.758 6.758 0 0 1-6.75 6.75Z"></path>
<path d="M7.5 9H6V7.5A1.502 1.502 0 0 1 7.5 6H9v1.5H7.5V9Z"></path>
<path d="M13.5 9H12V7.5h-1.5V6H12a1.502 1.502 0 0 1 1.5 1.5V9Z"></path>
<path d="M9 13.5H7.5A1.502 1.502 0 0 1 6 12v-1.5h1.5V12H9v1.5Z"></path>
<path d="M12 13.5h-1.5V12H12v-1.5h1.5V12a1.502 1.502 0 0 1-1.5 1.5Z"></path>
</svg>