<svg width="32" height="32" fill="currentColor" viewBox="0 0 24 24" xmlns="http://www.w3.org/2000/svg">
<path d="M18 14.25h-2.25V12h-1.5v2.25H12v1.5h2.25V18h1.5v-2.25H18v-1.5Z"></path>
<path d="m23.25 22.192-3.516-3.516a6.02 6.02 0 1 0-1.06 1.06l3.515 3.517 1.061-1.06ZM15 19.502a4.5 4.5 0 1 1 0-8.999 4.5 4.5 0 0 1 0 9Z"></path>
<path d="M3 6H1.5V3A1.502 1.502 0 0 1 3 1.5h3V3H3v3Z"></path>
<path d="M19.5 6H18V3h-3V1.5h3A1.502 1.502 0 0 1 19.5 3v3Z"></path>
<path d="M12 1.5H9V3h3V1.5Z"></path>
<path d="M6 19.5H3A1.502 1.502 0 0 1 1.5 18v-3H3v3h3v1.5Z"></path>
<path d="M3 9H1.5v3H3V9Z"></path>
</svg>