<svg width="32" height="32" fill="currentColor" viewBox="0 0 24 24" xmlns="http://www.w3.org/2000/svg">
<path d="M20.257 9 19.2 10.057 21.135 12l-1.943 1.943L20.257 15l3-3-3-3Z"></path>
<path d="M4.808 10.065 3.75 9l-3 3 3 3 1.065-1.057L2.872 12l1.936-1.935Z"></path>
<path d="m12 21.13-1.943-1.942L9 20.253l3 3 3-3-1.057-1.058L12 21.13Z"></path>
<path d="m12 2.873 1.935 1.934L15 3.75l-3-3-3 3 1.057 1.065L12 2.872Z"></path>
<path d="M16.5 12.004a4.5 4.5 0 1 0-1.898 3.667l2.866 2.865 1.064-1.065-2.864-2.865a4.5 4.5 0 0 0 .832-2.602Zm-4.5 3a3 3 0 1 1 0-6 3 3 0 0 1 0 6Z"></path>
</svg>